<?xml version="1.0" encoding="UTF-8"?>
<!DOCTYPE svg PUBLIC "-//W3C//DTD SVG 1.0//EN" "http://www.w3.org/TR/2001/REC-SVG-20010904/DTD/svg10.dtd">
<!-- Creator: CorelDRAW X8 -->
<svg xmlns="http://www.w3.org/2000/svg" xml:space="preserve" width="1073px" height="400px" version="1.0" style="shape-rendering:geometricPrecision; text-rendering:geometricPrecision; image-rendering:optimizeQuality; fill-rule:evenodd; clip-rule:evenodd"
viewBox="0 0 728 271"
 xmlns:xlink="http://www.w3.org/1999/xlink">
 <defs>
  <style type="text/css">
   <![CDATA[
    .fil0 {fill:#0078C2}
    .fil1 {fill:#77787B}
   ]]>
  </style>
 </defs>
 <g id="Capa_x0020_1">
  <metadata id="CorelCorpID_0Corel-Layer"/>
  <g id="_2486064479840">
   <path class="fil0" d="M116 57c2,3 5,8 7,12 4,8 19,34 20,39l-53 0 26 -51zm-114 113l55 0c2,-1 0,1 2,-2l6 -11c3,-6 4,-10 7,-14l89 -1c2,3 11,22 14,28l54 0c-1,-3 -4,-9 -6,-11 -2,-5 -4,-8 -6,-12 -5,-7 -9,-15 -13,-23l-56 -103c-3,-4 -4,-7 -7,-10 -11,-11 -24,-14 -39,-7 -5,2 -7,4 -10,7 -10,9 -44,76 -52,90 -5,7 -8,15 -13,23 -2,4 -4,8 -6,12 -2,4 -5,7 -7,11 -2,3 -4,8 -6,11 -2,3 -5,9 -6,12z"/>
   <path class="fil0" d="M490 94c10,-1 40,-3 45,7 3,4 3,20 2,25 -2,15 -27,12 -42,12 -9,-1 -16,-1 -19,-8 -3,-5 -3,-18 -2,-25 1,-7 8,-10 16,-11zm-7 -32c-23,1 -36,4 -45,19 -8,12 -8,41 -5,56 4,18 14,29 33,32 17,2 84,6 100,-8 3,-3 6,-6 8,-9 7,-16 8,-57 0,-71 -6,-12 -17,-16 -30,-18 -19,-3 -42,-2 -61,-1z"/>
   <path class="fil0" d="M728 170l0 -70c-2,-4 -3,-13 -8,-20 -7,-11 -18,-15 -30,-17 -14,-2 -38,-3 -50,4 -5,3 -8,5 -12,8l0 -11c-4,-1 -37,-1 -42,0l0 106 42 0c-1,-17 0,-35 0,-52 0,-19 10,-24 29,-23 41,1 25,4 29,75l42 0z"/>
   <path class="fil0" d="M358 172c31,0 61,1 65,-29 1,-4 2,-26 1,-29 -3,1 -1,1 -5,5 -17,17 -41,20 -64,20 -7,0 -18,0 -24,-3 -5,-3 -7,-11 -7,-19 1,-20 17,-21 35,-21 23,0 23,10 27,15 1,-1 2,-2 4,-4l25 -30c-9,-21 -95,-17 -115,-6 -21,12 -20,57 -14,75 10,26 44,26 72,26z"/>
   <polygon class="fil0" points="233,170 275,170 274,20 233,20 "/>
   <path class="fil1" d="M72 241l0 -39c8,15 14,23 22,37 2,3 7,9 8,13l8 0 0 -59 -7 -1 0 49c-3,-7 -17,-29 -22,-36 -2,-4 -5,-9 -7,-13l-9 0 0 60 7 0 0 -11z"/>
   <path class="fil1" d="M486 252c0,-8 -1,-27 2,-33 2,-4 17,-11 17,9 0,8 0,16 0,24l8 0c0,-7 -1,-29 2,-33 3,-4 17,-11 17,9 0,8 0,16 0,24l8 0c0,-11 2,-29 -3,-38 -3,-4 -8,-6 -14,-6 -7,1 -8,5 -12,8 -4,-9 -16,-12 -26,0l0 -7 -7 0 0 43 8 0z"/>
   <path class="fil1" d="M568 215c19,-7 23,26 8,31 -19,6 -22,-26 -8,-31zm-8 32c3,2 2,2 5,4 12,7 29,-3 28,-22 -1,-9 -4,-17 -12,-19 -13,-5 -18,3 -22,6l0 -7 -7 0 0 61 8 -1 0 -22z"/>
   <path class="fil1" d="M435 235c-1,-9 1,-18 9,-20 19,-6 22,26 7,31 -8,4 -15,-4 -16,-11zm8 -26c-3,0 -6,2 -7,3 -7,6 -11,13 -9,24 2,11 12,20 26,16 24,-6 20,-49 -10,-43z"/>
   <path class="fil1" d="M128 232c0,-25 26,-23 26,-2 0,9 -4,17 -13,17 -8,0 -13,-7 -13,-15zm9 -23c-27,5 -20,50 9,43 24,-6 20,-49 -9,-43z"/>
   <path class="fil1" d="M26 230c0,7 1,10 -4,14 -10,9 -20,-4 -10,-11 4,-2 9,-3 14,-3zm-26 7l0 7c3,5 4,8 11,9 8,1 11,-2 15,-6l1 5 7 0c-3,-19 6,-42 -15,-44 -8,0 -10,2 -16,3l1 5c5,1 21,-10 22,8 -17,3 -18,1 -26,13z"/>
   <path class="fil1" d="M625 230c0,7 1,11 -3,14 -11,9 -21,-5 -11,-11 3,-3 9,-3 14,-3zm0 17l1 2c0,0 0,0 0,0 0,2 0,1 1,3l6 0c-1,-10 2,-29 -3,-37 -5,-9 -20,-9 -28,-3l2 5c9,-2 20,-8 21,7 -6,1 -13,1 -18,4 -5,3 -8,7 -8,13 1,14 18,15 26,6 0,0 0,0 0,0z"/>
   <path class="fil1" d="M236 230c0,6 1,12 -4,15 -3,2 -10,4 -13,0 -3,-3 -1,-10 2,-12 4,-3 10,-3 15,-3zm-22 -15l1 2c4,-2 8,-4 13,-3 7,1 7,4 8,11 -13,-1 -26,4 -26,16 0,9 11,18 24,8 1,-1 1,-1 1,-1l2 4 7 0c-2,-11 2,-28 -3,-37 -5,-9 -19,-9 -28,-3l1 3z"/>
   <path class="fil1" d="M653 215l-1 -6 -7 0 0 43 8 0c-1,-7 0,-17 0,-24 0,-7 3,-13 10,-13 15,-1 11,21 11,37l8 0c-1,-15 5,-45 -16,-44 -3,0 -6,1 -8,2 -4,3 -3,4 -5,5z"/>
   <path class="fil1" d="M692 271l2 0c6,-4 6,-1 13,-10 3,-5 5,-10 7,-16 3,-8 10,-29 14,-35l0 -1 -9 0c-3,12 -7,22 -10,34 -2,-3 -12,-31 -13,-34l-8 0 12 31c2,6 6,9 2,16 -4,6 -7,6 -12,9l2 6z"/>
   <path class="fil1" d="M199 229c2,-6 6,-14 7,-20l-8 0 -12 34c-3,-5 -9,-28 -12,-34l-8 0 16 43 7 0 10 -23z"/>
   <path class="fil1" d="M421 250l-1 -5c-7,1 -17,4 -22,-6 -4,-7 -3,-17 4,-22 7,-5 11,-2 18,-1l1 -5c-11,-7 -33,0 -33,19 0,4 0,9 2,12 5,11 21,14 31,8z"/>
   <path class="fil1" d="M360 211c-4,-3 -11,-4 -17,-2 -6,3 -12,12 -5,19 2,2 4,3 7,4 6,3 10,3 9,11 -6,6 -10,5 -18,1l-2 6c6,2 11,4 17,2 6,-1 11,-5 11,-11 0,-17 -21,-10 -19,-24 3,-5 11,-2 15,-1l2 -5z"/>
   <path class="fil1" d="M289 204l0 5 -6 0 -1 6c3,0 6,-1 7,1 0,6 -1,26 1,30 1,4 4,6 8,7 11,1 9,-4 9,-7 -13,-1 -11,5 -11,-31l11 0 1 -6 -12 0 0 -10 -7 2 0 3z"/>
   <path class="fil1" d="M264 231c0,-15 7,-15 13,-16l0 -7c-6,-1 -9,1 -12,5 -1,1 0,1 -1,2 -1,1 -1,1 -1,2l0 -8 -7 0 0 43 8 0 0 -21z"/>
   <polygon class="fil1" points="316,252 324,252 324,209 320,209 316,209 316,219 316,226 316,231 316,238 "/>
   <path class="fil0" d="M702 24c13,-7 24,13 10,20 -13,7 -25,-13 -10,-20zm3 -3c-18,3 -14,29 4,27 5,-1 6,-3 9,-6 8,-8 -1,-24 -13,-21z"/>
   <path class="fil0" d="M704 28c4,1 4,0 6,2 0,4 -2,4 -6,4l0 -6zm0 13l0 -5c9,0 4,2 8,6 1,-1 1,0 1,-4 -1,-2 -1,-2 -3,-3 7,-8 -1,-9 -8,-8 0,13 -2,14 2,14z"/>
   <path class="fil1" d="M315 199c3,2 3,4 7,2 2,-1 4,-3 2,-6 0,0 -2,-2 -2,-2 -4,-2 -7,0 -7,6z"/>
  </g>
 </g>
</svg>
