<?xml version="1.0" encoding="UTF-8"?>
<!DOCTYPE svg PUBLIC "-//W3C//DTD SVG 1.0//EN" "http://www.w3.org/TR/2001/REC-SVG-20010904/DTD/svg10.dtd">
<!-- Creator: CorelDRAW X8 -->
<svg xmlns="http://www.w3.org/2000/svg" xml:space="preserve" width="1343px" height="400px" version="1.0" style="shape-rendering:geometricPrecision; text-rendering:geometricPrecision; image-rendering:optimizeQuality; fill-rule:evenodd; clip-rule:evenodd"
viewBox="0 0 974 290"
 xmlns:xlink="http://www.w3.org/1999/xlink">
 <defs>
  <style type="text/css">
   <![CDATA[
    .fil0 {fill:#002E61}
    .fil2 {fill:#002E62}
    .fil1 {fill:#002F61}
    .fil3 {fill:#002F62}
   ]]>
  </style>
 </defs>
 <g id="Capa_x0020_1">
  <metadata id="CorelCorpID_0Corel-Layer"/>
  <g id="_2486051128288">
   <path class="fil0" d="M0 139c0,26 9,53 19,69 3,5 10,16 14,20 8,9 17,19 29,26l0 -80 -13 0 0 56 -19 -28c-7,-11 -11,-21 -15,-34 -10,-41 2,-79 26,-110 20,-27 60,-47 95,-47 22,0 39,3 56,12 7,3 13,7 19,11 17,11 34,32 42,50 10,25 12,34 12,62 0,24 -11,47 -24,66 -2,3 -10,15 -13,17l0 -55 -13 0 0 80c5,-3 21,-15 24,-20 20,-21 32,-44 37,-74 3,-26 0,-54 -11,-77 -1,-2 -1,-4 -2,-6 -1,-2 -2,-3 -3,-5 -6,-12 -14,-22 -23,-30 -12,-12 -26,-23 -41,-29 -40,-17 -73,-18 -114,-1 -48,20 -82,73 -82,127z"/>
   <path class="fil1" d="M808 196l0 4c3,1 6,1 8,2l0 54c-3,0 -5,1 -8,2 0,8 -2,6 29,6l0 -7c-3,0 -7,0 -7,-3l0 -45c0,-5 20,-15 23,-1l0 48c-9,1 -8,2 -8,8l29 0 0 -7c-3,0 -7,0 -7,-3l0 -45c0,-2 7,-8 14,-8 10,0 9,13 9,23 0,11 0,21 0,32 -9,1 -8,2 -8,8l30 0c0,-11 -2,-5 -9,-9 0,-12 2,-46 -1,-54 -3,-6 -10,-10 -19,-9 -10,1 -12,6 -18,10 -2,-11 -18,-12 -28,-7 -4,2 -5,4 -8,6l0 -10c-6,0 -15,4 -21,5z"/>
   <path class="fil0" d="M363 109c-7,0 -6,-2 -11,-3l0 -40c15,0 32,-2 33,21 0,14 -8,22 -22,22zm2 -50l-13 0 0 -38c3,0 27,-8 27,17 0,5 -2,11 -3,14 -2,3 -7,7 -11,7zm-36 -44l0 5c2,1 7,2 10,2l0 85c-4,0 -7,2 -10,2l0 6 46 0c29,0 33,-41 11,-51 -7,-3 -6,0 -9,-4 8,-1 17,-11 17,-20 0,-8 0,-14 -7,-20 -8,-8 -26,-7 -36,-6 -6,1 -16,1 -22,1z"/>
   <path class="fil0" d="M807 126c0,-17 6,-14 25,-13 12,2 12,4 12,10 0,10 -20,13 -29,10 -3,-1 -8,-4 -8,-7zm16 -78c14,0 14,35 1,35 -15,0 -12,-24 -10,-30 2,-4 4,-5 9,-5zm-24 16c0,12 1,15 9,21 1,1 2,1 2,2 -9,2 -21,20 -5,24 -2,2 -5,3 -7,5 -9,11 -3,25 20,25 13,0 25,-3 32,-12 6,-8 7,-27 -11,-29 -5,-1 -9,-1 -15,-1 -6,0 -20,0 -11,-9 3,-2 5,-1 12,-1 14,0 32,-15 17,-38l12 0 0 -8c-6,0 -8,1 -15,1 -8,0 -21,-7 -33,4 -3,4 -7,10 -7,16z"/>
   <path class="fil2" d="M478 283c-12,0 -16,-4 -16,-13 0,-5 4,-7 5,-9 8,1 32,0 32,7 0,4 0,6 -3,9 -1,1 -4,3 -5,3 -3,2 -8,3 -13,3zm-11 -68c0,-24 16,-20 19,-13 2,4 7,30 -8,30 -8,0 -11,-10 -11,-17zm-13 -3c0,8 0,19 11,22l0 2c-5,1 -13,8 -13,15 0,7 5,6 8,10 -4,0 -11,7 -11,12l0 4c0,17 54,20 59,-7 3,-16 -6,-22 -22,-22 -5,0 -19,0 -21,-3 -1,-2 3,-5 4,-6 5,-3 15,4 27,-7 2,-3 3,-3 5,-7 3,-6 3,-12 0,-18 -1,-3 -2,-4 -4,-7l12 0 0 -8 -16 1c-5,0 -10,-2 -15,-2 -12,0 -24,10 -24,21z"/>
   <path class="fil0" d="M624 160l0 5c3,0 8,1 8,4l0 87c-4,0 -6,1 -9,2l0 6 29 0 0 -7c-3,0 -3,-1 -7,-1l0 -47c0,-2 8,-7 13,-7 4,0 9,0 9,8 1,5 0,11 0,16 0,10 0,20 0,30 -7,2 -6,0 -6,8l28 0 0 -7c-3,0 -6,-1 -8,-2 0,-11 2,-45 -1,-52 -2,-7 -9,-12 -16,-11 -10,0 -12,4 -19,8l0 -44c-7,0 -14,4 -21,4z"/>
   <path class="fil3" d="M547 11c0,5 -1,7 7,7l0 89c-2,1 -6,1 -8,2l0 6 29 0c0,-8 0,-6 -7,-8l0 -48c6,-4 6,-6 14,-6 10,0 8,13 8,23 0,10 0,21 0,31 -3,1 -5,2 -8,2 0,8 -2,6 29,6 0,-6 1,-7 -7,-8 0,-13 0,-26 0,-39 0,-8 0,-12 -3,-17 -4,-8 -9,-8 -16,-8 -8,0 -12,5 -17,8l0 -43c-12,0 -14,3 -21,3z"/>
   <path class="fil2" d="M132 87l0 188c0,4 4,3 13,3l0 -194c-9,0 -13,-1 -13,3z"/>
   <path class="fil0" d="M105 273c4,1 8,3 12,3l0 -189c0,-2 0,-3 -2,-3l-10 0 0 189z"/>
   <path class="fil2" d="M160 276c6,0 8,-3 13,-3l0 -186c0,-2 -1,-3 -3,-3l-10 0 0 192z"/>
   <path class="fil1" d="M375 196l0 5 7 1 0 54c-8,0 -7,2 -7,8l29 0 0 -7c-4,0 -4,-1 -8,-1l0 -47c0,-3 8,-8 14,-8 9,0 9,13 9,23 0,11 0,21 0,32 -1,0 -4,1 -5,1 -4,1 -4,0 -4,7l29 0 0 -7c-2,0 -6,-1 -7,-2 0,-12 0,-25 0,-38 0,-7 0,-12 -2,-18 -5,-9 -18,-9 -27,-4 -3,2 -4,3 -7,5 0,-9 1,-11 -7,-8 -4,1 -12,3 -14,4z"/>
   <path class="fil0" d="M719 47c0,13 7,0 8,9l0 51c-2,1 -5,1 -8,2l0 6 29 0 0 -6c-2,-1 -5,-1 -7,-2l0 -48c2,-1 22,-18 23,6 0,13 0,29 0,42 -3,1 -6,2 -9,2l0 6 29 0c0,-6 1,-7 -8,-8 0,-13 0,-27 0,-41 0,-8 1,-11 -3,-17 -2,-4 -8,-6 -14,-6 -8,0 -13,5 -18,8l0 -8c-10,0 -14,3 -22,4z"/>
   <path class="fil0" d="M442 110c-18,0 -17,-62 0,-62 7,0 10,4 11,10 4,12 4,28 1,40 -2,5 -5,12 -12,12zm0 7c4,0 10,-3 12,-4 23,-12 26,-71 -13,-71 -8,0 -16,6 -20,12 -9,14 -10,36 0,51 4,6 13,12 21,12z"/>
   <path class="fil2" d="M510 49l1 0c8,0 10,13 10,23l-23 0c0,-9 4,-23 12,-23zm-26 29c0,10 1,20 7,28l7 7c15,9 35,-2 36,-13l-5 -3c-10,18 -31,11 -31,-19l37 0c0,-18 -4,-36 -25,-36 -18,0 -26,19 -26,36z"/>
   <path class="fil0" d="M891 49c10,0 11,14 11,23l-23 0c0,-7 2,-23 12,-23zm-26 31c0,10 2,19 6,25 8,13 24,15 35,7 5,-3 7,-8 9,-12 -2,-1 -4,-2 -6,-3 -3,13 -30,17 -30,-19l36 0c0,-17 -2,-36 -24,-36 -18,0 -26,19 -26,38z"/>
   <path class="fil1" d="M546 198l1 0c8,0 10,13 10,23l-23 0c0,-9 3,-23 12,-23zm-26 29c0,16 5,38 23,38l7 0c9,0 18,-9 20,-16 -2,-1 -3,-2 -5,-3 -2,2 -2,4 -5,6 -9,8 -26,3 -26,-26l36 0c0,-19 -3,-35 -25,-35 -17,0 -25,21 -25,36z"/>
   <path class="fil1" d="M727 198c10,0 11,14 11,23l-23 0c0,-10 3,-23 12,-23zm-26 26c0,13 0,20 6,31 3,3 3,4 7,6 11,8 33,4 37,-12l-5 -3c-10,14 -21,11 -26,2 -4,-7 -5,-14 -5,-22l37 0c0,-46 -34,-39 -44,-25 -3,5 -7,14 -7,23z"/>
   <path class="fil2" d="M329 165l0 4c5,0 5,1 10,1l0 86c-3,0 -7,1 -10,2l0 6 33 0 0 -7c-4,0 -4,-1 -9,-1l0 -83c0,-6 10,1 10,-8 0,-2 -1,-2 -3,-2l-28 0c-2,0 -3,0 -3,2z"/>
   <path class="fil3" d="M582 160l0 5 9 1 0 90c-10,1 -9,3 -9,8l29 0 0 -7c-3,0 -7,0 -7,-3l0 -98c-7,0 -15,4 -22,4z"/>
   <path class="fil0" d="M623 49c0,4 5,4 9,4l0 54c-4,1 -5,2 -9,2l0 6 32 0 0 -6c-3,-1 -8,-2 -11,-2l0 -34c0,-6 2,-10 5,-14 6,-6 7,-1 13,1 12,-8 -1,-28 -14,-8l-4 4 0 -13c-4,0 -21,2 -21,6z"/>
   <path class="fil0" d="M930 47l0 5c4,0 7,1 9,2l0 53c-3,1 -6,1 -9,2l0 6 32 0 0 -6c-3,-1 -7,-2 -10,-2l0 -37c0,-7 4,-11 8,-14 4,1 5,3 10,4 7,-7 4,-17 -5,-17 -8,0 -10,10 -14,13l0 -13c-9,0 -13,3 -21,4z"/>
   <path class="fil2" d="M77 263c6,2 13,9 13,3l0 -90c0,-4 -4,-2 -13,-2l0 89z"/>
   <path class="fil1" d="M187 268c3,0 5,-1 7,-2 3,-1 4,-2 7,-3l0 -89 -14 0 0 94z"/>
   <path class="fil0" d="M97 65c2,3 5,4 6,7 4,-1 14,-10 18,-12 6,-5 11,-10 18,-14 6,4 11,9 17,13 4,3 15,13 19,13 0,-3 0,-2 2,-4 3,-2 2,-1 3,-4 -1,-2 -2,-3 -4,-4 -2,-2 -3,-2 -5,-4 -4,-3 -7,-6 -11,-8 -24,-20 -19,-19 -32,-9 -6,5 -28,22 -31,26z"/>
   <path class="fil2" d="M678 48l0 5 6 1 0 53c-7,2 -6,0 -6,8l29 0 0 -6c-3,-1 -6,-1 -9,-2l0 -64c-8,0 -14,3 -20,5z"/>
   <path class="fil3" d="M766 198c0,4 3,4 8,5l0 53c-9,1 -8,2 -8,8l29 0 0 -7c-11,0 -8,-2 -8,-28 0,-12 0,-25 0,-37l-17 3c-2,1 -4,1 -4,3z"/>
   <path class="fil0" d="M770 165c0,12 18,12 18,0 0,-11 -18,-12 -18,0z"/>
   <path class="fil1" d="M681 15c0,14 18,14 18,0 0,-10 -18,-9 -18,0z"/>
  </g>
 </g>
</svg>
