<?xml version="1.0" encoding="UTF-8"?>
<!DOCTYPE svg PUBLIC "-//W3C//DTD SVG 1.0//EN" "http://www.w3.org/TR/2001/REC-SVG-20010904/DTD/svg10.dtd">
<!-- Creator: CorelDRAW X8 -->
<svg xmlns="http://www.w3.org/2000/svg" xml:space="preserve" width="819px" height="400px" version="1.0" style="shape-rendering:geometricPrecision; text-rendering:geometricPrecision; image-rendering:optimizeQuality; fill-rule:evenodd; clip-rule:evenodd" viewBox="0 0 946 462" xmlns:xlink="http://www.w3.org/1999/xlink">
 <defs>
  <style type="text/css">
   <![CDATA[
    .fil0 {fill:#006FAB}
   ]]>
  </style>
 </defs>
 <g id="Capa_x0020_1">
  <metadata id="CorelCorpID_0Corel-Layer"/>
  <path class="fil0" d="M307 174c2,0 2,1 4,2 1,2 3,2 5,3 1,1 2,1 3,2 5,3 16,9 22,13 6,4 32,18 34,20 1,3 0,56 0,67 0,3 1,7 0,9 -3,0 -4,-4 -5,-6l-13 -22c-6,-11 -20,-33 -25,-43l-21 -37c-2,-3 -4,-5 -4,-8zm505 190c2,8 15,8 14,-2 0,-5 -3,-7 -8,-6 -4,0 -7,4 -6,8zm-699 1c3,8 16,6 15,-4 -2,-9 -18,-6 -15,4zm213 43c-3,-2 -13,-1 -17,-1 -5,0 -14,-2 -14,3 -1,7 7,5 13,5 4,0 14,1 17,0 2,-3 2,-5 1,-7zm-200 -25c-4,0 -5,1 -8,2 -4,2 -14,5 -8,8 3,1 4,-1 5,3 1,5 0,32 -1,35 -2,2 -6,1 -6,4 1,4 4,2 8,2 3,0 6,0 10,0 3,0 6,1 7,-1 0,-5 -3,-3 -6,-5 -2,-6 2,-41 -1,-48zm682 9c2,2 5,0 5,6l0 33c-4,3 -5,2 -6,4 0,4 4,3 7,3 4,0 14,1 18,-1l0 -3c-6,-3 -6,1 -6,-9 0,-5 0,-10 0,-15 0,-31 1,-28 -12,-23 -7,2 -7,2 -6,5zm-278 38c-2,4 -4,2 -6,4 0,5 6,4 11,4 4,0 10,0 13,-2 0,-5 -2,-2 -6,-5 0,0 -2,-30 2,-35 1,-2 3,-3 6,-3 4,0 4,3 7,1 1,0 4,-3 4,-5 1,-3 -1,-4 -2,-5 -15,-3 -13,3 -16,6 -2,-3 -1,-4 -3,-6 -2,-1 -9,3 -12,4 -2,1 -6,2 -4,4 2,2 4,-1 6,3 1,4 0,29 0,35zm-438 3c-7,-3 -7,5 -7,-19 0,-4 0,-9 0,-13 1,-3 3,-7 5,-8 5,-2 7,3 11,2 5,-3 7,-13 -6,-11 -6,1 -5,3 -9,4l-1 -1c0,-1 0,-1 0,-2 -3,-4 -5,-1 -12,2 -1,0 -2,1 -4,2 -1,0 -2,0 -2,3 4,3 7,-1 6,8 0,6 1,25 0,29 0,5 -7,2 -6,8 3,1 11,0 14,0 11,1 11,1 11,-4zm104 -23c0,-15 -2,-19 4,-19 3,0 9,-1 6,-5 -1,-2 -5,-1 -7,-1 -3,-1 -1,0 -3,-1 -2,-3 1,-17 -1,-22 -4,-1 -3,1 -6,2 -3,1 -4,1 -5,4 -1,5 1,11 0,16 -5,2 -9,-1 -8,5 3,2 4,1 7,2 3,8 0,31 1,40 3,11 16,9 21,5 2,-1 5,-2 3,-5 -2,-2 -2,-2 -5,0 -3,1 -2,1 -6,0 -2,-4 -1,-15 -1,-21zm87 -59c-3,-1 -5,0 -10,2 -4,2 -7,2 -7,7 3,1 5,-1 6,3 0,3 0,7 0,10 0,6 0,13 0,20l0 34c0,9 -9,2 -6,10 3,1 10,0 13,0 3,0 12,2 11,-3 -1,-4 -7,2 -6,-9 0,-14 1,-69 -1,-74zm-143 88c3,0 2,-2 8,-1 7,1 11,3 21,-3 9,-6 6,-19 -1,-24 -4,-4 -12,-9 -16,-12 -5,-4 -3,-9 3,-10 7,-1 12,8 14,9 1,1 0,0 2,0 3,-3 1,-4 1,-8 -1,-2 0,-2 -1,-4 -3,-6 -5,-1 -7,-1 -3,-1 -3,-2 -7,-2 -22,-1 -27,17 -7,30 5,3 19,12 10,18 -4,2 -11,2 -13,-1 -6,-6 -5,-8 -10,-8 -2,3 0,14 3,17zm432 -1c6,0 6,2 14,0 18,-4 18,-19 6,-29 -7,-5 -19,-10 -17,-16 0,-2 3,-3 5,-4 6,-2 13,8 14,10 6,0 5,-3 4,-7 -2,-5 0,-6 -4,-8 -3,0 -2,2 -7,1 -8,-3 -8,-2 -16,0 -9,2 -14,16 2,27 4,2 22,12 13,19 -5,5 -13,1 -18,-6 -8,-11 -8,9 -3,14 4,0 2,-1 7,-1zm-129 -51c-2,-3 -8,-2 -12,-2 -8,0 -11,-1 -13,2 3,4 4,2 8,8 2,2 1,3 2,5 2,4 3,5 5,10 1,2 1,3 2,4 2,4 3,7 4,10 6,12 7,9 1,20 -2,2 -4,6 -6,9 -1,1 -6,7 -4,9 2,1 8,1 11,-1l27 -68c2,-3 5,-3 7,-6 -1,-3 -5,-2 -9,-2 -5,0 -7,-1 -11,1 0,5 3,3 6,6 1,3 -3,12 -5,15l-5 14c-3,-1 -3,-4 -4,-6l-2 -5c-1,-2 -8,-17 -8,-18 2,-2 4,-3 6,-5zm78 38c-6,-1 -8,5 -14,7 -23,6 -24,-21 -20,-33 6,-16 20,-10 20,-1 0,6 -12,10 -16,14 -3,2 -2,10 7,3l16 -10c3,-2 11,-6 3,-15 -5,-5 -12,-6 -13,-7 -10,-1 -17,2 -23,7 -10,9 -11,28 -6,35 4,6 9,12 16,13 8,1 12,3 23,-3 9,-5 7,-7 7,-10zm246 13c18,1 15,-4 20,-4l1 4c3,0 6,0 10,0 3,0 6,0 6,-4 -2,-1 -4,-1 -7,-3l0 -44c0,-2 0,-2 -1,-3 -3,-2 -16,5 -17,7 2,4 6,0 6,8 1,4 0,9 0,13 0,7 1,12 -3,16 -4,4 -7,4 -12,2 -5,-2 -4,-8 -4,-14l0 -20c0,-11 3,-17 -14,-8 -3,1 -5,0 -4,4 3,1 6,1 6,4 2,11 -7,41 13,42zm-536 -48c7,-1 10,0 13,4 3,3 5,8 5,13 1,13 -1,22 -12,25 -3,1 -4,0 -7,0 -15,-4 -14,-39 1,-42zm31 27c1,-7 0,-6 0,-13 -1,-3 -1,-2 -2,-5 -4,-9 -10,-14 -19,-16 -9,-1 -19,1 -24,5 -1,1 -2,2 -3,3 -9,8 -10,26 -3,38 7,11 29,13 40,5 6,-4 10,-10 11,-17zm480 -35c-4,-3 -6,1 -8,4 -3,0 -6,-3 -15,-3 -11,0 -18,4 -23,14 0,1 0,1 -1,3 -1,4 -2,7 -2,11 0,5 0,11 3,15 2,5 4,7 8,10 9,5 26,3 23,-5 -5,-1 -9,5 -16,-1 -8,-6 -8,-42 11,-39 7,1 8,8 8,13l0 41c0,14 0,12 -7,14l1 3c2,1 22,0 24,0 2,-5 -2,-2 -6,-6l0 -65 0 -9zm157 45c-2,1 -5,2 -6,4 -3,6 21,8 25,8 16,0 27,-9 28,-22 3,-32 -15,-32 -16,-33 -6,-1 -17,-1 -17,6 5,3 10,-5 16,2 3,4 5,11 5,17 0,6 -1,14 -4,18 -5,7 -17,9 -19,-2 -2,-10 1,-68 -1,-75 -3,-1 -4,0 -6,1 -2,1 -2,1 -4,2 -3,2 -8,2 -7,6 5,4 6,-3 6,13 0,6 0,12 0,18 0,7 0,13 0,20 0,5 0,13 0,17zm-26 -44c-5,0 -20,1 -16,7 1,1 3,1 4,0 1,0 3,-1 4,-1 1,0 6,2 7,3 8,10 5,49 -14,40 -6,-3 -4,-12 -4,-18l0 -60c-1,-3 -1,-2 -2,-4 -4,0 -2,1 -5,2 -6,2 -11,3 -11,7 2,2 4,1 5,4 1,3 1,7 1,9 0,13 1,47 -1,55 -2,2 -5,1 -5,5 1,6 48,19 53,-16 1,-4 1,-13 0,-16 -7,-17 -13,-13 -16,-17zm-239 35c-2,4 2,19 5,21 2,1 4,-1 5,-2 3,-2 5,0 8,1 6,1 18,1 23,-2 8,-4 14,-10 14,-21 1,-25 -39,-33 -39,-48 0,-5 3,-8 7,-10 5,-1 11,0 15,2 4,3 6,6 9,9 1,2 8,5 4,-7 -1,-4 0,-9 -4,-13 -5,1 -4,5 -10,3 -6,-2 -26,-3 -32,8 -4,7 -3,16 1,22 6,9 25,18 31,26 12,16 -6,31 -21,21 -8,-5 -11,-14 -16,-10zm-607 -62c7,-2 14,1 17,7 1,2 1,4 1,6 2,23 -17,15 -20,20 -4,6 11,4 15,7 6,3 11,13 8,22 -2,8 -7,14 -17,14 -14,0 -11,-8 -11,-20 0,-11 0,-21 0,-32 0,-12 -3,-22 7,-24zm21 33c1,-3 8,-4 11,-11 2,-5 1,-15 -2,-19 -2,-3 -3,-3 -6,-5 -11,-9 -40,-4 -48,1 -7,6 0,5 2,8 2,3 1,36 1,42 0,3 1,19 -1,20 -1,1 -12,5 1,10 10,5 27,4 37,3 5,-1 11,-4 14,-8 1,-1 3,-4 4,-6 6,-13 3,-28 -10,-33 -3,-1 -3,-1 -3,-2zm327 9c-1,-2 -1,-2 -2,-4l-4 -8c-4,-6 -17,-31 -19,-33 -3,-3 -17,-2 -20,0 -1,3 0,3 3,4 2,0 3,1 4,2 1,9 1,67 0,72 -4,1 -6,0 -7,3 1,4 3,4 7,4 4,0 7,0 11,0 2,0 7,0 7,-4 -1,-3 -4,-2 -7,-3 -2,-5 -2,-54 0,-56 2,1 1,0 2,2l10 19c1,4 3,7 5,11 1,2 2,3 3,5l3 5c5,1 7,-4 9,-8l11 -24c2,-3 5,-10 7,-11 0,0 0,0 0,0 2,4 1,47 1,52 0,10 -9,2 -8,10 3,3 10,2 15,2 6,0 11,1 15,-2 0,-8 -6,-1 -8,-8l0 -60c0,-7 -1,-10 4,-11 2,-1 5,-1 4,-4 -1,-2 -5,-2 -7,-2 -15,0 -15,0 -17,7l-9 18c-3,4 -4,8 -6,12 -4,7 -4,10 -7,10zm102 -267c-2,-3 -1,-65 -1,-73 0,-4 0,-5 2,-7 2,-1 4,-2 5,-2l52 -31c3,-1 9,-5 11,-5l-35 59c-3,5 -5,10 -8,15l-9 14c-3,5 -6,11 -9,15 -2,4 -6,14 -8,15zm-76 -118c3,0 19,10 22,12 1,1 3,1 4,2l35 20c3,2 6,3 8,6 1,1 0,49 0,59l0 17c0,1 0,1 -1,1 -2,-1 -2,-3 -4,-7 -6,-11 -16,-26 -21,-36 -5,-11 -15,-26 -21,-37 -2,-3 -3,-5 -5,-8 -2,-3 -17,-28 -17,-29zm4 -7l138 0c-1,3 -3,2 -8,6l-61 34c-3,1 -6,-2 -9,-4 -15,-8 -28,-17 -43,-25 -3,-1 -15,-7 -17,-10 0,-1 0,-1 0,-1zm-17 -5c0,2 3,7 5,9l13 23c1,2 2,3 3,5 1,2 1,3 2,5 1,1 2,3 3,5 1,1 2,3 3,4l55 96c1,1 0,0 1,1 3,-2 9,-14 11,-18 4,-5 9,-17 14,-23 1,-2 1,-4 2,-5 7,-11 15,-26 22,-37l10 -19c6,-8 15,-27 22,-37 1,-2 5,-7 5,-9 -5,-2 -141,-1 -153,-1 -3,0 -17,0 -18,1zm183 291c0,0 0,-1 0,-1l-1 -3c1,-8 0,-72 1,-74 1,-1 0,0 1,-1 2,-1 1,-1 3,-1l21 -13c6,-4 12,-7 18,-10l13 -8c2,-1 11,-7 13,-7l-15 26c-1,1 0,0 -1,1l-31 54c-5,8 -12,21 -18,29 -2,4 -2,7 -4,8zm-76 -118c3,0 69,40 69,40 1,5 1,73 0,78 -4,-2 -1,-1 -5,-7l-64 -111zm5 -6c2,-1 101,0 120,0l12 -1c3,0 3,1 4,1 -1,2 -4,3 -8,5 -3,2 -6,4 -9,5l-17 10c-4,2 -32,19 -34,19 -3,1 -14,-7 -17,-9l-30 -17c-1,0 -3,-1 -5,-2l-12 -7c0,-1 -2,-1 -2,-2 -3,-2 -1,1 -2,-2zm121 50c3,-4 32,-53 32,-56l-45 0c-20,0 -124,-1 -125,0 -1,3 0,3 1,5 1,2 2,3 3,5l13 23c7,11 13,22 19,32 2,3 4,6 5,9 1,2 2,4 3,5l13 23c2,3 4,7 6,10l16 27c1,3 4,9 5,10l54 -93zm-313 -71c2,-2 45,-27 52,-31 18,-10 18,-12 23,-8 9,6 45,25 58,33 2,2 3,2 5,3 2,1 1,1 4,2 -1,3 -3,1 -6,1 -6,-1 -5,-1 -9,-1 -27,0 -57,0 -84,0 -8,0 -16,0 -24,0l-15 1c-3,0 -2,1 -4,0zm-1 -8l25 -44c7,-12 15,-25 22,-37l15 -26c1,-1 1,-2 2,-3l4 -8c2,2 1,52 1,65 0,18 2,12 -11,20l-48 28c-2,1 -7,5 -10,5zm75 -93c0,-5 -1,-23 1,-25 1,0 3,6 4,8l21 36c2,3 4,6 5,8 3,8 16,28 21,36l8 15c2,3 8,13 9,15 -3,0 -7,-3 -9,-4 -2,-1 -3,-2 -5,-3l-21 -12c-2,-1 -3,-2 -4,-3 -2,-1 -3,-1 -4,-2 -3,-2 -25,-15 -26,-16l0 -53zm-88 106l170 0c1,-3 -3,-8 -5,-10 0,-1 -1,-3 -2,-4 -1,-2 -2,-3 -3,-5l-32 -56c-4,-6 -7,-12 -11,-18 -1,-3 -3,-6 -5,-9 -1,-2 -1,-3 -2,-5l-23 -39c-1,-3 0,-1 -2,-3 -1,1 -2,1 -3,4l-8 14c-4,6 -7,13 -11,19l-35 60c-1,2 -1,4 -2,5 -1,2 -2,3 -3,4l-13 24c-1,1 -2,3 -3,4 -1,3 -1,3 -3,5 -1,2 -5,8 -4,10zm112 155c1,-3 13,-9 16,-11l34 -19c3,-2 15,-9 17,-9 2,0 55,31 66,37 3,1 1,-1 2,2 -1,0 0,0 -1,1l-132 0c-2,-1 -1,0 -2,-1zm-5 -6c0,-2 16,-27 17,-30l17 -29c3,-5 5,-9 9,-14l23 -41c1,-2 1,-2 3,-3 1,22 0,54 0,77 -7,4 -12,8 -17,10l-17 10c-3,2 -32,19 -35,20zm76 -117c3,0 3,4 4,7l13 21c6,11 10,19 17,30 5,8 12,22 17,29 1,2 16,27 17,30 -2,-1 -6,-3 -8,-4 -9,-6 -27,-15 -36,-22 -6,-3 -10,-5 -15,-8l-8 -5c-3,-1 -2,-1 -2,-8 0,-11 -1,-67 1,-70zm-4 -19c-2,1 -2,2 -3,4 -2,4 -5,8 -8,14 -5,11 -20,34 -27,47l-16 27c-7,13 -13,24 -21,37l-8 15c-2,2 -3,2 -2,5 3,0 115,0 128,0 6,0 39,1 42,-1 2,-1 0,-2 -1,-5l-9 -14c-8,-16 -22,-39 -32,-55l-43 -74zm24 -18c1,-2 31,-19 35,-21 4,-2 34,-20 35,-20 2,0 46,26 54,30 2,2 16,9 17,11 -1,0 0,0 -2,0l-19 -1c-6,0 -105,-1 -109,0 -2,0 -9,1 -11,1zm-2 -8c0,-1 1,-2 2,-3 4,-6 6,-11 9,-15l6 -11c2,-2 3,-5 4,-7 9,-15 23,-40 30,-52l13 -22c3,-5 2,-6 4,-7 2,2 1,13 1,15 0,21 1,42 0,63 -1,1 -3,2 -4,3 -2,0 -3,1 -5,2l-8 5c-13,8 -31,17 -44,26 -2,1 -2,1 -4,2 -2,1 -2,2 -4,1zm75 -40c-1,-11 0,-27 0,-39 0,-2 0,-37 1,-39 1,1 1,0 3,4 2,6 11,20 14,26 3,5 7,10 9,15l17 30c2,4 26,42 26,44 -2,0 -31,-18 -35,-20 -6,-3 -12,-7 -18,-10 -5,-4 -12,-7 -17,-11zm77 41l-10 -18c-6,-10 -12,-19 -18,-30l-7 -12c-1,-1 -2,-3 -3,-5l-32 -55c-1,-3 -3,-6 -4,-9 -1,-1 -4,-7 -6,-8 0,0 0,0 0,1l-15 24c-1,3 -3,7 -6,12 -2,2 -2,3 -3,5l-56 97c-2,3 -5,7 -4,10 15,1 167,1 170,0 0,-4 -5,-7 -6,-12zm-264 151c0,0 0,0 0,0l-1 -1c0,0 0,-1 0,-1l0 -75 61 -36c0,0 1,0 2,-1l3 -2c2,0 1,0 1,0 2,-1 0,-1 3,-1 0,1 -3,5 -4,7 -5,6 -20,35 -26,44l-37 63c-1,2 -1,2 -2,3zm-72 -123c2,-1 6,-1 9,0 14,0 58,0 72,0 19,0 37,0 56,-1 -1,4 -5,4 -8,6l-43 24c-3,2 -14,10 -17,10 -3,1 -6,-2 -9,-4l-51 -29c-2,-1 -8,-4 -9,-6zm153 -6c-3,-1 -168,-1 -171,0 1,3 4,7 6,10l42 74c2,3 4,6 6,9 3,7 6,12 10,19l16 28c1,1 2,2 3,4 2,4 1,4 3,5 2,-2 12,-21 14,-24 1,-2 2,-3 3,-4l31 -56c4,-8 37,-61 37,-65z"/>
 </g>
</svg>
