<?xml version="1.0" encoding="UTF-8"?>
<!DOCTYPE svg PUBLIC "-//W3C//DTD SVG 1.0//EN" "http://www.w3.org/TR/2001/REC-SVG-20010904/DTD/svg10.dtd">
<!-- Creator: CorelDRAW X8 -->
<svg xmlns="http://www.w3.org/2000/svg" xml:space="preserve" width="5065px" height="400px" version="1.0" style="shape-rendering:geometricPrecision; text-rendering:geometricPrecision; image-rendering:optimizeQuality; fill-rule:evenodd; clip-rule:evenodd"
viewBox="0 0 3892 307"
 xmlns:xlink="http://www.w3.org/1999/xlink">
 <defs>
  <style type="text/css">
   <![CDATA[
    .fil0 {fill:#265499}
   ]]>
  </style>
 </defs>
 <g id="Capa_x0020_1">
  <metadata id="CorelCorpID_0Corel-Layer"/>
  <path class="fil0" d="M477 280l354 1 -2 -49 -256 -1 1 -69 230 0 0 -50 -228 -1 -3 -55 249 -1 0 -48 -344 -2 -1 275zm3248 -235l56 135 -111 -1 55 -134zm-157 261l48 -1c48,-115 14,-91 185,-91l38 91 53 0c-18,-53 -93,-196 -125,-269 -1,-2 -7,-16 -8,-18 -13,-17 -35,-20 -51,-15 -22,6 -138,292 -140,303zm-975 -261l56 134 -110 -2 54 -132zm-158 260l49 1c12,-26 24,-75 46,-92l129 0c22,16 25,40 35,64 16,38 19,28 66,27l-141 -301 -44 -1c-19,14 -130,266 -140,302zm-591 -265l94 0c45,0 82,11 76,60 -5,40 -45,46 -89,46l-80 0 -1 -106zm-48 241l1 25 45 0 3 -119c70,-20 168,21 207,-49 47,-86 -25,-135 -108,-135l-148 0 0 278zm327 0l1 25 44 0 2 -142 180 0 1 142 44 0 2 -303 -47 0 0 124 -180 0 0 -124 -47 0 0 278zm-823 -25l1 25 323 0 -1 -50 -228 0 1 -220 -96 -3 0 248zm-392 0l0 25 326 0c3,-69 30,-50 -231,-50l1 -222 -97 -1 1 248zm1939 -218c36,0 73,-1 108,0 99,3 91,88 13,96 -36,4 -85,1 -123,1l2 -97zm-50 265l47 3 2 -134c116,0 101,2 170,93 12,16 21,26 30,41l57 0c-17,-43 -78,-114 -116,-135 34,-18 64,-15 82,-52 20,-39 0,-79 -23,-96 -33,-25 -204,-29 -249,-16l0 296zm-2797 -157c0,179 358,179 399,52 -22,-13 -63,-17 -91,-20 -42,89 -201,77 -210,-27 -5,-59 29,-89 81,-97 62,-10 96,3 130,42l85 -11c0,-3 1,-9 0,-13 -21,-91 -394,-123 -394,74zm3146 135l2 25 50 0 2 -248c25,41 100,235 128,248 56,11 54,-37 96,-116 22,-43 40,-89 63,-127l1 243 51 0 2 -303 -77 1c-17,44 -35,81 -57,124 -21,42 -39,87 -61,125 -35,-51 -98,-244 -127,-250l-73 0 0 278z"/>
 </g>
</svg>
