<?xml version="1.0" encoding="UTF-8"?>
<!DOCTYPE svg PUBLIC "-//W3C//DTD SVG 1.0//EN" "http://www.w3.org/TR/2001/REC-SVG-20010904/DTD/svg10.dtd">
<!-- Creator: CorelDRAW X8 -->
<svg xmlns="http://www.w3.org/2000/svg" xml:space="preserve" width="1474px" height="400px" version="1.0" style="shape-rendering:geometricPrecision; text-rendering:geometricPrecision; image-rendering:optimizeQuality; fill-rule:evenodd; clip-rule:evenodd"
viewBox="0 0 1096 297"
 xmlns:xlink="http://www.w3.org/1999/xlink">
 <defs>
  <style type="text/css">
   <![CDATA[
    .fil0 {fill:#6B2974}
   ]]>
  </style>
 </defs>
 <g id="Capa_x0020_1">
  <metadata id="CorelCorpID_0Corel-Layer"/>
  <path class="fil0" d="M145 96c-5,-1 -10,-1 -15,0 -29,3 -45,35 -34,66 6,19 33,48 56,51 19,2 46,-36 54,-51 7,-12 12,-27 2,-39 -16,-18 -37,-2 -30,4 6,3 5,-1 9,-3 4,-2 8,-1 11,2 18,14 -2,39 -13,53 -5,7 -20,25 -30,26 -15,2 -51,-28 -54,-57 -4,-45 41,-55 58,-36 4,4 7,12 6,21 -2,15 -9,10 -16,13l0 5c8,5 14,0 19,-5 11,-11 6,-46 -23,-50zm9 39c0,0 0,0 0,0zm-97 54c-4,5 13,36 19,30 5,-4 -2,-7 -7,-17 -2,-3 -6,-18 -12,-13zm161 -97c2,3 3,3 5,6 5,6 10,20 15,14 3,-6 -4,-13 -7,-17 -2,-3 -5,-6 -8,-9 -5,-4 -7,-6 -10,-3 -4,5 2,6 5,9zm-92 175c-4,-2 -16,-4 -22,-6 -6,-2 -15,-9 -21,-9 -5,8 5,11 16,16 5,1 10,3 14,4 9,2 13,4 13,-5zm50 -237c4,2 17,5 23,7 6,2 15,8 20,8 6,-8 -5,-11 -17,-16 -4,-1 -9,-3 -14,-4 -8,-2 -12,-4 -12,5zm-9 -8c-29,-9 -84,9 -86,17 -2,10 18,-1 20,-2 35,-14 57,-7 66,-9l0 -6zm-32 247c-1,8 1,9 18,9 20,0 61,-9 67,-19 2,-2 1,-6 -4,-6 -1,1 -7,4 -9,5 -14,7 -29,11 -45,11 -7,1 -22,-1 -27,0zm467 -127l-1 -9 -8 0c-1,7 -1,57 1,63 15,2 5,-9 8,-35 3,-19 17,-18 23,-21l0 -8c-14,-2 -15,9 -23,10zm390 54c2,-27 0,-61 0,-88l-7 0c-3,5 -2,59 -2,73 0,17 -1,16 9,15zm21 -8c3,9 10,9 20,8l1 -7c-17,-2 -12,1 -13,-39l1 -8c5,-3 6,0 12,-2l0 -7c-3,0 -5,0 -7,0 -15,-2 5,-22 -14,-19 -2,7 0,12 -2,18 -8,2 -11,-2 -10,8 6,1 10,-1 11,5l1 43zm-1000 24c2,2 2,6 7,8 4,-1 6,-4 2,-7 -12,-35 -20,-59 -8,-100 4,-12 12,-25 10,-28 -6,-5 -8,1 -10,7 -2,5 -4,10 -6,15 -15,42 -6,69 5,105zm260 -118c9,9 14,48 13,64 -2,38 -17,53 -15,61 8,2 11,-9 16,-22 11,-33 10,-72 -4,-103 -2,-3 -4,-9 -7,-10 -8,-3 -4,7 -3,10zm-190 -25c5,0 11,-5 16,-8 35,-18 77,-16 112,2 12,6 24,-5 -26,-19 -32,-8 -67,-3 -95,13 -6,4 -12,6 -7,12zm70 228c17,0 53,-6 65,-14 4,-2 4,-5 1,-7 -4,-2 -9,2 -14,4 -30,11 -62,12 -92,3 -16,-5 -32,-17 -32,-7 0,6 25,13 31,15 13,4 27,6 41,6zm-24 -287c62,-9 88,24 92,13 2,-6 -8,-8 -12,-10 -37,-15 -74,-18 -112,-4 -5,2 -14,4 -15,8 -2,3 0,5 3,5 3,0 5,-2 8,-3 11,-5 23,-7 36,-9zm23 247c20,0 43,-6 59,-16 6,-4 13,-6 8,-13 -5,0 -17,9 -23,12 -64,28 -105,-13 -111,-13 -7,0 -4,6 0,9 18,12 43,21 67,21zm531 -82c-14,-2 -5,15 -26,15 -26,0 -27,-45 -4,-50 7,-2 13,0 17,4 6,6 1,9 13,8 1,-26 -56,-33 -56,14 1,36 35,36 48,27 3,-3 10,-12 8,-18zm-155 -41c-2,6 -1,48 2,54 3,7 10,10 19,10 13,0 15,-7 21,-8l2 6 7 0c2,-16 1,-40 1,-57 0,-9 -9,-8 -9,-1 -2,18 5,43 -12,50 -12,6 -22,0 -23,-13 0,-11 2,-31 0,-41 -4,-1 -5,-1 -8,0zm515 -21l0 83 8 0c3,-20 -6,-54 18,-56 26,-3 14,27 18,56l7 0 1 -8c0,-27 7,-59 -24,-56 -13,1 -11,7 -19,7l-1 -30 -8 0 0 4zm-348 83l9 0c0,-25 -5,-53 16,-56 25,-4 17,24 19,56 4,1 4,1 8,-1 1,-8 1,-46 -2,-53 -5,-11 -21,-12 -31,-8 -4,2 -4,5 -9,5l-1 -30c-12,-2 -9,3 -9,13 0,18 -1,63 0,74zm-230 -87c-2,4 -1,79 -1,87l9 0c2,-21 -7,-54 17,-56 14,-2 18,6 17,19 0,11 0,26 1,37 5,1 5,1 8,-1 2,-7 1,-46 -2,-53 -9,-21 -38,-3 -40,-3l-1 -30 -8 0zm-302 -18c1,5 11,14 16,13 4,-1 4,-5 0,-8 -5,-3 -7,-2 -8,-8 22,0 52,23 52,57 0,16 -6,32 -13,43 -3,5 -8,12 -12,16 -6,5 -11,10 -10,16 9,1 20,-15 25,-21 18,-25 26,-63 6,-92 -3,-3 -2,-3 -6,-6 -2,-2 -4,-4 -6,-6 -8,-5 -12,-9 -22,-13 -10,-3 -24,-4 -22,9zm709 49c9,-3 17,2 21,7 8,11 3,13 -8,13 -6,-1 -25,2 -26,-4 -1,-6 7,-14 13,-16zm32 38c-12,-3 -6,14 -26,12 -18,-1 -22,-18 -18,-21 4,-4 27,-2 34,-2 7,0 19,5 10,-18 -8,-19 -32,-24 -47,-8 -20,21 -5,66 31,56 7,-2 16,-10 16,-16l0 -3zm53 -13c1,10 0,17 -7,22 -6,4 -17,5 -23,0 -8,-6 -2,-16 5,-19 5,-1 21,-4 25,-3zm-40 -14c15,2 4,-5 15,-10 18,-9 34,10 21,16 -8,5 -31,2 -37,15 -5,9 -2,27 21,26 11,-1 12,-6 20,-8 3,3 4,10 13,7 3,-1 5,-2 2,-6 -2,-4 -3,1 -5,-5 -6,-22 15,-57 -28,-54 -12,1 -22,6 -22,19zm-466 14l-8 0c-3,9 -4,14 -9,19 -5,5 -14,7 -23,6 -16,-3 -24,-16 -25,-34 -1,-18 7,-32 19,-37 8,-2 17,-2 24,1 7,3 8,8 13,15l8 0c2,-15 -21,-31 -45,-24 -39,11 -39,82 5,87 12,1 22,-1 30,-7 4,-4 13,-15 11,-26zm-412 47c4,2 5,11 10,7 0,0 5,0 1,-7 -2,-2 -3,-4 -5,-7 -3,-5 -5,-9 -7,-15 -9,-24 -8,-50 0,-74 3,-8 10,-26 20,-22 4,5 0,15 -3,21 -8,19 -12,37 -8,59 1,5 1,7 7,7 4,-9 -5,-19 2,-46 3,-10 14,-30 11,-40 -2,-7 -6,-12 -16,-10 -18,3 -33,57 -26,91 5,22 10,24 14,36zm206 -121c12,21 20,35 18,63 0,12 -3,23 -7,34 -2,5 -4,10 -6,14 -4,5 -5,9 -13,8 -6,-9 6,-29 10,-41 3,-12 5,-37 -1,-46l-6 0c-3,14 9,23 -8,62 -16,37 12,40 22,25 10,-14 17,-36 17,-57 1,-27 -5,-39 -14,-59 -2,-2 -6,-9 -8,-10 -5,-3 -7,2 -4,7zm538 97l0 -31c14,-2 27,-1 40,-1 10,0 7,6 7,30 0,6 -1,9 3,10 8,2 7,-2 7,-8 0,-19 1,-59 0,-76 -13,-3 -10,2 -10,12 0,29 5,24 -29,24 -26,0 -16,4 -19,-36 -12,-5 -9,7 -9,17l0 56c0,6 -2,10 3,11 8,1 7,-2 7,-8zm-696 -93c-30,46 -13,113 39,133 14,5 46,8 56,-2 -1,-15 -17,6 -51,-5 -49,-17 -65,-81 -37,-122 2,-3 2,-4 4,-4 9,-13 26,-22 46,-25 10,-1 21,-1 32,1 6,1 21,8 26,6 3,-6 -3,-7 -9,-9 -18,-7 -37,-9 -56,-5 -25,5 -40,18 -50,32z"/>
 </g>
</svg>
