<?xml version="1.0" encoding="UTF-8"?>
<!DOCTYPE svg PUBLIC "-//W3C//DTD SVG 1.0//EN" "http://www.w3.org/TR/2001/REC-SVG-20010904/DTD/svg10.dtd">
<!-- Creator: CorelDRAW X8 -->
<svg xmlns="http://www.w3.org/2000/svg" xml:space="preserve" width="523px" height="400px" version="1.0" style="shape-rendering:geometricPrecision; text-rendering:geometricPrecision; image-rendering:optimizeQuality; fill-rule:evenodd; clip-rule:evenodd" viewBox="0 0 18916 14454" xmlns:xlink="http://www.w3.org/1999/xlink">
 <defs>
  <style type="text/css">
   <![CDATA[
    .fil0 {fill:#155392}
    .fil1 {fill:#155392;fill-rule:nonzero}
   ]]>
  </style>
 </defs>
 <g id="Capa_x0020_1">
  <metadata id="CorelCorpID_0Corel-Layer"/>
  <g id="_2485752901968">
   <path class="fil0" d="M8865 4971c-162,-519 -90,-2547 -61,-3198 18,20 39,49 50,65 10,16 34,46 47,65l159 342c729,1987 1177,1994 1528,2732l-1723 -6zm-1834 -110c48,-240 350,-613 491,-953 147,-352 268,-759 367,-1159l482 -26c185,346 148,1911 47,2285l-1387 -147zm683 -2448c-263,326 -323,1061 -497,1474 -246,581 -511,807 -763,1232 281,396 206,-127 473,387 268,517 -171,0 -9,478l114 19c105,-3 53,6 188,-17 932,-158 435,-55 1325,-57 542,-1 1299,-115 1881,-158 328,-4 115,35 199,-103l-76 -80c-40,25 -102,-4 -210,129 -38,9 -103,-66 -110,-34 -7,28 -50,-47 -78,-66 -629,-49 -954,179 -1563,119 -368,-36 -517,-82 -903,-62 -553,28 -479,175 -591,-403l3262 -20 202 265c230,-317 224,-221 666,-261l-26 919c-311,206 -671,281 -1143,307 -485,26 -886,153 -1164,173 -171,12 -661,-180 -1099,-186 -1839,-25 -1641,-19 -1641,-2672 0,-1080 49,-2534 -30,-3578l2326 34 -1 2143 -732 18zm3658 -2138c-116,1654 -98,3122 -159,4778 -467,-294 -1348,-1553 -1594,-2049 -262,-528 -689,-2086 -783,-2747l2536 18zm-2545 6816c866,-610 979,-275 2051,-417 887,-117 704,-943 704,-1838 0,-819 -2,-1638 1,-2457 1,-483 179,-2091 134,-2312l-6088 -12c-16,597 199,1514 195,2324 -8,1549 -350,3911 790,4283 407,132 846,60 1266,84 439,25 694,218 947,345z"/>
   <path class="fil0" d="M5999 13636c108,978 921,820 2358,760 6,-521 -132,-1416 92,-1806 613,47 393,260 398,1815l831 -5 9 -1802c802,-39 594,-18 607,1817l813 12 -26 -1932c-122,-537 -478,-541 -1120,-544 -453,44 -129,-93 -384,262 -316,-415 -1213,-264 -2098,-269l-19 1737c-968,154 -496,-189 -633,-1742l-777 9 -51 1688z"/>
   <path class="fil0" d="M11297 14405c1170,17 2705,297 2489,-1597 -61,-537 -212,-682 -567,-735l-1007 -96c-8,780 -75,349 375,630 800,215 696,1194 -533,1082l-10 -2720 -737 1 -10 3435z"/>
   <path class="fil0" d="M3035 13547c-526,-1243 1260,-1174 727,45l-727 -45zm-1004 -111c327,1445 3092,1195 2749,-558 -309,-1578 -3146,-1200 -2749,558z"/>
   <path class="fil0" d="M15821 14366l847 43 -1 -766c-407,-14 -453,-5 -514,-53 -291,-224 -415,-299 -270,-708 107,-300 394,-330 891,-294l46 1699 732 53 24 -2316 -1768 14c-1135,94 -1152,1999 13,2328z"/>
   <path class="fil0" d="M7488 8227l-941 248c1169,609 1542,71 2005,330l-623 435c350,-44 700,-267 977,-237 458,49 342,346 944,252l-812 -506c467,-203 1093,356 1860,-227l-402 -160c-165,-40 -328,-58 -475,-80 193,-429 343,-503 530,-901 -1322,181 -1023,642 -1629,1266 -884,-201 -454,-1029 -1913,-1269l479 849z"/>
   <polygon class="fil0" points="5806,14412 5823,10988 4950,11006 4948,14388 "/>
   <path class="fil0" d="M979 14347l865 107 4 -652c-107,3 -297,20 -401,14l-375 -110 -290 -140c-88,-486 -96,-511 92,-915l947 -43 12 -617 -977 25c-450,88 -589,291 -820,590 -66,711 -164,1802 943,1741z"/>
   <polygon class="fil0" points="14022,14304 14801,14287 14810,11982 14016,11975 "/>
   <path class="fil0" d="M5850 7426l-881 -47c392,548 731,666 1663,632 67,-711 -492,-1332 -1009,-1486l227 901z"/>
   <path class="fil0" d="M12410 7500c-184,-139 303,-135 -346,-84l-255 -19 -230 68c-99,-510 -39,-89 60,-263l350 -734c-469,265 -1146,637 -1129,1436 887,319 1129,69 1550,-404z"/>
   <path class="fil0" d="M6976 6303c303,-31 612,-111 906,-76 294,36 471,151 848,161 655,17 1078,-146 1845,-89 -368,-615 -951,-151 -1650,-97 -498,39 -571,-32 -966,-125 -957,-223 -978,220 -983,226z"/>
   <path class="fil0" d="M4824 5082c23,-413 -95,-959 -314,-1315 -193,-314 -28,-145 -314,-276 -230,536 72,1358 628,1591z"/>
   <path class="fil0" d="M5330 5368c316,-425 481,-1078 243,-1623 -422,328 -729,1099 -243,1623z"/>
   <path class="fil0" d="M4965 3869c387,-339 729,-758 656,-1527 -281,107 -453,306 -607,575 -163,287 -136,614 -49,952z"/>
   <path class="fil0" d="M12473 3860c140,-842 -36,-1201 -622,-1491 -78,187 -96,102 -32,422 26,127 90,285 151,412 145,302 300,504 503,657z"/>
   <path class="fil0" d="M13180 5555l22 -260 -219 35c-413,397 -654,552 -720,1355 453,-195 754,-546 917,-1130z"/>
   <path class="fil0" d="M5071 6601c307,92 91,70 176,-104 -171,-543 -407,-925 -764,-1174 -155,-8 -110,-41 -106,128 165,622 90,977 694,1150z"/>
   <path class="fil0" d="M12229 5310c263,-512 142,-1358 -286,-1600 -230,630 -55,1154 286,1600z"/>
   <polygon class="fil0" points="14744,10975 14096,10986 14018,11654 14819,11649 "/>
   <path class="fil0" d="M12824 4288c-18,422 -89,298 81,556 188,-616 478,-198 397,-1346 -358,130 -455,293 -478,790z"/>
   <path class="fil0" d="M10151 5617c28,19 71,94 78,66 7,-32 72,43 110,34 108,-133 170,-104 210,-129l9 -72 -202 -265c2,589 58,250 -205,366z"/>
   <path class="fil0" d="M5007 7104c6,248 259,-11 155,-35 -244,-55 -161,-202 -155,35z"/>
   <path class="fil0" d="M11764 6159c266,-64 109,26 220,-222 -411,132 -33,-43 -220,222z"/>
   <path class="fil0" d="M5598 6159c14,337 280,88 87,16 0,0 -10,-5 -11,-5 0,0 -84,-196 -76,-11z"/>
   <path class="fil0" d="M4064 4930c231,127 -337,143 114,51l100 -51c-74,-69 231,-285 -214,0z"/>
   <path class="fil0" d="M11357 8427c2,95 204,113 153,-22l-47 -19c-300,20 -112,-242 -106,41z"/>
   <path class="fil0" d="M12763 3418c-9,215 216,-4 87,-11 0,0 -11,-1 -12,-1 -256,21 -64,-253 -75,12z"/>
   <path class="fil0" d="M4458 3385l155 82c8,-3 32,-34 50,-49l-205 -33z"/>
   <path class="fil1" d="M12757 0c95,0 185,24 272,71 87,47 155,115 205,203 49,88 74,180 74,277 0,96 -24,187 -73,275 -49,86 -116,154 -203,203 -87,49 -179,73 -275,73 -96,0 -187,-24 -274,-73 -87,-49 -155,-117 -204,-203 -48,-88 -73,-179 -73,-275 0,-97 25,-189 75,-277 49,-88 117,-156 204,-203 87,-47 178,-71 272,-71zm1 109c-76,0 -149,19 -218,57 -70,38 -125,92 -165,163 -40,71 -60,145 -60,222 0,77 20,151 59,221 39,70 93,124 163,164 70,39 144,58 221,58 77,0 150,-19 220,-58 70,-40 124,-94 164,-164 39,-70 59,-144 59,-221 0,-77 -20,-151 -60,-222 -41,-71 -95,-125 -165,-163 -70,-38 -143,-57 -218,-57zm-250 737l0 -584 119 0c111,0 173,1 186,2 40,3 70,11 92,23 21,12 40,31 54,56 15,25 22,53 22,84 0,42 -14,78 -41,108 -28,30 -66,48 -116,55 18,7 32,14 41,22 10,8 23,23 40,45 4,6 18,29 43,71l69 118 -148 0 -48 -95c-33,-64 -60,-104 -81,-121 -22,-16 -49,-24 -82,-24l-30 0 0 240 -120 0zm120 -333l47 0c69,0 111,-3 128,-8 16,-5 29,-14 39,-27 9,-13 14,-28 14,-45 0,-16 -5,-30 -14,-43 -9,-12 -23,-21 -40,-27 -17,-5 -59,-8 -127,-8l-47 0 0 158z"/>
   <path class="fil1" d="M18365 11753c95,0 185,24 272,71 87,47 155,115 205,203 49,88 74,181 74,277 0,96 -24,188 -73,275 -49,87 -116,154 -203,203 -87,49 -179,73 -275,73 -96,0 -187,-24 -274,-73 -87,-49 -155,-116 -204,-203 -48,-87 -73,-179 -73,-275 0,-96 25,-189 75,-277 49,-88 117,-156 204,-203 87,-47 178,-71 272,-71zm1 109c-76,0 -149,19 -218,57 -70,38 -125,92 -165,163 -40,71 -60,145 -60,222 0,78 20,151 59,221 39,70 94,124 163,164 70,39 144,59 221,59 77,0 150,-20 220,-59 70,-40 124,-94 164,-164 39,-70 59,-143 59,-221 0,-77 -20,-151 -60,-222 -41,-71 -95,-125 -165,-163 -70,-38 -143,-57 -218,-57zm-250 737l0 -583 119 0c111,0 173,0 186,1 40,3 70,11 92,23 21,12 40,31 54,56 15,25 22,53 22,84 0,42 -14,78 -41,108 -28,30 -66,48 -116,56 18,6 32,14 41,21 10,8 23,23 40,45 4,6 18,30 43,71l69 118 -148 0 -48 -95c-33,-64 -60,-104 -81,-120 -22,-17 -49,-25 -82,-25l-30 0 0 240 -120 0zm120 -333l47 0c69,0 111,-3 128,-8 16,-5 29,-14 39,-27 9,-13 14,-28 14,-45 0,-16 -5,-30 -14,-43 -9,-12 -23,-21 -40,-27 -17,-5 -59,-8 -127,-8l-47 0 0 158z"/>
  </g>
 </g>
</svg>
