<?xml version="1.0" encoding="UTF-8"?>
<!DOCTYPE svg PUBLIC "-//W3C//DTD SVG 1.0//EN" "http://www.w3.org/TR/2001/REC-SVG-20010904/DTD/svg10.dtd">
<!-- Creator: CorelDRAW X8 -->
<svg xmlns="http://www.w3.org/2000/svg" xml:space="preserve" width="732px" height="400px" version="1.0" style="shape-rendering:geometricPrecision; text-rendering:geometricPrecision; image-rendering:optimizeQuality; fill-rule:evenodd; clip-rule:evenodd" viewBox="0 0 674 368" xmlns:xlink="http://www.w3.org/1999/xlink">
 <defs>
  <style type="text/css">
   <![CDATA[
    .fil0 {fill:#EB1C22}
   ]]>
  </style>
 </defs>
 <g id="Capa_x0020_1">
  <metadata id="CorelCorpID_0Corel-Layer"/>
  <path class="fil0" d="M93 239c-11,5 -21,9 -35,10 -12,1 -35,0 -32,-14 5,-21 60,-7 67,4zm204 -84c-20,5 -13,39 9,32 7,-2 14,-10 11,-20 -1,-7 -10,-14 -20,-12zm170 60c4,-24 54,-84 71,-79 1,9 -15,28 -21,35 -3,3 -5,7 -9,10 -3,3 -6,5 -10,9 -8,8 -21,20 -31,25zm-111 -6c1,-10 19,-37 26,-46 8,-10 49,-57 64,-54 3,8 -13,26 -17,31l-11 13c-4,4 -7,9 -11,12 -5,4 -8,7 -13,12 -14,14 -26,22 -38,32zm-112 -97c2,-3 4,-5 6,-7 10,-14 28,-33 40,-45 4,-4 10,-10 14,-13 9,-7 24,-22 36,-18 5,19 -33,57 -44,66 -6,5 -9,8 -16,13 -14,11 -38,26 -55,29l19 -25zm-103 127c2,-4 6,-6 9,-9l37 -41c2,-2 2,-3 4,-5 4,-5 10,-16 17,-17 21,-5 32,-10 51,-18 19,-9 47,-27 61,-42 7,-7 16,-14 26,-27 1,-2 1,-2 3,-5 16,-17 37,-65 5,-74 -19,-5 -39,7 -51,14 -11,7 -20,15 -29,23 -17,14 -42,46 -56,65l-30 40c-3,4 -3,5 -11,6 -5,0 -10,1 -15,1 -23,0 -41,-3 -56,-14 -17,-11 -21,-27 -10,-46 3,-7 11,-14 16,-19 13,-9 30,-19 46,-23 5,-1 25,-5 28,-6l-10 -21c-21,-1 -54,15 -68,24 -17,10 -36,28 -43,49 -4,12 -4,29 2,40 19,34 61,39 98,39l-6 8c-13,14 -26,29 -40,42 -15,-5 -29,-21 -65,-22 -53,0 -69,42 -40,62 20,13 51,9 73,4 6,-2 10,-3 16,-6 5,-2 10,-5 14,-6 5,0 27,20 64,16 9,-1 23,-4 31,-8 4,-2 9,-4 13,-7 5,-2 8,-5 12,-7l2 3c0,2 0,3 1,4 2,7 6,11 13,13 28,12 71,-16 79,-18 4,4 5,7 9,10 4,3 8,6 12,7 10,4 23,4 34,3 32,-4 37,-12 57,-18 5,7 10,13 20,16 19,7 42,0 59,-8 6,-2 19,-10 23,-11 -1,11 4,17 11,20 9,4 18,1 27,0 -4,6 -13,14 -18,20 -13,15 -40,53 -45,72 7,2 22,7 27,6 8,-18 15,-31 26,-46 10,-14 21,-26 32,-39l17 -19c9,-9 36,-37 45,-44 4,-4 6,-3 6,-12 -3,-1 -6,-3 -8,-5 -3,-3 -5,-5 -9,-6 -7,4 -38,41 -68,49 -32,10 0,-24 2,-30 -5,-6 -13,-10 -19,-16 -3,2 -34,31 -58,42 -6,2 -10,3 -15,5 -13,4 -25,3 -30,-7 6,-6 15,-11 22,-16l26 -20 31 -33c41,-59 5,-75 -38,-48 -7,5 -14,10 -21,16 -6,6 -12,13 -17,19 -11,14 -19,29 -26,48 -3,8 -3,15 -5,22 -2,7 -24,13 -30,15 -19,6 -46,12 -55,-5 2,-4 25,-18 30,-23 4,-3 6,-5 10,-8l19 -16c3,-4 5,-6 8,-9 3,-3 6,-5 9,-9 4,-3 5,-6 9,-9 14,-14 52,-66 23,-78 -21,-9 -58,16 -72,30 -3,3 -6,5 -9,9 -3,3 -5,5 -8,9 -5,4 -12,13 -16,19 -16,22 -29,44 -31,74 -32,22 -97,43 -42,-19 -5,-5 -13,-11 -19,-15l-25 23c-16,15 -39,32 -63,33 -12,0 -31,-5 -38,-10z"/>
 </g>
</svg>
