<?xml version="1.0" encoding="UTF-8"?>
<!DOCTYPE svg PUBLIC "-//W3C//DTD SVG 1.0//EN" "http://www.w3.org/TR/2001/REC-SVG-20010904/DTD/svg10.dtd">
<!-- Creator: CorelDRAW X8 -->
<svg xmlns="http://www.w3.org/2000/svg" xml:space="preserve" width="568px" height="400px" version="1.0" style="shape-rendering:geometricPrecision; text-rendering:geometricPrecision; image-rendering:optimizeQuality; fill-rule:evenodd; clip-rule:evenodd" viewBox="0 0 154 108" xmlns:xlink="http://www.w3.org/1999/xlink">
 <defs>
  <style type="text/css">
   <![CDATA[
    .fil0 {fill:#646464}
    .fil1 {fill:#FF2A00}
   ]]>
  </style>
 </defs>
 <g id="Capa_x0020_1">
  <metadata id="CorelCorpID_0Corel-Layer"/>
  <g id="_2485752840912">
   <path class="fil0" d="M67 102c0,-4 6,-5 6,-1l0 7 2 0c0,-2 -1,-7 0,-8 1,-2 5,-3 5,2l0 6 2 0 0 -7c0,-2 -1,-4 -3,-4 -2,-1 -3,0 -4,1l-1 1c0,-1 -1,-2 -3,-2 -1,0 -2,0 -3,1l0 0 -1 -1 -2 0 0 11 2 0 0 -6zm61 -10c0,0 -1,1 -1,2 1,0 1,1 2,0 1,0 1,-3 -1,-2zm-43 0c-1,1 -1,3 1,2 2,0 1,-2 -1,-2zm-1 16l1 0 1 0 0 -11 0 0 -1 0 -1 0 0 11zm43 0l2 0 1 0 0 -11 -1 0 -1 0 -1 0 0 11zm-112 -15c0,3 0,6 0,9 0,4 0,7 4,6 -1,0 -1,0 -1,-1 -1,-1 0,-13 0,-14l-3 0zm107 14c1,2 3,1 3,1 0,0 0,0 -1,-1 0,-1 0,-2 0,-2 0,-4 1,-9 0,-12l-2 0 0 14zm-32 -13l0 3 -2 0 0 2 2 0c0,4 -1,8 2,9 1,1 3,0 4,0l0 -2c-3,1 -4,1 -4,-2 0,-2 0,-4 0,-5l3 0 0 -2 -3 0 0 -3c0,0 0,0 -1,0 0,0 0,0 -1,0zm-55 8l-4 6 2 0 3 -4c0,0 0,0 0,0 0,0 0,0 0,0l2 4 3 0c-1,-1 -1,-2 -2,-3 -2,-3 -2,-2 -1,-4 0,0 0,-1 1,-1 0,-1 1,-2 1,-3l-2 0c0,1 -1,3 -2,4 0,0 0,-1 -1,-1 0,-1 0,-1 0,-1 -1,-1 -1,-1 -1,-2 -1,0 -2,0 -3,0l4 5zm100 6c0,-4 -1,-10 3,-10 4,0 2,6 2,10l2 0c0,-1 0,-4 0,-5 0,-2 0,-4 0,-5 -1,-1 -2,-2 -4,-1 -3,0 -3,1 -3,2l0 -2 -2 0 0 11 2 0zm-85 -5c0,2 -1,4 -3,4 -3,-1 -3,-3 -3,-5 0,-2 1,-4 3,-4 2,1 3,3 3,5zm2 1c1,-9 -9,-10 -10,-3 -2,9 9,10 10,3zm95 -3c-1,0 0,-1 0,-2 2,-2 5,0 5,2l-5 0zm7 2l0 -2c0,-1 -1,-5 -5,-4 -3,0 -4,2 -5,4 0,3 1,5 2,6 2,2 5,2 7,1l0 -2c0,0 0,0 -1,0 -2,1 -5,1 -6,-3l8 0zm-127 0c0,5 -4,4 -4,3 -1,-1 -1,-2 0,-3 1,0 3,0 4,0zm-6 -4c1,0 2,-1 3,-1 3,0 3,1 3,3l-2 0c-3,0 -6,2 -5,6 1,1 2,1 4,1 2,0 2,0 3,-1 0,0 0,0 0,0 0,0 0,0 0,0l0 1 2 0 0 -6c0,-3 0,-4 -2,-5 -2,-1 -5,0 -6,1l0 1zm76 9l3 0c0,-3 -2,-9 2,-10 3,0 3,2 3,4 0,2 0,4 0,6l2 0c0,-2 0,-3 0,-5 0,-3 0,-6 -4,-6 -1,0 -1,0 -2,0 -1,1 -1,1 -1,1l0 -5 -3 0 0 15zm-34 -13c0,0 0,-1 0,-2 -5,-2 -10,1 -9,4 1,3 3,4 6,5 4,2 0,6 -6,4l0 2c3,1 6,1 8,-1 2,-1 2,-4 0,-6 -2,-2 -5,-2 -6,-4 0,-3 5,-3 7,-2zm57 -2c-2,0 -2,0 -3,0l-4 6c0,0 0,0 -1,0 0,-1 1,-4 0,-6l-2 0 0 15 2 0 0 -7c1,0 1,0 1,0l2 4c4,4 2,3 6,3 -1,-1 -1,-1 -2,-2l-4 -5c0,-1 0,-1 0,-1l5 -7zm-109 13c-1,1 -3,1 -4,0 -1,0 -2,0 -3,-1 -1,-1 -2,-3 -2,-6 1,-2 2,-4 4,-4 2,-1 5,0 7,0l0 -2c-1,0 -3,-1 -5,-1 -1,0 -3,1 -4,2 -2,1 -4,3 -4,6 0,4 2,6 4,7 2,2 7,2 9,1l0 -7 -2 0c0,1 0,4 0,5z"/>
   <path class="fil1" d="M108 2c0,0 2,1 3,1 1,0 2,1 3,1 1,0 2,1 2,2 1,0 2,1 3,2 1,0 1,1 2,1 0,1 0,1 1,1 3,5 4,8 4,14 0,4 -1,8 -2,12 0,0 -1,1 -1,1 0,0 0,1 0,1 0,0 0,0 0,0 0,1 0,1 0,1 0,1 -3,5 -3,6 -1,1 -3,6 -4,6 0,1 -4,7 -4,7 0,0 0,0 -1,1l-1 2 -1 0c0,1 0,1 0,1 0,0 -1,1 -1,1 0,1 -1,1 -1,1 0,1 -1,1 -1,1 -1,1 -1,1 -2,2 0,0 0,1 -1,1 0,1 0,1 -1,1 0,1 0,1 -1,1 0,1 -3,4 -4,4 0,0 0,0 0,0 0,1 0,0 0,1 0,0 -1,0 -1,0 0,0 0,0 0,0 -1,1 -1,1 -1,1 -1,1 -1,1 -1,1 -1,1 -2,1 -3,2 0,0 -3,2 -4,2 0,1 -1,1 -2,1 0,0 -2,1 -2,1 -1,1 -3,1 -5,1 -10,2 -19,-1 -26,-6 -3,-1 -4,-2 -6,-4 -1,-1 -1,-1 -1,-1 -1,-1 -1,-1 -1,-1l-2 -2c0,0 0,0 0,-1 -2,-1 -6,-7 -7,-8 1,0 2,1 3,1 3,2 6,3 10,3 2,0 3,0 6,0 0,-1 1,-1 1,-1 1,0 1,0 2,0l1 -1c1,0 3,-1 3,-2 0,0 0,0 0,0 0,0 0,0 0,0 1,-1 1,-2 1,-2l0 -2c0,-3 0,-4 -2,-5 -1,-1 -3,-1 -4,-2l-1 0c0,0 -1,0 -1,0l-4 0c0,0 -1,0 -2,0 -1,0 -2,0 -2,-1 -1,0 -1,0 -2,-1 0,-1 1,-3 2,-3 1,0 0,0 1,0 0,0 0,0 0,0 0,0 1,0 1,0l3 0 2 -1c1,0 1,0 1,0 0,0 1,0 1,0 0,-1 0,0 0,-1 1,0 1,0 1,0 0,0 1,-1 1,-1 1,-1 1,-1 2,-2 0,-1 0,-2 0,-3 1,-1 1,-2 0,-4 0,0 0,-1 -1,-1 0,-1 0,-2 -1,-2l4 0 1 1c0,0 0,0 0,0 0,0 0,0 0,0 0,0 0,0 0,0l0 -4 -1 1 -1 0c0,0 -1,0 -1,0l0 0c0,0 0,0 0,0 -1,0 -2,0 -3,0 0,0 -1,0 -2,-1 0,0 0,0 -1,0l0 0 -1 0c-2,-1 -3,-1 -5,0l0 0 -2 0c0,0 -1,0 -1,1 -1,0 -1,0 -2,0 0,0 0,1 0,1 -1,0 -2,1 -2,2l-1 0c0,1 -1,3 -1,4 0,1 0,3 1,4 1,2 2,3 2,3 0,0 1,1 1,1 1,0 1,1 2,1 0,0 -1,0 -1,1 -1,0 -1,0 -1,0 -1,1 -1,2 -2,3 0,1 0,2 1,3 1,3 5,2 5,3 1,0 2,0 3,0l3 0 4 1c4,0 3,3 3,4 0,1 -2,2 -3,2 0,0 -2,1 -3,1l-3 0c0,0 -5,0 -6,-1 -1,0 -4,-1 -5,-2 -9,-5 -13,-20 -11,-30 0,-4 2,-7 4,-10 0,0 1,-1 1,-1 1,-1 4,-4 5,-5 0,0 2,-1 2,-1l2 -2c0,0 1,0 1,-1 1,0 1,0 1,0 0,0 0,0 0,0 1,-1 1,-1 2,-1 0,0 3,-1 3,-1 0,-1 1,-1 1,-1l1 0 1 0c0,-1 3,-2 4,-2l3 -1c0,0 1,0 1,0l2 0c1,-1 1,-1 2,-1l2 0 2 -1c1,0 2,0 3,0 1,0 1,0 1,0 1,0 3,0 4,0l1 -1c1,0 1,0 2,0l5 0 3 0 0 0c2,0 9,0 11,0 5,1 6,1 10,2zm-35 25l-2 0c-1,0 -1,0 -1,0 0,0 -1,0 -1,1 0,0 -1,0 -1,0 -1,1 -1,1 -2,1l0 1c0,0 -1,1 -1,2 0,0 0,1 0,2 0,1 0,2 0,3 1,0 1,1 3,3 0,0 1,0 1,0l4 2c1,1 3,2 4,3 0,0 1,1 1,1 0,1 0,2 0,3 0,0 0,0 0,1 -1,0 -1,0 -1,0 0,0 -1,1 -1,1 -1,0 -1,0 -2,0 -1,0 -3,0 -4,0 -1,0 -3,-1 -3,-1 -1,0 -2,-1 -3,-1l0 0 0 3 0 1 1 0c2,0 3,1 4,1 2,0 3,0 5,0l2 0c1,0 3,-1 3,-1 0,0 1,-1 2,-1 0,-1 0,-1 1,-1 0,-1 0,0 0,-1 0,0 0,0 0,0 0,0 0,0 1,-1l0 -1 0 -2c0,-6 -9,-7 -10,-9 -1,0 -4,-2 -4,-5 0,-1 1,-1 2,-2 1,0 1,0 3,0l0 0c1,0 3,0 4,0 1,0 1,1 2,1 0,0 0,0 0,0 0,0 0,0 0,0 1,1 1,1 1,1 1,0 0,0 0,0l0 -4c0,0 0,0 0,0 -1,0 -1,0 -1,0 0,0 0,0 0,0l0 -1 -1 0 -1 0 -2 0 -1 0c-1,-1 -1,0 -2,0zm18 -12l-1 0c0,1 1,0 0,0 0,0 0,0 0,1 0,0 -1,0 -1,0 0,0 -1,0 -1,0l-2 1c0,0 0,0 1,1 0,3 0,12 0,15 0,3 0,5 0,8l0 9 0 0 0 1 -1 2 0 0c2,0 5,0 6,0l0 -1 0 -2 0 -1 0 -9c0,0 1,1 1,2 1,0 1,1 2,1 0,1 1,1 1,2 0,0 0,0 1,1 0,0 0,0 0,0 0,0 1,1 1,1 1,1 1,2 2,3l2 1c0,0 0,0 0,0 0,1 0,1 1,1 0,0 0,0 0,1l1 0c1,0 2,1 2,1 2,0 4,0 5,-1l1 0c0,0 0,0 0,0 -1,0 -1,0 -2,-1 0,0 -1,0 -1,0 -1,0 -2,-2 -3,-2 0,0 0,0 0,0 0,-1 0,-1 0,-1 -1,0 0,0 -1,0 0,0 -1,-1 -1,-2 0,0 0,0 0,0 0,0 0,0 -1,0 0,0 0,0 0,-1 0,0 0,1 0,0 0,0 0,0 0,0 -1,0 -1,0 -1,-1 0,0 0,0 -1,0 0,-1 0,-1 0,-1 -1,-1 -1,-1 -2,-2 0,0 -1,-1 -1,-1l-1 -1c0,0 0,-1 -1,-1l1 -1 0 -1c1,0 1,0 1,0 1,-1 1,-1 1,-1 0,0 0,0 0,-1l9 -7c0,0 1,0 1,-1l-1 0 -6 0c0,1 0,1 -1,2l-4 4c0,0 -5,5 -5,5l0 -23c-1,0 -1,0 -1,0zm-45 15c0,-1 3,-1 4,-1 1,1 2,1 2,1 0,1 0,0 0,1 3,1 3,5 3,7l-1 1c0,0 0,0 0,0 0,0 0,1 -1,2 0,0 -1,1 -2,1 0,0 -1,0 -2,0l-2 0c-2,-1 -3,-2 -4,-5 0,-1 0,-2 0,-4 0,-1 1,-2 2,-2 0,-1 0,-1 1,-1z"/>
  </g>
 </g>
</svg>
