<?xml version="1.0" encoding="UTF-8"?>
<!DOCTYPE svg PUBLIC "-//W3C//DTD SVG 1.0//EN" "http://www.w3.org/TR/2001/REC-SVG-20010904/DTD/svg10.dtd">
<!-- Creator: CorelDRAW X8 -->
<svg xmlns="http://www.w3.org/2000/svg" xml:space="preserve" width="529px" height="400px" version="1.0" style="shape-rendering:geometricPrecision; text-rendering:geometricPrecision; image-rendering:optimizeQuality; fill-rule:evenodd; clip-rule:evenodd" viewBox="0 0 13898 10506" xmlns:xlink="http://www.w3.org/1999/xlink">
 <defs>
  <style type="text/css">
   <![CDATA[
    .fil3 {fill:black}
    .fil2 {fill:#00478F}
    .fil1 {fill:#004992}
    .fil0 {fill:#004B97}
   ]]>
  </style>
 </defs>
 <g id="Capa_x0020_1">
  <metadata id="CorelCorpID_0Corel-Layer"/>
  <g id="_2486064481184">
   <path class="fil0" d="M4766 6623c-61,35 17,-32 -15,14 -14,22 -11,89 -163,88l-16 -78c58,-38 126,-42 177,-67 59,-29 98,-75 162,-99 0,130 -18,142 -145,142zm927 -600c172,-113 176,137 277,241l113 -40c180,127 65,219 112,437 -238,-11 -559,-355 -502,-638zm-624 78c50,8 130,28 179,47 63,24 75,58 106,114 -204,12 -206,-32 -285,-161zm-929 -195c207,282 237,138 322,155 27,6 83,55 106,69 60,-15 104,-72 151,1 17,28 67,150 78,185 -252,52 -333,-160 -449,-121 -104,35 -110,107 -198,-37 -56,-90 -73,-164 -10,-252zm1179 114c-44,-312 292,-315 329,5 42,364 -293,244 -329,-5zm618 -285c29,17 7,-1 30,23 8,9 16,19 23,28 34,44 92,113 97,170l-5 44c-1,4 -2,10 -4,14 -97,15 -128,-28 -165,-102 -47,-90 -66,-127 24,-177zm-1491 -130l21 17c77,72 64,102 179,155 86,41 185,62 265,95l0 118c-60,-15 -78,-38 -147,-50 -213,-38 -312,16 -318,-335zm1216 -247c115,66 249,337 143,516 -223,19 -149,-356 -143,-516zm-1519 -161c285,-223 499,-118 429,77 88,-38 193,-65 309,-47 131,20 141,101 229,154 -26,-90 31,-209 60,-309 65,1 127,22 178,52 80,47 72,72 130,114 -29,61 -24,25 -67,68 31,70 83,86 73,196l-185 -38c41,24 80,63 111,87 1,120 -45,178 -101,237 -85,90 -52,163 -133,198 -95,41 -170,-28 -175,-116 -8,-134 70,-159 113,-231 -136,39 -287,196 -455,75l-158 -138c-72,-74 -66,-139 -14,-229 -102,27 -135,54 -214,-6 -45,-34 -105,-95 -130,-144zm3257 919c-194,-194 -495,-74 -695,-270 -78,-77 -129,-190 -204,-291 -79,-108 -188,-136 -118,-309 228,47 197,285 362,391 146,-49 128,-163 453,78 61,44 143,88 223,107 154,36 136,86 214,111 37,-107 -48,-343 -75,-468 -36,-172 -12,-386 174,-392 52,31 142,182 171,238 -260,432 4,321 -54,722l96 -43c53,53 38,104 98,143 18,-189 -18,-175 -65,-325 -51,-161 -10,-189 29,-308 103,28 133,72 161,183 24,99 44,195 20,281 -93,327 35,356 -264,577 -108,80 -290,357 -561,211 -205,-111 -316,-23 -528,-147 -82,-49 -163,-43 -228,-119 -57,-67 -76,-159 -135,-212 -53,-47 -153,-70 -216,-130 -140,-132 -135,-324 -377,-646 -55,-74 -89,-147 -79,-267 126,59 245,176 235,347 133,67 241,178 322,283 50,65 85,117 134,181 190,246 156,106 590,349 147,82 269,165 492,108 -56,-191 -317,-72 -613,-235 -291,-161 -218,36 -511,-330l-379 -462c-66,-102 -161,-296 -303,-327 -152,-33 -74,52 -176,34 -151,-26 -52,-360 207,-210 110,63 143,69 244,168 39,38 57,68 96,119 121,158 214,331 387,454 114,81 91,95 217,212 83,76 498,178 656,194zm-1375 -1086l54 -61c44,29 426,289 102,258 -30,-42 -31,-65 -70,-107 -34,-36 -58,-52 -86,-90zm-729 -128c90,32 160,50 133,164l-86 5c-29,-53 -39,-108 -47,-169zm-1159 240c-51,-42 -101,-84 -92,-177 3,-3 249,-99 280,-111 116,-46 236,-26 318,33 -88,131 -61,84 -227,140 -102,35 -191,85 -279,115zm-97 -244c-24,-45 -32,-81 -19,-137 108,-51 189,-39 264,39 -33,98 -120,112 -245,98zm3672 -231c100,11 198,32 297,56 101,25 195,33 245,117 139,233 290,405 432,624 181,279 453,194 248,519 -41,66 -23,59 -77,100 -217,-9 -256,-359 -411,-437 7,84 274,521 244,601 -49,131 -229,-50 -258,-99 -115,-193 -10,-393 -157,-504 -124,-93 -209,-256 -239,-420 -35,-191 -21,-185 -132,-297 -37,-37 -70,-60 -116,-98 -63,-53 -58,-68 -76,-162zm-3225 -2c68,-47 265,-133 362,-48 53,47 57,103 114,134 63,35 105,15 152,98 -39,81 -38,62 -129,28 -59,-21 -117,-36 -180,-52 -282,-68 -336,-6 -319,-160zm1190 -179c-9,-227 315,-99 183,104 -26,40 -28,101 -100,88 -65,-11 -81,-115 -83,-192zm-412 -96l77 -34c50,72 302,254 163,359 -85,64 -170,-17 -197,-63 -45,-76 -26,-176 -43,-262zm604 -1126l26 27c38,38 40,34 58,90 -138,139 -275,-54 -298,-143l214 26zm-739 -1017c326,226 54,570 -51,210 -34,-117 1,-145 51,-210zm1714 128l0 0zm-1959 -399c59,-75 99,-76 168,-11l-28 108c-95,19 -118,-24 -140,-97zm2388 -339c-93,88 -107,92 -266,143 -154,48 -141,89 -227,182 -15,-82 -33,-142 11,-216 83,-140 376,-312 482,-109zm-1874 210c-114,1 -288,-151 -288,-316 0,-161 106,6 137,-156 15,-78 16,-163 45,-234 138,102 80,198 141,351l105 142c73,52 110,65 36,161l-115 -58c-26,38 -19,54 -61,110zm1365 -396c20,45 24,83 5,139 -141,40 -199,-15 -272,-89 -88,-89 -29,-184 99,-176 78,68 37,88 168,126zm-1010 83c-77,80 -144,27 -187,-43 -48,-78 -38,-166 -38,-268 81,44 190,222 225,311zm1010 -83l-93 -91c-154,-144 -37,-321 69,-312 58,4 83,34 138,41 92,12 55,-22 158,22 63,26 189,74 233,107 17,196 -202,88 -312,57 50,90 102,46 141,143 -38,182 -217,61 -334,33zm754 -167c38,-244 48,-222 294,-172 187,38 226,-147 365,10 -25,66 -73,95 -161,102 -132,11 -142,-29 -216,-39 -154,82 -240,419 -505,244 39,-139 73,-112 223,-145zm-89 -138c-107,21 -136,-43 -92,-122 121,-16 118,24 92,122zm-729 -336c119,-83 190,-74 359,-50 198,27 183,2 350,-47 377,-110 554,95 376,117 -66,8 -115,-30 -183,-35 -69,198 -127,96 -280,97 -111,117 -129,48 -280,31l-13 22c-16,29 -28,63 -68,82 -54,25 -40,13 -111,-4 -101,-24 -175,-76 -150,-213zm-933 114c-76,-195 124,-258 336,-329 135,-45 173,-9 276,35 73,31 184,46 243,96 -44,70 -22,45 -101,89 -87,49 -50,37 -69,134l-96 15c63,131 2,113 -97,157l4 113c-28,16 -72,22 -113,37 -94,35 -139,143 -278,35 29,115 78,141 -103,147 -20,-81 -72,-168 -95,-235l-8 -71c83,-60 85,7 156,73 -16,-60 -41,-107 -70,-162 -65,-123 -40,-70 15,-134zm1026 -281c73,-150 305,-113 303,55 -131,33 -239,25 -303,-55zm476 34c-11,-72 1,-118 55,-149 72,-42 93,-9 145,28 -26,96 -83,134 -200,121zm-710 -256c163,-54 216,177 17,198 -248,26 -163,-150 -17,-198zm1776 1933c3,68 75,242 91,370 17,143 32,305 42,450 -50,19 -50,38 -98,32 -72,-10 -207,-109 -401,-20 32,94 124,147 38,253 -76,94 -148,97 -269,75 99,61 143,40 253,39 -1,157 -54,93 -90,191 57,136 247,329 -11,436 -190,79 -504,-49 -615,11 -69,112 33,333 57,450 36,172 22,346 45,521 89,-3 84,-53 128,48 57,128 30,260 45,388 15,126 21,68 -8,179 -213,-9 -313,-90 -454,-183 -260,-170 -262,2 -434,-192 -56,-63 -80,-125 -132,-182l-530 -426c7,-392 -98,-289 -271,-588 -58,-100 -87,-232 -42,-357 52,-147 82,71 123,-340 168,-3 247,-66 282,-211l-215 -34c-47,-35 -111,-50 -171,-106 -28,-25 -108,-99 -113,-148l-23 76c-38,7 -50,9 -87,-1 -18,-5 -19,-5 -36,-12l-44 -22 24 -121 105 -3c-71,-53 -154,-109 -195,-189 78,-96 174,-68 317,-63 -2,-164 -174,-202 -346,-321 71,-59 12,-34 119,-72 -152,-96 -152,-180 -194,-403 204,2 136,87 233,178 129,-73 153,-421 519,-394l50 62c25,23 0,6 32,26 -6,-101 -7,-127 74,-161 65,48 94,137 164,186 -148,-293 -208,-208 -169,-295 19,-42 66,-62 115,-44 82,30 79,152 126,209 70,87 155,-9 279,34 34,95 -8,134 -67,201 -207,232 -490,212 -626,69 -35,34 -23,37 -51,81l-111 -28c8,43 20,75 1,114 -41,83 -44,-16 -78,85 -20,61 -8,227 6,289 27,117 70,140 102,212 53,122 -51,121 -88,200 66,90 164,164 333,170 119,155 277,113 306,49 -43,-30 -174,35 -305,-319l-40 -113c-34,-164 -57,-255 -21,-424 33,31 44,54 93,83 118,-35 172,-108 295,-6 108,90 61,218 128,287 166,67 274,-137 319,-255 3,-2 8,-10 9,-7 2,3 8,-5 10,-7l145 -102c52,-50 38,-171 47,-249 28,-255 175,-202 218,-373l67 -86c35,-41 47,-42 114,-44 390,-11 410,-288 568,-162 16,12 21,24 44,39 68,43 114,3 169,227 71,293 164,276 38,477 -94,149 -42,130 22,228 -19,-93 -52,-139 10,-228 71,-103 93,-60 44,-212 -42,-132 -126,-351 -125,-490 5,-463 148,-294 -234,-652 -89,-84 -264,-191 -391,-220 -84,-20 -152,-72 -232,-79 -67,-6 -74,14 -115,14 -42,0 -47,-23 -100,-48 -72,-35 -172,-47 -258,-55 -77,-8 -192,-46 -254,-23 -86,31 -74,69 -227,82 -217,19 -406,-14 -470,167 -344,-32 -422,151 -624,377 -84,93 -188,148 -251,244 -81,121 -109,207 -137,374 -15,87 -41,93 -69,179 -120,373 32,342 86,578 52,230 37,177 150,346 125,187 9,232 95,381 34,-45 35,-107 58,-174 49,3 50,-3 84,26 -8,86 -69,98 -119,165 50,76 178,144 205,253 56,222 118,21 106,344 -9,250 170,588 54,792 -102,-33 -208,-133 -168,-295 25,-103 155,-251 95,-339 -67,20 -61,41 -94,124 -140,344 -260,252 -289,358 -1,126 55,117 51,231 -143,175 -293,-6 -477,-14 -283,-13 -208,140 -477,146 -266,6 -344,20 -284,315 34,167 135,323 210,422 -88,-72 -224,-150 -384,-106 2,75 132,387 161,508 -145,-17 -138,-101 -210,-205 -65,-95 -156,-78 -284,-127 -189,-72 -412,-208 -638,-86 103,42 119,5 186,109 120,183 268,335 430,477 186,163 102,163 407,131 52,-6 69,-11 77,64 6,57 -18,77 -48,101 -81,63 -126,49 -180,128 452,289 443,221 871,300 -30,54 -29,20 -53,80 82,81 226,109 367,128 216,29 197,94 377,136 237,56 424,50 641,-20 119,-38 271,-33 147,-190 -26,-33 -34,-94 -67,-115 -168,-53 -364,-66 -541,-120 51,-254 311,-210 457,-60 184,189 -73,198 504,271 89,11 139,9 190,57 46,43 69,128 153,79 17,-18 -8,-62 -18,-79 -18,-27 -47,-57 -62,-72 -150,-143 -290,-49 -320,-492 270,108 94,199 390,305 140,50 190,147 311,203 71,33 66,12 135,-8 224,-66 402,149 572,11 78,-63 288,-256 420,-259 -44,46 -57,104 -42,177l129 28c19,148 -142,226 -230,298 -197,162 -215,47 -358,-18 -149,-67 -313,6 -465,23 -206,23 -212,-161 -408,-133 2,87 19,54 84,108 169,140 168,157 466,132 186,-15 140,-41 310,32 327,140 335,12 544,-153 79,-62 144,-115 183,-228 38,-112 89,-151 136,-261 47,-111 131,-117 264,-138 -46,119 -127,106 -172,242 110,128 417,138 547,24 135,-119 327,-173 379,-356 -110,11 -296,-33 -350,-12 -314,120 -384,-92 -233,-196 235,53 148,213 464,-1 133,-91 32,-102 242,-110 290,-10 256,-112 431,-256 250,-205 367,-179 475,-558 -74,13 -144,47 -215,61 -173,36 -372,15 -512,147 -77,72 -158,31 -308,153 -72,59 -44,102 -90,190 -79,155 -128,208 -326,251 -44,-61 -69,-143 -27,-240 53,-120 141,-31 229,-85 76,-47 46,-154 2,-218 -68,-100 -72,-130 -24,-246 -184,21 -268,159 -324,314 -222,-34 -230,-181 -338,-323 -96,-127 -193,-239 -294,-366 -60,-75 -66,-115 -185,-146 -279,-72 -219,-36 -479,-179 -75,-41 -181,-133 -101,-204 89,-70 606,68 502,-346 -70,-280 6,-166 54,-330 33,-113 53,-244 82,-362 500,11 342,-221 245,-648 -35,-154 1,-172 -91,-267z"/>
   <path class="fil0" d="M8378 10464c63,-52 70,-214 89,-298l206 -889 1 1187 285 0 0 -1463c-535,0 -423,-69 -505,279l-195 850c-38,-70 -172,-700 -209,-863 -76,-339 18,-269 -506,-257l5 1454 278 -3 -1 -1136 39 80c4,15 9,50 13,68 56,277 191,771 219,991l281 0z"/>
   <path class="fil0" d="M1854 9440l596 1024 298 -2 0 -1460 -284 8 -1 978c-24,-21 -8,-4 -31,-31l-129 -221c-51,-89 -95,-167 -144,-251 -334,-566 -170,-484 -597,-484l0 1463 284 0 8 -1024z"/>
   <path class="fil0" d="M4809 9253l303 0c340,0 265,262 233,315 -74,122 -373,78 -534,78l-2 -63 0 -330zm663 511c114,-87 203,-139 204,-346 0,-159 -78,-287 -181,-350 -148,-90 -789,-91 -988,-60l6 1456 295 -3 1 -570c669,0 458,-6 552,572l338 1c-24,-91 -54,-61 -62,-188 -4,-75 1,-152 -4,-228 -15,-236 -105,-226 -161,-284z"/>
   <path class="fil0" d="M12720 9232c583,-170 664,894 201,1001 -293,68 -461,-143 -491,-397 -35,-295 54,-535 290,-604zm470 1187c254,-150 340,-431 331,-737 -10,-305 -156,-587 -409,-677 -445,-158 -976,34 -992,693 -5,219 51,421 152,559 190,260 652,320 918,162z"/>
   <path class="fil0" d="M3331 9253c401,0 643,-57 626,495 -15,504 -295,463 -627,463l1 -958zm-299 1211c262,0 725,43 927,-72 397,-227 440,-1109 -5,-1333 -179,-90 -689,-58 -922,-58l0 1463z"/>
   <path class="fil0" d="M7001 9863c-41,250 -216,464 -517,360 -215,-75 -301,-342 -256,-630 91,-586 898,-493 773,270zm-25 561c497,-267 516,-1443 -330,-1465 -856,-23 -822,960 -600,1273 200,281 638,349 930,192z"/>
   <path class="fil0" d="M9646 9909c11,-83 57,-195 84,-277 15,-44 31,-92 45,-136l54 -122c1,-7 5,-8 7,-11l170 546 -360 0zm-213 555c72,-48 92,-212 123,-300l537 -2 91 302 331 0c-54,-224 -178,-527 -258,-749l-193 -548c-35,-101 -35,-154 -86,-166l-297 0c-56,35 -65,119 -87,181 -23,65 -44,120 -66,182 -100,290 -335,877 -387,1099l292 1z"/>
   <path class="fil0" d="M692 9352l174 556 -366 0 192 -556zm-396 1112c59,-49 95,-222 120,-301l535 2c123,351 -4,299 424,299 -47,-216 -183,-526 -258,-746 -42,-119 -86,-245 -129,-366 -19,-56 -102,-338 -148,-351l-297 0c-47,23 -32,14 -56,80l-487 1383 296 0z"/>
   <path class="fil0" d="M11587 10449c178,-79 310,-275 335,-485l-301 0c-61,170 -153,339 -407,262 -356,-109 -325,-833 -41,-965 142,-66 387,-40 446,229l308 0c-45,-574 -850,-696 -1153,-249 -177,260 -208,814 91,1103 172,167 505,203 722,105z"/>
   <path class="fil0" d="M3083 3974l45 -96c156,32 356,135 293,-173 -138,11 -51,68 -149,51 -26,-5 -21,-22 -164,-41 -65,-213 -105,-117 -131,-262 -54,-288 -12,-200 -167,-441 -64,-98 -251,-234 -359,-265 13,325 -14,604 145,792 78,92 144,149 227,235 68,72 135,204 260,200z"/>
   <path class="fil0" d="M3629 1290c123,-1 147,-65 222,-109 75,-45 165,-59 247,-99 121,-59 251,-274 263,-420 -259,-15 -290,30 -487,97 53,-133 102,-375 77,-527 -112,0 -325,211 -381,370 -67,192 70,333 59,688z"/>
   <path class="fil0" d="M3535 5366c36,-167 -308,-525 -383,-586 -269,-215 -298,-196 -657,-322 11,137 30,58 86,151 26,44 45,125 71,177 44,92 57,71 116,131 45,46 57,117 87,177 40,80 176,204 279,220 114,16 106,-51 219,-10 81,28 90,83 182,62z"/>
   <path class="fil0" d="M3611 5292c125,-102 196,-526 189,-724 -4,-109 -80,-259 -128,-340 -62,-108 -67,-243 -110,-345 -207,148 -268,821 -28,1258 36,67 28,107 77,151z"/>
   <path class="fil0" d="M3180 3602c239,-64 312,-159 347,-420 44,-333 -56,-374 113,-655 -153,-5 -158,91 -283,139 -165,63 -172,24 -243,202 -122,311 25,552 66,734z"/>
   <path class="fil0" d="M2907 1727c-58,48 -148,186 -186,253 -202,355 7,478 40,669 55,313 226,376 273,221 35,-113 30,-64 85,-130 78,-93 -52,-191 -64,-319 -6,-75 23,-118 3,-185 -24,-85 -39,-42 -48,-174 -7,-116 -84,-173 -103,-335z"/>
   <path class="fil0" d="M9849 5266c261,2 463,-176 541,-351 57,-128 60,-192 141,-304 53,-73 161,-175 131,-315 -46,15 -72,47 -119,79 -57,40 -91,50 -151,80 -286,148 -287,147 -469,423 -81,124 -95,219 -74,388z"/>
   <path class="fil0" d="M9653 5330c33,-89 53,-210 97,-297 47,-94 116,-148 136,-259 21,-116 -26,-228 -71,-306 -47,-82 -107,-197 -168,-244 20,427 -131,356 -238,601 -37,85 -91,256 -47,359 20,49 79,57 134,81 63,29 90,47 157,65z"/>
   <path class="fil0" d="M10374 2855c77,-256 -76,-356 -134,-678 -39,-219 -156,-397 -364,-479 13,256 -61,575 56,755 35,53 43,70 87,112 65,64 59,38 146,69 85,30 87,161 209,221z"/>
   <path class="fil0" d="M10531 2890c59,-31 45,-28 99,-110 155,-242 258,-508 82,-777 -52,-79 -110,-185 -163,-247 -14,64 18,43 -23,127 -115,239 -216,174 -175,400 20,111 66,196 86,308 21,119 68,187 94,299z"/>
   <path class="fil0" d="M10284 3737c147,-359 223,-701 -90,-952 -94,-76 -140,-124 -286,-146 55,99 83,65 119,283 29,178 -140,219 78,612 47,86 116,136 179,203z"/>
   <path class="fil0" d="M9382 428c16,94 112,239 50,527 -40,182 84,269 193,404 175,214 306,239 241,-12 -27,-107 95,-323 -239,-733 -76,-93 -107,-147 -245,-186z"/>
   <path class="fil0" d="M10443 3921c108,-61 195,-74 231,-206 42,-151 20,-209 104,-341 84,-130 115,-136 74,-339 -28,-143 -6,-295 -21,-447l-150 292c-63,103 -147,147 -180,282 -34,144 -1,267 -52,410 -44,121 -50,297 -6,349z"/>
   <path class="fil0" d="M3340 4809c5,-271 -55,-470 -209,-618 -201,-193 -150,-98 -238,-174 -66,-56 -137,-190 -208,-224l20 395c17,121 91,213 154,275 94,94 343,281 481,346z"/>
   <path class="fil0" d="M9897 3484c0,151 62,135 -10,301 -102,238 -96,345 22,605 38,82 73,261 177,173 49,-41 103,-185 114,-265 20,-147 -30,-220 -37,-342 -4,-76 19,-89 4,-153 -8,-29 -44,-110 -58,-141 -48,-107 -103,-131 -212,-178z"/>
   <path class="fil0" d="M10307 1994c144,-55 138,-446 44,-553 -119,-135 -183,-348 -374,-394 35,364 -58,476 4,599 39,76 103,128 165,165 162,95 59,133 161,183z"/>
   <path class="fil0" d="M3182 2611c141,-20 434,-327 430,-616 -1,-123 57,-193 32,-277l-206 154c-143,95 -312,244 -290,436 8,67 32,74 31,146 -1,67 -5,91 3,157z"/>
   <path class="fil0" d="M4658 0l-104 0c-293,192 -450,-1 -558,606 122,-16 301,58 461,-156 98,-132 147,-274 239,-414l-38 -36z"/>
   <path class="fil0" d="M3120 1957c86,1 49,-13 103,-52 108,-80 182,57 284,-245 66,-193 90,-397 64,-614l-318 393c-86,109 -245,332 -133,518z"/>
   <path class="fil0" d="M5768 7380c222,47 384,78 539,-83 100,-104 109,-61 242,-40 357,56 58,-457 -229,-227 -62,50 -13,53 -101,79 -206,61 -440,23 -451,271z"/>
   <path class="fil0" d="M9290 711c6,-120 80,-147 35,-238 -67,-134 -140,-196 -217,-280 -42,-46 -39,-44 -87,-78 -60,-44 -145,-89 -251,-85 -127,5 -4,68 25,179 37,141 14,136 94,236 91,114 189,258 401,266z"/>
   <path class="fil0" d="M7423 2159l183 5c7,96 -62,51 -68,162 66,40 114,51 166,96 50,43 66,123 129,153 77,-15 66,-40 108,-92 45,-56 55,-32 95,-104 44,-80 101,-218 79,-303 -109,-29 -169,55 -360,15 -130,-27 -290,-54 -332,68z"/>
   <path class="fil0" d="M3094 1484c4,-3 9,-11 10,-8l28 -26c152,-152 221,-99 232,-230 11,-130 -12,-101 42,-221 31,-69 47,-154 7,-225 -45,25 -73,122 -114,167 -153,168 -149,91 -237,341 -43,123 -30,118 32,202z"/>
   <path class="fil0" d="M7304 7426c-26,-127 -152,-109 -245,-169 -44,-28 -42,-67 -111,-90 -194,-67 -179,240 32,300 53,15 121,17 178,15 89,-3 98,-18 146,-56z"/>
   <path class="fil0" d="M10307 4038c-5,33 -4,272 18,296 46,54 139,36 175,-34 52,-101 -1,-168 -12,-247 67,-31 112,-69 127,-160 -91,11 -244,105 -308,145z"/>
   <path class="fil0" d="M6439 8849l180 9c37,-51 82,-99 127,-149 44,-51 104,-89 133,-148 -472,0 -256,-12 -440,288z"/>
   <path class="fil1" d="M13482 8906c-68,-277 326,-339 369,-96 46,260 -309,339 -369,96zm160 -292c-277,23 -286,436 -18,474 361,51 365,-502 18,-474z"/>
   <path class="fil2" d="M13623 8844l0 -91c130,-4 148,87 0,91zm-46 144c74,-2 41,-12 49,-110 60,4 55,-7 78,47 36,84 -25,60 64,64 -13,-69 -18,-88 -46,-135 30,-7 43,-39 42,-59 -3,-52 -53,-77 -187,-68l0 261z"/>
   <path class="fil0" d="M3248 4187c66,0 76,-22 99,-81 20,-52 41,-130 -16,-142 -85,-19 -172,105 -83,223z"/>
   <path class="fil1" d="M6084 2758c53,37 110,78 193,73 -7,-90 -29,-138 -109,-164 -3,3 -8,4 -9,10 -1,4 -29,64 -75,81z"/>
   <path class="fil1" d="M7800 6414c50,-58 13,-177 -3,-260 -61,88 -72,198 3,260z"/>
   <path class="fil0" d="M8326 5473c10,-93 -38,-160 -126,-160 -7,93 53,149 126,160z"/>
   <line class="fil3" x1="6844" y1="2375" x2="6844" y2="2375"/>
  </g>
 </g>
</svg>
