<?xml version="1.0" encoding="UTF-8"?>
<!DOCTYPE svg PUBLIC "-//W3C//DTD SVG 1.0//EN" "http://www.w3.org/TR/2001/REC-SVG-20010904/DTD/svg10.dtd">
<!-- Creator: CorelDRAW X8 -->
<svg xmlns="http://www.w3.org/2000/svg" xml:space="preserve" width="1682px" height="400px" version="1.0" style="shape-rendering:geometricPrecision; text-rendering:geometricPrecision; image-rendering:optimizeQuality; fill-rule:evenodd; clip-rule:evenodd"
viewBox="0 0 882 210"
 xmlns:xlink="http://www.w3.org/1999/xlink">
 <defs>
  <style type="text/css">
   <![CDATA[
    .fil0 {fill:#E30240}
   ]]>
  </style>
 </defs>
 <g id="Capa_x0020_1">
  <metadata id="CorelCorpID_0Corel-Layer"/>
  <path class="fil0" d="M790 24c0,41 -2,36 14,63 11,17 21,33 30,50l-57 0c4,-8 7,-10 11,-17 14,-20 14,-16 3,-33 -3,-6 -5,-11 -10,-14 -7,4 -12,15 -17,22 -4,6 -14,21 -18,24l0 -68c0,-21 3,-18 -29,-18 -11,0 -6,37 -6,57 -10,-7 -45,-57 -53,-57l-27 0 0 121 36 0 0 -50c7,4 11,11 18,17l25 28c8,7 5,3 11,6 1,0 1,1 2,1 0,0 0,0 1,1 0,0 1,1 1,1 0,0 0,1 1,1 2,4 2,13 16,13l123 0c8,0 14,-4 16,-10 4,-12 -15,-37 -25,-55 -16,-30 -35,-48 -35,-78 0,-8 4,-7 11,-7l0 -13 -53 0c-4,17 3,12 11,15zm-633 185l6 -28 5 0 -5 23 15 0 -1 5 -20 0zm63 -6l-11 0 -3 6 -6 0 16 -28 6 0 5 28 -6 0 -1 -6zm0 -5l-2 -11 -6 11 8 0zm32 11l6 -28 10 0c2,0 3,0 4,0 1,0 2,0 3,1 1,1 2,1 3,2 0,1 0,2 0,3 0,2 0,3 -1,5 -1,1 -2,2 -4,2 1,1 3,1 3,2 1,1 2,2 2,4 0,1 -1,3 -2,4 -1,2 -2,3 -4,4 -2,0 -4,1 -7,1l-13 0zm9 -17l5 0c2,0 3,0 4,0 1,-1 2,-1 2,-2 0,0 1,-1 1,-2 0,-1 -1,-1 -1,-2 0,0 -1,0 -2,0 0,-1 -1,-1 -3,-1l-4 0 -2 7zm-2 12l5 0c3,0 4,0 5,0 1,-1 1,-1 2,-2 0,0 1,-1 1,-2 0,-1 -1,-2 -1,-2 -1,-1 -2,-1 -4,-1l-7 0 -1 7zm45 -6c0,-2 0,-4 1,-6 0,-2 1,-4 3,-6 1,-2 3,-3 5,-4 2,-1 4,-2 7,-2 3,0 6,1 8,3 2,3 3,5 3,9 0,3 -1,6 -2,9 -1,2 -3,5 -6,6 -2,2 -5,2 -8,2 -2,0 -4,0 -6,-2 -2,-1 -3,-2 -4,-4 -1,-2 -1,-3 -1,-5zm6 0c0,2 0,3 1,4 2,2 3,2 5,2 2,0 3,0 4,-1 2,-1 3,-3 4,-5 1,-2 1,-4 1,-6 0,-2 0,-4 -1,-5 -2,-1 -3,-2 -5,-2 -3,0 -5,1 -7,4 -2,3 -2,5 -2,9zm50 11l-6 0 6 -28 13 0c2,0 3,0 5,0 1,1 2,2 3,3 0,1 1,2 1,4 0,2 -1,4 -2,6 -2,1 -4,2 -7,3 1,0 1,1 2,2 1,3 3,6 4,10l-6 0c0,-2 -1,-4 -3,-8 -1,-1 -1,-3 -2,-3 -1,-1 -2,-1 -3,-1l-2 0 -3 12zm3 -16l3 0c4,0 6,0 7,-1 1,0 1,-1 2,-1 1,-1 1,-2 1,-3 0,-1 -1,-2 -1,-2 -1,0 -2,-1 -4,-1l-6 0 -2 8zm60 10l-12 0 -3 6 -6 0 16 -28 6 0 5 28 -5 0 -1 -6zm-1 -5l-2 -11 -6 11 8 0zm41 11l-5 0 5 -24 -9 0 1 -4 22 0 -1 4 -8 0 -5 24zm35 -11c0,-2 0,-4 1,-6 0,-2 1,-4 3,-6 1,-2 3,-3 5,-4 2,-1 4,-2 7,-2 3,0 6,1 8,3 2,3 3,5 3,9 0,3 0,6 -2,9 -1,2 -3,5 -5,6 -3,2 -6,2 -9,2 -2,0 -4,0 -6,-2 -2,-1 -3,-2 -4,-4 -1,-2 -1,-3 -1,-5zm6 0c0,2 0,3 1,4 2,2 3,2 5,2 2,0 3,0 5,-1 1,-1 2,-3 3,-5 1,-2 2,-4 2,-6 0,-2 -1,-4 -2,-5 -1,-1 -3,-2 -5,-2 -3,0 -5,1 -7,4 -1,3 -2,5 -2,9zm50 11l-6 0 6 -28 13 0c2,0 4,0 5,0 1,1 2,2 3,3 0,1 1,2 1,4 0,2 -1,4 -2,6 -2,1 -4,2 -7,3 1,0 2,1 2,2 2,3 3,6 5,10l-7 0c0,-2 -1,-4 -3,-8 0,-1 -1,-3 -2,-3 -1,-1 -2,-1 -3,-1l-2 0 -3 12zm4 -16l3 0c3,0 5,0 6,-1 1,0 2,-1 2,-1 1,-1 1,-2 1,-3 0,-1 0,-2 -1,-2 -1,0 -2,-1 -4,-1l-6 0 -1 8zm40 16l6 -28 6 0 -6 28 -6 0zm35 -11c0,-2 0,-4 0,-6 1,-2 2,-4 3,-6 2,-2 3,-3 5,-4 2,-1 5,-2 7,-2 4,0 7,1 9,3 2,3 3,5 3,9 0,3 -1,6 -2,9 -1,2 -3,5 -6,6 -2,2 -5,2 -8,2 -2,0 -5,0 -6,-2 -2,-1 -3,-2 -4,-4 -1,-2 -1,-3 -1,-5zm5 0c0,2 1,3 2,4 1,2 3,2 5,2 1,0 3,0 4,-1 2,-1 3,-3 4,-5 1,-2 1,-4 1,-6 0,-2 0,-4 -2,-5 -1,-1 -2,-2 -4,-2 -3,0 -5,1 -7,4 -2,3 -3,5 -3,9zm46 2l5 -1c0,2 1,3 1,4 1,1 3,1 5,1 2,0 3,0 4,-1 1,0 1,-1 1,-2 0,-1 0,-2 -1,-2 0,-1 -2,-1 -4,-2 -2,-1 -3,-2 -4,-3 -1,0 -2,-1 -3,-2 0,-1 -1,-2 -1,-4 0,-2 1,-4 3,-5 2,-2 4,-3 7,-3 4,0 6,1 8,2 2,2 3,4 3,7l-6 0c0,-1 0,-2 -1,-3 -1,-1 -2,-1 -4,-1 -1,0 -2,0 -3,1 -1,0 -1,1 -1,2 0,1 0,1 1,2 0,0 2,1 4,2 3,1 5,2 6,3 1,2 2,3 2,5 0,3 -1,5 -3,7 -2,1 -5,2 -8,2 -3,0 -5,0 -6,-1 -2,-1 -3,-2 -4,-3 -1,-2 -1,-3 -1,-5zm-143 -110c0,-39 46,-39 46,0 0,40 -46,40 -46,0zm-40 -2c0,32 25,64 55,64l16 0c29,0 55,-31 55,-62 0,-34 -29,-62 -62,-63 -33,-1 -64,29 -64,61zm-331 2c0,-39 46,-39 46,0 0,40 -46,39 -46,0zm-40 0c0,20 11,39 26,51 17,14 50,16 69,4 18,-11 31,-33 31,-59 0,-30 -33,-60 -64,-59 -32,1 -62,29 -62,63zm-86 -41l0 -44 0 -5 -44 0 0 4 0 150 44 0 0 -61 35 -1 0 118 47 0 0 -210 -1 0c-15,0 -30,0 -46,0l0 24c1,8 0,16 0,25l-35 0zm252 103l0 -95c14,0 20,4 20,18 0,13 -8,19 -16,24 11,22 27,36 40,55l40 0 10 -50c1,-1 1,-2 1,-2l2 -5c2,11 8,23 14,32 6,10 13,20 26,21 1,-6 14,-43 19,-48l9 52 40 0c-5,-19 -4,-34 -7,-56 -3,-19 -4,-41 -4,-63l-46 0c-3,12 -10,19 -14,33l-4 0c-1,-11 -11,-24 -18,-30 -7,-7 -7,-5 -19,-5 -9,0 -17,0 -25,0 0,57 -10,62 -11,84 -5,-4 -8,-10 -11,-15 5,-8 26,-30 10,-55 -7,-12 -18,-14 -32,-14l-60 0 0 121c6,0 12,0 18,1 16,0 13,1 18,-3z"/>
 </g>
</svg>
