<?xml version="1.0" encoding="UTF-8"?>
<!DOCTYPE svg PUBLIC "-//W3C//DTD SVG 1.0//EN" "http://www.w3.org/TR/2001/REC-SVG-20010904/DTD/svg10.dtd">
<!-- Creator: CorelDRAW X8 -->
<svg xmlns="http://www.w3.org/2000/svg" xml:space="preserve" width="938px" height="400px" version="1.0" style="shape-rendering:geometricPrecision; text-rendering:geometricPrecision; image-rendering:optimizeQuality; fill-rule:evenodd; clip-rule:evenodd" viewBox="0 0 2050 874" xmlns:xlink="http://www.w3.org/1999/xlink">
 <defs>
  <style type="text/css">
   <![CDATA[
    .fil0 {fill:#013871}
    .fil1 {fill:#237BC3}
   ]]>
  </style>
 </defs>
 <g id="Capa_x0020_1">
  <metadata id="CorelCorpID_0Corel-Layer"/>
  <g id="_2486064464288">
   <path class="fil0" d="M1233 386l0 234 40 0 0 -216c17,-10 52,-12 71,-6 23,9 28,26 28,55 0,55 -2,114 0,167l40 0c2,-50 0,-105 0,-156 0,-35 0,-66 -34,-84 -11,-6 -17,-6 -29,-10 -36,-3 -89,0 -116,16z"/>
   <path class="fil0" d="M420 374c-14,1 -25,7 -37,11l0 235 40 0 0 -216c17,-9 51,-13 71,-6 22,8 28,27 28,55 0,45 -2,126 0,167l40 0c0,-39 0,-79 0,-118 0,-22 2,-66 -3,-84 -2,-4 -3,-8 -5,-11 -1,-2 -2,-3 -3,-5 -2,-4 -1,-1 -2,-5 -8,-5 -9,-11 -24,-18 -9,-5 -18,-7 -30,-9 -20,-3 -56,-2 -75,4z"/>
   <path class="fil0" d="M279 593c-16,10 -104,26 -99,-49 3,-49 57,-61 99,-64l0 113zm-94 -218c-8,2 -22,7 -29,12l9 23c10,-2 41,-22 81,-13 31,7 38,38 33,62 -39,6 -70,9 -100,26 -24,15 -45,43 -36,84 7,34 33,50 70,55 37,4 77,-2 105,-17 0,-45 0,-90 0,-136 0,-22 1,-41 -8,-60 -5,-14 -18,-29 -33,-34 -27,-11 -63,-11 -92,-2z"/>
   <path class="fil0" d="M1020 490c1,-45 12,-89 53,-95 48,-7 68,33 65,78l-118 17zm-32 49c7,20 7,30 19,46 49,66 142,30 149,30 2,-2 -1,0 3,-2l9 -5 -10 -26c-6,2 -13,6 -21,8 -39,11 -84,8 -103,-31 -6,-11 -13,-33 -12,-47l155 -23c1,-38 -7,-72 -27,-94 -46,-52 -191,-42 -162,144z"/>
   <path class="fil0" d="M885 582c-10,10 -22,14 -41,13 -18,-2 -27,-7 -40,-14 -2,3 -10,21 -11,26 14,7 20,12 39,15 30,5 38,-1 49,0 3,-3 8,-3 11,-5 4,-2 7,-3 11,-5 18,-11 33,-30 36,-54 4,-40 -20,-60 -46,-73 -14,-7 -28,-11 -40,-20 -27,-21 -18,-66 21,-69 20,-2 33,5 46,13 3,-4 9,-19 10,-25 -6,-2 -12,-7 -21,-10 -23,-8 -52,-9 -73,2 -24,13 -44,41 -35,79 9,33 40,43 65,54 43,19 36,58 19,73z"/>
   <path class="fil0" d="M640 387c-19,17 -30,51 -14,81 13,25 38,30 65,44 44,22 31,87 -27,83 -27,-2 -33,-12 -42,-14l-10 27c16,7 17,11 42,14 33,5 60,0 84,-22 11,-10 13,-19 19,-35 8,-76 -51,-76 -83,-99 -31,-21 -20,-76 33,-70 15,2 21,7 32,13 3,-4 10,-20 11,-25 -20,-8 -28,-16 -57,-16 -27,0 -37,8 -53,19z"/>
   <path class="fil0" d="M0 695l0 27c30,-4 49,-19 62,-36 15,-20 21,-43 24,-72l0 -241 -41 0c-1,30 0,62 0,92 0,31 0,62 0,92 0,44 9,122 -45,138z"/>
   <path class="fil1" d="M2025 234c8,-2 17,-1 25,-1l0 24c-7,14 -3,14 -16,22 -7,5 -17,8 -27,12 -11,3 -49,18 -58,18 -3,4 -35,14 -42,16 -9,4 -29,8 -37,13 0,32 2,62 -1,94 -1,23 -6,62 -12,83 -4,23 -15,52 -23,73 -9,24 -19,43 -30,65 -4,8 -21,39 -26,42 -2,6 -14,22 -19,28l-4 4c-1,2 1,-1 -2,3 -8,11 -40,45 -48,51l-12 11c-8,7 -42,34 -53,38 -3,5 -48,25 -56,28 -6,3 -15,6 -23,8 -4,1 -7,2 -12,3 -4,1 -8,2 -12,5l-4 0c2,-6 38,-34 45,-48 4,-1 18,-18 22,-23 7,-9 13,-17 21,-27 13,-17 25,-37 37,-57 6,-11 11,-20 16,-31 3,-6 14,-31 15,-33l2 -7c5,-6 20,-58 23,-70 3,-13 6,-26 9,-39 2,-14 3,-28 6,-42 2,-35 5,-65 3,-101 -1,-16 -3,-33 -6,-48 -2,-11 -10,-36 -10,-44 -3,-2 -12,-32 -17,-42l-20 -40c12,1 85,1 90,4 8,-2 76,0 80,3 8,-2 32,-2 37,1 8,-2 136,2 139,4zm-201 -130c15,3 24,10 33,18 11,14 26,30 30,52 -4,3 -13,4 -18,2l-2 1c0,0 0,1 -1,1 -1,0 -2,0 -3,0 -2,1 -5,1 -7,1l-45 2c-19,0 -38,0 -57,-2l-49 -4 -20 -2 -43 -7 -1 -1c-14,-2 -27,-7 -40,-10 -10,-4 -20,-7 -29,-12 -9,-3 -19,-9 -27,-12 -33,-18 -52,-31 -76,-52 -12,-11 -48,-52 -48,-79 3,2 25,26 70,46 13,6 26,12 41,17 7,3 15,5 22,7l17 5c5,2 2,0 5,2 5,0 38,8 43,10 7,0 27,3 30,6 0,0 0,0 1,0 4,0 69,6 71,7 3,0 7,0 10,0 1,0 2,0 3,0 5,1 1,0 3,2 7,-2 83,1 87,2z"/>
  </g>
 </g>
</svg>
