<?xml version="1.0" encoding="UTF-8"?>
<!DOCTYPE svg PUBLIC "-//W3C//DTD SVG 1.0//EN" "http://www.w3.org/TR/2001/REC-SVG-20010904/DTD/svg10.dtd">
<!-- Creator: CorelDRAW X8 -->
<svg xmlns="http://www.w3.org/2000/svg" xml:space="preserve" width="2212px" height="400px" version="1.0" style="shape-rendering:geometricPrecision; text-rendering:geometricPrecision; image-rendering:optimizeQuality; fill-rule:evenodd; clip-rule:evenodd"
viewBox="0 0 7140 1291"
 xmlns:xlink="http://www.w3.org/1999/xlink">
 <defs>
  <style type="text/css">
   <![CDATA[
    .fil0 {fill:#E82938}
   ]]>
  </style>
 </defs>
 <g id="Capa_x0020_1">
  <metadata id="CorelCorpID_0Corel-Layer"/>
  <path class="fil0" d="M255 736l28 139c45,434 -278,446 -144,74 33,-91 76,-145 116,-213zm3813 3c56,108 37,537 -117,469 -67,-29 -24,-201 -2,-261 22,-60 81,-178 119,-208zm2582 -274c4,83 -9,320 26,340 81,48 162,-285 232,-322 31,80 -18,280 44,327 48,35 100,-21 118,-44 22,-29 62,-76 70,-122 -31,9 -12,-3 -51,50 -13,17 -31,38 -48,44 -24,-18 -15,1 -21,-42l6 -140c8,-218 -82,-209 -169,-69 -33,54 -61,132 -94,142 -6,-94 21,-166 -41,-228 -44,-5 -78,3 -97,30 -44,16 -66,42 -115,54 -19,-62 -131,-110 -162,-44 -32,64 26,111 141,98 32,195 -120,226 -184,159 -117,-123 32,-281 35,-298 -58,-19 -135,18 -183,46 -57,32 -102,80 -145,101 -14,-27 -31,-47 -46,-77l-26 -72c-7,-14 -2,-6 -11,-15 -38,34 -105,201 -148,279 -16,28 -34,74 -68,59 -34,-65 59,-376 -87,-321 -87,32 -116,229 -174,255 -28,-49 3,-155 -16,-216 -26,-82 -88,-36 -120,6 -43,56 -129,242 -183,263 -39,-78 35,-225 -38,-305 -69,-12 -104,50 -130,95 -29,52 -58,126 -91,142 -11,-55 -9,-117 -8,-176 2,-62 33,-69 63,-118 186,-311 -37,-438 -120,-203 -45,125 -13,206 -32,322 -33,27 -72,48 -123,48 -15,-38 -32,-63 -58,-81 -89,-64 -169,34 -92,92 31,23 76,16 107,32 46,80 -79,251 -184,144 -37,-38 -54,-95 -46,-161 11,-89 60,-84 67,-130 -128,8 -239,149 -297,187 -24,-49 -29,-229 -30,-295 -2,-53 -1,-106 5,-157 6,-43 30,-106 25,-138 -133,-5 -361,187 -338,459 9,97 37,126 64,192l-162 22c-3,-68 -6,-141 -39,-196 -31,5 -49,12 -70,32 13,47 47,51 47,127 -47,-61 -280,-145 -261,21 81,84 123,72 256,65 4,28 9,53 25,73 27,-20 30,-43 37,-85 155,-52 209,-35 290,70 -54,94 -124,202 -134,339 -25,320 308,144 298,-347 -1,-39 -6,-74 -9,-111 -5,-47 14,-52 40,-75 34,-31 94,-91 139,-109 -31,69 -60,96 -33,194 56,197 367,209 360,-130 58,-8 79,-32 121,-42 2,57 -8,261 25,293 74,42 132,-281 216,-307 36,90 -32,253 50,312 59,23 123,-101 147,-142 28,-49 75,-161 128,-175 15,99 -28,235 20,316 67,9 95,-76 132,-149 26,-52 67,-160 107,-171 15,92 -29,269 40,315 67,35 124,-56 148,-96 37,-62 64,-148 105,-162 84,102 25,81 -5,173 -44,135 173,136 150,-66 -7,-58 -30,-59 11,-95 31,-28 123,-92 181,-104 -13,26 -12,20 -32,39 -87,86 -56,266 80,315 188,69 260,-115 248,-278 31,-23 75,-57 117,-58zm-715 299c-18,-40 -3,-66 19,-98 19,26 27,110 -19,98zm-2303 -68c-222,20 -166,-157 -50,-74 25,18 42,45 50,74zm2835 -192l-51 0c-67,-57 36,-78 51,0zm-1936 -39c48,-6 55,9 67,45 -48,-4 -65,-1 -67,-45zm339 -92c-7,-54 -3,-134 2,-188 8,-88 14,-129 69,-123 32,102 -15,250 -71,311zm-851 382c-84,-68 -138,-256 -122,-405 14,-127 94,-294 217,-318 -3,59 -35,117 -52,172 -18,57 -31,122 -34,187 -13,241 88,281 -9,364zm-1874 14c-59,-17 -14,-88 4,-107 5,21 9,36 9,58 0,34 -13,46 -13,49zm443 -310c44,-10 64,10 71,45 -48,3 -77,6 -71,-45zm-1867 10c44,-14 56,4 68,42 -41,-5 -65,-3 -68,-42zm338 -97c-3,-62 -2,-127 4,-187 7,-88 12,-124 69,-126 30,107 -11,250 -73,313zm-841 385c-93,-54 -146,-272 -130,-409 16,-132 109,-308 213,-315 10,97 -128,202 -65,559 3,21 17,81 17,97 -1,28 -22,37 -35,68zm3089 -59c17,-26 17,-20 22,-54 -56,26 -47,86 -111,96 -21,-93 46,-362 -71,-350 -88,10 -135,212 -192,240 -9,-73 19,-211 -50,-229 -57,-16 -139,65 -195,83 -24,-25 -42,-51 -77,-65 -103,-40 -135,66 -63,112 43,26 70,5 110,14 31,140 -93,245 -185,151 -38,-40 -50,-96 -37,-162 14,-75 68,-93 68,-135 -111,-40 -264,115 -318,146 -54,-50 -50,-99 -83,-161 -37,13 -85,140 -105,182 -25,53 -67,159 -116,161 -30,-74 56,-375 -84,-329 -60,20 -106,140 -133,198 -33,72 -31,54 -48,57 -20,-50 9,-150 -13,-216 -28,-78 -93,-30 -121,9 -57,81 -133,253 -183,262 -19,-52 -5,-114 -4,-169 1,-26 1,-53 -3,-78 -6,-35 -12,-43 -29,-55 -69,-40 -142,109 -169,162 -22,42 -18,52 -46,71 -24,-38 -14,-115 -14,-166 1,-68 28,-74 58,-120 199,-309 -33,-449 -115,-214 -35,101 -30,214 -28,327 -38,17 -66,46 -123,46 -31,-38 -19,-51 -59,-78 -120,-80 -221,99 14,117 32,132 -107,246 -193,144 -31,-36 -49,-101 -38,-162 12,-74 57,-92 67,-122 -61,-2 -130,45 -167,73 -63,47 -111,102 -136,115 -10,-103 -24,-199 -26,-307 -2,-142 35,-269 30,-292 -255,51 -421,341 -301,607 26,57 65,98 109,138 7,8 17,15 21,20 15,14 7,2 21,21 -48,102 -90,129 -124,273 -25,106 -5,304 123,205 149,-116 175,-389 153,-626 35,-43 130,-134 183,-156 -30,65 -66,95 -34,200 19,62 61,109 123,124 169,40 243,-103 236,-256l119 -45c19,87 -12,266 27,291 80,52 135,-298 218,-302 31,97 -36,257 54,311 114,2 179,-284 263,-317 47,77 -40,246 33,315 48,21 106,-108 126,-147 22,-45 62,-158 105,-172 34,86 -36,217 41,317 80,17 116,-47 147,-98 33,-55 59,-113 91,-163 34,11 71,63 49,104 -21,37 -64,82 -33,135 37,58 107,19 131,-28 31,-62 9,-117 -1,-182 47,-27 132,-113 206,-121 -39,48 -88,83 -78,189 17,171 229,236 325,113 47,-60 55,-137 50,-227 24,-19 81,-61 114,-54 30,105 -27,263 29,340 73,9 75,-58 126,-152 25,-47 69,-151 104,-172 25,39 13,128 12,178 -3,257 132,150 198,35z"/>
 </g>
</svg>
