<?xml version="1.0" encoding="UTF-8"?>
<!DOCTYPE svg PUBLIC "-//W3C//DTD SVG 1.0//EN" "http://www.w3.org/TR/2001/REC-SVG-20010904/DTD/svg10.dtd">
<!-- Creator: CorelDRAW X8 -->
<svg xmlns="http://www.w3.org/2000/svg" xml:space="preserve" width="860px" height="400px" version="1.0" style="shape-rendering:geometricPrecision; text-rendering:geometricPrecision; image-rendering:optimizeQuality; fill-rule:evenodd; clip-rule:evenodd"
viewBox="0 0 310 144"
 xmlns:xlink="http://www.w3.org/1999/xlink">
 <defs>
  <style type="text/css">
   <![CDATA[
    .fil0 {fill:#0087BE}
    .fil1 {fill:#060709}
    .fil2 {fill:#07080A}
   ]]>
  </style>
 </defs>
 <g id="Capa_x0020_1">
  <metadata id="CorelCorpID_0Corel-Layer"/>
  <g id="_2485999385920">
   <path class="fil0" d="M130 46l24 -25c3,1 4,4 6,6 2,2 4,4 6,6l12 13c-1,2 -21,23 -24,25 -2,-1 -4,-4 -6,-6 -3,-3 -16,-17 -18,-19zm32 -33l4 -5 36 38c-2,3 -6,6 -9,9l-9 10c-3,3 -15,17 -18,19l-4 -4c2,-3 30,-30 32,-34 -3,-3 -5,-6 -8,-8 -1,-2 -2,-3 -4,-5 -4,-4 -5,-4 -12,-12l-8 -8zm-36 46c5,4 8,8 12,12l12 13c9,10 8,8 16,8 6,0 7,1 10,-2 2,-2 4,-4 6,-6l24 -25c3,-3 10,-10 12,-13 -5,-4 -8,-9 -13,-13l-23 -24c-9,-10 -7,-9 -16,-9 -6,0 -7,-1 -10,3 -6,7 -12,12 -18,18l-12 12c-3,5 -7,9 -11,13l11 13z"/>
   <path class="fil0" d="M90 46c3,5 18,18 23,23 2,3 20,23 23,23l14 0c-1,-2 -19,-20 -22,-23 -4,-4 -7,-8 -11,-11 -3,-4 -8,-8 -11,-12 2,-2 4,-4 5,-6 2,-2 4,-3 6,-5 4,-4 7,-8 11,-12 2,-2 3,-3 6,-5l16 -18c-4,0 -9,0 -13,0 -4,0 -4,1 -8,6l-19 20c-2,2 -4,4 -7,6 -4,4 -8,10 -13,14z"/>
   <path class="fil1" d="M115 121c2,0 2,0 3,2 0,1 1,2 1,3l10 18 9 -1c2,-3 5,-8 7,-11 1,-3 4,-10 7,-11l1 2c0,4 -1,16 0,21l10 -1 0 -30 -19 0 -10 19c-4,-3 -8,-17 -11,-19l-19 0 0 31 11 0 0 -23z"/>
   <path class="fil1" d="M202 121c1,2 5,14 -3,15 -4,0 -18,1 -20,-1 -2,-2 -5,-14 2,-15 6,0 17,0 21,1zm-35 12c0,7 2,10 9,11 7,0 13,0 20,0 18,0 19,-2 18,-21 -1,-8 -2,-10 -10,-11 -6,0 -13,0 -19,0 -18,0 -20,2 -18,21z"/>
   <path class="fil1" d="M228 121c3,0 2,0 4,2l11 15c6,7 1,6 23,6l0 -31 -11 0 1 23c-3,-1 -2,-1 -4,-3 -3,-4 -15,-20 -16,-20l-18 0 0 31 11 0 -1 -23z"/>
   <path class="fil1" d="M79 120c9,0 11,-1 11,10 0,8 -7,6 -14,6 -8,0 -13,1 -13,-8 0,-10 3,-8 16,-8zm21 16c1,-4 1,-15 -1,-18 -1,-6 -8,-6 -14,-6 -7,0 -14,0 -20,0 -7,1 -10,1 -12,8 0,4 0,15 1,19 2,5 9,5 15,5 6,0 13,0 19,0 7,-1 11,-1 12,-8z"/>
   <polygon class="fil1" points="268,121 283,121 284,144 295,143 295,121 310,121 310,113 268,113 "/>
   <polygon class="fil1" points="0,144 36,144 36,136 12,135 12,113 0,113 "/>
   <polygon class="fil2" points="38,144 49,143 49,113 38,113 "/>
  </g>
 </g>
</svg>
