<?xml version="1.0" encoding="UTF-8"?>
<!DOCTYPE svg PUBLIC "-//W3C//DTD SVG 1.0//EN" "http://www.w3.org/TR/2001/REC-SVG-20010904/DTD/svg10.dtd">
<!-- Creator: CorelDRAW X8 -->
<svg xmlns="http://www.w3.org/2000/svg" xml:space="preserve" width="2536px" height="400px" version="1.0" style="shape-rendering:geometricPrecision; text-rendering:geometricPrecision; image-rendering:optimizeQuality; fill-rule:evenodd; clip-rule:evenodd"
viewBox="0 0 6373 1005"
 xmlns:xlink="http://www.w3.org/1999/xlink">
 <defs>
  <style type="text/css">
   <![CDATA[
    .fil0 {fill:#2CBDCC}
   ]]>
  </style>
 </defs>
 <g id="Capa_x0020_1">
  <metadata id="CorelCorpID_0Corel-Layer"/>
  <path class="fil0" d="M1916 992c26,-4 56,-1 83,-1 11,0 29,1 39,-1 22,-3 12,-7 25,-13 7,-62 1,-684 2,-807 1,-84 -34,-141 -104,-161 -32,-10 -96,-6 -131,-6 -74,0 -64,-10 -107,30 -112,101 -302,306 -429,365 -199,92 -441,75 -621,-61 -36,-27 -246,-226 -278,-256 -44,-44 -101,-77 -189,-78 -205,-1 -205,-16 -204,63 0,116 -5,747 0,798 8,72 70,125 143,127 153,4 126,7 126,-140 0,-72 -13,-195 19,-250 35,-57 99,-82 188,-56 150,44 302,260 451,348 68,40 139,40 208,0 76,-44 152,-123 218,-181 69,-62 137,-138 233,-167 87,-26 154,-2 188,56 33,56 17,171 20,246 3,118 106,134 120,145zm2952 13c220,0 375,-126 418,-329 27,-127 5,-99 -141,-99 -145,0 -107,74 -164,132 -125,128 -370,-55 -401,-250 -16,-97 29,-168 98,-192 40,-14 87,-11 125,3 73,26 127,107 206,41l112 -110c17,-20 3,-33 -12,-47 -21,-18 -57,-45 -85,-63 -170,-105 -274,-88 -504,-88 -248,0 -212,-16 -212,84 0,99 0,197 0,296 0,175 40,310 158,432 81,85 220,190 402,190zm1060 -148l12 3c71,18 350,169 420,126 15,-11 12,-13 12,-34 0,-39 2,-96 -5,-128 -25,-113 -121,-128 -195,-162 -86,-40 -179,-113 -93,-201 45,-47 242,-237 264,-270 21,-32 42,-98 19,-144 -22,-45 -72,-48 -136,-43 -102,8 -170,94 -216,141 -32,34 -339,347 -355,354 -5,-82 6,-335 -4,-383 -33,-157 -255,-113 -263,-102 -7,19 -7,948 0,967 30,27 129,3 161,-12 44,-20 77,-54 107,-85 32,-33 59,-67 123,-68 44,0 81,9 119,24l27 15c1,-1 2,1 3,2zm-2687 130c37,-3 68,9 115,-2 34,-9 61,-30 81,-50 48,-51 61,-111 60,-201 0,-87 0,-173 0,-260 0,-93 -18,-170 51,-209 62,-34 158,-27 225,-7 244,73 192,315 -63,245 -26,-7 -81,-34 -101,-20 -9,17 -7,118 -4,143 5,49 31,69 60,91 46,37 295,242 343,261 41,17 89,13 139,13 165,0 160,17 160,-61 0,-33 4,-35 -8,-56 0,0 -1,-1 -1,-2 0,0 -1,-1 -1,-2 -46,-11 -117,-62 -145,-84 -23,-18 -113,-84 -122,-99 101,-57 199,-121 188,-279 -16,-225 -306,-390 -522,-403 -52,-4 -439,-8 -456,4 -14,12 -9,25 -9,57l0 807c0,39 -4,88 10,114zm-1081 -474c27,113 46,170 107,252 50,66 116,124 199,166 105,54 175,60 305,60 111,0 263,8 365,-3 15,-46 15,-166 -35,-215 -79,-79 -335,-12 -463,-48 -72,-21 -121,-62 -155,-106 -77,-100 -113,-299 28,-350 68,-24 152,-8 208,23 45,24 118,85 138,120 -51,5 -182,2 -246,2 -28,0 -61,-6 -71,11 -21,49 27,115 47,137 82,87 198,65 323,65 32,0 64,0 96,0 40,0 65,-11 89,-12 1,-1 1,-3 2,-3 0,0 30,-32 38,-56 26,-73 -16,-186 -51,-248 -48,-86 -121,-160 -198,-210 -85,-55 -185,-95 -314,-95 -55,0 -388,-7 -408,5 -20,22 -9,85 -9,118 0,104 -5,301 5,387z"/>
 </g>
</svg>
