<?xml version="1.0" encoding="UTF-8"?>
<!DOCTYPE svg PUBLIC "-//W3C//DTD SVG 1.0//EN" "http://www.w3.org/TR/2001/REC-SVG-20010904/DTD/svg10.dtd">
<!-- Creator: CorelDRAW X8 -->
<svg xmlns="http://www.w3.org/2000/svg" xml:space="preserve" width="416px" height="400px" version="1.0" style="shape-rendering:geometricPrecision; text-rendering:geometricPrecision; image-rendering:optimizeQuality; fill-rule:evenodd; clip-rule:evenodd"
viewBox="0 0 187 180"
 xmlns:xlink="http://www.w3.org/1999/xlink">
 <defs>
  <style type="text/css">
   <![CDATA[
    .fil0 {fill:#0069B2}
   ]]>
  </style>
 </defs>
 <g id="Capa_x0020_1">
  <metadata id="CorelCorpID_0Corel-Layer"/>
  <path class="fil0" d="M24 42c1,-1 3,-1 5,-2l15 -7c6,-3 13,-7 19,-10 7,-3 14,-6 20,-9 2,-1 10,-5 10,-4l30 13c7,4 14,7 20,10 7,3 14,6 20,9 2,1 2,0 2,2 4,25 8,50 13,75 0,2 0,2 0,3l-23 28c-5,5 -11,12 -15,18 -3,3 -2,3 -4,3 -2,0 -3,0 -4,0l-81 0c-1,0 -1,0 -1,-1l-15 -17c-1,-2 -2,-3 -2,-4l-22 -25c-1,-1 -2,-2 -2,-3 1,-7 3,-14 4,-20l7 -39c1,-6 3,-15 4,-20zm122 62c3,-7 8,-14 11,-21 3,-5 2,-3 3,-9l-27 0 0 6c3,0 17,0 19,0 -1,1 -2,3 -3,4 -2,5 -5,10 -8,14 -2,5 -5,10 -7,15 -1,1 -1,4 -1,6l26 0 0 -6 -18 0 5 -9zm-66 -24l16 0 0 -6 -23 0 0 45 23 0 0 -6 -16 0 0 -15 16 0 0 -5c-2,0 -13,0 -16,0l0 -13zm28 39c0,-1 0,-37 0,-39 2,0 10,0 11,0 3,1 4,4 4,7 0,8 -7,9 -14,9 0,0 11,18 13,20l1 3c1,0 1,0 1,0l8 0 -13 -18c5,-1 7,-2 9,-5 4,-5 5,-22 -12,-22 -2,0 -13,0 -15,0l0 45 7 0zm-73 -25c0,-2 0,-8 0,-9 4,10 6,24 9,34l6 0 10 -34 0 34 7 0 0 -45 -9 0 -10 34 -7 -25c-1,-3 -2,-6 -3,-9l-9 0 0 45 6 0 0 -25zm106 86c3,-4 7,-9 10,-13 5,-6 11,-13 16,-19l15 -18c1,-2 2,-2 3,-4 0,0 1,-1 1,-1 1,-1 1,-1 1,-2 0,-3 -1,-7 -2,-10 -3,-19 -6,-39 -10,-59l-2 -17c-1,-1 -1,-1 -2,-1 -5,-3 -11,-5 -16,-7 -5,-3 -10,-5 -16,-8 -5,-2 -10,-5 -15,-7 -5,-2 -11,-5 -16,-7 -5,-2 -9,-4 -14,-6 -1,-1 -1,-1 -2,-1 -10,5 -20,10 -31,15 -5,2 -10,5 -15,7l-24 11c-1,1 -2,1 -4,2 -2,1 -2,1 -2,3 -5,28 -11,55 -15,82 -1,3 -1,4 0,5 1,1 2,2 2,3l24 28c1,1 2,2 3,3 3,4 7,9 10,13l6 8c1,0 2,0 3,0 31,0 61,0 92,0z"/>
 </g>
</svg>
