<?xml version="1.0" encoding="UTF-8"?>
<!DOCTYPE svg PUBLIC "-//W3C//DTD SVG 1.0//EN" "http://www.w3.org/TR/2001/REC-SVG-20010904/DTD/svg10.dtd">
<!-- Creator: CorelDRAW X8 -->
<svg xmlns="http://www.w3.org/2000/svg" xml:space="preserve" width="2293px" height="400px" version="1.0" style="shape-rendering:geometricPrecision; text-rendering:geometricPrecision; image-rendering:optimizeQuality; fill-rule:evenodd; clip-rule:evenodd" viewBox="0 0 6863 1197" xmlns:xlink="http://www.w3.org/1999/xlink">
 <defs>
  <style type="text/css">
   <![CDATA[
    .fil2 {fill:#DA8B02;fill-rule:nonzero}
    .fil1 {fill:#E23E28;fill-rule:nonzero}
    .fil0 {fill:#00839B;fill-rule:nonzero}
   ]]>
  </style>
 </defs>
 <g id="Capa_x0020_1">
  <metadata id="CorelCorpID_0Corel-Layer"/>
  <g id="_2486081837808">
   <path class="fil0" d="M1752 1032c2,63 12,85 29,90 14,5 29,6 42,6 9,0 14,2 14,7 0,6 -7,8 -19,8 -53,0 -85,-3 -101,-3 -7,0 -46,3 -88,3 -11,0 -18,-1 -18,-8 0,-5 5,-7 13,-7 10,0 25,-1 37,-4 21,-6 24,-30 25,-101l7 -484c0,-16 3,-28 11,-28 9,0 16,11 30,25 10,11 134,144 254,263 55,55 166,173 179,186l4 0 -8 -367c-1,-50 -8,-65 -27,-73 -13,-5 -32,-5 -44,-5 -10,0 -13,-3 -13,-8 0,-6 9,-7 21,-7 43,0 82,2 99,2 9,0 40,-2 80,-2 11,0 19,1 19,7 0,5 -5,8 -15,8 -8,0 -14,0 -24,2 -23,7 -29,24 -30,69l-9 516c0,18 -4,26 -11,26 -9,0 -19,-9 -28,-18 -51,-49 -156,-156 -241,-241 -89,-88 -180,-190 -194,-206l-3 0 9 344z"/>
   <path class="fil0" d="M3007 849c0,-183 -105,-296 -240,-296 -94,0 -201,52 -201,256 0,170 94,304 251,304 58,0 190,-27 190,-264zm-553 -15c0,-140 92,-320 337,-320 204,0 330,118 330,305 0,187 -130,335 -338,335 -235,0 -329,-175 -329,-320z"/>
   <path class="fil0" d="M3294 605c-19,-45 -33,-54 -62,-62 -12,-3 -25,-3 -32,-3 -7,0 -10,-3 -10,-8 0,-6 9,-7 21,-7 44,0 90,2 119,2 20,0 60,-2 101,-2 9,0 18,2 18,7 0,6 -5,8 -12,8 -13,0 -25,0 -32,5 -6,4 -8,10 -8,17 0,11 7,34 19,63l140 372 4 0c35,-90 141,-354 161,-407 4,-11 7,-23 7,-31 0,-6 -3,-13 -11,-15 -9,-4 -22,-4 -32,-4 -8,0 -14,-1 -14,-7 0,-6 7,-8 23,-8 41,0 75,2 86,2 13,0 52,-2 76,-2 11,0 18,2 18,7 0,6 -5,8 -14,8 -8,0 -25,0 -40,9 -10,8 -22,22 -45,74 -31,77 -53,121 -98,222 -52,119 -90,208 -108,249 -22,47 -26,60 -38,60 -11,0 -15,-11 -31,-50l-206 -499z"/>
   <path class="fil0" d="M4217 889c4,0 5,-3 4,-5l-73 -202c-1,-3 -2,-7 -4,-7 -3,0 -5,4 -5,7l-76 201c0,3 0,6 4,6l150 0zm-167 41c-4,0 -5,1 -7,6l-44 117c-8,20 -12,40 -12,50 0,15 7,25 32,25l13 0c9,0 12,2 12,7 0,6 -5,8 -14,8 -26,0 -61,-3 -87,-3 -9,0 -54,3 -96,3 -11,0 -16,-2 -16,-8 0,-5 4,-7 10,-7 7,0 19,-1 25,-1 38,-5 54,-33 70,-74l205 -513c10,-24 15,-33 23,-33 7,0 12,7 20,26 20,45 151,379 203,503 31,73 55,85 72,89 12,2 25,3 34,3 7,0 11,1 11,7 0,6 -7,8 -38,8 -29,0 -89,0 -154,-2 -15,-1 -25,-1 -25,-6 0,-5 4,-7 12,-8 6,-1 11,-9 7,-18l-65 -174c-2,-4 -4,-5 -8,-5l-183 0z"/>
   <path class="fil0" d="M4793 827c0,9 2,12 7,14 18,6 42,8 63,8 32,0 43,-3 58,-13 24,-18 48,-56 48,-123 0,-116 -77,-150 -125,-150 -21,0 -35,1 -44,4 -5,1 -7,5 -7,11l0 249zm-96 -65c0,-124 0,-147 -2,-173 -2,-28 -8,-41 -35,-47 -7,-2 -21,-2 -32,-2 -9,0 -14,-2 -14,-8 0,-5 6,-7 18,-7 43,0 95,2 112,2 28,0 90,-2 115,-2 52,0 107,5 151,35 23,16 55,57 55,112 0,61 -25,116 -108,183 73,92 130,164 178,215 46,48 79,53 91,56 9,1 17,2 23,2 7,0 10,3 10,7 0,6 -6,8 -15,8l-78 0c-46,0 -66,-4 -88,-16 -35,-18 -66,-57 -112,-120 -32,-45 -70,-100 -81,-113 -4,-5 -8,-5 -14,-5l-71 -2c-4,0 -7,2 -7,7l0 11c0,76 0,141 4,175 3,24 8,42 32,45 12,2 30,3 40,3 7,0 10,3 10,7 0,5 -6,8 -16,8 -48,0 -108,-3 -121,-3 -15,0 -67,3 -99,3 -11,0 -17,-3 -17,-8 0,-4 4,-7 13,-7 13,0 23,-1 30,-3 16,-3 20,-21 24,-45 4,-34 4,-99 4,-174l0 -144z"/>
   <path class="fil0" d="M5521 571l-122 3c-47,2 -67,6 -79,24 -8,12 -12,22 -14,28 -2,7 -4,10 -9,10 -6,0 -8,-4 -8,-13 0,-13 16,-87 18,-94 2,-11 5,-15 9,-15 7,0 15,8 36,9 23,3 54,4 81,4l324 0c52,0 72,-8 79,-8 5,0 6,5 6,17 0,18 -2,74 -2,95 -1,8 -3,13 -8,13 -6,0 -8,-4 -9,-16l0 -9c-2,-21 -24,-44 -97,-46l-103 -2 0 335c0,75 0,140 4,175 3,23 7,41 32,44 11,2 29,3 42,3 9,0 13,3 13,7 0,5 -7,8 -16,8 -54,0 -105,-3 -128,-3 -19,0 -70,3 -103,3 -11,0 -16,-3 -16,-8 0,-4 3,-7 13,-7 12,0 22,-1 29,-3 16,-3 21,-21 24,-45 4,-34 4,-99 4,-174l0 -335z"/>
   <path class="fil0" d="M6112 762c0,-124 0,-147 -2,-173 -1,-28 -10,-42 -28,-46 -9,-3 -19,-3 -29,-3 -8,0 -13,-2 -13,-9 0,-4 6,-6 20,-6 31,0 82,2 106,2 20,0 68,-2 100,-2 10,0 17,2 17,6 0,7 -5,9 -13,9 -9,0 -15,0 -25,2 -22,4 -29,18 -30,47 -2,26 -2,49 -2,173l0 144c0,79 0,144 3,179 3,22 9,37 33,40 12,2 29,3 42,3 9,0 13,3 13,7 0,5 -7,8 -16,8 -54,0 -105,-3 -127,-3 -19,0 -70,3 -103,3 -11,0 -16,-3 -16,-8 0,-4 3,-7 13,-7 12,0 22,-1 29,-3 16,-3 21,-17 24,-41 4,-34 4,-99 4,-178l0 -144z"/>
   <path class="fil0" d="M6537 1133c-13,-6 -16,-10 -16,-28 0,-45 4,-94 4,-107 1,-12 4,-21 10,-21 7,0 8,7 8,14 0,10 3,28 8,42 18,60 66,82 117,82 73,0 109,-50 109,-93 0,-40 -12,-79 -80,-131l-38 -29c-90,-71 -121,-128 -121,-194 0,-90 76,-154 189,-154 53,0 88,8 109,13 7,2 11,4 11,10 0,11 -3,35 -3,98 0,18 -2,25 -9,25 -6,0 -8,-5 -8,-15 0,-7 -4,-33 -21,-54 -13,-15 -36,-40 -90,-40 -60,0 -97,35 -97,84 0,38 19,66 87,118l23 17c98,76 134,131 134,209 0,47 -18,103 -77,142 -41,26 -86,33 -130,33 -47,0 -84,-5 -119,-21z"/>
   <path class="fil1" d="M499 1197c-454,-35 -592,-296 -440,-589 82,-158 207,-328 58,-485 -4,-6 -1,-9 6,-6 339,135 162,408 105,521 -115,223 -42,494 271,552 7,2 6,8 0,7z"/>
   <path class="fil0" d="M559 948l77 -948 -180 0 97 948c0,6 6,6 6,0z"/>
   <path class="fil2" d="M765 471c112,88 294,578 -152,719 -7,2 -6,7 0,7 710,-89 466,-598 158,-732 -9,-4 -13,1 -6,6z"/>
  </g>
 </g>
</svg>
