<?xml version="1.0" encoding="UTF-8"?>
<!DOCTYPE svg PUBLIC "-//W3C//DTD SVG 1.0//EN" "http://www.w3.org/TR/2001/REC-SVG-20010904/DTD/svg10.dtd">
<!-- Creator: CorelDRAW X8 -->
<svg xmlns="http://www.w3.org/2000/svg" xml:space="preserve" width="1622px" height="400px" version="1.0" style="shape-rendering:geometricPrecision; text-rendering:geometricPrecision; image-rendering:optimizeQuality; fill-rule:evenodd; clip-rule:evenodd"
viewBox="0 0 2364 583"
 xmlns:xlink="http://www.w3.org/1999/xlink">
 <defs>
  <style type="text/css">
   <![CDATA[
    .fil0 {fill:#09487C}
    .fil1 {fill:#104A7D}
    .fil3 {fill:#809CD1}
    .fil2 {fill:#F03B43}
    .fil4 {fill:#104A7D;fill-rule:nonzero}
   ]]>
  </style>
 </defs>
 <g id="Capa_x0020_1">
  <metadata id="CorelCorpID_0Corel-Layer"/>
  <g id="_2486081838064">
   <path class="fil0" d="M389 519c-15,-89 112,-101 127,-27 17,86 -113,102 -127,27zm-250 -6c-8,-86 119,-94 128,-16 4,39 -24,68 -58,72 -35,3 -68,-25 -70,-56zm-85 -280c77,-33 127,87 50,118 -76,31 -133,-82 -50,-118zm501 0c77,-30 124,85 49,117 -83,36 -129,-86 -49,-117zm-25 124l-43 77c-29,-7 -55,-9 -78,6 -10,6 -18,14 -24,25 -22,41 15,33 -105,33 -8,-55 -45,-79 -109,-65l-47 -75c12,-19 32,-33 32,-68 -1,-35 -20,-45 -30,-66 15,-26 29,-46 41,-72 69,6 97,-2 114,-67l90 1c17,28 21,87 118,64l43 79c-47,43 -40,87 -2,128zm-85 -341c82,-14 95,113 18,126 -84,14 -108,-111 -18,-126zm-251 0c81,-13 98,112 21,126 -87,16 -107,-112 -21,-126zm305 123c85,-58 -11,-180 -92,-124 -30,21 -23,49 -41,57l-85 0c-8,-33 -15,-47 -42,-61 -94,-51 -155,94 -82,132 -15,23 -33,50 -42,76 -30,-3 -55,-10 -80,8 -59,38 -50,162 77,136l44 78c-14,17 -34,36 -31,72 7,84 141,102 154,-2 108,0 88,-5 99,17 9,16 10,31 34,44 25,15 57,14 83,-2 76,-43 5,-135 4,-137 16,-15 36,-52 43,-69 168,32 131,-188 4,-143 -13,-14 -41,-62 -47,-82z"/>
   <path class="fil1" d="M763 155l37 135 33 -1 42 -132 4 135 43 -1 -12 -182 -54 -1 -38 122c-33,-144 -27,-125 -89,-121l-12 183 40 1 6 -138z"/>
   <path class="fil1" d="M2049 293c0,-40 -13,-96 25,-102 22,19 14,66 14,102l41 0 5 -101 33 1 1 99 43 1c-1,-29 4,-93 -7,-115 -14,-30 -56,-28 -80,-4l-39 -18c-19,0 -30,7 -39,15 -8,-13 -12,-11 -39,-12l0 134 42 0z"/>
   <path class="fil1" d="M1632 293c0,-37 -7,-77 11,-101l30 1 2 99 42 -1c-1,-77 13,-171 -85,-121l0 -71 -43 0 0 194 43 0z"/>
   <path class="fil1" d="M1471 192l0 -49c66,-21 65,63 0,49zm0 101c-1,-65 -15,-60 35,-67 31,-5 53,-23 56,-53 7,-75 -74,-68 -133,-62l-1 182 43 0z"/>
   <path class="fil2" d="M303 232c-82,33 -28,153 51,119 76,-33 28,-150 -51,-119z"/>
   <path class="fil3" d="M54 233c-83,36 -26,149 50,118 77,-31 27,-151 -50,-118z"/>
   <path class="fil3" d="M555 233c-80,31 -34,153 49,117 75,-32 28,-147 -49,-117z"/>
   <path class="fil3" d="M194 16c-86,14 -66,142 21,126 77,-14 60,-139 -21,-126z"/>
   <path class="fil3" d="M445 16c-90,15 -66,140 18,126 77,-13 64,-140 -18,-126z"/>
   <path class="fil3" d="M139 513c2,31 35,59 70,56 34,-4 62,-33 58,-72 -9,-78 -136,-70 -128,16z"/>
   <path class="fil3" d="M389 519c14,75 144,59 127,-27 -15,-74 -142,-62 -127,27z"/>
   <path class="fil1" d="M1004 263c-15,-22 -21,-89 21,-75 23,8 38,79 -21,75zm-52 -11c22,72 161,55 133,-50 -9,-36 -50,-55 -93,-42 -31,10 -54,47 -40,92z"/>
   <path class="fil1" d="M2280 246c10,-16 13,-16 37,-15l-2 28c-20,7 -29,13 -35,-13zm-38 26c19,37 61,18 69,17l49 4c-4,-90 12,-173 -112,-126l4 27c30,-8 39,-17 62,2 -12,11 -103,16 -72,76z"/>
   <path class="fil1" d="M1786 258c4,-27 10,-26 37,-29 0,34 -13,47 -37,29zm22 33c17,-6 2,-4 13,-5 25,-4 -14,-5 8,1l38 6c-2,-40 7,-103 -20,-126 -16,-13 -99,-26 -88,21 23,6 42,-13 63,7 -10,10 -14,8 -31,12 -75,16 -54,109 17,84z"/>
   <path class="fil1" d="M1256 211c5,-35 42,-40 45,0l-45 0zm71 48c-34,7 -60,10 -72,-20l84 1c15,-104 -97,-105 -120,-42 -29,82 59,122 115,87l-7 -26z"/>
   <path class="fil1" d="M1943 293c-1,-99 -6,-93 40,-99l0 -36c-28,-4 -34,4 -44,21 -8,-26 6,-19 -26,-20 -18,8 -12,-9 -14,31l1 103 43 0z"/>
   <path class="fil1" d="M1159 293c-1,-102 -2,-86 21,-96 20,-8 18,14 19,-39 -28,-3 -33,4 -44,20 -10,-26 -5,-18 -38,-19l-1 134 43 0z"/>
   <path class="fil0" d="M303 232c79,-31 127,86 51,119 -79,34 -133,-86 -51,-119zm9 -15c-102,23 -71,175 35,150 91,-21 66,-172 -35,-150z"/>
   <path class="fil4" d="M718 473l0 -104 39 0c7,0 12,1 16,1 5,1 9,3 12,5 4,3 7,6 9,10 2,5 3,9 3,14 0,9 -3,17 -9,23 -5,6 -15,9 -30,9l-27 0 0 42 -13 0zm13 -54l27 0c9,0 15,-2 19,-5 4,-4 6,-8 6,-14 0,-5 -1,-8 -4,-11 -2,-3 -5,-5 -8,-6 -3,-1 -7,-1 -13,-1l-27 0 0 37zm82 54l0 -104 12 0 0 38c6,-7 14,-11 23,-11 5,0 10,1 14,4 4,2 7,5 9,9 2,4 3,9 3,17l0 47 -13 0 0 -47c0,-7 -1,-11 -4,-14 -3,-3 -7,-5 -12,-5 -4,0 -7,1 -10,3 -4,2 -6,5 -7,8 -2,4 -3,8 -3,14l0 41 -12 0zm129 -9c-4,4 -9,7 -13,8 -5,2 -9,3 -14,3 -9,0 -15,-2 -19,-6 -5,-4 -7,-9 -7,-16 0,-3 1,-7 2,-10 2,-3 4,-5 7,-7 3,-2 6,-3 9,-4 3,-1 6,-2 12,-2 10,-1 17,-3 22,-4 0,-2 0,-3 0,-4 0,-5 -1,-9 -3,-11 -4,-3 -8,-4 -15,-4 -6,0 -10,1 -13,3 -3,2 -5,6 -6,11l-13 -1c1,-6 3,-10 6,-13 2,-4 6,-6 11,-8 5,-2 11,-3 17,-3 6,0 12,1 16,3 4,1 7,3 9,5 1,3 3,6 4,9 0,2 0,6 0,12l0 17c0,11 0,19 1,22 1,3 2,6 3,9l-13 0c-1,-3 -2,-6 -3,-9zm-1 -29c-4,2 -11,4 -21,5 -5,1 -9,2 -11,3 -2,1 -4,2 -5,4 -1,2 -1,4 -1,6 0,3 1,6 3,8 3,3 7,4 12,4 5,0 9,-1 13,-3 4,-3 6,-6 8,-9 2,-3 2,-7 2,-13l0 -5zm33 38l0 -75 11 0 0 11c3,-5 6,-8 8,-10 3,-2 5,-3 8,-3 5,0 9,2 13,4l-4 12c-3,-2 -6,-2 -9,-2 -3,0 -6,0 -8,2 -2,2 -4,4 -4,7 -2,5 -3,9 -3,15l0 39 -12 0zm48 0l0 -75 11 0 0 11c3,-4 6,-7 10,-9 4,-3 8,-4 13,-4 6,0 10,2 14,4 3,2 6,5 7,10 6,-9 14,-14 24,-14 7,0 13,2 17,7 4,4 6,10 6,19l0 51 -13 0 0 -47c0,-5 0,-9 -1,-11 -1,-2 -2,-4 -5,-6 -2,-1 -4,-2 -7,-2 -5,0 -10,2 -13,6 -4,3 -6,9 -6,17l0 43 -12 0 0 -49c0,-5 -1,-10 -3,-12 -3,-3 -6,-5 -11,-5 -3,0 -7,1 -10,3 -3,2 -5,5 -6,9 -2,3 -2,8 -2,15l0 39 -13 0zm170 -9c-5,4 -10,7 -14,8 -4,2 -9,3 -14,3 -8,0 -15,-2 -19,-6 -4,-4 -7,-9 -7,-16 0,-3 1,-7 3,-10 2,-3 4,-5 6,-7 3,-2 6,-3 10,-4 2,-1 6,-2 11,-2 10,-1 18,-3 23,-4 0,-2 0,-3 0,-4 0,-5 -1,-9 -4,-11 -3,-3 -8,-4 -14,-4 -6,0 -11,1 -14,3 -3,2 -5,6 -6,11l-12 -1c1,-6 3,-10 5,-13 3,-4 6,-6 11,-8 5,-2 11,-3 17,-3 7,0 12,1 16,3 4,1 7,3 9,5 2,3 3,6 4,9 0,2 1,6 1,12l0 17c0,11 0,19 0,22 1,3 2,6 4,9l-14 0c-1,-3 -2,-6 -2,-9zm-1 -29c-5,2 -12,4 -21,5 -5,1 -9,2 -11,3 -2,1 -4,2 -5,4 -1,2 -2,4 -2,6 0,3 1,6 4,8 2,3 6,4 11,4 5,0 9,-1 13,-3 4,-3 7,-6 9,-9 1,-3 2,-7 2,-13l0 -5zm81 11l13 1c-2,9 -5,16 -11,20 -5,5 -12,8 -20,8 -11,0 -19,-4 -25,-10 -6,-7 -10,-17 -10,-29 0,-8 2,-15 5,-21 2,-6 6,-11 12,-14 5,-3 11,-5 18,-5 8,0 15,2 20,7 5,4 8,10 10,17l-13 2c-1,-5 -3,-9 -6,-11 -3,-3 -7,-4 -11,-4 -6,0 -11,2 -15,7 -4,4 -6,12 -6,21 0,11 1,18 5,22 4,5 9,7 15,7 5,0 10,-1 13,-4 3,-3 5,-8 6,-14zm75 3l13 2c-2,7 -6,13 -11,17 -6,5 -13,7 -22,7 -11,0 -19,-4 -26,-10 -6,-7 -10,-17 -10,-29 0,-12 4,-22 10,-29 7,-7 15,-11 25,-11 10,0 19,4 25,11 6,6 10,16 10,28 0,1 0,2 -1,4l-56 0c1,8 3,14 7,19 5,4 10,6 16,6 5,0 9,-1 12,-3 3,-3 6,-7 8,-12zm-42 -21l42 0c0,-6 -2,-11 -5,-14 -4,-5 -9,-7 -15,-7 -6,0 -11,2 -15,6 -4,4 -6,9 -7,15zm120 45l0 -11c-6,9 -13,13 -23,13 -5,0 -9,-1 -13,-3 -4,-1 -7,-4 -8,-6 -2,-3 -4,-6 -4,-10 -1,-2 -1,-6 -1,-11l0 -47 13 0 0 42c0,6 0,11 0,13 1,3 3,6 6,8 2,2 5,3 9,3 4,0 8,-1 11,-3 3,-2 6,-5 7,-8 1,-4 2,-8 2,-15l0 -40 13 0 0 75 -12 0zm59 -11l2 11c-3,1 -7,1 -9,1 -5,0 -9,-1 -11,-2 -3,-1 -4,-3 -6,-6 -1,-2 -1,-7 -1,-15l0 -43 -9 0 0 -10 9 0 0 -19 13 -7 0 26 12 0 0 10 -12 0 0 44c0,4 0,6 0,7 1,1 2,2 3,2 1,1 2,1 4,1 1,0 3,0 5,0zm13 -78l0 -15 13 0 0 15 -13 0zm0 89l0 -75 13 0 0 75 -13 0zm81 -27l13 1c-2,9 -5,16 -11,20 -5,5 -12,8 -20,8 -11,0 -19,-4 -25,-10 -6,-7 -10,-17 -10,-29 0,-8 2,-15 4,-21 3,-6 7,-11 13,-14 5,-3 11,-5 18,-5 8,0 14,2 20,7 5,4 8,10 10,17l-13 2c-1,-5 -3,-9 -6,-11 -3,-3 -7,-4 -11,-4 -6,0 -11,2 -16,7 -4,4 -6,12 -6,21 0,11 2,18 6,22 4,5 9,7 15,7 5,0 10,-1 13,-4 3,-3 5,-8 6,-14zm73 18c-5,4 -10,7 -14,8 -4,2 -9,3 -14,3 -8,0 -15,-2 -19,-6 -5,-4 -7,-9 -7,-16 0,-3 1,-7 3,-10 1,-3 4,-5 6,-7 3,-2 6,-3 10,-4 2,-1 6,-2 11,-2 10,-1 18,-3 23,-4 0,-2 0,-3 0,-4 0,-5 -2,-9 -4,-11 -3,-3 -8,-4 -14,-4 -6,0 -11,1 -14,3 -3,2 -5,6 -6,11l-13 -1c2,-6 3,-10 6,-13 3,-4 6,-6 11,-8 5,-2 11,-3 17,-3 7,0 12,1 16,3 4,1 7,3 9,5 2,3 3,6 4,9 0,2 1,6 1,12l0 17c0,11 0,19 0,22 1,3 2,6 4,9l-14 0c-1,-3 -2,-6 -2,-9zm-1 -29c-5,2 -12,4 -21,5 -5,1 -9,2 -11,3 -2,1 -4,2 -5,4 -2,2 -2,4 -2,6 0,3 1,6 4,8 2,3 6,4 11,4 5,0 9,-1 13,-3 4,-3 7,-6 9,-9 1,-3 2,-7 2,-13l0 -5zm32 38l0 -104 13 0 0 104 -13 0zm148 -36l14 3c-3,12 -8,20 -16,26 -7,6 -16,9 -27,9 -11,0 -20,-2 -27,-7 -7,-4 -13,-11 -16,-20 -4,-8 -6,-18 -6,-27 0,-11 2,-21 6,-29 5,-8 10,-14 18,-18 8,-4 16,-6 25,-6 11,0 19,2 26,8 7,5 12,12 15,22l-13 3c-3,-7 -6,-13 -11,-16 -4,-4 -10,-6 -17,-6 -8,0 -15,2 -20,6 -5,4 -9,9 -11,16 -2,6 -4,13 -4,19 0,9 2,17 4,24 3,6 7,11 12,14 6,4 12,5 18,5 7,0 14,-2 19,-6 6,-5 9,-11 11,-20zm24 -1c0,-14 4,-25 12,-31 6,-6 14,-9 24,-9 10,0 18,4 25,11 7,6 10,16 10,28 0,9 -2,17 -5,22 -2,6 -7,10 -12,13 -6,3 -12,5 -18,5 -11,0 -19,-4 -26,-10 -6,-7 -10,-17 -10,-29zm13 0c0,9 3,16 7,21 4,5 9,7 16,7 6,0 11,-2 15,-7 5,-5 7,-12 7,-22 0,-9 -2,-16 -7,-21 -4,-5 -9,-7 -15,-7 -7,0 -12,2 -16,7 -4,5 -7,12 -7,22zm73 37l0 -75 11 0 0 11c3,-4 6,-7 10,-9 4,-3 8,-4 13,-4 5,0 10,2 14,4 3,2 6,5 7,10 6,-9 14,-14 23,-14 8,0 14,2 18,7 4,4 6,10 6,19l0 51 -13 0 0 -47c0,-5 0,-9 -1,-11 -1,-2 -3,-4 -5,-6 -2,-1 -5,-2 -7,-2 -6,0 -10,2 -14,6 -3,3 -5,9 -5,17l0 43 -13 0 0 -49c0,-5 -1,-10 -3,-12 -2,-3 -5,-5 -10,-5 -4,0 -7,1 -10,3 -3,2 -5,5 -6,9 -2,3 -2,8 -2,15l0 39 -13 0zm120 29l0 -104 12 0 0 10c3,-4 6,-7 9,-9 4,-2 8,-3 13,-3 6,0 12,2 17,5 5,4 8,8 11,14 2,6 4,13 4,20 0,8 -2,15 -5,21 -2,6 -6,11 -12,14 -5,3 -10,5 -16,5 -4,0 -8,-1 -12,-3 -3,-2 -6,-4 -8,-7l0 37 -13 0zm12 -66c0,10 2,17 6,21 4,5 8,7 14,7 6,0 11,-2 15,-7 4,-5 6,-12 6,-22 0,-10 -2,-17 -6,-21 -4,-5 -9,-8 -14,-8 -6,0 -11,3 -15,8 -4,5 -6,12 -6,22zm118 28c-5,4 -9,7 -14,8 -4,2 -9,3 -14,3 -8,0 -14,-2 -19,-6 -4,-4 -6,-9 -6,-16 0,-3 0,-7 2,-10 2,-3 4,-5 7,-7 2,-2 5,-3 9,-4 2,-1 6,-2 11,-2 11,-1 18,-3 23,-4 0,-2 0,-3 0,-4 0,-5 -1,-9 -4,-11 -3,-3 -8,-4 -14,-4 -6,0 -11,1 -13,3 -3,2 -5,6 -7,11l-12 -1c1,-6 3,-10 5,-13 3,-4 7,-6 12,-8 5,-2 10,-3 17,-3 6,0 11,1 15,3 4,1 7,3 9,5 2,3 4,6 4,9 1,2 1,6 1,12l0 17c0,11 0,19 1,22 0,3 1,6 3,9l-13 0c-2,-3 -3,-6 -3,-9zm-1 -29c-5,2 -12,4 -21,5 -5,1 -9,2 -11,3 -2,1 -4,2 -5,4 -1,2 -2,4 -2,6 0,3 2,6 4,8 3,3 6,4 11,4 5,0 10,-1 14,-3 3,-3 6,-6 8,-9 1,-3 2,-7 2,-13l0 -5zm33 38l0 -75 11 0 0 11c5,-9 13,-13 24,-13 4,0 9,1 12,3 4,1 7,4 9,6 2,3 3,6 4,10 0,2 1,6 1,12l0 46 -13 0 0 -46c0,-5 -1,-9 -2,-11 -1,-3 -2,-5 -5,-6 -2,-2 -5,-3 -9,-3 -5,0 -10,2 -14,6 -4,3 -6,10 -6,19l0 41 -12 0zm80 29l-2 -12c3,1 5,1 7,1 3,0 5,0 7,-1 2,-1 3,-2 4,-4 1,-1 2,-4 4,-9 0,-1 1,-2 1,-4l-28 -75 13 0 16 43c2,6 4,12 6,18 1,-6 3,-12 5,-17l16 -44 13 0 -29 76c-3,9 -5,14 -7,17 -2,5 -5,8 -8,10 -3,2 -6,3 -10,3 -3,0 -5,-1 -8,-2z"/>
  </g>
 </g>
</svg>
