<?xml version="1.0" encoding="UTF-8"?>
<!DOCTYPE svg PUBLIC "-//W3C//DTD SVG 1.0//EN" "http://www.w3.org/TR/2001/REC-SVG-20010904/DTD/svg10.dtd">
<!-- Creator: CorelDRAW X8 -->
<svg xmlns="http://www.w3.org/2000/svg" xml:space="preserve" width="1244px" height="400px" version="1.0" style="shape-rendering:geometricPrecision; text-rendering:geometricPrecision; image-rendering:optimizeQuality; fill-rule:evenodd; clip-rule:evenodd" viewBox="0 0 2106 677" xmlns:xlink="http://www.w3.org/1999/xlink">
 <defs>
  <style type="text/css">
   <![CDATA[
    .fil0 {fill:#005494}
    .fil1 {fill:#010101}
   ]]>
  </style>
 </defs>
 <g id="Capa_x0020_1">
  <metadata id="CorelCorpID_0Corel-Layer"/>
  <g id="_2486081773392">
   <path class="fil0" d="M968 138c20,-7 28,-14 53,-18 60,-10 118,19 149,64 32,48 36,111 6,165 -8,13 -22,33 -31,40 23,-7 54,-36 66,-52 127,-168 -26,-356 -175,-335 -110,15 -94,115 -68,136zm-4 255c44,27 165,37 187,-45 9,-36 -4,-52 -15,-74 -11,3 -20,9 -31,12 -12,4 -22,6 -34,8 -149,3 -210,-147 -131,-252 4,-6 10,-10 13,-16 -27,9 -62,48 -77,71 -20,32 -32,71 -31,117 3,85 61,154 119,179zm-43 -251c1,58 35,98 70,118 21,12 47,19 76,17 40,-2 55,-19 70,-24 31,27 26,51 34,68 19,-44 7,-97 -15,-129 -23,-31 -59,-57 -113,-57 -36,0 -53,11 -77,25 -35,-35 -26,-50 -34,-64l-3 -3c-3,18 -8,28 -8,49z"/>
   <path class="fil1" d="M36 514c33,-2 101,-6 120,11 13,12 13,32 0,42 -20,16 -92,13 -120,11l0 -12 0 -52zm0 86c36,-3 83,4 116,-4 73,-16 75,-103 -34,-104 -39,-1 -78,0 -118,0l0 182 36 -1 0 -73z"/>
   <path class="fil1" d="M1609 621c-20,-73 103,-83 117,-26 19,73 -101,82 -117,26zm0 37c16,8 21,14 44,17 147,21 144,-157 -2,-135 -24,4 -26,8 -42,17l0 -65 -33 0 0 181 33 0 0 -15z"/>
   <path class="fil1" d="M1484 607c3,28 -3,38 -27,45 -67,21 -100,-27 -37,-37 22,-3 43,-4 64,-8zm-96 -24c9,-3 3,-1 8,-9 15,-23 80,-19 87,-2 14,31 -50,20 -95,32 -48,13 -45,54 -9,67 36,12 80,4 105,-13 6,6 4,18 29,19 31,1 25,-10 24,-21 -22,1 -20,1 -20,-22 1,-62 8,-82 -34,-92 -43,-9 -121,-4 -123,41l28 0z"/>
   <path class="fil1" d="M476 594l-111 1c6,-49 102,-48 111,-1zm-1 37c-7,23 -35,28 -64,25 -26,-3 -45,-15 -47,-42l147 0c9,-93 -157,-99 -179,-23 -29,96 156,114 175,40l-32 0z"/>
   <path class="fil1" d="M837 594c9,-48 105,-48 111,1l-111 -1zm112 38c-14,21 -30,28 -64,24 -28,-3 -46,-14 -48,-42l147 0c9,-92 -159,-100 -180,-22 -25,97 159,112 176,39l-31 1z"/>
   <path class="fil1" d="M1959 594c9,-48 103,-48 112,1l-112 -1zm57 -55c-83,0 -118,68 -71,115 36,36 143,31 157,-23l-28 0c-10,5 -8,14 -26,21 -23,9 -87,10 -89,-38l146 0c4,-25 -12,-45 -24,-56 -16,-14 -39,-19 -65,-19z"/>
   <path class="fil1" d="M1180 513l142 0 -1 -21 -178 0 0 181c44,4 36,6 36,-41 0,-14 0,-27 0,-41l124 -1 1 -20 -125 -1 1 -56z"/>
   <path class="fil1" d="M583 673c1,-72 -10,-109 71,-111l0 -23c-17,0 -32,2 -45,8 -15,6 -19,16 -28,20l0 -25 -31 0 0 131 33 0z"/>
   <path class="fil1" d="M716 673c7,-22 -6,-60 7,-85 11,-21 35,-23 65,-26l0 -22c-41,-5 -55,13 -72,27l-1 -25 -31 1 1 130 31 0z"/>
   <path class="fil1" d="M1839 673c0,-24 -4,-67 6,-85 14,-25 36,-20 65,-27l-1 -22c-34,-3 -55,12 -71,29l-1 -26 -31 1 0 130 33 0z"/>
   <polygon class="fil1" points="250,673 283,674 283,666 282,542 250,542 250,551 250,664 "/>
   <polygon class="fil1" points="250,519 283,519 283,492 250,492 "/>
  </g>
 </g>
</svg>
