<?xml version="1.0" encoding="UTF-8"?>
<!DOCTYPE svg PUBLIC "-//W3C//DTD SVG 1.0//EN" "http://www.w3.org/TR/2001/REC-SVG-20010904/DTD/svg10.dtd">
<!-- Creator: CorelDRAW X8 -->
<svg xmlns="http://www.w3.org/2000/svg" xml:space="preserve" width="402px" height="400px" version="1.0" style="shape-rendering:geometricPrecision; text-rendering:geometricPrecision; image-rendering:optimizeQuality; fill-rule:evenodd; clip-rule:evenodd" viewBox="0 0 177 176" xmlns:xlink="http://www.w3.org/1999/xlink">
 <defs>
  <style type="text/css">
   <![CDATA[
    .fil0 {fill:#1248A6;fill-rule:nonzero}
   ]]>
  </style>
 </defs>
 <g id="Capa_x0020_1">
  <metadata id="CorelCorpID_0Corel-Layer"/>
  <g id="_2486081776176">
   <path class="fil0" d="M0 155l2 0 0 3c1,-1 2,-2 3,-2 1,-1 2,-1 3,-1 2,0 4,1 6,2 1,2 2,4 2,6 0,2 -1,4 -2,6 -2,1 -4,2 -6,2 -1,0 -2,0 -3,-1 -1,0 -2,-1 -3,-2l0 8 -2 0 0 -21zm8 2c-2,0 -3,1 -4,2 -2,1 -2,2 -2,4 0,1 0,2 1,3 0,1 1,2 2,3 1,0 2,0 3,0 1,0 2,0 3,0 1,-1 2,-2 2,-3 1,-1 1,-2 1,-3 0,-1 0,-2 -1,-3 0,-1 -1,-2 -2,-2 -1,-1 -2,-1 -3,-1z"/>
   <path class="fil0" d="M28 157l-2 1c-1,-1 -2,-1 -3,-1 0,0 -1,0 -1,0 -1,1 -1,1 -1,2 0,0 0,1 0,1 1,1 2,1 3,2 1,1 2,2 3,2 0,1 1,2 1,3 0,1 -1,2 -2,3 -1,1 -2,1 -3,1 -1,0 -2,0 -3,0 0,-1 -1,-1 -2,-2l2 -1c1,1 2,1 3,1 1,0 1,0 2,0 0,-1 1,-2 1,-2 0,-1 0,-1 -1,-2 0,0 -1,-1 -2,-1 -2,-1 -3,-2 -3,-3 -1,0 -1,-1 -1,-2 0,-1 0,-2 1,-3 1,-1 2,-1 3,-1 2,0 3,1 5,2z"/>
   <path class="fil0" d="M32 149c0,0 1,0 1,0 0,1 1,1 1,2 0,0 -1,0 -1,1 0,0 -1,0 -1,0 -1,0 -1,0 -1,0 -1,-1 -1,-1 -1,-1 0,-1 0,-1 1,-2 0,0 0,0 1,0zm-1 6l2 0 0 16 -2 0 0 -16z"/>
   <path class="fil0" d="M52 159l-2 0c-1,-1 -3,-2 -5,-2 -2,0 -4,0 -5,2 -1,1 -2,2 -2,4 0,1 1,2 1,3 1,1 1,2 2,3 1,0 3,0 4,0 2,0 4,-1 5,-2l2 1c-1,1 -2,2 -3,2 -1,1 -3,1 -4,1 -3,0 -5,-1 -6,-2 -2,-2 -3,-4 -3,-6 0,-1 1,-3 1,-4 1,-1 2,-2 3,-3 2,-1 3,-1 5,-1 1,0 2,0 3,0 1,1 2,1 2,2 1,0 1,1 2,2z"/>
   <path class="fil0" d="M63 155c2,0 4,1 6,3 1,1 2,3 2,5 0,2 -1,4 -2,6 -2,1 -4,2 -6,2 -2,0 -4,-1 -6,-2 -1,-2 -2,-4 -2,-6 0,-2 1,-4 2,-5 2,-2 4,-3 6,-3zm0 2c-2,0 -3,1 -4,2 -1,1 -2,2 -2,4 0,1 0,2 1,3 0,1 1,2 2,3 1,0 2,0 3,0 1,0 2,0 3,0 1,-1 2,-2 2,-3 1,-1 1,-2 1,-3 0,-2 -1,-3 -2,-4 -1,-1 -2,-2 -4,-2z"/>
   <path class="fil0" d="M81 149l0 2c-1,0 -1,0 -2,0 0,0 0,0 -1,0 0,0 0,0 0,1 0,0 0,0 0,1l0 2 3 0 0 2 -3 0 0 14 -2 0 0 -14 -2 0 0 -2 2 0 0 -2c0,-1 0,-2 0,-2 0,-1 1,-1 1,-2 1,0 1,0 2,0 0,0 1,0 2,0z"/>
   <path class="fil0" d="M99 155l0 16 -2 0 0 -3c0,1 -1,2 -2,2 -1,1 -3,1 -4,1 -2,0 -4,-1 -5,-2 -2,-2 -3,-4 -3,-6 0,-2 1,-4 3,-6 1,-1 3,-2 5,-2 1,0 3,0 4,1 1,0 2,1 2,2l0 -3 2 0zm-8 2c-1,0 -2,0 -3,1 -1,0 -1,1 -2,2 0,1 -1,2 -1,3 0,1 1,2 1,3 1,1 1,2 2,3 1,0 2,0 3,0 1,0 2,0 3,0 1,-1 2,-2 3,-3 0,-1 0,-2 0,-3 0,-2 0,-3 -1,-4 -1,-1 -3,-2 -5,-2z"/>
   <path class="fil0" d="M103 155l2 0 0 3c1,-1 1,-2 2,-2 1,-1 1,-1 2,-1 1,0 1,0 2,0l-1 2c-1,0 -1,0 -1,0 -1,0 -2,0 -2,1 -1,0 -1,1 -2,2 0,1 0,3 0,6l0 5 -2 0 0 -16z"/>
   <path class="fil0" d="M112 155l2 0 0 3c1,-1 2,-2 3,-2 1,-1 2,-1 3,-1 1,0 1,0 2,0 1,1 1,1 2,2 0,0 0,1 1,2 0,-2 1,-2 2,-3 1,-1 2,-1 3,-1 1,0 2,0 3,1 1,0 2,1 2,2 0,1 1,2 1,4l0 9 -2 0 0 -9c0,-1 -1,-2 -1,-3 0,-1 0,-1 -1,-2 -1,0 -1,0 -2,0 -1,0 -2,0 -3,1 0,0 -1,1 -1,2 -1,1 -1,3 -1,5l0 6 -2 0 0 -8c0,-2 0,-3 0,-4 -1,-1 -1,-1 -2,-1 0,-1 -1,-1 -2,-1 -1,0 -1,0 -2,1 -1,0 -2,1 -2,2 0,1 -1,2 -1,4l0 7 -2 0 0 -16z"/>
   <path class="fil0" d="M155 155l0 16 -2 0 0 -3c-1,1 -1,2 -3,2 -1,1 -2,1 -3,1 -2,0 -4,-1 -6,-2 -1,-2 -2,-4 -2,-6 0,-2 1,-4 2,-6 2,-1 4,-2 6,-2 1,0 3,0 4,1 1,0 1,1 2,2l0 -3 2 0zm-8 2c-1,0 -2,0 -3,1 -1,0 -1,1 -2,2 -1,1 -1,2 -1,3 0,1 0,2 1,3 1,1 1,2 2,3 1,0 2,0 3,0 1,0 2,0 3,0 1,-1 2,-2 3,-3 0,-1 0,-2 0,-3 0,-2 0,-3 -1,-4 -2,-1 -3,-2 -5,-2z"/>
   <path class="fil0" d="M177 148c0,2 0,3 0,4 -1,1 -2,1 -3,2 -1,1 -2,1 -3,1 -1,0 -2,0 -3,-1 -1,-1 -2,-1 -2,-2 -1,-1 -1,-2 -1,-3 0,-2 0,-3 1,-4 0,-1 1,-1 2,-2 1,-1 2,-1 3,-1 1,0 2,0 3,1 1,0 2,1 3,2 0,1 0,2 0,3zm0 0c0,0 -1,-1 -1,-2 -1,-1 -1,-2 -2,-2 -1,-1 -2,-1 -3,-1 -1,0 -2,0 -3,1 -1,0 -1,1 -2,2 0,1 0,2 0,3 0,0 0,1 0,2 1,1 1,2 2,2 1,1 2,1 3,1 1,0 2,0 3,-1 1,0 1,-1 2,-2 0,-1 1,-2 1,-3zm-9 -3l3 0c1,0 2,0 2,0 0,0 1,0 1,1 0,0 0,0 0,1 0,0 0,1 0,1 0,0 0,0 -1,0 1,1 1,1 1,1 0,0 0,1 0,1l0 1c0,0 0,1 0,1l0 0 -1 0c0,0 0,-1 0,-1l0 -1c0,0 0,0 0,-1 0,0 -1,0 -1,0 0,0 0,0 -1,0l-1 0 0 3 -2 0 0 -7zm2 1l0 2 1 0c1,0 1,0 1,0 1,0 1,-1 1,-1 0,0 0,-1 0,-1 -1,0 -1,0 -2,0l-1 0z"/>
   <path class="fil0" d="M57 59l2 0c0,-8 6,-14 13,-14 8,0 14,6 14,14 0,7 -6,13 -14,13l0 2c9,0 16,-7 16,-15 0,-9 -7,-16 -16,-16 -8,0 -15,7 -15,16z"/>
   <path class="fil0" d="M42 59c0,2 1,3 3,3 2,0 3,-1 3,-3 0,-14 11,-25 24,-25 14,0 25,11 25,25 0,14 -11,24 -24,24 -2,0 -3,2 -3,3 0,2 1,4 3,4 17,0 30,-14 30,-31 0,-17 -14,-31 -31,-31 -17,0 -30,14 -30,31z"/>
   <path class="fil0" d="M30 59c0,11 4,22 12,30l2 -2c-8,-7 -12,-17 -12,-28 0,-22 18,-41 40,-41 15,0 27,8 35,20l2 -2c-8,-12 -22,-20 -37,-20 -23,0 -42,19 -42,43z"/>
   <path class="fil0" d="M117 86c-9,15 -25,25 -43,25 -2,0 -4,2 -4,3 0,2 2,4 4,4 20,-1 38,-11 49,-29 1,-1 0,-3 -1,-4 -2,-1 -4,0 -5,1z"/>
   <path class="fil0" d="M14 59c0,21 10,39 28,50 2,1 4,1 4,-1 1,-1 1,-3 -1,-4 -15,-10 -25,-27 -25,-45 0,-29 24,-53 52,-53 20,0 37,11 47,28 0,1 2,2 4,1 1,-1 2,-3 1,-4 -10,-19 -30,-31 -52,-31 -32,0 -58,26 -58,59z"/>
   <path class="fil0" d="M137 30l-16 0c-6,0 -24,2 -24,28 0,1 1,3 3,3 2,0 3,-2 3,-3 0,-19 11,-22 18,-22 0,0 9,0 13,0 0,6 0,43 0,48 -4,0 -13,0 -13,0 -2,0 -4,2 -4,3 0,2 2,4 4,4l19 0 0 -61 -3 0z"/>
   <path class="fil0" d="M137 44l-10 0c-9,0 -14,5 -14,14l0 1c0,22 -18,40 -41,40l0 2c18,0 34,-11 40,-26 1,0 26,0 26,0l0 -31 -1 0zm-22 15l0 -1c0,-10 6,-12 12,-12 0,0 7,0 9,0 0,2 0,25 0,27 -2,0 -22,0 -23,0 1,-5 2,-9 2,-14z"/>
   <path class="fil0" d="M128 56c-2,0 -3,2 -3,3 0,2 1,4 3,4l9 0c2,0 4,-2 4,-4 0,-1 -2,-3 -4,-3l-9 0z"/>
   <path class="fil0" d="M70 59c0,0 0,72 0,78 -5,0 -18,0 -22,0 0,-5 0,-78 0,-78 0,-2 -1,-3 -3,-3 -2,0 -3,1 -3,3l0 85 34 0 0 -85c0,-2 -1,-4 -3,-4 -2,0 -3,2 -3,4z"/>
   <polygon class="fil0" points="57,139 59,139 59,59 57,59 "/>
  </g>
 </g>
</svg>
