<?xml version="1.0" encoding="UTF-8"?>
<!DOCTYPE svg PUBLIC "-//W3C//DTD SVG 1.0//EN" "http://www.w3.org/TR/2001/REC-SVG-20010904/DTD/svg10.dtd">
<!-- Creator: CorelDRAW X8 -->
<svg xmlns="http://www.w3.org/2000/svg" xml:space="preserve" width="912px" height="400px" version="1.0" style="shape-rendering:geometricPrecision; text-rendering:geometricPrecision; image-rendering:optimizeQuality; fill-rule:evenodd; clip-rule:evenodd"
viewBox="0 0 2065 906"
 xmlns:xlink="http://www.w3.org/1999/xlink">
 <defs>
  <style type="text/css">
   <![CDATA[
    .fil1 {fill:black}
    .fil0 {fill:#EC0A8C}
    .fil2 {fill:#FEFDFE}
   ]]>
  </style>
 </defs>
 <g id="Capa_x0020_1">
  <metadata id="CorelCorpID_0Corel-Layer"/>
  <g id="_2485982187088">
   <path class="fil0" d="M245 303c0,-17 9,-61 13,-80 10,-51 -2,-39 56,-39l-3 25c11,-13 33,-32 62,-28l-7 42c-40,0 -59,10 -67,47 -3,19 -12,93 -20,96l-22 0c0,4 5,75 3,110 -1,36 -9,71 -12,105 10,-7 26,-28 35,-38l145 -161c5,-6 9,-8 7,-15 -26,1 -46,-19 -54,-38 -12,-28 -6,-51 -1,-79 8,-46 16,-115 28,-156 -5,-7 6,-2 -11,-8 -3,0 -10,-2 -13,-2l-376 -84 -8 0c19,11 75,60 95,78 25,23 24,21 51,52 32,37 59,78 79,126 5,11 14,41 20,47z"/>
   <path class="fil1" d="M1410 434l2 31 27 1c6,34 -4,80 5,113 12,43 80,34 84,25l4 -13c1,-5 2,-11 3,-16 -32,1 -41,0 -43,-34 0,-17 -1,-59 1,-75l72 1c2,30 -5,89 4,114 5,15 15,25 32,28 55,11 55,-9 58,-31 -4,-3 6,-6 -6,-3 -30,2 -36,-10 -36,-39 0,-20 -2,-51 1,-70 46,0 40,7 44,-33l-45 0 0 -74 -52 21 0 53 -73 0 0 -73 -52 20 0 53 -30 1z"/>
   <path class="fil1" d="M657 864l0 -69c31,1 59,0 59,33 1,34 -29,36 -59,36zm0 -166c28,0 53,1 52,33 -1,28 -26,30 -52,30l0 -63zm66 75c19,-7 34,-19 39,-41 18,-86 -109,-72 -160,-72l0 241c48,0 196,18 168,-87 -9,-33 -36,-34 -47,-41z"/>
   <path class="fil1" d="M658 403c28,0 58,1 61,30 4,31 -17,44 -45,44l-5 0 -11 0 0 -74zm61 104c7,-6 23,-11 30,-17 29,-22 33,-73 9,-99 -28,-31 -123,-30 -157,-24l1 239 56 0 0 -97c8,6 62,87 69,97l60 0c-5,-11 -25,-37 -34,-50 -11,-16 -22,-33 -34,-49z"/>
   <path class="fil1" d="M1314 434c-15,-2 -30,-1 -45,-1 -21,0 -19,7 -28,17 -11,13 -29,38 -41,47l0 -106c0,-29 3,-28 -5,-31l-47 20 0 227 52 -1c1,-13 0,-26 0,-39 0,-16 5,-18 14,-26 8,7 39,56 45,65l58 1c-5,-13 -55,-83 -67,-103 6,-13 20,-23 32,-36 9,-10 21,-28 32,-34z"/>
   <path class="fil1" d="M1437 799c7,-16 50,-53 63,-71l-58 0c-6,8 -48,59 -54,63l0 -137 -52 22 0 225 52 0c0,-51 -6,-45 14,-66 7,8 17,23 24,34l16 25c7,8 -1,2 8,7l53 0c-5,-17 -37,-57 -50,-78 -5,-7 -12,-16 -16,-24z"/>
   <path class="fil2" d="M462 221c55,-23 55,80 5,98 -55,19 -59,-75 -5,-98zm-27 146c15,-8 33,-31 46,-47 2,-2 3,-3 4,-5l26 -29c2,-3 2,-3 3,-4l27 -29c12,-12 8,-7 11,-22 6,-37 -43,-65 -87,-43 -12,6 -20,15 -27,18l18 -104c-15,-4 -34,-11 -48,-8 -12,41 -20,110 -28,156 -5,28 -11,51 1,79 8,19 28,39 54,38z"/>
   <path class="fil1" d="M1035 900c6,-42 -17,-129 31,-132 49,-4 22,75 31,133l49 -1c4,-23 3,-137 -5,-152 -9,-18 -28,-27 -54,-25 -29,3 -42,22 -51,25l0 -21 -52 1 2 173 49 -1z"/>
   <path class="fil1" d="M838 504c-4,-55 74,-62 68,-1l-68 1zm106 60c-12,2 -97,40 -105,-32l115 0c7,-21 1,-55 -9,-70 -10,-16 -26,-27 -49,-32 -50,-10 -94,16 -107,55 -25,77 27,135 114,124 38,-4 37,-8 41,-45z"/>
   <path class="fil1" d="M1807 797c2,-22 12,-41 36,-43 26,-1 34,19 34,43l-70 0zm119 26c18,-125 -131,-124 -163,-51 -20,44 -4,96 24,115 42,28 75,19 122,8l5 -37c-21,7 -42,18 -68,11 -20,-5 -35,-19 -36,-42 14,0 105,4 116,-4z"/>
   <path class="fil1" d="M842 797c6,-54 69,-63 71,0l-71 0zm107 61c-21,6 -39,18 -66,12 -20,-5 -39,-20 -37,-43l115 -2c6,-19 0,-50 -8,-65 -30,-55 -125,-48 -154,9 -9,19 -12,45 -7,68 16,83 131,76 150,57 4,-5 7,-29 7,-36z"/>
   <path class="fil1" d="M1735 736c-43,-18 -115,-22 -127,29 -16,66 84,65 85,90 -10,30 -57,9 -77,2l-10 34c35,26 118,19 131,-24 14,-52 -32,-66 -64,-77 -13,-4 -24,-8 -18,-23 16,-20 51,-3 70,1l10 -32z"/>
   <path class="fil1" d="M1121 568c-100,37 -101,-70 -68,-95 21,-17 39,-7 63,-5l9 -32c-82,-21 -154,8 -146,97 4,36 28,62 57,72 19,7 59,7 74,1 7,-3 9,1 11,-38z"/>
   <path class="fil1" d="M1314 730c-73,-22 -145,5 -146,82 -1,77 61,106 137,87l6 -36c-31,8 -84,22 -87,-45 -5,-79 68,-56 81,-56l9 -32z"/>
   <path class="fil0" d="M552 231l7 6c8,-16 72,-78 82,-96l-17 -3c-22,-6 -153,-37 -168,-36l-18 104c7,-3 15,-12 27,-18 44,-22 93,6 87,43z"/>
   <path class="fil1" d="M2054 769c3,-14 12,-32 11,-45 -31,-6 -50,12 -64,28l-2 -25 -50 1 1 173 49 -1c12,-54 -26,-138 55,-131z"/>
   <path class="fil2" d="M245 303c1,11 3,19 6,30 2,10 4,21 6,33l22 0c8,-3 17,-77 20,-96 8,-37 27,-47 67,-47l7 -42c-29,-4 -51,15 -62,28l3 -25c-58,0 -46,-12 -56,39 -4,19 -13,63 -13,80z"/>
   <polygon class="fil1" points="1389,433 1336,435 1337,607 1388,607 "/>
   <polygon class="fil1" points="1526,901 1577,900 1577,728 1526,727 "/>
   <path class="fil0" d="M462 221c-54,23 -50,117 5,98 50,-18 50,-121 -5,-98z"/>
   <path class="fil1" d="M1333 382c45,24 45,31 55,36l0 -58 -55 22z"/>
   <path class="fil1" d="M1523 677c10,5 20,10 29,16 6,4 9,6 13,10 7,6 4,5 12,9l-1 -58 -53 23z"/>
  </g>
 </g>
</svg>
