<?xml version="1.0" encoding="UTF-8"?>
<!DOCTYPE svg PUBLIC "-//W3C//DTD SVG 1.0//EN" "http://www.w3.org/TR/2001/REC-SVG-20010904/DTD/svg10.dtd">
<!-- Creator: CorelDRAW X8 -->
<svg xmlns="http://www.w3.org/2000/svg" xml:space="preserve" width="1420px" height="400px" version="1.0" style="shape-rendering:geometricPrecision; text-rendering:geometricPrecision; image-rendering:optimizeQuality; fill-rule:evenodd; clip-rule:evenodd"
viewBox="0 0 18866 5314"
 xmlns:xlink="http://www.w3.org/1999/xlink">
 <defs>
  <style type="text/css">
   <![CDATA[
    .fil5 {fill:#1D1C1D}
    .fil6 {fill:#21374C}
    .fil3 {fill:#222021}
    .fil4 {fill:#222121}
    .fil2 {fill:#232122}
    .fil1 {fill:#242223}
    .fil0 {fill:#528ABE}
   ]]>
  </style>
 </defs>
 <g id="Capa_x0020_1">
  <metadata id="CorelCorpID_0Corel-Layer"/>
  <g id="_2486064484000">
   <path class="fil0" d="M1423 1876c410,-113 738,176 812,484 206,861 -1078,1164 -1296,320 -107,-418 169,-716 484,-804zm-566 -1204c30,33 -21,3 38,41 507,-2 1073,368 1218,646 -83,-5 -123,-98 -314,-186 -944,-437 -2097,361 -1729,1614 80,274 257,487 442,607 306,200 471,183 885,183 705,1 1415,1 2121,10 0,-575 0,-1151 0,-1726 0,-748 53,-932 -385,-1356 -242,-234 -503,-350 -824,-473 -166,-64 -164,-24 -305,52l-1147 588z"/>
   <path class="fil1" d="M5829 3587l232 3 2 -1483c69,90 213,583 265,734 87,256 169,502 256,754 270,0 201,53 340,-346 45,-131 85,-250 132,-383 86,-242 167,-529 265,-756l6 1485 229 0c18,-498 3,-1284 3,-1812l-329 0 -523 1535 -392 -1168c-146,-435 -19,-368 -486,-365l0 1802z"/>
   <path class="fil1" d="M11420 1985l523 0c553,0 459,377 364,487 -145,167 -639,109 -883,109l-5 -72 1 -524zm-243 1535l2 75 239 -3 2 -801c470,0 503,-22 734,308 109,155 215,340 315,496l299 0c-42,-110 -207,-335 -278,-450 -60,-95 -154,-220 -242,-293 -48,-39 -60,-36 -104,-76 62,-36 549,-92 476,-583 -51,-346 -317,-410 -677,-410l-766 0 0 1737z"/>
   <path class="fil1" d="M14965 3587l230 2 2 -1387c68,54 891,1295 944,1391l249 2c20,-454 3,-1316 2,-1812l-231 3 0 1397 -126 -168c-105,-157 -776,-1219 -849,-1232l-221 3 0 1801z"/>
   <path class="fil1" d="M4260 2581l-4 -596c329,0 960,-108 957,295 -2,398 -620,301 -953,301zm-245 1008l239 4 2 -802c194,0 406,-22 543,73 55,39 140,156 189,231 105,162 227,335 318,499l300 -3 -427 -649c-78,-100 -115,-91 -205,-174 625,-106 536,-648 360,-839 -117,-126 -356,-146 -581,-146 -212,-1 -539,-19 -738,6l0 1800z"/>
   <path class="fil1" d="M18408 3351l1 -682 -770 1 3 215 530 2 -1 328c-75,194 -1256,482 -1187,-607 53,-833 1073,-819 1171,-259 80,-15 166,-35 220,-69 -151,-751 -1527,-770 -1637,296 -22,220 20,446 110,617 196,368 654,495 1049,406 301,-68 374,-184 511,-248z"/>
   <path class="fil1" d="M13687 1971c413,-73 679,224 718,595 112,1084 -1149,1108 -1224,249 -39,-448 119,-775 506,-844zm11 -215c-515,51 -811,475 -767,1040 91,1183 1847,1101 1723,-230 -46,-497 -411,-864 -956,-810z"/>
   <path class="fil1" d="M8084 2992l-216 19c-46,651 1016,827 1355,343 129,-185 91,-445 -38,-585 -235,-258 -948,-213 -1012,-476 -94,-383 781,-515 842,19l232 -18c-5,-440 -473,-626 -911,-514 -484,124 -541,662 -153,865 227,119 1126,177 847,594 -102,154 -355,204 -580,151 -242,-58 -296,-161 -366,-398z"/>
   <polygon class="fil1" points="9494,1999 10087,2000 10091,3595 10331,3592 10333,1999 10931,1998 10931,1785 9495,1783 "/>
   <path class="fil2" d="M8564 5121c147,-3 66,8 141,-262 28,-104 91,-206 218,-169 28,121 -49,300 -62,431 145,-3 67,14 142,-269 20,-72 45,-148 124,-167 44,-10 15,-7 49,-3 53,6 29,5 47,15 23,98 -52,304 -63,424 116,-2 76,29 133,-228 29,-129 63,-216 -22,-270 -102,-61 -194,24 -249,59 -57,-136 -193,-87 -270,-5 -14,-76 36,-63 -70,-65 -52,64 -106,403 -118,509z"/>
   <path class="fil3" d="M6336 5118c142,7 77,4 144,-253 33,-124 76,-199 219,-181 27,111 -46,305 -62,437 140,-3 71,19 141,-263 29,-113 83,-204 221,-169 21,104 -47,312 -64,425 111,18 91,-1 114,-119 31,-164 117,-370 -46,-393 -100,-14 -144,35 -185,82l-73 -76c-95,-11 -152,-14 -193,61l-18 -25c-36,-31 21,-37 -83,-29l-115 503z"/>
   <path class="fil2" d="M5733 4887l-92 -16c-77,272 -458,247 -390,-128 22,-119 99,-217 196,-244 66,-19 124,-16 172,24 99,84 -2,107 126,110 22,-36 13,9 14,-44 3,-122 -171,-216 -351,-168 -141,38 -238,185 -257,339 -66,515 538,435 582,127z"/>
   <path class="fil2" d="M17180 4710c196,-167 207,243 74,326 -128,81 -223,-81 -149,-245 32,-72 37,-49 75,-81zm206 -38c-44,-27 -113,-122 -253,-44 -64,36 -112,111 -132,194 -58,242 126,418 286,247 0,0 44,131 101,5l130 -655c-99,2 -86,-41 -132,253z"/>
   <path class="fil2" d="M7385 4700c222,-138 194,260 66,337 -195,119 -227,-237 -66,-337zm-276 614c184,-5 49,-36 151,-259 145,169 323,22 366,-131 66,-236 -106,-445 -278,-260 -111,-171 -127,112 -163,278 -27,125 -53,245 -76,372z"/>
   <path class="fil2" d="M10761 4931c-93,230 -317,126 -230,-115 86,-242 336,-144 230,115zm50 -254c-393,-357 -560,650 -126,423 60,-32 24,-29 61,-5 132,85 -124,-27 34,26 47,-3 42,-39 63,-145l110 -557c-149,3 -62,16 -142,258z"/>
   <path class="fil2" d="M15778 4928c82,-44 145,-45 259,-56 -20,99 -38,154 -121,180 -118,36 -154,-14 -138,-124zm-46 -168c193,8 32,-41 182,-80 108,-28 151,17 142,114 -141,59 -349,-13 -374,159 -30,207 208,198 308,117 55,52 6,49 115,51 -10,-155 91,-390 10,-470 -116,-114 -342,-41 -383,109z"/>
   <path class="fil2" d="M9503 4818c52,-161 255,-234 276,2l-276 -2zm324 134c-153,-7 -74,72 -203,100 -108,24 -137,-70 -141,-163 113,0 275,20 367,-11 98,-294 -329,-410 -438,-74 -122,372 348,427 415,148z"/>
   <path class="fil2" d="M6173 4694c81,241 -103,465 -234,330 -70,-71 -31,-212 9,-272 58,-87 136,-84 225,-58zm-181 -75c-283,108 -235,632 125,494 253,-97 240,-634 -125,-494z"/>
   <path class="fil2" d="M11079 5034c-27,-86 -38,-195 18,-282 41,-63 142,-115 215,-49 95,84 35,427 -233,331zm65 -414c-136,53 -192,182 -180,331 14,157 164,226 318,158 252,-111 213,-626 -138,-489z"/>
   <path class="fil2" d="M13116 4694c83,237 -107,464 -237,333 -60,-61 -35,-210 10,-275 60,-85 138,-85 227,-58zm-181 -75c-292,106 -222,654 138,488 233,-107 229,-621 -138,-488z"/>
   <path class="fil2" d="M8269 4681c210,-75 189,308 34,368 -226,86 -244,-294 -34,-368zm-51 -66c-271,105 -250,619 112,500 285,-93 234,-633 -112,-500z"/>
   <path class="fil4" d="M16751 5048c31,76 -40,71 75,70 36,-58 104,-422 111,-507 -140,2 -66,-2 -143,270 -37,128 -89,194 -235,164 -25,-124 49,-293 57,-434 -115,2 -89,12 -111,133 -12,69 -39,160 -45,227 -21,231 201,173 291,77z"/>
   <path class="fil2" d="M15512 4988c-26,57 -77,95 -162,66 -137,-48 15,-116 -145,-109 -81,186 265,245 365,122 150,-184 -162,-233 -225,-326 21,-54 54,-89 134,-65 140,44 -16,113 160,81 -30,-205 -293,-189 -356,-89 -123,200 181,195 229,320z"/>
   <path class="fil4" d="M13280 5116c102,9 88,18 109,-74 40,-175 36,-391 273,-358 31,102 -42,311 -59,437 129,-2 103,-73 132,-212 27,-130 68,-206 -30,-293 -126,-43 -166,5 -235,66 -33,-78 44,-67 -79,-71l-111 505z"/>
   <path class="fil1" d="M11581 4675c-44,310 266,131 235,361 -253,93 -157,-82 -292,-93 -1,2 -62,23 4,115 66,93 277,95 347,14 66,-75 41,-170 -29,-215 -82,-53 -150,-40 -191,-116 18,-56 62,-95 139,-62 129,56 -25,89 154,85 -25,-201 -200,-200 -367,-89z"/>
   <path class="fil2" d="M14690 5046c32,77 -44,76 76,70l114 -502c-151,-5 -74,7 -146,266 -37,130 -94,192 -238,167 -28,-135 53,-290 58,-436 -113,2 -89,12 -111,132 -12,68 -40,162 -45,228 -15,214 190,185 292,75z"/>
   <path class="fil2" d="M12676 4942c-173,-19 -51,155 -279,105 -65,-147 -32,-390 176,-365 103,72 -5,94 133,90 37,-242 -380,-253 -428,91 -56,395 398,292 398,79z"/>
   <path class="fil2" d="M14128 4645c3,5 9,4 11,11l27 29c29,43 13,59 -12,168 -21,94 -45,168 -23,255 68,20 94,41 157,-5 -2,-68 -19,-33 -75,-76 56,-450 95,-285 160,-382 -3,-4 -8,-14 -10,-10 -2,3 -8,-8 -10,-10 -2,-2 -8,-7 -10,-9 -21,-16 -8,5 -43,-28l29 -153c-139,50 -76,85 -133,155 -45,56 -11,-23 -68,55z"/>
   <path class="fil2" d="M9951 4645c2,5 9,4 10,11 2,6 8,8 10,10 94,109 -70,240 -18,443 66,18 95,39 157,-6 -1,-68 -17,-33 -75,-76 58,-487 93,-280 159,-382 -35,-65 -8,4 -74,-59l33 -151c-62,22 -76,21 -105,88 -66,158 -33,34 -97,122z"/>
   <path class="fil3" d="M16207 5121c104,-2 91,2 114,-123 11,-66 24,-125 38,-190 24,-114 67,-278 75,-390 -120,3 -83,-11 -151,316 -25,118 -62,266 -76,387z"/>
   <path class="fil4" d="M7696 5116c155,13 63,-42 148,-280 89,-244 180,-63 222,-210 -92,-70 -152,12 -184,62 -2,-4 -2,-16 -2,-13l-14 -47c0,0 15,-47 -48,-10 -50,29 -112,434 -122,498z"/>
   <path class="fil3" d="M10188 5121c131,-3 105,-77 131,-214 17,-86 52,-213 55,-295 -89,-2 -76,-18 -101,62 -9,31 -20,108 -27,144 -19,100 -46,202 -58,303z"/>
   <path class="fil5" d="M18678 2057l2 -92c87,-2 115,5 116,46 0,30 -20,45 -118,46zm-45 155c19,-10 47,-6 47,-6 0,0 2,-73 1,-109 46,-2 65,-6 65,-6 37,21 55,104 71,110 15,5 33,-2 49,0 -29,-81 -50,-103 -66,-115 77,-37 61,-128 -16,-148 -41,-11 -92,-12 -154,-6l3 280z"/>
   <path class="fil3" d="M10341 4521c83,-12 69,5 74,-102l-84 4c-19,88 -13,63 10,98z"/>
   <path class="fil6" d="M895 713c-59,-38 -8,-8 -38,-41 -37,-4 -29,-12 -23,25l61 16z"/>
  </g>
 </g>
</svg>
