<?xml version="1.0" encoding="UTF-8"?>
<!DOCTYPE svg PUBLIC "-//W3C//DTD SVG 1.0//EN" "http://www.w3.org/TR/2001/REC-SVG-20010904/DTD/svg10.dtd">
<!-- Creator: CorelDRAW X8 -->
<svg xmlns="http://www.w3.org/2000/svg" xml:space="preserve" width="771px" height="400px" version="1.0" style="shape-rendering:geometricPrecision; text-rendering:geometricPrecision; image-rendering:optimizeQuality; fill-rule:evenodd; clip-rule:evenodd"
viewBox="0 0 786 408"
 xmlns:xlink="http://www.w3.org/1999/xlink">
 <defs>
  <style type="text/css">
   <![CDATA[
    .fil0 {fill:#0075BB;fill-rule:nonzero}
   ]]>
  </style>
 </defs>
 <g id="Capa_x0020_1">
  <metadata id="CorelCorpID_0Corel-Layer"/>
  <g id="_2486058542352">
   <path class="fil0" d="M532 157c-5,-4 -13,-6 -21,-6 -8,0 -16,2 -21,7l0 -52 -25 0 0 168 25 0 0 -87c0,-7 5,-13 15,-14 4,0 10,2 13,6 3,5 3,11 3,18l0 77 25 0 0 -78c0,-23 -3,-31 -14,-39z"/>
   <path class="fil0" d="M349 194c-4,-36 -24,-43 -41,-43 -23,0 -38,15 -41,43 0,3 0,7 0,20 0,10 0,18 0,20 2,27 17,43 41,43 24,0 39,-17 41,-43 0,-2 1,-10 1,-20 0,-4 -1,-16 -1,-20zm-25 20c0,17 0,21 0,23 -1,9 -5,18 -16,18 -10,0 -15,-10 -15,-19 0,0 -1,-5 -1,-22 0,-16 1,-23 1,-23 0,-9 5,-19 15,-19 11,0 16,10 16,19 0,0 0,7 0,23z"/>
   <path class="fil0" d="M620 233c0,0 0,2 0,4 -1,6 -3,18 -16,18 -10,0 -14,-9 -15,-19 0,-2 -1,-5 -1,-16l57 0c0,0 0,-8 0,-13 0,-2 0,-6 0,-13 -1,-10 -5,-22 -11,-30 -8,-9 -18,-13 -30,-13 -23,0 -37,15 -40,43 0,3 0,6 0,20 0,10 0,18 0,20 2,26 17,43 40,43 24,0 39,-16 41,-44l-25 0zm-31 -34c0,-5 0,-7 0,-8 1,-10 5,-19 15,-19 13,0 16,12 16,19 0,3 1,6 0,8l-31 0z"/>
   <path class="fil0" d="M610 0l-434 0 -176 205 176 203 434 0 176 -203 -176 -205zm-424 21l414 0 159 185 -159 183 -414 0 -159 -184 159 -184z"/>
   <path class="fil0" d="M252 264c0,0 -3,-41 -3,-41 -1,-19 -6,-30 -15,-35 6,-4 15,-15 15,-36 0,-33 -20,-44 -44,-44l-39 0 0 166 25 0 0 -76 14 0c8,0 18,7 19,27l3 39c0,6 1,10 1,10l25 0c0,0 -1,-4 -1,-10zm-61 -135l12 0c13,0 21,7 21,19 0,1 0,2 0,4 0,3 0,3 0,4 -1,8 -4,21 -19,21l-14 0 0 -48z"/>
   <path class="fil0" d="M423 232c0,1 0,3 0,4 -1,10 -4,19 -15,19 -11,0 -15,-10 -16,-18 0,-5 0,-9 0,-23 0,-16 0,-20 0,-23 1,-11 5,-19 16,-19 10,0 15,10 15,19 0,0 0,2 0,7l26 0c0,-2 0,-3 -1,-4 -2,-35 -24,-43 -40,-43 -24,0 -39,15 -41,43 0,3 -1,7 -1,20 0,10 1,18 1,20 1,27 17,43 41,43 24,0 38,-15 40,-43 1,-1 1,-2 1,-2l-26 0z"/>
  </g>
 </g>
</svg>
