<?xml version="1.0" encoding="UTF-8"?>
<!DOCTYPE svg PUBLIC "-//W3C//DTD SVG 1.0//EN" "http://www.w3.org/TR/2001/REC-SVG-20010904/DTD/svg10.dtd">
<!-- Creator: CorelDRAW X8 -->
<svg xmlns="http://www.w3.org/2000/svg" xml:space="preserve" width="1065px" height="400px" version="1.0" style="shape-rendering:geometricPrecision; text-rendering:geometricPrecision; image-rendering:optimizeQuality; fill-rule:evenodd; clip-rule:evenodd"
viewBox="0 0 2452 921"
 xmlns:xlink="http://www.w3.org/1999/xlink">
 <defs>
  <style type="text/css">
   <![CDATA[
    .fil0 {fill:#E23600}
   ]]>
  </style>
 </defs>
 <g id="Capa_x0020_1">
  <metadata id="CorelCorpID_0Corel-Layer"/>
  <path class="fil0" d="M1 220c19,-3 45,-12 65,-17 507,-127 1307,-142 1809,-84 102,12 200,24 298,41 77,13 138,26 211,45 22,5 48,14 68,17 -18,-19 -84,-49 -116,-62 -43,-19 -88,-33 -135,-47 -90,-27 -200,-50 -297,-64 -491,-73 -1167,-73 -1649,62 -56,16 -219,71 -254,109zm2443 485c-8,-4 -49,10 -64,14 -526,130 -1276,137 -1803,83 -161,-16 -351,-43 -508,-84 -22,-6 -49,-15 -69,-19 11,18 93,54 117,64 131,53 290,87 431,109 417,66 927,65 1344,2 148,-23 437,-83 552,-169zm-2124 -208l-20 0 -24 99c28,19 50,42 95,52 146,33 261,-117 173,-204 -46,-46 -170,-78 -126,-152 15,-25 59,-48 102,-33 41,15 48,50 45,102l18 0 29 -111c-35,10 -26,7 -57,-5 -102,-41 -230,15 -224,116 3,44 37,66 65,85 25,16 70,40 87,59 32,35 1,84 -21,101 -28,22 -82,26 -112,4 -37,-28 -32,-61 -30,-113zm1037 -114c20,0 24,-1 35,9 3,25 -19,97 -26,126 -10,40 -25,87 -32,128 93,0 74,11 88,-44l35 -139c8,-33 18,-60 42,-74 16,-9 65,-17 54,43 -8,44 -48,153 -30,190 26,51 124,38 130,-41l-14 -3c-8,7 -8,16 -15,27 -9,14 -45,34 -26,-42 10,-40 38,-135 32,-166 -6,-35 -40,-50 -82,-46 -48,4 -62,27 -85,45 2,-17 3,-29 0,-46 -31,4 -46,10 -89,15 -16,2 -15,1 -17,18zm-162 61c-9,48 -28,113 -49,150 -33,60 -95,59 -81,-34 10,-57 27,-106 49,-150 35,-69 97,-54 81,34zm-29 158c13,83 118,53 135,-15l-15 -6c-12,18 -18,38 -43,35 -22,-11 11,-99 19,-130 12,-43 28,-91 38,-133 -12,-5 -56,3 -75,3l-12 37c-11,-29 -15,-42 -54,-43 -135,-2 -221,224 -128,287 21,14 53,20 79,12 25,-8 34,-22 47,-39l9 -8zm602 -92c8,-36 17,-65 33,-94 9,-16 47,-73 73,-39 29,36 -14,138 -106,133zm158 44l-26 0c-39,100 -152,98 -141,-4 3,-29 8,-10 72,-27 163,-43 139,-188 10,-172 -111,14 -176,153 -150,236 24,79 132,85 196,28 10,-9 34,-41 39,-61zm-1065 -290c52,1 38,10 5,143 -11,44 -22,88 -33,132 -13,51 -18,98 34,111 51,13 89,-24 93,-68l-16 -4c-12,18 -11,46 -41,38 -13,-20 5,-70 11,-94l49 -195c8,-31 19,-68 24,-100 -35,6 -63,15 -102,19 -21,2 -24,-3 -24,18zm1129 278c-24,0 -18,4 -23,28 -3,14 -7,28 -8,42 20,14 33,30 67,37 121,26 195,-76 152,-139 -12,-18 -37,-34 -58,-46 -18,-12 -55,-26 -54,-53 1,-28 37,-45 68,-39 33,7 39,32 40,68l18 -1c5,-11 16,-67 18,-81 -45,15 -44,-5 -86,-9 -58,-5 -126,24 -125,86 1,60 76,76 107,106 42,41 -24,120 -88,80 -25,-16 -28,-44 -28,-79zm-1342 -174l-4 14c16,1 23,-1 34,7 7,31 -48,159 -47,209 2,80 131,69 136,-16l-16 -4c-6,17 -19,51 -41,36 -16,-16 54,-217 62,-268 -20,3 -43,9 -62,12 -18,4 -46,5 -62,10zm96 -139c-58,23 -37,100 17,81 48,-17 38,-104 -17,-81z"/>
 </g>
</svg>
