<?xml version="1.0" encoding="UTF-8"?>
<!DOCTYPE svg PUBLIC "-//W3C//DTD SVG 1.0//EN" "http://www.w3.org/TR/2001/REC-SVG-20010904/DTD/svg10.dtd">
<!-- Creator: CorelDRAW X8 -->
<svg xmlns="http://www.w3.org/2000/svg" xml:space="preserve" width="1661px" height="400px" version="1.0" style="shape-rendering:geometricPrecision; text-rendering:geometricPrecision; image-rendering:optimizeQuality; fill-rule:evenodd; clip-rule:evenodd" viewBox="0 0 2395 577" xmlns:xlink="http://www.w3.org/1999/xlink">
 <defs>
  <style type="text/css">
   <![CDATA[
    .fil0 {fill:#ED3642}
    .fil1 {fill:#ED3642;fill-rule:nonzero}
   ]]>
  </style>
 </defs>
 <g id="Capa_x0020_1">
  <metadata id="CorelCorpID_0Corel-Layer"/>
  <g id="_2486081791056">
   <path class="fil0" d="M1613 282c-9,-73 59,-141 129,-142 79,-1 136,62 129,142l-258 0zm-231 -1c-5,-31 -4,-98 -2,-132 1,-53 31,-46 81,-46l-1 -75c-213,-16 -151,94 -165,254l-61 2 1 69 61 2 3 219 80 0 1 -220 146 -1c9,117 72,209 187,219 130,11 217,-56 236,-167l-80 0c-22,115 -251,154 -258,-59l344 -2c10,-163 -78,-304 -250,-273 -81,15 -123,57 -151,118 -9,19 -14,33 -18,52 -11,51 12,43 -154,40z"/>
   <path class="fil0" d="M721 327c5,78 3,115 -47,147 -167,107 -245,-82 -122,-117 10,-3 169,-30 169,-30zm-215 -92c11,-57 28,-84 91,-90 56,-5 111,9 122,56 29,116 -135,51 -242,111 -93,51 -90,174 -13,238 31,26 100,31 149,21 61,-14 78,-40 111,-70 19,29 4,85 111,70 0,-74 1,-50 -28,-64 -20,-189 43,-358 -80,-413 -61,-28 -143,-26 -206,-2 -57,22 -94,61 -92,143l77 0z"/>
   <path class="fil0" d="M0 403c-4,59 31,112 60,136 39,30 97,40 155,37 109,-5 211,-82 173,-207 -29,-95 -208,-80 -266,-126 -31,-24 -33,-93 64,-96 123,-3 83,60 117,77l77 0c-12,-199 -292,-188 -354,-70 -26,51 -19,113 16,145 82,79 258,49 264,126 4,56 -61,73 -120,71 -68,-3 -91,-31 -101,-94l-85 1z"/>
   <path class="fil0" d="M931 573c19,-130 -46,-382 103,-395 150,-13 77,213 98,396l80 -1c10,-61 9,-343 -12,-390 -41,-95 -185,-98 -245,-49l-28 24 0 -43c-21,-5 -55,1 -77,2l1 457 80 -1z"/>
   <path class="fil0" d="M2068 569c17,-239 -60,-418 149,-414l0 -89c-88,-5 -115,37 -152,84l-3 -69 -74 0 1 489 79 -1z"/>
   <path class="fil1" d="M2331 0c11,0 22,3 32,8 10,6 17,13 23,23 6,11 9,21 9,32 0,11 -3,22 -9,32 -5,10 -13,18 -23,23 -10,6 -21,9 -32,9 -11,0 -21,-3 -31,-9 -10,-5 -18,-13 -24,-23 -5,-10 -8,-21 -8,-32 0,-11 3,-21 9,-32 5,-10 13,-17 23,-23 10,-5 21,-8 31,-8zm0 13c-8,0 -17,2 -25,6 -8,4 -14,11 -18,19 -5,8 -7,16 -7,25 0,9 2,18 6,26 5,8 11,14 19,18 8,5 17,7 25,7 9,0 18,-2 26,-7 8,-4 14,-10 19,-18 4,-8 6,-17 6,-26 0,-9 -2,-17 -7,-25 -4,-8 -10,-15 -18,-19 -9,-4 -17,-6 -26,-6zm-28 84l0 -67 13 0c13,0 20,0 22,0 4,1 8,2 10,3 3,1 5,3 7,6 1,3 2,6 2,10 0,5 -1,9 -5,12 -3,4 -7,6 -13,7 2,1 4,1 5,2 1,1 2,3 4,5 1,1 3,4 5,9l8 13 -17 0 -5 -11c-4,-7 -7,-12 -10,-14 -2,-1 -5,-2 -9,-2l-3 0 0 27 -14 0zm14 -38l5 0c8,0 13,0 15,-1 2,-1 3,-2 4,-3 1,-2 2,-3 2,-5 0,-2 -1,-4 -2,-5 -1,-2 -2,-3 -4,-3 -2,-1 -7,-1 -15,-1l-5 0 0 18z"/>
  </g>
 </g>
</svg>
