<?xml version="1.0" encoding="UTF-8"?>
<!DOCTYPE svg PUBLIC "-//W3C//DTD SVG 1.0//EN" "http://www.w3.org/TR/2001/REC-SVG-20010904/DTD/svg10.dtd">
<!-- Creator: CorelDRAW X8 -->
<svg xmlns="http://www.w3.org/2000/svg" xml:space="preserve" width="2109px" height="400px" version="1.0" style="shape-rendering:geometricPrecision; text-rendering:geometricPrecision; image-rendering:optimizeQuality; fill-rule:evenodd; clip-rule:evenodd"
viewBox="0 0 1223 232"
 xmlns:xlink="http://www.w3.org/1999/xlink">
 <defs>
  <style type="text/css">
   <![CDATA[
    .fil0 {fill:#026E78}
    .fil1 {fill:#056D79}
   ]]>
  </style>
 </defs>
 <g id="Capa_x0020_1">
  <metadata id="CorelCorpID_0Corel-Layer"/>
  <g id="_2486081789872">
   <path class="fil0" d="M0 182l0 5c0,1 0,2 1,3l4 8c6,12 19,22 31,27 4,1 16,4 20,5 3,1 11,1 15,1 11,2 24,-2 35,-5 9,-3 19,-8 26,-15 3,-2 10,-9 12,-13 3,-7 5,-10 6,-19 4,-22 -7,-43 -27,-55 -3,-2 -7,-4 -11,-5 -3,-2 -19,-9 -23,-10l-12 -4c-9,-4 -16,-6 -20,-13 -5,-7 -5,-27 16,-28 13,0 25,4 30,17 1,5 1,3 11,1 2,0 3,0 5,-1 2,0 3,0 5,-1l10 -2c2,0 5,0 10,-3 0,-3 -2,-9 -4,-12 -4,-10 -15,-21 -25,-25 -9,-3 -15,-5 -26,-7 -18,-3 -47,2 -61,12 -2,2 -3,3 -5,4 -2,1 -5,4 -7,6 -1,1 -1,1 -2,2 -2,4 -4,6 -6,10 -7,15 -5,41 6,54 1,2 2,3 4,4l4 4c3,2 7,5 10,7 2,0 4,2 6,2 2,1 4,2 6,3l25 8c7,3 17,7 22,11 5,4 9,9 9,15 0,6 1,8 -3,14 -10,17 -40,13 -50,-2 -1,-1 -2,-3 -3,-5 0,-2 -1,-5 -2,-6 -2,-2 -7,0 -10,1l-16 3c-2,1 -3,1 -5,1 -3,0 -4,1 -6,1 -2,1 -4,0 -5,2z"/>
   <path class="fil0" d="M530 97c27,-2 34,24 34,48 0,11 0,27 -4,37 -5,8 -6,12 -15,16 -6,4 -18,3 -25,-1 -5,-3 -7,-6 -9,-10 -6,-10 -6,-23 -7,-35 -1,-10 1,-27 4,-36 3,-6 4,-8 8,-12 3,-3 9,-6 14,-7zm77 65c2,-7 0,-29 -2,-37 -3,-15 -6,-21 -15,-33 -3,-6 -15,-16 -21,-18 -2,-1 -2,-1 -3,-2 -10,-4 -27,-7 -38,-6l-17 3 -7 3c-3,0 -5,2 -7,3 -2,1 -3,2 -6,3 -1,1 -4,3 -5,5 -6,4 -10,10 -14,16 -3,5 -7,15 -8,20 -2,8 -2,9 -2,13 -2,7 -2,16 -1,23 0,3 -1,6 0,9 0,3 1,6 1,9 2,5 3,10 5,15 2,4 4,9 6,12 3,4 4,6 9,11 7,7 5,4 11,9 6,5 20,10 28,11 6,0 12,2 19,1 8,-1 9,-1 16,-3 6,-2 10,-4 14,-6 3,-1 9,-6 12,-8 2,-2 3,-3 5,-5 2,-1 3,-3 4,-5 7,-8 13,-23 15,-34 1,-3 0,-6 1,-9z"/>
   <path class="fil0" d="M880 156c3,0 7,0 11,0 5,0 6,0 6,5 0,8 0,16 0,23 1,15 1,14 -7,16 -11,2 -24,2 -33,-5 -6,-5 -9,-13 -7,-22 2,-7 7,-9 11,-12 2,-1 12,-4 13,-4 2,-1 4,0 6,-1zm56 65c2,-4 1,-49 1,-57 0,-9 0,-38 0,-44 -1,-10 0,-3 -1,-13 -2,-7 -5,-16 -9,-21 -2,-2 -4,-6 -7,-8 -10,-8 -18,-9 -32,-11l-21 -1c-9,1 -21,4 -28,8 -13,7 -22,22 -23,36 0,2 0,5 2,5l36 0c6,-1 -1,-8 11,-18 6,-5 16,-6 22,-2 6,4 10,11 10,18 0,4 1,11 -1,13 -3,0 -7,0 -10,0l-28 3c-21,5 -39,15 -46,37 -2,7 -2,11 -2,18 0,5 0,5 1,9 0,2 0,2 1,4 0,1 0,1 0,2 1,3 7,12 9,14 5,5 4,4 8,7 2,1 2,2 3,3 13,6 14,5 19,7 3,1 12,2 14,2 24,0 52,-4 71,-11z"/>
   <path class="fil0" d="M1057 226c1,-4 0,-63 0,-72 0,-12 0,-24 0,-36 0,-6 -1,-7 8,-10 14,-6 32,-6 35,12 3,14 2,55 2,72 0,5 0,11 0,17 0,5 -1,15 1,18 1,0 30,0 33,0 9,0 8,0 8,-9l0 -100c0,-4 -2,-12 -3,-15 -2,-9 -6,-17 -11,-22 -5,-6 -11,-10 -21,-13 -9,-2 -20,-3 -30,-2 -14,3 -27,5 -40,11 -6,2 -11,4 -17,8 -9,5 -7,2 -7,18l0 116c0,9 1,8 9,8 6,0 11,0 17,0 4,0 13,1 16,-1z"/>
   <path class="fil0" d="M317 227c2,1 22,0 26,0 13,0 15,2 15,-5 0,-2 0,-4 0,-6 0,-10 0,-102 0,-103 1,-2 6,-4 8,-5 2,-1 2,-1 5,-2 2,0 3,-1 5,-1 17,-2 26,7 26,23 1,9 1,18 1,26 0,21 0,44 0,65 -1,10 -4,8 30,8 3,0 10,1 11,-1 1,-2 1,-87 1,-90 0,-20 0,-28 -7,-45 -3,-6 -7,-11 -12,-15 -6,-5 -5,-3 -12,-7 -6,-2 -22,-4 -29,-3 -4,0 -8,1 -11,1 -3,1 -4,1 -6,2 -2,0 -3,0 -5,0l-10 3c-7,3 -22,8 -28,11 -11,7 -9,3 -9,17l0 103c0,4 0,8 0,13 0,3 -1,9 1,11z"/>
   <path class="fil0" d="M653 180c-3,-1 -21,5 -25,5 -2,0 -11,2 -12,3 -3,2 1,9 2,11 2,7 8,14 12,18 7,5 11,6 20,10 6,3 17,4 25,5 6,0 9,-1 14,-1l12 -3c8,-3 13,-5 20,-10 3,-2 6,-5 8,-7l6 -9c3,-5 6,-18 5,-25 -2,-10 -3,-15 -8,-22 -4,-5 -7,-7 -12,-11 -1,-1 -3,-2 -4,-3 -11,-6 -25,-10 -37,-16 -5,-2 -7,-2 -11,-7 -1,0 -2,-1 -2,-1 -4,-5 -4,-17 7,-19 5,-1 8,-1 13,0 12,2 13,13 14,15 2,1 16,-3 19,-3 1,-1 3,0 5,-1 1,0 2,-1 4,-1 2,0 2,-1 4,-1 5,-1 6,0 1,-12 -2,-8 -9,-14 -15,-18 -3,-2 -5,-4 -9,-5 -6,-3 -8,-3 -16,-4 -8,-2 -16,-3 -25,-1 -12,2 -19,3 -29,10 -2,1 -3,2 -5,3 -5,5 -11,12 -13,20 -1,6 -2,19 0,25 1,5 4,11 6,14 4,6 12,11 19,15 3,1 6,2 10,4 6,2 14,4 19,7l10 4c5,3 11,8 11,15 0,3 -2,8 -3,10 -2,2 -5,4 -8,6 -5,1 -8,0 -12,0 -4,0 -8,-2 -10,-3 -10,-6 -9,-14 -10,-17z"/>
   <path class="fil1" d="M256 130c-5,1 -34,0 -41,0 -3,0 -7,1 -7,-3 0,-1 1,-9 1,-9 2,-8 5,-12 9,-17 2,-1 9,-3 12,-3 6,-1 12,0 16,3 9,5 13,23 10,29zm-6 -58c2,0 3,0 4,0l6 0c0,0 0,0 0,0l8 4c0,0 0,0 0,0l9 7c0,1 1,0 1,1 -1,1 -1,1 0,2l5 5c0,0 0,0 0,0l2 3c0,0 1,0 0,2 0,1 0,1 -2,2l0 1c4,0 5,0 5,3 0,1 0,2 0,3 1,1 2,1 2,2 0,0 -2,0 2,0 0,2 1,6 2,9l0 1c1,2 2,4 2,7 0,2 0,3 0,3 1,2 1,1 1,4l1 21c0,3 1,4 -1,6 -3,1 -2,0 -5,0 -6,1 -44,0 -53,0 -6,0 -14,1 -19,0 0,-2 -1,-1 1,-1 1,-1 1,-1 1,0l-4 0c0,-1 0,-1 0,1 -2,0 -2,1 -4,0 -2,0 -2,-1 -4,0 -5,0 1,3 -8,3 -1,-4 -1,-1 -2,-4 0,2 -1,2 -1,2 0,1 -1,1 -1,1 -1,-1 -1,1 -1,-1 -1,0 0,-1 -1,0 0,1 0,1 0,1l-2 -1c0,0 0,0 -1,0 0,0 0,0 0,0 -1,0 0,-1 -1,0 0,1 0,1 0,1l-12 0 1 9 19 0c2,0 1,0 2,-1l2 -1c1,1 0,1 1,2 0,0 0,1 1,1 1,3 0,7 2,10 1,3 0,3 -1,4 -1,2 0,4 -4,4 0,0 0,-1 0,-1 0,0 0,0 -1,0l0 -3 -11 0c-1,0 -3,0 -5,0 -3,0 -4,0 -6,0 0,-6 0,-4 10,-4 4,0 9,0 13,0 0,-3 0,0 0,-2 0,0 0,-1 0,-1l0 0c0,-2 -1,0 -1,-3 0,0 0,-1 0,-2l-21 0c0,2 0,2 -1,3 -2,-1 -1,0 -2,-1 0,-1 0,-2 0,-2 0,-4 -1,-7 0,-11 0,-3 0,-11 0,-14 -2,-4 1,-10 -1,-14 0,-1 0,-1 0,-1 -1,-2 0,-3 0,-5 1,-2 1,-4 3,-5 0,0 0,0 1,0 -1,-1 -1,2 -1,-2 -3,0 2,1 -3,1 0,4 -1,0 -1,4 -1,0 -2,-1 -3,-1 -2,-2 -2,-3 -2,-6 -1,0 -2,0 0,-3 1,-6 1,-4 3,-8l4 -8c3,-5 6,-10 10,-13 1,-1 1,-1 2,-2l1 -1c0,0 0,-1 1,-1 0,0 3,-1 4,-1 0,5 -1,3 -1,4 -4,4 0,-3 -2,1 0,1 0,1 0,2 2,0 3,0 3,2 0,2 0,4 0,5 6,0 3,0 5,-3 1,-1 1,-1 3,-2 1,0 2,0 3,0 0,0 0,-1 0,0l0 -1c-1,-2 -1,-2 -3,-3 0,0 1,0 -1,0 0,3 0,0 -1,2 -1,-1 -1,-1 -2,-1 0,0 0,0 -1,0l-1 -1c1,-1 1,-1 1,-3l3 0c0,-2 0,-2 0,-3 0,-2 0,-1 -1,-2l0 -1c0,0 0,0 -1,0 1,-1 0,0 2,-1 1,-1 2,-1 4,-1l0 3c2,0 2,1 3,0 0,0 0,0 0,0l3 -1c1,1 1,-1 1,2 3,0 -1,-1 3,0 2,0 0,0 4,0 1,0 3,0 3,0l2 -1c2,-1 3,-1 5,-1l2 1c2,1 3,-1 6,1l3 1 -1 1c0,0 0,0 0,1l2 1c2,0 3,-1 5,0 1,1 3,2 2,3 -2,3 0,1 -1,1 -2,2 -1,2 -6,2 0,5 -4,-2 -6,1l0 1c0,0 0,0 0,0l-1 1c-1,2 -7,3 -8,2 -1,0 -2,0 -2,-1 0,-2 1,-1 4,-3 2,-1 0,-2 3,-2l-2 -6c0,0 -1,0 -1,0l-2 1c0,0 0,0 -2,0 2,1 1,0 1,2 -1,1 1,1 -1,1 -1,0 0,0 0,-1l-1 5c0,2 -1,3 -2,3 0,0 -1,0 -2,0 0,2 0,0 0,1 0,2 1,-1 1,2 -1,0 -2,0 -3,0 -1,0 -1,0 -1,1 -1,0 0,-1 0,2 -3,1 -3,1 -2,3l-2 1c0,1 -1,2 -2,3 -1,2 0,4 -2,6 0,0 0,-1 -1,1 -1,2 -1,4 -1,6 -1,3 -3,7 -2,11l1 5c-1,1 1,1 -2,1 0,1 1,1 2,1 2,2 5,2 7,6 7,0 3,0 6,-2l0 -1c-3,0 0,0 -5,-2 0,0 -2,-1 -2,-1 -1,-1 -1,-2 -1,-3l2 -1c1,0 2,0 3,0l40 0c0,-1 0,-1 1,-1 -2,-2 -21,-1 -25,-1 -5,0 -21,-1 -25,1 0,-3 -1,-6 0,-9l1 -3c0,-1 1,-3 0,-3 0,5 -1,7 -1,13 1,0 1,0 1,1 1,0 -1,0 2,0 5,1 35,0 42,0 5,0 8,0 6,-7l0 -13c1,0 0,-1 1,-4l1 -6c0,-2 0,-1 2,-2 0,0 0,0 0,0l1 0c2,0 2,0 3,2 0,2 0,5 -1,7 -2,0 -2,1 -2,-1 0,2 1,2 -2,2 0,1 0,2 1,3 0,0 0,0 0,0l0 9c2,0 2,0 3,-1 0,0 0,0 0,0 1,0 1,0 1,1l1 1c0,0 0,0 0,1l1 1c0,1 1,0 0,0 0,-5 0,-2 -2,-4l0 -1c0,-3 0,-3 1,-3 1,-2 0,-4 1,-6 0,-1 0,-2 0,-4 2,0 4,-2 5,-3 2,1 1,2 1,4 0,1 0,3 1,4l0 0c1,1 1,1 2,2 0,4 -1,0 -1,3 5,0 2,1 7,1 -1,-4 1,-2 0,-4l-1 -4c-1,-1 -1,0 -1,-2 -1,-1 -1,-3 -1,-4l0 -1c0,0 0,0 0,0 0,0 -1,0 -1,0 0,-1 0,-1 -1,-1l-1 -1c-1,-1 -2,-2 -2,-5l5 1c-2,2 -1,-1 -2,-1 2,0 2,0 3,0l0 -3c-1,-1 -2,-2 -4,-3 -3,0 -3,0 -4,2l-1 2c0,0 0,3 0,3 -1,1 0,5 -3,3 -2,-1 -1,-1 -2,-2 -1,-1 0,0 0,0 -2,1 0,0 -2,1l-1 -2c-1,-1 -2,-2 -2,-4 1,-1 0,-1 1,-1l4 -1c0,-2 -3,-2 -5,-2 0,-2 1,0 -2,-1l1 -2c0,0 0,0 0,0 0,0 0,0 0,0l0 -2c-3,0 -3,-2 -4,-2 0,3 0,0 -1,2 -6,0 -7,0 -7,-2 0,-2 1,-1 0,-2 1,-1 -1,1 -2,0 0,1 0,0 0,2 -2,0 -3,0 -5,-1 -2,0 -2,0 -2,-3 1,0 1,0 3,0 0,-3 0,-3 1,-5 0,0 1,0 1,0 1,1 0,-2 0,1 1,0 1,0 2,-1 0,2 0,0 1,3l3 0c0,-2 0,-2 -1,-3zm9 109c-4,4 -4,10 -12,16 -10,7 -29,3 -35,-12 -2,-5 -5,-19 -3,-24 2,0 8,0 11,0l34 0c7,0 41,0 46,0 2,-4 0,-30 -1,-36 -2,-13 -9,-30 -18,-40 -2,-2 -3,-3 -5,-5 -7,-5 -10,-7 -18,-10 -6,-2 -4,-1 -8,-2 -2,-1 -6,-1 -9,-1 -11,-2 -24,0 -33,3 -3,1 -8,4 -10,5 -1,1 -2,1 -3,2 -14,10 -22,25 -27,41 -2,6 -4,19 -4,26 0,5 0,13 0,19 1,2 1,5 1,8 1,3 1,5 2,8 0,4 3,13 4,15 1,3 2,5 3,7 1,2 6,10 8,12 5,5 10,9 17,12l6 3c9,2 16,4 25,4 12,0 10,-1 18,-1 5,-1 21,-6 25,-9 10,-7 15,-13 19,-25 1,-2 4,-13 4,-15 -1,-2 -6,-2 -8,-2 -6,0 -27,0 -29,1z"/>
   <path class="fil0" d="M278 84c0,-1 -1,0 -1,-1l-9 -7c0,0 0,0 0,0l-8 -4c0,0 0,0 0,0l-6 0c-1,0 -2,0 -4,0 1,1 1,1 1,3l-3 0c-1,-3 -1,-1 -1,-3 -1,1 -1,1 -2,1 0,-3 1,0 0,-1 0,0 -1,0 -1,0 -1,2 -1,2 -1,5 -2,0 -2,0 -3,0 0,3 0,3 2,3 2,1 3,1 5,1 0,-2 0,-1 0,-2 1,1 3,-1 2,0 1,1 0,0 0,2 0,2 1,2 7,2 1,-2 1,1 1,-2 1,0 1,2 4,2l0 2c0,0 0,0 0,0 0,0 0,0 0,0l-1 2c3,1 2,-1 2,1 2,0 5,0 5,2l-4 1c-1,0 0,0 -1,1 0,2 1,3 2,4l1 2c2,-1 0,0 2,-1 0,0 -1,-1 0,0 1,1 0,1 2,2 3,2 2,-2 3,-3 0,0 0,-3 0,-3l1 -2c1,-2 1,-2 4,-2 2,1 3,2 4,3l0 3c-1,0 -1,0 -3,0 1,0 0,3 2,1l-5 -1c0,3 1,4 2,5l1 1c1,0 1,0 1,1 0,0 1,0 1,0 0,0 0,0 0,0l0 1c0,1 0,3 1,4 0,2 0,1 1,2l1 4c1,2 -1,0 0,4 -5,0 -2,-1 -7,-1 0,-3 1,1 1,-3 -1,-1 -1,-1 -2,-2l0 0c-1,-1 -1,-3 -1,-4 0,-2 1,-3 -1,-4 -1,1 -3,3 -5,3 0,2 0,3 0,4 -1,2 0,4 -1,6 -1,0 -1,0 -1,3l0 1c2,2 2,-1 2,4 1,0 0,1 0,0l-1 -1c0,-1 0,-1 0,-1l-1 -1c0,-1 0,-1 -1,-1 0,0 0,0 0,0 -1,1 -1,1 -3,1l0 -9c0,0 0,0 0,0 -1,-1 -1,-2 -1,-3 3,0 2,0 2,-2 0,2 0,1 2,1 1,-2 1,-5 1,-7 -1,-2 -1,-2 -3,-2l-1 0c0,0 0,0 0,0 -2,1 -2,0 -2,2l-1 6c-1,3 0,4 -1,4l0 13c2,7 -1,7 -6,7 -7,0 -37,1 -42,0 -3,0 -1,0 -2,0 0,-1 0,-1 -1,-1 0,-6 1,-8 1,-13 1,0 0,2 0,3l-1 3c-1,3 0,6 0,9 4,-2 20,-1 25,-1 4,0 23,-1 25,1 -1,0 -1,0 -1,1l-40 0c-1,0 -2,0 -3,0l-2 1c0,1 0,2 1,3 0,0 2,1 2,1 5,2 2,2 5,2l0 1c-3,2 1,2 -6,2 -2,-4 -5,-4 -7,-6 -1,0 -2,0 -2,-1 3,0 1,0 2,-1l-1 -5c-1,-4 1,-8 2,-11 0,-2 0,-4 1,-6 1,-2 1,-1 1,-1 2,-2 1,-4 2,-6 1,-1 2,-2 2,-3l2 -1c-1,-2 -1,-2 2,-3 0,-3 -1,-2 0,-2 0,-1 0,-1 1,-1 1,0 2,0 3,0 0,-3 -1,0 -1,-2 0,-1 0,1 0,-1 1,0 2,0 2,0 1,0 2,-1 2,-3l1 -5c0,1 -1,1 0,1 2,0 0,0 1,-1 0,-2 1,-1 -1,-2 2,0 2,0 2,0l2 -1c0,0 1,0 1,0l2 6c-3,0 -1,1 -3,2 -3,2 -4,1 -4,3 0,1 1,1 2,1 1,1 7,0 8,-2l1 -1c0,0 0,0 0,0l0 -1c2,-3 6,4 6,-1 5,0 4,0 6,-2 1,0 -1,2 1,-1 1,-1 -1,-2 -2,-3 -2,-1 -3,0 -5,0l-2 -1c0,-1 0,-1 0,-1l1 -1 -3 -1c-3,-2 -4,0 -6,-1l-2 -1c-2,0 -3,0 -5,1l-2 1c0,0 -2,0 -3,0 -4,0 -2,0 -4,0 -4,-1 0,0 -3,0 0,-3 0,-1 -1,-2l-3 1c0,0 0,0 0,0 -1,1 -1,0 -3,0l0 -3c-2,0 -3,0 -4,1 -2,1 -1,0 -2,1 1,0 1,0 1,0l0 1c1,1 1,0 1,2 0,1 0,1 0,3l-3 0c0,2 0,2 -1,3l1 1c1,0 1,0 1,0 1,0 1,0 2,1 1,-2 1,1 1,-2 2,0 1,0 1,0 2,1 2,1 3,3l0 1c0,-1 0,0 0,0 -1,0 -2,0 -3,0 -2,1 -2,1 -3,2 -2,3 1,3 -5,3 0,-1 0,-3 0,-5 0,-2 -1,-2 -3,-2 0,-1 0,-1 0,-2 2,-4 -2,3 2,-1 0,-1 1,1 1,-4 -1,0 -4,1 -4,1 -1,0 -1,1 -1,1l-1 1c-1,1 -1,1 -2,2 -4,3 -7,8 -10,13l-4 8c-2,4 -2,2 -3,8 -2,3 -1,3 0,3 0,3 0,4 2,6 1,0 2,1 3,1 0,-4 1,0 1,-4 5,0 0,-1 3,-1 0,4 0,1 1,2 -1,0 -1,0 -1,0 -2,1 -2,3 -3,5 0,2 -1,3 0,5 0,0 0,0 0,1 2,4 -1,10 1,14 0,3 0,11 0,14 -1,4 0,7 0,11 0,0 0,1 0,2 1,1 0,0 2,1 1,-1 1,-1 1,-3l21 0c0,1 0,2 0,2 0,3 1,1 1,3l0 0c0,0 0,1 0,1 0,2 0,-1 0,2 -4,0 -9,0 -13,0 -10,0 -10,-2 -10,4 2,0 3,0 6,0 2,0 4,0 5,0l11 0 0 3c1,0 1,0 1,0 0,0 0,1 0,1 4,0 3,-2 4,-4 1,-1 2,-1 1,-4 -2,-3 -1,-7 -2,-10 -1,0 -1,-1 -1,-1 -1,-1 0,-1 -1,-2l-2 1c-1,1 0,1 -2,1l-19 0 -1 -9 12 0c0,0 0,0 0,-1 1,-1 0,0 1,0 0,0 0,0 0,0 1,0 1,0 1,0l2 1c0,0 0,0 0,-1 1,-1 0,0 1,0 0,2 0,0 1,1 0,0 1,0 1,-1 0,0 1,0 1,-2 1,3 1,0 2,4 9,0 3,-3 8,-3 2,-1 2,0 4,0 2,1 2,0 4,0 0,-2 0,-2 0,-1l4 0c0,-1 0,-1 -1,0 -2,0 -1,-1 -1,1 5,1 13,0 19,0 9,0 47,1 53,0 3,0 2,1 5,0 2,-2 1,-3 1,-6l-1 -21c0,-3 0,-2 -1,-4 0,0 0,-1 0,-3 0,-3 -1,-5 -2,-7l0 -1c-1,-3 -2,-7 -2,-9 -4,0 -2,0 -2,0 0,-1 -1,-1 -2,-2 0,-1 0,-2 0,-3 0,-3 -1,-3 -5,-3l0 -1c2,-1 2,-1 2,-2 1,-2 0,-2 0,-2l-2 -3c0,0 0,0 0,0l-5 -5c-1,-1 -1,-1 0,-2z"/>
   <path class="fil0" d="M996 227c1,-3 0,-4 0,-10l0 -135c0,-13 4,-12 -17,-12 -25,0 -23,-2 -23,7l0 145c0,2 -1,3 0,5 2,0 34,0 40,0z"/>
   <path class="fil0" d="M756 72c-1,8 0,154 0,154 1,1 3,1 6,1l29 0c2,0 3,0 5,-1 1,-2 0,-127 0,-151 0,-5 -1,-5 -6,-5l-31 0c-2,0 -2,1 -3,2z"/>
   <path class="fil0" d="M1188 189c-5,0 -6,-2 -5,-7 0,-2 1,-3 3,-3 4,0 13,0 11,7 -1,3 -5,3 -9,3zm35 2l0 6c0,1 -2,1 -2,1 0,1 -1,3 -1,4 0,1 -1,4 -2,6 -2,4 -3,7 -6,10 -4,4 -4,5 -10,8 -7,4 -13,4 -21,2 -9,-2 -18,-11 -22,-20 -1,-4 -3,-9 -3,-14 0,-10 4,-19 9,-25 9,-10 22,-15 35,-9 8,3 13,9 17,16 1,2 4,10 4,12 1,1 1,0 2,1 0,1 0,2 0,2zm-41 20c1,-2 0,-10 1,-13 0,-2 2,-3 3,-3 2,1 3,2 4,4 0,1 0,2 1,2 0,2 0,1 1,3 1,1 1,3 2,4 3,6 4,3 10,4 0,3 -1,3 -3,4 -1,1 -2,2 -4,2 -3,2 -5,2 -10,2 -6,0 -9,-2 -13,-6 -1,-1 -2,-2 -3,-3 -4,-5 -7,-11 -6,-19 0,-6 3,-15 7,-19 2,-1 3,0 4,-2 1,-2 1,-2 3,-3 7,-3 14,-2 21,1 2,1 5,4 6,6 11,12 6,34 -1,37l-2 -4c-1,-1 -2,-2 -2,-3 -9,-15 2,-6 4,-17 1,-4 0,-9 -2,-12 -2,-3 -8,-3 -12,-3 -3,0 -13,-1 -15,0 -1,3 -1,28 -1,35 0,2 0,4 2,4 2,0 4,0 5,-1z"/>
   <path class="fil0" d="M767 1c-3,0 -6,2 -7,4 -11,8 -9,33 5,38 7,2 12,3 19,1 6,-2 10,-5 12,-11 6,-12 3,-24 -8,-31 -4,-2 -16,-2 -21,-1z"/>
   <path class="fil0" d="M968 0c-5,1 -10,6 -13,11 -2,5 -3,12 -1,19 4,13 18,17 29,14 7,-2 10,-5 13,-10 2,-3 2,-5 3,-9 0,-3 0,-6 -1,-10 -1,-3 -1,-4 -3,-7 -2,-3 -4,-4 -6,-6 -3,-2 -5,-2 -10,-2 -3,0 -8,0 -11,0z"/>
  </g>
 </g>
</svg>
