<?xml version="1.0" encoding="UTF-8"?>
<!DOCTYPE svg PUBLIC "-//W3C//DTD SVG 1.0//EN" "http://www.w3.org/TR/2001/REC-SVG-20010904/DTD/svg10.dtd">
<!-- Creator: CorelDRAW X8 -->
<svg xmlns="http://www.w3.org/2000/svg" xml:space="preserve" width="298px" height="400px" version="1.0" style="shape-rendering:geometricPrecision; text-rendering:geometricPrecision; image-rendering:optimizeQuality; fill-rule:evenodd; clip-rule:evenodd"
viewBox="0 0 110 148"
 xmlns:xlink="http://www.w3.org/1999/xlink">
 <defs>
  <style type="text/css">
   <![CDATA[
    .fil0 {fill:#AB1530;fill-rule:nonzero}
   ]]>
  </style>
 </defs>
 <g id="Capa_x0020_1">
  <metadata id="CorelCorpID_0Corel-Layer"/>
  <path class="fil0" d="M110 0l-109 0 0 110 109 0 0 -110zm-40 17c1,0 2,-1 2,-2 0,-1 -1,-2 -2,-2 -1,0 -2,1 -2,2 0,1 1,2 2,2zm-65 116c-1,0 -3,0 -5,-2l0 4c2,1 3,2 5,2 3,0 6,-2 6,-6 0,-6 -7,-5 -7,-8 0,0 0,-1 2,-1 1,0 2,0 4,2l0 -4c-2,-1 -3,-1 -5,-1 -3,0 -5,2 -5,5 0,6 7,5 7,8 0,1 -1,1 -2,1zm-4 15l108 0 0 -4 -108 0 0 4zm101 -29l-6 0 0 17 6 0c6,0 8,-3 8,-8 0,-5 -3,-9 -8,-9zm0 14l0 0 -2 0 0 -11 2 0c3,0 5,3 5,6 0,2 -2,5 -5,5zm-9 0l-6 0 0 -4 6 0 0 -3 -6 0 0 -4 6 0 0 -3 -10 0 0 17 10 0 0 -3zm-13 -14l-4 0 0 17 4 0 0 -17zm-5 17c-2,-5 -3,-7 -4,-8 1,-1 2,-2 2,-4 0,-3 -2,-5 -4,-5l-7 0 0 17 4 0 0 -7 1 0c2,0 2,4 4,7l4 0zm-7 -10l0 0 -2 0 0 -4 2 0c1,0 2,1 2,2 0,2 -1,2 -2,2zm-15 3l7 0 0 -3 -7 0 0 -4 7 0 0 -3 -10 0 0 17 3 0 0 -7zm-12 8c2,0 5,-1 6,-3l0 -7 -6 0 0 3 2 0 0 2c-1,1 -1,1 -2,1 -3,0 -5,-2 -5,-5 0,-3 1,-6 5,-6 2,0 4,1 5,2l0 -4c-1,-1 -3,-1 -5,-1 -5,0 -9,3 -9,9 0,5 4,9 9,9zm-11 -15l0 -3 -10 0 0 17 10 0 0 -3 -6 0 0 -4 6 0 0 -3 -6 0 0 -4 6 0zm-13 14l0 -17 -4 0 0 17 4 0zm43 -70c0,0 6,7 2,14 0,0 -4,7 -13,6 0,0 -5,0 -13,-9 0,0 2,10 12,14 0,0 8,3 16,-1 0,0 11,-4 12,-15 0,0 2,-11 -6,-19l30 0c0,0 1,17 -12,31l0 0c0,0 -11,14 -32,14 0,0 -23,1 -39,-21 0,0 -5,-9 -6,-24l40 0c0,0 3,2 9,10zm10 -10l-19 0c-4,-3 -10,-10 -10,-10 -6,-6 -8,-10 -8,-10 -3,-8 1,-16 1,-16 5,-10 18,-11 18,-11 19,-2 27,7 27,7 -1,1 -4,4 -4,4 -5,3 -8,2 -8,2 -2,-1 -5,-2 -6,-3 0,0 -1,0 -1,0 -1,-1 -3,-1 -3,-1 -6,-1 -10,3 -10,3 -6,7 1,14 1,14 6,8 22,21 22,21z"/>
 </g>
</svg>
