<?xml version="1.0" encoding="UTF-8"?>
<!DOCTYPE svg PUBLIC "-//W3C//DTD SVG 1.0//EN" "http://www.w3.org/TR/2001/REC-SVG-20010904/DTD/svg10.dtd">
<!-- Creator: CorelDRAW X8 -->
<svg xmlns="http://www.w3.org/2000/svg" xml:space="preserve" width="400px" height="400px" version="1.0" style="shape-rendering:geometricPrecision; text-rendering:geometricPrecision; image-rendering:optimizeQuality; fill-rule:evenodd; clip-rule:evenodd" viewBox="0 0 83 83" xmlns:xlink="http://www.w3.org/1999/xlink">
 <defs>
  <style type="text/css">
   <![CDATA[
    .fil0 {fill:#0053A3}
   ]]>
  </style>
 </defs>
 <g id="Capa_x0020_1">
  <metadata id="CorelCorpID_0Corel-Layer"/>
  <path class="fil0" d="M0 35c0,0 1,-3 1,-4 0,-1 0,-2 1,-3 1,-5 4,-10 8,-14l2 -2c0,0 1,-1 1,-1 3,-3 5,-4 9,-7 6,-3 12,-4 13,-4l-35 0 0 35zm69 4l4 0 0 5 -4 0 0 -5zm-33 -6l0 0c-1,0 -3,0 -3,0 0,0 -2,0 -3,0l0 17c1,0 10,0 11,0l0 33 1 0 0 -33 4 0 0 -17 -4 0 0 -33 -1 0 0 33 -1 0 0 11 -4 0 0 -11zm27 17c0,0 0,0 0,0 3,0 15,0 16,0l0 -17 -10 0 0 -9 -6 0 0 26zm-9 -11c1,0 6,0 7,0l0 -6 -13 0c0,1 0,16 0,17l13 0 0 -6c-1,0 -5,0 -7,0l0 -5zm-6 44l35 0 0 -35c0,0 0,1 0,1 -2,8 -6,16 -12,22l-1 2c-1,0 -1,0 -1,0 -1,1 -2,2 -2,2 -4,3 -8,5 -12,6 -1,1 -2,1 -3,1 -1,0 -4,1 -4,1zm-48 0l35 0c-1,0 -7,-1 -13,-4 -1,-1 -2,-1 -3,-2 -1,-1 -2,-1 -3,-2 0,0 -3,-2 -3,-3 0,0 0,0 -1,0l-1 -1c0,-1 0,-1 0,-1l-2 -2c-3,-4 -6,-8 -7,-13 -1,-1 -1,-2 -1,-3 0,-1 -1,-4 -1,-4l0 35zm83 -48l0 -35 -35 0c0,0 2,0 2,0 6,2 13,5 18,9l2 2c0,0 1,0 1,1 3,3 5,6 8,10 1,2 2,4 2,6 1,1 1,2 1,3l1 4z"/>
 </g>
</svg>
