<?xml version="1.0" encoding="UTF-8"?>
<!DOCTYPE svg PUBLIC "-//W3C//DTD SVG 1.0//EN" "http://www.w3.org/TR/2001/REC-SVG-20010904/DTD/svg10.dtd">
<!-- Creator: CorelDRAW X8 -->
<svg xmlns="http://www.w3.org/2000/svg" xml:space="preserve" width="1194px" height="400px" version="1.0" style="shape-rendering:geometricPrecision; text-rendering:geometricPrecision; image-rendering:optimizeQuality; fill-rule:evenodd; clip-rule:evenodd"
viewBox="0 0 4287 1436"
 xmlns:xlink="http://www.w3.org/1999/xlink">
 <defs>
  <style type="text/css">
   <![CDATA[
    .fil0 {fill:#E3001B;fill-rule:nonzero}
   ]]>
  </style>
 </defs>
 <g id="Capa_x0020_1">
  <metadata id="CorelCorpID_0Corel-Layer"/>
  <path class="fil0" d="M2138 0c-1397,0 -2138,991 -2138,991l304 206c0,0 36,-92 120,-224 1,33 5,56 5,56 54,417 459,407 459,407l2509 0c0,0 410,11 463,-405 0,0 5,-22 5,-55 82,129 119,218 119,218l303 -203c0,0 -752,-991 -2149,-991zm1337 1035c0,0 -27,13 -39,1 -11,-12 -1,-35 -1,-35l113 -238 -115 0 -18 32c-67,-59 -194,-29 -273,53 -45,48 -71,104 -74,153 -13,8 -34,21 -62,32 0,0 -27,13 -39,1 -12,-12 -1,-35 -1,-35l201 -414 -115 0 -106 208c-67,-59 -194,-29 -273,53 -16,17 -29,35 -40,53l0 -1c-1,2 -2,4 -2,5 -3,4 -5,8 -7,13 -63,108 -141,126 -141,126 -165,50 -184,-31 -184,-31 185,-68 254,-149 248,-211 -6,-62 -92,-65 -92,-65 -139,-9 -260,89 -289,185 -9,29 -12,59 -7,86 -55,30 -88,34 -88,34 -46,15 -52,-7 -57,-20 -6,-14 -27,-133 -27,-133l196 -128 -120 0 -147 91c-33,14 -21,-21 -21,-21l121 -244 -116 0 -195 396c-22,13 -67,39 -100,52 0,0 -27,13 -39,1 -12,-12 -1,-35 -1,-35l113 -238 -115 0 -18 32c-67,-59 -194,-29 -273,53 -78,83 -98,191 -45,242 43,42 121,34 190,-13 0,0 18,-15 27,3 10,18 50,59 142,23 29,-11 55,-24 78,-37l-24 49 115 0 58 -117 50 -32c0,0 16,-13 22,13 0,0 25,99 35,111 9,13 28,42 110,19 62,-18 120,-40 150,-53 27,38 80,63 165,63 127,0 216,-61 254,-92 3,25 12,47 29,63 43,42 121,34 190,-13 0,0 18,-15 27,3 10,18 50,59 142,23 42,-16 70,-32 88,-45 5,13 12,25 22,35 44,41 121,33 190,-14 0,0 18,-15 27,3 10,18 50,60 141,23 92,-36 118,-68 118,-68l-23 -41c-3,2 -31,24 -75,41zm-2003 -68l0 0c-41,56 -97,85 -127,63 -29,-21 -21,-83 18,-140 40,-56 97,-84 127,-63 30,21 21,84 -18,140zm818 -41l0 0c0,0 26,-87 110,-122 0,0 23,-8 36,3 0,0 18,17 -3,49 -19,28 -65,80 -115,98 0,0 -45,19 -28,-28zm582 41l0 0c-40,56 -96,85 -126,63 -29,-21 -21,-83 18,-140 40,-56 97,-84 127,-63 29,21 21,84 -19,140zm469 2l0 0c-40,56 -96,85 -126,64 -30,-22 -21,-84 19,-140 39,-57 96,-85 126,-64 30,21 21,84 -19,140zm-1935 -292l42 -90 -536 0 -42 90 208 0 -215 437 139 0 215 -437 189 0zm2392 347c0,0 -54,319 -407,319l-2504 0c-353,0 -402,-322 -402,-322 -14,-85 3,-143 29,-184 254,-334 755,-782 1623,-782 875,0 1381,455 1634,789 29,37 40,98 27,180z"/>
 </g>
</svg>
