<?xml version="1.0" encoding="UTF-8"?>
<!DOCTYPE svg PUBLIC "-//W3C//DTD SVG 1.0//EN" "http://www.w3.org/TR/2001/REC-SVG-20010904/DTD/svg10.dtd">
<!-- Creator: CorelDRAW X8 -->
<svg xmlns="http://www.w3.org/2000/svg" xml:space="preserve" width="675px" height="400px" version="1.0" style="shape-rendering:geometricPrecision; text-rendering:geometricPrecision; image-rendering:optimizeQuality; fill-rule:evenodd; clip-rule:evenodd"
viewBox="0 0 207 123"
 xmlns:xlink="http://www.w3.org/1999/xlink">
 <defs>
  <style type="text/css">
   <![CDATA[
    .fil1 {fill:#040707}
    .fil0 {fill:#EC232A}
   ]]>
  </style>
 </defs>
 <g id="Capa_x0020_1">
  <metadata id="CorelCorpID_0Corel-Layer"/>
  <g id="_2486051087840">
   <path class="fil0" d="M56 86l94 0 0 -86 -43 0 0 55c0,2 5,1 9,1l29 0c0,7 -8,16 -15,19 -27,17 -64,4 -69,-19l39 0 0 -56 -44 0 0 86z"/>
   <path class="fil1" d="M148 122l3 0c0,-8 2,-14 2,-20l10 20c1,0 0,0 1,-2l9 -17c0,0 0,0 0,0l1 -1c0,5 1,15 1,20l4 0 -3 -28c-2,1 -1,2 -3,5l-10 16 -8 -16c-1,-3 -2,-4 -3,-5l-3 21c-1,2 -1,5 -1,7z"/>
   <path class="fil1" d="M51 108c0,-17 21,-16 21,-1l0 3c0,14 -21,15 -21,-2zm-4 -1c0,5 0,9 5,13 7,5 25,4 25,-12 0,-8 -6,-14 -14,-14 -5,0 -8,0 -12,4 -2,2 -4,5 -4,9z"/>
   <path class="fil1" d="M132 107l-3 0 1 -10c4,0 9,-1 9,4 0,4 -3,6 -7,6zm-6 -10l0 23c0,2 -2,2 4,2l-1 -13c2,0 2,1 4,3 8,11 6,10 12,10l-5 -7c-1,-1 -5,-5 -5,-7 9,0 13,-13 -1,-13 -2,0 -3,0 -6,0 -4,-1 -2,0 -2,2z"/>
   <path class="fil1" d="M12 100c0,2 1,3 2,5 0,1 1,3 1,4 -1,0 -1,1 -3,1 -2,0 -2,-1 -4,-1 0,-2 1,-3 2,-4 0,-2 1,-4 2,-5zm-12 22l3 0c0,-2 3,-9 4,-10l10 0 4 10 4 0 -11 -25c0,-2 0,-3 -2,-3 -1,5 -12,26 -12,28z"/>
   <path class="fil1" d="M193 101l1 0c0,1 1,3 2,4 0,1 1,3 1,4 -1,0 -1,1 -3,1 -2,0 -2,-1 -5,-1 1,-1 4,-7 4,-8zm-11 21l3 0 3 -10 11 0c0,2 3,7 3,10l5 0c-2,-5 -7,-15 -9,-21l-3 -7 -1 0c0,2 -1,2 -2,3l-9 21c0,2 -1,3 -1,4z"/>
   <path class="fil1" d="M108 101l0 0c1,2 3,6 4,8 -2,0 -1,1 -4,1 -2,0 -2,-1 -4,-1 1,-1 1,-2 2,-4 1,-1 2,-3 2,-4zm-12 21l3 0 4 -10 10 0c1,1 4,8 4,10l4 0c0,-2 -10,-23 -11,-28 -2,0 -1,-1 -3,3 0,1 -1,2 -1,4l-7 14c-1,2 -2,5 -3,7z"/>
   <path class="fil1" d="M28 102c0,8 12,7 12,12 0,8 -6,7 -9,5 -2,-1 -1,-2 -3,-3 0,2 0,3 -1,4 3,2 6,3 11,2 3,-1 6,-5 6,-8 0,-10 -13,-5 -13,-14 0,-3 3,-4 5,-4 4,0 4,3 5,4 1,-1 1,-3 2,-4 -3,-1 -1,-2 -7,-2 -5,0 -8,3 -8,8z"/>
   <path class="fil1" d="M82 104l0 9c0,3 -1,5 -1,9 7,0 4,0 4,-5l0 -9c4,0 7,1 10,1l0 -3 -10 0 0 -9 7 0c3,0 4,1 4,0 2,-4 -5,-2 -7,-2 -3,0 -4,0 -8,0 0,3 1,5 1,9z"/>
  </g>
 </g>
</svg>
