<?xml version="1.0" encoding="UTF-8"?>
<!DOCTYPE svg PUBLIC "-//W3C//DTD SVG 1.0//EN" "http://www.w3.org/TR/2001/REC-SVG-20010904/DTD/svg10.dtd">
<!-- Creator: CorelDRAW X8 -->
<svg xmlns="http://www.w3.org/2000/svg" xml:space="preserve" width="1256px" height="400px" version="1.0" style="shape-rendering:geometricPrecision; text-rendering:geometricPrecision; image-rendering:optimizeQuality; fill-rule:evenodd; clip-rule:evenodd"
viewBox="0 0 894 285"
 xmlns:xlink="http://www.w3.org/1999/xlink">
 <defs>
  <style type="text/css">
   <![CDATA[
    .fil2 {fill:#004B8D}
    .fil0 {fill:#004B8D;fill-rule:nonzero}
    .fil1 {fill:#ED2327;fill-rule:nonzero}
   ]]>
  </style>
 </defs>
 <g id="Capa_x0020_1">
  <metadata id="CorelCorpID_0Corel-Layer"/>
  <g id="_2485999437632">
   <path class="fil0" d="M141 1c-5,1 -94,20 -133,116 0,0 -40,104 59,155 0,0 61,37 131,-16 0,0 56,-33 39,-120 0,0 -9,-43 -43,-65 0,0 -30,-12 -21,19 0,0 19,26 24,49 0,0 10,62 -63,75 0,0 -68,1 -71,-69 0,0 -5,-47 68,-85 0,0 29,-12 37,-32 0,0 6,-34 -27,-27z"/>
   <path class="fil1" d="M97 149c0,-19 15,-34 34,-34 20,0 35,15 35,34 0,20 -15,35 -35,35 -19,0 -34,-15 -34,-35z"/>
   <path class="fil2" d="M382 169c0,16 -18,28 -36,28 -15,0 -22,-8 -22,-21 0,-14 16,-17 26,-19 24,-3 29,-5 32,-7l0 19zm-54 -41c1,-9 5,-23 27,-23 19,0 28,7 28,20 0,11 -6,13 -11,13l-32 5c-33,4 -36,27 -36,36 0,21 15,34 37,34 23,0 35,-10 42,-19 1,9 4,18 21,18 5,0 8,-1 11,-2l0 -14c-2,0 -5,1 -6,1 -4,0 -7,-3 -7,-7l0 -68c0,-30 -34,-33 -44,-33 -29,0 -47,11 -48,39l18 0z"/>
   <path class="fil0" d="M521 126c0,-6 -3,-37 -45,-37 -23,0 -44,12 -44,38 0,16 11,24 27,28l23 6c17,4 23,7 23,17 0,13 -12,18 -27,18 -27,0 -30,-15 -31,-24l-19 0c1,14 4,41 51,41 26,0 46,-14 46,-39 0,-16 -8,-24 -33,-31l-20 -5c-15,-3 -21,-6 -21,-15 0,-15 17,-17 23,-17 25,0 28,12 28,20l19 0z"/>
   <path class="fil2" d="M546 240l20 0 0 -42 1 0c5,8 15,15 31,15 40,0 56,-37 56,-65 0,-33 -22,-59 -53,-59 -22,0 -31,13 -36,20l0 0 0 -17 -19 0 0 148zm19 -83c0,-19 3,-50 32,-50 31,0 37,29 37,44 0,26 -15,45 -37,45 -12,0 -32,-8 -32,-39z"/>
   <path class="fil2" d="M688 142c0,-18 15,-35 33,-35 24,0 32,17 33,35l-66 0zm65 31c-1,9 -12,23 -30,23 -23,0 -35,-14 -35,-38l86 0c0,-42 -16,-69 -50,-69 -39,0 -57,29 -57,65 0,34 20,59 53,59 19,0 26,-4 32,-8 15,-10 20,-26 21,-32l-20 0z"/>
   <path class="fil0" d="M894 130c0,-34 -23,-41 -41,-41 -21,0 -32,14 -36,20l0 0 0 -17 -19 0 0 118 20 0 0 -64c0,-32 19,-39 31,-39 19,0 25,10 25,31l0 72 20 0 0 -80z"/>
  </g>
 </g>
</svg>
