<?xml version="1.0" encoding="UTF-8"?>
<!DOCTYPE svg PUBLIC "-//W3C//DTD SVG 1.0//EN" "http://www.w3.org/TR/2001/REC-SVG-20010904/DTD/svg10.dtd">
<!-- Creator: CorelDRAW X8 -->
<svg xmlns="http://www.w3.org/2000/svg" xml:space="preserve" width="2744px" height="400px" version="1.0" style="shape-rendering:geometricPrecision; text-rendering:geometricPrecision; image-rendering:optimizeQuality; fill-rule:evenodd; clip-rule:evenodd"
viewBox="0 0 3369 491"
 xmlns:xlink="http://www.w3.org/1999/xlink">
 <defs>
  <style type="text/css">
   <![CDATA[
    .fil0 {fill:#417BBA}
   ]]>
  </style>
 </defs>
 <g id="Capa_x0020_1">
  <metadata id="CorelCorpID_0Corel-Layer"/>
  <g id="_2486060455424">
   <path class="fil0" d="M2112 134c53,0 113,-13 108,47 -2,26 -14,34 -36,41 -34,10 -43,0 -54,24 -13,25 70,118 92,144l110 -1c-13,-33 -91,-103 -95,-134 39,-20 66,-17 78,-61 43,-154 -185,-119 -295,-117l0 313 92 0 0 -256zm-675 255l0 -53 -119 0 -1 -259 -91 0c-8,74 -1,182 -2,260 0,64 18,53 78,53 45,0 90,1 135,-1zm38 -312c-3,61 -7,255 2,305 36,17 159,9 211,8l0 -54 -121 0 -1 -259 -91 0zm499 315l-2 -56 -153 0 -1 -75 154 0 -1 -58 -153 0 0 -69 153 0 1 -57c-53,0 -213,-14 -243,14 -8,20 -7,268 0,294 50,16 180,-2 245,7zm850 -128c3,-23 30,-121 49,-130 20,10 43,118 44,130l-93 0zm-101 125l58 1c13,-20 13,-47 24,-68l130 -2 19 70 99 0c-4,-22 -19,-66 -27,-91 -8,-26 -18,-62 -28,-93 -9,-32 -19,-62 -27,-93 -6,-20 -3,-30 -22,-35 -11,-3 -49,-1 -62,-1 -87,0 -57,-16 -107,128 -11,30 -19,60 -29,92 -9,30 -23,63 -28,92zm-1763 -125c6,-24 31,-119 48,-130 16,6 14,8 20,29l28 101 -96 0zm115 73l16 53 98 1c-4,-27 -82,-303 -99,-311 -20,-7 -110,-7 -126,1 -19,10 -31,75 -39,101l-65 206 61 2 20 -69 106 -2c25,1 23,-2 28,18zm1372 45c48,26 133,22 184,3 16,-7 33,-17 49,-24l0 -109 -90 0 -3 69c-66,59 -141,-14 -127,-108 6,-42 25,-70 60,-80 54,-15 84,29 97,39 8,-4 48,-44 54,-58 -129,-90 -316,-45 -310,126 2,61 32,114 86,142zm801 -3c23,18 84,14 121,9l0 -311 -52 0 -1 217c-23,-32 -52,-115 -71,-156 -14,-33 -14,-58 -50,-61 -35,-3 -82,-2 -106,9l-3 302 62 2 0 -236 100 225z"/>
   <path class="fil0" d="M31 275c30,0 160,4 180,-3l19 -7c4,-2 2,-1 8,-2l101 0c53,0 107,0 161,0 6,0 12,0 18,0 3,0 8,1 10,0 9,0 4,1 9,-1 0,-1 1,-1 1,-1 0,0 1,-1 1,-1 39,-24 31,-15 102,-15 27,0 53,0 80,0 7,0 14,0 20,0 6,0 23,4 21,-14 0,-1 0,-1 0,-2 -3,-11 -9,-8 -17,-8 -68,0 -721,-2 -730,0 -14,4 -15,16 -15,28 0,13 0,14 8,20 7,7 7,6 23,6zm451 -274c-26,0 -208,-2 -217,1 -2,0 -8,3 -9,5 -3,3 -4,5 -6,8 -7,17 -2,36 16,41 0,0 2,1 3,1 0,0 1,0 2,0 0,1 1,1 1,1 13,2 208,2 217,0 20,-5 29,-25 21,-43l-15 -13c-3,-1 -7,-1 -13,-1zm-209 435c-1,0 0,-1 -4,1 -18,5 -18,26 -14,38 4,10 11,14 21,16l158 0c10,-1 16,-7 23,-13l20 -14c7,-4 1,-3 11,-3 16,-1 34,0 50,0 34,0 48,5 49,-13 1,-13 -6,-15 -23,-15 -35,0 -275,-3 -287,1l-4 2zm-126 -304l111 0 28 -10c0,-1 1,-1 2,-1 0,0 1,0 1,0l167 -1c17,0 12,1 30,-9l4 -3c15,-10 34,-6 58,-6 36,0 79,2 110,-1 10,-29 -11,-23 -15,-23l-496 0c-11,0 -20,-4 -28,14 -6,14 -2,33 14,39 7,3 4,1 14,1zm0 286c31,0 101,4 127,-4 1,0 4,-1 5,-2l10 -4c24,-9 173,6 191,-5l18 -11c8,-4 3,-4 22,-4l111 0c9,0 21,2 26,-2l2 -2c2,-4 3,-10 2,-14 -2,-10 -5,-6 -16,-6l-498 0c-13,0 -15,-3 -22,5 -13,14 -17,49 22,49zm-70 -215c22,0 139,2 151,-2l6 -3c12,-4 21,-7 34,-7l234 0c13,0 15,-2 25,-9 5,-3 6,-3 11,-6 14,-7 24,-3 46,-3l101 0c5,0 11,0 16,0 12,0 19,2 21,-11 0,-6 0,-9 -2,-13 -9,-4 -581,-1 -643,-1 -13,0 -16,-3 -26,9 -6,8 -15,46 26,46zm473 112l161 0c9,0 10,3 14,-4 5,-7 1,-16 1,-17 -7,-3 -6,-3 -17,-3l-631 0c-15,0 -31,2 -32,24 0,7 1,14 3,18 4,8 12,12 21,14 15,4 147,3 158,-1l23 -8c0,0 2,-1 3,-1 4,-1 -1,0 5,-1l233 0c27,0 17,2 34,-7 0,0 1,0 1,0 1,-1 1,-1 2,-1l15 -9c7,-4 -1,-4 6,-4z"/>
  </g>
 </g>
</svg>
