<?xml version="1.0" encoding="UTF-8"?>
<!DOCTYPE svg PUBLIC "-//W3C//DTD SVG 1.0//EN" "http://www.w3.org/TR/2001/REC-SVG-20010904/DTD/svg10.dtd">
<!-- Creator: CorelDRAW X8 -->
<svg xmlns="http://www.w3.org/2000/svg" xml:space="preserve" width="399px" height="400px" version="1.0" style="shape-rendering:geometricPrecision; text-rendering:geometricPrecision; image-rendering:optimizeQuality; fill-rule:evenodd; clip-rule:evenodd" viewBox="0 0 83 83" xmlns:xlink="http://www.w3.org/1999/xlink">
 <defs>
  <style type="text/css">
   <![CDATA[
    .fil1 {fill:#00BBFF}
    .fil2 {fill:#10374E}
    .fil0 {fill:#89D329}
   ]]>
  </style>
 </defs>
 <g id="Capa_x0020_1">
  <metadata id="CorelCorpID_0Corel-Layer"/>
  <g id="_2486064495392">
   <path class="fil0" d="M0 40c0,0 1,5 1,7 2,5 3,8 6,12 1,2 4,5 6,7 3,3 8,7 13,9 1,0 4,1 6,2 0,-1 0,0 0,-1 0,0 0,0 -1,0 0,0 0,0 0,0 -1,0 -2,0 -2,-1 -4,-1 -6,-2 -9,-4 -3,-3 -6,-6 -9,-9 -8,-12 -8,-29 1,-41 1,-2 2,-3 4,-5 0,-1 0,-1 1,-1 0,-1 3,-3 4,-3 6,-4 12,-7 20,-7 3,0 5,1 8,1 4,0 10,3 13,4 2,2 3,3 5,4 1,1 4,3 5,4l3 5c1,1 3,3 4,5 1,3 2,6 3,10 0,1 0,3 1,4 0,-9 -3,-18 -7,-24 -2,-3 -3,-3 -4,-4l-2 -3c-2,-1 -3,-2 -5,-3 -14,-10 -32,-11 -47,-1 -1,1 -2,2 -3,2l-2 3c-6,5 -13,16 -13,28z"/>
   <path class="fil1" d="M32 77c-2,-1 -5,-2 -6,-2 -5,-2 -10,-6 -13,-9 -2,-2 -5,-5 -6,-7 -3,-4 -4,-7 -6,-12 0,-2 -1,-7 -1,-7 0,2 0,8 1,10 1,7 4,13 9,18 1,2 4,4 6,6 7,5 15,9 25,9 9,0 20,-3 27,-10l4 -3c3,-4 5,-7 7,-11 3,-6 4,-11 4,-17 -1,-1 -1,-3 -1,-4 -1,-4 -2,-7 -3,-10 -1,-2 -3,-4 -4,-5l-3 -5c-1,-1 -4,-3 -5,-4 -2,-1 -3,-2 -5,-4 -3,-1 -9,-4 -13,-4 1,0 3,1 4,1 1,0 2,1 3,1 3,2 6,3 9,5l1 2c0,0 1,0 1,1 5,4 8,11 10,17 6,25 -15,48 -41,44 -1,0 -3,0 -4,0z"/>
   <path class="fil2" d="M11 44l0 -2c1,0 3,0 4,0 1,0 2,0 2,1 0,2 -1,1 -2,1 -1,0 -3,1 -4,0zm0 -6c1,0 2,0 4,0 1,0 2,0 2,1 0,1 -1,1 -2,1 -2,0 -3,0 -4,0l0 -2zm8 3c1,-2 0,-5 -2,-5 -1,-1 -7,0 -9,0l0 11c2,0 8,0 10,0 1,-1 2,-1 2,-3 0,-1 0,-2 -1,-3z"/>
   <path class="fil2" d="M39 15c1,0 2,0 4,0 1,0 2,0 2,1 0,1 -1,1 -3,1 -1,0 -2,0 -3,0l0 -2zm0 -5c1,0 2,0 3,0 1,0 3,0 3,1 0,2 -2,1 -3,1 -1,0 -2,0 -3,0l0 -2zm-3 9c1,1 9,1 9,0 3,-1 4,-4 2,-6 0,-1 1,-1 0,-3 0,-1 -1,-2 -2,-2 -1,0 -8,0 -9,0l0 11z"/>
   <polygon class="fil2" points="39,52 47,52 47,49 36,49 36,61 47,61 47,59 39,59 39,56 46,56 46,54 39,54 "/>
   <polygon class="fil2" points="53,38 61,38 61,36 50,36 50,47 61,47 61,45 53,45 53,43 60,43 60,40 53,40 "/>
   <path class="fil2" d="M39 66c1,0 2,0 3,0 2,0 3,0 3,1 0,1 -2,1 -3,1 -1,0 -2,0 -3,0l0 -2zm6 5c0,-1 1,-1 1,-1 2,-2 2,-5 0,-6 -2,-1 -3,0 -5,0 -1,0 -3,0 -5,0l0 11 3 0 0 -4c4,0 3,-1 4,1 3,4 2,3 6,3 -1,0 -1,-1 -1,-1 -1,0 -1,-1 -1,-1 0,-1 -1,-1 -1,-1 0,-1 -1,-1 -1,-1z"/>
   <path class="fil2" d="M67 38c2,0 5,0 5,1 0,1 -1,1 -2,1 -1,0 -2,0 -3,0l0 -2zm5 4c1,0 2,-1 3,-2 0,-2 -1,-3 -2,-4 -1,-1 -2,0 -4,0 -2,0 -3,-1 -5,0l0 11 3 0 0 -4 2 0c1,1 3,3 3,4l3 0c0,0 0,-1 0,-1 -1,-1 -3,-3 -3,-4z"/>
   <path class="fil2" d="M41 25l2 4 -3 0 1 -4zm-7 8l3 0c2,-2 -1,-2 8,-2l1 2 3 0 -6 -11 -3 0 -6 11z"/>
   <path class="fil2" d="M29 39l2 4 -4 0 2 -4zm-4 6l7 0c0,1 0,2 1,2l3 0c-1,-2 -2,-4 -3,-6l-3 -5 -3 0c-1,2 -4,8 -5,11l2 0 1 -2z"/>
   <path class="fil2" d="M40 47l3 0c0,-4 -1,-3 2,-7 1,0 1,-1 2,-2l2 -2c-3,0 -3,-1 -4,0l-3 5c-1,-1 -3,-4 -3,-4 -1,-1 -1,-1 -1,-1l-4 0 6 7c0,0 0,3 0,4z"/>
  </g>
 </g>
</svg>
