<?xml version="1.0" encoding="UTF-8"?>
<!DOCTYPE svg PUBLIC "-//W3C//DTD SVG 1.0//EN" "http://www.w3.org/TR/2001/REC-SVG-20010904/DTD/svg10.dtd">
<!-- Creator: CorelDRAW X8 -->
<svg xmlns="http://www.w3.org/2000/svg" xml:space="preserve" width="1542px" height="400px" version="1.0" style="shape-rendering:geometricPrecision; text-rendering:geometricPrecision; image-rendering:optimizeQuality; fill-rule:evenodd; clip-rule:evenodd"
viewBox="0 0 1542 400"
 xmlns:xlink="http://www.w3.org/1999/xlink">
 <defs>
  <style type="text/css">
   <![CDATA[
    .fil2 {fill:#8A222D}
    .fil3 {fill:#8B222D}
    .fil4 {fill:#D70C2D}
    .fil0 {fill:#DD002C}
    .fil1 {fill:#DE002C}
    .fil5 {fill:white;fill-rule:nonzero}
   ]]>
  </style>
 </defs>
 <g id="Capa_x0020_1">
  <metadata id="CorelCorpID_0Corel-Layer"/>
  <g id="_2173354712848">
   <path class="fil0" d="M1387 397l155 -393c-2,-6 2,-2 -4,-4 0,0 -6,0 -6,0l-1437 1c-31,0 -64,-2 -95,0l0 398c28,2 60,0 88,0l607 0c115,0 231,0 347,0l336 1c6,0 7,1 9,-3zm-1287 -175c3,2 8,14 13,19 6,6 9,10 17,15 15,9 32,14 51,17 20,2 41,0 61,-3 1,0 5,-1 6,-1 7,-2 3,0 11,-15 3,-7 8,-17 10,-24 -30,9 -61,18 -90,2 -52,-29 -9,-138 91,-137 27,0 31,6 46,8l17 -30 -3 -3c-6,0 -20,-7 -43,-8 -76,-3 -173,39 -189,114 -5,27 1,33 2,46zm300 -75c42,-9 42,24 31,54 -8,23 -25,46 -51,49 -39,6 -46,-25 -33,-56 10,-22 26,-42 53,-47zm-64 -7c-64,37 -80,135 24,137 45,0 77,-13 106,-43 18,-18 36,-54 22,-81 -6,-10 -10,-13 -18,-19 -17,-9 -31,-14 -53,-15 -11,0 -20,1 -30,2 -18,4 -35,10 -51,19zm207 -5l-54 139c58,0 51,5 57,-11l77 -195 -54 0c-1,4 -24,65 -26,67zm211 25c-3,20 -19,51 -33,66 -31,35 -89,31 -62,-30 9,-21 31,-41 55,-45 19,-4 28,2 40,9zm-68 -34c-23,8 -43,16 -60,36 -40,46 -44,107 17,114 22,3 43,0 63,-8 6,-3 11,-7 16,-9 -5,19 -31,36 -50,42 -28,9 -55,7 -82,-1 -4,5 -11,25 -13,32 28,7 62,8 91,3 41,-7 77,-27 94,-61 6,-12 11,-24 16,-37l24 -64c2,-4 2,-7 5,-10 0,-9 12,-28 13,-38l-52 0 -4 8c-23,-16 -48,-14 -78,-7zm265 77c-1,6 -6,18 -9,24 -4,12 -5,11 -18,15 -15,4 -44,9 -55,-1 -7,-6 -7,-16 -1,-24 13,-18 63,-15 83,-14zm-88 -77l-13 35c23,-4 38,-8 63,-10 20,-1 56,-3 50,23 -29,3 -130,-13 -151,44 -18,51 34,66 79,59 18,-3 25,-7 40,-11l0 10 56 0c-1,-20 -1,-23 6,-41 7,-17 26,-60 24,-77 -3,-19 -19,-25 -23,-28 -25,-7 -35,-10 -64,-10 -12,0 -24,1 -35,2 -7,1 -27,5 -32,4zm183 1l-7 19 24 0c-9,41 -85,139 21,129 7,-1 26,-2 29,-7 2,-3 10,-23 11,-27 -55,14 -46,-1 -20,-62 4,-9 11,-24 13,-33l37 1 10 -26 -37 0 16 -44 -54 9c-5,2 -6,10 -9,19 -8,20 -2,16 -31,16l-3 6zm165 55c7,-32 54,-42 67,-28 7,7 4,19 2,28l-69 0zm-12 -46c-1,2 -10,7 -13,9 -13,9 -24,20 -32,35 -26,47 -7,97 57,104 20,2 43,-1 63,-5 15,-4 7,-4 13,-10l12 -25c-21,5 -42,13 -67,9 -23,-3 -35,-19 -30,-44l123 0c4,-18 10,-32 4,-52 -9,-35 -51,-39 -82,-35 -26,3 -30,9 -48,14z"/>
   <path class="fil1" d="M359 244c-8,-3 -9,-5 -9,-15 1,-20 10,-37 22,-51 11,-14 27,-23 47,-23 10,0 11,1 13,10 -48,-5 -76,45 -73,79zm41 -97c-27,5 -43,25 -53,47 -13,31 -6,62 33,56 26,-3 43,-26 51,-49 11,-30 11,-63 -31,-54z"/>
   <path class="fil1" d="M670 243c-9,-3 -10,-5 -8,-16 1,-6 2,-12 5,-18 4,-11 11,-20 17,-27 14,-15 47,-30 65,-20l-3 7c-26,0 -36,4 -54,21 -12,11 -22,30 -22,53zm84 -83c-12,-7 -21,-13 -40,-9 -24,4 -46,24 -55,45 -27,61 31,65 62,30 14,-15 30,-46 33,-66z"/>
   <path class="fil2" d="M816 170c-3,10 -23,60 -29,75 -11,28 -18,49 -36,65 -46,42 -105,40 -162,32l-3 7c38,6 59,12 104,3 48,-10 80,-34 96,-77 8,-19 46,-121 50,-125 0,-5 2,-9 4,-14l-11 1 -13 33z"/>
   <path class="fil3" d="M996 285l-64 0c-1,-3 0,-3 -2,-6 -22,8 -59,13 -82,5 -8,-3 -14,-8 -22,-10 15,27 69,27 104,16 5,3 -2,3 5,5l70 0c0,-13 -6,-15 5,-42 4,-12 9,-23 13,-35 11,-27 22,-53 -4,-70 4,14 11,16 6,35 -2,10 -8,22 -12,32 -8,23 -21,45 -17,70z"/>
   <path class="fil2" d="M634 104c0,-3 1,-7 3,-10l5 -15 -10 0 -41 103c-5,12 -37,97 -41,101l-49 0 -3 10 60 0c8,-11 68,-181 76,-189z"/>
   <path class="fil2" d="M313 277c3,1 6,4 14,8 5,3 10,5 17,6 17,7 55,5 74,0 23,-6 39,-15 54,-28 13,-11 27,-28 34,-50 6,-19 7,-49 -14,-61 8,22 18,34 -1,70 -29,55 -102,75 -154,60 -13,-4 -20,-10 -31,-14l7 9z"/>
   <path class="fil3" d="M342 107l4 -10 6 -12 -9 -3c-5,3 -12,24 -18,31 -24,-6 -35,-12 -64,-8 -90,14 -113,108 -84,120 -12,-44 19,-77 42,-92 14,-9 32,-17 52,-19 11,-1 23,0 34,1 11,2 18,6 28,8 2,-5 5,-13 9,-16z"/>
   <path class="fil0" d="M873 239c3,-29 44,-27 70,-28 -2,11 -2,10 -13,10 -13,1 -36,2 -45,13l-4 7 -8 -2zm78 -36c-20,-1 -70,-4 -83,14 -6,8 -6,18 1,24 11,10 40,5 55,1 13,-4 14,-3 18,-15 3,-6 8,-18 9,-24z"/>
   <path class="fil2" d="M1331 147c4,13 9,18 10,35 0,10 -3,29 -8,37l-122 -1c-1,10 -4,22 8,26l0 -15 8 -2c33,0 86,2 114,1 11,-18 14,-67 -10,-81z"/>
   <path class="fil3" d="M125 259c10,18 50,30 74,33 16,1 33,0 49,-2 6,-1 17,-1 21,-5 3,-4 5,-14 9,-17 1,-5 3,-9 5,-14 3,-6 5,-6 1,-13 -9,2 -8,4 -13,15 -2,3 -8,17 -9,19 -5,7 -38,8 -49,8 -23,1 -48,-3 -68,-14 -7,-4 -14,-9 -20,-10z"/>
   <path class="fil3" d="M1297 275c-4,13 -5,12 -27,16 -13,2 -27,4 -40,3 -33,-1 -40,-9 -64,-20 19,25 69,37 111,26 27,-5 23,-5 29,-18 4,-9 12,-22 15,-31 -23,6 -17,21 -24,24z"/>
   <path class="fil0" d="M1228 178c1,-11 23,-21 41,-21 8,0 9,2 9,9 -11,2 -15,0 -26,5 -14,7 -5,6 -24,7zm-17 4l69 0c2,-9 5,-21 -2,-28 -13,-14 -60,-4 -67,28z"/>
   <path class="fil2" d="M1163 156l-37 0c-6,16 -32,73 -33,86l9 0 32 -77c36,1 18,2 37,-14 7,-6 9,-7 12,-17l-11 -1 -9 23z"/>
   <path class="fil2" d="M670 243c0,-23 10,-42 22,-53 18,-17 28,-21 54,-21l3 -7c-18,-10 -51,5 -65,20 -6,7 -13,16 -17,27 -3,6 -4,12 -5,18 -2,11 -1,13 8,16z"/>
   <path class="fil2" d="M359 244c-3,-34 25,-84 73,-79 -2,-9 -3,-10 -13,-10 -20,0 -36,9 -47,23 -12,14 -21,31 -22,51 0,10 1,12 9,15z"/>
   <path class="fil2" d="M1042 275c4,26 77,20 86,13l3 -4c1,-1 1,-3 2,-4 1,-4 3,-7 4,-10 2,-6 6,-13 8,-20 -16,4 -14,6 -21,25 -3,6 -2,5 -20,8 -11,2 -24,3 -35,1 -13,-2 -17,-5 -27,-9z"/>
   <path class="fil3" d="M862 174c36,-8 61,-6 98,-6 -1,-10 -12,-8 -21,-9 -19,0 -39,1 -58,3 -3,1 -9,2 -13,3 -5,1 -5,3 -6,9z"/>
   <path class="fil3" d="M873 239l8 2 4 -7c9,-11 32,-12 45,-13 11,0 11,1 13,-10 -26,1 -67,-1 -70,28z"/>
   <path class="fil3" d="M1228 178c19,-1 10,0 24,-7 11,-5 15,-3 26,-5 0,-7 -1,-9 -9,-9 -18,0 -40,10 -41,21z"/>
   <path class="fil3" d="M1163 88c-12,1 -11,1 -15,10 -2,6 -5,13 -7,19l11 0 11 -29z"/>
   <path class="fil4" d="M1367 125c-2,-4 -2,-10 -1,-14 10,0 8,0 9,2l0 12c-4,-2 -2,2 -4,-6 -3,2 0,0 -2,3 0,0 -1,1 -1,1l-1 2zm0 -16c-12,6 -5,22 7,18 11,-3 5,-24 -7,-18z"/>
   <path class="fil5" d="M1370 106c2,0 4,0 6,1 2,1 4,3 5,5 1,2 2,4 2,6 0,2 -1,4 -2,6 -1,2 -3,4 -5,5 -2,1 -4,2 -6,2 -2,0 -4,-1 -6,-2 -2,-1 -3,-3 -5,-5 -1,-2 -1,-4 -1,-6 0,-2 0,-4 1,-6 2,-2 3,-4 5,-5 2,-1 4,-1 6,-1zm0 2c-1,0 -3,1 -5,2 -1,0 -3,2 -3,3 -1,2 -2,4 -2,5 0,2 1,4 2,5 0,2 2,3 3,4 2,1 4,1 5,1 2,0 4,0 5,-1 2,-1 3,-2 4,-4 1,-1 1,-3 1,-5 0,-1 0,-3 -1,-5 -1,-1 -2,-3 -4,-3 -1,-1 -3,-2 -5,-2zm-5 17l0 -13 2 0c3,0 4,0 5,0 0,0 1,0 2,0 0,1 0,1 1,2 0,0 0,1 0,1 0,1 0,2 -1,3 0,1 -1,1 -2,1 0,0 0,0 1,1 0,0 0,0 1,1 0,0 0,0 1,1l1 3 -3 0 -1 -2c-1,-2 -2,-3 -2,-3 -1,0 -1,-1 -2,-1l-1 0 0 6 -2 0zm2 -8l1 0c2,0 3,0 3,0 1,0 1,0 1,0 0,-1 0,-1 0,-1 0,-1 0,-1 0,-1 0,-1 0,-1 -1,-1 0,0 -1,0 -3,0l-1 0 0 3z"/>
  </g>
 </g>
</svg>
