<?xml version="1.0" encoding="UTF-8"?>
<!DOCTYPE svg PUBLIC "-//W3C//DTD SVG 1.0//EN" "http://www.w3.org/TR/2001/REC-SVG-20010904/DTD/svg10.dtd">
<!-- Creator: CorelDRAW X8 -->
<svg xmlns="http://www.w3.org/2000/svg" xml:space="preserve" width="400px" height="400px" version="1.0" style="shape-rendering:geometricPrecision; text-rendering:geometricPrecision; image-rendering:optimizeQuality; fill-rule:evenodd; clip-rule:evenodd"
viewBox="0 0 400 400"
 xmlns:xlink="http://www.w3.org/1999/xlink">
 <defs>
  <style type="text/css">
   <![CDATA[
    .fil2 {fill:#FEFEFE}
    .fil1 {fill:#858789}
    .fil0 {fill:url(#id0)}
    .fil3 {fill:url(#id1);fill-rule:nonzero}
   ]]>
  </style>
  <radialGradient id="id0" gradientUnits="userSpaceOnUse" gradientTransform="matrix(-1.01015 -1.01015 1.01015 -1.01016 200 604)" cx="199.998" cy="200" r="560.787" fx="199.998" fy="200">
   <stop offset="0" style="stop-opacity:1; stop-color:#00AFEF"/>
   <stop offset="0.101961" style="stop-opacity:1; stop-color:#316DA7"/>
   <stop offset="0.501961" style="stop-opacity:1; stop-color:#355A9C"/>
   <stop offset="0.74902" style="stop-opacity:1; stop-color:#3B4694"/>
   <stop offset="0.988235" style="stop-opacity:1; stop-color:#2F3165"/>
   <stop offset="1" style="stop-opacity:1; stop-color:#2F3165"/>
  </radialGradient>
  <linearGradient id="id1" gradientUnits="userSpaceOnUse" x1="-16.3063" y1="389.377" x2="202.365" y2="10.6276">
   <stop offset="0" style="stop-opacity:1; stop-color:#3B4694"/>
   <stop offset="0.0117647" style="stop-opacity:1; stop-color:#3B4694"/>
   <stop offset="0.188235" style="stop-opacity:1; stop-color:#3374B8"/>
   <stop offset="0.270588" style="stop-opacity:1; stop-color:#317ABE"/>
   <stop offset="0.54902" style="stop-opacity:1; stop-color:#00AFEF"/>
   <stop offset="0.701961" style="stop-opacity:1; stop-color:#D5EFFC"/>
   <stop offset="1" style="stop-opacity:1; stop-color:#00AFEF"/>
  </linearGradient>
 </defs>
 <g id="Capa_x0020_1">
  <metadata id="CorelCorpID_0Corel-Layer"/>
  <g id="_2173327269312">
   <path class="fil0" d="M400 200c0,110 -90,200 -200,200 -110,0 -200,-90 -200,-200 0,-110 90,-200 200,-200 110,0 200,90 200,200z"/>
   <g>
    <g>
     <path class="fil1" d="M98 247c0,-1 0,-1 0,-1 1,-3 2,-7 3,-10 4,-12 7,-24 11,-36 2,-6 4,-11 5,-17 2,-5 4,-11 5,-16 2,-6 4,-13 6,-19 2,-4 1,-7 -2,-10 0,0 1,0 1,0 18,0 35,0 53,0 8,0 15,2 21,7 5,3 8,8 8,14 1,7 0,14 -3,20 -6,15 -18,24 -32,28 -5,2 -10,3 -14,3 -5,1 -10,1 -15,1 -2,0 -3,0 -5,0 0,0 -1,-1 -1,0 -1,3 -2,6 -3,10 -2,4 -3,9 -5,14 -1,3 -2,7 -3,10 -1,4 0,7 4,9 -14,0 -28,0 -42,0 3,-1 6,-4 7,-7 0,0 1,0 1,0zm65 -100l0 0c-1,0 -2,0 -3,0 -1,0 -1,0 -1,1 -1,2 -2,4 -2,6 -5,15 -10,31 -15,46 0,1 0,2 1,2 8,1 15,-2 21,-7 4,-3 7,-7 9,-12 3,-8 6,-15 6,-23 -1,-6 -3,-11 -9,-12 -2,-1 -5,-1 -7,-1z"/>
     <path class="fil1" d="M362 141c0,0 0,0 0,0 1,0 2,0 3,1 0,1 -1,2 -1,2 -1,4 -2,8 -4,12 0,1 0,1 0,1 -4,-3 -9,-6 -14,-8 -3,-2 -6,-2 -9,-3 -11,0 -19,4 -26,11 -1,0 -1,1 -2,1 0,0 0,1 0,1 -3,3 -5,5 -7,8 -6,9 -10,18 -13,28 -2,8 -5,17 -5,27 0,5 0,10 3,15 2,5 5,8 11,9 3,1 6,1 10,0 0,0 0,0 0,0 1,-2 1,-3 2,-5 1,-5 3,-9 4,-14 3,-8 5,-15 7,-23 1,-2 1,-4 0,-6 -2,-1 -3,-3 -5,-4 0,0 1,0 1,0 14,0 29,0 43,0 1,0 1,0 1,1 -4,1 -8,4 -9,9 -5,14 -9,28 -13,41 -1,1 -1,2 -2,3 -9,4 -17,6 -26,7 -8,1 -15,1 -23,0 -5,-1 -10,-3 -15,-6 0,0 -1,0 -2,-1 -9,-7 -13,-17 -14,-29 -2,-17 3,-33 12,-48 1,-4 4,-6 6,-9 1,-2 3,-3 5,-5 5,-5 11,-9 17,-12 9,-5 18,-7 27,-8 9,-1 17,0 25,1 4,1 9,2 13,3z"/>
     <path class="fil1" d="M236 214c2,0 3,0 5,0 3,0 6,0 9,0 1,0 1,0 1,1 -1,8 -4,14 -9,20 -2,2 -2,2 0,3 7,7 16,12 25,16 0,0 1,0 1,1 0,0 0,0 -1,0 -8,0 -17,0 -26,0 -1,0 -2,-1 -3,-1 -3,-2 -5,-5 -8,-7 -1,-1 -1,-1 -2,0 -6,4 -13,7 -21,9 -5,1 -11,0 -17,-1 -3,-1 -6,-3 -9,-6 -5,-5 -6,-12 -5,-19 1,-9 6,-15 13,-19 5,-4 11,-6 17,-8 2,-1 2,-1 2,-3 0,-9 1,-18 7,-26 6,-8 15,-11 25,-9 3,0 6,2 9,4 5,5 5,11 2,17 -3,5 -7,9 -12,12 -4,2 -8,4 -13,6 -1,1 -1,1 -1,3 2,8 5,15 10,22 0,1 1,0 1,0 2,-3 3,-7 3,-11 0,-1 0,-2 -3,-4zm-13 26l0 0c-1,-2 -2,-3 -3,-4 -4,-7 -8,-15 -10,-23 0,-1 -1,-2 -2,-1 0,1 -1,1 -2,1 -5,3 -9,7 -11,12 -5,10 0,19 11,19 6,1 12,-2 17,-4zm0 -43l0 0c1,0 2,-1 2,-1 5,-3 8,-7 12,-11 1,-3 2,-6 3,-8 0,-5 -2,-7 -6,-6 -3,1 -4,3 -6,4 -4,7 -5,14 -5,22z"/>
    </g>
    <g>
     <path class="fil2" d="M94 243c0,0 0,0 0,0 1,-4 2,-7 3,-11 4,-12 8,-24 11,-36 2,-5 4,-11 6,-17 1,-5 3,-10 5,-16 2,-6 4,-13 6,-19 1,-4 1,-7 -3,-10 1,0 1,0 1,0 18,0 36,0 53,0 8,0 15,2 21,7 5,3 8,8 9,14 1,7 -1,14 -4,20 -6,15 -17,24 -32,29 -5,1 -9,2 -14,3 -5,0 -10,0 -15,0 -2,0 -3,0 -5,0 0,0 -1,0 -1,0 -1,4 -2,7 -3,10 -2,5 -3,10 -4,14 -2,4 -3,7 -4,10 -1,5 0,7 4,10 -14,0 -28,0 -42,0 3,-2 6,-5 7,-8 1,0 1,0 1,0zm65 -100l0 0c-1,0 -2,0 -3,0 -1,0 -1,1 -1,1 -1,2 -1,4 -2,6 -5,16 -10,31 -15,47 0,1 0,1 1,1 8,1 15,-1 21,-6 4,-4 7,-8 9,-13 3,-7 6,-15 6,-23 0,-6 -3,-10 -9,-12 -2,-1 -4,-1 -7,-1z"/>
     <path class="fil2" d="M358 137c0,0 1,0 1,0 0,1 2,1 2,1 0,1 -1,2 -1,3 -1,4 -2,8 -4,12 0,0 0,0 0,1 -4,-4 -9,-7 -14,-9 -3,-1 -6,-2 -9,-2 -11,-1 -19,3 -26,10 -1,1 -1,1 -1,1 -1,1 -1,1 -1,1 -3,3 -5,6 -7,9 -6,8 -10,17 -13,27 -2,9 -4,18 -5,27 0,5 0,11 3,16 2,4 6,8 11,9 3,1 7,0 10,0 0,0 1,-1 1,-1 0,-2 0,-3 1,-4 1,-5 3,-10 4,-15 3,-7 5,-15 7,-22 1,-2 1,-4 0,-6 -1,-2 -3,-3 -5,-4 1,0 1,0 1,0 14,0 29,0 44,0 0,0 0,-1 0,0 -4,2 -8,5 -9,9 -4,14 -9,28 -13,42 -1,1 -1,2 -2,2 -9,4 -17,6 -26,8 -7,1 -15,1 -22,-1 -6,-1 -11,-3 -16,-5 0,-1 -1,-1 -1,-1 -10,-7 -14,-18 -15,-29 -2,-18 3,-34 12,-49 2,-3 4,-6 6,-9 2,-2 3,-3 5,-5 5,-5 11,-9 17,-12 9,-4 18,-7 28,-8 8,0 16,0 24,1 4,1 9,2 13,3z"/>
     <path class="fil2" d="M233 210c1,0 2,0 4,0 3,0 6,0 9,0 1,0 1,0 1,1 0,8 -4,15 -9,20 -1,2 -1,2 0,4 8,6 16,12 25,15 1,0 1,1 1,1 0,0 0,0 0,0 -9,0 -18,0 -26,0 -2,0 -3,0 -3,-1 -3,-2 -6,-4 -9,-7 -1,-1 -1,-1 -2,0 -6,4 -13,8 -21,9 -5,1 -11,1 -16,-1 -4,-1 -7,-3 -10,-6 -5,-5 -6,-11 -5,-18 1,-9 6,-15 13,-20 5,-3 11,-6 17,-8 2,0 2,0 2,-3 0,-9 1,-18 7,-25 7,-8 15,-11 25,-10 3,1 6,2 9,5 5,4 6,11 2,17 -2,5 -7,8 -12,11 -4,3 -8,5 -13,7 -1,0 -1,1 -1,2 2,8 6,15 10,22 1,1 1,1 1,0 2,-3 3,-7 3,-10 0,-2 0,-3 -2,-5zm-14 26l0 0c-1,-1 -2,-3 -2,-4 -5,-7 -9,-15 -11,-23 0,-1 0,-1 -1,-1 -1,1 -2,1 -3,2 -4,3 -9,6 -11,11 -5,10 1,19 11,20 7,0 12,-2 17,-5zm1 -43l0 0c0,0 1,0 1,-1 5,-3 9,-7 12,-11 1,-3 3,-5 3,-8 1,-4 -2,-7 -6,-5 -2,0 -4,2 -5,4 -5,6 -6,13 -5,21z"/>
    </g>
   </g>
   <g>
    <path class="fil3" d="M58 196c0,-81 46,-152 115,-195 -98,13 -173,97 -173,198 0,106 82,193 186,200 -77,-42 -128,-117 -128,-203z"/>
   </g>
  </g>
 </g>
</svg>
