<?xml version="1.0" encoding="UTF-8"?>
<!DOCTYPE svg PUBLIC "-//W3C//DTD SVG 1.0//EN" "http://www.w3.org/TR/2001/REC-SVG-20010904/DTD/svg10.dtd">
<!-- Creator: CorelDRAW X8 -->
<svg xmlns="http://www.w3.org/2000/svg" xml:space="preserve" width="535px" height="400px" version="1.0" style="shape-rendering:geometricPrecision; text-rendering:geometricPrecision; image-rendering:optimizeQuality; fill-rule:evenodd; clip-rule:evenodd"
viewBox="0 0 535 400"
 xmlns:xlink="http://www.w3.org/1999/xlink">
 <defs>
  <style type="text/css">
   <![CDATA[
    .fil0 {fill:#0056B8}
   ]]>
  </style>
 </defs>
 <g id="Capa_x0020_1">
  <metadata id="CorelCorpID_0Corel-Layer"/>
  <path class="fil0" d="M186 208c22,-2 31,3 31,26 -1,18 -11,28 -31,25l0 -51zm-113 146l14 0 3 -4c1,-2 0,0 2,-3 -15,0 -16,-2 -19,7zm450 -49c-6,1 -7,2 -7,-4 6,0 6,-1 7,4zm3 0c0,-2 1,0 0,-3 -1,-5 -9,-3 -13,-3 0,4 -1,12 1,16 4,-2 1,-1 3,-6l5 0c1,5 -1,6 4,5l0 -9zm-27 7l0 -9c1,4 1,10 5,12 4,-3 0,-3 4,-9 0,6 -1,8 3,9 2,-4 1,-11 1,-16l-6 0c0,3 -1,8 -3,10 -1,-2 -1,-4 -1,-7 -2,-5 -1,-3 -6,-3 0,3 0,6 0,9 -1,8 0,6 2,7 1,-2 0,0 1,-3zm5 -26c25,-11 42,31 14,42 -24,11 -43,-30 -14,-42zm3 -4c-12,3 -21,13 -19,29 3,31 51,26 46,-8 -1,-12 -13,-24 -27,-21zm-58 117c8,0 33,1 38,-1l0 -10 -20 0 0 -31 -17 0 -1 42zm-200 -31l-1 31 18 0 0 -31 14 0 0 -11 -46 0 0 11 15 0zm-216 20c-6,1 -10,0 -16,-2l2 12c10,4 27,2 31,-5 5,-10 -4,-15 -9,-19 -4,-2 -5,-1 -5,-5 5,-3 10,-1 15,0 -1,-2 -1,-4 -1,-6l-2 -6c-34,-6 -34,13 -25,21 4,2 10,4 10,10zm43 -17c1,-4 -2,-3 4,-3l18 0 0 -11 -40 0 -1 42 41 0 0 -12c-4,0 -9,1 -13,1 -10,0 -10,0 -10,-2 0,-5 8,-1 19,-3l0 -11c-4,0 -7,0 -10,0 -1,0 -4,0 -5,0 -5,0 -2,1 -3,-1zm266 -236c-28,8 -16,48 11,41 10,-3 18,-14 15,-26 -3,-10 -14,-19 -26,-15zm-105 0c-28,8 -16,48 11,41 10,-3 19,-14 15,-26 -3,-10 -13,-19 -26,-15zm27 -134c-10,2 -19,12 -16,25 2,10 13,19 25,16 28,-6 19,-47 -9,-41zm25 44c-26,8 -17,49 11,42 10,-2 19,-13 15,-27 -2,-10 -13,-18 -26,-15zm-22 43c-30,7 -20,48 8,43 10,-2 19,-13 16,-25 -2,-10 -12,-20 -24,-18zm22 47c-28,8 -16,48 11,41 10,-2 19,-13 15,-27 -2,-9 -13,-18 -26,-14zm28 -134c-28,6 -19,48 9,41 10,-2 19,-13 16,-25 -2,-11 -12,-19 -25,-16zm-81 45c-28,8 -14,50 14,40 25,-9 13,-48 -14,-40zm105 0c-27,8 -14,49 13,41 26,-9 15,-49 -13,-41zm31 42c-30,7 -20,48 8,43 27,-6 18,-48 -8,-43zm-157 0c-29,6 -21,47 6,43 28,-4 20,-47 -6,-43zm105 0c-30,6 -21,47 6,43 28,-4 20,-47 -6,-43zm-105 281l3 10 -8 -1 5 -9zm-9 20l16 0 4 10 18 0c-3,-7 -6,-14 -10,-22 -9,-23 -4,-21 -30,-20l-21 42 19 0 4 -10zm108 -2c-17,5 -9,-18 -10,-30l-18 0c0,29 -6,43 22,43 20,0 25,-4 25,-20l1 -23 -18 0c0,9 0,22 -2,30zm-133 -30l-16 0 0 23c-3,-5 -10,-21 -15,-23l-19 0 0 42 16 0 -1 -22c2,2 12,19 14,22l20 0 0 -18 1 -24zm237 12l3 9 -8 0 5 -9zm-9 -12c-3,0 -17,31 -23,40l-7 -15c3,-4 12,-8 7,-18 -5,-10 -31,-7 -44,-7 1,21 1,21 0,42l17 0 0 -31c5,0 8,-1 11,2 0,6 -3,5 -9,5l7 24 37 0 4 -10 16 0 3 10 19 0 -19 -42 -19 0zm-130 -28c5,0 9,-1 14,-1 5,0 10,1 15,1l0 -131 -29 0 0 131zm161 0c12,-1 17,-1 29,0l0 -131 -29 0 0 131zm-106 -6c21,11 47,11 66,-2 17,-13 23,-39 6,-58 -11,-12 -44,-21 -48,-34 -7,-24 28,-32 40,-13 5,8 0,5 5,6 1,-1 0,0 1,-2 1,-1 1,-1 1,-2 1,-2 1,-4 2,-5 1,-4 2,-7 3,-10 -12,-6 -18,-10 -37,-9 -13,1 -25,8 -30,15 -15,22 -11,48 16,62 10,5 23,9 29,17 9,11 3,26 -9,30 -14,5 -27,-1 -32,-10 -3,-4 -6,-18 -9,-4 -1,6 -4,14 -4,19zm-205 0l0 -54c-12,1 -17,1 -29,1l0 45c-44,19 -77,-17 -66,-67 5,-20 16,-35 34,-41 18,-5 35,1 47,14 3,3 2,4 6,4l5 -19c-5,-6 -27,-11 -38,-12 -16,-1 -32,1 -45,7 -23,9 -41,28 -43,60 -3,63 57,77 108,67 7,-2 15,-4 21,-5zm28 6c5,0 9,-1 14,-1 5,0 10,0 15,1l0 -62c3,2 3,2 6,7l31 55c13,-1 21,-1 35,0l-41 -65c3,-2 10,-3 16,-8 3,-2 8,-8 10,-12 6,-12 4,-28 -3,-36 -8,-8 -21,-10 -36,-11 -15,0 -32,0 -47,1l0 131z"/>
 </g>
</svg>
