<?xml version="1.0" encoding="UTF-8"?>
<!DOCTYPE svg PUBLIC "-//W3C//DTD SVG 1.0//EN" "http://www.w3.org/TR/2001/REC-SVG-20010904/DTD/svg10.dtd">
<!-- Creator: CorelDRAW X8 -->
<svg xmlns="http://www.w3.org/2000/svg" xml:space="preserve" width="362px" height="400px" version="1.0" style="shape-rendering:geometricPrecision; text-rendering:geometricPrecision; image-rendering:optimizeQuality; fill-rule:evenodd; clip-rule:evenodd"
viewBox="0 0 362 400"
 xmlns:xlink="http://www.w3.org/1999/xlink">
 <defs>
  <style type="text/css">
   <![CDATA[
    .fil0 {fill:#102A83}
   ]]>
  </style>
 </defs>
 <g id="Capa_x0020_1">
  <metadata id="CorelCorpID_0Corel-Layer"/>
  <g id="_2173332426416">
   <path class="fil0" d="M291 82c2,10 18,24 22,24 3,0 4,-14 4,-24 0,-6 0,-11 -3,-12 -5,10 -18,12 -23,12zm1 -5c12,0 22,-9 22,-17 0,-4 -2,-7 -6,-7 1,1 1,1 1,3 0,6 -9,13 -19,13 -4,0 -5,2 -5,4 0,3 3,4 7,4zm-2 -12c-2,0 -4,0 -5,-3 -1,-2 -1,-5 -3,-6 2,0 4,0 6,0 5,0 9,-3 13,-3 3,0 3,1 3,3 0,5 -9,9 -14,9zm-246 86c3,0 3,-23 9,-23 1,0 2,2 2,3 0,5 -3,13 -3,17 0,2 1,3 2,3 2,0 7,-25 11,-25 2,0 2,1 2,3 0,5 -6,20 -6,24 0,1 0,2 0,2 3,0 9,-12 11,-18 0,-3 2,-5 3,-5 1,0 2,1 2,4 0,6 -5,20 -10,29 -4,7 -10,18 -10,24 0,3 1,6 5,9 -7,0 -10,-1 -13,-6 -11,23 22,21 11,42 -2,-4 -19,-8 -19,-30 0,-18 17,-29 17,-37 0,-2 -1,-3 -2,-4 -4,-3 -4,-6 -7,-6 -2,0 -5,5 -2,9 1,2 2,3 2,4 0,3 -5,11 -9,11 -3,0 -6,-8 -6,-22 0,-12 3,-24 7,-24 1,0 1,0 1,1 0,2 -1,5 -1,9 0,6 2,6 3,6zm168 -108c2,0 2,4 3,7 0,1 0,1 1,1 1,0 3,-5 5,-5 2,0 7,6 17,6 13,0 25,-10 25,-26 0,-16 -11,-25 -26,-25 -8,0 -13,3 -16,3 -2,0 -4,-4 -6,-4 0,0 -1,1 -1,3 0,1 0,5 -1,5 -3,0 -13,-8 -13,-5 0,3 7,10 7,12 0,2 -7,4 -7,6 0,2 7,2 7,6 0,3 -7,5 -7,7 0,2 7,1 7,3 0,3 -5,10 -5,12 0,1 0,1 0,1 2,0 9,-7 10,-7zm-141 163c0,-3 1,-5 4,-5 2,0 4,1 4,4 1,2 -1,4 -3,4 -3,0 -5,-1 -5,-3zm-12 3c0,4 4,7 8,6 1,0 3,0 3,-1 1,4 4,6 8,5 4,0 7,-3 7,-8 0,-1 -1,-1 -1,-2l1 0c4,-1 7,-4 6,-8 0,-4 -4,-7 -8,-6 -1,0 -2,0 -3,1 -1,-3 -4,-6 -8,-5 -4,0 -7,4 -6,8 0,0 0,1 0,2l-1 0c-4,0 -6,4 -6,8zm245 -202c0,2 1,3 3,3 1,0 3,-1 3,-3 0,-1 -2,-3 -3,-3 -2,0 -3,2 -3,3zm-61 104c0,3 2,5 4,5 3,0 5,-2 5,-5 0,-2 -2,-4 -5,-4 -2,0 -4,2 -4,4zm0 14c0,3 2,5 5,5 3,0 5,-2 5,-5 0,-3 -2,-5 -5,-5 -3,0 -5,2 -5,5zm-16 10c0,4 4,7 8,7 4,0 7,-3 7,-7 0,-5 -3,-8 -7,-8 -4,0 -8,3 -8,8zm4 -16c0,3 2,5 5,5 2,0 4,-2 4,-5 0,-2 -2,-4 -4,-4 -3,0 -5,2 -5,4zm-14 9c0,2 2,4 4,4 3,0 5,-2 5,-4 0,-3 -2,-4 -5,-4 -2,0 -4,1 -4,4zm11 -26c0,4 3,7 7,7 4,0 7,-3 7,-7 0,-4 -3,-7 -7,-7 -4,0 -7,3 -7,7zm8 -13c0,2 2,4 5,4 2,0 4,-2 4,-4 0,-3 -2,-5 -4,-5 -3,0 -5,2 -5,5zm-20 10c0,2 2,4 5,4 2,0 4,-2 4,-4 0,-2 -2,-4 -4,-4 -3,0 -5,2 -5,4zm0 14c0,4 3,7 7,7 3,0 6,-3 6,-7 0,-3 -3,-6 -6,-6 -4,0 -7,3 -7,6zm-14 8c0,3 3,6 6,6 4,0 7,-3 7,-6 0,-4 -3,-7 -7,-7 -3,0 -6,3 -6,7zm4 -16c0,2 2,4 4,4 3,0 5,-2 5,-4 0,-2 -2,-4 -5,-4 -2,0 -4,2 -4,4zm-15 162c0,3 2,5 5,5 2,0 4,-2 4,-5 0,-2 -2,-4 -4,-4 -3,0 -5,2 -5,4zm-118 -182c0,2 2,4 4,4 3,0 5,-2 5,-4 0,-3 -2,-5 -5,-5 -2,0 -4,2 -4,5zm-6 -10c0,2 2,4 4,4 3,0 5,-2 5,-4 0,-2 -2,-4 -5,-4 -2,0 -4,2 -4,4zm5 108c4,0 8,-3 8,-11l0 -11c0,-4 1,-9 3,-13 0,2 0,3 0,5 0,9 5,16 5,25 0,3 -1,5 -3,5 -3,0 -3,-2 -3,-2 -1,0 -1,1 -1,3 0,2 1,6 6,6 4,0 7,-4 7,-8 0,-10 -8,-21 -8,-31 0,-5 2,-8 3,-10 0,21 18,37 18,47 0,2 -1,3 -4,3 -2,0 -3,-2 -3,-3 0,-1 0,-1 -1,-1 0,0 -2,2 -2,5 0,3 3,8 8,8 6,0 10,-5 10,-10 0,-12 -23,-29 -23,-48 0,-3 1,-8 3,-12 -14,9 -19,22 -19,32 0,10 0,15 -5,15 -3,0 -3,-3 -4,-3 -1,0 -1,2 -1,3 0,4 3,6 6,6zm190 -110c5,0 9,-2 9,-3 0,-1 -1,-1 -2,-1 -2,0 -4,0 -10,-1 -4,-1 -8,-2 -9,-2 -1,0 -1,0 -1,0 0,3 5,7 13,7zm-24 -14c2,-1 8,1 16,-3 1,-1 2,-1 3,-1 4,0 3,5 6,5 3,0 7,-3 9,-3 3,0 8,11 8,15 0,6 -9,9 -19,9 -14,0 -23,-12 -23,-21 0,0 0,0 0,-1zm-164 166c-4,1 -9,6 -9,15 0,11 11,28 30,28 16,0 20,-11 20,-19 0,-16 -10,-28 -23,-28 -8,0 -14,5 -14,13 0,7 5,18 18,18 7,0 10,-4 10,-9 0,-5 -4,-12 -11,-12 -2,0 -3,1 -3,3 0,3 3,6 8,6 1,0 2,-1 2,-1 1,1 1,1 1,2 0,2 -3,4 -7,4 -5,0 -11,-5 -11,-11 0,-4 4,-7 9,-7 10,0 15,9 15,17 0,8 -4,13 -13,13 -17,0 -26,-16 -22,-32zm-11 -120c-3,1 -8,4 -8,9 0,4 3,7 7,7 2,0 4,-1 4,-1 -3,-3 -4,-7 -4,-10 0,-2 1,-4 1,-5zm-27 2c0,0 0,1 0,1 0,5 3,8 6,8 3,0 6,-1 9,-5 -1,0 -3,0 -4,0 -4,0 -8,-1 -11,-4zm-4 9c0,9 3,13 7,13 4,0 8,-3 14,-8 -4,1 -7,2 -10,2 -4,0 -7,-1 -11,-7zm168 173c5,0 5,0 6,0 2,0 2,1 2,1 0,3 -5,6 -15,6 -5,0 -9,-3 -10,-6 -5,3 -14,6 -22,6 -23,0 -28,-9 -35,-13 -6,-2 -14,3 -26,-10 2,0 4,0 6,0 10,0 15,-5 15,-13 0,-1 0,-2 0,-3 3,1 10,7 12,16 0,1 5,2 7,2 4,0 9,-1 10,-8 13,-1 22,-9 24,-19 5,2 10,6 12,8 2,0 4,-1 6,-1 4,0 8,1 12,2 1,-1 1,-3 3,-3 3,0 3,4 4,6 0,1 3,2 3,4 0,2 -2,3 -3,3 0,0 -1,0 -1,0 -2,0 -3,16 -12,16 -7,0 -13,-5 -16,-13 0,-2 -2,-3 -4,-3 -1,0 -2,0 -4,3 -6,6 -16,12 -29,12 -3,0 -6,-1 -7,-1 0,0 0,1 0,1 0,0 3,3 11,3 20,0 25,-10 28,-10 0,0 1,0 2,1 5,11 14,13 21,13l0 0zm-63 -221c7,0 11,6 11,13 0,3 -1,8 -3,8 -1,0 -1,-3 -1,-5 0,-3 -1,-4 -2,-4 -2,0 -3,5 -3,9 0,2 1,5 3,5 1,0 2,0 2,-1 0,5 -4,10 -9,10 -10,0 -13,-12 -15,-18 -5,6 -11,10 -20,10 -9,0 -14,-6 -14,-13 0,-1 1,-6 3,-6 3,0 1,9 6,9 1,0 4,-1 5,-5 1,-2 1,-4 1,-6 0,-3 0,-5 -2,-5 -2,0 -5,1 -5,2 2,-8 9,-12 16,-12 8,0 13,8 13,16 0,1 0,3 0,4 3,-6 9,-11 14,-11zm-27 -66c0,0 -4,-1 -8,-1 -7,0 -6,6 -12,6 -6,0 -4,-6 -11,-6 -5,0 -9,1 -9,2 0,1 5,0 5,4 0,4 -11,5 -11,7 0,1 1,1 2,1 3,0 6,-1 9,-1 2,0 3,1 3,2 0,3 -6,8 -6,10 0,1 1,1 1,1 2,0 6,-6 10,-6 6,0 2,13 5,13 3,0 2,-13 7,-13 3,0 6,9 9,9 1,0 1,-1 1,-1 0,-3 -3,-7 -3,-11 0,-1 1,-2 3,-2 2,0 6,1 8,1 0,0 1,0 1,-1 0,-2 -10,-5 -10,-9 0,-3 6,-3 6,-5zm156 217c-2,0 -15,17 -23,17 -2,0 -4,-4 -4,-6 0,-2 1,-3 5,-4 19,-4 15,-18 31,-18 9,0 19,6 19,19 0,15 -21,33 -24,33 -3,0 -5,-4 -5,-6 0,-1 0,-2 2,-3 11,-4 17,-14 17,-19 0,-1 -1,-2 -2,-2 -2,0 -10,19 -19,19 -6,0 -12,-6 -12,-9 0,-4 17,-12 17,-18 0,-3 -1,-3 -2,-3zm12 -7c-1,0 -3,2 -3,5 0,3 3,5 4,6 1,0 2,0 3,0 3,0 6,0 6,-3 0,-3 -5,-8 -10,-8zm-143 -198c0,2 7,6 11,6 1,0 2,-3 2,-5 0,-4 -1,-4 -4,-4 -4,0 -9,1 -9,3zm12 21c0,-6 -18,-18 -18,-23 0,-1 0,-1 0,-1 1,-4 16,-6 16,-9 0,-1 -2,-1 -4,-1 -10,0 -25,3 -25,7 0,4 14,13 14,17 0,2 -1,2 -2,2 -4,0 -12,-5 -16,-5 -2,0 -3,2 -3,3 0,6 7,16 7,19 0,0 0,0 -1,0 -2,0 -11,-11 -15,-11 -1,0 -1,2 -1,5l0 3c0,3 0,4 -1,4 -3,0 -4,-8 -7,-8 -3,0 -4,15 -6,15 -3,0 -1,-16 -4,-16 -3,0 -7,10 -9,10 -1,0 -2,-1 -2,-1 0,-3 2,-9 2,-12 0,-1 0,-2 -1,-2 -4,0 -11,5 -14,5 -1,0 -1,0 -1,0 0,-3 12,-11 12,-15 0,-4 -17,-1 -17,-5 0,-4 12,-8 12,-11 0,-3 -14,-5 -19,-5 -7,0 -10,1 -10,3 0,3 14,3 14,6 0,2 -15,9 -15,13 0,3 22,0 22,3 0,4 -19,20 -19,26 0,1 1,1 2,1 6,0 21,-10 25,-10 1,0 1,1 1,3 0,3 -1,7 -1,10 0,3 1,5 3,5 4,0 8,-7 11,-7 3,0 1,20 6,20 5,0 7,-22 10,-22 2,0 5,6 7,6 4,0 2,-11 6,-11 3,0 14,13 19,13 2,0 3,-1 3,-2 0,-6 -9,-19 -9,-24 0,-1 1,-1 2,-1 4,0 17,6 23,6 2,0 3,-1 3,-3zm150 127c2,-5 4,-9 8,-15 -4,-2 -13,-6 -13,-12 0,-8 9,-14 11,-14 1,0 1,1 1,2 0,4 -2,11 -2,14 0,3 2,6 4,6 2,0 7,-7 7,-13 0,-12 -10,-15 -13,-15 -3,0 -9,5 -21,5 -24,0 -30,-24 -30,-34 0,-1 1,-1 1,-1 0,0 3,3 10,3 4,0 7,-1 13,-1 13,0 19,9 27,21 5,3 17,8 17,22 0,12 -13,19 -16,32 5,0 8,-9 13,-9 3,0 4,2 4,5 0,5 -3,12 -8,17 0,-1 0,-1 0,-2 0,-3 -1,-7 -5,-7 -5,0 -7,6 -10,11 -3,-12 -8,-22 -15,-28 -8,-6 -22,-3 -22,-14 0,-3 2,-8 2,-11 0,-1 0,-3 -1,-3 11,3 7,11 14,18 4,4 15,9 22,28 0,-1 0,-2 0,-3 0,-16 -22,-32 -24,-39 13,1 15,5 21,21 1,3 5,12 5,16zm-236 -90c0,-1 1,-4 1,-6 0,-5 -3,-13 -10,-13 -5,0 -8,3 -8,7 0,9 9,12 17,12zm-10 28c-3,0 -7,-4 -7,-8 0,-3 1,-5 3,-5 0,0 0,0 0,1 1,5 5,8 8,10 0,0 0,0 0,0 0,1 -2,2 -4,2zm13 -10c0,1 -1,3 -2,3 -4,0 -7,-5 -7,-9 0,-2 1,-2 3,-2 0,0 1,0 1,0 1,1 1,3 2,5 1,1 3,2 3,3zm-4 -12c0,0 -1,0 -2,0 -4,0 -8,1 -13,4 -9,6 -8,16 -9,18 -1,1 -1,1 -1,2 0,1 1,2 2,2 1,0 2,-1 2,-1 3,0 6,2 10,2 3,0 6,0 9,-2 8,-4 11,-14 11,-16 0,-2 -1,-1 -3,-3 -1,-3 0,-4 -1,-5 -1,-1 -3,-1 -5,-1zm12 18c-2,3 -5,8 -5,13 0,6 4,11 9,11 6,0 8,-5 8,-10 0,-7 -6,-12 -12,-14zm-23 -21c0,0 -4,2 -8,2 -4,0 -8,-3 -8,-8 0,-4 2,-7 6,-9 0,1 0,1 0,2 0,6 3,11 10,13zm195 64c0,-2 2,-4 5,-4 2,0 4,2 4,4 0,2 -2,4 -4,4 -3,0 -5,-2 -5,-4zm3 127c1,0 1,0 1,2 0,2 -1,5 -5,8 -2,2 -6,3 -12,3 1,-2 2,-5 2,-8 0,0 0,-1 0,-2l1 0c9,0 13,-3 13,-3zm1 -11c1,-1 1,-2 1,-4l0 -2c0,-3 -5,-5 -11,-5 -8,0 -13,3 -13,5l0 5c0,2 5,4 11,4 5,0 9,-1 12,-3zm6 1c-3,2 -10,7 -21,7 -6,0 -8,-2 -9,-2 -1,0 -3,1 -4,3 -2,3 -6,8 -6,15 0,4 4,9 10,9 21,0 36,-13 36,-24 0,-6 -4,-8 -6,-8zm4 -93c0,3 1,6 3,6 3,0 5,-3 5,-7 0,-5 -1,-8 -1,-10 0,-1 0,-1 1,-1 1,0 3,5 5,5 2,0 5,-4 6,-4 0,0 0,1 0,1 0,1 -2,5 -2,6 0,2 6,2 6,3 0,2 -7,2 -10,3 -3,1 -5,3 -5,5 0,2 2,3 6,3 7,0 12,-4 14,-4 0,0 0,0 0,0 0,2 -3,5 -3,7 0,2 6,4 6,5 0,0 0,0 -1,0 -1,0 -3,0 -5,0 0,0 -1,0 -2,1 0,1 1,6 -1,6 -1,0 -5,-13 -14,-13 -1,0 -2,1 -2,3 0,4 5,9 9,12 2,1 5,2 5,3 0,1 -7,0 -7,2 0,2 1,5 1,7 0,1 -1,1 -1,1 -2,0 -5,-6 -6,-6 -2,0 -4,4 -6,4 0,0 0,-1 0,-1 0,-2 4,-8 4,-14 0,-2 -1,-8 -4,-8 -2,0 -5,4 -7,8 0,3 0,12 -2,12 -1,0 -1,-6 -3,-6 -2,0 -5,3 -6,3 -1,0 -1,0 -1,-1 0,-1 3,-5 3,-6 0,-2 -7,-2 -7,-3 0,-1 3,-2 6,-2 5,-1 13,-5 13,-11 0,-6 -6,-9 -10,-12 -2,-1 -4,-2 -4,-3 0,-1 2,-1 4,-1 1,0 3,0 3,-1 0,-1 0,-3 0,-5 0,-1 0,-2 0,-2 2,0 4,6 5,6 2,0 4,-5 6,-5 1,0 1,1 1,2 0,4 -2,8 -2,12zm-53 -32c1,9 14,5 14,16 0,2 0,4 0,6 0,3 0,5 2,5 2,0 2,-2 2,-3 0,-2 0,-4 0,-6 0,-3 2,-4 4,-4 4,0 7,4 14,4 -2,7 -16,5 -16,13 0,4 3,5 6,5 2,0 3,-1 3,-3 0,-1 0,-2 0,-3 0,0 0,-1 1,-1 2,0 14,9 14,12 0,3 -12,5 -16,5 -1,0 -1,-1 -1,-1 0,-1 1,-3 1,-5 0,0 -1,-1 -6,-1 -2,0 -3,0 -3,2 0,3 5,6 5,9 0,2 -2,4 -5,4 -3,0 -8,-3 -8,-7 0,-3 3,-6 3,-8 0,0 0,-1 -1,-1 -4,0 -5,11 -20,12 2,-2 4,-4 4,-9 0,-2 0,-4 0,-7 0,-3 1,-5 4,-5 4,0 6,6 8,6 2,0 3,-1 3,-3 0,-9 -16,-8 -16,-19 0,-4 1,-8 4,-13zm21 72c0,1 1,2 3,2 2,0 3,-1 3,-3 0,-2 -2,-6 -4,-6 -1,0 -1,2 -1,3 0,1 -1,3 -1,4zm-6 -15c12,2 18,11 18,19 0,6 -3,11 -9,11 -6,0 -10,-4 -10,-10 0,-5 4,-10 4,-14 0,-2 -1,-4 -3,-6zm-14 19c1,1 1,2 1,3 0,2 -1,3 -1,5 0,3 2,5 5,5 3,0 5,-2 5,-5 0,-4 -4,-8 -10,-8zm36 -7c1,1 1,2 1,3 0,3 -2,6 -2,9 0,4 3,7 7,7 5,0 8,-4 8,-8 0,-6 -6,-11 -14,-11zm-34 -6c5,0 7,2 7,4 0,2 -2,3 -5,3 -1,0 -3,-1 -5,-1 -2,0 -5,1 -7,3 2,1 4,2 4,4 0,6 -18,1 -18,17 0,9 9,18 23,18 7,0 11,-2 11,-5 0,-2 -3,0 -3,-2 0,-1 1,-2 1,-3 0,-1 0,-2 -1,-2 -2,0 -6,3 -14,3 -6,0 -11,-3 -11,-8 0,-1 0,-1 1,-1 0,0 1,0 2,0 1,0 1,0 1,-2 0,-1 0,-4 2,-4 2,0 6,8 21,8 5,0 15,-1 19,-5 0,12 -10,28 -30,28 -20,0 -31,-16 -31,-31 0,-17 13,-33 32,-33 5,0 9,2 9,4 0,3 -7,1 -8,5zm-79 -113c0,-2 -1,-2 -1,-2 -1,0 -2,1 -4,4 0,4 1,6 2,6 1,0 3,-4 3,-8zm-15 5c1,0 2,-2 5,-5 0,-1 0,-3 0,-4 0,-3 0,-5 -2,-5 -3,0 -5,9 -5,11 0,1 1,3 2,3zm18 9c2,0 5,-10 5,-17 0,-1 0,-3 0,-3 -3,0 -7,11 -7,17 0,2 1,3 2,3zm-27 -6c3,0 8,-20 8,-23 0,-1 -1,-2 -1,-2 -4,0 -9,19 -9,24 0,0 1,1 2,1zm12 9c-5,0 -5,5 -5,17 -4,-8 -10,-16 -17,-16 -4,0 -6,3 -6,9 0,1 0,2 0,3 1,-1 3,-2 5,-2 5,0 10,3 14,8 -4,0 -8,-1 -12,-1 -2,0 -4,0 -6,1 -3,1 -7,6 -7,13 0,1 0,2 0,4 4,-9 14,-13 21,-13 1,0 2,0 3,1 -3,3 -4,8 -4,12 -1,1 -1,2 -2,2 0,3 2,9 2,11 0,1 0,2 -1,2 0,5 5,9 5,12 0,1 0,1 0,2 0,2 5,5 6,6 1,3 2,3 2,3 2,0 5,-2 5,-4 0,-1 0,-2 -1,-2 -2,-2 -3,-5 -4,-7 -1,0 -2,0 -2,-2 0,-1 -1,-6 -2,-9 -1,0 -2,-1 -2,-4 0,-1 1,-7 1,-9 0,0 -1,0 -1,-1 0,-4 3,-7 4,-11 6,4 8,9 8,13 0,3 0,5 -1,7 5,-3 12,-6 12,-13 0,-4 -2,-9 -14,-10 3,-2 8,-3 12,-3 7,0 11,3 12,8 2,-3 3,-5 3,-7 0,-6 -5,-9 -10,-9 -7,0 -13,3 -19,7 2,-5 4,-9 8,-9 0,0 1,0 2,0 -2,-5 -7,-9 -9,-9zm-71 -69c0,2 -8,10 -11,10 -1,0 -1,-2 -1,-3 0,-2 1,-5 2,-6 1,-1 5,-2 7,-2 2,0 3,0 3,1zm256 148c6,0 10,7 10,16 0,8 -4,18 -12,25 0,-15 -18,-10 -18,-21 0,-5 3,-8 7,-8 4,0 7,1 9,3 -2,-2 -3,-4 -3,-7 0,-4 2,-8 7,-8zm-82 -113c0,-1 -4,-2 -5,-2 -5,0 -8,4 -9,7 -1,-1 -1,-3 -1,-4 0,-5 3,-11 11,-11 8,0 10,4 11,4 1,0 2,-1 3,-1 2,0 2,2 2,3 0,4 -2,12 -7,15 -1,-2 -3,-4 -6,-6 -1,0 -1,-1 -1,-1 0,-1 1,-3 2,-4zm-16 8c3,3 5,4 8,4 1,0 3,0 4,0 1,0 1,1 1,1 0,1 -1,3 -2,5 1,0 3,0 4,0 6,0 14,-4 14,-14 1,2 2,6 2,8 0,12 -9,16 -17,16 -5,0 -8,-2 -9,-2 -2,0 -2,5 -3,4 -3,0 -5,-6 -5,-12 0,-3 1,-7 3,-10zm-77 -32c0,4 14,23 17,23 2,0 4,-4 4,-7 0,-1 -1,-2 -1,-3 -2,-2 -16,-13 -19,-13 0,0 -1,0 -1,0zm159 -9c0,-7 -19,-9 -19,-11 0,-2 11,-4 16,-4 -8,-11 -20,-10 -20,-11 0,-2 9,-4 17,-4 7,0 13,2 13,7 0,3 -2,6 -2,10 0,3 1,5 5,5 3,0 4,-4 4,-8 0,-3 -1,-5 -1,-7 0,-5 3,-8 8,-8 4,0 4,2 10,2 -3,2 -4,5 -4,6 0,5 3,8 3,18 0,17 -16,23 -36,23 -6,0 -12,0 -17,-1 -1,0 -2,0 -2,-1 0,-1 8,-2 8,-9 0,-3 -1,-6 -1,-7 0,0 1,0 1,0 2,0 5,6 11,6 2,0 6,-1 6,-6zm19 -11c0,10 -7,18 -20,20 1,0 2,0 4,0 15,0 20,-7 20,-13 0,-3 -1,-6 -4,-7zm-11 89c0,-3 -6,-3 -6,-9 0,-1 -1,-3 -2,-3 -2,0 0,6 -2,6 -5,0 -7,-10 -9,-10 0,0 -1,0 -1,2 0,1 0,2 0,3 0,2 0,3 -1,3 -3,0 -6,-7 -9,-7 0,0 -1,0 -1,1 0,1 3,3 3,5 0,2 -8,1 -8,3 0,1 1,1 3,1 2,0 6,-1 8,-1 1,0 2,0 2,2 0,1 -4,3 -4,5 0,1 1,1 2,1 3,0 8,-5 12,-5 0,0 2,0 2,1 0,1 -4,4 -4,6 0,1 0,1 1,1 2,0 5,-5 8,-5 2,0 4,1 5,1 1,0 1,-1 1,-1zm-79 -84c0,-1 -4,-4 -4,-5 0,0 0,0 1,0 1,0 3,0 5,0 1,0 1,-6 2,-6 1,0 3,6 4,6 1,0 4,-2 5,-2 0,0 0,0 0,0 0,1 -2,4 -2,5 0,1 6,2 6,3 0,1 -7,1 -7,2 0,1 3,4 3,5 0,0 0,0 -1,0 0,0 -4,-1 -5,-1 -1,0 -3,4 -4,4 0,0 -1,0 -1,-1l0 -4c0,-1 0,-1 -1,-1 -1,0 -3,0 -4,0 -1,0 -1,0 -1,-1 0,0 4,-3 4,-4zm22 21c-8,0 -13,-4 -13,-6 0,-1 1,-2 2,-2 2,0 7,4 9,4 1,0 1,0 1,-1 0,-2 -2,-5 -2,-7 0,0 0,-1 1,-1 3,0 7,2 10,2 1,0 1,-1 1,-1 0,-3 -7,-7 -7,-9 0,-1 9,-3 9,-5 0,-3 -13,-1 -13,-3 0,-2 3,-4 3,-5 0,-1 -1,-1 -1,-1 -1,0 -7,2 -9,2 -1,0 -2,0 -2,-2 0,-2 4,-5 11,-5 11,0 17,7 17,20 0,16 -11,20 -17,20zm-75 190c0,1 0,2 -1,3 -1,-2 -4,-3 -6,-3 -11,0 -7,16 -19,16 -5,0 -6,0 -7,0 -1,0 -2,0 -2,1 0,3 4,10 16,10 11,0 22,-7 22,-16 0,-1 0,-3 -1,-4 0,-1 2,-1 2,-1 2,0 3,1 5,1 2,0 3,-1 3,-3 0,-1 -1,-2 -2,-3 1,0 1,-1 1,-3 0,-2 -1,-3 -3,-3 -1,0 -2,0 -3,1 0,-2 -1,-4 -3,-4 -2,0 -3,1 -3,3 0,2 1,3 1,5zm-29 4c-3,0 -8,-3 -8,-5 0,-2 1,-3 2,-3 3,0 8,4 8,7 0,0 -1,1 -2,1zm-31 -24c9,2 13,7 14,12 1,6 2,10 4,12 3,3 8,6 13,6 4,0 7,-1 7,-5 0,-4 -5,-13 -13,-13 -1,0 -2,0 -3,0 -1,0 -2,0 -3,-1 -2,-1 -3,-9 -6,-14 -3,-6 -7,-7 -13,-7 -4,0 -8,2 -8,5 0,2 1,3 8,5zm55 -14c0,-5 -10,-5 -10,-12 0,-2 1,-5 4,-9 1,6 3,9 8,11 10,3 11,9 11,15 0,10 -7,22 -25,22 -14,0 -24,-13 -24,-24 0,-3 1,-6 2,-6 2,0 3,1 4,3 5,5 10,6 18,6 7,0 12,-3 12,-6zm1 8c-4,2 -5,2 -5,5 0,2 -1,4 -1,5 0,1 0,2 2,2 4,0 10,-7 10,-13 0,-1 -1,-2 -2,-2 -1,0 -2,2 -4,3zm-35 -55c0,-7 16,-11 16,-20 0,-1 0,-4 -1,-6 6,3 10,9 10,13 0,8 -8,11 -8,16 0,6 9,6 9,13 0,6 -8,12 -8,20 0,5 3,10 10,11 -2,0 -4,0 -6,0 -11,0 -23,-9 -23,-20 0,-5 3,-10 6,-13 3,2 6,4 8,4 2,0 3,-1 3,-2 0,-4 -16,-8 -16,-16zm0 0z"/>
   <path class="fil0" d="M145 390c4,0 9,-1 13,-8 -2,-5 -4,-16 -4,-20 -2,-20 6,-39 15,-39 6,-1 11,5 11,15 2,25 -6,35 -11,44 1,4 7,10 13,10 2,0 4,-1 5,-2 -1,-2 -1,-3 -1,-6 0,-15 9,-27 17,-27 7,0 11,9 11,14 0,7 -6,12 -14,17 1,2 4,3 6,3 12,0 18,-14 23,-28 1,-2 2,-6 5,-6 5,0 7,33 15,33 4,0 7,-7 7,-13 0,-4 -2,-4 -2,-10 0,-7 4,-12 9,-12 3,0 4,2 4,6 0,13 -10,38 -24,38 -11,0 -10,-18 -14,-18 -4,0 -10,18 -30,18 -3,0 -7,-1 -10,-5 -5,4 -9,5 -14,5 -7,0 -11,-8 -14,-8 -4,0 -8,8 -20,8 -10,0 -12,-13 -15,-13 -3,0 -8,13 -13,13 -9,0 -11,-23 -19,-23 -6,0 -25,24 -30,23 -2,0 -3,-2 -3,-4 1,-3 3,-10 4,-14 2,-6 3,-13 4,-15 1,-3 3,-4 5,-4 1,0 1,2 2,3 1,5 2,11 4,11 3,0 12,-19 18,-19 7,0 8,29 17,29 3,0 5,-4 8,-8 0,-8 2,-19 8,-19 4,0 7,10 3,18 0,11 7,13 11,13zm155 -19c0,-6 -5,-13 -12,-13 -9,0 -18,10 -18,24 0,13 8,17 16,17 13,0 22,-11 26,-20 2,6 3,20 8,20 3,0 4,-1 7,-6 6,-14 12,-30 20,-30 3,0 1,5 9,5 3,0 6,-3 6,-6 0,-5 -5,-8 -11,-8 -20,0 -24,29 -27,29 -5,0 -4,-24 -7,-24 -4,0 -5,4 -6,6 -2,11 -10,27 -22,27 -2,0 -7,-2 -7,-4 0,-3 18,-4 18,-17zm-126 -28c-1,-5 -2,-8 -5,-8 -4,0 -6,13 -5,27 0,9 2,10 3,10 2,0 8,-16 7,-29zm-34 -12c0,-3 -3,-5 -6,-5 -4,0 -8,4 -8,9 0,3 3,6 7,6 4,0 7,-5 7,-10zm65 42c0,-3 -2,-6 -5,-6 -2,0 -6,2 -6,9 0,5 2,7 3,8 6,-1 8,-6 8,-11zm81 -7c4,0 5,6 4,9 -1,3 -5,6 -10,7 -2,-3 -2,-16 6,-16zm-286 4c0,-9 0,-17 4,-29 2,-7 4,-9 9,-10 5,-1 5,4 3,9 -2,13 -3,19 -2,33 1,15 8,21 15,21 11,0 16,-10 18,-23 2,-11 1,-16 0,-19 -1,-2 -3,-6 -3,-9 -1,-8 3,-12 6,-13 4,-1 5,1 7,5 1,7 2,15 1,28 -1,17 -9,37 -31,37 -18,0 -26,-12 -27,-30zm0 0z"/>
  </g>
 </g>
</svg>
