<?xml version="1.0" encoding="UTF-8"?>
<!DOCTYPE svg PUBLIC "-//W3C//DTD SVG 1.0//EN" "http://www.w3.org/TR/2001/REC-SVG-20010904/DTD/svg10.dtd">
<!-- Creator: CorelDRAW X8 -->
<svg xmlns="http://www.w3.org/2000/svg" xml:space="preserve" width="760px" height="380px" version="1.0" style="shape-rendering:geometricPrecision; text-rendering:geometricPrecision; image-rendering:optimizeQuality; fill-rule:evenodd; clip-rule:evenodd"
viewBox="0 0 760 380"
 xmlns:xlink="http://www.w3.org/1999/xlink">
 <defs>
  <style type="text/css">
   <![CDATA[
    .fil1 {fill:#F20E16}
    .fil0 {fill:url(#id0)}
   ]]>
  </style>
  <linearGradient id="id0" gradientUnits="userSpaceOnUse" x1="379.998" y1="380" x2="379.998" y2="-0.0011811">
   <stop offset="0" style="stop-opacity:1; stop-color:#E0E0E0"/>
   <stop offset="0.109804" style="stop-opacity:1; stop-color:#EFEFEF"/>
   <stop offset="0.470588" style="stop-opacity:1; stop-color:white"/>
   <stop offset="1" style="stop-opacity:1; stop-color:white"/>
  </linearGradient>
 </defs>
 <g id="Capa_x0020_1">
  <metadata id="CorelCorpID_0Corel-Layer"/>
  <g id="_2173775011584">
   <path class="fil0" d="M760 0c0,210 -170,380 -380,380 -210,0 -380,-170 -380,-380l760 0z"/>
   <path class="fil1" d="M338 228c0,-5 0,-8 5,-8l144 0c6,0 5,3 5,8 0,4 -1,5 -5,5l-144 0c-4,0 -5,-1 -5,-5zm-25 0c0,9 9,5 9,2 0,-9 -9,-6 -9,-2zm165 35c0,6 9,6 9,0 0,-6 -9,-7 -9,0zm-170 -75l1 0c1,3 5,8 3,12 -2,2 -6,2 -7,0 -3,-4 2,-9 3,-12zm-13 8c0,9 7,15 12,15 4,0 7,0 11,-5 9,-8 1,-18 -4,-27 -7,-11 -11,0 -14,5 -2,2 -5,9 -5,12zm-6 -107l0 -1 39 0c0,22 15,41 20,63l-80 0c1,-11 10,-26 14,-37 3,-7 7,-17 7,-25zm-17 -7c0,6 2,6 8,6 -1,2 0,3 -2,9 -4,17 -20,39 -20,57l0 112c0,16 16,31 25,31l51 0c2,0 12,-2 12,-9 0,-3 -4,-4 -6,-3 -3,1 -4,3 -8,3l-46 0c-8,0 -18,-12 -18,-21l0 -34 33 0c7,0 5,-9 2,-9l-35 0 0 -63 81 0c0,5 -1,11 5,11 6,0 4,-7 4,-14 0,-24 -21,-47 -21,-70 5,0 8,0 8,-6 0,-1 -2,-3 -4,-3l-66 0c-1,0 -3,2 -3,3zm162 127c0,-22 23,-43 38,-20 3,5 6,14 6,22l-44 0 0 -2zm-82 0c0,-16 15,-39 32,-27 1,1 2,2 3,4 5,6 9,14 9,25l-44 0 0 -2zm72 2l-18 0c0,-5 -2,-11 -3,-15 -1,-2 -1,-4 -2,-6 -2,-5 -7,-6 3,-17 17,-17 29,7 30,9 -5,8 -10,18 -10,29zm-33 -35c-8,-5 -9,-6 -19,-6 -4,0 -9,2 -12,5 -2,1 -3,2 -5,4 -7,7 -13,20 -13,32 -4,0 -6,1 -9,4 -6,6 -6,18 0,23 1,2 5,4 8,4 0,8 3,25 5,32 2,7 7,23 15,23l30 0c1,0 3,-1 4,-2 1,-1 2,-2 3,-3 4,-7 10,-22 11,-27l12 0c1,1 5,13 8,18 2,5 7,14 12,14l29 0c8,0 14,-18 14,-21 0,-3 -7,-6 -9,-1 -1,2 -2,5 -2,7 -1,2 -3,3 -3,6 -7,-2 -20,-1 -28,-1 -6,-9 -8,-15 -11,-25 -4,-9 -4,-7 -24,-7 -9,0 -6,12 -15,28 -1,2 -2,3 -2,5l-28 0c-1,-3 -3,-6 -4,-10 -2,-3 -3,-7 -4,-11 -1,-4 -1,-8 -2,-12 -1,-4 -1,-9 -2,-13l130 0c0,3 -1,9 1,11 3,2 7,2 8,-2 0,-1 0,-3 0,-4 1,0 1,-1 1,-2 0,0 0,0 0,0 1,-5 3,-2 7,-6 6,-6 6,-19 0,-24 -2,-3 -5,-4 -9,-4 0,-16 -13,-41 -30,-41 -8,0 -10,0 -17,5 -7,-11 -13,-17 -26,-17 -10,0 -21,11 -24,18z"/>
  </g>
 </g>
</svg>
