<?xml version="1.0" encoding="UTF-8"?>
<!DOCTYPE svg PUBLIC "-//W3C//DTD SVG 1.0//EN" "http://www.w3.org/TR/2001/REC-SVG-20010904/DTD/svg10.dtd">
<!-- Creator: CorelDRAW X8 -->
<svg xmlns="http://www.w3.org/2000/svg" xml:space="preserve" width="401px" height="400px" version="1.0" style="shape-rendering:geometricPrecision; text-rendering:geometricPrecision; image-rendering:optimizeQuality; fill-rule:evenodd; clip-rule:evenodd"
viewBox="0 0 401 400"
 xmlns:xlink="http://www.w3.org/1999/xlink">
 <defs>
  <style type="text/css">
   <![CDATA[
    .fil0 {fill:#005594}
   ]]>
  </style>
 </defs>
 <g id="Capa_x0020_1">
  <metadata id="CorelCorpID_0Corel-Layer"/>
  <path class="fil0" d="M357 202c12,5 12,11 14,19 5,15 14,31 0,26 -5,-1 -5,-10 -7,-18 -2,-7 -6,-20 -7,-27zm-308 19l-2 1c4,1 0,1 2,0 5,-1 15,-5 20,-5 7,1 15,4 18,8 3,6 0,17 -2,22 -3,8 -4,12 -12,14 -14,4 -12,-1 -19,-6 -8,-5 -16,-2 -20,-5 -12,-14 -8,-37 -4,-40 5,-2 15,-4 21,-7 16,-5 30,-12 45,-3 6,4 11,10 16,13 3,-5 18,-12 26,11 2,-1 2,-2 5,-3 -1,-10 -9,-17 -18,-19 -6,-1 -10,2 -16,-1 -8,-3 -14,-10 -24,-13 -15,-3 -13,9 -27,-7 -3,-4 -6,-4 -7,-11 3,4 16,11 21,12 9,3 24,-2 30,5 4,5 4,5 12,6 15,1 35,1 49,-3 -6,-8 -5,-4 -27,-3 -10,1 -21,1 -28,-3 -1,-10 8,-11 16,-9 9,2 13,7 20,2 -5,-3 -21,-8 -27,-9 -12,-1 -8,9 -28,9 -15,0 -19,-2 -28,-9 -5,-3 -19,-13 -15,-20 2,1 1,1 4,3 8,7 27,17 36,7l-3 -4c-13,1 -25,-2 -33,-11 -3,-5 -3,-6 -2,-12l4 3c4,3 8,5 13,7 3,2 4,1 8,-1 17,-8 25,-3 41,4 2,2 4,1 6,0l2 -2c-8,-4 -25,-14 -37,-14 -9,1 -12,7 -21,4 -16,-7 -24,-18 10,-21 -2,4 -6,8 -7,12l3 2c2,-2 4,-5 6,-8 3,-3 4,-5 7,-8 10,-14 22,-27 36,-38 3,-3 5,-5 8,-7 5,-4 12,-8 17,-12 7,-7 10,-19 17,-26 6,-6 14,-9 21,-3 4,2 4,3 10,4l-7 6c2,1 5,2 7,3 -12,4 -26,15 -29,27 -10,2 -15,7 -19,15 -4,9 -11,11 -18,16 -7,5 -34,23 -39,28 9,1 8,0 14,-4 4,-3 7,-5 11,-8 11,-7 26,-15 34,-25 6,-8 10,-25 29,-12 2,2 5,1 7,3 -2,2 -5,3 -7,5l6 3c-5,3 -8,4 -14,7 -11,8 -21,24 -23,39l5 1c4,-7 5,-17 10,-23 26,0 51,-1 78,1 5,0 12,1 17,2 5,1 7,7 10,11 14,19 11,7 6,25 -5,-3 -13,-18 -18,-23 -9,-10 -20,-4 -20,10 4,-1 4,0 6,-4 1,-3 2,-4 6,-4 4,4 0,5 0,13l4 1c1,-2 0,-5 3,-8 4,3 15,24 18,29 2,3 3,5 7,5 5,0 6,-2 8,-4l9 -10c1,-1 1,-1 4,1 2,6 -4,20 -8,24 -4,4 -17,3 -25,12 4,2 14,-7 24,-2 1,5 -6,12 -10,15 -10,10 -25,17 -39,21 -14,3 -31,0 -50,1 -7,1 -25,2 -31,4 -11,4 -17,-2 -27,-4 -7,-2 -12,12 -20,12 -6,1 -2,1 -10,7 -4,3 -7,5 -10,8 2,-18 11,-25 -4,-34 -5,-3 -11,-4 -18,-6 -11,-3 -7,-3 -19,0l10 2c-3,3 -7,6 -11,8zm120 -143c-1,-3 -2,-4 -6,-3 -6,5 3,12 6,3zm1 -47c2,2 2,2 6,2 6,-9 -7,-11 -6,-2zm64 2c-5,2 -2,10 4,8 6,-3 2,-11 -4,-8zm-108 95c2,1 3,-1 6,-3 2,-1 3,-3 5,-5 11,-12 3,-18 0,-10 -6,14 -11,13 -11,17l0 1zm-81 -58l-1 -2c-6,4 -7,2 -18,11 -2,2 -5,4 -4,6 3,4 21,-13 23,-15zm46 -30l3 3c6,-6 15,-15 19,-26l-2 -1c-4,2 -16,19 -20,24zm-61 -21c1,7 20,20 24,24l3 -3c-2,-3 -9,-10 -12,-13 -5,-3 -12,-10 -15,-8zm166 135l2 6c41,8 27,-16 54,-6 1,-5 3,-7 -8,-9 -7,-1 -13,0 -17,3 -13,11 -15,4 -31,6zm-37 -3c5,3 9,-3 15,-4 17,-5 26,8 56,-6l-1 -6c-6,2 -11,5 -18,5 -6,0 -13,-2 -20,-2 -19,0 -23,4 -32,13zm222 165c5,0 6,-2 6,-6 0,-12 -1,-11 -12,-10 -7,1 -12,1 -18,2 -6,0 -12,1 -18,2 -14,1 -19,-1 -16,12 11,0 44,0 58,0zm-183 -151c-8,1 -18,2 -25,5 -4,1 -19,6 -21,8 8,8 11,-5 32,-5l1 0c10,0 9,1 13,6 4,5 9,4 15,1 6,-3 21,-11 26,-12 -2,7 -7,11 -13,16l-13 8c-2,1 -4,2 -2,4 1,2 -2,3 3,1l21 -13c8,-6 12,-12 15,-25 -6,-2 -6,-1 -14,3 -4,2 -9,4 -13,6 -11,5 -20,10 -25,-3zm-120 -16c5,2 8,-2 14,-1 3,1 14,5 8,10l-8 6c-4,2 -3,1 -7,1 -2,0 -4,2 -6,3 6,6 21,-2 26,-4 10,-6 14,-9 26,-3 9,4 15,7 27,5 6,-1 23,-5 28,-8l-3 -4c-8,3 -28,8 -37,6 -5,-1 -14,-5 -8,-11 3,-3 14,-3 19,-3l3 -5c-7,-1 -17,-1 -23,2 -4,2 -6,3 -8,6 -3,4 -4,1 -10,1 -16,-2 -4,3 -21,-6 -9,-4 -18,1 -20,5zm128 60c-2,-3 -5,-7 -7,-10 -3,-4 -5,-7 -7,-11 -7,0 -22,7 -27,10 -16,9 -23,-3 -29,2 19,10 22,10 34,3 3,-2 12,-7 17,-6 3,2 9,9 10,15 -6,2 -23,3 -30,1 2,4 5,6 12,6 25,0 18,2 45,-9 17,-6 9,-4 29,-1 8,2 20,-8 22,-13 -4,-2 -4,-1 -7,1 -5,5 -11,7 -19,6 -4,0 -6,-2 -9,-3 3,-5 8,-13 12,-17 4,-5 14,-5 22,-5l4 -5c-8,-1 -19,-1 -25,2 -6,2 -10,9 -14,13 -8,9 -19,19 -33,21zm86 152c0,9 0,19 0,29 0,5 1,8 6,9 4,0 10,0 12,-2 3,-4 2,-75 2,-88 0,-6 -1,-8 -6,-8 -5,-1 -10,-1 -13,2 -3,3 -1,49 -1,58zm-39 -33c-7,0 -9,-1 -8,7 0,6 2,6 8,6 0,14 -3,40 4,49 10,12 28,9 30,7 1,-2 2,-9 0,-11 -5,-6 -15,3 -15,-15 0,-10 0,-20 0,-30 12,0 20,3 15,-13l-15 0c0,-7 0,-13 0,-19 0,-8 -2,-9 -10,-8 -12,0 -9,3 -9,27zm-150 -314c3,-4 6,-9 14,-6 5,2 9,7 6,14 -3,6 -2,1 -3,8 -1,8 -7,15 -16,15 -1,20 -29,15 -25,-1 1,-6 4,-7 8,-10 -1,-13 3,-19 16,-20zm-103 72l0 8 1 1c0,1 1,2 1,3 6,9 21,12 27,0 12,2 19,-2 21,-13 5,-1 8,-1 11,-5 2,-3 5,-9 3,-13 -7,-1 -2,3 -7,9 -2,2 -7,3 -11,3 -1,10 -8,15 -19,14 -4,6 -12,9 -18,2 -1,-3 -2,-7 -1,-10 2,-5 4,-5 8,-7l1 -2c0,-1 0,-1 0,-3 4,-9 12,-10 20,-10 4,-1 3,-1 5,-3 5,-5 9,-2 11,-5 0,-5 -9,1 -12,-13 -13,0 -20,-4 -20,-17 -2,-1 -4,-2 -5,-5 -1,-3 0,-7 1,-9 6,-7 14,-1 15,-1 3,0 10,-3 18,3 2,1 3,4 5,6 1,4 1,6 2,9 9,1 12,3 14,11 2,9 2,12 7,18 10,11 27,10 30,-7 8,-2 17,-3 18,-14 1,-5 -1,-6 0,-9 4,-5 10,-14 0,-23 -3,-2 -5,-2 -7,-4l-8 0c-4,3 -7,2 -11,9 -17,-3 -23,16 -18,23 -1,1 0,0 -1,1 0,0 -1,0 -1,1 -2,1 -4,2 -4,4 -1,-10 -4,-15 -15,-15 0,-17 -13,-23 -23,-20 -8,3 -4,2 -10,-1 -17,-8 -30,18 -12,26 -1,14 7,21 19,19 1,4 1,3 4,6 -6,5 -2,2 -5,5 -14,-1 -22,4 -23,17 -3,2 -5,2 -7,5l-3 4c-1,2 0,1 -1,2zm241 303c5,-6 6,-15 1,-22 -7,-13 -25,-10 -40,-19 0,-6 1,-7 7,-8 15,-3 16,7 20,8 4,1 11,0 13,-1 4,-3 -2,-18 -21,-21 -37,-6 -50,25 -28,38 6,3 11,4 17,5 5,1 8,2 10,3 4,1 8,4 5,9 -1,2 -3,3 -7,3 -19,3 -16,-9 -23,-9 -4,-1 -11,-1 -14,2 -1,7 4,12 8,16 13,10 41,10 52,-4zm96 -35c1,-18 32,-19 32,0l-32 0zm34 42c7,-3 18,-11 15,-21 -3,-1 -14,-1 -17,1 -2,1 -2,3 -5,5 -8,6 -25,4 -27,-13 11,0 23,0 35,0 14,0 20,2 17,-14 -4,-18 -18,-31 -39,-29 -19,2 -32,16 -32,36 -1,11 3,20 8,26 2,2 6,6 9,8 11,6 24,6 36,1zm-244 -42c0,-18 31,-19 32,0l-32 0zm27 44c12,-3 27,-14 21,-23 -22,-4 -15,6 -28,8 -12,3 -20,-5 -21,-15 12,0 23,0 35,0 14,0 20,3 17,-14 -4,-18 -17,-31 -39,-29 -36,4 -43,52 -15,70 7,4 22,7 30,3zm76 -82c6,0 11,2 11,-6 0,-7 1,-8 -6,-8l-145 0c-9,0 -9,4 -8,12l0 52c-3,-3 -19,-33 -20,-36 -4,-6 -7,-12 -10,-18 -4,-7 -5,-12 -16,-12 -9,0 -16,-2 -16,8l0 82c0,7 2,9 8,9 6,0 12,0 12,-8l0 -57c0,0 0,0 1,1 0,0 0,0 0,1l19 33c3,6 6,12 10,17 4,7 5,13 15,13 15,0 16,0 16,-14l0 -69 129 0zm111 -128c2,2 4,3 6,5 4,3 4,3 5,8l9 41c1,4 2,6 0,10 -2,3 -3,6 -7,5 -3,-4 -6,-28 -7,-34 -2,-8 -6,-28 -6,-35zm3 -104c3,-3 12,-7 15,-7 4,4 11,7 18,8l-1 6c-4,0 -14,-6 -32,-7zm-130 -35c2,-3 3,-3 5,-6 3,-5 3,-14 13,-20 18,-11 30,10 40,19 4,3 8,7 12,10l43 44c6,7 13,18 17,27 10,18 20,38 29,58 -6,-2 -13,-8 -17,-11 -5,-5 -10,-9 -15,-14 -3,-3 -4,-5 -7,-7 -5,-6 -14,-19 -18,-26l-6 0c3,8 21,31 28,37l12 11c6,6 16,13 24,18 7,4 5,4 9,13 3,6 5,10 7,15 -14,-6 -27,-19 -39,-28 -2,-1 -2,-1 -4,-3l-14 -12c-1,-2 -2,-3 -3,-4 -8,-9 -12,-11 -21,-22 -8,-9 -14,-19 -21,-29 -4,-6 -9,-15 -12,-21 -2,-4 -4,-7 -6,-11 -2,-5 -2,-9 -8,-9 -2,11 22,44 29,55l12 16 -11 -4c-3,2 -4,5 -6,7 -3,2 -5,5 -9,6 -8,-4 -1,-14 4,-23 -6,-10 -20,-23 -27,-43 -9,-25 -1,-38 -35,-35 2,-4 5,-6 7,-10l-12 2zm99 21c9,-5 20,-19 24,-29 1,-4 3,-10 4,-13l7 1c-2,6 -5,10 -6,17 -1,3 -1,7 1,10 1,1 4,3 7,2 10,-1 17,-16 23,-22l7 4 -4 4c-4,4 -8,10 -3,13 5,3 16,-1 22,-2l-1 8c-13,2 -25,4 -37,8 -16,6 -16,8 -27,18 -1,-1 0,0 -1,-2l-16 -17zm-217 14c-6,-2 -20,-18 -24,-24l-2 -3c-1,-2 0,-1 -1,-1 -2,2 -2,3 -3,6 6,5 16,17 22,23 3,3 3,1 3,4 -7,3 -23,3 -32,4l-3 5 29 -2c-1,2 -3,4 -4,6 -3,3 -3,2 -8,3 -7,1 -13,2 -19,3 -5,2 -11,5 -13,9 -2,3 0,6 -1,9 0,4 -3,4 -5,6 1,4 4,6 5,8 1,4 -3,5 -4,8 2,4 4,8 6,12 6,12 -3,6 11,24 3,4 6,6 8,10 -8,2 -15,6 -23,8 -11,3 -16,0 -18,14 -2,9 0,19 2,27 3,7 9,17 16,17 18,-1 13,3 21,8 6,4 21,-1 26,-4 6,-3 13,-9 18,-14 30,-24 23,-18 40,-14 11,3 16,0 27,-2 45,-9 58,12 107,-21 25,-18 18,-14 19,-29 1,-4 4,-7 7,-9 -1,-7 -1,-13 -1,-20 5,2 9,3 12,7 19,21 19,11 24,37l8 52c2,10 3,21 13,11 2,-2 4,-4 6,-6 6,-7 15,1 19,-5 3,-3 -3,-15 -4,-19 -2,-6 -5,-12 -7,-19 9,4 19,14 28,17 -4,-13 -10,-24 -15,-36 -10,-25 -29,-60 -42,-84 -3,-4 -8,-12 -10,-16 3,-5 4,-5 11,-4 5,0 9,1 13,2 5,1 19,5 22,7l3 -18c-5,-1 -14,-2 -17,-7 10,-3 22,-5 34,-5l0 -23c-5,3 -17,9 -23,6 -1,-3 2,-5 4,-6l8 -5c-3,-3 -13,-12 -17,-14 -3,7 -10,17 -16,21 -18,15 -3,-17 2,-23l-23 -3c0,14 -7,27 -16,36 -3,3 -6,5 -10,8 -5,-4 -19,-17 -26,-23 -10,-8 -20,-21 -26,-25 -11,-7 -28,-5 -35,5 -5,6 -4,12 -8,17 -2,4 -9,10 -11,14l12 -1c-1,3 -4,7 -5,10 10,0 28,-7 32,7 2,6 3,13 4,18 2,7 5,11 6,16 -13,-3 -28,-2 -42,-3 -10,-1 -40,1 -46,0 4,-4 7,-7 12,-9l15 -7 -9 -5 8 -4c1,0 1,0 1,-1 1,0 1,0 1,-1 -8,-2 -16,-6 -23,-11 4,-17 27,-22 35,-27 -3,-1 -7,-3 -10,-4 2,-2 7,-4 10,-6 -6,-2 -14,-3 -17,-6 -5,-5 -9,-7 -18,-6 -12,2 -18,15 -24,25 -6,12 -13,13 -24,22 -9,7 -18,14 -25,23z"/>
 </g>
</svg>
