<?xml version="1.0" encoding="UTF-8"?>
<!DOCTYPE svg PUBLIC "-//W3C//DTD SVG 1.0//EN" "http://www.w3.org/TR/2001/REC-SVG-20010904/DTD/svg10.dtd">
<!-- Creator: CorelDRAW X8 -->
<svg xmlns="http://www.w3.org/2000/svg" xml:space="preserve" width="1200px" height="400px" version="1.0" style="shape-rendering:geometricPrecision; text-rendering:geometricPrecision; image-rendering:optimizeQuality; fill-rule:evenodd; clip-rule:evenodd"
viewBox="0 0 1200 400"
 xmlns:xlink="http://www.w3.org/1999/xlink">
 <defs>
  <style type="text/css">
   <![CDATA[
    .fil1 {fill:black}
    .fil0 {fill:#E2001A}
   ]]>
  </style>
 </defs>
 <g id="Capa_x0020_1">
  <metadata id="CorelCorpID_0Corel-Layer"/>
  <g id="_2173767397600">
   <g>
    <path class="fil0" d="M138 171c5,7 5,16 3,24 -11,40 -43,81 -20,122 12,20 48,20 63,5 11,-12 -11,3 -15,-18 -8,-42 33,-87 12,-136 55,-37 117,-67 151,-129 4,-7 6,-17 2,-25 -5,-10 -15,-16 -26,-13 -9,2 -17,8 -22,14 -42,48 -81,102 -139,140l-9 16 0 0zm-3 -4c-29,41 -46,94 -88,129 -10,8 -23,10 -35,5 -12,-5 -15,-20 -10,-31 24,-61 98,-83 117,-146 0,-1 -2,-3 -5,-2 -34,11 -41,58 -76,68 -8,2 -18,1 -24,-7 -8,-11 -2,-26 6,-36 20,-24 48,-36 76,-50 6,-3 13,-7 19,-10 29,-15 51,-38 82,-38 3,0 6,6 4,9 -21,32 -38,60 -57,92 0,1 -9,16 -9,17l0 0zm872 -86c13,1 20,2 27,19 3,7 1,11 0,18 -3,14 -34,46 -48,37 -3,-2 3,-9 6,-15 2,-3 2,-8 0,-10 -15,-13 -13,-23 -9,-33 3,-8 16,-16 24,-16l0 0zm0 0l0 0 0 0z"/>
   </g>
   <g>
    <path class="fil0" d="M811 359c15,-11 25,-27 32,-38 1,-3 -3,0 -10,2 -9,3 -44,27 -40,41 0,0 3,2 4,2 6,0 10,-4 14,-7l0 0zm211 -97c18,-13 27,-44 21,-67 -13,5 -35,24 -50,38 -17,17 -2,4 7,6 8,3 20,15 14,21 -2,2 4,5 8,2l0 0zm-94 -109c8,-1 11,14 3,17 -25,11 -70,23 -72,62 0,3 6,10 15,7 27,-12 34,-45 58,-63 13,-11 27,4 22,18 -7,17 -16,32 -26,48 -5,7 5,3 7,1 52,-31 88,-80 145,-101 10,-4 21,-3 30,7 4,4 6,9 3,15 -4,9 -15,7 -24,9 -3,1 -7,5 -8,8 -6,21 1,43 -5,63 -6,20 -17,37 -36,50 -16,12 -37,14 -56,8 -6,-2 -11,-6 -15,-11 -26,-30 16,-48 -8,-35 -19,11 -54,30 -66,45 -21,27 -38,54 -62,75 -18,15 -37,28 -62,23 -10,-3 -16,-12 -16,-20 -2,-62 82,-76 116,-105 -4,-2 -20,11 -35,10 -7,0 -18,-1 -23,-10 -10,-16 -8,-32 0,-45 22,-42 66,-74 115,-76l0 0zm-666 61c6,-9 12,-18 13,-27 0,-6 -1,-7 -6,-6 -8,0 -34,30 -31,48 0,3 10,-1 11,-2 5,-4 10,-9 13,-13l0 0zm138 -67c14,-18 24,-32 30,-45 0,-1 -2,-5 -5,-5 -18,0 -43,33 -56,58 -4,9 -13,31 -11,36 4,3 31,-28 42,-44l0 0zm114 -5c18,-24 41,-60 31,-61 -11,0 -54,46 -69,92 -1,3 -2,9 -1,8 7,-2 28,-23 39,-39l0 0zm-235 9c17,-4 30,10 28,25 -3,34 -20,55 -53,80 -3,2 0,4 3,5 22,0 51,-25 54,-32 3,-11 7,-30 10,-39 3,-8 8,-18 12,-26 26,-53 83,-133 131,-112 10,5 11,14 7,28 -17,67 -73,121 -112,151 -26,19 33,17 49,4 4,-3 13,-8 14,-14 12,-63 79,-184 158,-194 8,-1 16,3 17,16 3,32 -14,51 -30,77 -27,46 -63,74 -97,109 -6,7 -4,24 14,26 8,1 15,-4 21,-4 -1,29 -29,53 -57,46 -13,-3 -25,-15 -25,-26 1,-16 -2,-7 -4,-5 -27,23 -81,44 -105,5 -17,4 -40,26 -65,24 -16,-2 -33,-6 -42,-18 -3,-4 -14,6 -22,1 -10,-5 -7,-11 -3,-16 6,-6 20,-6 21,-17 4,-43 33,-84 76,-94l0 0zm0 0l0 0 0 0z"/>
   </g>
   <g>
    <path class="fil0" d="M655 360c10,-7 39,-38 31,-37 -8,1 -39,18 -48,32 -3,5 -2,9 3,10 5,0 10,-2 14,-5l0 0zm121 -191c-14,2 -54,31 -68,54 -3,5 -5,11 -2,17 2,5 8,7 14,5 29,-11 34,-44 52,-66 2,-7 31,-29 40,-13 11,18 -26,64 -45,95 -1,3 -1,6 2,5 10,-4 19,-14 24,-18 14,7 -19,54 -57,64 -11,2 -41,87 -123,85 -17,0 -20,-23 -12,-38 21,-39 78,-61 105,-69 1,0 10,-9 11,-13 2,-5 0,-3 -2,-2 -19,8 -36,12 -50,2 -29,-21 -1,-64 23,-82 -14,2 -26,1 -36,-5 -3,-2 -7,8 -8,15 -4,37 -31,69 -62,87 -13,8 -27,9 -42,4 -14,-5 -24,-19 -25,-32 -5,-53 37,-99 88,-108 9,-1 15,2 19,11l-2 2c-24,8 -42,33 -49,50 -4,9 -11,34 8,30 29,-6 44,-47 39,-67l0 -7c8,-5 16,-12 18,-12l0 0c11,-1 32,8 47,10 38,3 57,-23 87,-16 3,0 5,2 7,4 2,2 3,8 2,7 0,0 -2,0 -3,1z"/>
   </g>
   <g>
    <path class="fil1" d="M1200 119c0,-13 -10,-21 -21,-21 -10,0 -20,8 -20,21 0,13 10,20 20,20 11,0 21,-7 21,-20l0 0zm-24 -2l0 -6 3 1c2,0 5,0 5,2 0,2 -2,3 -4,3l-4 0zm0 4l2 0 5 9 6 0 -6 -10c3,0 6,-1 6,-5 0,-6 -4,-7 -9,-7l-9 0 0 22 5 0 0 -9zm18 -2c0,9 -7,16 -15,16l0 0c-8,0 -14,-7 -14,-16 0,-10 6,-16 14,-16 8,0 15,6 15,16z"/>
   </g>
  </g>
 </g>
</svg>
