<?xml version="1.0" encoding="UTF-8"?>
<!DOCTYPE svg PUBLIC "-//W3C//DTD SVG 1.0//EN" "http://www.w3.org/TR/2001/REC-SVG-20010904/DTD/svg10.dtd">
<!-- Creator: CorelDRAW X8 -->
<svg xmlns="http://www.w3.org/2000/svg" xml:space="preserve" width="1909px" height="400px" version="1.0" style="shape-rendering:geometricPrecision; text-rendering:geometricPrecision; image-rendering:optimizeQuality; fill-rule:evenodd; clip-rule:evenodd"
viewBox="0 0 1909 400"
 xmlns:xlink="http://www.w3.org/1999/xlink">
 <defs>
  <style type="text/css">
   <![CDATA[
    .fil0 {fill:#E31E25;fill-rule:nonzero}
   ]]>
  </style>
 </defs>
 <g id="Capa_x0020_1">
  <metadata id="CorelCorpID_0Corel-Layer"/>
  <g>
   <path class="fil0" d="M695 349l0 -277 62 0c0,0 56,1 56,57 0,55 -49,54 -49,54l-54 1c0,0 32,6 42,39 28,87 48,164 121,174 41,6 56,0 59,0 2,-1 4,-2 7,-4l-3 -2c0,0 -25,-24 -39,-72 -12,-43 -24,-76 -42,-97 17,-10 53,-32 53,-97 0,-40 -12,-71 -34,-93 -37,-34 -89,-32 -91,-32l0 0 -184 0 0 298c0,36 7,51 50,51l46 0zm781 -134l0 -81 -102 0 0 -58 142 0 0 -76 -238 0 0 279c0,41 0,70 43,70 39,0 195,0 195,0l0 -75 -122 0c-8,0 -13,-2 -16,-5 -4,-4 -5,-12 -5,-22 0,-3 1,-30 1,-32l102 0zm-946 0l0 -81 -102 0 0 -58 141 0 0 -76 -237 0 0 279c0,41 0,70 43,70 39,0 194,0 194,0l0 -75 -121 0c-8,0 -13,-2 -16,-5 -4,-4 -5,-12 -5,-22 0,-3 1,-30 1,-32l102 0zm1350 81c7,0 12,2 17,7 5,5 7,10 7,16 0,7 -2,13 -7,17 -5,5 -10,8 -17,8 -6,0 -12,-3 -16,-8 -5,-4 -7,-10 -7,-17 0,-6 2,-11 6,-16 5,-5 11,-7 17,-7l0 0zm29 24c0,-8 -3,-15 -8,-21 -6,-5 -13,-8 -21,-8 -7,0 -14,2 -20,8 -5,5 -8,12 -8,21 0,8 2,14 8,20 5,6 12,8 20,8 8,0 15,-2 20,-8 6,-5 9,-12 9,-20l0 0zm-23 -7c0,2 -1,3 -2,4 -1,1 -3,2 -5,2l-3 0 0 -10 2 0c2,0 4,0 5,1 2,1 3,2 3,3l0 0zm-10 23l0 -12 2 0 2 0c1,0 2,1 3,1 1,0 1,1 2,2 0,1 0,2 0,4 1,2 1,3 1,5l8 0 0 -1c-1,-1 -1,-1 -1,-1l0 -4c0,-3 -1,-6 -3,-7 -1,-1 -2,-2 -4,-2 2,0 4,-1 5,-2 2,-1 3,-3 3,-6 0,-4 -2,-6 -5,-8 -1,0 -3,-1 -6,-1 0,0 -2,0 -6,0l-9 0 0 32 8 0zm-332 -336l0 75 163 0c-16,21 -153,192 -153,192 -9,12 -10,23 -10,32l0 1c0,36 7,51 49,51l242 0 0 -69 -142 0c-9,0 -13,0 -15,-6 -3,-6 1,-11 9,-20l148 -187 0 -69 -291 0zm-1247 0c0,0 0,314 0,350l-48 0c-43,0 -50,-15 -50,-51l0 -84 -101 0 0 135 -55 0c-38,0 -43,-10 -43,-44l0 -306 98 0 0 134 101 0 0 -134 98 0zm398 349l0 0 0 0zm239 -349l0 272c0,43 5,76 65,78 18,1 56,1 84,0 138,0 167,-91 167,-173 0,-170 -127,-177 -167,-177l-149 0zm129 282c-29,0 -33,-22 -33,-53l0 -157 33 0c28,0 94,18 94,106 0,93 -64,104 -94,104zm413 -67l0 0 0 0zm-946 0l0 0 0 0zm1346 121l0 0 0 0zm-332 -336l0 0 0 0zm-1247 0l0 0 0 0z"/>
  </g>
 </g>
</svg>
