<?xml version="1.0" encoding="UTF-8"?>
<!DOCTYPE svg PUBLIC "-//W3C//DTD SVG 1.0//EN" "http://www.w3.org/TR/2001/REC-SVG-20010904/DTD/svg10.dtd">
<!-- Creator: CorelDRAW X8 -->
<svg xmlns="http://www.w3.org/2000/svg" xml:space="preserve" width="1214px" height="400px" version="1.0" style="shape-rendering:geometricPrecision; text-rendering:geometricPrecision; image-rendering:optimizeQuality; fill-rule:evenodd; clip-rule:evenodd"
viewBox="0 0 1214 400"
 xmlns:xlink="http://www.w3.org/1999/xlink">
 <defs>
  <style type="text/css">
   <![CDATA[
    .fil1 {fill:#000002}
    .fil0 {fill:#DF2525}
   ]]>
  </style>
 </defs>
 <g id="Capa_x0020_1">
  <metadata id="CorelCorpID_0Corel-Layer"/>
  <g id="_2173459550800">
   <path class="fil0" d="M330 271c0,33 -11,60 -36,79 -54,43 -137,35 -189,-4 -38,-29 -19,-80 -54,-80l-51 0c0,28 0,54 23,77 14,15 25,22 44,31 53,26 154,33 217,17 21,-5 37,-11 54,-21 35,-20 55,-53 55,-96l0 -274 -63 0 0 271z"/>
   <path class="fil1" d="M554 246l47 0 0 -111c0,-20 22,-19 25,-6l0 95c0,27 21,22 46,22l0 -110c0,-46 -38,-38 -69,-38l0 -98 -49 0 0 246z"/>
   <path class="fil0" d="M2 99c0,26 -6,56 31,65 15,3 53,-1 53,14 0,14 3,33 -4,38 -7,6 -19,6 -24,-1 -6,-8 3,-37 -24,-37 -38,0 -34,-4 -34,11 0,39 31,58 64,58 32,0 77,-2 77,-44 0,-26 3,-53 -34,-61 -24,-6 -52,5 -52,-21 0,-21 -3,-35 19,-35 24,0 4,37 30,37l38 0c0,-21 -3,-37 -18,-48 -33,-25 -122,-19 -122,24z"/>
   <path class="fil0" d="M234 247c40,0 76,-11 76,-56 0,-17 5,-13 -36,-13 -43,0 -9,41 -41,41 -8,0 -14,-7 -14,-15l0 -99c0,-5 1,-9 4,-12 7,-7 16,-7 22,0 9,9 -3,30 23,30l42 0c0,-23 -3,-36 -19,-49 -22,-18 -100,-22 -124,10 -10,14 -7,51 -7,76 0,12 -3,23 -1,38 4,25 14,38 38,44 10,3 26,5 37,5z"/>
   <path class="fil1" d="M1007 212l0 -82c0,-18 25,-17 25,-1l0 83c0,18 -25,17 -25,0zm-49 -71l0 62c0,35 30,44 60,44 32,0 63,-10 63,-41l0 -68c0,-16 -8,-26 -19,-32 -21,-13 -104,-22 -104,35z"/>
   <path class="fil1" d="M474 225c-6,0 -12,-4 -12,-9l0 -90c0,-8 25,-21 25,13l0 64c0,11 -1,22 -13,22zm-61 -92l0 77c0,50 122,50 122,0l0 -77c0,-49 -122,-49 -122,0z"/>
   <path class="fil1" d="M693 246l43 0 0 -117c0,-9 25,-20 25,10l0 77c0,5 -6,30 18,30l26 0 0 -114c0,-19 -12,-34 -31,-34l-81 0 0 148z"/>
   <path class="fil1" d="M1101 246l43 0 0 -114c0,-11 8,-12 14,-12 13,0 11,13 11,27l0 77c0,27 17,22 45,22l0 -117c0,-16 -13,-31 -33,-31l-80 0 0 148z"/>
   <path class="fil1" d="M826 129c0,19 -4,46 27,51 17,4 41,-3 41,15 0,11 3,30 -13,30 -22,0 -3,-34 -27,-34 -19,0 -29,-3 -29,4 0,18 4,31 14,39 29,23 98,16 98,-19 0,-21 4,-48 -27,-53 -10,-2 -16,-2 -26,-2 -18,-1 -15,-13 -15,-27 0,-15 8,-15 18,-15 13,0 1,30 22,30l30 0 0 -7c0,-27 -23,-43 -49,-43 -21,0 -64,-1 -64,31z"/>
   <path class="fil1" d="M1008 400l10 0c2,-7 6,-14 6,-20l3 0c1,5 5,16 6,20l11 0c2,-12 9,-26 10,-33l-9 0c0,4 -4,16 -7,19l-6 -19 -11 0c-2,4 -4,13 -5,18l-3 0c-1,-6 -4,-14 -6,-18l-9 0c1,10 8,22 10,33z"/>
   <path class="fil1" d="M755 299l0 28 10 0c0,-23 -2,-28 11,-25l0 25 10 0 0 -21c0,-6 12,-9 12,3l0 18 9 0c0,-11 4,-46 -22,-28 -6,-4 -3,-5 -11,-5 -8,0 -2,4 -9,2 -5,-1 4,-2 -5,-2 -4,0 -5,2 -5,5z"/>
   <path class="fil1" d="M477 400l10 0c3,-6 4,-17 9,-21 1,7 4,14 6,21l10 0c3,-10 10,-23 11,-33l-9 0c-1,5 -2,7 -3,11 -2,5 -1,5 -5,8 0,-5 -4,-15 -5,-19l-11 0c-1,7 -5,13 -6,19 -4,-3 -3,-3 -4,-8 -2,-4 -3,-6 -3,-11l-11 0c1,7 10,25 11,33z"/>
   <path class="fil1" d="M539 327l9 0c0,-15 -3,-26 9,-27 5,8 3,10 3,27l9 0c0,-13 -3,-24 7,-27 7,5 4,7 4,27l11 0c0,-22 3,-33 -15,-33 -4,0 -4,3 -7,5 -10,-6 -12,-6 -21,0l0 -5 -9 0 0 33z"/>
   <path class="fil1" d="M438 292c1,7 4,10 5,17l-12 0c1,-6 3,-14 7,-17zm-25 35l11 0c5,-11 -2,-10 19,-10 5,0 5,6 7,10l11 0c-3,-11 -16,-38 -17,-46l-13 0c-1,4 -2,7 -4,11 -2,4 -3,7 -4,12 -3,7 -7,17 -10,23z"/>
   <path class="fil1" d="M826 302c5,0 3,0 6,-2 0,1 1,1 1,1 0,1 5,2 5,10 0,5 -2,5 -3,10l-9 0c-3,-12 -3,-7 0,-19zm-12 -3l0 40 11 0 0 -13c26,12 29,-32 9,-32 -8,0 -3,4 -10,2 -4,-1 4,-2 -5,-2 -4,0 -5,2 -5,5z"/>
   <path class="fil1" d="M805 383c0,-15 14,-11 14,-4 0,6 1,15 -6,15 -5,0 -8,-7 -8,-11zm-8 17l7 -2c1,0 1,0 1,0 4,-1 24,10 24,-16 0,-16 -13,-16 -24,-14l0 -14 -8 0 0 46z"/>
   <path class="fil1" d="M1147 385c0,-16 6,-12 12,-11 2,10 2,9 0,18 -6,2 -4,2 -10,0 -1,-3 -2,-3 -2,-7zm14 -15c-24,-16 -36,30 -6,30 5,0 0,-3 8,-1l6 1 0 -46 -8 0 0 16z"/>
   <path class="fil1" d="M591 400l9 0 0 -17c3,3 11,13 12,17l11 0c-1,-6 -10,-15 -13,-20 2,-1 11,-11 12,-13l-12 0c-1,5 -6,9 -10,12l0 -25 -9 0 0 46z"/>
   <path class="fil1" d="M517 321l-6 0c0,-10 2,-9 12,-9 -1,5 -1,9 -6,9zm-15 -16c2,0 4,0 6,0 7,-2 1,-5 13,-5 1,5 0,3 2,6 -33,0 -24,23 -11,23 3,0 9,-3 9,-4l4 1c3,1 3,1 7,1 0,-27 3,-33 -18,-33 -8,0 -11,5 -12,11z"/>
   <path class="fil1" d="M758 394c-6,0 -6,-9 0,-9l6 0c0,5 -1,9 -6,9zm-13 -17c20,0 0,-8 19,-4l0 6c-31,0 -22,21 -10,21 10,0 5,-1 11,-5l0 5c11,0 9,0 9,-15 0,-19 -7,-18 -19,-18 -7,0 -10,3 -10,10z"/>
   <path class="fil1" d="M406 394c-4,0 -5,-1 -5,-5 0,-6 6,-4 12,-4 -1,5 -1,9 -7,9zm-9 -17c9,0 1,-3 12,-6 2,3 3,4 4,8 -9,0 -15,-1 -20,5 -2,3 -6,19 16,14 7,-1 2,2 13,2 0,-32 2,-33 -19,-33 -10,0 -13,10 -6,10z"/>
   <path class="fil1" d="M725 312c0,-11 14,-20 14,3 0,7 -14,10 -14,-3zm-10 -1c0,22 34,25 34,-2 0,-20 -34,-19 -34,2z"/>
   <path class="fil1" d="M850 373l1 0c5,0 4,2 5,6l-12 0c1,-3 1,-6 6,-6zm-16 12c0,18 30,21 31,3l-9 0c-1,9 -12,8 -12,-3l22 0c0,-18 -9,-18 -19,-18 -10,0 -13,8 -13,18z"/>
   <path class="fil1" d="M868 321c-8,0 -2,1 -6,-1 0,-9 3,-8 11,-8 0,5 -1,9 -5,9zm-14 -16l9 0 0 -5c9,0 9,-1 10,6 -32,0 -19,23 -11,23 7,0 7,-4 12,-3l1 0c4,1 4,1 7,1 0,-27 3,-33 -17,-33 -8,0 -11,3 -11,11z"/>
   <path class="fil1" d="M890 299l0 28 10 0 0 -21c0,-6 12,-7 12,0l0 21 9 0c0,-24 3,-33 -12,-33 -8,0 -3,4 -9,2 -5,-1 3,-2 -6,-2 -3,0 -4,2 -4,5z"/>
   <path class="fil1" d="M944 379l-11 0c0,-5 0,-6 6,-6 5,0 4,2 5,6zm-22 3c0,17 9,18 20,18 7,0 11,-5 11,-12 -14,0 -8,6 -13,6 -8,0 -7,-3 -9,-9l24 0c-1,-26 -33,-21 -33,-3z"/>
   <path class="fil1" d="M681 373c6,0 13,13 2,21 -6,-2 -8,-3 -9,-10 0,-5 2,-11 7,-11zm-16 7c0,16 3,20 19,20 19,0 19,-33 0,-33 -8,0 -19,0 -19,13z"/>
   <path class="fil1" d="M1067 385c0,-14 3,-13 12,-11 2,10 2,9 0,18 -9,3 -5,0 -10,0 -1,-3 -2,-3 -2,-7zm-10 -3c0,26 34,21 34,1 0,-22 -34,-21 -34,-1z"/>
   <path class="fil1" d="M536 383l2 -9c13,-3 13,3 10,18l-6 2c-4,-3 -6,-5 -6,-11zm-10 0c0,21 34,25 34,-1 0,-21 -34,-20 -34,1z"/>
   <path class="fil1" d="M641 327c0,3 -3,7 -4,12l9 0c3,-6 5,-14 8,-21 2,-6 8,-17 8,-24 -10,0 -11,3 -15,21l-5 -11c-4,-11 -3,-10 -10,-10 -11,0 9,23 9,33z"/>
   <path class="fil1" d="M934 339l9 0c2,-10 16,-36 16,-45 -12,0 -9,5 -14,17l-2 4c-2,-7 -5,-21 -13,-21 -11,0 7,22 8,32 0,4 -3,8 -4,13z"/>
   <path class="fil1" d="M646 360l0 7 -6 0 0 7 6 0 0 26 8 0 0 -26 8 0 0 -7 -8 0c1,-6 1,-7 8,-7l0 -8c-5,0 -16,0 -16,8z"/>
   <path class="fil1" d="M483 287l0 7c-8,1 -7,1 -8,8l8 0 0 25 9 0 0 -25 7 0c0,-7 0,-7 -7,-8 0,-7 0,-7 7,-7 0,-3 1,-7 -3,-7 -6,0 -13,1 -13,7z"/>
   <path class="fil1" d="M681 309c0,23 26,27 31,6l-10 0c-1,6 0,6 -6,6 -6,0 -3,0 -4,-3 -7,-13 9,-26 10,-12l10 0c-4,-9 -4,-12 -16,-12 -8,0 -15,7 -15,15z"/>
   <path class="fil1" d="M875 367l-6 0 0 7 6 0c0,27 0,26 18,26l0 -6c-9,-1 -8,0 -8,-20l8 0 0 -7 -8 0 0 -9c-6,1 -9,2 -10,9z"/>
   <path class="fil1" d="M432 367l-5 0 0 7 5 0c0,27 0,26 18,26l0 -6c-6,0 -3,0 -7,-2 -1,-8 -2,-4 -2,-18 9,0 9,1 9,-7l-9 0 0 -9c-6,3 -8,2 -9,9z"/>
   <path class="fil1" d="M902 367l-6 0 0 7 6 0c0,27 -1,26 17,26l0 -6c-10,-1 -9,-6 -9,-20 9,0 9,1 9,-7l-9 0 0 -9c-6,3 -8,2 -8,9z"/>
   <polygon class="fil1" points="614,327 625,327 625,281 614,281 "/>
   <path class="fil1" d="M566 400c11,0 10,0 10,-11 0,-7 0,-7 1,-13 4,-1 5,-1 9,-2l0 -7c-17,0 2,3 -13,0l-7 0 0 33z"/>
   <polygon class="fil1" points="1122,400 1131,400 1131,354 1122,354 "/>
   <path class="fil1" d="M1097 400l9 0c0,-19 -1,-25 12,-26l0 -7c-18,0 2,5 -14,1l-7 -1 0 33z"/>
   <path class="fil1" d="M961 400l9 0c0,-16 -3,-25 11,-26l0 -7c-5,0 -8,2 -10,2l-3 -1c-4,-1 -4,-1 -7,-1l0 33z"/>
   <path class="fil1" d="M705 400l9 0c0,-16 -3,-25 10,-26l0 -7c-7,0 -6,2 -10,2 0,0 0,-1 -1,-1 0,0 0,0 0,0 -1,0 -1,0 -1,0 -4,-1 -4,-1 -7,-1l0 33z"/>
   <polygon class="fil1" points="598,327 607,327 607,294 598,294 "/>
   <polygon class="fil1" points="598,289 607,289 607,281 598,281 "/>
  </g>
 </g>
</svg>
