<?xml version="1.0" encoding="UTF-8"?>
<!DOCTYPE svg PUBLIC "-//W3C//DTD SVG 1.0//EN" "http://www.w3.org/TR/2001/REC-SVG-20010904/DTD/svg10.dtd">
<!-- Creator: CorelDRAW X8 -->
<svg xmlns="http://www.w3.org/2000/svg" xml:space="preserve" width="682px" height="400px" version="1.0" style="shape-rendering:geometricPrecision; text-rendering:geometricPrecision; image-rendering:optimizeQuality; fill-rule:evenodd; clip-rule:evenodd"
viewBox="0 0 682 400"
 xmlns:xlink="http://www.w3.org/1999/xlink">
 <defs>
  <style type="text/css">
   <![CDATA[
    .fil4 {fill:#1966B9}
    .fil0 {fill:#1967BB}
    .fil5 {fill:#FA0000}
    .fil3 {fill:#FDD213}
    .fil2 {fill:#FEFEFF}
    .fil1 {fill:red}
   ]]>
  </style>
 </defs>
 <g id="Capa_x0020_1">
  <metadata id="CorelCorpID_0Corel-Layer"/>
  <g id="_2173774969632">
   <path class="fil0" d="M173 307l-1 -150 33 -7 1 126c6,-1 15,-3 21,-6 2,-1 4,-2 6,-3l0 27c-1,2 -1,1 -3,2 -1,0 -3,0 -4,0 -2,1 -5,2 -8,2 -5,1 -10,2 -15,3 -5,1 -28,7 -30,6zm144 -49c-5,31 -65,43 -75,21 -3,-7 -2,-71 -2,-87 0,-7 -1,-23 0,-29 6,-29 64,-44 75,-20 3,6 2,46 2,56 0,10 1,54 0,59zm181 -37c-3,15 -17,23 -31,28 -17,5 -38,5 -44,-10 -3,-6 -2,-71 -2,-87 0,-7 0,-23 1,-29 2,-8 7,-14 12,-18 15,-12 54,-21 63,0 2,6 2,71 2,87 0,7 0,23 -1,29zm-335 29c0,9 0,19 0,28 0,11 0,16 -5,24 -11,16 -45,25 -62,20 -18,-6 -14,-23 -14,-42 0,-11 -1,-79 0,-85 6,-28 60,-39 75,-25 6,5 6,13 6,23 0,9 0,19 0,28 -6,2 -25,7 -29,4 -4,-2 -3,-9 -3,-14 0,-5 0,-14 -1,-18 -3,-2 -17,-2 -17,8 0,24 0,55 0,80 1,11 -1,17 12,12 8,-2 6,-7 6,-21 0,-10 0,-15 10,-17 7,-2 14,-4 22,-5zm231 -65c18,5 15,13 15,32 0,7 0,15 0,23 0,9 1,11 7,16 -2,1 -23,5 -26,6 -5,1 -9,-2 -11,-5 -2,-4 -2,-8 -2,-13 0,-50 3,-48 -16,-43l0 67 -32 7 0 -151 36 -8c16,-3 43,-6 43,17 1,7 0,15 0,22 1,8 1,13 -3,19 -4,6 -6,7 -11,11zm206 32c-4,2 -16,4 -21,5 -11,3 -12,1 -15,-8 -2,-6 -11,-36 -13,-39 -4,14 -9,30 -13,44 -2,8 -3,12 -12,14 -8,2 -17,4 -24,5 2,-6 23,-70 26,-78 3,-10 3,-6 -2,-18l-26 -54c17,-2 32,-10 37,-1 2,6 4,11 6,17 2,4 5,12 8,16l13 -38c3,-7 7,-9 16,-10 6,-2 14,-4 21,-5 -1,5 -5,13 -7,19l-15 37c-10,25 -10,16 -1,38 3,7 21,53 22,56zm-528 14l1 52c0,10 -2,25 2,33 2,4 6,8 9,10 14,10 26,12 44,8 16,-3 16,-5 27,-9 2,-2 4,-3 6,-4 3,-2 5,-2 9,-3l0 5 59 -13c4,-1 9,-2 13,-3 7,-1 8,0 13,3l71 29c14,6 12,7 26,1 8,-3 16,-6 24,-9 65,-28 121,-53 183,-86l16 -9c3,-1 6,0 8,-1 9,-1 19,-4 28,-5l8 -2 -1 -2 -4 -11 21 -13c8,-6 -4,-11 -13,-16 -7,-4 -14,-9 -21,-13 -6,-3 -5,-2 -7,-9 -2,-4 -4,-9 -5,-13 -3,-6 -2,-4 0,-10 2,-4 3,-7 4,-11 3,-7 6,-13 9,-20l20 -52 -8 1 2 -5c-5,1 -13,3 -19,4 -6,2 -13,3 -19,4 -10,2 -17,5 -21,14 -1,3 -2,6 -4,9l-1 4c-1,-1 -3,-5 -3,-6 -1,-1 -2,-2 -4,-3 -2,-2 -3,-2 -5,-3 -4,-3 -5,-3 -11,-4 -13,1 -29,7 -43,9l2 3c-21,-4 -17,-1 -34,1l-15 5c-3,1 -10,-3 -14,-4 -23,-10 -48,-21 -72,-29 -4,-2 -11,-6 -16,-4 -13,3 -105,43 -114,47 -19,8 -37,17 -55,26 -13,6 -28,13 -40,20l-78 44c-12,8 -8,8 9,19 5,2 9,5 13,7l0 14z"/>
   <path class="fil1" d="M73 283l-1 -52c-4,-2 -46,-26 -48,-29 -6,-9 6,-14 12,-18 5,-3 9,-6 14,-9 10,-5 19,-10 29,-16 28,-17 59,-31 88,-46 10,-5 21,-9 31,-14 9,-5 20,-10 30,-14 34,-15 61,-26 96,-39 19,-7 16,-7 34,0 11,5 22,9 33,13 4,2 60,25 63,27 17,-2 13,-5 34,-1l-2 -3c14,-2 30,-8 43,-9 -4,-2 -34,-16 -40,-19 -43,-18 -85,-35 -130,-49 -8,-3 -16,-7 -25,-4 -13,3 -53,18 -66,23 -68,25 -141,59 -205,94 -22,13 -35,21 -56,34 -5,4 -4,2 -4,10 -1,4 -1,9 -2,14 -1,19 -1,39 0,58 0,7 1,6 5,9 3,2 6,4 9,6 9,6 28,18 38,23 4,2 16,10 20,11z"/>
   <path class="fil1" d="M618 226l1 2 -8 2c-2,2 -42,23 -45,24 -14,8 -30,16 -45,24 -49,24 -117,54 -169,74 -14,5 -12,5 -26,-1 -24,-10 -49,-20 -73,-30 -8,-4 -16,-7 -24,-11l-59 13 0 -5c-4,1 -6,1 -9,3 -2,1 -4,2 -6,4l4 2c1,1 3,1 4,2l24 11c27,14 72,31 101,43 11,4 23,8 34,12 20,7 18,6 38,0 68,-24 136,-54 199,-86 37,-19 72,-37 107,-59 5,-4 9,-7 14,-10 3,-20 2,-47 0,-68 -1,-15 1,-16 -6,-20 -10,-7 -61,-38 -72,-42 -3,7 -6,13 -9,20 -1,4 -2,7 -4,11 -2,6 -3,4 0,10 2,1 7,4 9,6 4,1 7,3 10,5 7,4 13,7 20,11l29 18c3,3 3,8 0,12 -1,1 -35,21 -39,23z"/>
   <path class="fil2" d="M361 139c0,-1 13,-5 15,-1 1,2 1,15 1,19 0,19 3,24 -16,26l0 -44zm33 46c5,-4 7,-5 11,-11 4,-6 4,-11 3,-19 0,-7 1,-15 0,-22 0,-23 -27,-20 -43,-17l-36 8 0 151 32 -7 0 -67c19,-5 16,-7 16,43 0,5 0,9 2,13 2,3 6,6 11,5 3,-1 24,-5 26,-6 -6,-5 -7,-7 -7,-16 0,-8 0,-16 0,-23 0,-19 3,-27 -15,-32z"/>
   <path class="fil2" d="M459 119c7,-2 9,-2 9,5l0 79c0,16 3,21 -8,23 -6,2 -8,1 -8,-5l0 -79c-1,-19 -3,-21 7,-23zm39 102c1,-6 1,-22 1,-29 0,-16 0,-81 -2,-87 -9,-21 -48,-12 -63,0 -5,4 -10,10 -12,18 -1,6 -1,22 -1,29 0,16 -1,81 2,87 6,15 27,15 44,10 14,-5 28,-13 31,-28z"/>
   <path class="fil2" d="M278 157c6,-1 9,-1 9,5l0 48c0,10 0,20 0,31 0,18 2,21 -7,24 -6,1 -10,1 -10,-5l0 -78c0,-20 -2,-22 8,-25zm39 101c1,-5 0,-49 0,-59 0,-10 1,-50 -2,-56 -11,-24 -69,-9 -75,20 -1,6 0,22 0,29 0,16 -1,80 2,87 10,22 70,10 75,-21z"/>
   <path class="fil2" d="M163 250c-8,1 -15,3 -22,5 -10,2 -10,7 -10,17 0,14 2,19 -6,21 -13,5 -11,-1 -12,-12 0,-25 0,-56 0,-80 0,-10 14,-10 17,-8 1,4 1,13 1,18 0,5 -1,12 3,14 4,3 23,-2 29,-4 0,-9 0,-19 0,-28 0,-10 0,-18 -6,-23 -15,-14 -69,-3 -75,25 -1,6 0,74 0,85 0,19 -4,36 14,42 17,5 51,-4 62,-20 5,-8 5,-13 5,-24 0,-9 0,-19 0,-28z"/>
   <path class="fil2" d="M600 217c-1,-3 -19,-49 -22,-56 -9,-22 -9,-13 1,-38l15 -37c2,-6 6,-14 7,-19 -7,1 -15,3 -21,5 -9,1 -13,3 -16,10l-13 38c-3,-4 -6,-12 -8,-16 -2,-6 -4,-11 -6,-17 -5,-9 -20,-1 -37,1l26 54c5,12 5,8 2,18 -3,8 -24,72 -26,78 7,-1 16,-3 24,-5 9,-2 10,-6 12,-14 4,-14 9,-30 13,-44 2,3 11,33 13,39 3,9 4,11 15,8 5,-1 17,-3 21,-5z"/>
   <path class="fil3" d="M72 231l0 -14c-4,-2 -8,-5 -13,-7 -17,-11 -21,-11 -9,-19l78 -44c12,-7 27,-14 40,-20 18,-9 36,-18 55,-26 9,-4 101,-44 114,-47 5,-2 12,2 16,4 24,8 49,19 72,29 4,1 11,5 14,4l15 -5c-3,-2 -59,-25 -63,-27 -11,-4 -22,-8 -33,-13 -18,-7 -15,-7 -34,0 -35,13 -62,24 -96,39 -10,4 -21,9 -30,14 -10,5 -21,9 -31,14 -29,15 -60,29 -88,46 -10,6 -19,11 -29,16 -5,3 -9,6 -14,9 -6,4 -18,9 -12,18 2,3 44,27 48,29z"/>
   <path class="fil2" d="M173 307c2,1 25,-5 30,-6 5,-1 10,-2 15,-3 3,0 6,-1 8,-2 1,0 3,0 4,0 2,-1 2,0 3,-2l0 -27c-2,1 -4,2 -6,3 -6,3 -15,5 -21,6l-1 -126 -33 7 1 150z"/>
   <path class="fil3" d="M229 310c8,4 16,7 24,11 24,10 49,20 73,30 14,6 12,6 26,1 52,-20 120,-50 169,-74 15,-8 31,-16 45,-24 3,-1 43,-22 45,-24 -9,1 -19,4 -28,5 -2,1 -5,0 -8,1l-16 9c-62,33 -118,58 -183,86 -8,3 -16,6 -24,9 -14,6 -12,5 -26,-1l-71 -29c-5,-3 -6,-4 -13,-3 -4,1 -9,2 -13,3z"/>
   <path class="fil0" d="M459 119c-10,2 -8,4 -7,23l0 79c0,6 2,7 8,5 11,-2 8,-7 8,-23l0 -79c0,-7 -2,-7 -9,-5z"/>
   <path class="fil0" d="M278 157c-10,3 -8,5 -8,25l0 78c0,6 4,6 10,5 9,-3 7,-6 7,-24 0,-11 0,-21 0,-31l0 -48c0,-6 -3,-6 -9,-5z"/>
   <path class="fil3" d="M618 226c4,-2 38,-22 39,-23 3,-4 3,-9 0,-12l-29 -18c-7,-4 -13,-7 -20,-11 -3,-2 -6,-4 -10,-5 -2,-2 -7,-5 -9,-6 1,4 3,9 5,13 2,7 1,6 7,9 7,4 14,9 21,13 9,5 21,10 13,16l-21 13 4 11z"/>
   <path class="fil0" d="M361 139l0 44c19,-2 16,-7 16,-26 0,-4 0,-17 -1,-19 -2,-4 -15,0 -15,1z"/>
   <path class="fil4" d="M643 276c20,-5 28,26 8,32 -21,6 -30,-27 -8,-32zm0 -4c-26,5 -18,44 8,39 25,-5 18,-44 -8,-39z"/>
   <path class="fil4" d="M644 291l0 -6c9,-2 9,8 0,6zm7 2c8,-2 5,-9 3,-11 -3,-2 -12,-2 -16,-1l0 22 6 0 0 -8c7,-1 6,2 7,7l5 1c0,-3 0,-5 -1,-7 -1,-3 -1,-2 -4,-3z"/>
   <path class="fil5" d="M553 85l-4 -2c0,1 2,5 3,6l1 -4z"/>
  </g>
 </g>
</svg>
