<?xml version="1.0" encoding="UTF-8"?>
<!DOCTYPE svg PUBLIC "-//W3C//DTD SVG 1.0//EN" "http://www.w3.org/TR/2001/REC-SVG-20010904/DTD/svg10.dtd">
<!-- Creator: CorelDRAW X8 -->
<svg xmlns="http://www.w3.org/2000/svg" xml:space="preserve" width="718px" height="400px" version="1.0" style="shape-rendering:geometricPrecision; text-rendering:geometricPrecision; image-rendering:optimizeQuality; fill-rule:evenodd; clip-rule:evenodd"
viewBox="0 0 718 400"
 xmlns:xlink="http://www.w3.org/1999/xlink">
 <defs>
  <style type="text/css">
   <![CDATA[
    .fil0 {fill:#EC1B23}
   ]]>
  </style>
 </defs>
 <g id="Capa_x0020_1">
  <metadata id="CorelCorpID_0Corel-Layer"/>
  <path class="fil0" d="M359 0c198,0 359,90 359,200 0,110 -161,200 -359,200 -198,0 -359,-90 -359,-200 0,-110 161,-200 359,-200zm0 18c-188,0 -341,82 -341,182 0,100 153,182 341,182 188,0 341,-82 341,-182 0,-100 -153,-182 -341,-182zm-63 201l-71 0c1,18 11,26 25,26 11,0 19,-6 21,-13l23 0c-6,21 -23,31 -45,31 -30,0 -48,-21 -48,-50 0,-29 19,-50 48,-50 33,0 49,27 47,56l0 0zm-47 -38c-15,0 -22,9 -24,22l46 0c-1,-14 -7,-22 -22,-22l0 0zm353 38l-71 0c1,18 11,26 25,26 11,0 19,-6 21,-13l23 0c-6,21 -23,31 -45,31 -30,0 -48,-21 -48,-50 0,-29 19,-50 48,-50 33,0 49,27 47,56l0 0zm-47 -38c-15,0 -22,9 -24,22l46 0c-2,-14 -7,-22 -22,-22l0 0zm-478 80l26 0 0 -57 57 0 0 57 26 0 0 -133 -26 0 0 55 -57 0 0 -55 -26 0 0 133zm233 0l25 0 0 -52c0,-19 7,-27 21,-27 12,0 18,7 18,23l0 56 24 0 0 -59c0,-24 -7,-39 -35,-39 -11,0 -22,5 -29,15l0 0 0 -13 -24 0 0 96zm110 0l24 0 0 -52 37 52 30 0 -40 -54 36 -42 -30 0 -33 41 0 -78 -24 0 0 133zm196 0l25 0 0 -133 -25 0 0 133z"/>
 </g>
</svg>
