<?xml version="1.0" encoding="UTF-8"?>
<!DOCTYPE svg PUBLIC "-//W3C//DTD SVG 1.0//EN" "http://www.w3.org/TR/2001/REC-SVG-20010904/DTD/svg10.dtd">
<!-- Creator: CorelDRAW X8 -->
<svg xmlns="http://www.w3.org/2000/svg" xml:space="preserve" width="522px" height="400px" version="1.0" style="shape-rendering:geometricPrecision; text-rendering:geometricPrecision; image-rendering:optimizeQuality; fill-rule:evenodd; clip-rule:evenodd"
viewBox="0 0 522 400"
 xmlns:xlink="http://www.w3.org/1999/xlink">
 <defs>
  <style type="text/css">
   <![CDATA[
    .fil0 {fill:#4EB845}
   ]]>
  </style>
 </defs>
 <g id="Capa_x0020_1">
  <metadata id="CorelCorpID_0Corel-Layer"/>
  <path class="fil0" d="M261 37l86 57c5,3 12,10 21,7 17,-6 9,-29 11,-47l33 0c3,25 -7,75 10,91 7,6 49,31 61,40 8,6 23,18 34,7 4,-4 7,-11 4,-18 -3,-6 -8,-9 -14,-13l-61 -39c-1,-2 -1,-52 -1,-58 0,-17 5,-41 -15,-43 -17,-1 -39,0 -57,0 -23,0 -29,2 -27,32 -6,-2 -13,-9 -19,-12 -14,-9 -46,-32 -57,-39 -10,-5 -17,0 -23,4 -7,4 -13,9 -19,13 -62,41 -125,82 -185,123 -2,1 -4,2 -6,3 -6,5 -12,9 -18,13 -6,4 -15,8 -17,14 -5,10 1,18 6,21 10,6 17,0 24,-4 21,-16 53,-36 76,-51 26,-17 51,-34 76,-51l77 -50zm226 37c4,0 9,1 13,3 4,3 7,6 10,10 2,4 3,9 3,14 0,4 -1,9 -3,13 -3,4 -6,7 -10,10 -4,2 -9,3 -13,3 -5,0 -9,-1 -14,-3 -4,-3 -7,-6 -9,-10 -3,-4 -4,-9 -4,-13 0,-5 1,-10 4,-14 2,-4 5,-7 10,-10 4,-2 8,-3 13,-3zm0 5c-4,0 -7,1 -11,3 -3,2 -6,4 -8,8 -2,3 -3,7 -3,11 0,3 1,7 3,10 2,4 5,6 8,8 3,2 7,3 11,3 3,0 7,-1 10,-3 4,-2 6,-4 8,-8 2,-3 3,-7 3,-10 0,-4 -1,-8 -3,-11 -2,-4 -4,-6 -8,-8 -3,-2 -7,-3 -10,-3zm-12 36l0 -28 5 0c6,0 9,0 9,0 2,0 4,0 5,1 1,0 2,1 2,2 1,2 2,3 2,4 0,3 -1,4 -2,6 -2,1 -4,2 -6,2 1,1 1,1 2,1 0,1 1,2 2,3 0,0 1,1 2,3l3 6 -7 0 -2 -5c-2,-3 -3,-5 -4,-6 -1,0 -2,-1 -4,-1l-2 0 0 12 -5 0zm5 -16l3 0c3,0 5,0 6,-1 1,0 1,0 2,-1 0,-1 0,-1 0,-2 0,-1 0,-2 0,-2 -1,-1 -1,-1 -2,-2 -1,0 -3,0 -6,0l-3 0 0 8zm-278 52c2,30 1,59 1,89 0,15 0,29 10,35 11,7 24,7 36,2l-5 -25c-6,1 -8,2 -9,-5 -1,-8 0,-61 0,-73 0,-11 -1,-19 -2,-29l-31 6zm151 33c5,17 4,26 4,45 0,17 0,34 0,50l33 0 0 -60c0,-5 -1,-8 2,-10 5,-4 12,-6 19,-5 3,7 2,62 2,75l32 0c0,-15 1,-73 -1,-83 -3,-10 -11,-17 -23,-19 -14,-2 -24,3 -34,9 -2,-3 -4,-7 -5,-10 -4,1 -27,6 -29,8zm-91 95l83 0 0 -26 -50 0 -1 -27 38 -1 0 -25 -38 0 0 -23 45 0 5 -25 -82 0 0 127zm-123 -93l11 40 -24 1 13 -41zm-61 93l32 0c5,-6 6,-19 10,-25l36 0c3,7 6,18 9,25l33 0 -43 -127 -32 0 -45 127zm18 121l332 0c21,0 17,-23 17,-42 0,-19 0,-39 0,-58l-32 -1 0 68 -302 0c-2,-7 0,-56 0,-68l-33 0c0,20 0,40 0,59 0,18 -3,42 18,42z"/>
 </g>
</svg>
