<?xml version="1.0" encoding="UTF-8"?>
<!DOCTYPE svg PUBLIC "-//W3C//DTD SVG 1.0//EN" "http://www.w3.org/TR/2001/REC-SVG-20010904/DTD/svg10.dtd">
<!-- Creator: CorelDRAW 2020 -->
<svg xmlns="http://www.w3.org/2000/svg" xml:space="preserve" width="549px" height="380px" version="1.0" style="shape-rendering:geometricPrecision; text-rendering:geometricPrecision; image-rendering:optimizeQuality; fill-rule:evenodd; clip-rule:evenodd"
viewBox="0 0 251.06 173.93"
 xmlns:xlink="http://www.w3.org/1999/xlink"
 xmlns:xodm="http://www.corel.com/coreldraw/odm/2003">
 <defs>
  <style type="text/css">
   <![CDATA[
    .fil0 {fill:#F20E16}
   ]]>
  </style>
 </defs>
 <g id="Capa_x0020_1">
  <metadata id="CorelCorpID_0Corel-Layer"/>
  <g id="_-1512359800">
   <path class="fil0" d="M139.34 48.05c3.56,-6.99 5.42,-14.73 5.42,-22.58l0 -6.49c-2.1,-0.75 -3.9,-2.89 -3.9,-5.41l0 -7.77c0.05,-3.19 2.63,-5.76 5.82,-5.8l36.96 0c3.19,0.04 5.77,2.61 5.82,5.8l0 7.77c0,2.52 -1.8,4.66 -3.9,5.41l0 6.49c0,7.85 1.86,15.59 5.43,22.58l4.52 9.07c3.91,7.67 5.95,16.14 5.95,24.75l0 11.3 -4.8 3.33 0 -14.27c-1.8,0.41 -3.09,1.25 -4.54,2.26 -2.28,1.57 -4.92,3.36 -9.93,3.36 -5,0 -7.59,-1.79 -9.87,-3.36 -2.04,-1.41 -3.65,-2.51 -7.16,-2.51 -3.51,0 -5.12,1.11 -7.16,2.51 -1.91,1.31 -4.03,2.78 -7.59,3.22 -7.04,1.04 -8.6,-0.73 -13.46,-3.96 -2.53,-1.69 -5.26,-3.13 -8.08,-3.56 0.13,-3.24 0.25,-4.47 0.8,-7.67 0.93,-5.34 2.66,-10.53 5.14,-15.4l4.53 -9.07zm-3.59 93.28c0.29,0.97 1.59,2.7 4,3.91 2.16,1.1 4.75,1.76 7.55,1.76l0 0 21.06 0 -3.04 3.01 0.21 1.79 -18.23 0c-3.36,0 -6.5,-0.75 -9.21,-2.05 -1.18,-0.56 -5.06,-3.09 -6.06,-3.85l3.72 -4.57zm48.91 -135.53c-0.05,-0.54 -0.48,-0.96 -1.02,-1l-36.96 0c-0.54,0.04 -0.97,0.46 -1.02,1l0 7.77c0,0.49 0.52,0.83 1.02,0.83l36.96 0c0.5,0 1.02,-0.34 1.02,-0.83l0 -7.77zm6.55 53.49l-4.51 -9.08c-3.91,-7.66 -5.95,-16.14 -5.94,-24.74l0 -6.27 -31.2 0 0 6.27c0.01,8.6 -2.03,17.08 -5.94,24.74l-4.55 9.08c-2.88,5.64 -4.67,11.79 -5.26,18.1 3.28,0.52 5.28,1.89 7.08,3.14 2.04,1.41 3.72,2.52 7.23,2.52 3.51,0 5.12,-1.11 7.16,-2.52 2.28,-1.57 4.88,-3.36 9.89,-3.36 5.01,0 7.6,1.79 9.89,3.36 2.03,1.41 3.66,2.52 7.17,2.52 3.51,0 5.15,-1.11 7.19,-2.52 1.81,-1.24 3.8,-2.62 7.07,-3.14 -0.6,-6.31 -2.39,-12.46 -5.28,-18.1l0 0z"/>
   <path class="fil0" d="M214.62 150.79c-0.12,-0.37 -0.26,-0.45 -0.46,-0.69 -3.14,-3.39 -9.1,-1.39 -8.62,4.17 0.58,0.07 7.65,-2.89 9.08,-3.48zm19.06 -22.5c-1.16,-0.63 -2.53,0.81 -2.92,1.9 -0.3,0.83 0.2,1.98 0.93,2.5 0.02,0.02 0.05,0.04 0.07,0.05 0.01,0.01 0.39,0.25 0.4,0.25 1.84,1.06 4.34,-1.3 3.35,-3.22 -0.67,-1.29 -1.26,-1.17 -1.83,-1.48zm5.94 6.45c-1.96,2.57 -4.77,3.59 -7.36,3.29 -10.26,-1.18 -7.94,-17.02 3.06,-14.49 4.93,1.13 6.94,7.18 4.3,11.2zm-49.44 11.47c0.35,-2.45 -2.82,-4.07 -4.5,-1.74 -1.38,1.91 1.01,4.92 3.25,3.64 0.85,-0.49 0.93,-1.05 1.25,-1.9zm5.04 0.92c-1.73,9.3 -17.79,7.58 -14.57,-3.87 0.5,-1.77 2.46,-3.72 4.16,-4.36 5.74,-2.17 11.17,2.22 10.41,8.23zm13.4 -34.01c-0.8,-0.1 -1.59,-0.04 -2.34,0.14 -3.78,0.9 -6.59,4.89 -5.75,8.79 0.09,0.43 0.05,0.18 0.13,0.38 0.11,0.26 0.15,0.39 0.21,0.66 1.21,5.1 8.39,6.57 12.16,2.86 2.08,-2.05 3.21,-5.16 1.95,-8.05 -1.09,-2.49 -3.59,-4.44 -6.36,-4.78zm-11.42 14.3c-0.59,0.11 -1.1,0.42 -1.67,0.59 -7.64,2.89 -15.38,5.76 -23.05,8.6 -0.46,0.21 -2.5,0.68 -2.6,1.08l0 10.94c0.15,0.28 -0.03,0.02 0.18,0.2l0.22 0.17c0.2,0.13 0.26,0.15 0.5,0.24 0.21,0.09 0.39,0.15 0.53,0.24l0.45 0.31c0.9,0.59 1.66,1.47 2.18,2.4 0.2,0.35 0.38,0.57 0.51,1.01 0.34,1.19 0.66,2.72 0.43,4.12 -0.09,0.56 -0.2,0.7 -0.35,1.17 -0.19,0.58 -0.26,0.64 -0.48,1.04 -0.4,0.74 -0.87,1.38 -1.48,1.96l-0.63 0.51c-0.61,0.46 -1.42,0.74 -2.03,1.12l-0.04 4.7 2.95 -1.11c0.03,-0.02 0.06,-0.03 0.08,-0.05l0.77 -0.27c0.15,-0.04 0.27,-0.07 0.46,-0.16l26.63 -10.09c-0.03,-0.38 -0.02,-0.17 -0.1,-0.42 -2.68,-9.12 10.15,-18.06 18.8,-6.97 0.2,0.28 0.04,-0.1 0.19,0.33 0.17,-0.25 1.2,-0.51 1.59,-0.69 0.48,-0.21 1.23,-0.5 1.67,-0.63 6.64,-2.49 13.39,-4.93 19.98,-7.51l0.8 -0.31c0.35,-0.12 2.24,-0.78 2.32,-1.1l0 -29.62c-8.28,3.05 -16.64,6.01 -24.85,9.21 -0.03,0.01 -0.06,0.02 -0.09,0.04l-0.7 0.19c2.04,13.59 -14.17,19.8 -22.55,9.52 -0.13,-0.18 -0.12,-0.17 -0.27,-0.36 -0.2,-0.24 -0.16,-0.23 -0.35,-0.4zm13.22 -34.59l-6.35 0c-0.14,0.62 -0.96,1.3 -1.37,1.81l-1.02 1.39c-0.02,0.02 -0.05,0.05 -0.06,0.07 -7.68,9.82 -15.38,19.63 -23.03,29.47 -0.21,0.31 -0.31,0.37 -0.51,0.62 -0.22,0.27 -0.3,0.37 -0.45,0.58l-2.36 3.11c-0.02,0.02 -0.04,0.05 -0.06,0.06 0,0.01 -0.18,0.19 -0.2,0.21 0.24,-0.03 0.41,-0.07 0.64,-0.14 0.21,-0.08 0.19,-0.08 0.35,-0.16 0.03,-0.01 0.06,-0.03 0.09,-0.04l18.15 -6.77c0.34,-0.16 0.87,-0.31 1.28,-0.37 -0.01,-0.54 -0.22,-0.83 -0.22,-1.63 0,-5.47 3.13,-10.43 8.31,-12.32 4.85,-1.78 10.61,-0.53 14.23,4.02 0.29,0.36 0.65,0.71 0.73,1.18l24.35 -9.06 0.68 -0.37c-1.73,-2.06 -10.73,-6.54 -13.48,-8.07 -0.01,0.02 -0.03,0.05 -0.04,0.07 -2.91,4.48 -6.07,7.92 -12.21,6.1 -2.73,-0.82 -5.18,-2.74 -6.46,-5.41 -0.37,-0.77 -0.99,-2.76 -0.99,-3.72l0 -0.63zm13.67 1.59c-2.71,-0.5 -5.69,-1.37 -8.56,-1.32l0.33 1.41c1.27,3.33 5.06,4.42 7.82,2.28 0.02,-0.02 0.05,-0.04 0.07,-0.06l1.21 -1.44c0.02,-0.03 0.04,-0.06 0.05,-0.08 0.07,-0.12 0.07,-0.05 0.18,-0.35l-1.1 -0.44zm20.34 4.18c0.02,0.02 0.05,0.05 0.07,0.06l1.49 1.19c0.14,0.1 0.23,0.13 0.39,0.24l4 3.62c0.84,0.9 0.59,2.46 0.59,3.61 0,5.57 0.27,32.9 -0.13,34.45l-0.53 0.85c-0.38,0.39 -0.79,0.46 -1.34,0.71l-0.26 0.13c-0.1,0.05 -0.09,0.05 -0.26,0.11l-2.48 0.95c-0.3,0.13 -0.32,0.1 -0.58,0.18 -23.83,7.19 -51,19.33 -74.78,28.3 -0.16,0.06 -0.39,0.13 -0.59,0.19l-0.97 0.41c-1.08,0.41 -2.52,0.53 -3.35,-0.2l-0.13 -0.13c-0.46,-0.46 -0.76,-1.09 -0.79,-1.75 -0.05,-1.33 -0.12,-10.36 0.06,-11.03 0.63,-2.24 2.2,-1.59 3.75,-2.35l0.92 -0.86c0.16,-0.24 -0.05,0.16 0.15,-0.23 0.36,-0.73 0.25,-1.88 -0.23,-2.51l-0.23 -0.28c-0.15,-0.16 -0.03,-0.05 -0.2,-0.18l-0.56 -0.33c-0.27,-0.15 -0.6,-0.21 -0.94,-0.25 -1.23,-0.14 -2.44,-0.95 -2.69,-2.22 -0.17,-0.92 -0.02,-12.3 -0.02,-13.84 0,-0.92 -0.04,-1.75 0.25,-2.55 0.05,-0.16 0.07,-0.27 0.17,-0.46l1.22 -1.59c0.15,-0.2 0.19,-0.26 0.33,-0.43l1.68 -2.13c0.09,-0.12 0.06,-0.07 0.17,-0.21 0.18,-0.21 0.38,-0.46 0.57,-0.7 10.12,-12.97 20.23,-25.95 30.35,-38.92 0.54,-0.67 1.05,-1.42 1.67,-2.01 0.02,-0.02 0.05,-0.05 0.07,-0.06 0.64,-0.58 1.63,-0.51 2.67,-0.51 17.12,0.01 26.89,1.18 40.49,10.73z"/>
   <path class="fil0" d="M5.93 135.73c2.49,-1.64 10.79,-8.85 12,-9.31 -0.26,-1.15 -0.3,-1.39 -0.37,-2.6 -0.06,-1.05 -0.27,-1.48 -0.27,-2.6l0.39 -5.22c-1.97,-0.55 -3.89,-1.35 -5.87,-2.05 -1.01,-0.36 -2.02,-0.6 -3.02,-0.99 -0.98,-0.39 -2.01,-0.83 -3.03,-0.87 0.82,0.92 2.63,4.59 3.21,5.73 1.98,3.92 -3.5,15.36 -3.04,17.91zm137.2 -26.97c-1.67,1.76 -1.41,1.69 -4.38,0.93 -3.12,-0.8 -4.98,0.64 -6.7,-1.14 -2.48,-2.56 0.27,-6.24 7.37,-4.49 1.65,0.4 3.8,0.86 4.11,2.89 0.07,0.42 -0.07,1.48 -0.4,1.81zm0.69 20.23c-2.1,2.21 -9.43,3.16 -10.89,1.63 -1.19,-1.24 -0.77,-3.36 -0.38,-3.77 1.35,-1.41 3.73,-1.12 5.38,-1.4 2.58,-0.45 3.43,-2.33 5.81,-0.07 1.03,0.98 0.99,2.65 0.08,3.61zm-71.66 2.93c-1.34,1.41 -3.9,0.99 -6.79,1.06 -2.83,0.07 -5.42,0.61 -6.83,-0.73 -1.56,-1.49 -0.73,-2.92 0.31,-4.02 1.19,-1.24 7.63,-0.87 9.59,-0.93 1.84,-0.06 2.18,-0.37 3.63,1.02 1.02,0.96 1.06,2.59 0.09,3.6zm25.7 -22.86c-1.86,1.94 -2.97,1.37 -7.18,1.47 -2.83,0.07 -5.42,0.61 -6.83,-0.73 -1.31,-1.25 -0.89,-2.76 0.3,-4.02 0.96,-1 2.11,-0.76 3.19,-0.78 1.9,-0.03 9.05,-0.47 9.83,0.27 0.95,0.91 1.49,2.95 0.69,3.79zm24.56 21.44c-1.38,1.46 -1.74,1.16 -3.58,1.19 -1.23,0.03 -2.17,0.06 -3.4,0.09 -2.83,0.06 -5.42,0.6 -6.83,-0.74 -1.31,-1.25 -0.89,-2.76 0.3,-4.02 0.96,-1 2.11,-0.76 3.19,-0.78 2.44,-0.04 8.87,-0.64 10.03,0.47 1.03,0.98 1.34,2.69 0.29,3.79zm-49.38 -20.44c-1.34,1.4 -2.93,0.97 -4.39,1.01 -1.87,0.04 -7.64,0.58 -9.02,-0.31 -1.4,-0.9 -1.59,-3.03 -0.31,-4.38 1.09,-1.15 7.39,-0.87 9.8,-0.94 1.91,-0.05 2.34,-0.4 3.83,1.01 1.02,0.98 0.89,2.77 0.09,3.61zm11.15 21.97c-1.77,-1.68 -1.44,-3.01 -0.11,-4.41 1.07,-1.12 4.58,-0.81 6.79,-0.86 1.47,-0.04 5.7,-0.54 6.83,0.54 1.3,1.24 1.24,3.24 0.06,4.26 -1.31,1.13 -7.04,0.81 -8.96,0.86 -1.06,0.03 -3.79,0.4 -4.61,-0.39zm38.51 -23.17c-1.24,1.3 -2.21,0.96 -3.79,0.99l-7.2 0.17c-1.31,0.04 -2.58,0.39 -3.83,-0.8 -1.04,-1 -1.04,-2.61 0.3,-4.02 0.97,-1.02 2.28,-0.76 3.39,-0.78 2.03,-0.04 9.38,-0.75 10.63,0.44 1.26,1.2 1.75,2.69 0.5,4zm-75.17 23.86c-1.65,1.73 -3.46,1.04 -5.18,1.02l-7.82 -0.23c-1.58,-0.09 -6.98,-0.66 -7.85,-1.49 -1.17,-1.11 -1.61,-5.41 3.09,-4.78 1.11,0.14 1.97,0.32 3.02,0.43l6.02 0.42c3.8,0.38 9.43,-1.06 9.17,3.01 -0.02,0.22 -0.37,1.53 -0.45,1.62zm0.27 -22.05c-1.32,1.39 -4.58,1.02 -6.18,1.05 -5.83,0.1 -8.8,1.29 -12.78,1.87 -2.62,0.38 -6.31,-4.46 0.66,-5.97 5.37,-1.17 10.35,-1.44 15.79,-1.62 3.7,-0.12 3.5,3.63 2.51,4.67zm74.57 34.26c0.23,-0.02 0.51,-0.04 0.8,-0.08 2.46,-0.31 4.63,-1.09 6.96,-2.04 10.64,-4.34 17.15,-15.85 16.89,-26.93 -0.04,-1.51 -0.51,-5.45 -1.01,-6.99 -0.32,-0.97 -0.42,-1.52 -0.71,-2.38 -3,-8.6 -11.33,-16.01 -20.28,-17.83 -1.71,-0.35 -3.06,-0.81 -4.02,-0.22 1.59,1.51 3.8,5.19 4.73,6.9 1.2,2.19 2.4,4.69 3.23,6.94 1.54,4.21 2.73,9.62 2.84,14.15 0.21,8.61 -2.45,17.47 -7.08,24.82 -0.72,1.15 -1.65,2.47 -2.35,3.66zm30.25 -25.17c1.92,1.13 6.46,2.03 7.69,3.02l0.39 -0.41c-0.57,-0.64 -2.1,-3.51 -2.3,-4.16 -1,-3.23 2.78,-10.84 2.28,-13.08 -2.46,2.58 -5.91,4.56 -8.45,6.82 0.74,2.23 0.27,7.13 0.39,7.81zm-45.46 25.84l6.82 -0.15c1.66,-0.19 4.52,-4.88 5.41,-6.26 7.67,-11.8 9.13,-23.62 3.47,-36.95 -1.75,-4.12 -5.63,-10.29 -8.95,-13.62 -0.87,-0.87 -3.14,-0.5 -4.53,-0.28l-13.22 0.22c1.67,1.68 3.61,5.18 4.69,7 0.69,1.15 1.28,2.43 1.84,3.56 0.68,1.4 0.97,2.24 1.57,3.57 1.39,3.07 2.13,7.29 2.69,10.56 0.75,4.4 0.05,13.35 -1.71,17.87 -1.86,4.75 -4.2,10.74 -7.9,14.62l9.82 -0.14zm19.41 -62.24c11.44,2.99 20.71,11.85 24.31,22.61l6.88 -5.56c5.34,-4.29 10.48,-0.87 8.83,5.38 -0.66,2.48 -1.15,4.77 -1.84,7.26 -1.17,4.18 -1.26,3.1 0.95,6.99 2.16,3.79 1.6,7.87 -3.25,8.72 -1.45,0.25 -2.22,-0.3 -3.62,-0.74l-7.28 -2.63c-0.93,1.59 -2.28,8.14 -7.67,13.81 -8.12,8.56 -16.11,11.51 -26.98,11.78l-14.01 0.43 -56.88 1.28c-11.26,0.27 -19.89,0.29 -28.39,-10.23 -1.55,-1.92 -2.89,-4.87 -3.65,-5.73 -2.04,1.34 -4.65,4.03 -6.7,4.79 -3.44,1.27 -7.48,-0.94 -7.26,-5.85 0.04,-1.03 0.54,-2.29 0.79,-3.43l0.89 -3.43c0.36,-1.31 0.53,-2.15 0.92,-3.42 1.28,-4.28 1.59,-4.55 0.35,-6.83 -1.08,-1.98 -2.87,-4.83 -2.92,-6.74 -0.13,-5.41 5.59,-7.2 11.23,-3.88 0.56,-0.69 0.77,-3.55 2.09,-6.46 3.85,-8.47 8.82,-13.1 16.81,-15.84 3.25,-1.11 7.92,-1.48 11.38,-1.39l23.03 -0.58c0.09,0 0.32,-0.02 0.4,-0.03l50.45 -1.13c4.23,-0.09 6.93,-0.24 11.14,0.85zm-109.65 26.45c10.6,2.99 4.91,3.2 6.45,14.87 0.82,6.21 0,3.42 -4.68,8.33 2.66,7.96 9.89,13.86 18.17,14.09 0.95,0.02 3.57,0.46 4.2,-0.2 6.15,-6.46 10.8,-16.76 11.13,-24.92 0.31,-7.25 -0.9,-13.88 -4.46,-20.53 -1.56,-2.92 -3.33,-6.11 -5.78,-8.87 -1.76,-1.99 -1.42,-3.69 -8.66,-2.09 -8.03,1.79 -13.91,8.38 -15.78,16.1 -0.29,1.2 -0.23,1.95 -0.59,3.22zm31.35 36.91c1.55,0.85 14.7,-0.45 17.24,-0.01 1.52,-2.59 3.72,-4.13 6.45,-9.38 1.78,-3.42 2.96,-6.11 3.84,-9.5 3.34,-12.93 -1.46,-27.75 -10.45,-37.24 -1.57,-1.67 -0.41,-1.28 -4.24,-1.18 -2.91,0.07 -12.68,0.1 -14.21,0.44 4.25,4.06 8.81,14.75 10.21,20.99 0.97,4.38 0.92,6.39 0.87,10.6 -0.07,5.93 -2.2,12.73 -4.99,17.96 -1.09,2.06 -2.72,5.23 -4.72,7.32zm24.64 -0.39c1.23,0.21 17.04,-0.23 17.22,-0.42 3.47,-3.64 7,-9.62 8.74,-14.03 0.33,-0.83 0.54,-1.38 0.82,-2.23 0.86,-2.65 1.75,-6.46 1.75,-9.26 0,-4.58 0.21,-6.62 -1.21,-11.79 -0.86,-3.14 -1.95,-5.92 -3.65,-9.13 -1.87,-3.5 -3.66,-5.76 -6.36,-9.28 -0.83,-1.08 -0.99,-1.38 -2.07,-1.47l-16.42 0.53c0.24,0.63 1.79,2.59 2.29,3.35 2.29,3.52 4.17,6.69 5.6,10.69 1.7,4.76 2.84,8.54 2.96,13.75l-0.29 7.42c-0.8,6.52 -5.1,17.17 -9.38,21.87z"/>
  </g>
 </g>
</svg>
