<?xml version="1.0" encoding="UTF-8"?>
<!DOCTYPE svg PUBLIC "-//W3C//DTD SVG 1.0//EN" "http://www.w3.org/TR/2001/REC-SVG-20010904/DTD/svg10.dtd">
<!-- Creator: CorelDRAW 2020 -->
<svg xmlns="http://www.w3.org/2000/svg" xml:space="preserve" width="760px" height="380px" version="1.0" style="shape-rendering:geometricPrecision; text-rendering:geometricPrecision; image-rendering:optimizeQuality; fill-rule:evenodd; clip-rule:evenodd"
viewBox="0 0 431.62 215.81"
 xmlns:xlink="http://www.w3.org/1999/xlink"
 xmlns:xodm="http://www.corel.com/coreldraw/odm/2003">
 <defs>
  <style type="text/css">
   <![CDATA[
    .fil1 {fill:#F20E16}
    .fil0 {fill:url(#id0)}
   ]]>
  </style>
  <linearGradient id="id0" gradientUnits="userSpaceOnUse" x1="215.81" y1="215.81" x2="215.81" y2="0">
   <stop offset="0" style="stop-opacity:1; stop-color:#E0E0E0"/>
   <stop offset="0.113725" style="stop-opacity:1; stop-color:#EFEFEF"/>
   <stop offset="0.470588" style="stop-opacity:1; stop-color:white"/>
   <stop offset="1" style="stop-opacity:1; stop-color:white"/>
  </linearGradient>
 </defs>
 <g id="Capa_x0020_1">
  <metadata id="CorelCorpID_0Corel-Layer"/>
  <g id="_-1512322000">
   <path class="fil0" d="M431.62 0c0,119.19 -96.62,215.81 -215.81,215.81 -119.19,0 -215.81,-96.62 -215.81,-215.81l431.62 0z"/>
   <g>
    <path class="fil1" d="M227.45 72.07c3.01,-5.9 4.58,-12.42 4.58,-19.04l0 -5.48c-1.77,-0.63 -3.29,-2.44 -3.29,-4.56l0 -6.55c0.05,-2.69 2.22,-4.86 4.91,-4.89l31.17 0c2.69,0.03 4.86,2.2 4.91,4.89l0 6.55c0,2.12 -1.52,3.93 -3.29,4.56l0 5.48c0,6.62 1.56,13.14 4.57,19.04l3.82 7.65c3.3,6.47 5.02,13.61 5.02,20.87l0 9.53 -4.05 2.81 0 -12.03c-1.52,0.34 -2.6,1.05 -3.83,1.9 -1.93,1.33 -4.15,2.84 -8.37,2.84 -4.23,0 -6.41,-1.51 -8.33,-2.84 -1.72,-1.18 -3.07,-2.12 -6.04,-2.12 -2.96,0 -4.32,0.94 -6.03,2.12 -1.61,1.11 -3.4,2.35 -6.41,2.72 -5.94,0.88 -7.25,-0.61 -11.35,-3.34 -2.13,-1.42 -4.44,-2.65 -6.81,-3 0.1,-2.74 0.21,-3.77 0.67,-6.48 0.78,-4.5 2.25,-8.88 4.34,-12.98l3.81 -7.65zm-3.02 78.67c0.25,0.82 1.34,2.27 3.37,3.3 1.82,0.93 4.01,1.48 6.37,1.48l0 0 17.76 0 -2.56 2.54 0.17 1.51 -15.37 0c-2.83,0 -5.48,-0.63 -7.77,-1.73 -0.99,-0.47 -4.27,-2.61 -5.11,-3.25l3.14 -3.85zm41.25 -114.3c-0.04,-0.46 -0.41,-0.81 -0.86,-0.84l-31.17 0c-0.46,0.03 -0.82,0.38 -0.86,0.84l0 6.55c0,0.42 0.44,0.7 0.86,0.7l31.17 0c0.42,0 0.86,-0.28 0.86,-0.7l0 -6.55zm5.52 45.11l-3.8 -7.65c-3.3,-6.46 -5.02,-13.62 -5.01,-20.87l0 -5.29 -26.31 0 0 5.29c0,7.25 -1.72,14.4 -5.01,20.87l-3.84 7.65c-2.43,4.76 -3.94,9.94 -4.44,15.26 2.77,0.44 4.45,1.6 5.98,2.66 1.72,1.18 3.13,2.12 6.09,2.12 2.96,0 4.32,-0.94 6.04,-2.12 1.93,-1.33 4.12,-2.84 8.34,-2.84 4.22,0 6.41,1.51 8.34,2.84 1.72,1.18 3.09,2.12 6.05,2.12 2.96,0 4.34,-0.94 6.06,-2.12 1.53,-1.06 3.2,-2.22 5.97,-2.66 -0.51,-5.32 -2.02,-10.5 -4.46,-15.26l0 0z"/>
    <path class="fil1" d="M290.95 158.71c-0.1,-0.31 -0.22,-0.37 -0.4,-0.57 -2.64,-2.86 -7.67,-1.17 -7.26,3.51 0.49,0.06 6.45,-2.43 7.66,-2.94zm16.07 -18.97c-0.98,-0.53 -2.13,0.69 -2.47,1.6 -0.25,0.7 0.17,1.67 0.79,2.11 0.02,0.02 0.04,0.03 0.06,0.05 0.01,0 0.33,0.2 0.33,0.21 1.56,0.89 3.67,-1.1 2.83,-2.72 -0.56,-1.09 -1.06,-0.99 -1.54,-1.25zm5.01 5.44c-1.65,2.17 -4.02,3.03 -6.21,2.77 -8.65,-0.99 -6.7,-14.35 2.58,-12.22 4.16,0.96 5.86,6.06 3.63,9.45zm-41.69 9.68c0.29,-2.07 -2.39,-3.44 -3.8,-1.47 -1.16,1.61 0.85,4.15 2.74,3.06 0.71,-0.4 0.79,-0.88 1.06,-1.59zm4.25 0.77c-1.46,7.84 -15.01,6.4 -12.29,-3.26 0.42,-1.5 2.07,-3.14 3.51,-3.68 4.84,-1.83 9.42,1.87 8.78,6.94zm11.3 -28.68c-0.68,-0.09 -1.34,-0.04 -1.98,0.11 -3.19,0.76 -5.55,4.13 -4.85,7.42 0.08,0.36 0.05,0.15 0.11,0.32 0.09,0.22 0.13,0.33 0.18,0.55 1.02,4.31 7.07,5.55 10.25,2.42 1.76,-1.73 2.71,-4.35 1.65,-6.79 -0.92,-2.1 -3.03,-3.74 -5.36,-4.03zm-9.63 12.06c-0.51,0.09 -0.94,0.35 -1.41,0.5 -6.45,2.43 -12.97,4.86 -19.45,7.25 -0.38,0.18 -2.1,0.57 -2.19,0.91l0 9.22c0.13,0.24 -0.02,0.02 0.15,0.17l0.19 0.14c0.17,0.11 0.22,0.13 0.42,0.21 0.18,0.08 0.33,0.13 0.45,0.2l0.38 0.27c0.76,0.49 1.4,1.23 1.84,2.02 0.16,0.29 0.32,0.47 0.43,0.85 0.29,1 0.55,2.3 0.36,3.48 -0.07,0.46 -0.17,0.58 -0.3,0.98 -0.16,0.49 -0.21,0.54 -0.4,0.88 -0.34,0.62 -0.73,1.16 -1.25,1.65l-0.53 0.43c-0.52,0.39 -1.2,0.63 -1.71,0.94l-0.03 3.97 2.48 -0.94c0.02,-0.01 0.05,-0.03 0.07,-0.04l0.65 -0.22c0.13,-0.04 0.22,-0.07 0.39,-0.14l22.46 -8.51c-0.03,-0.32 -0.02,-0.14 -0.09,-0.35 -2.26,-7.7 8.56,-15.24 15.86,-5.88 0.17,0.23 0.03,-0.09 0.16,0.28 0.14,-0.21 1.01,-0.44 1.34,-0.58 0.4,-0.19 1.04,-0.42 1.4,-0.54 5.6,-2.09 11.3,-4.15 16.86,-6.33l0.67 -0.26c0.3,-0.11 1.89,-0.66 1.96,-0.93l0 -24.98c-6.98,2.57 -14.03,5.07 -20.96,7.76 -0.03,0.01 -0.05,0.03 -0.08,0.04l-0.59 0.16c1.73,11.46 -11.95,16.7 -19.01,8.03 -0.11,-0.16 -0.11,-0.15 -0.23,-0.3 -0.17,-0.2 -0.14,-0.2 -0.29,-0.34zm11.15 -29.18l-5.36 0c-0.12,0.53 -0.82,1.1 -1.16,1.53l-0.86 1.18c-0.02,0.01 -0.04,0.04 -0.05,0.05 -6.47,8.29 -12.97,16.56 -19.42,24.86 -0.18,0.26 -0.26,0.31 -0.43,0.52 -0.18,0.23 -0.25,0.32 -0.38,0.49l-1.99 2.62c-0.01,0.02 -0.04,0.04 -0.05,0.06 0,0 -0.16,0.15 -0.17,0.17 0.2,-0.03 0.35,-0.06 0.54,-0.12 0.18,-0.06 0.16,-0.07 0.3,-0.13 0.02,-0.01 0.05,-0.03 0.07,-0.04l15.31 -5.71c0.28,-0.13 0.73,-0.26 1.08,-0.31 -0.01,-0.46 -0.19,-0.7 -0.19,-1.37 0,-4.62 2.64,-8.8 7.01,-10.4 4.09,-1.49 8.95,-0.44 12,3.39 0.25,0.31 0.55,0.61 0.61,1l20.54 -7.64 0.58 -0.31c-1.47,-1.74 -9.05,-5.52 -11.37,-6.81 -0.02,0.02 -0.03,0.05 -0.04,0.06 -2.45,3.78 -5.12,6.68 -10.29,5.14 -2.3,-0.68 -4.37,-2.31 -5.45,-4.55 -0.31,-0.65 -0.83,-2.33 -0.83,-3.14l0 -0.54zm11.52 1.34c-2.28,-0.42 -4.8,-1.15 -7.22,-1.11l0.28 1.2c1.07,2.8 4.27,3.72 6.59,1.91 0.02,-0.01 0.05,-0.03 0.07,-0.05l1.02 -1.21c0.01,-0.02 0.03,-0.05 0.04,-0.07 0.06,-0.1 0.06,-0.04 0.15,-0.29l-0.93 -0.38zm17.16 3.54c0.01,0.01 0.04,0.03 0.05,0.05l1.26 1c0.12,0.08 0.19,0.1 0.33,0.2l3.38 3.05c0.7,0.76 0.49,2.07 0.49,3.04 0,4.7 0.23,27.76 -0.11,29.06l-0.44 0.72c-0.33,0.32 -0.67,0.38 -1.14,0.59l-0.21 0.11c-0.09,0.04 -0.08,0.05 -0.22,0.1l-2.1 0.79c-0.25,0.12 -0.26,0.09 -0.49,0.16 -20.09,6.06 -43.01,16.3 -63.06,23.87 -0.13,0.05 -0.33,0.1 -0.5,0.15l-0.81 0.35c-0.91,0.35 -2.14,0.45 -2.83,-0.16l-0.11 -0.11c-0.39,-0.4 -0.64,-0.93 -0.67,-1.48 -0.04,-1.12 -0.1,-8.73 0.06,-9.3 0.52,-1.89 1.85,-1.34 3.15,-1.98l0.78 -0.73c0.14,-0.21 -0.04,0.13 0.12,-0.19 0.31,-0.62 0.22,-1.59 -0.19,-2.12l-0.19 -0.23c-0.13,-0.14 -0.03,-0.05 -0.17,-0.16l-0.47 -0.28c-0.23,-0.13 -0.51,-0.17 -0.79,-0.2 -1.05,-0.12 -2.06,-0.81 -2.27,-1.88 -0.15,-0.78 -0.02,-10.38 -0.02,-11.67 0,-0.78 -0.04,-1.47 0.21,-2.15 0.05,-0.14 0.06,-0.23 0.15,-0.39l1.02 -1.34c0.13,-0.17 0.17,-0.22 0.28,-0.36l1.42 -1.8c0.07,-0.1 0.05,-0.06 0.14,-0.17 0.15,-0.19 0.33,-0.4 0.48,-0.59 8.54,-10.94 17.06,-21.89 25.6,-32.83 0.45,-0.57 0.89,-1.2 1.41,-1.7 0.02,-0.01 0.04,-0.04 0.06,-0.05 0.54,-0.48 1.37,-0.43 2.25,-0.43 14.44,0.01 22.68,1 34.15,9.06z"/>
    <path class="fil1" d="M114.95 146.01c2.09,-1.37 9.09,-7.46 10.11,-7.85 -0.21,-0.97 -0.24,-1.17 -0.3,-2.19 -0.06,-0.88 -0.24,-1.25 -0.24,-2.19l0.33 -4.4c-1.65,-0.46 -3.28,-1.14 -4.94,-1.73 -0.86,-0.31 -1.71,-0.5 -2.56,-0.84 -0.82,-0.32 -1.69,-0.7 -2.55,-0.73 0.69,0.77 2.22,3.87 2.71,4.83 1.67,3.31 -2.95,12.95 -2.56,15.1zm115.71 -22.74c-1.42,1.49 -1.2,1.42 -3.7,0.78 -2.63,-0.67 -4.2,0.54 -5.65,-0.96 -2.09,-2.16 0.22,-5.26 6.21,-3.79 1.39,0.35 3.21,0.73 3.47,2.44 0.06,0.36 -0.06,1.25 -0.33,1.53zm0.58 17.06c-1.78,1.86 -7.96,2.67 -9.19,1.38 -1.01,-1.05 -0.65,-2.83 -0.32,-3.18 1.13,-1.19 3.15,-0.95 4.54,-1.19 2.18,-0.37 2.89,-1.96 4.9,-0.05 0.87,0.83 0.84,2.23 0.07,3.04zm-60.44 2.47c-1.13,1.19 -3.29,0.84 -5.72,0.9 -2.39,0.06 -4.57,0.51 -5.76,-0.62 -1.32,-1.25 -0.62,-2.46 0.25,-3.39 1.01,-1.05 6.44,-0.73 8.1,-0.78 1.55,-0.05 1.84,-0.31 3.06,0.85 0.85,0.82 0.89,2.19 0.07,3.04zm21.67 -19.28c-1.56,1.64 -2.5,1.16 -6.05,1.25 -2.39,0.05 -4.57,0.51 -5.76,-0.62 -1.11,-1.06 -0.75,-2.33 0.26,-3.39 0.8,-0.85 1.77,-0.64 2.68,-0.66 1.61,-0.03 7.64,-0.4 8.29,0.23 0.8,0.76 1.26,2.49 0.58,3.19zm20.72 18.09c-1.17,1.22 -1.47,0.97 -3.02,1 -1.04,0.02 -1.83,0.05 -2.87,0.07 -2.39,0.06 -4.57,0.51 -5.76,-0.62 -1.11,-1.06 -0.75,-2.33 0.26,-3.39 0.8,-0.84 1.77,-0.64 2.68,-0.65 2.06,-0.04 7.49,-0.54 8.46,0.39 0.88,0.83 1.14,2.27 0.25,3.2zm-41.65 -17.24c-1.12,1.17 -2.46,0.82 -3.7,0.85 -1.58,0.03 -6.44,0.49 -7.61,-0.26 -1.17,-0.76 -1.34,-2.56 -0.26,-3.69 0.93,-0.97 6.24,-0.74 8.27,-0.8 1.61,-0.04 1.97,-0.34 3.23,0.86 0.86,0.82 0.75,2.33 0.07,3.04zm9.4 18.53c-1.49,-1.43 -1.21,-2.54 -0.09,-3.72 0.91,-0.95 3.86,-0.69 5.73,-0.73 1.24,-0.03 4.81,-0.45 5.76,0.45 1.1,1.05 1.05,2.74 0.05,3.6 -1.1,0.95 -5.94,0.68 -7.55,0.72 -0.9,0.03 -3.2,0.34 -3.9,-0.32zm32.48 -19.55c-1.04,1.1 -1.86,0.81 -3.19,0.84l-6.08 0.15c-1.1,0.03 -2.17,0.32 -3.22,-0.68 -0.88,-0.84 -0.88,-2.2 0.25,-3.39 0.82,-0.86 1.92,-0.64 2.86,-0.66 1.71,-0.04 7.91,-0.63 8.96,0.37 1.06,1.01 1.48,2.27 0.42,3.37zm-63.39 20.12c-1.39,1.47 -2.92,0.89 -4.37,0.87l-6.6 -0.2c-1.33,-0.07 -5.88,-0.56 -6.62,-1.26 -0.98,-0.93 -1.36,-4.56 2.61,-4.03 0.94,0.13 1.67,0.27 2.54,0.36l5.08 0.36c3.21,0.32 7.96,-0.89 7.74,2.54 -0.01,0.19 -0.31,1.29 -0.38,1.36zm0.23 -18.59c-1.11,1.17 -3.87,0.86 -5.22,0.89 -4.91,0.08 -7.42,1.08 -10.77,1.57 -2.22,0.32 -5.32,-3.76 0.55,-5.03 4.53,-0.99 8.73,-1.21 13.32,-1.37 3.12,-0.1 2.95,3.07 2.12,3.94zm62.88 28.9c0.2,-0.02 0.43,-0.04 0.68,-0.07 2.07,-0.26 3.91,-0.92 5.87,-1.72 8.98,-3.67 14.47,-13.37 14.24,-22.71 -0.03,-1.28 -0.43,-4.6 -0.85,-5.9 -0.27,-0.82 -0.35,-1.28 -0.6,-2.01 -2.53,-7.25 -9.55,-13.5 -17.1,-15.03 -1.44,-0.3 -2.58,-0.68 -3.39,-0.19 1.34,1.27 3.21,4.38 3.99,5.82 1.01,1.85 2.03,3.95 2.72,5.85 1.31,3.55 2.31,8.11 2.4,11.94 0.18,7.26 -2.07,14.73 -5.97,20.93 -0.61,0.97 -1.39,2.09 -1.99,3.09zm25.51 -21.23c1.63,0.95 5.45,1.71 6.49,2.54l0.33 -0.34c-0.48,-0.54 -1.77,-2.96 -1.94,-3.51 -0.84,-2.72 2.34,-9.15 1.92,-11.03 -2.07,2.18 -4.98,3.85 -7.12,5.75 0.62,1.88 0.22,6.02 0.32,6.59zm-38.33 21.79l5.75 -0.13c1.4,-0.16 3.81,-4.11 4.57,-5.27 6.46,-9.96 7.69,-19.92 2.92,-31.17 -1.48,-3.47 -4.75,-8.68 -7.55,-11.48 -0.74,-0.74 -2.64,-0.43 -3.82,-0.24l-11.15 0.18c1.41,1.43 3.04,4.37 3.96,5.91 0.58,0.97 1.08,2.05 1.55,3 0.57,1.18 0.81,1.89 1.32,3.01 1.18,2.59 1.8,6.15 2.27,8.9 0.64,3.72 0.05,11.26 -1.44,15.08 -1.57,4 -3.54,9.05 -6.66,12.33l8.28 -0.12zm16.37 -52.49c9.64,2.52 17.47,10 20.5,19.07l5.8 -4.69c4.51,-3.62 8.84,-0.73 7.45,4.54 -0.56,2.09 -0.97,4.02 -1.56,6.12 -0.98,3.52 -1.06,2.61 0.81,5.89 1.82,3.2 1.35,6.64 -2.74,7.36 -1.23,0.21 -1.87,-0.26 -3.06,-0.63l-6.13 -2.21c-0.79,1.33 -1.93,6.86 -6.47,11.65 -6.85,7.21 -13.59,9.7 -22.75,9.93l-11.82 0.36 -47.97 1.08c-9.5,0.23 -16.77,0.24 -23.95,-8.63 -1.3,-1.62 -2.43,-4.1 -3.08,-4.83 -1.72,1.13 -3.92,3.4 -5.64,4.04 -2.91,1.07 -6.31,-0.79 -6.13,-4.94 0.04,-0.86 0.45,-1.92 0.67,-2.89l0.75 -2.89c0.31,-1.11 0.45,-1.81 0.77,-2.89 1.09,-3.61 1.35,-3.83 0.3,-5.75 -0.91,-1.68 -2.42,-4.08 -2.46,-5.69 -0.11,-4.56 4.71,-6.07 9.47,-3.27 0.47,-0.58 0.64,-2.99 1.76,-5.45 3.25,-7.15 7.44,-11.05 14.17,-13.36 2.75,-0.94 6.69,-1.25 9.61,-1.17l19.42 -0.49c0.07,0 0.27,-0.02 0.34,-0.02l42.54 -0.96c3.57,-0.08 5.85,-0.2 9.4,0.72zm-92.47 22.31c8.94,2.52 4.14,2.69 5.43,12.54 0.69,5.24 0,2.88 -3.95,7.02 2.25,6.72 8.34,11.69 15.33,11.88 0.8,0.03 3.01,0.4 3.55,-0.17 5.18,-5.44 9.1,-14.13 9.38,-21.01 0.26,-6.12 -0.76,-11.7 -3.76,-17.31 -1.32,-2.47 -2.81,-5.15 -4.88,-7.49 -1.49,-1.67 -1.2,-3.11 -7.3,-1.75 -6.77,1.5 -11.73,7.06 -13.3,13.57 -0.25,1.01 -0.2,1.65 -0.5,2.72zm26.44 31.13c1.3,0.71 12.39,-0.39 14.53,-0.02 1.28,-2.18 3.14,-3.48 5.44,-7.9 1.51,-2.89 2.5,-5.15 3.24,-8.02 2.82,-10.9 -1.23,-23.4 -8.81,-31.41 -1.33,-1.4 -0.35,-1.07 -3.57,-0.99 -2.46,0.06 -10.71,0.09 -11.99,0.37 3.59,3.42 7.43,12.44 8.61,17.71 0.82,3.69 0.78,5.38 0.73,8.94 -0.05,4.99 -1.86,10.73 -4.2,15.14 -0.93,1.74 -2.3,4.41 -3.98,6.18zm20.77 -0.34c1.04,0.18 14.38,-0.19 14.53,-0.35 2.92,-3.06 5.9,-8.12 7.37,-11.83 0.28,-0.7 0.45,-1.16 0.68,-1.88 0.73,-2.24 1.48,-5.45 1.48,-7.81 0,-3.86 0.18,-5.59 -1.01,-9.94 -0.73,-2.66 -1.65,-5 -3.09,-7.7 -1.57,-2.96 -3.08,-4.87 -5.35,-7.83 -0.7,-0.91 -0.85,-1.17 -1.75,-1.24l-13.85 0.45c0.2,0.53 1.51,2.18 1.93,2.82 1.93,2.97 3.52,5.64 4.72,9.01 1.44,4.02 2.4,7.21 2.5,11.61l-0.24 6.25c-0.68,5.5 -4.31,14.48 -7.92,18.44z"/>
   </g>
  </g>
 </g>
</svg>
