<?xml version="1.0" encoding="UTF-8"?>
<!DOCTYPE svg PUBLIC "-//W3C//DTD SVG 1.0//EN" "http://www.w3.org/TR/2001/REC-SVG-20010904/DTD/svg10.dtd">
<!-- Creator: CorelDRAW X8 -->
<svg xmlns="http://www.w3.org/2000/svg" xml:space="preserve" width="444px" height="400px" version="1.0" style="shape-rendering:geometricPrecision; text-rendering:geometricPrecision; image-rendering:optimizeQuality; fill-rule:evenodd; clip-rule:evenodd"
viewBox="0 0 181 163"
 xmlns:xlink="http://www.w3.org/1999/xlink">
 <defs>
  <style type="text/css">
   <![CDATA[
    .fil2 {fill:#01A2D8}
    .fil0 {fill:#305694}
    .fil1 {fill:#FEFEFE}
   ]]>
  </style>
 </defs>
 <g id="Capa_x0020_1">
  <metadata id="CorelCorpID_0Corel-Layer"/>
  <g id="_2079062478464">
   <ellipse class="fil0" cx="90" cy="54" rx="55" ry="54"/>
   <path class="fil1" d="M67 11c1,0 0,1 0,2 -1,2 -1,4 1,6 3,1 5,1 6,0 2,-1 7,-4 14,-4 5,0 8,1 10,3 3,1 8,3 11,0 2,-2 2,-5 1,-6 -1,-2 -1,-3 2,-1 2,1 4,3 3,8 -1,5 -4,6 -3,7 1,1 2,-1 2,-2 1,-1 4,-4 10,-2 6,2 7,4 7,4 0,0 -4,14 -8,14 -2,-1 -4,-2 -4,-1 -1,1 0,2 3,3 2,1 9,5 23,4 0,3 0,5 0,8 0,1 0,1 0,2 -3,0 -17,2 -33,17 -16,14 -23,31 -23,31l0 4 -6 -9c0,0 -6,-1 -9,-6 0,-1 1,-1 1,-1 0,0 1,-12 11,-13 -1,-2 -1,-4 -1,-4 0,0 4,1 6,-1 3,-3 5,-8 3,-8 -2,-1 -3,2 -4,4 -2,2 -2,3 -5,3 -3,0 -5,1 -21,-2 -2,-4 -3,-8 -2,-11 1,-3 4,-6 6,-7 -1,-3 -2,-5 -3,-6 -1,-1 -1,-3 0,-3 1,-1 1,0 2,0 1,0 1,0 1,0 1,-1 1,-2 0,-3 -1,-1 -2,-4 -5,-2 -3,2 -4,2 -6,0 -2,-2 -9,-11 -9,-11 0,0 5,-6 10,-6 5,0 7,6 9,5 1,-2 -2,-3 -3,-6 -1,-4 -1,-6 1,-9 1,-2 1,-1 2,-1l0 0zm25 35c-1,0 -1,-1 0,-3 1,-1 3,-5 6,-6 4,-1 6,1 7,2 0,0 1,1 0,1 0,1 -1,1 -1,1 -1,-1 -2,-1 -2,0 0,2 0,3 -2,4 -2,1 -4,0 -5,0 0,0 -1,-1 -1,0 -1,1 -1,2 -2,1l0 0zm8 -6c1,0 1,1 1,2 0,0 0,1 -1,1 -1,0 -1,-1 -1,-1 0,-1 0,-2 1,-2zm-30 24c0,0 1,1 2,1 1,1 -1,2 -1,1 -1,0 -3,-1 -3,-3 0,-2 2,-3 3,-3 1,0 2,1 2,2 0,2 -2,2 -3,2l0 0zm11 1c0,0 0,0 -1,1 -1,1 0,1 1,1 1,-1 2,-1 2,-3 0,-2 -1,-3 -2,-3 -1,0 -2,1 -2,2 0,1 1,2 2,2zm2 27c-3,-1 -6,-2 -7,-1 -1,1 2,4 5,6 3,2 6,2 7,1 0,0 0,-2 -1,-3 -1,1 -2,2 -3,2 -1,0 -2,-1 -2,-3 0,-1 0,-1 1,-2zm-4 -3c0,-1 1,-1 2,-1 2,1 4,1 6,2 1,1 2,2 4,1 1,0 2,-2 2,-4 0,-1 0,-3 0,-3 -1,-1 0,-2 1,-1 1,2 1,5 1,7 -1,3 -3,7 -4,9 -2,-4 -4,-6 -7,-8 -2,-1 -4,-1 -5,-1 0,-1 0,-1 0,-1l0 0z"/>
   <path class="fil2" d="M140 78c-4,0 -12,1 -22,6 -13,6 -26,20 -28,24 0,0 -1,0 -1,0l0 -4c0,0 7,-17 23,-31 16,-15 30,-17 33,-17 0,8 -2,15 -5,22l0 0zm-105 -23c4,1 16,5 21,8 3,2 5,4 5,6 0,3 1,5 5,5 5,0 7,1 9,4 1,2 3,4 3,5 -2,4 -3,8 -3,9 -2,-1 -8,-6 -19,-10 -6,-2 -11,-3 -15,-4 -3,-7 -6,-15 -6,-23l0 0z"/>
   <path class="fil0" d="M5 128l-3 -7c0,0 8,-2 16,-2 7,0 12,1 13,4 2,3 2,6 2,9 0,2 0,10 0,12 0,2 1,6 1,6l-11 0 0 -5c0,0 -5,5 -11,5 -5,0 -12,-3 -12,-10 0,-6 4,-7 6,-8 3,-1 9,-1 16,-1 0,-1 0,-2 0,-3 0,-1 0,-4 -6,-4 -5,0 -11,4 -11,4l0 0zm17 6c0,0 1,6 -3,9 -4,2 -8,0 -8,-3 0,-3 3,-6 6,-6 4,0 5,0 5,0l0 0zm13 -23c0,0 9,0 14,-2 -1,6 -2,29 1,40l-13 0c0,0 3,-30 -2,-38zm122 8c3,0 5,0 7,0 7,0 12,1 14,4 2,3 2,6 2,9 0,2 0,10 0,12 0,2 1,6 1,6l-12 0 0 -5c0,0 -4,5 -10,5 -6,0 -12,-3 -12,-10 0,-6 4,-7 6,-8 2,-1 9,-1 16,-1 0,-1 0,-2 0,-3 0,-1 0,-4 -6,-4 -2,0 -4,1 -6,1l0 -6zm12 15c0,0 0,6 -4,9 -3,2 -7,0 -7,-3 0,-3 2,-6 6,-6 3,0 5,0 5,0l0 0zm-119 -14l15 0 0 5c0,0 4,-6 11,-6 7,0 11,6 12,9 1,2 1,10 -2,14 -2,5 -12,10 -21,7 0,5 1,12 2,14l-15 0c0,0 2,-6 2,-22 0,-16 -2,-19 -4,-21l0 0zm14 24l1 -13c0,0 2,-5 6,-5 5,0 7,6 7,11 0,4 -3,9 -8,9 -2,0 -6,-2 -6,-2l0 0zm25 -24l14 0c0,0 -1,16 -1,19 0,2 1,5 5,5 5,0 7,-4 7,-4 0,0 0,-17 -2,-20l13 0c0,0 0,8 0,15 0,7 1,14 1,14l-12 0 0 -5c0,0 -4,6 -11,6 -8,0 -12,-3 -12,-9l0 -13c0,-3 0,-7 -2,-8l0 0zm39 0l14 0 0 7c0,0 4,-7 12,-8 0,4 0,9 0,9 0,0 -2,-2 -6,-1 -3,1 -5,1 -6,5 0,3 -3,14 1,18l-14 0c0,0 2,-7 2,-15 0,-7 -1,-14 -3,-15z"/>
  </g>
 </g>
</svg>
