<?xml version="1.0" encoding="UTF-8"?>
<!DOCTYPE svg PUBLIC "-//W3C//DTD SVG 1.0//EN" "http://www.w3.org/TR/2001/REC-SVG-20010904/DTD/svg10.dtd">
<!-- Creator: CorelDRAW X8 -->
<svg xmlns="http://www.w3.org/2000/svg" xml:space="preserve" width="745px" height="400px" version="1.0" style="shape-rendering:geometricPrecision; text-rendering:geometricPrecision; image-rendering:optimizeQuality; fill-rule:evenodd; clip-rule:evenodd"
viewBox="0 0 555 298"
 xmlns:xlink="http://www.w3.org/1999/xlink">
 <defs>
  <style type="text/css">
   <![CDATA[
    .fil2 {fill:#00933A}
    .fil1 {fill:#2E2B72}
    .fil3 {fill:#B15E36}
    .fil0 {fill:#F52026}
    .fil4 {fill:#2E2B72;fill-rule:nonzero}
   ]]>
  </style>
 </defs>
 <g id="Capa_x0020_1">
  <metadata id="CorelCorpID_0Corel-Layer"/>
  <g id="_2079062469312">
   <path class="fil0" d="M318 177c3,0 5,-1 7,-2 15,-8 43,-38 53,-52 79,-109 -50,-155 -193,-99 -64,25 -121,61 -155,103 -58,72 -27,125 50,130 -19,-4 -43,-10 -57,-23 -12,-11 -19,-27 -17,-46 5,-31 22,-52 37,-69 16,-17 35,-33 57,-48 12,-8 39,-24 58,-33l0 0 1 0c1,0 2,-1 4,-1 54,-21 127,-45 185,-27 56,17 58,63 32,104l-14 19c-2,2 -4,5 -5,7l-1 0c-2,3 -5,6 -8,9 -10,10 -22,20 -34,28z"/>
   <path class="fil1" d="M71 112c0,-1 0,-1 1,-2l0 0c0,-1 1,-1 2,-3l5 -5c6,-8 15,-17 29,-28 0,-1 0,-1 1,-1 5,-4 11,-8 18,-12 14,-10 46,-24 61,-30 9,-3 19,-6 30,-8l0 0c17,-4 34,-6 52,-5 47,1 95,24 88,74 -1,9 -3,17 -5,25 -12,33 -39,53 -46,60 3,0 6,1 9,0 33,-27 90,-76 73,-127 -8,-22 -26,-34 -50,-39 -51,-12 -141,11 -186,32 0,1 -1,1 -1,1l-5 2 0 0c-4,2 -9,5 -13,7 -39,21 -57,37 -86,66 -6,6 -17,21 -23,30 -18,31 -20,57 -3,78 13,16 55,31 74,31 3,-5 7,-11 10,-17 -10,-2 -18,-4 -27,-8 -8,-5 -16,-11 -21,-16 -3,-5 -6,-8 -8,-12l0 0 0 0c-5,-8 -6,-15 -6,-23 -1,-21 6,-39 17,-56 1,-4 3,-8 8,-11 1,-1 1,-2 2,-3z"/>
   <path class="fil2" d="M100 172c-10,1 -11,1 -14,-6 3,1 11,4 14,6zm-50 33l0 0 0 0 0 0zm-4 -47c3,-12 9,-23 15,-32 -1,2 -1,3 -2,5 -2,3 -2,2 -3,7 -3,3 -7,23 -7,26l3 2 0 0 -5 0c0,-1 0,-4 0,-5 -1,-2 -1,-2 -1,-3zm23 -43c1,-1 1,-2 2,-3 0,0 -1,1 -1,1 2,2 4,1 7,3l4 -6c-1,-2 -1,-2 -1,-4 0,0 1,-3 1,-3 1,-1 1,-2 2,-2l1 6c3,-6 -1,-2 3,-13 -4,2 -2,1 -5,4l-3 4c6,-8 15,-17 29,-28 0,0 0,1 0,1l1 3 5 -2 -3 -3c-1,0 -1,0 -2,0 5,-4 11,-8 18,-12 -1,1 -2,2 -3,3 -1,6 1,13 3,19 -2,0 -3,-2 -2,0 -5,-5 -1,-2 -1,-4 0,-2 2,-4 -4,-4l-1 31c-2,5 1,18 2,24l2 5c-4,-1 -3,-1 -6,1 4,11 2,1 2,11l2 15c1,5 2,6 4,10 8,-4 5,-2 15,-1 -2,-7 0,-16 1,-22 -2,-1 -2,3 -7,-5 4,1 3,2 6,0 5,-3 -5,-2 3,-3 2,10 3,10 -2,13l3 2c4,4 -1,3 -1,9 6,3 15,4 21,4 2,-10 -1,-11 -2,-11 -2,-5 -2,-7 -1,-13l0 0 3 1c1,6 1,10 2,15 1,13 -4,10 21,9 -4,3 -13,2 -19,3 -6,0 -10,3 -18,3 -22,1 -26,6 -31,3 -3,-2 -1,-4 -4,-7 -13,2 -10,7 -11,5 0,-1 -1,0 -1,0 -6,-3 -32,-4 -41,-4 -1,-3 0,-1 -2,-5l-2 -4 2 -5c6,5 -1,3 6,5 6,2 8,-2 8,-2 -3,-7 -9,5 3,-19 0,0 0,0 0,0l-4 -1c1,-2 3,-4 5,-7l-4 0c0,0 0,0 0,0l-5 -21c0,1 0,1 0,1zm284 1c-7,18 -17,32 -27,42l0 0c-1,0 -1,0 -2,0 -2,-1 -1,4 -2,0 0,0 0,0 0,0 3,-7 0,-3 0,-10 -1,-7 2,-5 1,-8 -1,-4 -3,-2 -3,-7 1,-3 3,-5 2,-9 0,-5 -1,0 0,-7 2,-8 1,-26 1,-34 -3,4 -6,21 -10,30l-1 3 -2 -3c3,-6 4,-6 5,-12l2 -9 9 -29c2,4 4,17 4,20 0,5 2,21 2,24 4,-3 1,2 3,-5l4 -18c4,5 3,11 4,19 1,9 2,9 9,12 1,0 1,0 1,0l0 1zm-284 54c2,-3 8,-4 11,-4 -1,7 -3,6 -11,4zm10 -19c-2,4 -1,3 -5,5 1,-7 -4,-4 5,-5zm14 -5c-7,-8 4,-12 9,-13 0,0 0,0 0,0 0,0 3,-1 5,-2 -1,5 -6,11 -9,16 0,0 0,0 0,0l6 2 -5 8 6 3c-2,3 -3,4 -1,7 8,1 7,-6 13,1l-3 1c-4,1 -5,2 -8,1 -7,-1 -2,-1 -5,-2l-5 0c1,-3 1,-6 1,-8l-5 5c-7,-2 -2,-5 -9,0 2,-8 5,-14 10,-19zm-12 -36l2 2c2,2 0,0 2,2 -4,4 1,2 -6,2l2 -6zm261 25l-10 14c-2,-5 0,-11 -3,-22 -4,-11 2,3 0,-10 -1,-6 -2,-8 -1,-13 1,1 1,1 2,3 4,6 1,10 2,16l4 21c-1,-9 -3,-21 -2,-29 0,-6 4,-19 7,-22 1,8 0,17 3,24 5,2 0,0 3,0l4 0 -3 8c-1,2 0,1 -2,2l-1 4 -3 4zm-257 2c-2,-3 -3,-5 -6,-9 1,0 1,0 1,-1 11,-11 4,-23 8,-29 1,2 6,32 5,34 -1,4 -5,7 -6,14 0,3 -1,8 -5,12 -1,-13 1,-5 3,-17 -3,1 -3,4 -6,4l0 -2c2,-12 1,1 -1,-9 5,1 1,0 4,1 10,5 -4,-1 3,2zm26 -52c2,6 -1,4 0,12 0,7 -2,5 -2,11 -1,7 1,0 0,6 -1,7 -5,14 -6,18 -4,-2 -4,-1 -8,1 2,-6 0,-6 4,-10 2,-2 2,-1 6,-7l-5 0c3,-6 5,-4 7,-8 0,0 -1,0 -1,0l-1 -8c2,-7 4,-13 6,-15zm0 0l-1 -5 5 -1c-1,2 -1,2 -2,3 -1,3 -1,2 -2,3zm-2 -7c-1,4 -3,11 -4,16l-7 14c-5,0 -6,-2 -7,-7 -1,-4 -2,-8 0,-11 1,-3 10,-13 18,-12zm221 25c-7,-6 -3,-11 -3,-12 0,-4 -1,-7 -1,-12 -2,-2 -1,-1 -3,-2l2 -7c3,6 6,26 5,33zm-207 -35c0,0 0,2 0,2 -7,1 -5,-2 -2,-5 1,1 0,0 2,3z"/>
   <path class="fil3" d="M313 99c-6,5 -5,11 -12,13 -6,2 -14,-4 -23,-3 -3,4 -2,7 -4,11 -10,-2 -4,-3 -14,-2 -7,1 -8,-2 -16,0 -13,2 -30,12 -38,14 -27,6 -19,11 -34,15 2,-3 22,-16 28,-17 7,-2 11,-3 18,-5 13,-5 26,-9 27,-19 3,-15 1,-5 8,-14 4,-4 1,-2 2,-5 1,-3 -1,0 2,-3 3,-4 1,0 5,-6 3,-4 6,-9 7,-14l-46 20c-7,3 -17,7 -23,10 -7,4 -11,9 -20,12 6,-6 13,-9 17,-16 -2,-4 -4,-3 -7,-9 9,3 9,4 21,4 -7,-1 -3,-1 -4,-2 15,1 6,2 31,-7 5,-2 9,-4 14,-6 4,-2 12,-6 14,-7 13,-4 33,23 49,30l-2 6z"/>
   <path class="fil0" d="M473 222l-8 -20c8,4 15,13 20,21l-12 -1zm10 76l23 0 -22 -51 18 0 15 25c16,31 5,26 38,26 -8,-28 -47,-81 -71,-102 -16,-14 -16,-16 -44,-14 1,7 7,21 10,29l26 73c2,4 3,11 7,14z"/>
   <path class="fil0" d="M378 191c5,2 4,3 7,19l15 66c-10,0 -8,0 -12,-20 -1,-7 -3,-15 -4,-22l-6 -32c-3,-12 -2,-9 0,-11zm-13 -8c-10,3 -5,12 -2,34 2,13 8,67 14,75 4,6 8,6 16,6 31,0 31,3 22,-34l-18 -72c-2,-7 -3,-9 -11,-10 -5,0 -18,-1 -21,1z"/>
   <path class="fil0" d="M323 298l19 0c-1,-8 -1,-17 -2,-25 -1,-7 -3,-22 -1,-26 8,0 6,1 6,9l5 41 20 1 -17 -116 -15 0c-1,16 8,41 0,41 -4,-1 -4,-16 -4,-20 -1,-6 -1,-15 -2,-21l-14 0 5 116z"/>
   <path class="fil0" d="M163 298c26,0 21,3 24,-12l8 -33c2,-7 -1,-6 13,-6l-8 51 18 0c2,-20 15,-105 14,-116l-12 0 -8 41 -10 0c2,-11 9,-33 8,-41l-11 0 -36 116z"/>
   <path class="fil0" d="M84 298l73 0 0 -22 -38 0c3,-16 18,-40 26,-52 6,-9 11,-14 18,-22 12,-14 7,-9 28,-11l0 -9c-23,-1 -27,4 -40,14 -26,21 -59,70 -67,102z"/>
   <path class="fil0" d="M319 298l-1 -21 -13 -2c-3,-11 -3,-67 -2,-81l10 -1c0,-13 1,-11 -12,-11 -23,0 -19,-4 -19,54 0,16 0,34 1,49 0,17 12,12 36,13z"/>
   <path class="fil0" d="M411 191l28 107 26 0 -36 -105 6 -3 -3 -8 -31 0c0,10 1,9 10,9z"/>
   <polygon class="fil0" points="250,297 280,298 280,277 269,276 270,182 257,182 "/>
   <polygon class="fil0" points="221,298 241,298 252,182 238,182 "/>
   <path class="fil2" d="M138 89c0,1 0,0 0,0l0 0zm0 0c1,0 1,0 2,1 5,11 -2,-8 1,3 -3,5 -7,16 -6,22 0,0 0,-1 -1,-1l-7 -29 8 1 -6 -3c-1,0 -1,0 -2,0 -2,0 -3,-2 -2,0 3,10 -2,-2 1,10 1,4 3,9 3,12 1,7 -1,6 3,12 6,10 1,-1 6,4l-6 4c4,10 -3,2 4,17 5,-2 6,-2 7,-7 0,0 -1,-1 -1,-1 0,0 0,-1 0,-1l0 -41c2,3 2,4 1,6 0,1 0,5 0,6 1,5 2,7 3,15l3 -8c1,1 1,1 1,1 0,1 0,1 0,2l1 2c2,12 2,22 6,34 1,-8 -3,-13 0,-20 4,6 0,11 4,15l0 0 -1 -15c10,-2 10,-5 21,-6 1,0 3,0 4,0 4,-1 1,1 4,-1 -16,-5 -19,3 -30,3l0 -12 -4 12c-3,-6 -4,-16 -4,-24 0,0 -2,2 -2,2 -4,3 2,3 -3,1 0,-2 -1,-11 -1,-17l-7 1z"/>
   <path class="fil3" d="M135 86c2,-5 5,-7 10,-9 7,-2 8,0 14,2 -5,5 -18,8 -20,9 0,1 -1,1 -1,1l0 0 0 0 0 0 7 -1c6,-2 11,-4 14,-2 5,3 -3,1 1,1 22,-25 23,-5 47,-4l-6 -3c-23,-9 -21,-11 -33,-4 -11,6 -13,-4 -22,-2 -6,2 -10,8 -17,9l6 3z"/>
   <path class="fil2" d="M312 116c-3,3 -7,19 -8,23l-2 -5c-2,-8 -2,-15 -5,-19 -2,7 0,11 -5,17l-3 -20 -1 11c3,-3 -2,-1 1,0 -1,5 0,1 -3,4 -1,1 -2,2 -3,2l-3 -7c0,-5 2,-6 0,-11l-4 16 26 16c-1,2 0,0 0,3 -1,2 -1,3 -2,5l-6 -6c0,0 0,0 0,0 -2,2 -1,1 -2,3l-2 -11c-3,4 -1,4 -2,9l-5 -12c-3,3 -4,13 -3,17l3 -5c1,11 -3,17 5,21l1 -21c6,11 -4,20 7,23 -1,-10 -2,-9 0,-20l6 20c3,-4 -1,-8 -1,-13 -1,-2 10,-31 11,-40z"/>
   <path class="fil2" d="M257 156c-1,0 -1,-1 -1,-1l-3 -10c-1,-5 0,-7 -3,-12l-4 21 -4 -20c-3,6 -3,15 -5,22l-6 -19c-3,4 -2,14 -2,19l2 -10c0,2 2,7 3,10 1,5 -3,5 3,6 3,-6 3,-13 5,-20 0,4 1,8 1,12 0,5 -2,4 2,8 1,-1 1,1 1,-3l3 -12c3,4 3,11 3,11 0,1 1,5 5,2 3,-3 5,-16 4,-21 3,4 3,7 3,12 -1,7 -2,8 3,11l3 -9c1,-3 2,-7 2,-11l0 1c4,2 -1,2 3,0l-2 -11c-2,2 -1,0 -2,4l-4 17 -4 -23 -6 26z"/>
   <path class="fil1" d="M137 245l-5 11c10,-2 17,-3 26,-4 11,-2 16,-1 17,-12l-38 5z"/>
   <path class="fil2" d="M203 163c0,-1 0,-1 0,-1l-2 -3c-1,-3 0,-2 -2,-4 -3,4 -2,3 -4,3l-2 12 4 -2c2,-1 0,3 2,-3 1,2 1,6 5,2 2,-2 1,-7 2,-10 2,5 0,4 4,8l0 -2c1,-1 1,-1 1,-3l-7 -16 -1 19z"/>
   <path class="fil2" d="M214 163c0,0 1,-2 1,-2 1,-2 1,-2 1,-3 2,4 0,2 3,5 3,-3 -2,-18 -2,-19 -1,-2 -1,-1 -2,-2l-2 17c-1,8 0,3 1,4z"/>
   <path class="fil2" d="M53 161l4 2c-1,-9 -1,-2 3,-4 -3,-4 -2,0 -1,-6l8 -2c-4,-4 -4,-2 -6,-3 -5,0 -1,0 -6,-2 0,9 -3,9 -2,15z"/>
   <path class="fil2" d="M342 135c0,-9 -1,-16 -2,-26 -2,4 -2,25 -1,28 4,-2 1,1 3,-2z"/>
   <path class="fil2" d="M220 154l3 -5 0 10c2,3 0,2 4,3 -1,-7 -2,-17 -5,-23l-2 15z"/>
   <path class="fil2" d="M278 165l-2 -14c0,-1 0,-2 -1,-3 -1,-2 -1,-2 -2,-3 1,15 -3,17 5,20z"/>
   <path class="fil2" d="M155 159c0,-1 3,-8 -3,-12 -3,4 0,4 0,4 2,7 -3,8 4,14 0,-3 -1,-5 -1,-6z"/>
   <path class="fil2" d="M56 138l1 5c3,-1 2,0 5,-1l7 -1c-4,-7 4,0 -13,-3z"/>
   <path class="fil2" d="M53 161c-1,4 2,4 -4,3l3 2 0 0 8 2 -2 -4 2 -5c-4,2 -4,-5 -3,4l-4 -2z"/>
   <path class="fil2" d="M277 207l1 -8c-3,2 -3,-1 -3,5 0,3 2,3 2,3z"/>
   <path class="fil2" d="M92 157l5 1c0,-3 0,-3 -1,-6 -2,2 -3,2 -4,5z"/>
   <path class="fil2" d="M152 144c0,-4 0,-4 -4,-5 1,4 0,4 4,5z"/>
   <path class="fil4" d="M378 170c1,1 2,2 3,2l-1 3c-1,0 -2,0 -2,0 -1,0 -2,-1 -3,-2 -2,0 -4,1 -5,1 -4,0 -6,-1 -8,-3 -2,-3 -3,-5 -3,-9 0,-4 1,-7 3,-9 2,-2 4,-3 8,-3 3,0 6,1 7,3 2,2 3,5 3,9 0,2 0,4 0,5 -1,1 -2,2 -2,3zm-4 -2c1,-1 1,-2 1,-3 1,-1 1,-2 1,-3 0,-3 -1,-5 -2,-6 -1,-1 -3,-2 -4,-2 -2,0 -4,1 -5,2 -1,1 -2,3 -2,6 0,3 1,5 2,6 1,1 3,2 4,2 1,0 2,0 2,-1 -1,0 -2,-1 -3,-1l2 -3c1,1 3,2 4,3zm18 -17l4 0 0 12c0,2 0,3 1,4 0,1 0,1 1,2 1,0 2,1 3,1 1,0 2,-1 3,-1 0,-1 1,-1 1,-2 0,-1 0,-2 0,-4l0 -12 5 0 0 12c0,2 0,4 -1,5 0,1 0,2 -1,3 -1,1 -2,1 -3,2 -1,0 -2,1 -4,1 -2,0 -4,-1 -5,-1 -1,-1 -2,-1 -2,-2 -1,-1 -1,-2 -2,-3 0,-1 0,-3 0,-5l0 -12zm30 22l0 -22 17 0 0 4 -12 0 0 5 11 0 0 3 -11 0 0 6 12 0 0 4 -17 0zm28 -7l5 -1c0,2 0,3 1,4 1,0 2,1 3,1 2,0 3,-1 4,-1 0,-1 1,-2 1,-2 0,-1 0,-1 -1,-2 0,0 -1,0 -1,-1 -1,0 -2,0 -4,-1 -2,0 -4,-1 -5,-2 -1,-1 -2,-3 -2,-4 0,-2 0,-3 1,-4 1,-1 1,-1 3,-2 1,0 2,-1 4,-1 3,0 5,1 6,2 2,1 3,3 3,5l-5 0c0,-1 0,-2 -1,-2 -1,-1 -2,-1 -3,-1 -1,0 -2,0 -3,1 0,0 -1,1 -1,1 0,1 0,1 1,2 1,0 2,1 4,1 2,1 4,1 5,2 1,0 2,1 2,2 1,1 1,2 1,4 0,1 0,2 -1,3 0,1 -1,2 -3,3 -1,0 -3,1 -5,1 -2,0 -5,-1 -6,-2 -2,-2 -3,-4 -3,-6zm29 -4c0,-2 1,-4 1,-6 1,-1 1,-2 2,-3 1,-1 2,-1 3,-2 2,0 3,-1 5,-1 3,0 6,1 8,3 2,2 3,5 3,9 0,4 -1,6 -3,9 -2,2 -5,3 -8,3 -3,0 -6,-1 -8,-3 -2,-3 -3,-5 -3,-9zm5 0c0,2 0,4 2,6 1,1 2,2 4,2 2,0 3,-1 5,-2 1,-2 1,-4 1,-6 0,-3 0,-5 -1,-6 -2,-1 -3,-2 -5,-2 -2,0 -3,1 -4,2 -2,1 -2,3 -2,6zm27 4l5 -1c0,2 0,3 1,4 1,0 2,1 4,1 1,0 2,-1 3,-1 1,-1 1,-2 1,-2 0,-1 0,-1 -1,-2 0,0 0,0 -1,-1 -1,0 -2,0 -4,-1 -2,0 -4,-1 -5,-2 -1,-1 -2,-3 -2,-4 0,-2 0,-3 1,-4 1,-1 2,-1 3,-2 1,0 3,-1 4,-1 3,0 5,1 7,2 1,1 2,3 2,5l-5 0c0,-1 0,-2 -1,-2 -1,-1 -2,-1 -3,-1 -1,0 -2,0 -3,1 0,0 -1,1 -1,1 0,1 1,1 1,2 1,0 2,1 4,1 2,1 4,1 5,2 1,0 2,1 3,2 0,1 0,2 0,4 0,1 0,2 -1,3 0,1 -1,2 -3,3 -1,0 -3,1 -5,1 -2,0 -5,-1 -6,-2 -2,-2 -2,-4 -3,-6z"/>
  </g>
 </g>
</svg>
