<?xml version="1.0" encoding="UTF-8"?>
<!DOCTYPE svg PUBLIC "-//W3C//DTD SVG 1.0//EN" "http://www.w3.org/TR/2001/REC-SVG-20010904/DTD/svg10.dtd">
<!-- Creator: CorelDRAW X8 -->
<svg xmlns="http://www.w3.org/2000/svg" xml:space="preserve" width="534px" height="405px" version="1.0" style="shape-rendering:geometricPrecision; text-rendering:geometricPrecision; image-rendering:optimizeQuality; fill-rule:evenodd; clip-rule:evenodd"
viewBox="0 0 20376 15459"
 xmlns:xlink="http://www.w3.org/1999/xlink">
 <defs>
  <style type="text/css">
   <![CDATA[
    .fil1 {fill:#41BAE3;fill-rule:nonzero}
    .fil2 {fill:#267DC0;fill-rule:nonzero}
    .fil3 {fill:#41BAE3;fill-rule:nonzero}
    .fil4 {fill:#D40129;fill-rule:nonzero}
    .fil0 {fill:#FEFEFE;fill-rule:nonzero}
   ]]>
  </style>
 </defs>
 <g id="Capa_x0020_1">
  <metadata id="CorelCorpID_0Corel-Layer"/>
  <g id="_2079125789520">
   <path class="fil0" d="M20333 14879c0,222 -179,402 -401,402 -222,0 -402,-180 -402,-402 0,-221 180,-401 402,-401 222,0 401,180 401,401z"/>
   <polygon class="fil0" points="101,15358 19121,15358 19121,101 101,101 "/>
   <g>
    <path class="fil1" d="M19121 15459l-19020 0 0 -203 19020 0 101 102 -101 101zm101 -101l0 101 -101 0 101 -101zm0 -15257l0 15257 -202 0 0 -15257 101 -101 101 101zm-101 -101l101 0 0 101 -101 -101zm-19020 0l19020 0 0 203 -19020 0 -101 -102 101 -101zm-101 101l0 -101 101 0 -101 101zm0 15257l0 -15257 203 0 0 15257 -102 101 -101 -101zm101 101l-101 0 0 -101 101 101z"/>
   </g>
   <polygon class="fil2" points="940,4773 4758,4773 4758,954 940,954 "/>
   <polygon class="fil2" points="5443,4773 9262,4773 9262,954 5443,954 "/>
   <polygon class="fil2" points="9947,4773 13766,4773 13766,954 9947,954 "/>
   <polygon class="fil2" points="14450,4773 18269,4773 18269,954 14450,954 "/>
   <polygon class="fil3" points="940,14450 4758,14450 4758,10631 940,10631 "/>
   <polygon class="fil3" points="5443,14450 9262,14450 9262,10631 5443,10631 "/>
   <polygon class="fil3" points="9947,14450 13766,14450 13766,10631 9947,10631 "/>
   <polygon class="fil3" points="14450,14450 18269,14450 18269,10631 14450,10631 "/>
   <polygon class="fil4" points="2273,8869 4336,8869 4336,9746 935,9746 935,8915 2953,6544 1076,6544 1076,5691 4262,5691 4262,6567 "/>
   <polygon class="fil4" points="9161,9746 8085,9746 7465,6788 7450,6788 6829,9746 5753,9746 4632,5691 5746,5691 6366,8602 6381,8602 6942,5691 7995,5691 8593,8602 8608,8602 9229,5691 10305,5691 "/>
   <path class="fil4" d="M12763 7772c-106,83 -281,152 -721,221 -394,68 -721,167 -721,609 0,374 289,488 494,488 470,0 948,-305 948,-800l0 -518zm1040 1181c0,480 106,587 235,633l0 160 -1146 0c-60,-191 -76,-252 -98,-481 -243,252 -585,587 -1306,587 -607,0 -1229,-343 -1229,-1181 0,-793 501,-1197 1176,-1296l956 -145c167,-23 372,-91 372,-320 0,-450 -425,-472 -698,-472 -531,0 -622,327 -653,564l-1024 0c121,-1243 979,-1418 1806,-1418 569,0 1609,175 1609,1174l0 2195z"/>
   <path class="fil4" d="M18303 9746l-1047 0 0 -2462c0,-298 -15,-801 -681,-801 -463,0 -822,320 -822,938l0 2325 -1047 0 0 -4055 1002 0 0 594 15 0c142,-244 441,-701 1196,-701 778,0 1384,465 1384,1357l0 2805z"/>
   <path class="fil2" d="M19955 14832c48,0 72,-16 72,-60 0,-24 -11,-58 -65,-58l-115 0 0 118 108 0zm-199 -195l224 0c118,0 140,87 140,125 0,49 -25,91 -69,106 36,16 56,30 56,112 0,65 0,81 20,89l0 11 -102 0c-7,-21 -10,-43 -10,-89 0,-61 -4,-84 -73,-84l-95 0 0 173 -91 0 0 -443z"/>
   <path class="fil2" d="M19932 14516c-197,0 -357,160 -357,357 0,197 160,357 357,357 197,0 357,-160 357,-357 0,-197 -160,-357 -357,-357zm0 801c-245,0 -444,-199 -444,-444 0,-244 199,-444 444,-444 244,0 444,200 444,444 0,245 -200,444 -444,444z"/>
  </g>
 </g>
</svg>
