<?xml version="1.0" encoding="UTF-8"?>
<!DOCTYPE svg PUBLIC "-//W3C//DTD SVG 1.0//EN" "http://www.w3.org/TR/2001/REC-SVG-20010904/DTD/svg10.dtd">
<!-- Creator: CorelDRAW X8 -->
<svg xmlns="http://www.w3.org/2000/svg" xml:space="preserve" width="725px" height="400px" version="1.0" style="shape-rendering:geometricPrecision; text-rendering:geometricPrecision; image-rendering:optimizeQuality; fill-rule:evenodd; clip-rule:evenodd"
viewBox="0 0 477 263"
 xmlns:xlink="http://www.w3.org/1999/xlink">
 <defs>
  <style type="text/css">
   <![CDATA[
    .fil0 {fill:#1F3070}
    .fil1 {fill:#5F0E11}
    .fil2 {fill:#FEFEFE}
   ]]>
  </style>
 </defs>
 <g id="Capa_x0020_1">
  <metadata id="CorelCorpID_0Corel-Layer"/>
  <g id="_2079001654864">
   <path class="fil0" d="M264 202c0,-2 3,-11 5,-13l4 2c0,0 0,1 0,1 8,-3 18,-2 22,5 2,4 1,20 1,27 2,3 3,-2 3,6l-15 0 -2 -4c-4,3 -9,6 -15,4 -5,-1 -8,-5 -9,-11 0,-13 12,-14 20,-14 1,0 1,0 2,-1 2,0 1,0 2,0 0,-4 -2,-6 -6,-5 -4,0 -6,2 -7,4l-5 -1zm142 15c-1,7 -10,14 -20,14 -9,-1 -15,-8 -16,-17 0,-24 28,-31 35,-16l-10 10c-2,-3 -5,-14 -10,-10 -5,4 -1,16 2,19 7,7 15,-1 16,-2l3 2zm-185 -27l0 34c2,4 3,-3 3,6l-20 -1c0,-7 1,-2 3,-5l0 -24c0,0 -1,0 -1,-1l-1 0c-1,-1 -1,-2 -1,-4l17 -5zm103 6c0,-2 0,-2 1,-3 4,-5 6,-2 11,-2 2,-1 2,-1 4,1l-4 12c-14,-4 -13,2 -12,20 3,2 2,0 4,2l0 4 -21 -1c0,-7 1,-2 3,-5l0 -21c-3,-1 0,0 -3,-1 -1,0 -1,0 -3,-1 2,-3 1,-1 2,-3l7 -7c4,1 7,3 8,7l3 -2zm92 5c0,-2 3,-10 5,-12 5,1 2,1 4,3 8,-2 18,-2 22,4 2,5 1,21 1,28 2,4 3,-3 3,6l-16 0 -1 -4c-5,3 -8,6 -15,4 -5,-1 -8,-5 -9,-11 0,-13 12,-15 24,-14 0,-6 -3,-8 -8,-6 -6,2 -4,6 -10,2zm-55 -11l0 34c2,4 3,-3 3,6l-20 0c-1,-9 2,-2 3,-7l0 -23c-2,-2 -3,0 -3,-5l17 -5zm-277 12c0,-3 3,-10 4,-13 6,1 3,1 4,3 28,-5 24,7 24,32 0,0 0,0 0,0l1 1c2,1 2,2 1,5 -15,0 -13,1 -16,-4 -5,3 -9,6 -15,4 -12,-3 -17,-27 15,-25 0,-6 -3,-8 -8,-6 -7,2 -2,5 -10,3zm268 -23c10,-3 13,7 5,10 -12,3 -14,-7 -5,-10zm-139 0c10,-3 12,7 3,10 -12,3 -12,-8 -3,-10zm-65 45c3,0 2,0 4,-1l0 -40 -4 -1 0 -6c19,0 52,-3 50,21 -1,15 -15,19 -29,17l0 10 5 0 -1 6 -25 0 0 -6zm-115 -47l26 -1 0 6 -6 0 0 41c20,0 7,-8 19,-8l-2 17c-6,1 -3,-2 -8,-2 -1,-1 -7,0 -10,0 -6,0 -14,0 -19,-1 0,-7 -1,-4 4,-6l0 -39 -4 -2 0 -5zm199 51c0,-8 3,2 3,-7l0 -29c0,-12 -2,-1 -3,-8 0,-3 2,-3 5,-4 5,-1 11,-3 15,-4 0,3 0,3 -1,4 -1,3 0,-1 -2,3l0 36c0,11 4,1 3,11l-20 -2zm-214 15l443 0 16 -68c-8,-1 -18,-4 -27,-6 -28,-6 -56,-11 -85,-14 -79,-9 -173,-9 -252,0 -17,3 -103,15 -113,21l18 67z"/>
   <polygon class="fil1" points="18,263 461,263 461,249 17,249 "/>
   <path class="fil0" d="M294 134c-3,-12 -9,-15 -16,-21 19,-3 28,7 33,21l-17 0zm-149 4l0 6c54,-2 92,-4 146,-2 10,0 41,3 49,1l0 -5c-14,-4 -1,1 -19,-16 -6,-5 -13,-10 -21,-13 -33,-15 -82,-16 -115,0 -7,3 -16,8 -21,13 -3,3 -6,6 -8,9 -9,11 -3,3 -11,7z"/>
   <path class="fil0" d="M251 59l12 0 0 21 -12 0 0 -21zm-30 0l11 0 0 21 -11 0 0 -21zm36 -18c-2,-2 -1,-1 -3,-4 -3,-6 -5,-6 -8,-9 11,-2 18,3 20,13l-9 0zm-18 -35l-9 0 0 5 9 0 0 9c-14,0 -27,10 -28,23l-10 4 0 4c12,7 10,-4 10,30l-5 2 0 12c5,0 21,-3 36,-3 12,0 23,1 35,3l1 -12 -5 -1 0 -27c7,-2 15,-6 5,-10 -6,-2 -4,-1 -5,-4 -2,-5 -2,-7 -6,-11 -3,-4 -14,-10 -22,-10l0 -9 9 0 0 -5 -9 0 -1 -6 -4 0 -1 6z"/>
   <path class="fil2" d="M169 183c18,0 13,32 2,25 -4,-2 -2,-19 -2,-25zm-21 -1l4 1 0 40c-2,1 -1,1 -4,1l0 6 25 0 1 -6 -5 0 0 -10c14,2 28,-2 29,-17 2,-24 -31,-21 -50,-21l0 6z"/>
   <path class="fil2" d="M33 182l4 2 0 39c-5,2 -4,-1 -4,6 5,1 13,1 19,1 3,0 9,-1 10,0 5,0 2,3 8,2l2 -17c-12,0 1,8 -19,8l0 -41 6 0 0 -6 -26 1 0 5z"/>
   <path class="fil2" d="M434 209c0,3 0,9 -1,11 -1,3 -5,3 -7,1 -1,-1 -4,-12 8,-12zm-18 -8c6,4 4,0 10,-2 5,-2 8,0 8,6 -12,-1 -24,1 -24,14 1,6 4,10 9,11 7,2 10,-1 15,-4l1 4 16 0c0,-9 -1,-2 -3,-6 0,-7 1,-23 -1,-28 -4,-6 -14,-6 -22,-4 -2,-2 1,-2 -4,-3 -2,2 -5,10 -5,12z"/>
   <path class="fil2" d="M282 209c0,3 0,9 0,11 -2,2 -5,4 -8,1 -3,-4 -1,-13 8,-12zm-18 -7l5 1c1,-2 3,-4 7,-4 4,-1 6,1 6,5 -1,0 0,0 -2,0 -1,1 -1,1 -2,1 -8,0 -20,1 -20,14 1,6 4,10 9,11 6,2 11,-1 15,-4l2 4 15 0c0,-8 -1,-3 -3,-6 0,-7 1,-23 -1,-27 -4,-7 -14,-8 -22,-5 0,0 0,-1 0,-1l-4 -2c-2,2 -5,11 -5,13z"/>
   <path class="fil2" d="M101 209c3,16 -5,15 -7,12 -1,-2 -4,-12 7,-12zm-17 -7c8,2 3,-1 10,-3 5,-2 8,0 8,6 -32,-2 -27,22 -15,25 6,2 10,-1 15,-4 3,5 1,4 16,4 1,-3 1,-4 -1,-5l-1 -1c0,0 0,0 0,0 0,-25 4,-37 -24,-32 -1,-2 2,-2 -4,-3 -1,3 -4,10 -4,13z"/>
   <path class="fil2" d="M406 217l-3 -2c-1,1 -9,9 -16,2 -3,-3 -7,-15 -2,-19 5,-4 8,7 10,10l10 -10c-7,-15 -35,-8 -35,16 1,9 7,16 16,17 10,0 19,-7 20,-14z"/>
   <path class="fil2" d="M232 228l20 2c1,-10 -3,0 -3,-11l0 -36c2,-4 1,0 2,-3 1,-1 1,-1 1,-4 -4,1 -10,3 -15,4 -3,1 -5,1 -5,4 1,7 3,-4 3,8l0 29c0,9 -3,-1 -3,7z"/>
   <path class="fil2" d="M321 198c-1,-4 -4,-6 -8,-7l-7 7c-1,2 0,0 -2,3 2,1 2,1 3,1 3,1 0,0 3,1l0 21c-2,3 -3,-2 -3,5l21 1 0 -4c-2,-2 -1,0 -4,-2 -1,-18 -2,-24 12,-20l4 -12c-2,-2 -2,-2 -4,-1 -5,0 -7,-3 -11,2 -1,1 -1,1 -1,3l-3 2z"/>
   <path class="fil2" d="M344 195c0,5 1,3 3,5l0 23c-1,5 -4,-2 -3,7l20 0c0,-9 -1,-2 -3,-6l0 -34 -17 5z"/>
   <path class="fil2" d="M204 195c0,2 0,3 1,4l1 0c0,1 1,1 1,1l0 24c-2,3 -3,-2 -3,5l20 1c0,-9 -1,-2 -3,-6l0 -34 -17 5z"/>
   <path class="fil2" d="M294 134l17 0c-5,-14 -14,-24 -33,-21 7,6 13,9 16,21z"/>
   <path class="fil0" d="M169 183c0,6 -2,23 2,25 11,7 16,-25 -2,-25z"/>
   <polygon class="fil2" points="251,80 263,80 263,59 251,59 "/>
   <polygon class="fil2" points="221,80 232,80 232,59 221,59 "/>
   <path class="fil2" d="M257 41l9 0c-2,-10 -9,-15 -20,-13 3,3 5,3 8,9 2,3 1,2 3,4z"/>
   <path class="fil2" d="M213 179c-9,2 -9,13 3,10 9,-3 7,-13 -3,-10z"/>
   <path class="fil2" d="M352 179c-9,3 -7,13 5,10 8,-3 5,-13 -5,-10z"/>
   <path class="fil0" d="M282 209c-9,-1 -11,8 -8,12 3,3 6,1 8,-1 0,-2 0,-8 0,-11z"/>
   <path class="fil0" d="M101 209c-11,0 -8,10 -7,12 2,3 10,4 7,-12z"/>
   <path class="fil0" d="M434 209c-12,0 -9,11 -8,12 2,2 6,2 7,-1 1,-2 1,-8 1,-11z"/>
  </g>
 </g>
</svg>
