<?xml version="1.0" encoding="UTF-8"?>
<!DOCTYPE svg PUBLIC "-//W3C//DTD SVG 1.0//EN" "http://www.w3.org/TR/2001/REC-SVG-20010904/DTD/svg10.dtd">
<!-- Creator: CorelDRAW X8 -->
<svg xmlns="http://www.w3.org/2000/svg" xml:space="preserve" width="814px" height="400px" version="1.0" style="shape-rendering:geometricPrecision; text-rendering:geometricPrecision; image-rendering:optimizeQuality; fill-rule:evenodd; clip-rule:evenodd"
viewBox="0 0 651 320"
 xmlns:xlink="http://www.w3.org/1999/xlink">
 <defs>
  <style type="text/css">
   <![CDATA[
    .fil0 {fill:#0A2F5E}
    .fil2 {fill:#26AFFF}
    .fil4 {fill:#0A2F5E;fill-rule:nonzero}
    .fil1 {fill:#A69466;fill-rule:nonzero}
    .fil5 {fill:#BD2D3E;fill-rule:nonzero}
    .fil3 {fill:white;fill-rule:nonzero}
   ]]>
  </style>
 </defs>
 <g id="Capa_x0020_1">
  <metadata id="CorelCorpID_0Corel-Layer"/>
  <g id="_2079123861584">
   <path class="fil0" d="M4 68l0 117c0,19 16,35 35,35l0 0 71 0c21,51 110,96 216,96l0 0c105,0 194,-45 215,-96l0 0 71 0c19,0 35,-16 35,-35l0 0 0 -117 -643 0z"/>
   <path class="fil1" d="M407 289l-9 -10 0 9 -3 0 0 -15 0 0 10 10 0 -10 2 0 0 16 0 0zm-26 -1l0 -15 9 0 0 3 -6 0 0 4 6 0 0 2 -6 0 0 4 6 0 0 2 -9 0zm-9 1c-1,0 -3,-1 -5,-2l1 -2c2,1 3,1 4,1 2,0 3,-1 3,-2 0,-1 -1,-1 -3,-2 -3,-2 -4,-3 -4,-5 0,-2 2,-4 5,-4 2,0 3,1 4,1l-1 2c-1,0 -2,-1 -3,-1 -2,0 -2,1 -2,2 0,1 0,2 2,3 3,1 4,2 4,4 0,3 -2,5 -5,5zm-12 0c-2,0 -4,-1 -5,-2l1 -2c1,1 2,1 4,1 1,0 2,-1 2,-2 0,-1 0,-1 -3,-2 -2,-2 -3,-3 -3,-5 0,-2 1,-4 5,-4 1,0 2,1 3,1l0 2c-1,0 -2,-1 -3,-1 -2,0 -3,1 -3,2 0,1 1,2 3,3 3,1 4,2 4,4 0,3 -2,5 -5,5zm-18 -1l0 -15 10 0 0 3 -7 0 0 4 6 0 0 2 -6 0 0 4 7 0 0 2 -10 0zm-8 -12l0 12 -3 0 0 -12 -5 0 0 -3 13 0 0 3 -5 0zm-17 2l-2 5 4 0 -2 -5zm5 10l-2 -3 -6 0 -1 3 -3 0 7 -15 0 0 7 15 -2 0zm-19 1c-5,0 -8,-4 -8,-8 0,-5 3,-8 8,-8 2,0 4,1 5,1l-1 3c-1,-1 -3,-2 -4,-2 -3,0 -5,3 -5,6 0,3 2,5 5,5 1,0 3,0 4,-1l1 2c-1,1 -3,2 -5,2zm-15 -1l0 -15 3 0 0 15 -3 0zm-13 0l0 -15 3 0 0 13 6 0 0 2 -9 0zm-14 0l0 -15 10 0 0 3 -7 0 0 4 6 0 0 2 -6 0 0 4 7 0 0 2 -10 0zm-13 -13c0,0 -1,1 -2,1l0 10c1,0 2,0 3,0 3,0 5,-2 5,-5 0,-3 -2,-6 -6,-6zm0 14c-1,0 -3,0 -4,-1l0 -15c1,0 3,0 4,0 6,0 9,4 9,8 0,4 -3,8 -9,8z"/>
   <path class="fil2" d="M177 213c48,80 142,27 161,16l0 0c-21,7 -109,47 -154,-19l0 0 -7 3z"/>
   <path class="fil3" d="M622 111l-2 0 0 -4c0,0 1,0 2,0 1,0 2,1 2,2 0,1 -1,2 -2,2zm3 1l0 -1c1,0 2,-1 2,-2 0,-2 0,-2 -1,-3 -1,0 -2,-1 -4,-1 -2,0 -4,0 -5,1l0 11 3 0 0 -4 1 0c2,0 3,0 3,1 0,2 0,3 1,3l3 0c-1,0 -1,-1 -1,-3 -1,-1 -1,-2 -2,-2zm-3 9c-5,0 -9,-5 -9,-10 0,-5 4,-9 9,-9 5,0 9,4 9,9 0,5 -4,10 -9,10zm0 -22c-7,0 -12,6 -12,12 0,7 5,12 12,12 7,0 12,-5 12,-12 0,-6 -5,-12 -12,-12zm-207 78l0 -37 22 0 3 -8 -25 0 0 -21 35 0 4 -9 -48 0 0 75 9 0zm-128 -40l0 -26 2 0c9,0 20,1 20,13 0,12 -10,13 -19,13l-3 0zm159 56c-30,0 -55,10 -75,23 29,-11 47,-15 75,-15 24,0 48,10 48,26 0,15 -19,27 -51,27 -63,0 -115,-67 -143,-109 11,-2 18,-9 18,-21 0,-14 -7,-22 -30,-22l-11 0 0 75 10 0 0 -31 3 0c13,21 34,50 60,74 30,27 62,41 93,41 37,0 62,-14 62,-35 0,-24 -32,-33 -59,-33zm-327 -43l14 -31 13 31 -27 0zm-22 27l10 0 8 -19 35 0 8 19 10 0 -35 -78 -36 78zm484 -75l-9 0 0 75 32 0 0 -8 -23 0 0 -67zm-64 75l40 0 0 -8 -31 0 0 -28 28 0 0 -9 -28 0 0 -21 31 0 0 -9 -40 0 0 75zm-31 -27l-26 0 13 -31 13 31zm-49 27l10 0 9 -19 34 0 9 19 10 0 -36 -78 -36 78zm-75 -58l13 31 -26 0 13 -31zm-17 39l34 0 9 19 10 0 -36 -78 -36 78 10 0 9 -19zm-114 -56l0 56 -56 -59 0 78 9 0 0 -56 56 59 0 -78 -9 0zm-155 31l-5 -2c-5,-2 -11,-5 -11,-11 0,-7 7,-11 13,-11 5,0 9,3 12,7l7 -4c-4,-7 -11,-11 -19,-11 -11,0 -22,7 -22,19 0,10 8,15 16,19l5 2c7,3 13,6 13,14 0,8 -6,15 -14,15 -8,0 -14,-6 -14,-14l-10 2c2,12 11,21 24,21 13,0 24,-10 24,-24 0,-12 -8,-18 -19,-22z"/>
   <path class="fil1" d="M395 61c-10,-13 -25,-21 -33,-24l0 -33 -1 0c-10,-2 -23,-4 -35,-4l0 0c-13,0 -26,2 -35,4l-2 0 0 2 0 31c-8,3 -23,11 -32,24l-3 3 -250 0 -4 0 0 4 0 117c0,21 18,39 39,39l68 0c26,55 119,96 219,96 100,0 193,-41 218,-96l68 0c22,0 39,-18 39,-39l0 -117 0 -4 -4 0 -250 0 -2 -3zm-121 7l1 21 6 -7c6,-6 10,-9 13,-11 5,6 13,11 19,14 3,3 7,5 9,7l2 2 2 2 1 -2 3 -2c1,-2 5,-4 8,-7 7,-3 14,-8 19,-14 3,2 7,5 13,11l7 7 1 -21 269 0 0 117c0,19 -16,35 -35,35l-71 0c-21,51 -110,96 -215,96 -106,0 -195,-45 -216,-96l-71 0c-19,0 -35,-16 -35,-35l0 -117 270 0z"/>
   <path class="fil3" d="M393 62c-10,-13 -25,-21 -33,-24l0 -32c-10,-3 -23,-4 -34,-4l0 0c-12,0 -25,1 -35,4l0 32c-8,3 -23,11 -33,24l-2 3 20 0 1 18 2 -3c7,-7 12,-10 16,-12 4,7 12,12 19,16 4,2 7,4 9,6l3 3 2 -3c2,-2 6,-4 10,-6 6,-4 14,-9 19,-16 3,2 8,5 15,12l3 3 0 -18 20 0 -2 -3z"/>
   <path class="fil4" d="M298 12l0 20 56 0 0 -20c-8,-2 -18,-3 -28,-3l0 0c-11,0 -21,1 -28,3zm40 24l0 15c0,5 -5,8 -8,10l0 0c-2,1 -3,1 -4,2l0 0 0 1 -1 -1c-1,-1 -2,-1 -3,-2l0 0c-4,-2 -8,-5 -8,-10l0 0 0 -15 -16 0 0 20c0,11 10,17 19,22l0 0c3,2 6,4 9,6l0 0c2,-2 5,-4 8,-6l0 0c9,-5 20,-11 20,-22l0 0 0 -20 -16 0zm-22 8c0,1 1,2 3,3l0 0c2,1 2,1 2,2l0 0c0,0 0,1 -1,1l0 0c-1,0 -2,-1 -3,-1l0 0 -1 2c1,1 2,1 4,1l0 0c2,0 4,-2 4,-3l0 0c0,-2 -1,-3 -3,-4l0 0c-1,0 -2,-1 -2,-1l0 0c0,-1 0,-1 1,-1l0 0c1,0 2,0 3,1l0 0 1 -3c-1,0 -2,-1 -4,-1l0 0c-2,0 -4,2 -4,4zm10 -3l0 11 3 0 0 -4c0,0 1,0 1,0l0 0c0,0 0,0 0,0l0 0 2 4 3 0 -2 -5c1,0 2,-1 2,-3l0 0c0,-2 -2,-4 -5,-4l0 0c-2,0 -3,0 -4,1zm3 5l0 -3c0,0 1,0 1,0l0 0c1,0 2,0 2,1l0 0c0,1 -1,2 -2,2l0 0c-1,0 -1,0 -1,0l0 0z"/>
   <path class="fil1" d="M327 70l-1 -4 -2 4 -4 0 4 2 -2 4 4 -2 3 2 -1 -4 3 -2 -4 0zm-17 -10l-1 -4 -1 4 -4 0 3 2 -1 4 3 -2 3 2 -1 -4 3 -2 -4 0zm34 0l-2 -4 -1 4 -4 0 3 2 -1 4 3 -2 4 2 -2 -4 4 -2 -4 0zm7 -16l-4 0 -1 -4 -2 4 -4 0 3 2 -1 4 4 -2 3 2 -1 -4 3 -2zm-45 4l3 2 -1 -4 3 -2 -4 0 -1 -4 -2 4 -4 0 4 2 -2 4 4 -2z"/>
   <path class="fil3" d="M335 15l2 0 0 -1 -1 0 0 0 1 0 0 -1 -1 0 0 -1 1 0 0 -1 -2 0 0 4zm-4 0c0,0 1,0 1,0l0 -1c0,0 -1,0 -1,0 -1,0 -1,0 -1,-1 0,-1 0,-1 1,-1 0,0 1,0 1,0l0 -1c0,0 -1,0 -1,0 -1,0 -2,1 -2,2 0,1 1,2 2,2zm-5 0l0 -4 -1 0 0 2 -2 -2 0 0 0 4 1 0 0 -2 2 2 0 0zm-6 0l0 -4 -1 0 0 4 1 0zm-5 -1c0,0 0,0 -1,0l0 1c0,0 1,0 1,0 1,0 2,0 2,-1 0,0 0,-1 -1,-1 -1,0 -1,0 -1,-1 0,0 0,0 1,0 0,0 0,0 1,0l0 -1c0,0 -1,0 -1,0 -1,0 -2,1 -2,1 0,1 0,1 1,1 1,1 1,1 1,1 0,0 0,0 -1,0zm29 8l4 -3 0 -2 -8 0 0 3 4 0 -4 3 1 2c1,-1 1,-1 2,-1 1,0 2,1 2,2 0,1 -1,1 -2,1 -1,0 -2,0 -3,0l-1 3c1,0 3,0 4,0 3,0 5,-2 5,-4 0,-2 -1,-4 -4,-4zm-13 3l-2 0 2 -3 0 3zm3 -8l-2 0 -6 8 0 2 5 0 0 3 3 0 0 -3 2 0 0 -2 -2 0 0 -8zm-15 6c-1,0 -2,-1 -2,-2 0,-1 0,-2 2,-2 1,0 1,1 1,2 0,2 0,2 -1,2zm0 -6c-3,0 -5,2 -5,4 0,2 1,4 4,4 0,0 1,0 2,0 -2,1 -3,2 -5,3l1 3c6,-3 7,-6 7,-9 0,-3 -1,-5 -4,-5zm-16 2l1 3 2 -1 0 9 4 0 0 -13 -1 0 -6 2z"/>
   <path class="fil5" d="M291 40c-9,4 -23,11 -31,23l18 0 0 16c7,-7 12,-11 16,-12 -2,-4 -3,-7 -3,-11l0 -16zm69 0l0 16c0,4 -1,7 -3,11 4,1 9,5 16,12l1 -16 17 0c-8,-12 -22,-19 -31,-23z"/>
  </g>
 </g>
</svg>
