<?xml version="1.0" encoding="UTF-8"?>
<!DOCTYPE svg PUBLIC "-//W3C//DTD SVG 1.0//EN" "http://www.w3.org/TR/2001/REC-SVG-20010904/DTD/svg10.dtd">
<!-- Creator: CorelDRAW X8 -->
<svg xmlns="http://www.w3.org/2000/svg" xml:space="preserve" width="1528px" height="911px" version="1.0" style="shape-rendering:geometricPrecision; text-rendering:geometricPrecision; image-rendering:optimizeQuality; fill-rule:evenodd; clip-rule:evenodd"
viewBox="0 0 1528 911"
 xmlns:xlink="http://www.w3.org/1999/xlink">
 <defs>
  <style type="text/css">
   <![CDATA[
    .str0 {stroke:#E6E6E6;stroke-width:3.54331}
    .fil0 {fill:none}
    .fil10 {fill:#009841}
    .fil12 {fill:#073A7C}
    .fil8 {fill:#073E84}
    .fil52 {fill:#12160B}
    .fil43 {fill:#1A2813}
    .fil30 {fill:#1B3617}
    .fil14 {fill:#203D89}
    .fil51 {fill:#26391A}
    .fil59 {fill:#282E15}
    .fil29 {fill:#2C562C}
    .fil58 {fill:#2D431D}
    .fil62 {fill:#300E0F}
    .fil26 {fill:#344A24}
    .fil23 {fill:#385729}
    .fil50 {fill:#445B29}
    .fil44 {fill:#47652D}
    .fil46 {fill:#476A32}
    .fil35 {fill:#4A7635}
    .fil37 {fill:#534F26}
    .fil47 {fill:#546E2D}
    .fil45 {fill:#567833}
    .fil56 {fill:#668935}
    .fil34 {fill:#689738}
    .fil53 {fill:#758931}
    .fil42 {fill:#779835}
    .fil48 {fill:#794726}
    .fil55 {fill:#79A638}
    .fil20 {fill:#885729}
    .fil57 {fill:#88A935}
    .fil31 {fill:#946D2F}
    .fil19 {fill:#95AA35}
    .fil21 {fill:#96A5AB}
    .fil54 {fill:#97221D}
    .fil5 {fill:#98885A}
    .fil40 {fill:#98B634}
    .fil2 {fill:#A29061}
    .fil17 {fill:#A7B748}
    .fil24 {fill:#A7B757}
    .fil61 {fill:#B08C34}
    .fil32 {fill:#B2924C}
    .fil22 {fill:#B7C632}
    .fil60 {fill:#CAD02C}
    .fil36 {fill:#CD9948}
    .fil25 {fill:#CFB071}
    .fil38 {fill:#D0AE54}
    .fil18 {fill:#D1E4F2}
    .fil28 {fill:#D4963B}
    .fil49 {fill:#D8A648}
    .fil41 {fill:#D8CD92}
    .fil39 {fill:#DCC966}
    .fil15 {fill:#E00613}
    .fil1 {fill:#E21735}
    .fil27 {fill:#E4CB94}
    .fil9 {fill:#E60E29}
    .fil33 {fill:#E8D1AE}
    .fil63 {fill:#EA0A3E}
    .fil7 {fill:#EF7C8D}
    .fil13 {fill:#F20E16}
    .fil6 {fill:#F4F2EC}
    .fil3 {fill:#FAF7F6}
    .fil16 {fill:#FEFEFD}
    .fil4 {fill:white}
    .fil11 {fill:#073A7C;fill-rule:nonzero}
   ]]>
  </style>
 </defs>
 <g id="Capa_x0020_1">
  <metadata id="CorelCorpID_0Corel-Layer"/>
  <rect class="fil0 str0" width="509" height="455"/>
  <rect class="fil0 str0" x="509" width="509" height="455"/>
  <rect class="fil0 str0" x="1018" width="509" height="455"/>
  <rect class="fil0 str0" x="510" y="455" width="509" height="455"/>
  <rect class="fil0 str0" x="1019" y="455" width="509" height="455"/>
  <rect class="fil0 str0" y="456" width="509" height="455"/>
  <g id="_2078972758512">
   <path class="fil1" d="M673 708c23,-1 20,1 22,-7l5 -23c1,-8 4,-24 7,-30l1 8c0,0 0,0 0,0 0,1 0,1 0,1 2,3 0,-1 1,1 0,2 0,2 0,4l10 45 3 1 20 -1 24 -80c-1,-3 1,-2 -2,-3l-19 0c-3,1 -4,9 -4,12 -2,8 -7,33 -9,38l-1 6 -1 2c-2,-5 -11,-50 -11,-56l-2 -2 -21 0 -11 49 -1 5 1 2 -1 2c-2,-1 -1,1 -2,-2 0,-14 -9,-38 -11,-54l-1 -2 -22 0c-1,4 9,36 11,43 2,7 4,14 6,21 2,8 4,18 8,20z"/>
   <path class="fil1" d="M795 692c-3,0 -1,0 -2,-1 -6,-7 -3,-15 5,-18 7,-2 16,-2 22,-6l0 4 0 3c0,8 -2,13 -7,17 -5,3 -14,5 -18,1zm-22 -41l1 0 18 0c1,-5 3,-9 9,-11 6,-1 12,0 16,2l3 4c2,17 -24,6 -42,18 -15,10 -12,35 0,42 13,5 25,7 39,-4 2,-2 1,-2 4,-4l0 4 1 4 3 2 20 -1c2,-1 1,0 2,-2l0 -1 -3 -1c-4,-7 -2,-26 -2,-35 0,-6 0,-12 0,-19 0,-7 -2,-9 -2,-14 -7,-14 -64,-27 -69,15 1,1 -2,1 2,1z"/>
   <path class="fil1" d="M885 632c-1,3 0,1 -3,3l0 -9c-1,-3 2,-1 -3,-2l-18 0 0 80c1,5 -2,3 3,4l19 -1c0,-15 -1,-33 0,-47 1,-9 3,-14 8,-17 5,-4 13,-3 18,0l2 3c5,5 3,35 3,47 0,13 -2,14 3,15l19 -1 0 -56c0,-8 -2,-11 -2,-17 -5,-6 -12,-11 -23,-12 -5,0 -11,0 -16,2 -5,2 -7,5 -10,8z"/>
   <path class="fil1" d="M575 642l36 0c-2,2 0,1 -2,2 -1,3 0,1 -2,3l-34 40c-2,2 0,1 -3,3l0 17c2,1 2,0 3,3l0 -3 1 0 67 0 0 -15c-1,-3 0,-1 -1,-3l-32 0 -4 0 -5 0 12 -14c4,-5 8,-9 12,-14 19,-25 15,-8 16,-35 0,-2 0,-1 -1,-2l-65 0 0 17 2 1z"/>
   <path class="fil2" d="M723 710c0,0 1,1 1,2l23 0 24 -82c-2,-1 2,-1 -3,-1 -4,13 -8,27 -12,41 -2,7 -4,14 -6,21 -1,3 -2,6 -3,10 -3,11 2,9 -24,9z"/>
   <path class="fil3" d="M864 708c0,2 -1,1 1,2 6,0 15,1 21,-1 0,-15 -1,-30 0,-45 0,-14 5,-22 19,-21 0,0 1,0 2,0l1 0c0,0 1,0 1,0 0,0 0,0 0,0 -5,-3 -13,-4 -18,0 -5,3 -7,8 -8,17 -1,14 0,32 0,47l-19 1z"/>
   <path class="fil4" d="M722 708c0,3 -1,1 1,2 26,0 21,2 24,-9 1,-4 2,-7 3,-10 2,-7 4,-14 6,-21 4,-14 8,-28 12,-41 0,-4 1,-2 -2,-2l-24 80 -20 1z"/>
   <path class="fil2" d="M865 710c2,4 0,1 2,2l21 0c3,-33 -10,-73 23,-66l-2 -3c0,0 0,0 0,0 0,0 -1,0 -1,0l-1 0c-1,0 -2,0 -2,0 -14,-1 -19,7 -19,21 -1,15 0,30 0,45 -6,2 -15,1 -21,1z"/>
   <path class="fil3" d="M917 708c0,2 -1,1 1,2l21 0c0,-20 2,-54 -2,-71l-3 -5c0,6 2,9 2,17l0 56 -19 1z"/>
   <path class="fil4" d="M604 689c1,-3 19,-22 22,-26 4,-5 8,-9 11,-13 7,-8 4,-7 5,-21l0 -3 -3 0c-1,27 3,10 -16,35 -4,5 -8,9 -12,14l-12 14 5 0z"/>
   <path class="fil3" d="M673 708c0,3 -1,1 1,2l22 0 12 -54 -1 -8c-3,6 -6,22 -7,30l-5 23c-2,8 1,6 -22,7z"/>
   <path class="fil2" d="M604 689l4 0c7,-9 15,-17 22,-26 15,-19 14,-9 14,-34l-2 0c-1,14 2,13 -5,21 -3,4 -7,8 -11,13 -3,4 -21,23 -22,26z"/>
   <path class="fil2" d="M574 710c2,4 0,1 3,2l68 0c1,-4 0,-8 0,-12 1,-7 0,-5 -2,-8l0 18 -69 0z"/>
   <polygon class="fil4" points="573,710 574,710 643,710 643,692 641,692 641,707 574,707 573,707 "/>
   <path class="fil2" d="M674 710l1 2 23 0 11 -50c0,-2 0,-2 0,-4 -1,-2 1,2 -1,-1 0,0 0,0 0,-1 0,0 0,0 0,0l-12 54 -22 0z"/>
   <path class="fil5" d="M918 710c2,4 0,1 2,2l21 0 0 -58c0,-3 0,-6 -1,-9 -1,-3 -1,-4 -3,-6 4,17 2,51 2,71l-21 0z"/>
   <path class="fil3" d="M844 703c0,-1 1,-1 1,-3l0 -5c-1,-17 2,-48 -4,-58l-1 -2c0,5 2,7 2,14 0,7 0,13 0,19 0,9 -2,28 2,35z"/>
   <path class="fil2" d="M774 651l-1 0 0 3c6,1 0,0 4,2l20 0c2,-12 11,-13 23,-10l-3 -4c-3,2 -8,-2 -15,1 -7,3 -5,7 -9,11l-19 -3z"/>
   <path class="fil2" d="M844 703l3 1c-1,-11 0,-25 0,-36 0,-9 2,-25 -6,-31 6,10 3,41 4,58l0 5c0,2 -1,2 -1,3z"/>
   <path class="fil4" d="M778 706l5 4c7,2 12,4 21,2 8,-2 12,-5 17,-10l0 -4c-3,2 -2,2 -4,4 -14,11 -26,9 -39,4z"/>
   <path class="fil4" d="M793 691c-1,-9 0,-13 8,-15 5,-2 14,-4 19,-5l0 -4c-6,4 -15,4 -22,6 -8,3 -11,11 -5,18z"/>
   <path class="fil2" d="M793 691c1,1 -1,1 2,1 -1,-8 1,-11 7,-14 5,-2 13,-3 18,-4l0 -3c-5,1 -14,3 -19,5 -8,2 -9,6 -8,15z"/>
   <path class="fil3" d="M731 680l-10 -51 -2 -3c0,6 9,51 11,56l1 -2z"/>
   <path class="fil2" d="M783 710c0,0 0,0 0,0l4 3c13,5 25,0 35,-7l-1 -4c-5,5 -9,8 -17,10 -9,2 -14,0 -21,-2z"/>
   <path class="fil4" d="M774 651l19 3c4,-4 2,-8 9,-11 7,-3 12,1 15,-1 -4,-2 -10,-3 -16,-2 -6,2 -8,6 -9,11l-18 0z"/>
   <path class="fil3" d="M682 680l3 0 -1 -2 -10 -49c-2,-4 0,-2 -3,-3 2,16 11,40 11,54z"/>
   <path class="fil2" d="M731 680l1 -6c-2,-8 -3,-16 -5,-24l-3 -17c-2,-5 -2,-4 -3,-4l10 51z"/>
   <path class="fil2" d="M684 678l1 -5c-2,-5 -3,-16 -5,-22 -1,-4 -1,-8 -2,-12 -1,-3 -1,-9 -4,-10l10 49z"/>
   <path class="fil6" d="M578 644l31 0c2,-1 0,0 2,-2l-36 0 1 2 2 0z"/>
   <path class="fil2" d="M607 647c2,-2 1,0 2,-3l-31 0c0,4 -1,2 1,3l28 0z"/>
   <path class="fil3" d="M825 708c0,2 -1,1 1,2l23 0 0 -3 -2 -2c-1,2 0,1 -2,2l-20 1z"/>
   <path class="fil3" d="M885 632l0 -5 -3 -1 0 9c3,-2 2,0 3,-3z"/>
   <path class="fil7" d="M685 680l-3 0c1,3 0,1 2,2l1 -2z"/>
  </g>
  <g id="_2078972755024">
   <path class="fil8" d="M196 249c5,-3 28,-7 30,5l-2 -2c-8,-4 -19,-3 -28,-3zm124 -16c1,-1 1,0 2,-1 0,0 0,0 0,0 5,-3 27,-6 28,5 -9,-6 -19,-5 -30,-4zm-31 4c2,-1 17,-11 22,-14 5,-3 6,-2 9,-8 8,-20 12,-36 17,-16 3,8 6,19 8,27 -23,-5 -35,6 -54,19 -25,16 -20,1 -17,-14 1,-7 3,-14 4,-21 1,-6 5,-16 0,-20 -5,-4 -14,0 -20,0 -2,10 -4,20 -6,30 -1,5 -4,26 -5,29l-12 -31c-4,-10 -7,-22 -19,-22 -7,0 -19,1 -23,5 -5,4 -8,10 -11,16l-17 37c4,-2 10,-7 14,-9 19,-12 12,-2 25,-33 1,-3 2,-5 5,-6 3,5 5,12 6,18 2,4 5,15 5,19 -4,-1 -7,-2 -11,-2 -24,0 -60,41 -62,23 -1,-5 6,-33 7,-40 2,-9 7,-21 -11,-19 -2,1 -8,1 -10,2l-8 47c-2,10 -8,28 11,28 11,0 25,-7 35,-11 12,-5 42,-16 56,-4 2,2 2,6 13,-1 4,-2 5,-3 7,-7l1 1c9,13 32,0 42,-4 15,-6 47,-19 61,-6 2,3 2,4 6,3 7,-2 15,-6 15,-15 0,-6 -10,-30 -13,-37 -6,-16 -7,-24 -27,-21 -8,1 -14,2 -18,7 -3,3 -23,45 -25,50z"/>
   <path class="fil9" d="M410 207c-7,-1 -6,-1 -13,1 -6,1 -10,-2 -6,-6 6,-6 18,-2 19,5zm2 -3c-2,-1 -2,-2 -3,-3 -6,-7 -15,-8 -18,-13 -1,-2 -3,-5 -1,-8 5,-6 21,8 22,24zm-27 -29c1,-4 7,-3 10,-1 -5,-1 -7,-2 -10,1zm42 10l0 -2c-5,-3 -10,6 -15,7 -5,-6 -7,-12 -17,-18 -7,-3 -18,-2 -10,15 2,4 5,7 2,12 -1,3 -5,7 -2,11 4,5 13,-1 20,-1 4,-1 3,0 6,1 3,-1 7,-7 9,-11 5,-7 6,-11 7,-14z"/>
   <path class="fil8" d="M393 254c6,-7 15,-20 18,-30 -1,1 -3,4 -4,6 -18,34 -50,54 -89,62 -37,8 -88,2 -126,-8 -5,-1 -11,-3 -16,-4l22 7c8,2 16,4 24,6 58,10 131,11 171,-39z"/>
   <path class="fil8" d="M56 261c2,-1 3,-3 5,-4 19,-12 48,0 50,-1 -12,-6 -32,-11 -46,-4 -3,2 -8,6 -9,9z"/>
   <path class="fil10" d="M410 214c0,0 1,1 -2,1l-9 -1c5,-1 7,-1 11,0zm-5 -4c-4,0 -8,2 -10,5 -1,1 0,-1 -1,1 6,0 12,3 16,2 3,-1 4,-2 6,-4 2,-1 3,-2 4,-5 -8,4 -7,1 -15,1z"/>
   <g>
    <path class="fil11" d="M364 183l0 -6 3 0c0,0 1,0 1,0 0,0 1,0 1,1 0,0 0,0 0,1 0,0 0,0 0,1 -1,0 -1,0 -1,0 0,0 0,1 0,1 0,0 1,0 1,1l1 1 -2 0 -1 -1c0,-1 0,-1 0,-1 0,0 -1,0 -1,0 0,-1 0,-1 0,-1l-1 0 0 3 -1 0zm1 -3l1 0c1,0 1,-1 1,-1 1,0 1,0 1,0 0,0 0,0 0,0 0,0 0,-1 0,-1 0,0 -1,0 -1,0 0,0 0,0 -1,0l-1 0 0 2z"/>
    <path class="fil12" d="M367 174c3,0 5,3 5,6 0,3 -2,6 -5,6 -4,0 -6,-3 -6,-6 0,-3 2,-6 6,-6zm0 1c2,0 4,2 4,5 0,3 -2,5 -4,5 -3,0 -5,-2 -5,-5 0,-3 2,-5 5,-5z"/>
   </g>
  </g>
  <path class="fil13" d="M751 297c0,-6 0,-32 0,-39 2,-1 5,-3 7,-4 4,-1 20,-9 22,-10 0,4 0,35 0,40 -2,1 -5,3 -7,4 -2,1 -5,2 -7,3 -3,1 -13,6 -15,6zm-20 -87l0 -12c-2,0 -8,3 -9,4l1 12 8 -4zm95 22l0 23c2,-1 7,-3 9,-4l0 -23c-2,0 -8,3 -9,4zm-45 -56l0 22c2,-1 8,-4 9,-5l0 -23 -8 4c-1,0 -1,0 -1,2zm-20 86l0 23c2,0 3,-1 5,-2 4,-2 5,-2 5,-4l-1 -21c0,0 -8,4 -9,4zm-114 -25c0,-4 2,-20 3,-25 1,-8 7,-22 10,-29 3,-5 2,-3 6,-9 1,-2 3,-5 5,-7 3,-3 4,-5 7,-8 5,-5 12,-11 18,-15 6,-4 11,-7 18,-9 1,-1 3,-2 4,-2 4,-1 7,-3 11,-4 18,-3 31,-4 49,-1 5,1 11,3 16,5 1,1 3,1 5,2 6,3 12,6 17,9 3,2 5,4 8,6 3,2 5,4 7,6 9,9 18,21 23,32 6,13 10,29 10,44 0,16 -2,31 -9,46 -2,5 -6,12 -9,17 -4,6 -14,17 -19,21 -9,7 -14,12 -25,17 -3,1 -6,2 -9,3 -4,2 -7,3 -11,4 -2,0 -3,1 -5,1 -2,0 -4,1 -6,1 -2,0 -4,0 -6,1 -7,0 -13,0 -20,-1 -4,0 -7,-1 -11,-1 -7,-2 -15,-4 -21,-7 -5,-2 -14,-7 -18,-9 -2,-2 -5,-4 -7,-6l-11 -10 -6 -7c-3,-2 -11,-17 -13,-21 -3,-5 -8,-20 -9,-25 0,-2 0,-4 -1,-6 0,-4 0,-9 -1,-13zm100 123l0 0c1,-1 2,-2 3,-3 1,-1 2,-2 3,-2 1,-1 2,-2 3,-3 1,-1 2,-2 3,-2l7 9c1,0 2,-1 2,-2 1,-2 2,-2 3,-3 1,-2 3,-5 4,-6 3,1 6,7 9,9 2,-3 5,-11 6,-12 2,0 4,2 6,3 1,1 4,3 5,3 2,-2 2,-9 4,-12 2,0 5,1 7,2 1,0 5,2 6,2 2,-3 1,-10 2,-13 4,1 8,4 12,4l0 -14c5,0 10,2 14,2l-2 -13 13 0 -3 -14c3,-1 8,-1 12,-2 0,-2 -1,-5 -2,-6 -1,-2 -2,-5 -3,-7 3,-1 9,-2 13,-4 -1,-3 -6,-9 -7,-11 3,-2 9,-3 11,-5 -1,-2 -7,-10 -8,-11 1,-1 4,-2 5,-3 2,-1 4,-2 6,-4 -1,-1 -1,-1 -2,-2 -1,-1 -2,-2 -3,-2 -2,-2 -4,-4 -5,-5 2,-1 9,-7 10,-9l-8 -5c-5,-3 -3,-2 3,-10 1,-1 1,-2 2,-3 -2,-1 -4,-1 -6,-2 -1,-1 -5,-2 -6,-3 0,-1 2,-5 3,-6 1,-1 3,-5 3,-7 -2,0 -4,-1 -6,-2 -2,0 -5,-1 -7,-2 1,-2 5,-8 6,-11 -2,0 -12,-1 -13,-2 0,0 0,0 0,-1l2 -5c0,-1 2,-4 2,-6l-14 -1c1,-3 3,-8 3,-12l-15 1 1 -13c-5,0 -9,3 -14,3l0 -12 -14 4c-1,-3 -1,-8 -3,-12 -2,1 -11,6 -12,7l-4 -12c-2,1 -5,3 -6,4 -1,1 -5,4 -6,4 -1,-2 -2,-3 -3,-5 -1,-2 -3,-4 -4,-5 -3,2 -6,8 -9,9 -3,-2 -5,-7 -8,-10 -1,2 -3,4 -4,6 -2,2 -4,4 -5,6 -2,-2 -7,-7 -9,-9 -2,2 -4,9 -6,11 -4,-1 -8,-4 -12,-6 -1,3 -2,10 -3,12 -4,-1 -9,-4 -12,-5 -1,4 -2,9 -3,13 -4,0 -8,-3 -13,-3l-1 14c-3,-1 -9,-3 -13,-2l2 13 -13 0c0,4 2,10 2,14 -2,0 -11,1 -12,2 0,4 3,9 4,13 -2,1 -4,1 -6,2 -2,0 -4,1 -6,1 1,5 6,11 6,15 -3,1 -8,1 -11,2 1,4 7,10 8,13 -1,1 -1,1 -2,1 -3,2 -6,3 -8,5 2,4 7,8 10,11 -3,2 -8,4 -10,6 1,2 6,5 8,7 1,1 2,2 3,3 -1,2 -7,6 -8,9 3,2 9,4 12,6 -1,3 -6,7 -7,10 2,2 10,3 13,5 -1,3 -5,8 -6,11 5,2 10,2 14,4 0,2 -1,4 -1,6 -1,2 -2,4 -2,6 4,1 9,0 13,1l-2 12 14 -1c0,4 -2,8 -2,12 5,0 10,-2 15,-2l1 12c5,0 11,-4 15,-4 1,3 1,10 2,11l13 -6c2,3 3,9 4,11 3,-1 10,-7 12,-8 2,2 4,8 5,11zm36 -77l0 -16c1,-1 11,-6 12,-6l0 8c1,0 5,-2 6,-2l0 -56c1,-1 12,-6 13,-7l0 64 -31 15zm34 -16c0,-7 0,-31 0,-40 2,-1 5,-2 7,-4l14 -6c1,-1 6,-3 7,-3 1,8 1,31 0,39l-21 11c-1,0 -6,3 -7,3zm-135 3l0 -9c0,-2 3,-3 7,-5 8,-4 18,-8 26,-12l20 -9c2,-1 12,-6 13,-6l0 55c-3,1 -7,3 -10,4 1,2 12,16 14,19 2,0 3,-1 5,-2l13 -6c5,-2 14,-7 19,-9l18 -8c3,-2 6,-3 9,-5 2,0 8,-4 10,-4l0 11c-2,0 -4,1 -5,2l-55 26c-4,1 -7,3 -10,4 -4,2 -7,4 -11,5 0,0 -1,-2 -2,-3l-2 -4c-2,-2 -3,-4 -5,-6l-9 -14c-1,0 -3,1 -4,1l0 16c-2,1 -12,6 -14,6l0 -55c3,-2 11,-5 14,-7l0 28c2,0 8,-3 10,-4 2,-1 1,-1 1,-3 0,-9 1,-21 0,-29 -1,0 -24,10 -26,11l-13 7c-2,1 -11,5 -13,5zm63 -116c1,0 10,-5 11,-5l0 69c-1,1 -10,5 -11,6l0 -70zm14 -6c1,-1 10,-5 11,-5l0 69c-3,2 -8,3 -11,5l0 -69zm-39 47c4,-3 10,-6 15,-8 2,-1 5,-3 7,-3l0 23c-3,2 -7,3 -10,5l-8 4c-2,0 -2,0 -2,2l1 7c1,0 7,-3 8,-4l0 -3c1,-1 10,-5 11,-5l0 12c-2,1 -5,2 -7,3 -3,2 -22,11 -23,11l0 -41 8 -3zm53 -26c2,-1 27,-13 28,-13l0 4c0,11 1,28 0,37l-21 10c-1,1 -6,3 -7,3l0 -41zm-83 20l0 19c2,0 17,-8 19,-8 0,10 0,27 0,39 0,2 -1,2 -3,3l-25 11c-1,1 -3,2 -4,2l0 -19c1,-1 11,-6 13,-6l0 11c2,-1 5,-2 7,-4l0 -23c-1,0 -9,4 -10,5l-10 4c0,-8 0,-26 0,-35 0,-3 1,-2 3,-3l24 -12c2,0 3,-1 5,-2l0 20c-2,1 -10,5 -12,5l0 -10c-2,0 -6,3 -7,3zm-35 48c1,6 1,13 3,22 3,9 3,11 7,19 3,6 3,6 7,12 1,1 2,2 3,3 8,12 14,17 25,25 6,5 18,10 26,12 25,8 49,6 73,-5 6,-3 11,-6 16,-9 2,-2 5,-4 7,-6l12 -13c5,-5 11,-17 14,-23 4,-9 10,-32 8,-42 0,-4 0,-8 -1,-12 -1,-5 -3,-16 -5,-20 -1,-3 -2,-6 -4,-9 -1,-2 -2,-6 -4,-8 -5,-7 -10,-15 -17,-21 -10,-9 -10,-9 -22,-16 -3,-1 -5,-3 -8,-4 -2,0 -3,-1 -5,-2 -3,-1 -10,-3 -14,-4 -11,-2 -23,-3 -34,-1 -14,2 -26,6 -38,13 -6,4 -12,9 -18,14 -5,4 -8,8 -11,13 -1,2 -2,3 -3,4 -3,4 -7,11 -9,16 -1,5 -2,4 -3,9 -1,4 -2,7 -3,10 0,4 -2,20 -2,23z"/>
  <g id="_2078972755152">
   <path class="fil14" d="M1335 204c-1,11 -1,29 -1,40l15 0c1,-9 0,-36 0,-45 2,1 8,8 10,9 8,11 15,21 20,36l12 0 0 -66 -14 1c0,9 0,21 0,31l-4 -5c-4,-6 -8,-10 -13,-15 -3,-3 -6,-6 -10,-9 0,-1 -1,-1 -2,-2 -2,-1 -11,-1 -13,-1l0 26zm-45 -13c11,-5 24,1 27,16 2,6 0,13 -4,18 0,1 -3,4 -4,5 -11,7 -24,2 -29,-10 -4,-11 0,-23 10,-29zm37 38c2,-2 4,-10 4,-14 2,-15 -6,-30 -20,-36 -13,-6 -27,-2 -35,7 -9,8 -12,20 -10,32 2,11 9,20 20,25 14,7 32,1 41,-14zm-148 -24c1,3 4,9 4,12l-24 0c2,-6 8,-22 12,-26 2,2 7,13 8,14zm-39 39l15 0 2 -15 29 1 2 14 15 0c0,-18 -8,-44 -19,-59 -1,-1 -4,-6 -6,-7 -2,0 -10,0 -13,0 -2,2 -10,13 -12,17 -6,13 -12,33 -13,49zm122 -28l0 -38 -14 0 0 32 -8 -10c-6,-8 -11,-13 -19,-19 0,0 -1,-1 -2,-2 -1,-1 -2,-1 -4,-1 -3,0 -6,0 -9,0l0 66 14 0 0 -45c3,2 12,12 15,16l0 1c0,0 1,0 1,0 1,2 2,4 4,7 1,2 2,4 3,6 2,4 5,10 6,15l13 0 0 -28zm-162 -27c8,0 15,0 21,5 5,3 8,9 8,18 0,16 -13,22 -30,21l1 -44zm-16 -11l0 0c3,4 1,58 1,67 12,2 29,2 40,-4 5,-3 9,-7 13,-12 3,-5 5,-11 5,-18 1,-16 -7,-25 -17,-30 -12,-6 -28,-5 -42,-3zm325 27c1,-8 9,-16 17,-16 9,0 16,7 16,16l-33 0zm46 8l0 -8c0,-2 0,-6 -3,-12 -4,-11 -13,-17 -27,-17 -17,1 -28,12 -30,28 -3,19 4,35 17,40 8,3 18,3 26,0 6,-2 12,-7 16,-13 -2,0 -14,-3 -14,-3 -1,0 -2,2 -3,2 -9,7 -26,4 -28,-13l46 0c0,-2 0,-3 0,-4z"/>
   <path class="fil15" d="M1169 256c0,2 17,11 20,13 7,4 15,8 23,11 60,25 104,11 155,-20 1,-1 4,-3 5,-4 0,-1 -1,-2 -2,-2 -2,0 -36,25 -96,26 -30,0 -57,-5 -84,-16 -4,-2 -8,-4 -11,-6 -2,-1 -7,-4 -9,-4 -1,0 -2,1 -1,2z"/>
  </g>
  <g id="_2079870277312">
   <path class="fil16" d="M106 655c0,-1 0,-1 0,-1l-1 -1c0,0 0,-2 1,-2 1,-16 1,-19 -1,-21 -5,-4 -12,-6 -18,-6 -3,0 -6,1 -9,3 -5,2 -7,5 -10,8 -5,6 -9,19 -11,27 -3,21 -1,64 22,74 9,4 20,2 27,-6l0 0c12,13 17,4 25,5 2,0 4,0 6,0 6,0 4,0 5,2 0,13 -5,21 9,21 5,0 11,1 14,-2 3,-4 1,-9 1,-14l0 -8c15,3 16,-2 23,-8 -1,10 7,9 18,9 3,0 4,-2 6,-3 9,4 17,5 26,-2 2,-1 3,-4 5,-6 3,5 3,8 8,10 7,3 11,0 16,-2 4,3 3,3 9,3l26 0c4,0 5,3 11,2 5,-1 4,-2 11,-2 4,0 9,-1 12,-1 3,0 8,1 12,1 7,0 5,-1 9,-4 4,5 7,4 14,4 5,0 8,0 10,-4 0,-1 0,-2 0,-2l1 -2c3,5 11,8 19,8 26,-1 27,-39 24,-58 -1,-2 -2,-5 -3,-7 0,0 0,-1 0,-1 -5,-10 -15,-17 -27,-15 -4,0 -7,2 -11,6 -5,5 -3,3 -6,6 -2,-8 -5,-16 -8,-23 -3,-6 -7,-11 -12,-17 -28,-26 -50,-39 -89,-45 -27,-4 -54,-3 -80,5 -38,10 -71,33 -84,69z"/>
   <path class="fil16" d="M191 636c-1,1 -1,2 -2,3 -1,2 -1,2 -2,3l0 3c-1,6 1,9 3,13 0,2 0,0 -1,1 -1,4 -1,5 -1,4 0,0 0,0 0,0 -4,-5 -10,-9 -18,-8 -8,1 -4,4 -10,2 -3,-2 -8,-1 -12,-1 -4,0 -6,2 -7,5 -2,-4 -9,-7 -15,-8 -9,0 -13,2 -19,5 1,-3 5,-13 7,-14 0,-4 10,-14 11,-17 2,-2 1,-1 4,-3 1,-1 1,-2 3,-3 0,-1 5,-5 7,-6 0,-2 3,-3 4,-4l4 -3c2,-1 0,0 2,0 1,-2 3,-3 6,-5l2 -1c3,-2 19,-10 23,-10l1 -1c3,-2 22,-6 27,-7 9,-2 20,-3 30,-3 11,0 52,3 57,9l5 1c3,1 6,1 8,3 3,1 15,7 18,9l9 6c2,0 6,4 7,5l2 2c1,0 2,1 2,1 0,0 1,1 1,1 1,1 0,1 1,1 4,3 13,13 16,18 4,7 8,12 10,21 -3,-2 -3,-2 -6,-4 -11,-3 -8,3 -18,2 -11,-1 -13,0 -17,5l-3 -3c-3,-2 -7,-4 -11,-5 -9,-1 -15,4 -18,3 -3,-2 -4,-3 -9,-2 -3,0 -4,2 -7,2 -3,0 -7,0 -10,0 -6,0 -3,1 -9,-1 0,-5 1,-7 -3,-11 -4,-2 -5,-1 -9,0 -4,2 -10,3 -11,8l-1 4c-1,1 -1,1 -2,2 -6,-1 -7,-4 -15,-3 -6,1 -8,4 -11,7l-1 -2c-1,-2 -1,-1 -2,-2 1,-3 2,-4 3,-7 0,-5 1,-11 -4,-13 3,-2 0,0 2,-1 1,0 0,0 0,1l0 -2c-3,0 -2,0 -4,-2 -2,-2 0,0 -3,-1 -3,-1 -7,-1 -10,0 -4,2 -1,2 -4,3z"/>
   <path class="fil17" d="M255 632c2,1 0,0 2,1l1 1c0,2 0,0 -1,1l0 1c0,0 0,1 -1,1 3,-1 5,-1 8,2l2 -3c1,1 4,0 6,3 -2,2 -4,1 -6,2 4,2 4,1 7,1l0 -2 3 2c-1,-3 -1,-2 -2,-4 1,0 2,0 3,0 4,0 -3,1 1,0 2,0 -1,0 1,0 0,0 2,0 3,2 0,0 0,0 1,0 0,0 0,1 0,0 0,0 0,1 0,1l4 -2c-1,2 -1,2 -2,3 0,0 0,1 0,1 0,0 -1,1 -1,1 0,-1 0,0 0,0 -5,-2 -5,1 -9,0 -4,0 -9,0 -12,0 4,4 3,6 3,11 6,2 3,1 9,1 3,0 7,0 10,0 3,0 4,-2 7,-2 5,-1 6,0 9,2 3,1 9,-4 18,-3 4,1 8,3 11,5l3 3c4,-5 6,-6 17,-5 10,1 7,-5 18,-2 0,0 0,0 0,-1 1,-1 1,2 0,-1 0,-2 0,-1 -1,-3l-1 -1c0,-2 0,-1 1,-2 -6,-2 -23,-3 -29,-3 0,0 0,1 0,1 0,3 2,-2 0,1 -1,2 -9,1 -11,1 -4,-1 -3,1 -3,-3 -3,4 -4,2 -9,2 -3,0 -5,2 -9,0 -4,-1 -11,0 -15,0l-5 -2c1,-1 2,0 3,-1 1,0 3,0 3,-1 1,0 1,0 1,0l0 -1c0,0 1,0 1,0 0,0 1,-1 1,-1 0,-1 1,-1 1,-2 -1,0 0,1 0,0 -5,-2 -4,-3 -6,-7l-1 2c-1,4 -2,2 -4,5 -3,-2 -1,-2 -4,-1l-3 0c-2,-1 -1,-2 -4,-2 -1,1 -1,1 -2,3l-2 -1c-3,-2 -4,-1 -7,-2 0,0 0,0 0,0 0,0 0,2 -1,0 -1,-1 0,-1 1,-2 0,0 -1,-1 -1,-2l0 0 -2 0 -1 -3c-1,1 -2,2 -4,1 1,2 1,1 3,3 0,0 0,0 0,0l-2 1c0,-1 -1,0 -1,0z"/>
   <path class="fil18" d="M183 594l0 1c0,0 5,2 6,2 2,1 4,2 6,3l6 3c8,0 24,-10 33,-9 5,0 12,-1 16,1 3,0 21,7 24,8 1,-1 0,0 1,-1 3,-2 0,0 2,0 2,0 0,0 2,0 1,-1 0,-1 2,-1 0,-3 2,-9 4,-11 -2,-1 0,0 -2,0 0,0 -1,-1 -1,-1 -21,-2 -21,-3 -46,-3l-19 1c-7,1 -22,4 -27,5 1,1 2,1 3,2 -3,0 -8,0 -10,0z"/>
   <path class="fil19" d="M304 632c0,-3 -1,-6 3,-5 0,2 0,3 0,5l-3 0zm-2 -6c-1,3 0,3 -1,7 -3,4 -2,-1 -5,4 0,1 -1,0 0,0l5 1c2,1 2,1 4,2l0 4c0,0 -1,-2 6,-1 -2,2 -1,2 -5,2 4,2 6,0 9,0 5,0 6,2 9,-2 0,4 -1,2 3,3 2,0 10,1 11,-1 2,-3 0,2 0,-1 0,0 0,-1 0,-1 6,0 23,1 29,3 -1,1 -1,0 -1,2l1 1c1,2 1,1 1,3 1,3 1,0 0,1 0,1 0,1 0,1 3,2 3,2 6,4 -2,-9 -6,-14 -10,-21 0,3 -1,5 -4,2l-1 -4c0,0 0,0 0,0 0,-1 0,-1 0,-1l-1 2c-1,0 -3,2 -4,2 -3,0 -5,1 -8,2 -3,1 0,0 -2,0 -4,0 -5,1 -5,1 -2,-1 -2,1 -2,-1 -3,-2 -2,-1 -3,-4 0,-2 0,-2 0,-4 0,0 0,-1 0,-1 0,-1 -1,-1 -1,-2l-1 1c0,0 -1,0 -1,0l-1 -2c0,2 0,4 0,7l-5 -2c0,-2 1,-2 1,-4 -3,3 -1,0 -4,1l1 2c0,0 0,0 1,0 0,0 0,0 0,0l2 3c-10,-2 -4,1 -7,0 -2,-1 -2,0 -1,-3l-4 5c4,0 2,-2 5,-1l-3 1c0,0 1,2 3,1l-3 1 -2 -2 -2 2c0,-3 0,-2 0,-4l-3 0c0,-1 -1,-1 -1,-3 0,0 0,0 0,0 0,0 0,0 0,-1 0,0 1,0 1,0 2,-3 0,-2 1,-5 4,0 2,0 2,-2 -2,0 -3,1 -5,1 -3,0 -1,0 -5,1z"/>
   <path class="fil20" d="M216 604c-1,0 -13,0 -15,0 1,3 2,0 5,2l1 2c0,0 0,0 0,0 2,3 -1,-3 6,0l0 1c1,-2 -1,-1 2,-2 1,2 1,2 2,2 3,-1 -2,0 1,-1l11 0c3,-1 2,-1 6,-1 0,0 3,1 3,1 2,1 0,-1 1,1 0,1 0,-1 0,-1l19 -1c2,0 1,0 2,1l2 0 1 3 0 4c-1,1 0,1 -1,0 1,3 1,1 0,3 1,2 0,4 0,7 0,0 0,0 0,1l0 4 0 0c1,-3 0,-1 2,-1 2,0 0,-1 0,0 2,1 0,0 2,1l1 -2c0,0 0,0 0,0 1,0 1,0 1,0 0,0 1,0 1,0 -2,-1 -1,0 -2,-1 1,-1 1,0 2,-2 0,0 0,0 0,0 0,-1 0,-1 0,-1l-1 0c0,0 0,1 0,1 -1,0 0,0 -2,0 -1,-3 -1,-2 1,-3 2,-1 1,-1 4,-1l1 2 2 -1 -1 0c0,-6 2,-5 6,-7 1,-5 1,-5 0,-9 0,-2 1,1 0,-1 -5,-1 -4,-1 -4,-3 -1,1 0,0 -1,1 -3,-1 -21,-8 -24,-8 -1,1 7,3 8,4 3,1 3,1 8,3 1,0 1,0 3,1 -2,1 1,1 -4,1l-9 0c-4,0 -9,0 -13,0 -5,0 -10,0 -14,0 -3,0 -11,0 -13,0z"/>
   <path class="fil21" d="M181 591c3,-1 1,0 2,1l0 2c2,0 7,0 10,0 -1,-1 -2,-1 -3,-2 5,-1 20,-4 27,-5l19 -1c25,0 25,1 46,3 0,0 1,1 1,1 2,0 0,-1 2,0 5,3 1,8 4,11 3,-2 2,-7 3,-12l3 1c-5,-6 -46,-9 -57,-9 -10,0 -21,1 -30,3 -5,1 -24,5 -27,7z"/>
   <path class="fil22" d="M151 637l0 4 -1 3c-2,-1 -1,-1 -1,-3 -6,0 -11,1 -15,1 -2,1 -6,1 -8,1 -3,1 -5,1 -7,2 -1,2 -1,1 -2,3 2,0 2,-1 4,0 4,0 -3,1 10,0 2,0 6,-1 8,-1 8,1 4,0 8,0 4,0 1,2 7,0 10,-3 5,-1 10,-1 1,0 2,-1 4,-1l3 1c3,0 3,-1 3,1l13 -2 0 -3c-1,-1 -1,2 -1,-2 1,-2 0,0 1,-2l-2 1c0,0 0,0 0,0 0,0 0,0 -1,0 -1,1 0,-1 -2,1 3,0 1,0 1,3 -3,0 -4,0 -7,-1 -6,-1 -17,1 -20,0 0,0 0,0 0,0 1,0 1,-1 1,-1l3 -1c0,0 0,0 0,0l1 0c3,-1 5,-5 10,-3 5,2 3,0 6,1 1,0 2,0 4,1 -1,-2 -1,-3 -4,-3l0 -2 -3 2c-1,0 -2,-1 -2,-1 -2,-1 -1,-1 -4,-1 0,-2 0,-1 -1,-3l-2 0 -5 0 -4 0c-2,3 -1,4 -5,6z"/>
   <path class="fil23" d="M285 590c-2,2 -4,8 -4,11 -2,0 -1,0 -2,1 -2,0 0,0 -2,0 -2,0 1,-2 -2,0 0,2 -1,2 4,3 1,2 0,-1 0,1 1,4 1,4 0,9l0 0c1,-1 0,-1 2,-1 1,0 1,1 2,1 0,0 0,0 0,0 0,1 -2,0 -1,2 0,2 -2,0 0,1 3,-3 -2,2 1,-1 1,-2 -1,0 1,-2l5 4c0,-2 1,-1 1,-2 0,0 1,0 1,0 0,0 0,0 0,0l0 -1c0,0 1,0 1,0 0,0 0,0 0,0l4 3c-1,1 -1,1 -1,1 3,1 2,1 1,-1l0 0c5,-1 1,1 5,-3 -1,-3 0,-1 -1,-2 -1,-2 -1,-1 -1,-2l-2 2c-1,-1 -1,0 -4,-1l2 -3c0,-1 0,-1 0,-3 4,-2 2,-1 7,-1l-1 -2c-1,-2 2,-1 -2,-2 2,-2 3,2 6,0 -1,-3 0,0 -3,-2l-2 -2c-1,0 -1,0 -1,-1 -1,0 -1,0 -1,-1 -1,-1 -1,1 -2,-2 1,1 1,0 2,1 0,0 0,0 0,0l2 1 0 -5 -5 -1 -3 -1c-1,5 0,10 -3,12 -3,-3 1,-8 -4,-11z"/>
   <path class="fil24" d="M148 656c1,-1 4,-1 5,-2 1,-1 1,1 0,-1 -4,-4 0,4 -1,-1 2,0 1,1 3,0 0,0 1,0 2,0 4,-1 8,-1 12,-3 0,0 0,0 0,0l3 -1c2,0 1,1 2,-1 0,-2 0,-1 -3,-1l-3 -1c-2,0 -3,1 -4,1 -5,0 0,-2 -10,1 -6,2 -3,0 -7,0 -4,0 0,1 -8,0 -2,0 -6,1 -8,1 -13,1 -6,0 -10,0 -2,-1 -2,0 -4,0 1,-2 1,-1 2,-3l-5 0c-1,-1 -1,2 0,-1 -2,1 -6,11 -7,14 6,-3 10,-5 19,-5 6,1 13,4 15,8 1,-3 3,-5 7,-5z"/>
   <path class="fil25" d="M233 619c3,4 2,-1 2,5 -4,-2 -1,-2 -5,-1 1,-2 0,-1 2,-3 -3,0 -1,1 -2,1l-1 0c-2,0 -1,-1 -1,-2 0,-3 2,1 3,-3l-4 0c-2,2 -1,1 -1,4 3,2 -1,1 2,2l3 3c0,0 0,1 0,0l-3 1c0,1 1,2 0,4l2 0c2,-2 0,-1 1,0 2,-2 5,-3 6,1 1,1 0,8 0,10l-6 -1 1 1c2,1 2,1 6,1 0,-5 0,-7 0,-12l1 3c1,-1 1,0 2,-1l2 0c0,0 0,0 0,0l1 -1c2,-2 0,0 1,-1 1,-2 -1,-1 2,-1 -2,1 -1,1 -2,3l2 1 0 -5c2,-1 0,-1 2,1 5,-5 5,1 5,6 0,0 0,0 0,0 1,0 1,-1 1,-1 0,-1 0,-2 0,-2 0,0 1,-1 1,0l2 -1c0,0 0,0 0,0 -2,-2 -2,-1 -3,-3 2,1 3,0 4,-1l1 3 2 0 0 -4c0,-1 0,-1 0,-1 0,-3 1,-5 0,-7l-2 0c0,0 0,1 1,2 0,0 0,0 0,0l-1 -2 -3 1c-2,1 -3,1 -3,1 0,0 0,0 0,0l1 4c-3,-1 -6,-2 -9,-1 -5,0 -2,-1 -8,-1 0,-2 1,-2 1,-2 -1,-2 0,-2 0,-5 -4,1 -2,0 -5,0 -4,-1 -1,-2 -2,2 1,1 1,0 2,0 0,0 1,0 1,0l1 1c0,0 -3,0 -3,1z"/>
   <path class="fil26" d="M139 615c-2,1 -7,5 -7,6 -2,1 -2,2 -3,3 -3,2 -2,1 -4,3 3,5 1,8 4,10l4 2c0,-2 0,-1 1,-2 -1,-1 2,-1 -1,-1 0,-2 0,-2 -2,-4l0 -1c1,-2 1,-5 3,-4 0,-2 0,-3 0,-3 0,0 0,-1 0,-1 0,0 0,0 0,0 2,-4 -1,-1 2,-2 3,7 1,3 2,7l5 -1c1,1 0,1 0,2 1,3 1,3 2,6 2,1 1,1 4,1 0,1 0,3 0,3 1,2 0,1 2,2l0 -4c0,-2 0,-4 -2,-5l1 -2c0,-3 1,-3 2,-4 -1,-1 -1,-1 -2,-2 -2,-3 -1,-1 -2,-2 -1,0 -1,0 -1,0l-4 -4 2 -1c0,-1 1,-3 -2,-3l-5 1c0,1 0,2 1,0z"/>
   <path class="fil25" d="M214 651c-1,3 -2,4 -3,7 1,1 1,0 2,2l1 2c3,-3 5,-6 11,-7 8,-1 9,2 15,3 1,-1 1,-1 2,-2l1 -4 -5 -3c-1,-1 -1,-2 -2,-4 0,0 1,-1 1,-1 -2,0 -2,0 -3,0l-7 2c-4,1 -7,1 -12,1 0,0 0,1 0,2l-1 2z"/>
   <path class="fil16" d="M166 684c-9,4 -6,27 4,24 8,-3 6,-30 -4,-24z"/>
   <path class="fil27" d="M174 647c-1,2 0,1 -2,1l-3 1c0,0 0,0 0,0 -4,2 -8,2 -12,3 -1,0 -2,0 -2,0 -2,1 -1,0 -3,0 1,5 -3,-3 1,1 1,2 1,0 0,1 -1,1 -4,1 -5,2 4,0 9,-1 12,1 6,2 2,-1 10,-2 8,-1 14,3 18,8 0,0 0,0 0,0 0,1 0,0 1,-4 1,-1 1,1 1,-1 -2,-4 -4,-7 -3,-13l-13 2z"/>
   <path class="fil28" d="M216 604c2,0 10,0 13,0 4,0 9,0 14,0 4,0 9,0 13,0l9 0c5,0 2,0 4,-1 -2,-1 -2,-1 -3,-1 -5,-2 -5,-2 -8,-3 -1,-1 -9,-3 -8,-4 -4,-2 -11,-1 -16,-1 0,0 0,0 0,0 0,0 -1,0 -1,0l3 2c-1,0 -1,0 -3,0 0,4 -1,0 1,3 -4,-1 -3,-1 -4,0 3,2 2,1 3,1 1,0 1,0 3,1 -2,0 -6,1 -7,-1 0,0 0,0 0,0l0 2c-3,0 -3,0 -6,1l3 0c-2,0 -3,0 -5,0 -3,1 -2,1 -5,1z"/>
   <path class="fil29" d="M157 602c0,3 0,3 1,6 2,7 -1,1 0,7 0,0 -1,0 -1,0 -1,0 -1,0 -2,0 1,0 1,1 2,1 1,1 0,1 1,2 2,0 3,-1 5,-1l4 0c-1,1 -2,3 -2,4l-2 -2c1,2 0,1 0,2l-4 -1c0,0 0,0 0,1 -1,1 -3,3 -1,5 0,1 0,1 1,2 -1,1 1,1 -2,1 0,0 0,0 0,0 0,0 1,1 1,1 0,0 0,0 0,0 0,0 0,0 0,0 2,1 1,0 2,1l5 0c1,-2 1,-4 1,-7 1,-3 2,-3 5,-4 1,-2 -1,2 1,-3 -2,0 -2,1 -3,-1 0,0 0,0 0,0 0,0 0,0 0,-1 0,1 0,-2 0,2 0,1 0,1 0,3l-1 -2c-2,-2 0,-2 -2,-4 1,3 0,2 -1,2l-5 -3c2,-1 6,-1 8,0l2 2c1,-3 0,-1 2,-3l-1 -3c-4,-1 1,0 -6,-1 0,-3 0,-3 -1,-5 -1,-2 -1,-2 0,-4 2,0 1,1 3,2l-1 -3c4,0 2,1 4,-1 1,0 1,0 1,1 0,0 4,-6 6,-1l4 -4c0,0 0,0 1,0l-2 -1c-4,0 -20,8 -23,10z"/>
   <path class="fil30" d="M301 604c1,0 1,0 2,1l2 3c2,-1 7,-1 9,1 4,0 6,0 9,1l2 1 2 -3c0,-1 0,1 1,-1 -2,-1 -1,-1 -2,-1 -2,0 -1,0 -2,1l2 -4c-3,-2 -15,-8 -18,-9 -1,2 -3,2 -4,2 -2,1 -3,0 -4,0l-2 -1c0,0 0,0 0,0 -1,-1 -1,0 -2,-1 1,3 1,1 2,2 0,1 0,1 1,1 0,1 0,1 1,1l2 2c3,2 2,-1 3,2 -3,2 -4,-2 -6,0 4,1 1,0 2,2z"/>
   <path class="fil31" d="M303 622l-1 4c4,-1 2,-1 5,-1 2,0 3,-1 5,-1 0,2 2,2 -2,2l3 0c0,0 0,0 0,0l3 1 0 4 2 0 0 1c-1,3 -1,2 1,3 3,1 -3,-2 7,0l-2 -3c0,0 0,0 0,0 -1,0 -1,0 -1,0l-1 -2c3,-1 1,2 4,-1 0,2 -1,2 -1,4l5 2c0,-3 0,-5 0,-7 0,-3 -1,-3 0,-4l1 -1c-1,-2 -3,-4 -3,-5 -2,-2 -2,-1 -4,-3l-2 0c-3,1 -1,1 -4,4 -4,5 -4,4 -10,4l-1 0c-1,0 -3,-1 -4,-1z"/>
   <path class="fil32" d="M207 608c0,3 0,3 0,5 -5,0 -9,0 -13,0l3 0 9 1c0,3 0,1 -1,3 -1,2 0,1 -1,2l0 1c0,1 0,1 0,1l-3 2c0,0 -1,0 -1,0l-1 0 7 0c1,4 -1,1 -3,4 0,0 0,0 0,0l0 1c-1,-2 0,0 -1,-3 -1,0 -3,1 -4,1l-1 3 -1 -2c-1,-2 1,0 -1,-2 -1,0 -2,1 -5,1 1,1 2,2 2,2l-4 -1 -1 -2 -10 0 0 4c2,0 2,1 4,0 0,0 0,0 0,0l8 -1c0,2 0,1 -1,3 3,2 0,1 3,-1 2,-1 -1,-1 2,-1 2,1 0,0 2,1 2,1 1,2 6,0l0 -1c3,0 0,2 4,0 -2,-1 1,-4 2,-1 0,5 -1,0 -2,4 0,0 0,0 0,0l0 1c3,1 1,-1 3,1 2,2 1,2 4,2l0 2 1 -1c1,-2 0,0 0,-1 -1,-4 -2,1 -4,-3 1,0 3,0 3,0l2 -1c0,0 0,0 0,0 -1,-4 0,1 -3,-5l-1 -3 2 2c2,0 2,0 3,0 0,0 1,0 1,0l3 0c0,-3 0,-1 -2,-2l-1 0c0,0 -1,-1 -1,-1 -3,0 0,0 -1,1 -1,2 1,1 -2,1l0 -3c-2,2 0,1 -4,0 1,-2 1,-1 0,-2 0,0 -1,0 -1,0 0,0 0,0 -1,0 2,-2 3,-1 5,-2 -1,-2 -1,-1 -2,-3l2 0c-1,-1 -1,-2 -2,-3 -1,-1 -1,-1 -2,-1l2 0c0,0 -1,-2 -1,-2l5 -1c-7,-3 -4,3 -6,0 0,0 0,0 0,0z"/>
   <path class="fil33" d="M213 637c2,1 2,1 3,3l0 -2c0,0 0,0 0,-1l-1 -1c0,0 1,1 2,1 2,0 0,0 1,-1l1 1c2,3 2,2 4,2 2,0 1,0 2,0 -2,4 -1,1 -10,3l-2 -4c0,0 0,-1 0,-1zm0 0l-1 1c0,-1 1,-1 0,-1 -2,1 1,-1 -2,1 5,2 4,8 4,13l1 -2c0,-1 0,-2 0,-2 5,0 8,0 12,-1l7 -2c1,0 1,0 3,0 2,0 4,-2 5,-3 -1,0 -2,0 -3,-1l2 0c0,0 0,-1 0,-1 0,0 0,0 0,0l-1 0c-1,-1 0,0 -1,-1l0 -5 -1 -3c0,5 0,7 0,12 -4,0 -4,0 -6,-1l-1 -1 0 -10c-1,-1 1,-2 -1,0 0,0 0,0 0,0l-1 10c0,0 1,1 1,1l-3 0c0,-1 2,-1 -1,-2 -4,-2 3,1 -1,-1l-2 -1c-2,2 -2,2 -4,2 1,-3 0,-1 2,-3 0,0 0,0 1,-1 0,-1 0,-6 0,-6l0 7 -7 0c0,-2 -1,-6 1,-8 1,0 0,0 1,-1 1,-1 -2,0 2,-1l-3 0c0,0 -1,0 -1,0 -1,0 -1,0 -3,0l-2 -2 1 3c3,6 2,1 3,5 0,0 0,0 0,0l-2 1c0,0 -2,0 -3,0 2,4 3,-1 4,3 0,1 1,-1 0,1z"/>
   <path class="fil34" d="M186 606c-1,1 0,0 -1,1l1 2c0,0 -1,0 -1,0 0,1 0,0 1,1 0,0 0,2 0,2l-1 1 9 0c4,0 8,0 13,0 0,-2 0,-2 0,-5l-1 -2c-3,-2 -4,1 -5,-2 0,0 -2,1 0,-1l-6 -3c-1,1 -2,-2 0,2l-4 -1c2,2 1,1 2,4 -2,-1 -2,-1 -3,-2 1,1 2,1 0,3 -2,1 -2,1 -3,-1l-1 1z"/>
   <path class="fil35" d="M171 620l1 -1 2 2 -2 2c2,1 0,1 2,2l1 -1c0,-1 -2,0 2,-4 2,-1 3,-2 5,-4 -5,-1 -4,-2 -4,-2 0,-4 3,-3 3,-3 -1,0 -1,1 -3,0 1,1 1,-2 1,1l-1 0c-2,4 -2,2 -2,2 0,-1 0,0 -1,0l0 -3c1,-3 3,1 3,-5 -3,1 -2,2 -4,3 2,-2 1,1 1,-3 0,0 0,0 0,0l-1 0c-1,1 -6,-1 -6,-3 0,0 0,0 -1,0 4,0 3,1 5,2 0,-4 0,-3 -2,-5 0,0 0,0 0,-1l1 -1c0,-1 0,-1 -1,-1 -2,2 0,1 -4,1l1 3c-2,-1 -1,-2 -3,-2 -1,2 -1,2 0,4 1,2 1,2 1,5 7,1 2,0 6,1l1 3c-2,2 -1,0 -2,3l-2 -2c-2,-1 -6,-1 -8,0l5 3c1,0 2,1 1,-2 2,2 0,2 2,4l1 2c0,-2 0,-2 0,-3 0,-4 0,-1 0,-2 0,1 0,1 0,1 0,0 0,0 0,0 1,2 1,1 3,1 -2,5 0,1 -1,3z"/>
   <path class="fil36" d="M218 608l4 1c3,1 5,1 5,2 2,1 1,0 0,1 0,0 0,0 0,0 0,1 0,1 0,1l-1 4c0,0 0,-1 0,-1l2 -2c2,-2 -1,-1 2,-1 1,1 1,-1 -1,2 1,0 2,0 3,1 0,2 0,0 -1,2l0 1 2 0c0,-1 3,-1 3,-1l-1 -1c0,0 -1,0 -1,0 -1,0 -1,1 -2,0 1,-4 -2,-3 2,-2 3,0 1,1 5,0 0,3 -1,3 0,5 3,1 -1,1 1,0l1 -2c0,0 1,0 1,0 0,0 0,0 0,0 0,-3 1,-3 -1,-4 0,-1 1,-1 2,-3 0,0 0,0 0,0l0 -1c0,0 1,0 1,0 0,0 0,0 0,0 0,0 2,-1 3,-1 4,0 2,1 5,2 -2,-2 -1,0 -2,-3 3,0 5,1 5,1 2,0 0,0 2,-1l2 5c-4,-1 -1,-2 -4,-1 0,0 0,1 0,1 -1,1 -1,-1 -1,1 0,1 1,1 2,1l-1 -1c0,0 0,-1 0,-1 0,0 0,0 0,0l1 1c2,0 2,-1 5,-1 -3,1 -2,-1 -3,3 3,0 3,-1 5,-1l0 -4 -3 1c-1,-2 -2,-1 -1,-3 0,-1 0,-1 1,-1 -1,-1 0,-1 -2,-1l-19 1c0,0 0,2 0,1 -1,-2 1,0 -1,-1 0,0 -3,-1 -3,-1 -4,0 -3,0 -6,1l-11 0z"/>
   <path class="fil19" d="M114 644c-1,3 -1,0 0,1l5 0c2,-1 4,-1 7,-2 2,0 6,0 8,-1 1,-2 -2,2 1,-1 1,-1 1,-3 1,-3l-3 1 -4 -2c-3,-2 -1,-5 -4,-10 -1,3 -11,13 -11,17z"/>
   <path class="fil37" d="M340 626c2,-2 0,-2 3,-2l0 4c3,1 1,1 3,0 -1,1 -1,1 -2,2l15 2 0 2c0,0 0,0 0,1 0,0 0,0 0,0l1 4c3,3 4,1 4,-2 -3,-5 -12,-15 -16,-18 -1,1 0,1 -2,0 -3,0 -3,-1 -4,3 -2,4 -2,-3 -2,4z"/>
   <path class="fil38" d="M214 624c1,-1 -2,-1 1,-1 0,0 1,1 1,1l1 0c2,1 2,-1 2,2 -4,1 -1,0 -2,1l3 1c1,2 1,4 1,7l-6 0 1 -7c-2,2 -1,6 -1,8l7 0 0 -7c0,0 0,5 0,6 -1,1 -1,1 -1,1 -2,2 -1,0 -2,3 2,0 2,0 4,-2l2 1c4,2 -3,-1 1,1 3,1 1,1 1,2l3 0c0,0 -1,-1 -1,-1l1 -10c0,0 0,0 0,0l-2 0c1,-2 0,-3 0,-4l3 -1c0,1 0,0 0,0l-3 -3c-2,1 -6,1 -7,1 -3,0 -4,-1 -7,0l0 1z"/>
   <path class="fil39" d="M201 603c-2,2 0,1 0,1 2,0 14,0 15,0 3,0 2,0 5,-1 2,0 3,0 5,0l-3 0c3,-1 3,-1 6,-1l0 -2c0,0 0,0 0,0 1,2 5,1 7,1 -2,-1 -2,-1 -3,-1 -1,0 0,1 -3,-1 1,-1 0,-1 4,0 -2,-3 -1,1 -1,-3 2,0 2,0 3,0l-3 -2c0,0 1,0 1,0 0,0 0,0 0,0 -9,-1 -25,9 -33,9z"/>
   <path class="fil40" d="M340 626l1 2c0,1 0,3 0,4 0,1 0,2 0,3 0,1 0,0 0,1 -1,3 -1,3 -2,5 0,0 1,-1 5,-1 2,0 -1,1 2,0 3,-1 5,-2 8,-2 1,0 3,-2 4,-2l1 -2 0 -2 -15 -2c1,-1 1,-1 2,-2 -2,1 0,1 -3,0l0 -4c-3,0 -1,0 -3,2z"/>
   <path class="fil26" d="M289 628c0,0 -2,1 -2,1 0,2 1,2 2,3l1 -2c2,4 1,5 6,7 3,-5 2,0 5,-4 1,-4 0,-4 1,-7l1 -4 0 0c-2,1 -1,3 -2,2 0,0 0,0 0,0 -2,-3 -1,-3 -1,-4 -2,1 -1,2 -3,2 -4,1 -2,-1 -2,-2 -1,1 -2,2 -3,2 0,0 0,0 0,0 0,1 0,1 0,1l-1 0c0,3 0,3 1,5l-3 0z"/>
   <path class="fil41" d="M225 621l-8 0c0,-4 -2,-11 3,-11 6,-1 5,7 5,11zm-14 -3c1,-2 0,-1 1,-2 1,3 0,2 2,2l-1 0c0,0 0,0 0,1 0,0 1,0 1,2 -1,0 -1,0 -1,0 -1,0 -2,0 -2,-1 0,0 0,-2 0,-2zm0 -3l-2 0c1,2 1,1 2,3 -2,1 -3,0 -5,2 1,0 1,0 1,0 0,0 1,0 1,0 1,1 1,0 0,2 4,1 2,2 4,0l0 3c3,0 1,1 2,-1l0 -1c3,-1 4,0 7,0 1,0 5,0 7,-1 -3,-1 1,0 -2,-2 0,-3 -1,-2 1,-4l4 0c-1,4 -3,0 -3,3 0,1 -1,2 1,2l1 0c1,0 -1,-1 2,-1 -2,2 -1,1 -2,3 4,-1 1,-1 5,1 0,-6 1,-1 -2,-5l-2 0 0 -1c1,-2 1,0 1,-2 -1,-1 -2,-1 -3,-1 2,-3 2,-1 1,-2 -3,0 0,-1 -2,1l-2 2c0,0 0,1 0,1l1 -4c0,0 0,0 0,-1 0,0 0,0 0,0 1,-1 2,0 0,-1 0,-1 -2,-1 -5,-2l-4 -1c-3,1 2,0 -1,1 -1,0 -1,0 -2,-2 -3,1 -1,0 -2,2 2,0 1,0 2,1 0,5 0,4 -2,6 -1,-1 -1,-1 -2,-1z"/>
   <path class="fil19" d="M239 633l0 5c1,1 0,0 1,1l1 0c0,0 0,0 0,0 0,0 0,1 0,1l-2 0c1,1 2,1 3,1 -1,1 -3,3 -5,3 0,0 -1,1 -1,1 1,2 1,3 2,4l5 3c1,-5 7,-6 11,-8 -1,-1 0,-1 0,-2l1 -1 -2 0c-3,0 -6,-1 -9,0l-2 -2c-2,-3 2,1 -1,-1 -1,-1 -1,0 -2,-1 0,0 1,-1 2,-1 1,-1 0,0 1,-1 -4,0 -1,1 -3,-1 3,0 3,0 4,0 1,1 1,0 1,2l3 -1 0 -2 -2 -1c1,-2 0,-2 2,-3 -3,0 -1,-1 -2,1 -1,1 1,-1 -1,1l-1 1c0,0 0,0 0,0l-2 0c-1,1 -1,0 -2,1z"/>
   <path class="fil31" d="M177 629l0 5 0 2c3,-1 11,0 14,0 3,-1 0,-1 4,-3 3,-1 7,-1 10,0l0 -1c0,0 0,0 0,0 1,-4 2,1 2,-4 -1,-3 -4,0 -2,1 -4,2 -1,0 -4,0l0 1c-5,2 -4,1 -6,0 -2,-1 0,0 -2,-1 -3,0 0,0 -2,1 -3,2 0,3 -3,1 1,-2 1,-1 1,-3l-8 1c0,0 0,0 0,0 -2,1 -2,0 -4,0z"/>
   <path class="fil28" d="M185 623c3,1 5,0 7,0 1,0 5,0 7,0l1 0c0,0 1,0 1,0l3 -2c0,0 0,0 0,-1l0 -1c1,-1 0,0 1,-2 1,-2 1,0 1,-3l-9 -1 -2 2c0,0 0,0 -1,0l-7 1c0,1 -2,-2 0,1l1 1c-2,0 -1,0 -2,-1l-1 0c4,1 2,0 8,1 0,1 -1,1 -1,1 -3,1 -2,0 -5,1 -1,2 -1,2 -2,3z"/>
   <path class="fil36" d="M303 617c0,3 -1,2 0,5l0 0c1,0 3,1 4,1l1 0c6,0 6,1 10,-4 3,-3 1,-3 4,-4l2 0 0 0c-1,-1 -1,-1 -3,-1 -4,0 -16,-1 -19,0 1,3 0,1 1,3z"/>
   <path class="fil42" d="M187 642c1,-1 1,-1 2,-3 1,-1 1,-2 2,-3 -3,0 -11,-1 -14,0 3,0 3,1 4,3 -2,-1 -3,-1 -4,-1 -3,-1 -1,1 -6,-1 -5,-2 -7,2 -10,3l-1 0c0,0 0,0 0,0l-3 1c0,0 0,1 -1,1 0,0 0,0 0,0 3,1 14,-1 20,0 3,1 4,1 7,1 0,-3 2,-3 -1,-3 2,-2 1,0 2,-1 1,0 1,0 1,0 0,0 0,0 0,0l2 -1c-1,2 0,0 -1,2 0,4 0,1 1,2z"/>
   <path class="fil42" d="M155 603c1,1 1,0 1,1l-1 1c-1,2 0,-1 0,1 0,0 0,1 0,1 -2,-1 -2,-1 -4,0 2,2 2,0 2,5 4,-1 2,1 1,3l-2 -3c-1,1 1,1 -2,1l1 1 0 0c2,1 1,0 2,1 0,1 0,1 0,2 0,1 0,0 0,2 0,0 -1,0 -1,1l0 0c2,3 1,4 3,5 -1,3 0,1 -2,3 1,0 2,1 2,1 1,1 -1,0 1,2l4 0c-1,-1 0,0 -2,-1 0,0 0,0 0,0 0,0 0,0 0,0 0,0 -1,-1 -1,-1 0,0 0,0 0,0 3,0 1,0 2,-1 -1,-1 -1,-1 -1,-2 -2,-2 0,-4 1,-5 0,-1 0,-1 0,-1l4 1c0,-1 1,0 0,-2l2 2c0,-1 1,-3 2,-4l-4 0c-2,0 -3,1 -5,1 -1,-1 0,-1 -1,-2 -1,0 -1,-1 -2,-1 1,0 1,0 2,0 0,0 1,0 1,0 -1,-6 2,0 0,-7 -1,-3 -1,-3 -1,-6l-2 1z"/>
   <path class="fil43" d="M281 636c3,-1 1,-1 4,1 2,-3 3,-1 4,-5 -1,-1 -2,-1 -2,-3 0,0 2,-1 2,-1l-2 -1 -6 0c1,-3 1,-2 2,-3 1,-1 0,0 0,-1 3,1 2,1 4,-1l-3 0c-2,-1 0,-1 -1,-1 -1,1 0,0 -1,1 0,-3 0,-1 1,-3 -2,-1 -2,0 -4,-1l0 1c-2,1 3,0 -1,0l-1 1c1,1 1,4 0,5 -1,3 0,1 -3,1 1,1 1,0 1,2 0,1 0,1 0,1l-1 1c4,0 -1,-1 4,-2 -1,2 1,1 -2,2l1 2c0,0 0,0 0,0 1,3 -1,-1 0,1 2,-1 1,-1 4,0l0 3z"/>
   <path class="fil44" d="M331 623l-1 1 4 0 -1 5c0,1 1,1 1,2 0,0 0,1 0,1 0,2 0,2 0,4 3,1 4,0 2,-3l5 -1c-1,3 -1,1 0,4 0,-1 0,0 0,-1 0,-1 0,-2 0,-3 0,-1 0,-3 0,-4 -2,2 1,0 -3,1 -3,1 -1,1 -2,0 0,0 -2,2 3,-1 -1,-3 2,-2 -2,-2 0,-1 1,-1 2,-1 2,0 1,0 1,0 0,0 0,-1 0,-1l0 0c0,-1 -1,-1 -1,-1 0,0 0,-1 0,-1 -2,-2 0,-1 -3,-2 2,-1 1,-1 2,-3 3,1 0,1 3,0l1 -1c2,0 0,1 2,0l-2 -2c-1,2 0,1 -6,-2 0,3 0,2 -3,3 1,3 1,4 1,8l-3 0z"/>
   <path class="fil41" d="M244 621c0,-4 -1,-11 4,-11 5,0 4,6 4,11l-8 0zm-5 -1c0,0 -1,0 -1,2 6,0 3,1 8,1 3,-1 6,0 9,1l-1 -4c0,0 0,0 0,0 0,0 1,0 3,-1l-2 -2c2,-1 3,2 3,-2l-2 0c-1,0 -2,0 -2,-1 0,-2 0,0 1,-1 0,0 0,-1 0,-1 3,-1 0,0 4,1l-2 -5c-2,1 0,1 -2,1 0,0 -2,-1 -5,-1 1,3 0,1 2,3 -3,-1 -1,-2 -5,-2 -1,0 -3,1 -3,1 0,0 0,0 0,0 0,0 -1,0 -1,0l0 1c0,0 0,0 0,0 -1,2 -2,2 -2,3 2,1 1,1 1,4 0,0 0,0 0,0 0,0 -1,0 -1,0l-1 2c-2,1 2,1 -1,0z"/>
   <path class="fil44" d="M256 637l-1 2c-1,-1 0,-1 0,-1 -1,1 0,0 -2,1l2 2 -1 1c0,1 -1,1 0,2 4,-1 5,-2 9,0 3,0 8,0 12,0 0,-2 0,-2 -2,-2 -3,0 -3,1 -7,-1 2,-1 4,0 6,-2 -2,-3 -5,-2 -6,-3l-2 3c-3,-3 -5,-3 -8,-2z"/>
   <path class="fil16" d="M321 698c-4,0 -7,0 -9,3 -2,3 -2,7 0,9 6,6 11,-6 9,-12z"/>
   <path class="fil45" d="M295 620c0,1 -2,3 2,2 2,0 1,-1 3,-2 0,1 -1,1 1,4 0,0 0,0 0,0 1,1 0,-1 2,-2 -1,-3 0,-2 0,-5 -1,0 -1,-8 -1,-9 2,-1 0,0 5,0 3,1 5,1 7,1 -2,-2 -7,-2 -9,-1l-2 -3c-1,-1 -1,-1 -2,-1l1 2c-5,0 -3,-1 -7,1 0,2 0,2 0,3l-2 3c3,1 3,0 4,1l2 -2c0,1 0,0 1,2 1,1 0,-1 1,2 -4,4 0,2 -5,3l0 0c1,2 2,2 -1,1z"/>
   <path class="fil46" d="M171 598c3,0 1,0 2,1 -2,-1 2,-2 2,-2 0,9 0,0 0,9l1 -3c0,3 2,2 5,2 0,-1 -1,-1 0,-1 2,-1 -2,-1 0,0 0,0 0,0 0,0 3,0 1,-2 3,0 0,1 1,1 1,2 0,0 0,-1 0,1 1,-1 0,0 1,-1 -1,-2 -1,-3 0,-4 -2,-1 -1,-1 -3,-3l0 1c0,0 -1,0 -1,0 2,-2 2,1 1,-3 0,-1 -1,-1 0,-2l0 -1 0 -2c-1,-1 1,-2 -2,-1l-1 1 2 1c-1,0 -1,0 -1,0l-4 4c-2,-5 -6,1 -6,1z"/>
   <path class="fil40" d="M303 617c-1,-2 0,0 -1,-3 3,-1 15,0 19,0 0,-4 0,-1 2,-4 -3,-1 -5,-1 -9,-1 -2,0 -4,0 -7,-1 -5,0 -3,-1 -5,0 0,1 0,9 1,9z"/>
   <path class="fil47" d="M145 617l-2 1 4 4c0,0 0,0 1,0 1,1 0,-1 2,2 1,1 1,1 2,2 -1,1 -2,1 -2,4l-1 2c2,1 2,3 2,5 4,-2 3,-3 5,-6 -2,-2 0,-1 -1,-2 0,0 -1,-1 -2,-1 2,-2 1,0 2,-3 -2,-1 -1,-2 -3,-5l0 0c0,-1 1,-1 1,-1 0,-2 0,-1 0,-2 0,-1 0,-1 0,-2 -1,-1 0,0 -2,-1 0,2 0,2 -2,3l-1 0c0,0 0,1 0,1 -1,0 -1,0 -2,0 -1,-1 0,0 -1,-1z"/>
   <path class="fil48" d="M262 630c0,1 1,2 1,2 -1,1 -2,1 -1,2 1,2 1,0 1,0 0,0 0,0 0,0 3,1 4,0 7,2l2 1c1,-2 1,-2 2,-3 0,0 0,-1 0,-1l-2 -4c-1,-2 -1,-3 0,-6l-1 -2c-3,0 -2,0 -4,1 -2,1 -2,0 -1,3 2,0 1,0 2,0 0,0 0,-1 0,-1l1 0c0,0 0,0 0,1 0,0 0,0 0,0 -1,2 -1,1 -2,2 1,1 0,0 2,1 0,0 -1,0 -1,0 0,0 0,0 -1,0 0,0 0,0 0,0l-1 2c-2,-1 0,0 -2,-1 0,-1 2,0 0,0 -2,0 -1,-2 -2,1z"/>
   <path class="fil49" d="M182 616c-2,2 -3,3 -5,4 -4,4 -2,3 -2,4l2 -1 8 0c1,-1 1,-1 2,-3 3,-1 2,0 5,-1 0,0 1,0 1,-1 -6,-1 -4,0 -8,-1l1 0c1,1 0,1 2,1l-1 -1c-2,-3 0,0 0,-1l7 -1c1,0 1,0 1,0l2 -2 -3 0 -9 0c-2,2 -1,2 -3,3z"/>
   <path class="fil40" d="M136 634l-2 3c-1,1 -1,0 -1,2l3 -1c0,0 0,2 -1,3 -3,3 0,-1 -1,1 4,0 9,-1 15,-1 0,2 -1,2 1,3l1 -3c-2,-1 -1,0 -2,-2 0,0 0,-2 0,-3 -3,0 -2,0 -4,-1l-5 -2c0,0 1,0 -1,0 0,0 1,0 -1,1l-1 0c0,0 -1,0 -1,0z"/>
   <path class="fil43" d="M324 615l0 0c2,2 2,1 4,3 0,1 2,3 3,5l3 0c0,-4 0,-5 -1,-8 3,-1 3,0 3,-3 6,3 5,4 6,2 -1,-1 -5,-5 -7,-5 -1,2 0,0 -2,2l-1 -2c1,1 0,2 0,2 -1,0 -2,-4 -4,1l-1 3c0,-1 0,-1 -1,-1 -1,0 0,0 -1,0 -1,0 -1,0 -1,0 0,0 0,0 0,1z"/>
   <path class="fil50" d="M306 645c4,0 3,0 5,-2 -7,-1 -6,1 -6,1l0 -4c-2,-1 -2,-1 -4,-2l-5 -1c0,1 -1,1 -1,2 0,0 -1,1 -1,1 0,0 -1,0 -1,0l0 1c0,0 0,0 -1,0 0,1 -2,1 -3,1 -1,1 -2,0 -3,1l5 2c4,0 11,-1 15,0z"/>
   <path class="fil23" d="M175 606c0,4 1,1 -1,3 2,-1 1,-2 4,-3 0,6 -2,2 -3,5l0 3c1,0 1,-1 1,0 0,0 0,2 2,-2l1 0c0,-3 0,0 -1,-1 2,1 2,0 3,0 0,0 -3,-1 -3,3 0,0 -1,1 4,2 2,-1 1,-1 3,-3l1 -1c0,0 0,-2 0,-2 -1,-1 -1,0 -1,-1 0,0 1,0 1,0l-1 -2c0,-2 0,-1 0,-1 0,-1 -1,-1 -1,-2 -2,-2 0,0 -3,0 0,0 0,0 0,0 -2,-1 2,-1 0,0 -1,0 0,0 0,1 -3,0 -5,1 -5,-2l-1 3z"/>
   <path class="fil51" d="M167 631c1,2 1,1 1,3 3,0 2,0 4,1 0,0 1,1 2,1l3 -2 0 -5 0 -4 0 -2 -2 1 -1 1c-2,-1 0,-1 -2,-2l-3 0c1,6 1,4 -1,7l-1 1z"/>
   <path class="fil52" d="M225 621c0,-4 1,-12 -5,-11 -5,0 -3,7 -3,11l8 0z"/>
   <path class="fil52" d="M244 621l8 0c0,-5 1,-11 -4,-11 -5,0 -4,7 -4,11z"/>
   <path class="fil48" d="M177 623l0 2 10 0 1 2 4 1c0,0 -1,-1 -2,-2 3,0 4,-1 5,-1 2,2 0,0 1,2l1 2 1 -3c1,0 3,-1 4,-1 1,3 0,1 1,3l0 -1c0,0 0,0 0,0 2,-3 4,0 3,-4l-7 0c-2,0 -6,0 -7,0 -2,0 -4,1 -7,0l-8 0z"/>
   <path class="fil34" d="M279 618c2,1 2,0 4,1 -1,2 -1,0 -1,3 1,-1 0,0 1,-1 0,-1 -1,-1 2,-2 0,0 0,1 2,1l3 4c-2,1 -1,1 -4,2l1 1 2 1 3 0c-1,-2 -1,-2 -1,-5l1 0c0,0 0,0 0,-1 0,0 0,0 0,0 1,0 2,-1 3,-2 0,0 0,0 1,-1l-4 -3c0,0 0,0 0,0 0,0 -1,0 -1,0l0 1c0,0 0,0 0,0 0,0 -1,0 -1,0 0,1 -1,0 -1,2l-5 -4c-2,2 0,0 -1,2 -3,3 2,-2 -1,1 -2,-1 0,1 0,-1 -1,-2 1,-1 1,-2 0,0 0,0 0,0 -1,0 -1,-1 -2,-1 -2,0 -1,0 -2,1 2,1 1,0 2,1l-2 2z"/>
   <path class="fil53" d="M274 622l-2 1c-1,3 -1,4 0,6l2 4c0,0 0,1 0,1 3,0 2,1 4,2l3 0 0 -3c-3,-1 -2,-1 -4,0 -1,-2 1,2 0,-1 0,0 0,0 0,0l-1 -2c3,-1 1,0 2,-2 -5,1 0,2 -4,2l1 -1c0,0 0,0 0,-1 0,-2 0,-1 -1,-2 3,0 2,2 3,-1 1,-1 1,-4 0,-5l1 -1c4,0 -1,1 1,0l0 -1c-3,-1 -3,1 -5,4z"/>
   <path class="fil54" d="M231 630l0 10 6 1c0,-2 1,-9 0,-10 -1,-4 -4,-3 -6,-1z"/>
   <path class="fil55" d="M186 606l1 -1c1,2 1,2 3,1 2,-2 1,-2 0,-3 1,1 1,1 3,2 -1,-3 0,-2 -2,-4l4 1c-2,-4 -1,-1 0,-2 -2,-1 -4,-2 -6,-3 -1,0 -6,-2 -6,-2 -1,1 0,1 0,2 1,4 1,1 -1,3 0,0 1,0 1,0l0 -1c2,2 1,2 3,3 -1,1 -1,2 0,4z"/>
   <path class="fil56" d="M134 637l2 -3c1,-3 1,-2 1,-6l6 1c0,-1 1,-1 0,-2l-5 1c-1,-4 1,0 -2,-7 -3,1 0,-2 -2,2 0,0 0,0 0,0 0,0 0,1 0,1 0,0 0,1 0,3 -2,-1 -2,2 -3,4l0 1c2,2 2,2 2,4 3,0 0,0 1,1z"/>
   <path class="fil29" d="M323 610c-2,3 -2,0 -2,4 2,0 2,0 3,1 0,-1 0,-1 0,-1 0,0 0,0 1,0 1,0 0,0 1,0 1,0 1,0 1,1l1 -3c2,-5 3,-1 4,-1 0,0 1,-1 0,-2l1 2c2,-2 1,0 2,-2l-9 -6 -2 4c1,-1 0,-1 2,-1 1,0 0,0 2,1 -1,2 -1,0 -1,1l-2 3 -2 -1z"/>
   <path class="fil45" d="M273 642c2,0 2,0 2,2 4,1 4,-2 9,0 0,0 0,-1 0,0 0,0 1,-1 1,-1 0,0 0,-1 0,-1 1,-1 1,-1 2,-3l-4 2c0,0 0,-1 0,-1 0,1 0,0 0,0 -1,0 -1,0 -1,0 -1,-2 -3,-2 -3,-2 -2,0 1,0 -1,0 -4,1 3,0 -1,0 -1,0 -2,0 -3,0 1,2 1,1 2,4l-3 -2 0 2z"/>
   <path class="fil25" d="M253 641c-2,-4 -2,0 -3,-2 0,0 0,0 -1,0 1,-6 -4,-1 -2,-4l-3 1c0,-2 0,-1 -1,-2 -1,0 -1,0 -4,0 2,2 -1,1 3,1 -1,1 0,0 -1,1 -1,0 -2,1 -2,1 1,1 1,0 2,1 3,2 -1,-2 1,1l2 2c3,-1 6,0 9,0z"/>
   <path class="fil41" d="M247 633l0 2c-2,3 3,-2 2,4 1,0 1,0 1,0 1,2 1,-2 3,2l2 0 -2 -2c2,-1 1,0 2,-1 0,0 -1,0 0,1l1 -2c1,0 1,-1 1,-1l0 -1c1,-1 1,1 1,-1l-1 -1c-2,-1 0,0 -2,-1 0,0 0,1 0,2 0,0 0,1 -1,1 0,0 0,0 0,0l-5 0 0 -6c-2,-2 0,-2 -2,-1l0 5z"/>
   <path class="fil50" d="M149 608l1 1c2,2 -1,-1 0,0l-3 3c-1,1 -1,1 -1,2 5,3 4,1 5,0l-1 -1c3,0 1,0 2,-1l2 3c1,-2 3,-4 -1,-3 0,-5 0,-3 -2,-5 2,-1 2,-1 4,0 0,0 0,-1 0,-1 0,-2 -1,1 0,-1l1 -1c0,-1 0,0 -1,-1 -3,2 -5,3 -6,5z"/>
   <path class="fil57" d="M165 631l2 0 1 -1c2,-3 2,-1 1,-7l3 0 2 -2 -2 -2 -1 1c-3,1 -4,1 -5,4 0,3 0,5 -1,7z"/>
   <path class="fil58" d="M341 628l-1 -2c0,-7 0,0 2,-4 1,-4 1,-3 4,-3 2,1 1,1 2,0 -1,0 0,0 -1,-1 0,0 -1,-1 -1,-1 0,0 -1,-1 -2,-1 -2,1 0,0 -2,0l-1 1c-3,1 0,1 -3,0 -1,2 0,2 -2,3 3,1 1,0 3,2 0,0 0,1 0,1 0,0 1,0 1,1l0 0c0,0 0,1 0,1 0,0 1,0 -1,0 -1,0 -2,0 -2,1 4,0 1,-1 2,2 -5,3 -3,1 -3,1 1,1 -1,1 2,0 4,-1 1,1 3,-1z"/>
   <path class="fil59" d="M312 635c0,2 0,1 0,4l2 -2 2 2 3 -1c-2,1 -3,-1 -3,-1l3 -1c-3,-1 -1,1 -5,1l4 -5 0 -1 -2 0 -3 0 0 -3c-4,2 -2,2 -1,3 0,0 -2,0 -2,0 -1,1 0,0 -1,1 2,0 1,0 3,1 -2,-1 -2,0 -2,1 4,0 1,0 2,1z"/>
   <path class="fil51" d="M139 615c-1,2 -1,1 -1,0l5 -1c3,0 2,2 2,3 1,1 0,0 1,1 1,0 1,0 2,0 0,0 0,-1 0,-1l1 0c2,-1 2,-1 2,-3l0 0c-1,1 0,3 -5,0 0,-1 0,-1 1,-2l3 -3c-1,-1 2,2 0,0l-1 -1c-2,0 0,-1 -2,0l-4 3c-1,1 -4,2 -4,4z"/>
   <path class="fil52" d="M249 629l0 6 5 0c0,-5 0,-11 -5,-6z"/>
   <path class="fil52" d="M216 628l-1 7 6 0c0,-3 0,-5 -1,-7l-3 -1c-1,1 0,1 -1,1z"/>
   <path class="fil25" d="M211 615c1,0 1,0 2,1 2,-2 2,-1 2,-6 -1,-1 0,-1 -2,-1l0 -1 -5 1c0,0 1,2 1,2l-2 0c1,0 1,0 2,1 1,1 1,2 2,3z"/>
   <path class="fil34" d="M171 598l-1 1c0,1 0,1 0,1 2,2 2,1 2,5 -2,-1 -1,-2 -5,-2 1,0 1,0 1,0 0,2 5,4 6,3l1 0c0,0 0,0 0,0 0,-9 0,0 0,-9 0,0 -4,1 -2,2 -1,-1 1,-1 -2,-1z"/>
   <path class="fil50" d="M312 635c-1,-1 2,-1 -2,-1 0,-1 0,-2 2,-1 -2,-1 -1,-1 -3,-1 1,-1 0,0 1,-1 0,0 2,0 2,0 -1,-1 -3,-1 1,-3l0 3 3 0 0 -4 -3 -1c0,0 0,0 0,0l-3 0c-1,3 1,2 -1,5 0,0 -1,0 -1,0 0,1 0,1 0,1 0,0 0,0 0,0 0,2 1,2 1,3l3 0z"/>
   <path class="fil44" d="M283 621c1,0 -1,0 1,1l3 0c-2,2 -1,2 -4,1 0,1 1,0 0,1 -1,1 -1,0 -2,3l6 0 -1 -1c3,-1 2,-1 4,-2l-3 -4c-2,0 -2,-1 -2,-1 -3,1 -2,1 -2,2z"/>
   <path class="fil60" d="M136 634c0,0 1,0 1,0l1 0c2,-1 1,-1 1,-1 2,0 1,0 1,0l5 2c-1,-3 -1,-3 -2,-6l-6 -1c0,4 0,3 -1,6z"/>
   <path class="fil26" d="M334 636c1,3 0,2 3,4 0,2 0,0 2,1 1,-2 1,-2 2,-5 -1,-3 -1,-1 0,-4l-5 1c2,3 1,4 -2,3z"/>
   <path class="fil38" d="M213 637c0,0 0,1 0,1l2 4c9,-2 8,1 10,-3 -1,0 0,0 -2,0 -2,0 -2,1 -4,-2l-1 -1c-1,1 1,1 -1,1 -1,0 -2,-1 -2,-1l1 1c0,1 0,1 0,1l0 2c-1,-2 -1,-2 -3,-3z"/>
   <path class="fil21" d="M300 596c1,0 2,1 4,0 1,0 3,0 4,-2 -2,-2 -5,-2 -8,-3l0 5z"/>
   <path class="fil60" d="M330 628l1 2c0,0 1,0 1,0l1 -1 1 -5 -4 0c-1,1 0,1 0,4z"/>
   <path class="fil40" d="M274 622c2,-3 2,-5 5,-4l2 -2c-1,-1 0,0 -2,-1l0 0c-4,2 -6,1 -6,7l1 0z"/>
   <path class="fil61" d="M256 615l2 0c0,4 -1,1 -3,2l2 2 3 -1 1 2c0,0 0,0 0,0 -1,-1 -1,-2 -1,-2l2 0c1,-2 1,0 0,-3 1,1 0,1 1,0 -2,0 -2,1 -5,1 1,-4 0,-2 3,-3 -3,0 -3,1 -5,1l-1 -1c0,0 0,0 0,0 0,0 0,1 0,1l1 1z"/>
   <path class="fil62" d="M304 632l3 0c0,-2 0,-3 0,-5 -4,-1 -3,2 -3,5z"/>
   <path class="fil27" d="M263 611l-1 -3 -2 0c-1,0 -1,0 -1,1 -1,2 0,1 1,3l3 -1z"/>
   <path class="fil32" d="M211 618c0,0 0,2 0,2 0,1 1,1 2,1 0,0 0,0 1,0 0,-2 -1,-2 -1,-2 0,-1 0,-1 0,-1l1 0c-2,0 -1,1 -2,-2 -1,1 0,0 -1,2z"/>
   <path class="fil63" d="M166 684c10,-6 12,21 4,24 -10,3 -13,-20 -4,-24zm-64 22c-3,0 -11,11 -19,1 -9,-13 -8,-52 5,-55 6,-2 7,2 11,3 1,-1 1,-1 1,-4l1 -17c-4,-1 -11,-7 -20,-3 -19,9 -20,43 -19,61 1,16 6,31 16,38 6,3 15,3 21,-1 3,-1 2,-3 3,-10 0,-4 1,-10 0,-13zm291 -6c-2,-20 13,-24 15,-9 3,20 -13,23 -15,9zm-41 -30c0,-1 0,-3 0,-4 0,-1 0,-2 0,-2l-1 -2c-1,-2 -10,-1 -11,0 -2,2 0,4 0,7l0 60 13 0c1,-8 -5,-48 5,-48 4,0 5,4 5,8 1,8 0,38 0,40 1,0 13,2 14,-1 0,0 -1,-12 -1,-14 0,-14 3,-47 -7,-53 -12,-7 -16,7 -17,9zm-31 28c2,6 -3,18 -9,12 -2,-2 -2,-6 0,-9 2,-3 5,-3 9,-3zm-107 9c0,2 0,16 0,19 2,4 26,11 27,-15 1,-7 0,-15 -3,-21 -2,-2 -3,-4 -7,-6 -3,-1 -6,-2 -4,-6 5,-3 8,3 11,2 2,-4 1,-12 1,-16 -20,-10 -26,5 -25,24 1,12 5,11 12,16 5,4 2,7 -1,7 -5,0 -6,-4 -11,-4zm34 -46l-4 0 0 19 3 1c0,10 0,21 0,31 1,8 3,20 13,17 8,-2 6,-5 7,-16 0,-11 -6,5 -6,-17 0,-5 0,-10 0,-15 9,-1 6,0 6,-10 0,-11 3,-9 -6,-10 0,-13 0,-13 -5,-11 -11,4 -6,0 -8,11zm38 11c-2,-11 3,-10 -9,-10 -3,0 -2,-1 -4,0 -1,3 0,6 0,9l0 49c0,9 -4,10 7,9 2,0 5,1 7,0 1,-3 -2,-36 1,-46 3,-8 7,-4 11,-5 0,0 0,-1 0,0l0 -11c0,-4 1,-7 -4,-8 -6,-1 -9,8 -9,13zm-92 57l11 0c6,0 3,0 3,-13l0 -48c0,-7 2,-6 -10,-6 -7,0 -3,0 -3,13l0 36c0,3 -1,17 -1,18zm4 -91c-10,3 -7,22 5,18 9,-3 7,-21 -5,-18zm-79 64c2,-4 6,-5 10,-3 1,3 0,6 -1,8 -4,10 -11,3 -9,-5zm-9 24c5,7 13,7 16,3 1,-1 2,-2 2,-3l1 -1c0,-1 0,-1 1,-1l0 -1c0,4 0,4 1,5 0,2 -1,1 2,1 1,1 6,1 8,0l0 -49c-1,-8 -3,-15 -8,-19 -6,-4 -15,-2 -21,0l0 16c4,1 5,-3 12,-2 4,1 6,6 5,11 -11,-2 -18,1 -21,11 -2,8 -2,23 2,29zm194 -64c0,3 -2,16 2,16 3,0 5,-4 10,-3 5,1 6,6 5,11 -20,-3 -22,10 -22,27 1,8 3,15 8,18 10,4 14,-7 16,-9l0 7c3,1 9,1 12,0 1,-3 -2,-6 -2,-10 0,-16 3,-51 -8,-58 -5,-3 -15,-3 -21,1zm93 -3c-21,4 -21,47 -12,61 9,15 37,18 37,-29 -1,-16 -7,-35 -25,-32zm-238 9c0,-8 1,-6 -7,-7 -8,0 -5,2 -5,9 1,9 0,44 0,56l0 26c3,1 11,1 14,0l-1 -28c3,2 7,6 13,6 15,-1 17,-26 17,-37 0,-11 -2,-22 -8,-28 -3,-3 -6,-6 -13,-4 -7,2 -6,5 -10,7z"/>
  </g>
 </g>
</svg>
