<?xml version="1.0" encoding="UTF-8"?>
<!DOCTYPE svg PUBLIC "-//W3C//DTD SVG 1.0//EN" "http://www.w3.org/TR/2001/REC-SVG-20010904/DTD/svg10.dtd">
<!-- Creator: CorelDRAW X8 -->
<svg xmlns="http://www.w3.org/2000/svg" xml:space="preserve" width="1528px" height="911px" version="1.0" style="shape-rendering:geometricPrecision; text-rendering:geometricPrecision; image-rendering:optimizeQuality; fill-rule:evenodd; clip-rule:evenodd"
viewBox="0 0 1528 911"
 xmlns:xlink="http://www.w3.org/1999/xlink">
 <defs>
  <style type="text/css">
   <![CDATA[
    .str0 {stroke:#E6E6E6;stroke-width:3.54331}
    .fil0 {fill:none}
    .fil13 {fill:#FEFEFE}
    .fil12 {fill:#858789}
    .fil15 {fill:#0056B8}
    .fil7 {fill:#102A83}
    .fil9 {fill:#1B2678}
    .fil8 {fill:#1B2679}
    .fil3 {fill:#8A222D}
    .fil4 {fill:#8B222D}
    .fil5 {fill:#D70C2D}
    .fil1 {fill:#DD002C}
    .fil2 {fill:#DE002C}
    .fil10 {fill:#E82938}
    .fil6 {fill:white;fill-rule:nonzero}
    .fil11 {fill:url(#id0)}
    .fil14 {fill:url(#id1);fill-rule:nonzero}
   ]]>
  </style>
  <radialGradient id="id0" gradientUnits="userSpaceOnUse" gradientTransform="matrix(-1.01015 -1.01015 1.01015 -1.01015 1305 1229)" cx="763.49" cy="227.75" r="560.787" fx="763.49" fy="227.75">
   <stop offset="0" style="stop-opacity:1; stop-color:#00AFEF"/>
   <stop offset="0.101961" style="stop-opacity:1; stop-color:#316DA7"/>
   <stop offset="0.501961" style="stop-opacity:1; stop-color:#355A9C"/>
   <stop offset="0.74902" style="stop-opacity:1; stop-color:#3B4694"/>
   <stop offset="0.988235" style="stop-opacity:1; stop-color:#2F3165"/>
   <stop offset="1" style="stop-opacity:1; stop-color:#2F3165"/>
  </radialGradient>
  <linearGradient id="id1" gradientUnits="userSpaceOnUse" x1="662.081" y1="316.534" x2="764.6" y2="138.966">
   <stop offset="0" style="stop-opacity:1; stop-color:#3B4694"/>
   <stop offset="0.0117647" style="stop-opacity:1; stop-color:#3B4694"/>
   <stop offset="0.188235" style="stop-opacity:1; stop-color:#3374B8"/>
   <stop offset="0.270588" style="stop-opacity:1; stop-color:#317ABE"/>
   <stop offset="0.54902" style="stop-opacity:1; stop-color:#00AFEF"/>
   <stop offset="0.701961" style="stop-opacity:1; stop-color:#D5EFFC"/>
   <stop offset="1" style="stop-opacity:1; stop-color:#00AFEF"/>
  </linearGradient>
 </defs>
 <g id="Capa_x0020_1">
  <metadata id="CorelCorpID_0Corel-Layer"/>
  <rect class="fil0 str0" width="509" height="455"/>
  <rect class="fil0 str0" x="509" width="509" height="455"/>
  <g id="_2173767369632">
   <path class="fil1" d="M403 275l37 -94c-1,-2 0,-1 -1,-1 0,0 -2,0 -2,0l-345 0c-7,0 -15,0 -23,0l0 96c7,0 15,0 21,0l146 0c28,0 56,0 84,0l80 0c2,0 2,0 3,-1zm-310 -42c1,1 2,3 3,5 2,1 3,2 5,3 3,2 7,4 12,4 5,1 10,0 14,0 1,-1 2,-1 2,-1 1,0 1,0 2,-3 1,-2 2,-4 3,-6 -7,2 -15,4 -22,0 -12,-6 -2,-33 22,-33 7,0 8,2 11,3l4 -8 0 -1c-2,1 -5,-1 -11,-1 -18,-1 -41,9 -45,27 -2,6 0,8 0,11zm72 -18c10,-2 10,6 8,13 -2,5 -6,11 -12,12 -10,1 -11,-6 -8,-14 2,-5 6,-10 12,-11zm-15 -2c-15,9 -19,33 6,33 11,0 18,-3 25,-10 4,-4 9,-13 5,-20 -1,-2 -2,-3 -4,-4 -4,-2 -7,-3 -13,-4 -2,0 -4,0 -7,1 -4,1 -8,2 -12,4zm50 -1l-13 33c14,1 12,2 14,-2l18 -47 -13 0c0,1 -6,16 -6,16zm50 6c0,5 -4,12 -7,16 -8,8 -22,8 -15,-7 2,-5 7,-10 13,-11 4,-1 6,0 9,2zm-16 -8c-5,2 -10,4 -14,9 -10,11 -11,25 4,27 5,1 10,0 15,-2 1,-1 3,-2 4,-2 -2,4 -8,9 -12,10 -7,2 -14,2 -20,0 -1,1 -3,6 -3,7 7,2 15,2 22,1 10,-2 18,-6 22,-15 2,-2 3,-5 4,-8l6 -16c0,-1 0,-1 1,-2 0,-2 3,-7 3,-9l-12 0 -1 2c-6,-4 -12,-4 -19,-2zm64 18c0,2 -2,5 -2,6 -1,3 -2,3 -5,4 -3,1 -10,2 -13,0 -2,-2 -2,-4 0,-6 3,-4 15,-4 20,-4zm-21 -18l-4 8c6,-1 10,-2 16,-2 4,0 13,-1 12,6 -7,0 -32,-4 -37,10 -4,12 8,16 19,14 5,0 6,-1 10,-2l0 2 13 0c0,-5 0,-5 2,-10 1,-4 6,-14 6,-18 -1,-5 -5,-6 -6,-7 -6,-2 -8,-2 -15,-2 -3,0 -6,0 -9,0 -1,0 -6,1 -7,1zm43 0l-1 5 6 0c-2,10 -21,33 5,31 1,0 6,-1 7,-2 0,-1 2,-5 2,-6 -13,3 -11,-1 -5,-15 1,-2 3,-6 4,-8l9 0 2 -6 -9 0 4 -11 -13 2c-1,1 -1,3 -2,5 -2,5 -1,4 -8,4l-1 1zm40 13c2,-7 13,-10 16,-6 2,1 1,4 1,7l-17 -1zm-3 -11c0,1 -2,2 -3,2 -3,3 -6,5 -7,9 -7,11 -2,23 13,25 5,0 11,0 15,-1 4,-1 2,-1 4,-3l2 -6c-5,2 -10,4 -16,3 -5,-1 -8,-5 -7,-11l30 0c1,-4 2,-8 1,-13 -3,-8 -13,-9 -20,-8 -6,1 -7,2 -12,3z"/>
   <path class="fil2" d="M155 238c-1,0 -2,-1 -2,-3 1,-5 3,-9 6,-12 2,-4 6,-6 11,-6 2,0 3,0 3,2 -11,-1 -18,11 -18,19zm10 -23c-6,1 -10,6 -12,11 -3,8 -2,15 8,14 6,-1 10,-7 12,-12 2,-7 2,-15 -8,-13z"/>
   <path class="fil2" d="M230 238c-2,-1 -2,-1 -2,-4 0,-1 1,-3 1,-4 1,-3 3,-5 5,-7 3,-3 11,-7 15,-4l0 1c-7,0 -9,1 -13,5 -3,3 -6,8 -6,13zm20 -20c-3,-2 -5,-3 -9,-2 -6,1 -11,6 -13,11 -7,15 7,15 15,7 3,-4 7,-11 7,-16z"/>
   <path class="fil3" d="M265 220c0,3 -5,15 -7,18 -2,7 -4,12 -8,16 -11,10 -25,10 -39,8l-1 2c9,1 14,3 25,0 12,-2 19,-8 23,-18 2,-5 11,-29 12,-30 0,-1 1,-2 1,-4l-3 1 -3 7z"/>
   <path class="fil4" d="M309 248l-16 0c0,-1 0,0 0,-1 -6,2 -14,3 -20,1 -2,-1 -3,-2 -5,-2 3,6 16,6 25,3 1,1 -1,1 1,1l17 1c0,-4 -2,-4 1,-10 1,-3 2,-6 3,-9 3,-6 5,-13 -1,-17 1,4 3,4 2,9 -1,2 -2,5 -3,7 -2,6 -5,11 -4,17z"/>
   <path class="fil3" d="M221 205c0,-1 1,-2 1,-3l2 -3 -3 0 -10 24c-1,3 -9,24 -10,25l-12 0 0 2 14 0c2,-3 17,-43 18,-45z"/>
   <path class="fil3" d="M144 246c1,0 2,1 4,2 1,1 2,1 4,2 4,1 13,1 18,0 5,-2 9,-4 13,-7 3,-3 6,-7 8,-12 1,-5 1,-12 -3,-15 1,6 4,8 -1,17 -7,13 -24,18 -37,14 -3,-1 -5,-2 -7,-3l1 2z"/>
   <path class="fil4" d="M151 205l1 -2 2 -3 -2 -1c-1,1 -3,6 -5,8 -5,-2 -8,-3 -15,-2 -22,3 -27,26 -20,29 -3,-11 4,-19 10,-22 3,-3 8,-4 12,-5 3,0 6,0 9,0 2,1 4,2 6,2 1,-1 1,-3 2,-4z"/>
   <path class="fil1" d="M279 237c1,-7 10,-6 17,-6 -1,2 -1,2 -3,2 -4,0 -9,0 -11,3l-1 2 -2 -1zm19 -9c-5,0 -17,0 -20,4 -2,2 -2,4 0,6 3,2 10,1 13,0 3,-1 4,-1 5,-4 0,-1 2,-4 2,-6z"/>
   <path class="fil3" d="M389 215c1,3 2,4 2,8 0,3 0,7 -1,9l-30 0c0,2 -1,5 2,6l0 -3 2 -1c8,0 21,1 27,0 3,-4 4,-16 -2,-19z"/>
   <path class="fil4" d="M99 242c3,4 12,7 18,8 4,0 8,0 12,-1 1,0 4,0 5,-1 1,-1 1,-3 2,-4 0,-1 1,-2 1,-3 1,-2 1,-2 0,-3 -2,0 -2,1 -3,3 0,1 -1,4 -2,5 -1,1 -9,2 -12,2 -5,0 -11,-1 -16,-4 -2,-1 -3,-2 -5,-2z"/>
   <path class="fil4" d="M381 246c-1,3 -1,3 -7,4 -3,0 -6,0 -9,0 -8,0 -10,-2 -15,-4 4,6 16,8 26,6 7,-1 6,-1 7,-5 1,-2 3,-5 4,-7 -6,1 -4,5 -6,6z"/>
   <path class="fil1" d="M364 222c1,-2 6,-5 10,-4 2,0 2,0 2,2 -2,0 -3,0 -6,1 -3,1 -1,1 -6,1zm-4 1l17 1c0,-3 1,-6 -1,-7 -3,-4 -14,-1 -16,6z"/>
   <path class="fil3" d="M349 217l-9 0c-2,4 -8,18 -8,21l2 0 8 -19c8,0 4,1 9,-3 1,-1 2,-2 3,-4l-3 0 -2 5z"/>
   <path class="fil3" d="M230 238c0,-5 3,-10 6,-13 4,-4 6,-5 13,-5l0 -1c-4,-3 -12,1 -15,4 -2,2 -4,4 -5,7 0,1 -1,3 -1,4 0,3 0,3 2,4z"/>
   <path class="fil3" d="M155 238c0,-8 7,-20 18,-19 0,-2 -1,-2 -3,-2 -5,0 -9,2 -11,6 -3,3 -5,7 -6,12 0,2 1,3 2,3z"/>
   <path class="fil3" d="M320 246c1,6 18,4 20,3l1 -1c0,0 0,-1 0,-1 1,-1 1,-2 1,-2 1,-2 2,-4 2,-5 -4,1 -3,1 -5,6 0,1 0,1 -5,2 -2,0 -5,0 -8,0 -3,0 -4,-1 -6,-2z"/>
   <path class="fil4" d="M276 221c9,-1 15,-1 24,-1 0,-2 -3,-2 -5,-2 -5,0 -10,0 -14,1 -1,0 -2,0 -3,0 -1,1 -1,1 -2,2z"/>
   <path class="fil4" d="M279 237l2 1 1 -2c2,-3 7,-3 11,-3 2,0 2,0 3,-2 -7,0 -16,-1 -17,6z"/>
   <path class="fil4" d="M364 222c5,0 3,0 6,-1 3,-1 4,-1 6,-1 0,-2 0,-2 -2,-2 -4,-1 -9,2 -10,4z"/>
   <path class="fil4" d="M349 201c-3,0 -3,0 -4,2 0,2 -1,3 -2,5l3 0 3 -7z"/>
   <path class="fil5" d="M398 210c-1,-1 -1,-3 0,-4 2,0 1,0 2,1l0 3c-1,-1 -1,0 -1,-2 -1,1 0,0 -1,1 0,0 0,0 0,0l0 1zm0 -4c-3,1 -2,5 1,4 3,-1 2,-6 -1,-4z"/>
   <path class="fil6" d="M399 205c0,0 1,0 1,0 0,1 1,1 1,2 0,0 1,1 1,1 0,1 -1,1 -1,2 0,0 -1,0 -1,1 0,0 -1,0 -1,0 -1,0 -2,0 -2,0 0,-1 -1,-1 -1,-1 0,-1 0,-1 0,-2 0,0 0,-1 0,-1 0,-1 1,-1 1,-2 0,0 1,0 2,0zm0 1c-1,0 -1,0 -2,0 0,0 0,1 -1,1 0,0 0,1 0,1 0,1 0,1 0,1 1,1 1,1 1,1 1,0 1,1 2,1 0,0 0,-1 1,-1 0,0 0,0 1,-1 0,0 0,0 0,-1 0,0 0,-1 0,-1 -1,0 -1,-1 -1,-1 -1,0 -1,0 -1,0zm-2 4l0 -3 1 0c0,0 1,0 1,0 0,0 0,0 0,0 0,0 1,0 1,0 0,0 0,0 0,0 0,1 0,1 -1,1 0,0 0,0 0,0 0,0 0,0 0,0 0,0 0,1 0,1 0,0 0,0 1,0l0 1 -1 0 0 -1c0,0 0,0 -1,0 0,-1 0,-1 0,-1l0 0 0 2 -1 0zm1 -2l0 0c0,0 1,0 1,0 0,0 0,0 0,0 0,0 0,0 0,-1 0,0 0,0 0,0 0,0 0,0 0,0 0,0 -1,0 -1,0l0 0 0 1z"/>
  </g>
  <g id="_2173767370304">
   <path class="fil7" d="M1331 167c1,6 9,13 11,13 2,0 3,-7 3,-13 0,-3 0,-5 -2,-6 -3,5 -10,7 -12,6zm0 -2c7,0 12,-5 12,-9 0,-2 -1,-4 -3,-4 0,0 0,1 0,2 0,3 -5,6 -10,6 -2,0 -2,2 -2,3 0,1 1,2 3,2zm-1 -7c-1,0 -2,0 -3,-1 0,-1 0,-3 -1,-4 1,1 2,1 3,1 3,0 5,-2 7,-2 1,0 2,1 2,2 0,2 -5,4 -8,4zm-131 46c2,0 1,-12 5,-12 0,0 1,1 1,2 0,3 -2,7 -2,9 0,1 0,1 1,1 1,0 4,-13 6,-13 1,0 1,1 1,1 0,3 -3,11 -3,14 0,0 0,0 0,0 2,0 5,-6 6,-9 0,-2 1,-3 1,-3 1,0 2,1 2,2 0,3 -3,11 -6,16 -2,4 -5,9 -5,12 0,2 0,4 3,6 -4,-1 -6,-1 -7,-4 -6,13 11,11 5,22 -1,-2 -10,-4 -10,-15 0,-10 9,-16 9,-20 0,-1 0,-2 -1,-2 -2,-2 -2,-3 -3,-3 -2,0 -3,2 -1,4 0,1 0,2 0,2 0,2 -2,6 -4,6 -2,0 -3,-4 -3,-11 0,-7 1,-13 3,-13 1,0 1,0 1,0 0,1 0,3 0,5 0,3 0,3 1,3zm90 -57c1,0 1,2 1,3 0,1 0,1 1,1 0,0 1,-3 2,-3 1,0 4,3 9,3 7,0 14,-5 14,-13 0,-9 -6,-14 -14,-14 -4,0 -7,2 -9,2 -1,0 -2,-2 -3,-2 0,0 0,0 0,1 0,1 0,3 -1,3 -1,0 -7,-4 -7,-3 0,2 4,6 4,7 0,1 -4,2 -4,3 0,1 4,1 4,3 0,1 -4,3 -4,4 0,1 4,0 4,2 0,1 -3,5 -3,6 0,0 0,0 0,0 2,0 5,-3 6,-3zm-76 86c0,-1 1,-2 2,-2 2,0 3,1 3,2 0,1 -1,2 -2,2 -1,0 -3,0 -3,-2zm-6 2c0,2 2,4 4,3 1,0 2,0 2,0 0,2 2,3 4,3 2,0 4,-2 4,-4 0,-1 -1,-1 -1,-2l1 0c2,0 3,-2 3,-4 0,-2 -2,-4 -4,-4 -1,1 -1,1 -2,1 0,-1 -2,-3 -4,-3 -2,0 -4,2 -4,5 0,0 1,0 1,1l-1 0c-2,0 -3,2 -3,4zm131 -108c0,1 0,2 1,2 1,0 2,-1 2,-2 0,0 -1,-1 -2,-1 -1,0 -1,1 -1,1zm-33 56c0,1 1,3 2,3 2,0 3,-2 3,-3 0,-1 -1,-2 -3,-2 -1,0 -2,1 -2,2zm0 8c0,1 1,2 3,2 1,0 3,-1 3,-2 0,-2 -2,-3 -3,-3 -2,0 -3,1 -3,3zm-8 5c0,2 1,4 4,4 2,0 4,-2 4,-4 0,-3 -2,-5 -4,-5 -3,0 -4,2 -4,5zm2 -9c0,2 1,3 2,3 1,0 3,-1 3,-3 0,-1 -2,-2 -3,-2 -1,0 -2,1 -2,2zm-8 5c0,1 1,2 2,2 2,0 3,-1 3,-2 0,-1 -1,-2 -3,-2 -1,0 -2,1 -2,2zm6 -14c0,2 2,4 4,4 2,0 4,-2 4,-4 0,-2 -2,-4 -4,-4 -2,0 -4,2 -4,4zm5 -7c0,1 1,2 2,2 1,0 2,-1 2,-2 0,-1 -1,-2 -2,-2 -1,0 -2,1 -2,2zm-11 6c0,1 1,2 2,2 1,0 2,-1 2,-2 0,-2 -1,-3 -2,-3 -1,0 -2,1 -2,3zm0 7c0,2 1,4 3,4 2,0 4,-2 4,-4 0,-2 -2,-3 -4,-3 -2,0 -3,1 -3,3zm-8 4c0,2 2,3 4,3 1,0 3,-1 3,-3 0,-2 -2,-3 -3,-3 -2,0 -4,1 -4,3zm2 -8c0,1 1,2 3,2 1,0 2,-1 2,-2 0,-2 -1,-3 -2,-3 -2,0 -3,1 -3,3zm-8 86c0,2 1,3 3,3 1,0 2,-1 2,-3 0,-1 -1,-2 -2,-2 -2,0 -3,1 -3,2zm-63 -97c0,1 1,2 3,2 1,0 2,-1 2,-2 0,-1 -1,-2 -2,-2 -2,0 -3,1 -3,2zm-3 -5c0,1 1,2 3,2 1,0 2,-1 2,-2 0,-2 -1,-3 -2,-3 -2,0 -3,1 -3,3zm3 57c2,0 4,-1 4,-5l0 -6c0,-3 0,-5 2,-7 0,1 0,2 0,2 0,5 3,9 3,14 0,1 -1,2 -2,2 -2,0 -2,-1 -2,-1 0,0 0,1 0,2 0,1 0,3 3,3 2,0 4,-2 4,-4 0,-5 -4,-11 -4,-17 0,-2 0,-4 1,-5 0,11 10,20 10,25 0,1 -1,2 -2,2 -2,0 -2,-1 -2,-2 0,-1 0,-1 -1,-1 0,0 -1,2 -1,3 0,2 2,4 5,4 3,0 5,-2 5,-5 0,-6 -12,-15 -12,-25 0,-2 0,-5 1,-7 -8,5 -10,12 -10,17 0,5 0,8 -3,8 -1,0 -1,-1 -2,-1 0,0 0,1 0,1 0,2 1,3 3,3zm102 -58c2,0 4,-1 4,-2 0,0 0,0 -1,0 -1,0 -2,-1 -5,-1 -3,0 -5,-1 -5,-1 -1,0 -1,0 -1,0 0,1 3,4 8,4zm-13 -8c0,0 4,1 8,-1 1,-1 1,-1 2,-1 2,0 1,2 3,2 1,0 3,-1 4,-1 2,0 5,6 5,8 0,3 -5,5 -10,5 -8,0 -13,-7 -13,-11 0,0 1,-1 1,-1zm-88 89c-2,0 -5,3 -5,8 0,6 6,15 16,15 9,0 11,-6 11,-10 0,-9 -6,-15 -13,-15 -4,0 -7,2 -7,7 0,3 3,9 10,9 3,0 5,-2 5,-5 0,-2 -2,-6 -6,-6 -1,0 -2,1 -2,2 0,1 2,3 5,3 0,0 1,-1 1,-1 0,1 0,1 0,1 0,1 -1,2 -3,2 -3,0 -6,-2 -6,-6 0,-2 2,-3 5,-3 5,0 8,4 8,9 0,4 -2,7 -7,7 -10,0 -14,-9 -12,-17zm-6 -64c-1,0 -4,2 -4,5 0,2 2,3 4,3 1,0 1,0 2,0 -2,-2 -2,-4 -2,-6 0,-1 0,-2 0,-2zm-14 1c0,0 0,0 0,0 0,3 1,5 3,5 1,0 3,-1 5,-3 -1,0 -2,0 -2,0 -3,0 -5,0 -6,-2zm-2 5c0,4 1,6 3,6 2,0 5,-1 8,-4 -3,1 -4,1 -6,1 -2,0 -4,0 -5,-3zm89 92c3,0 3,0 4,0 0,0 0,0 0,1 0,1 -2,3 -8,3 -3,0 -4,-2 -5,-4 -3,2 -7,4 -12,4 -12,0 -15,-5 -19,-7 -2,-1 -7,1 -13,-6 1,0 2,0 3,0 5,0 8,-2 8,-6 0,-1 0,-2 0,-2 2,1 5,3 6,8 0,1 3,2 4,2 2,0 5,-1 6,-5 7,0 11,-5 12,-10 3,1 6,3 7,4 0,0 2,0 3,0 2,0 4,0 7,1 0,-1 0,-2 1,-2 2,0 1,2 2,3 0,1 2,1 2,2 0,2 -1,2 -2,2 0,0 0,0 -1,0 -1,0 -1,9 -6,9 -3,0 -7,-3 -8,-7 -1,-1 -2,-2 -2,-2 -1,0 -2,0 -3,2 -3,3 -8,6 -15,6 -2,0 -4,0 -4,0 0,0 0,0 0,0 0,0 2,2 6,2 11,0 13,-6 15,-6 0,0 1,0 1,1 2,6 8,7 11,7l0 0zm-33 -118c4,0 5,3 5,7 0,2 0,4 -1,4 -1,0 -1,-1 -1,-2 0,-2 0,-2 -1,-2 -1,0 -1,2 -1,4 0,2 0,3 1,3 1,0 1,0 1,-1 0,3 -2,5 -5,5 -5,0 -7,-6 -7,-9 -3,3 -6,6 -11,6 -5,0 -7,-4 -7,-7 0,-1 0,-4 1,-4 2,0 0,5 3,5 1,0 2,-1 3,-3 0,-1 1,-2 1,-3 0,-2 -1,-3 -2,-3 -1,0 -2,1 -3,2 2,-5 5,-7 9,-7 5,0 7,4 7,9 0,0 0,1 0,2 2,-3 5,-6 8,-6zm-15 -35c0,0 -2,-1 -4,-1 -4,0 -4,3 -6,3 -4,0 -3,-3 -7,-3 -2,0 -4,1 -4,1 0,1 3,1 3,2 0,3 -6,3 -6,4 0,1 0,1 1,1 1,0 3,-1 5,-1 0,0 1,1 1,1 0,2 -3,4 -3,6 0,0 0,0 1,0 1,0 3,-3 5,-3 3,0 1,7 2,7 2,0 1,-7 4,-7 2,0 3,5 5,5 0,0 1,-1 1,-1 0,-1 -2,-4 -2,-5 0,-1 0,-2 1,-2 2,0 4,1 5,1 0,0 0,0 0,-1 0,-1 -5,-3 -5,-4 0,-2 3,-2 3,-3zm84 116c-2,0 -8,9 -13,9 -1,0 -2,-2 -2,-4 0,-1 1,-1 3,-2 10,-2 8,-9 16,-9 5,0 10,3 10,10 0,8 -11,17 -13,17 -1,0 -2,-2 -2,-3 0,0 0,-1 1,-1 6,-2 9,-8 9,-10 0,-1 0,-1 -1,-1 -1,0 -5,9 -10,9 -3,0 -7,-3 -7,-4 0,-2 10,-7 10,-10 0,-1 -1,-1 -1,-1zm6 -4c-1,0 -2,1 -2,2 0,2 2,3 2,3 1,1 1,1 2,1 2,0 3,-1 3,-2 0,-2 -3,-4 -5,-4zm-76 -106c0,1 3,3 5,3 1,0 1,-1 1,-2 0,-2 0,-2 -2,-2 -2,0 -4,0 -4,1zm6 12c0,-4 -10,-10 -10,-13 0,0 0,0 0,0 1,-2 9,-4 9,-5 0,-1 -1,-1 -2,-1 -6,0 -14,2 -14,4 0,2 8,7 8,9 0,1 -1,1 -2,1 -2,0 -6,-2 -8,-2 -1,0 -1,0 -1,1 0,3 3,8 3,10 0,0 0,0 0,0 -1,0 -6,-5 -8,-5 -1,0 -1,0 -1,2l0 2c0,1 0,2 0,2 -2,0 -3,-4 -4,-4 -2,0 -2,7 -3,7 -2,0 -1,-8 -2,-8 -2,0 -4,5 -5,5 -1,0 -1,0 -1,0 0,-2 1,-5 1,-7 0,0 0,-1 -1,-1 -2,0 -6,3 -7,3 -1,0 -1,0 -1,0 0,-2 7,-6 7,-8 0,-2 -9,-1 -9,-3 0,-2 6,-4 6,-6 0,-1 -7,-2 -10,-2 -4,0 -6,0 -6,1 0,2 8,2 8,4 0,1 -8,4 -8,6 0,2 12,0 12,2 0,2 -10,11 -10,14 0,0 0,1 1,1 3,0 11,-6 13,-6 1,0 1,1 1,2 0,1 -1,3 -1,5 0,2 0,2 2,2 2,0 4,-3 5,-3 2,0 1,11 4,11 2,0 3,-12 5,-12 1,0 3,3 4,3 2,0 1,-6 3,-6 2,0 8,7 10,7 1,0 1,0 1,-1 0,-3 -4,-10 -4,-12 0,-1 0,-1 1,-1 2,0 9,3 12,3 1,0 2,-1 2,-1zm80 67c1,-3 2,-5 4,-8 -2,-1 -7,-3 -7,-7 0,-4 5,-7 6,-7 1,0 1,1 1,1 0,3 -1,6 -1,8 0,1 1,3 2,3 1,0 3,-4 3,-7 0,-6 -5,-8 -7,-8 -1,0 -4,2 -11,2 -13,0 -15,-12 -15,-17 0,-1 0,-1 0,-1 0,0 1,2 5,2 2,0 4,-1 7,-1 7,0 10,5 15,11 2,2 9,5 9,12 0,7 -7,10 -9,17 3,0 4,-5 7,-5 1,0 2,1 2,3 0,3 -1,7 -4,9 0,0 0,-1 0,-1 0,-2 -1,-4 -3,-4 -3,0 -4,3 -5,6 -2,-6 -4,-11 -8,-15 -5,-3 -12,-1 -12,-7 0,-2 1,-4 1,-6 0,-1 0,-2 0,-2 5,2 3,6 7,10 2,2 8,5 12,15 0,-1 0,-1 0,-2 0,-9 -12,-17 -13,-21 7,1 8,3 11,12 1,1 3,6 3,8zm-126 -48c0,-1 0,-2 0,-3 0,-3 -1,-7 -5,-7 -2,0 -4,2 -4,4 0,4 5,6 9,6zm-5 15c-2,0 -4,-2 -4,-4 0,-2 1,-3 1,-3 1,0 1,0 1,1 0,2 2,4 4,5 0,0 0,0 0,0 0,1 -1,1 -2,1zm7 -5c0,0 -1,2 -2,2 -2,0 -3,-4 -3,-5 0,-1 0,-2 1,-2 1,0 1,0 1,1 1,0 1,1 1,2 1,1 2,1 2,2zm-2 -7c-1,0 -1,0 -2,0 -2,0 -4,1 -6,2 -6,4 -5,9 -6,10 0,0 0,1 0,1 0,0 1,1 1,1 1,0 1,0 1,0 2,0 3,1 6,1 1,0 3,-1 5,-2 4,-2 5,-7 5,-8 0,-1 0,-1 -1,-2 -1,-1 -1,-1 -1,-2 0,0 -1,0 -2,-1zm6 10c-1,1 -3,4 -3,7 0,3 2,5 5,5 3,0 4,-2 4,-5 0,-3 -3,-6 -6,-7zm-13 -11c0,0 -1,1 -3,1 -3,0 -5,-2 -5,-5 0,-1 1,-3 3,-4 0,0 0,0 0,1 0,3 2,6 5,7zm105 34c0,-1 1,-2 2,-2 1,0 2,1 2,2 0,1 -1,2 -2,2 -1,0 -2,-1 -2,-2zm1 67c1,0 1,1 1,2 0,1 -1,3 -3,4 -1,1 -3,2 -6,2 0,-2 1,-3 1,-4 0,-1 0,-1 0,-2l0 0c5,0 7,-2 7,-2zm1 -5c0,-1 0,-2 0,-2l0 -2c0,-1 -2,-2 -6,-2 -4,0 -6,2 -6,3l0 2c0,1 2,2 6,2 2,0 4,0 6,-1zm3 0c-2,1 -5,4 -11,4 -3,0 -5,-1 -5,-1 -1,0 -1,1 -2,1 -1,2 -3,5 -3,8 0,3 2,5 5,5 11,0 19,-7 19,-12 0,-4 -2,-5 -3,-5zm2 -49c0,1 0,3 2,3 1,0 2,-2 2,-4 0,-2 0,-4 0,-5 0,0 0,-1 0,-1 1,0 2,3 3,3 1,0 2,-2 3,-2 0,0 0,0 0,0 0,1 -1,3 -1,4 0,0 3,1 3,1 0,1 -3,1 -5,2 -2,0 -3,1 -3,2 0,2 2,2 3,2 4,0 7,-2 8,-2 0,0 0,0 0,0 0,1 -2,3 -2,3 0,1 4,3 4,3 0,0 -1,0 -1,0 -1,0 -2,0 -2,0 -1,0 -1,0 -1,1 -1,0 0,3 -1,3 -1,0 -3,-7 -7,-7 -1,0 -2,1 -2,2 0,2 3,5 5,6 1,1 3,1 3,2 0,0 -4,0 -4,1 0,1 0,3 0,3 0,1 0,1 0,1 -1,0 -3,-3 -3,-3 -1,0 -3,2 -3,2 0,0 0,0 0,-1 0,-1 2,-4 2,-7 0,-1 0,-4 -2,-4 -2,0 -3,2 -4,4 0,1 0,6 -1,6 -1,0 -1,-3 -2,-3 -1,0 -3,2 -3,2 0,0 0,0 0,-1 0,0 1,-3 1,-3 0,-1 -4,-1 -4,-2 0,0 2,0 3,-1 3,0 8,-2 8,-5 0,-4 -4,-5 -6,-7 -1,0 -2,-1 -2,-1 0,-1 1,-1 2,-1 1,0 2,0 2,-1 0,0 0,-1 0,-2 0,-1 0,-1 0,-1 1,0 2,3 3,3 1,0 2,-3 3,-3 0,0 0,1 0,1 0,2 -1,5 -1,7zm-28 -17c1,5 7,2 7,8 0,1 0,2 0,3 0,2 0,3 1,3 1,0 1,-1 1,-2 0,-1 0,-2 0,-3 0,-2 2,-2 3,-2 2,0 3,2 7,2 -1,4 -9,3 -9,7 0,2 2,3 4,3 1,0 1,-1 1,-2 0,0 0,-1 0,-1 0,-1 0,-1 1,-1 1,0 7,5 7,6 0,2 -6,3 -8,3 -1,0 -1,0 -1,0 0,-1 1,-2 1,-3 0,0 -1,-1 -3,-1 -1,0 -2,0 -2,1 0,2 2,4 2,5 0,1 0,2 -2,2 -2,0 -4,-1 -4,-3 0,-2 2,-3 2,-4 0,-1 -1,-1 -1,-1 -3,0 -3,6 -11,6 1,-1 2,-2 2,-5 0,-1 0,-2 0,-3 0,-2 1,-3 2,-3 2,0 3,3 5,3 1,0 1,0 1,-2 0,-4 -8,-3 -8,-10 0,-1 0,-3 2,-6zm11 38c0,1 1,1 2,1 0,0 1,-1 1,-2 0,-1 -1,-2 -2,-2 -1,0 0,0 -1,1 0,1 0,1 0,2zm-3 -8c6,1 10,6 10,10 0,3 -2,6 -6,6 -3,0 -5,-2 -5,-5 0,-3 2,-6 2,-8 0,-1 0,-2 -1,-3zm-8 10c1,1 1,1 1,2 0,1 0,2 0,3 0,1 1,2 2,2 2,0 3,-1 3,-3 0,-2 -2,-4 -6,-4zm20 -4c0,1 0,1 0,2 0,2 -1,3 -1,5 0,2 2,3 4,3 2,0 4,-1 4,-4 0,-3 -3,-6 -7,-6zm-18 -3c2,0 3,1 3,2 0,1 -1,2 -2,2 -1,0 -2,0 -3,0 -1,0 -3,0 -4,1 1,0 2,1 2,2 0,3 -9,1 -9,9 0,5 5,10 12,10 4,0 6,-1 6,-3 0,-1 -2,0 -2,-1 0,0 1,-1 1,-2 0,0 -1,-1 -1,-1 -1,0 -3,2 -7,2 -3,0 -6,-2 -6,-4 0,-1 0,-1 0,-1 1,0 1,0 1,0 1,0 1,0 1,-1 0,0 0,-2 1,-2 1,0 3,4 11,4 3,0 8,0 10,-2 0,6 -5,15 -16,15 -10,0 -16,-9 -16,-17 0,-9 7,-17 17,-17 3,0 5,1 5,2 0,1 -4,0 -4,2zm-43 -60c0,-1 0,-1 0,-1 -1,0 -2,0 -3,2 1,2 1,3 2,3 0,0 1,-2 1,-4zm-8 2c1,0 2,0 3,-2 0,-1 0,-2 0,-2 0,-2 0,-3 -1,-3 -2,0 -3,5 -3,6 0,1 1,1 1,1zm10 6c1,0 3,-6 3,-10 0,0 0,-1 -1,-1 -1,0 -3,6 -3,9 0,1 0,2 1,2zm-15 -4c2,0 5,-10 5,-12 0,-1 -1,-1 -1,-1 -2,0 -4,10 -4,12 0,1 0,1 0,1zm7 5c-3,0 -3,3 -3,9 -2,-4 -5,-8 -9,-8 -2,0 -3,1 -3,4 0,1 0,2 0,2 0,-1 1,-1 3,-1 2,0 5,2 7,4 -2,0 -4,-1 -6,-1 -1,0 -2,1 -3,1 -2,1 -4,3 -4,7 0,1 0,1 0,2 2,-5 7,-7 11,-7 1,0 1,0 2,1 -2,1 -3,4 -3,6 0,1 0,1 -1,1 0,2 2,5 2,6 0,1 -1,1 -1,1 0,3 3,5 3,7 0,0 0,0 -1,0 1,2 3,3 4,4 0,1 1,1 1,1 1,0 3,-1 3,-2 0,0 -1,-1 -1,-1 -1,-1 -2,-2 -2,-3 -1,0 -1,-1 -1,-1 0,-1 -1,-4 -1,-5 -1,0 -1,-1 -1,-2 0,-1 0,-4 0,-5 0,0 -1,0 -1,-1 0,-2 2,-3 3,-6 3,3 4,5 4,7 0,2 0,3 0,4 2,-1 6,-3 6,-7 0,-2 -1,-5 -8,-5 2,-1 5,-2 7,-2 4,0 6,2 6,4 1,-1 2,-2 2,-4 0,-2 -3,-4 -6,-4 -3,0 -7,2 -10,4 2,-3 3,-5 5,-5 0,0 0,0 0,0 0,-3 -3,-5 -4,-5zm-38 -37c0,1 -4,5 -6,5 0,0 -1,0 -1,-1 0,-1 1,-3 2,-3 0,-1 2,-1 3,-1 1,0 2,0 2,0zm137 79c3,0 5,4 5,8 0,5 -2,10 -6,14 0,-8 -10,-6 -10,-11 0,-3 2,-4 4,-4 2,0 3,0 4,1 -1,-1 -1,-2 -1,-4 0,-2 1,-4 4,-4zm-44 -60c0,-1 -2,-1 -3,-1 -3,0 -4,2 -5,3 0,0 0,-1 0,-2 0,-2 2,-5 6,-5 4,0 5,2 6,2 0,0 1,-1 1,-1 1,0 1,1 1,2 0,2 -1,6 -4,8 0,-1 -1,-3 -3,-3 0,0 0,-1 0,-1 0,-1 0,-2 1,-2zm-9 4c2,2 3,2 5,2 0,0 1,0 2,0 0,0 0,1 0,1 0,1 0,2 -1,2 1,1 2,1 2,1 4,0 8,-2 8,-8 0,1 1,3 1,4 0,6 -5,9 -9,9 -3,0 -5,-1 -5,-1 -1,0 -1,2 -2,2 -1,0 -2,-3 -2,-6 0,-2 0,-4 1,-6zm-41 -17c0,2 8,12 9,12 1,0 2,-2 2,-3 0,-1 0,-1 0,-2 -1,-1 -9,-7 -10,-7 -1,0 -1,0 -1,0zm85 -5c0,-4 -10,-5 -10,-6 0,0 6,-2 9,-2 -5,-5 -11,-5 -11,-6 0,0 5,-2 9,-2 4,0 7,1 7,4 0,1 -1,3 -1,5 0,2 0,3 2,3 2,0 2,-2 2,-4 0,-2 0,-3 0,-4 0,-2 2,-4 4,-4 2,0 3,1 6,1 -2,1 -3,2 -3,3 0,3 2,4 2,9 0,10 -9,13 -19,13 -3,0 -6,0 -9,-1 -1,0 -1,0 -1,0 0,-1 4,-1 4,-5 0,-2 0,-3 0,-4 0,0 0,0 0,0 1,0 3,3 6,3 1,0 3,0 3,-3zm10 -6c0,6 -4,10 -11,11 1,0 2,0 3,0 8,0 11,-4 11,-7 0,-2 -1,-3 -3,-4zm-6 48c0,-2 -3,-2 -3,-5 0,-1 0,-2 -1,-2 -1,0 0,4 -1,4 -3,0 -4,-6 -5,-6 0,0 0,1 0,1 0,1 0,1 0,2 0,1 0,1 -1,1 -2,0 -3,-3 -4,-3 -1,0 -1,0 -1,0 0,1 1,2 1,3 0,1 -4,0 -4,2 0,0 1,0 2,0 1,0 3,0 4,0 0,0 1,0 1,1 0,0 -2,2 -2,2 0,1 0,1 1,1 1,0 4,-3 6,-3 0,0 1,0 1,1 0,1 -2,2 -2,3 0,0 1,1 1,1 1,0 2,-3 4,-3 1,0 2,0 3,0 0,0 0,0 0,0zm-42 -45c0,-1 -2,-2 -2,-3 0,0 0,0 0,0 1,0 2,0 3,0 1,0 1,-3 2,-3 0,0 1,3 1,3 1,0 2,-1 3,-1 0,0 0,0 0,1 0,0 -1,1 -1,2 0,0 3,1 3,2 0,0 -3,0 -3,1 0,0 1,2 1,2 0,0 0,0 0,0 -1,0 -2,0 -3,0 -1,0 -2,2 -2,2 0,0 -1,0 -1,-1l0 -2c0,0 0,0 0,0 -1,0 -2,0 -3,0 0,0 0,0 0,-1 0,0 2,-2 2,-2zm12 11c-4,0 -7,-2 -7,-3 0,-1 0,-1 1,-1 1,0 4,2 5,2 0,0 0,0 0,0 0,-1 -1,-3 -1,-4 0,0 1,-1 1,-1 1,0 4,1 5,1 0,0 1,0 1,0 0,-2 -4,-4 -4,-5 0,-1 5,-2 5,-3 0,-1 -7,0 -7,-1 0,-1 1,-2 1,-3 0,0 0,-1 0,-1 -1,0 -4,2 -5,2 0,0 -1,-1 -1,-1 0,-2 2,-3 6,-3 6,0 9,4 9,10 0,9 -6,11 -9,11zm-40 102c0,0 0,1 -1,1 0,-1 -2,-1 -3,-1 -6,0 -4,8 -10,8 -3,0 -3,0 -4,0 0,0 -1,0 -1,1 0,1 3,5 9,5 6,0 11,-4 11,-8 0,-1 0,-2 0,-3 0,0 1,0 1,0 1,0 2,1 3,1 1,0 1,-1 1,-2 0,-1 0,-1 -1,-2 1,0 1,-1 1,-1 0,-1 -1,-2 -2,-2 0,0 -1,0 -1,0 0,-1 -1,-2 -2,-2 -1,0 -2,1 -2,2 0,1 1,2 1,3zm-16 2c-1,0 -4,-2 -4,-3 0,-1 1,-1 1,-1 2,0 4,1 4,3 0,0 0,1 -1,1zm-16 -13c5,1 7,3 7,6 1,3 1,6 3,7 1,1 4,3 6,3 3,0 4,-1 4,-3 0,-2 -3,-7 -7,-7 0,0 -1,1 -1,1 -1,0 -2,-1 -2,-1 -1,-1 -1,-5 -3,-8 -2,-3 -4,-4 -7,-4 -2,0 -4,1 -4,3 0,1 0,2 4,3zm29 -7c0,-3 -5,-3 -5,-7 0,-1 1,-3 2,-5 0,3 2,5 4,6 6,2 6,5 6,8 0,5 -3,12 -13,12 -8,0 -13,-7 -13,-13 0,-1 0,-3 1,-3 1,0 1,1 2,1 3,3 6,4 10,4 4,0 6,-2 6,-3zm1 4c-2,1 -3,1 -3,3 0,0 0,1 0,2 0,1 0,1 1,1 2,0 5,-4 5,-7 0,0 0,-1 -1,-1 0,0 -1,1 -2,2zm-19 -30c0,-4 9,-6 9,-10 0,-1 0,-2 -1,-3 3,1 5,4 5,7 0,4 -4,6 -4,8 0,3 5,3 5,7 0,3 -5,7 -5,10 0,3 3,6 6,6 -1,1 -2,1 -3,1 -6,0 -12,-5 -12,-11 0,-3 1,-5 3,-7 1,1 3,2 4,2 1,0 2,0 2,-1 0,-2 -9,-4 -9,-9zm0 0z"/>
   <path class="fil7" d="M1253 332c2,0 5,-1 7,-4 -2,-3 -2,-9 -3,-11 0,-11 4,-21 8,-21 4,0 6,3 7,8 1,13 -4,19 -6,24 0,2 3,5 6,5 1,0 3,-1 3,-1 0,-1 0,-2 0,-4 0,-7 5,-14 9,-14 3,0 5,5 5,8 0,3 -3,6 -7,9 1,1 2,1 3,1 7,0 10,-7 13,-14 0,-2 1,-4 2,-4 3,0 4,18 8,18 2,0 4,-4 4,-7 0,-2 -1,-2 -1,-6 0,-3 2,-6 5,-6 1,0 2,1 2,3 0,7 -5,21 -13,21 -6,0 -5,-10 -7,-10 -2,0 -5,10 -16,10 -2,0 -4,-1 -6,-3 -2,2 -4,3 -7,3 -4,0 -6,-5 -8,-5 -2,0 -4,5 -10,5 -6,0 -7,-7 -8,-7 -2,0 -5,7 -7,7 -5,0 -6,-13 -10,-13 -3,0 -14,13 -16,13 -1,-1 -2,-1 -2,-2 0,-2 2,-6 2,-8 1,-3 2,-7 2,-8 1,-1 2,-2 3,-2 1,0 1,1 1,2 0,2 1,5 2,5 2,0 7,-10 10,-10 3,0 4,16 9,16 2,0 3,-2 4,-5 0,-4 1,-10 4,-10 3,0 4,6 2,10 0,5 4,7 6,7zm83 -11c0,-2 -3,-6 -7,-6 -5,0 -10,5 -10,13 0,6 5,9 9,9 7,0 12,-6 14,-11 1,3 2,11 4,11 2,0 2,-1 4,-4 3,-7 6,-16 11,-16 1,0 0,3 4,3 2,0 3,-1 3,-3 0,-3 -2,-5 -5,-5 -11,0 -13,16 -15,16 -2,0 -2,-13 -4,-13 -1,0 -2,3 -2,4 -2,5 -6,14 -12,14 -2,0 -4,-1 -4,-2 0,-2 10,-2 10,-10zm-68 -14c0,-3 -1,-5 -2,-4 -3,0 -4,7 -3,14 0,5 1,5 1,5 2,0 5,-8 4,-15zm-18 -7c0,-1 -1,-3 -3,-3 -2,0 -4,3 -4,5 0,2 1,4 3,4 3,0 4,-3 4,-6zm35 23c0,-2 -1,-3 -3,-3 -1,0 -3,1 -3,4 0,3 1,4 1,5 4,-1 5,-4 5,-6zm43 -4c2,0 3,3 2,5 0,1 -2,3 -5,4 -1,-2 -1,-9 3,-9zm-152 2c-1,-5 0,-9 2,-16 1,-3 1,-4 5,-5 2,0 2,2 1,5 -1,7 -2,10 -1,18 0,8 4,11 8,11 6,0 9,-5 10,-12 1,-6 0,-9 -1,-11 0,-1 -1,-3 -1,-5 -1,-4 1,-6 3,-6 2,-1 3,0 4,2 1,4 1,9 0,15 0,9 -5,20 -16,20 -10,0 -14,-6 -14,-16zm0 0z"/>
  </g>
  <g id="_2173767362016">
   <path class="fil8" d="M605 735l0 -12c7,-1 18,-2 18,6 0,8 -11,7 -18,6zm0 -32c3,0 8,0 11,0 4,0 6,1 6,6 0,4 -3,4 -7,4 -3,0 -7,0 -10,0l0 -10zm-12 13l0 29c15,0 43,5 42,-16 0,-7 -4,-9 -8,-11 3,-3 4,-3 6,-7 4,-9 -1,-18 -17,-18l-23 0 0 23z"/>
   <path class="fil8" d="M830 731c-3,10 -19,9 -15,-9 2,-11 19,-8 15,9zm0 -21c-16,-9 -27,3 -27,17 0,7 3,14 8,17 6,4 15,3 19,-2 1,4 -2,3 11,3 0,-8 1,-47 -1,-52l-10 0 0 17z"/>
   <path class="fil8" d="M833 624c-24,7 -13,42 10,35 9,-2 16,-11 13,-22 -2,-9 -11,-17 -23,-13z"/>
   <path class="fil8" d="M751 623c-24,6 -16,42 8,36 9,-2 17,-11 14,-22 -2,-9 -11,-16 -22,-14z"/>
   <path class="fil8" d="M793 623c-9,2 -17,11 -14,23 5,23 42,15 36,-9 -2,-9 -11,-16 -22,-14z"/>
   <path class="fil8" d="M709 623c-24,6 -15,42 9,36 9,-2 16,-11 14,-22 -2,-9 -12,-16 -23,-14z"/>
   <path class="fil8" d="M724 722l-15 0c2,-9 14,-10 15,0zm11 12c-2,0 -8,0 -10,0 -3,1 -2,2 -6,3 -5,2 -10,-2 -10,-7l26 0c2,-30 -32,-30 -37,-9 -7,28 31,34 37,13z"/>
   <path class="fil8" d="M665 722l-15 0c2,-10 14,-10 15,0zm11 12c-18,0 -8,1 -15,3 -6,2 -11,-2 -11,-7l26 0c2,-31 -32,-30 -36,-9 -7,28 31,33 36,13z"/>
   <path class="fil8" d="M863 716c13,-5 16,18 5,21 -12,4 -15,-18 -5,-21zm-17 14c4,25 44,20 40,-7 -4,-25 -44,-22 -40,7z"/>
   <path class="fil8" d="M788 736c-2,2 -4,3 -7,2 -4,-1 -4,-2 -6,-5l-10 0c-1,14 24,18 32,9 4,-6 4,-14 -1,-17 -6,-3 -16,-3 -19,-7 1,-5 8,-5 11,-1 1,2 -2,-3 0,1 0,0 1,0 1,1 0,0 0,0 0,0l10 0c-2,-16 -24,-15 -30,-8 -5,6 -4,14 3,17 9,4 17,0 16,8z"/>
   <path class="fil8" d="M601 652l0 -8c18,-3 15,12 0,8zm0 -21c4,0 8,0 11,1 3,8 -4,6 -11,6l0 -7zm-7 28c11,0 28,3 28,-11 -1,-4 -3,-6 -5,-8 4,-3 6,-12 -1,-15 -4,-1 -17,-1 -22,-1l0 35z"/>
   <path class="fil8" d="M922 707l-5 1 0 8 5 0 0 29 11 0 0 -29 7 0 0 -8 -7 0c0,-6 2,-6 7,-6l0 -9c-13,0 -18,0 -18,14z"/>
   <path class="fil9" d="M633 652l0 -21c9,0 14,0 14,11 0,10 -5,10 -14,10zm-8 7c16,0 30,1 30,-17 0,-19 -14,-18 -30,-18l0 35z"/>
   <path class="fil8" d="M902 745c0,-5 0,-16 1,-21 1,-6 5,-7 12,-7l0 -10c-9,-2 -11,3 -13,5l-1 -5 -10 1 0 37 11 0z"/>
   <path class="fil8" d="M752 712l-1 -5 -10 0 -1 38 12 0c0,-22 -3,-28 12,-28l0 -10c-6,-1 -10,1 -12,5z"/>
   <polygon class="fil8" points="659,659 666,659 667,645 682,645 682,639 667,639 667,631 684,631 684,625 659,624 "/>
   <polygon class="fil8" points="681,745 692,745 692,708 682,708 "/>
   <polygon class="fil8" points="682,702 684,702 689,702 692,702 692,693 682,693 "/>
  </g>
  <path class="fil10" d="M1113 689l1 7c2,21 -13,22 -7,3 2,-4 4,-7 6,-10zm185 0c3,5 2,26 -5,23 -4,-1 -2,-10 -1,-13 1,-3 4,-8 6,-10zm126 -13c0,4 -1,15 1,16 4,3 8,-13 11,-15 2,4 -1,13 2,16 3,1 5,-1 6,-2 1,-2 3,-4 3,-6 -1,0 0,-1 -2,2 -1,1 -2,2 -2,2 -1,-1 -1,0 -1,-2l0 -7c0,-10 -4,-10 -8,-3 -2,3 -3,6 -5,7 0,-5 1,-8 -2,-11 -2,0 -4,0 -5,1 -2,1 -3,2 -5,3 -1,-3 -6,-6 -8,-2 -2,3 1,5 7,4 1,10 -6,11 -9,8 -6,-6 1,-13 2,-14 -3,-1 -7,1 -9,2 -3,2 -5,4 -7,5 -1,-1 -2,-2 -3,-4l-1 -3c0,-1 0,-1 0,-1 -2,2 -5,10 -8,13 0,2 -1,4 -3,3 -1,-3 3,-18 -4,-15 -4,1 -6,11 -9,12 -1,-2 1,-7 0,-10 -2,-4 -5,-2 -6,0 -2,3 -6,12 -9,13 -2,-4 2,-11 -2,-15 -3,-1 -5,2 -6,4 -2,3 -3,7 -5,7 0,-2 0,-5 0,-8 0,-3 2,-3 3,-6 9,-15 -2,-21 -6,-10 -2,6 0,10 -1,16 -2,1 -4,2 -6,2 -1,-2 -2,-3 -3,-4 -4,-3 -8,2 -5,5 2,1 4,1 6,1 2,4 -4,13 -9,7 -2,-2 -3,-4 -3,-7 1,-5 3,-5 4,-7 -7,1 -12,7 -15,9 -1,-2 -1,-11 -1,-14 0,-3 0,-5 0,-8 0,-2 1,-5 1,-6 -6,-1 -17,9 -16,22 0,5 2,6 3,9l-8 1c0,-3 0,-7 -2,-9 -1,0 -2,0 -3,1 0,3 2,3 2,7 -2,-3 -14,-8 -13,0 4,5 6,4 13,4 0,1 0,2 1,3 1,-1 1,-2 2,-4 7,-2 10,-2 14,4 -3,4 -6,9 -7,16 -1,16 15,7 15,-17 0,-2 0,-4 -1,-5 0,-3 1,-3 2,-4 2,-1 5,-4 7,-5 -1,3 -3,4 -1,9 2,10 17,10 17,-6 3,-1 4,-2 6,-2 0,3 0,13 1,14 4,2 7,-14 11,-15 1,5 -2,12 2,15 3,1 6,-5 7,-7 2,-2 4,-7 6,-8 1,5 -1,11 1,15 4,1 5,-3 7,-7 1,-3 3,-8 5,-8 1,4 -1,13 2,15 3,2 6,-3 7,-5 2,-3 3,-7 5,-8 4,5 1,4 0,9 -2,6 8,6 7,-3 0,-3 -1,-3 1,-5 1,-1 6,-4 9,-5 -1,1 -1,1 -2,2 -4,4 -3,13 4,15 9,4 13,-5 12,-13 2,-1 4,-3 6,-3zm-35 14c-1,-2 0,-3 1,-4 1,1 1,5 -1,4zm-112 -3c-11,1 -8,-8 -2,-3 1,0 2,2 2,3zm138 -9l-3 0c-3,-3 2,-4 3,0zm-94 -2c2,0 2,0 3,2 -2,0 -3,0 -3,-2zm16 -5c0,-2 0,-6 0,-9 1,-4 1,-6 4,-6 1,5 -1,12 -4,15zm-41 19c-4,-3 -7,-12 -6,-20 1,-6 4,-14 10,-15 0,3 -1,6 -2,8 -1,3 -2,6 -2,9 0,12 5,14 0,18zm-91 1c-3,-1 -1,-5 0,-6 0,1 0,2 0,3 0,2 0,3 0,3zm21 -15c2,-1 3,0 4,2 -3,0 -4,0 -4,-2zm-90 0c2,-1 2,0 3,2 -2,0 -3,0 -3,-2zm16 -5c0,-3 0,-6 0,-9 0,-4 1,-6 4,-6 1,5 -1,12 -4,15zm-41 19c-4,-3 -7,-13 -6,-20 1,-6 5,-15 10,-15 1,5 -6,10 -3,27 0,1 1,4 1,5 0,1 -1,2 -2,3zm150 -3c1,-1 1,-1 1,-2 -2,1 -2,4 -5,4 -1,-4 2,-17 -4,-17 -4,1 -6,11 -9,12 0,-4 1,-10 -2,-11 -3,-1 -7,3 -10,4 -1,-1 -2,-3 -4,-3 -5,-2 -6,3 -3,5 2,1 4,0 6,1 1,7 -5,12 -9,7 -2,-2 -3,-5 -2,-8 1,-3 3,-4 3,-6 -5,-2 -13,5 -15,7 -3,-3 -3,-5 -4,-8 -2,1 -4,7 -5,9 -2,2 -4,8 -6,8 -1,-4 3,-19 -4,-16 -3,1 -5,6 -7,9 -1,4 -1,3 -2,3 -1,-2 1,-7 -1,-10 -1,-4 -4,-2 -5,0 -3,4 -7,12 -9,13 -1,-3 0,-6 0,-9 0,-1 0,-2 -1,-3 0,-2 0,-2 -1,-3 -3,-2 -7,5 -8,8 -1,2 -1,2 -2,3 -2,-2 -1,-5 -1,-8 0,-3 1,-3 3,-6 9,-15 -2,-21 -6,-10 -2,5 -1,10 -1,16 -2,1 -3,2 -6,2 -2,-2 -1,-2 -3,-4 -6,-3 -11,5 1,6 1,6 -6,12 -10,7 -1,-2 -2,-5 -2,-8 1,-3 3,-4 4,-6 -3,0 -7,2 -9,4 -3,2 -5,5 -6,5 -1,-5 -1,-9 -1,-15 -1,-6 1,-13 1,-14 -12,3 -20,17 -15,30 2,3 4,5 6,7 0,0 1,0 1,0 0,1 0,1 1,2 -3,4 -5,6 -6,13 -1,5 0,15 6,10 7,-6 8,-19 7,-31 2,-2 6,-6 9,-7 -1,3 -3,4 -2,9 1,3 3,6 6,6 9,2 12,-5 12,-12l6 -2c1,4 -1,13 1,14 4,3 6,-14 11,-15 1,5 -2,13 2,15 6,0 9,-13 13,-15 2,4 -2,12 2,15 2,1 5,-5 6,-7 1,-2 3,-8 5,-8 1,4 -2,10 2,15 4,1 5,-2 7,-5 1,-2 3,-5 4,-7 2,0 4,3 3,5 -1,1 -3,4 -2,6 2,3 5,1 6,-1 2,-3 1,-6 0,-9 3,-1 7,-6 10,-6 -1,2 -4,4 -3,9 0,9 11,12 15,6 3,-3 3,-7 3,-11 1,-1 4,-3 5,-3 2,5 -1,13 2,17 3,0 3,-3 6,-8 1,-2 3,-7 5,-8 1,2 1,6 1,8 -1,13 6,8 9,2z"/>
  <rect class="fil0 str0" x="1018" width="509" height="455"/>
  <rect class="fil0 str0" x="510" y="455" width="509" height="455"/>
  <rect class="fil0 str0" x="1019" y="455" width="509" height="455"/>
  <g id="_2173767355296">
   <path class="fil11" d="M857 228c0,52 -42,94 -94,94 -51,0 -93,-42 -93,-94 0,-52 42,-94 93,-94 52,0 94,42 94,94z"/>
   <g>
    <g>
     <path class="fil12" d="M715 250c0,0 0,0 0,-1 1,-1 2,-3 2,-5 2,-5 4,-11 5,-16 1,-3 2,-6 3,-8 1,-3 1,-5 2,-8 1,-3 2,-6 3,-9 1,-2 0,-3 -1,-4 0,0 0,0 0,0 9,0 17,0 25,0 4,0 7,1 10,3 2,1 4,4 4,6 0,4 0,7 -2,10 -3,7 -8,11 -15,13 -2,1 -4,1 -6,2 -3,0 -5,0 -7,0 -1,0 -2,0 -3,0 0,0 0,0 0,0 -1,1 -1,3 -2,4 0,3 -1,5 -2,7 0,2 -1,3 -1,5 -1,2 0,3 2,4 -7,0 -14,0 -20,0 1,-1 3,-2 3,-3 0,0 0,0 0,0zm31 -47l0 0c0,0 -1,0 -1,0 -1,0 -1,0 -1,0 0,1 0,2 -1,3 -2,7 -4,15 -7,22 0,0 0,0 1,1 3,0 7,-1 10,-3 2,-2 3,-4 4,-6 1,-4 3,-7 2,-11 0,-3 -1,-5 -3,-6 -2,0 -3,0 -4,0z"/>
     <path class="fil12" d="M840 200c0,0 0,0 0,0 0,0 1,0 1,1 0,0 0,0 -1,1 0,2 -1,3 -1,5 0,0 0,1 -1,1 -2,-2 -4,-3 -6,-4 -1,-1 -3,-1 -5,-1 -4,-1 -8,1 -12,5 0,0 0,0 0,0 0,0 -1,0 -1,1 -1,1 -2,2 -3,3 -2,4 -4,9 -6,13 -1,4 -2,9 -2,13 0,2 0,5 1,7 1,3 3,4 5,4 2,1 3,1 5,1 0,-1 0,-1 0,-1 1,-1 1,-1 1,-2 1,-2 1,-4 2,-7 1,-3 2,-7 3,-10 1,-1 1,-2 0,-3 0,-1 -1,-1 -2,-2 0,0 0,0 0,0 7,0 14,0 21,0 0,0 0,0 0,0 -2,1 -4,2 -4,5 -2,6 -4,13 -6,19 -1,1 -1,1 -2,1 -3,2 -7,3 -12,4 -3,0 -7,0 -10,0 -3,-1 -5,-2 -7,-3 -1,0 -1,0 -1,-1 -5,-3 -6,-8 -7,-13 -1,-8 1,-16 6,-23 0,-2 2,-3 3,-4 0,-1 1,-2 2,-2 2,-3 5,-5 8,-6 4,-2 8,-3 13,-4 4,0 7,0 11,1 2,0 4,1 7,1z"/>
     <path class="fil12" d="M781 234c0,0 1,0 2,0 1,0 2,0 4,0 0,0 1,0 0,1 0,3 -1,7 -4,9 -1,1 -1,1 0,2 4,3 8,5 12,7 0,0 0,0 1,0 -1,0 -1,0 -1,0 -4,0 -8,0 -12,0 -1,0 -1,0 -2,0 -1,-1 -2,-2 -3,-3 -1,-1 -1,-1 -1,0 -3,2 -7,3 -10,4 -3,0 -5,0 -8,-1 -2,0 -3,-1 -4,-2 -3,-3 -3,-6 -3,-9 0,-4 3,-7 6,-9 3,-2 5,-3 8,-4 1,0 1,0 1,-1 0,-5 1,-9 4,-12 3,-4 6,-5 11,-5 2,1 3,1 4,2 3,2 3,6 1,8 -1,3 -3,4 -5,6 -2,1 -4,2 -6,3 -1,0 -1,0 -1,1 1,4 3,7 5,10 0,1 0,1 0,0 1,-1 2,-3 2,-5 0,0 0,-1 -1,-2zm-7 12l0 0c0,0 -1,-1 -1,-1 -2,-4 -4,-7 -5,-11 0,-1 0,-1 -1,-1 0,1 0,1 -1,1 -2,1 -4,3 -5,5 -2,5 0,9 5,10 3,0 6,-1 8,-3zm0 -20l0 0c1,0 1,0 1,0 2,-2 4,-3 6,-5 0,-2 1,-3 1,-4 0,-2 -1,-3 -3,-3 -1,1 -2,1 -2,2 -2,3 -3,7 -3,10z"/>
    </g>
    <g>
     <path class="fil13" d="M714 248c0,0 0,0 0,0 0,-2 1,-4 1,-5 2,-6 4,-11 5,-17 1,-3 2,-5 3,-8 1,-2 2,-5 2,-7 1,-3 2,-6 3,-9 1,-2 1,-4 -1,-5 0,0 0,0 1,0 8,0 16,0 24,0 4,0 7,1 10,3 2,2 4,4 4,7 1,3 0,6 -2,9 -2,7 -8,11 -15,13 -2,1 -4,2 -6,2 -3,0 -5,0 -7,0 -1,0 -2,0 -2,0 -1,0 -1,0 -1,0 0,2 -1,3 -1,5 -1,2 -2,4 -2,6 -1,2 -1,3 -2,5 -1,2 0,3 2,5 -7,0 -13,0 -20,0 2,-1 3,-2 4,-4 0,0 0,0 0,0zm30 -47l0 0c0,0 -1,0 -1,0 0,0 -1,0 -1,1 0,1 0,1 -1,2 -2,8 -4,15 -6,22 -1,1 -1,1 0,1 4,0 7,-1 10,-3 2,-2 3,-4 4,-6 2,-4 3,-7 3,-11 0,-3 -2,-5 -4,-5 -1,-1 -3,-1 -4,-1z"/>
     <path class="fil13" d="M838 198c0,0 0,0 0,0 0,1 1,0 1,1 0,0 0,1 0,1 -1,2 -2,4 -2,6 0,0 0,0 0,0 -2,-2 -4,-3 -7,-4 -1,-1 -3,-1 -4,-1 -5,0 -9,2 -13,5 0,0 0,0 0,0 0,0 0,1 0,1 -2,1 -3,2 -3,4 -3,4 -5,8 -6,13 -2,4 -3,8 -3,12 0,3 0,5 1,8 1,2 3,3 6,4 1,0 3,0 4,0 0,0 0,0 1,-1 0,0 0,-1 0,-2 1,-2 2,-4 2,-6 1,-4 2,-7 4,-11 0,-1 0,-2 -1,-3 0,-1 -1,-1 -2,-2 0,0 0,0 0,0 7,0 14,0 21,0 0,0 0,0 0,1 -2,0 -3,2 -4,4 -2,6 -4,13 -6,19 0,1 -1,1 -1,1 -4,2 -8,3 -12,4 -4,0 -7,0 -11,0 -2,-1 -5,-2 -7,-3 0,0 -1,0 -1,0 -4,-4 -6,-9 -7,-14 0,-8 2,-16 6,-23 1,-1 2,-3 3,-4 1,-1 1,-1 2,-2 2,-2 5,-4 8,-6 4,-2 9,-3 13,-4 4,0 8,0 11,1 2,0 5,1 7,1z"/>
     <path class="fil13" d="M779 232c0,0 1,0 2,0 1,0 3,0 4,0 1,0 1,1 1,1 -1,4 -2,7 -5,9 0,1 0,1 0,2 4,3 8,6 12,7 0,0 1,0 1,1 0,0 -1,0 -1,0 -4,0 -8,0 -12,0 0,0 -1,0 -1,-1 -2,-1 -3,-2 -4,-3 -1,0 -1,0 -1,0 -3,2 -6,4 -10,4 -3,1 -5,0 -8,0 -1,-1 -3,-2 -4,-3 -2,-2 -3,-5 -3,-9 1,-4 3,-7 7,-9 2,-2 5,-3 7,-4 1,0 1,0 1,-1 0,-4 1,-9 4,-12 3,-4 7,-5 11,-4 2,0 3,0 5,2 2,2 2,5 1,8 -2,2 -4,4 -6,5 -2,1 -4,2 -6,3 -1,0 -1,0 -1,1 1,4 3,7 5,11 0,0 0,0 1,0 1,-2 1,-4 1,-5 0,-1 0,-1 -1,-3zm-7 13l0 0c0,-1 0,-2 -1,-2 -2,-4 -4,-7 -5,-11 0,0 0,-1 0,0 -1,0 -1,0 -1,0 -3,2 -5,3 -6,6 -2,4 1,9 6,9 2,0 5,-1 7,-2zm1 -20l0 0c0,-1 0,-1 0,-1 3,-1 4,-3 6,-5 1,-1 1,-3 1,-4 1,-2 -1,-3 -3,-2 -1,0 -1,1 -2,1 -2,3 -3,7 -2,11z"/>
    </g>
   </g>
   <g>
    <path class="fil14" d="M697 226c0,-38 21,-71 54,-91 -46,6 -81,45 -81,92 0,50 38,91 87,94 -36,-20 -60,-55 -60,-95z"/>
   </g>
  </g>
  <g id="_2173767355904">
   <rect class="fil0 str0" y="456" width="509" height="455"/>
   <path class="fil15" d="M216 687c11,-1 15,1 15,12 -1,8 -6,13 -15,12l0 -24zm-53 68l7 0 1 -2c1,0 0,1 1,-1 -7,0 -7,-1 -9,3zm211 -23c-3,1 -3,1 -3,-1 3,0 3,-1 3,1zm1 1c1,-1 1,-1 1,-2 -1,-2 -5,-2 -6,-1 0,1 -1,5 0,7 2,-1 1,0 1,-3l3 0c0,3 -1,3 2,3l-1 -4zm-12 3l0 -4c0,1 1,4 2,5 2,-1 0,-1 2,-4 0,3 0,4 2,4 0,-2 0,-5 0,-7l-3 -1c0,2 0,4 -1,6 0,-2 0,-3 -1,-4 0,-2 0,-2 -3,-2 0,2 0,3 0,5 0,4 1,3 1,3 1,-1 1,0 1,-1zm2 -13c12,-5 20,15 7,20 -12,5 -20,-14 -7,-20zm2 -1c-6,1 -10,6 -9,13 1,15 24,13 22,-4 -1,-5 -6,-11 -13,-9zm-27 55c3,0 15,0 18,-1l0 -5 -10 0 0 -14 -8 0 0 20zm-94 -15l-1 14 9 1 0 -15 6 0 0 -5 -21 0 0 5 7 0zm-101 9c-3,1 -5,0 -8,-1l1 6c5,2 13,1 15,-2 2,-5 -2,-7 -5,-9 -2,-1 -2,-1 -2,-3 2,-1 5,0 7,1 0,-1 0,-2 -1,-3l0 -3c-16,-3 -16,6 -12,10 2,1 4,2 5,4zm20 -8c0,-2 -1,-1 2,-1l8 0 0 -5 -19 0 0 20 19 0 0 -6c-2,0 -4,0 -6,0 -5,0 -5,1 -5,-1 0,-2 4,0 9,-1l0 -5c-2,0 -3,0 -4,0 -1,0 -3,0 -3,0 -2,0 -1,1 -1,-1zm124 -110c-13,4 -7,22 6,19 4,-1 8,-6 7,-12 -2,-5 -7,-9 -13,-7zm-49 0c-13,4 -7,22 5,19 5,-1 9,-6 7,-12 -1,-5 -6,-9 -12,-7zm13 -63c-5,1 -9,6 -8,12 1,4 6,9 12,7 13,-3 9,-22 -4,-19zm12 21c-13,3 -8,22 5,19 4,-1 9,-6 7,-12 -1,-5 -6,-9 -12,-7zm-11 20c-14,3 -9,22 4,20 5,-1 9,-6 8,-12 -1,-5 -6,-9 -12,-8zm11 22c-13,4 -8,22 5,19 4,-1 9,-6 7,-13 -1,-4 -6,-8 -12,-6zm13 -63c-14,3 -9,23 4,19 5,-1 9,-6 8,-12 -2,-5 -6,-9 -12,-7zm-38 21c-13,4 -7,24 6,19 12,-4 6,-23 -6,-19zm49 0c-13,4 -7,23 6,19 12,-4 7,-23 -6,-19zm14 20c-14,3 -9,22 4,20 13,-3 9,-23 -4,-20zm-73 0c-14,2 -10,22 3,20 13,-2 9,-22 -3,-20zm49 0c-14,2 -10,22 3,20 13,-2 9,-22 -3,-20zm-49 131l1 5 -3 0 2 -5zm-4 10l7 0 2 5 9 0c-2,-4 -4,-7 -5,-11 -5,-10 -2,-10 -14,-9l-10 20 9 -1 2 -4zm50 -1c-7,2 -4,-8 -5,-14l-8 0c0,13 -2,20 10,20 10,0 12,-2 12,-10l0 -10 -8 0c0,4 0,10 -1,14zm-62 -14l-8 0 0 11c-1,-3 -4,-10 -7,-11l-9 0 0 20 8 0 0 -11c1,1 5,9 6,11l10 0 -1 -9 1 -11zm111 5l2 5 -4 0 2 -5zm-4 -5c-2,0 -8,14 -11,19l-3 -8c1,-1 6,-3 3,-8 -2,-4 -14,-3 -21,-3 1,10 1,10 0,20l8 0 0 -15c3,0 4,-1 6,1 0,3 -2,2 -5,2l3 12 18 -1 2 -4 7 0 2 5 9 0 -9 -20 -9 0zm-61 -13c2,-1 4,-1 6,-1 3,0 5,1 7,1l0 -62 -13 0 0 62zm75 0c6,-1 8,-1 14,0l0 -62 -14 0 0 62zm-49 -3c9,5 22,5 31,-1 7,-6 11,-18 3,-27 -6,-6 -21,-10 -23,-16 -3,-11 13,-15 18,-6 3,3 1,2 3,3 0,-1 0,0 1,-1 0,-1 0,-1 0,-1 0,-1 1,-2 1,-3 0,-2 1,-3 1,-5 -6,-2 -8,-4 -17,-3 -6,0 -12,3 -14,7 -7,10 -5,22 7,28 5,3 11,5 14,8 4,6 1,13 -4,15 -7,2 -13,-1 -15,-5 -1,-2 -3,-8 -4,-2 -1,3 -2,7 -2,9zm-96 0l0 -25c-6,0 -8,0 -14,0l0 21c-21,9 -36,-8 -31,-31 2,-10 7,-17 16,-19 8,-3 16,0 22,6 2,2 1,2 3,2l2 -9c-2,-3 -12,-5 -18,-5 -7,-1 -15,0 -21,3 -11,4 -19,13 -20,28 -1,29 27,36 51,31 3,-1 7,-2 10,-2zm13 3c2,0 4,-1 6,-1 3,0 5,0 7,1l0 -29c2,0 2,1 3,3l15 26c6,-1 10,-1 16,0l-19 -31c1,-1 4,-1 7,-3 2,-1 4,-4 5,-6 3,-6 2,-13 -2,-17 -3,-4 -9,-5 -16,-5 -7,0 -15,0 -22,0l0 62z"/>
  </g>
 </g>
</svg>
