<?xml version="1.0" encoding="UTF-8"?>
<!DOCTYPE svg PUBLIC "-//W3C//DTD SVG 1.0//EN" "http://www.w3.org/TR/2001/REC-SVG-20010904/DTD/svg10.dtd">
<!-- Creator: CorelDRAW X8 -->
<svg xmlns="http://www.w3.org/2000/svg" xml:space="preserve" width="760px" height="380px" version="1.0" style="shape-rendering:geometricPrecision; text-rendering:geometricPrecision; image-rendering:optimizeQuality; fill-rule:evenodd; clip-rule:evenodd"
viewBox="0 0 760 380"
 xmlns:xlink="http://www.w3.org/1999/xlink">
 <defs>
  <style type="text/css">
   <![CDATA[
    .fil1 {fill:#F20E16}
    .fil0 {fill:url(#id0)}
   ]]>
  </style>
  <linearGradient id="id0" gradientUnits="userSpaceOnUse" x1="380.001" y1="380.005" x2="380.001" y2="-0.00590552">
   <stop offset="0" style="stop-opacity:1; stop-color:#E0E0E0"/>
   <stop offset="0.109804" style="stop-opacity:1; stop-color:#EFEFEF"/>
   <stop offset="0.470588" style="stop-opacity:1; stop-color:white"/>
   <stop offset="1" style="stop-opacity:1; stop-color:white"/>
  </linearGradient>
 </defs>
 <g id="Capa_x0020_1">
  <metadata id="CorelCorpID_0Corel-Layer"/>
  <g id="_2173767875904">
   <path class="fil0" d="M760 0c0,210 -170,380 -380,380 -210,0 -380,-170 -380,-380l760 0z"/>
   <path class="fil1" d="M302 271l62 0c2,1 3,4 4,6l4 5 -70 0 0 -11zm96 -50c-5,1 -3,8 2,7 4,-1 3,-9 -2,-7zm51 51c1,4 9,3 8,-2 -1,-5 -9,-4 -8,2zm10 -206c9,-3 14,12 4,15 -10,3 -15,-12 -4,-15zm-14 8c4,25 36,16 31,-5 -3,-8 -8,-8 -12,-11 -11,-1 -18,5 -19,16zm14 42c9,-2 14,12 4,15 -10,3 -15,-11 -4,-15zm-1 -7c-8,2 -15,8 -12,18 1,8 9,14 18,12 13,-3 17,-20 5,-28 -3,-2 -7,-3 -11,-2zm-45 112c-4,2 -3,6 0,7l38 0c15,0 14,-3 14,24 0,4 0,9 5,7 3,-2 2,-7 2,-10 0,-13 2,-26 -10,-28 -3,-1 -48,-1 -49,0zm-33 45c1,8 9,9 15,9l38 0c4,0 9,0 8,-5 0,-4 -5,-3 -9,-3l-38 0c-5,0 -7,0 -7,-5 0,-4 1,-22 -1,-25 -2,-2 -6,-1 -7,3 0,4 0,22 1,26zm39 -184c9,-3 16,4 18,11 2,9 -4,17 -12,19 -19,4 -27,-25 -6,-30zm-14 -1c-16,16 1,47 26,37 17,-6 18,-28 7,-38 -2,-2 -8,-6 -13,-6 -8,-2 -17,3 -20,7zm-33 183c-1,-7 0,-15 0,-22 0,-8 -1,-14 2,-20 3,-4 7,-8 14,-9 5,-1 58,0 66,0 7,0 13,0 18,4 11,9 8,20 8,36 0,8 1,14 -3,20 -7,11 -19,9 -35,9 -15,0 -29,0 -44,0 -8,0 -13,1 -19,-3 -3,-4 -7,-8 -7,-15zm-70 -20l62 0 0 19 -62 0 0 -19zm0 -8c0,-13 -1,-52 2,-62 9,-36 54,-46 78,-20 14,14 13,27 13,51 -8,0 -15,1 -21,6 -7,6 -10,13 -10,25l-62 0zm52 -112c3,0 7,-1 9,1 2,2 1,5 -1,6 -2,1 -16,1 -19,1 -3,0 -7,0 -9,-2 -2,-2 -1,-5 2,-6 1,-1 15,0 18,0zm-9 -20l7 0 0 12 -7 0 0 -12zm31 -15l7 0 0 8 -7 0 0 -8zm-39 0l31 0 0 8 -31 0 0 -8zm140 121c-5,-2 -7,-5 -16,-5 -17,0 -41,0 -58,0 0,-23 1,-42 -18,-60 -6,-4 -9,-6 -16,-10 2,-3 4,-7 2,-12 -2,-4 -6,-7 -11,-7l0 -12c34,0 31,3 31,-11 0,-9 1,-7 -2,-12l-56 0c-4,1 -4,5 -4,8 0,14 -2,15 8,15l0 12c-5,0 -9,3 -11,7 -2,6 0,8 2,12 -3,2 -6,3 -9,5 -9,6 -16,15 -21,25 -6,14 -4,38 -4,55 0,20 0,39 0,59 0,5 -1,10 4,11l163 0c10,0 16,-4 20,-9 5,-6 7,-13 7,-23 0,-15 2,-30 -5,-40 -3,-5 -6,-7 -6,-8z"/>
  </g>
 </g>
</svg>
