<?xml version="1.0" encoding="UTF-8"?>
<!DOCTYPE svg PUBLIC "-//W3C//DTD SVG 1.0//EN" "http://www.w3.org/TR/2001/REC-SVG-20010904/DTD/svg10.dtd">
<!-- Creator: CorelDRAW X8 -->
<svg xmlns="http://www.w3.org/2000/svg" xml:space="preserve" width="760px" height="380px" version="1.0" style="shape-rendering:geometricPrecision; text-rendering:geometricPrecision; image-rendering:optimizeQuality; fill-rule:evenodd; clip-rule:evenodd"
viewBox="0 0 760 380"
 xmlns:xlink="http://www.w3.org/1999/xlink">
 <defs>
  <style type="text/css">
   <![CDATA[
    .fil1 {fill:#F20E16}
    .fil0 {fill:url(#id0)}
   ]]>
  </style>
  <linearGradient id="id0" gradientUnits="userSpaceOnUse" x1="380.004" y1="379.999" x2="380.004" y2="0">
   <stop offset="0" style="stop-opacity:1; stop-color:#E0E0E0"/>
   <stop offset="0.109804" style="stop-opacity:1; stop-color:#EFEFEF"/>
   <stop offset="0.470588" style="stop-opacity:1; stop-color:white"/>
   <stop offset="1" style="stop-opacity:1; stop-color:white"/>
  </linearGradient>
 </defs>
 <g id="Capa_x0020_1">
  <metadata id="CorelCorpID_0Corel-Layer"/>
  <g id="_2173457335136">
   <path class="fil0" d="M760 0c0,210 -170,380 -380,380 -210,0 -380,-170 -380,-380l760 0z"/>
   <path class="fil1" d="M373 190c5,-2 5,-4 6,-10l12 -31c4,-12 12,-8 10,1 -3,12 -19,42 -9,40 5,-1 15,-34 17,-41 3,-8 5,-14 14,-9 2,14 -20,48 -15,57 7,0 5,-2 8,-9 4,-11 9,-33 16,-25 6,5 -15,51 -12,61 3,2 0,2 5,1l12 -5c17,-8 18,2 10,9l-24 20c-16,13 -16,14 -21,37l-68 -25 31 -86c6,-16 6,-24 14,-23 2,6 -2,15 -5,21 -4,11 -7,14 -1,17zm-80 -83c3,5 3,3 -1,5 -3,-4 -2,-2 1,-5zm-18 1c2,8 5,4 10,8 6,5 1,7 7,11 8,-2 2,-5 7,-10 5,-6 9,0 11,-9 -4,-2 -8,-2 -11,-5 -5,-4 0,-6 -6,-10 -7,2 -2,4 -7,10 -4,5 -5,1 -11,5zm65 -39c3,1 5,4 7,6 -1,2 0,1 -2,3l-5 4 -6 -7c3,-3 3,-3 6,-6zm-23 6c3,10 14,-1 19,18 2,6 0,5 6,7 5,-4 1,-9 7,-16 7,-7 13,-2 16,-9 -4,-6 -9,-2 -15,-8 -7,-7 -3,-12 -8,-16 -8,2 -3,9 -9,15 -6,7 -13,3 -16,9zm32 64c-11,0 -32,-2 -39,1 0,11 12,4 35,6l-8 23c-11,0 -51,-2 -57,1 1,9 6,6 24,6 10,0 21,0 31,0 -2,7 -6,14 -4,21 -5,3 -12,2 -18,2 -9,-1 -13,-2 -13,6 6,2 33,2 39,0 2,-5 -3,-9 0,-18 1,-5 4,-12 6,-17 4,-12 8,-23 13,-35 18,-48 11,-42 84,-16 39,14 41,14 27,52 -3,7 -14,29 -10,35 7,0 9,-11 14,-26 16,-44 23,-50 -30,-68 -59,-20 -76,-41 -94,27zm56 -2c-4,-2 -9,-3 -14,-1 -5,3 -4,5 -8,10 -15,-7 -17,6 -21,17 -4,11 -8,20 -12,31 -7,22 -16,43 -23,64 -6,1 -7,-2 -8,5 4,4 57,22 71,27 6,2 21,10 26,6 0,-8 1,-2 -2,-5l-5 -3c7,-30 6,-21 36,-47 5,-5 20,-13 12,-26 -7,-12 -21,-3 -28,0 0,-11 14,-43 12,-53 -1,-7 -6,-7 -12,-9 5,-22 -11,-29 -24,-16z"/>
  </g>
 </g>
</svg>
