<?xml version="1.0" encoding="UTF-8"?>
<!DOCTYPE svg PUBLIC "-//W3C//DTD SVG 1.0//EN" "http://www.w3.org/TR/2001/REC-SVG-20010904/DTD/svg10.dtd">
<!-- Creator: CorelDRAW X8 -->
<svg xmlns="http://www.w3.org/2000/svg" xml:space="preserve" width="2036px" height="1369px" version="1.0" style="shape-rendering:geometricPrecision; text-rendering:geometricPrecision; image-rendering:optimizeQuality; fill-rule:evenodd; clip-rule:evenodd"
viewBox="0 0 2036 1369"
 xmlns:xlink="http://www.w3.org/1999/xlink">
 <defs>
  <style type="text/css">
   <![CDATA[
    .str0 {stroke:#E6E6E6;stroke-width:3.54331}
    .fil0 {fill:none}
    .fil29 {fill:#FEFEFE}
    .fil28 {fill:#858789}
    .fil4 {fill:#000002}
    .fil15 {fill:#00205A}
    .fil16 {fill:#009FDF}
    .fil31 {fill:#102A83}
    .fil9 {fill:#1966B9}
    .fil5 {fill:#1967BB}
    .fil17 {fill:#43B02A}
    .fil14 {fill:#4EB845}
    .fil23 {fill:#8A222D}
    .fil24 {fill:#8B222D}
    .fil25 {fill:#D70C2D}
    .fil21 {fill:#DD002C}
    .fil22 {fill:#DE002C}
    .fil3 {fill:#DF2525}
    .fil18 {fill:#EB0A2A}
    .fil13 {fill:#EC1B23}
    .fil10 {fill:#FA0000}
    .fil8 {fill:#FDD213}
    .fil7 {fill:#FEFEFF}
    .fil6 {fill:red}
    .fil2 {fill:#FEFEFE;fill-rule:nonzero}
    .fil1 {fill:#3E4095;fill-rule:nonzero}
    .fil20 {fill:#050100;fill-rule:nonzero}
    .fil11 {fill:#C0262C;fill-rule:nonzero}
    .fil19 {fill:#DF040B;fill-rule:nonzero}
    .fil12 {fill:#E7B8A7;fill-rule:nonzero}
    .fil26 {fill:white;fill-rule:nonzero}
    .fil27 {fill:url(#id0)}
    .fil30 {fill:url(#id1);fill-rule:nonzero}
   ]]>
  </style>
  <radialGradient id="id0" gradientUnits="userSpaceOnUse" gradientTransform="matrix(-1.01015 -1.01015 1.01015 -1.01015 1303 1232)" cx="763.498" cy="229.074" r="560.787" fx="763.498" fy="229.074">
   <stop offset="0" style="stop-opacity:1; stop-color:#00AFEF"/>
   <stop offset="0.101961" style="stop-opacity:1; stop-color:#316DA7"/>
   <stop offset="0.501961" style="stop-opacity:1; stop-color:#355A9C"/>
   <stop offset="0.74902" style="stop-opacity:1; stop-color:#3B4694"/>
   <stop offset="0.988235" style="stop-opacity:1; stop-color:#2F3165"/>
   <stop offset="1" style="stop-opacity:1; stop-color:#2F3165"/>
  </radialGradient>
  <linearGradient id="id1" gradientUnits="userSpaceOnUse" x1="662.09" y1="317.859" x2="764.608" y2="140.29">
   <stop offset="0" style="stop-opacity:1; stop-color:#3B4694"/>
   <stop offset="0.0117647" style="stop-opacity:1; stop-color:#3B4694"/>
   <stop offset="0.188235" style="stop-opacity:1; stop-color:#3374B8"/>
   <stop offset="0.270588" style="stop-opacity:1; stop-color:#317ABE"/>
   <stop offset="0.54902" style="stop-opacity:1; stop-color:#00AFEF"/>
   <stop offset="0.701961" style="stop-opacity:1; stop-color:#D5EFFC"/>
   <stop offset="1" style="stop-opacity:1; stop-color:#00AFEF"/>
  </linearGradient>
 </defs>
 <g id="Capa_x0020_1">
  <metadata id="CorelCorpID_0Corel-Layer"/>
  <rect class="fil0 str0" y="1" width="509" height="455"/>
  <rect class="fil0 str0" x="509" y="1" width="509" height="455"/>
  <rect class="fil0 str0" x="1018" y="1" width="509" height="455"/>
  <rect class="fil0 str0" x="1527" y="1" width="509" height="455"/>
  <rect class="fil0 str0" y="457" width="509" height="455"/>
  <rect class="fil0 str0" x="509" y="457" width="509" height="455"/>
  <rect class="fil0 str0" x="1527" y="457" width="509" height="455"/>
  <rect class="fil0 str0" y="912" width="509" height="455"/>
  <rect class="fil0 str0" x="509" y="912" width="509" height="455"/>
  <rect class="fil0 str0" x="1527" y="912" width="509" height="455"/>
  <rect class="fil0 str0" x="1018" y="912" width="509" height="455"/>
  <rect class="fil0 str0" x="1018" y="457" width="509" height="455"/>
  <g id="_2173354735248">
   <g>
    <g>
     <path class="fil1" d="M1427 1139c0,49 -69,88 -155,88 -86,0 -155,-39 -155,-88 0,-49 69,-88 155,-88 86,0 155,39 155,88z"/>
     <path class="fil2" d="M1385 1139c0,29 -51,53 -113,53 -62,0 -113,-24 -113,-53 0,-30 51,-54 113,-54 62,0 113,24 113,54z"/>
     <path class="fil1" d="M1349 1126c-2,1 -4,5 -4,5 0,0 -5,-5 -9,0 -2,3 1,11 1,11 0,0 -3,2 -3,3 -1,1 2,5 2,5 0,0 -7,6 -16,5 -9,-2 -12,-11 -13,-15 2,0 3,-2 4,-3 1,-1 1,-2 1,-3 3,-1 5,-4 5,-8 0,-5 -3,-8 -6,-8 -4,0 -7,3 -7,8 0,2 1,4 2,6 -1,0 -1,1 -1,2 -2,2 -1,4 0,6 -3,2 -9,8 -15,8 -5,-1 -10,-5 -14,-8l0 -2c3,-1 5,-3 5,-7 0,-2 -1,-5 -4,-6 6,-1 9,-4 9,-7 0,-3 -3,-6 -8,-7 0,-1 0,-2 0,-3 0,-5 -2,-8 -5,-8 -3,0 -5,3 -5,8 0,1 0,2 1,3 -6,1 -10,4 -10,7 0,3 4,6 9,7 -2,2 -4,4 -4,6 0,3 2,5 4,7l0 2c-4,3 -9,7 -13,8 -7,0 -12,-6 -15,-9 2,-1 2,-3 1,-6 0,-1 -1,-1 -1,-2 1,-1 2,-3 2,-6 0,-4 -3,-8 -7,-8 -4,0 -7,4 -7,8 0,4 3,8 6,8 0,1 0,2 1,3 1,2 2,3 3,3 -1,5 -5,14 -14,16 -9,1 -16,-5 -16,-5 0,0 3,-4 2,-5 0,-1 -3,-3 -3,-3 0,0 3,-8 1,-11 -4,-5 -9,0 -9,0 0,0 -2,-4 -4,-5 -1,0 -4,0 -4,0 0,0 9,13 12,18 3,7 11,30 11,30 0,0 24,-5 32,-6 2,0 14,-1 26,-1 12,0 24,1 26,1 8,1 32,6 32,6 0,0 8,-23 12,-30 2,-5 11,-18 11,-18 0,0 -3,0 -4,0z"/>
    </g>
    <g>
     <g>
      <path class="fil2" d="M1174 1084c4,-2 5,-2 9,-4 1,1 1,1 1,2 -3,1 -4,1 -7,3 1,2 1,3 2,4 3,-1 4,-1 7,-2 0,0 0,1 0,1 -2,1 -3,2 -6,3 2,3 2,4 4,6 -1,1 -2,1 -2,1 -4,-5 -5,-8 -8,-14z"/>
      <path class="fil2" d="M1192 1088c0,2 0,4 0,6 -1,0 -1,0 -2,1 -1,-7 -1,-11 -1,-17 1,-1 2,-1 3,-1 5,5 7,7 12,12 -1,1 -2,1 -3,1 -1,-2 -2,-2 -3,-4 -3,1 -4,1 -6,2zm5 -3l0 0c-2,-2 -2,-2 -4,-4 -1,-1 -1,-2 -2,-2 0,0 0,0 0,0 0,1 0,2 0,3 0,2 0,3 1,5 2,-1 3,-2 5,-2zm-4 -13l0 0c-1,2 -1,3 -2,4 -1,0 -2,0 -2,1 0,-2 1,-2 1,-4 1,0 2,0 3,-1z"/>
      <path class="fil2" d="M1201 1074c1,-1 2,-2 4,-2 2,-1 4,-1 6,0 1,0 1,1 2,2 0,2 -1,4 -2,5 0,0 0,0 0,0 1,0 2,1 3,2 1,2 2,4 3,4 -1,0 -1,1 -2,1 -1,-1 -2,-2 -3,-4 -1,-1 -2,-2 -4,-1 -1,0 -1,0 -2,0 1,3 1,4 2,7 -1,0 -1,0 -2,0 -2,-5 -3,-8 -5,-14zm4 6l0 0c1,-1 2,-1 3,-1 2,-1 3,-2 3,-4 -1,-2 -3,-2 -5,-2 -2,1 -2,1 -3,1 1,2 2,4 2,6z"/>
      <path class="fil2" d="M1217 1069c2,6 3,9 4,15 0,0 -1,0 -2,0 -1,-6 -2,-9 -4,-15 1,0 1,0 2,0z"/>
      <path class="fil2" d="M1237 1080c-1,1 -2,1 -4,2 -5,1 -9,-1 -11,-6 -1,-5 2,-9 8,-10 2,-1 4,-1 4,-1 0,1 0,1 0,2 -1,0 -2,0 -4,0 -4,1 -6,4 -5,8 1,4 4,6 8,5 1,0 2,-1 3,-1 1,0 1,1 1,1z"/>
      <path class="fil2" d="M1242 1075c0,2 -1,3 -1,5 -1,0 -1,0 -2,0 1,-6 2,-10 3,-16 1,0 2,0 3,-1 3,6 5,9 8,16 -1,0 -1,0 -2,0 -1,-2 -2,-3 -3,-5 -2,0 -4,0 -6,1zm6 -3l0 0c-1,-1 -2,-2 -3,-4 0,-1 -1,-2 -1,-3 0,0 0,0 0,0 0,1 -1,2 -1,3 0,2 0,3 -1,5 2,0 3,0 6,-1z"/>
      <path class="fil2" d="M1260 1062c2,0 3,0 5,0 4,0 6,0 8,2 1,1 2,3 2,5 0,3 -1,5 -2,7 -2,1 -5,2 -8,2 -2,0 -3,0 -4,0 0,-6 -1,-9 -1,-16zm3 14l0 0c1,0 2,0 2,0 5,0 8,-2 8,-7 0,-3 -3,-6 -8,-6 -1,0 -2,1 -2,1 0,5 0,7 0,12z"/>
      <path class="fil2" d="M1288 1071c-3,0 -5,-1 -7,-1 -1,3 -1,4 -1,6 3,0 5,0 8,1 0,0 0,1 0,1 -4,0 -6,0 -10,0 0,-7 0,-10 1,-16 4,0 6,0 10,0 0,1 0,1 -1,2 -3,0 -4,0 -7,0 0,2 0,3 0,5 2,0 4,0 7,0 0,1 0,1 0,2z"/>
      <path class="fil2" d="M1302 1064c1,0 1,0 2,0 0,4 -1,6 -1,11 -1,4 -4,5 -6,4 -1,0 -2,0 -3,0 0,-1 0,-1 1,-2 0,0 1,1 2,1 2,0 3,-1 3,-4 1,-4 1,-6 2,-10z"/>
      <path class="fil2" d="M1309 1076c-1,2 -2,3 -3,4 -1,0 -1,0 -2,0 3,-6 5,-9 9,-15 1,1 2,1 3,1 1,7 2,10 2,17 -1,0 -1,-1 -2,-1 0,-2 0,-3 -1,-5 -2,0 -3,-1 -6,-1zm6 -1l0 0c0,-2 0,-3 -1,-4 0,-2 0,-3 0,-4 0,0 0,0 0,0 0,1 -1,2 -1,3 -2,2 -2,3 -3,4 2,1 3,1 5,1z"/>
      <path class="fil2" d="M1325 1068c1,0 3,0 4,1 3,0 4,1 5,2 1,1 1,2 0,3 0,2 -2,3 -4,3 0,0 0,0 0,0 2,1 4,3 3,5 -1,1 -2,2 -3,2 -1,1 -3,1 -6,0 -1,0 -2,0 -3,-1 1,-6 2,-9 4,-15zm0 7l0 0c1,0 2,0 2,1 3,0 5,-1 5,-2 1,-2 -1,-3 -3,-4 -1,0 -2,0 -2,0 -1,2 -1,3 -2,5zm-2 7l0 0c1,1 1,1 2,1 2,1 5,0 5,-2 1,-2 -1,-3 -3,-4 -1,0 -1,0 -2,0 -1,2 -1,3 -2,5z"/>
      <path class="fil2" d="M1352 1084c-3,6 -7,7 -11,5 -5,-1 -7,-5 -5,-10 1,-5 6,-7 11,-5 5,2 6,6 5,10zm-14 -4l0 0c-1,3 0,7 3,8 4,1 7,-1 8,-4 1,-3 1,-7 -3,-8 -4,-2 -7,1 -8,4zm14 -8l0 0c-2,1 -3,1 -5,2 0,-1 -1,-1 -2,-1 2,-1 3,-1 4,-2 1,1 2,1 3,1z"/>
      <path class="fil2" d="M1351 1093c3,-6 4,-9 7,-15 1,1 1,1 2,1 1,4 1,6 2,10 0,2 1,4 1,6 0,0 0,0 0,0 0,-2 1,-4 2,-6 2,-2 2,-3 4,-6 0,1 1,1 2,1 -3,6 -5,9 -8,14 -1,0 -1,0 -2,-1 -1,-3 -1,-5 -2,-9 0,-2 0,-4 0,-6 0,0 0,0 -1,0 0,1 -1,3 -2,6 -1,2 -2,3 -3,6 -1,0 -1,-1 -2,-1z"/>
     </g>
    </g>
    <g>
     <g>
      <path class="fil2" d="M1201 1189c1,1 2,1 3,1 -2,7 -3,10 -5,17 4,1 5,2 9,2 0,1 0,2 -1,3 -4,-2 -7,-2 -11,-4 2,-7 3,-11 5,-19z"/>
      <path class="fil2" d="M1215 1207c-1,2 -2,3 -3,6 -1,-1 -2,-1 -3,-1 5,-7 7,-11 11,-18 1,0 2,1 3,1 1,8 2,12 4,21 -2,-1 -2,-1 -3,-1 -1,-3 -1,-4 -1,-7 -3,0 -5,0 -8,-1zm7 -1l0 0c0,-2 0,-3 -1,-6 0,-1 0,-2 0,-3 0,0 0,0 0,0 0,1 -1,2 -2,3 -1,2 -2,3 -3,5 3,1 4,1 6,1z"/>
      <path class="fil2" d="M1251 1218c-1,0 -3,1 -5,0 -6,0 -10,-4 -9,-11 0,-6 5,-9 11,-9 3,0 4,1 5,2 0,0 -1,1 -1,2 -1,-1 -2,-1 -4,-2 -5,0 -8,2 -9,8 0,4 2,8 7,8 2,1 4,0 5,0 0,1 0,1 0,2z"/>
      <path class="fil2" d="M1273 1209c0,7 -5,11 -10,11 -6,-1 -10,-5 -9,-11 0,-6 4,-10 10,-10 5,0 9,5 9,10zm-16 0l0 0c-1,4 1,8 6,9 4,0 7,-4 7,-8 0,-4 -2,-8 -7,-9 -4,0 -6,4 -6,8z"/>
      <path class="fil2" d="M1276 1200c1,0 3,0 5,0 3,-1 5,0 6,1 1,1 2,2 2,4 0,2 -2,4 -4,5 0,0 0,0 0,0 2,0 3,2 3,4 1,2 2,4 2,5 -1,0 -2,0 -3,0 0,0 -1,-2 -1,-4 -1,-3 -2,-4 -5,-4 -1,0 -1,0 -2,0 0,3 0,5 0,9 -1,0 -2,0 -3,0 0,-8 0,-12 0,-20zm3 9l0 0c1,0 1,0 3,0 2,0 4,-2 4,-4 0,-3 -2,-4 -5,-3 -1,0 -2,0 -2,0 0,3 0,4 0,7z"/>
      <path class="fil2" d="M1310 1207c1,7 -3,11 -8,11 -6,1 -10,-3 -10,-9 -1,-6 3,-10 8,-11 6,0 10,3 10,9zm-16 2l0 0c1,4 3,8 8,7 4,0 6,-4 6,-9 -1,-3 -3,-7 -8,-7 -4,1 -6,5 -6,9z"/>
      <path class="fil2" d="M1315 1216c-1,-7 -1,-11 -3,-19 2,0 2,0 3,0 3,3 5,5 8,8 2,2 4,4 5,6 0,0 0,0 0,0 0,-3 -1,-5 -2,-8 0,-3 0,-5 -1,-8 1,0 1,-1 2,-1 2,8 3,12 4,20 -1,0 -1,0 -2,0 -4,-3 -6,-5 -9,-8 -2,-2 -3,-4 -5,-6 0,0 0,0 0,0 1,2 1,4 2,8 0,3 0,5 1,8 -1,0 -2,0 -3,0z"/>
      <path class="fil2" d="M1338 1206c0,2 0,4 -1,6 -1,1 -1,1 -3,1 2,-8 2,-13 3,-21 1,0 2,0 3,-1 5,7 7,11 12,17 -1,1 -2,1 -3,1 -1,-2 -2,-3 -4,-5 -3,1 -4,1 -7,2zm6 -4l0 0c-1,-2 -2,-3 -3,-5 -1,-1 -2,-2 -2,-3 0,0 0,0 0,0 0,1 0,2 0,4 -1,2 -1,3 -1,6 3,-1 4,-1 6,-2z"/>
     </g>
    </g>
   </g>
  </g>
  <g id="_2173354715024">
   <path class="fil3" d="M1195 250c0,9 -4,17 -11,22 -15,12 -38,10 -53,-1 -10,-8 -5,-22 -15,-22l-14 0c0,8 0,15 6,21 4,4 7,6 13,9 15,7 43,9 60,5 7,-2 11,-4 16,-6 9,-6 15,-15 15,-27l0 -77 -17 0 0 76z"/>
   <path class="fil4" d="M1257 243l13 0 0 -31c0,-6 7,-5 7,-2l0 27c0,7 6,6 13,6l0 -31c0,-13 -10,-11 -19,-11l0 -27 -14 0 0 69z"/>
   <path class="fil3" d="M1102 202c0,7 -1,16 9,18 4,1 15,0 15,4 0,4 1,9 -1,11 -2,1 -5,1 -7,-1 -1,-2 1,-10 -6,-10 -11,0 -10,-1 -10,3 0,11 9,16 18,16 9,0 21,0 21,-12 0,-7 1,-15 -9,-17 -7,-2 -15,1 -15,-6 0,-6 0,-10 6,-10 6,0 1,11 8,11l11 0c0,-6 -1,-11 -5,-14 -10,-7 -35,-5 -35,7z"/>
   <path class="fil3" d="M1168 243c11,0 21,-3 21,-15 0,-5 1,-4 -10,-4 -12,0 -3,11 -12,11 -2,0 -4,-2 -4,-4l0 -27c0,-2 1,-3 2,-4 1,-2 4,-2 6,0 2,3 -1,9 6,9l12 0c0,-7 -1,-10 -5,-14 -7,-5 -28,-6 -35,3 -3,4 -2,14 -2,21 0,3 -1,6 0,10 1,8 3,11 10,13 3,1 7,1 11,1z"/>
   <path class="fil4" d="M1384 233l0 -22c0,-5 7,-5 7,-1l0 23c0,5 -7,5 -7,0zm-14 -20l0 18c0,10 9,12 17,12 9,0 18,-3 18,-11l0 -19c0,-5 -3,-8 -5,-9 -6,-4 -30,-6 -30,9z"/>
   <path class="fil4" d="M1235 237c-2,0 -4,-1 -4,-2l0 -26c0,-2 7,-6 7,4l0 18c0,3 0,6 -3,6zm-17 -26l0 22c0,14 34,14 34,0l0 -22c0,-13 -34,-13 -34,0z"/>
   <path class="fil4" d="M1296 243l12 0 0 -33c0,-2 7,-5 7,3l0 22c0,1 -1,8 5,8l8 0 0 -32c0,-5 -4,-10 -9,-10l-23 0 0 42z"/>
   <path class="fil4" d="M1411 243l12 0 0 -32c0,-3 2,-3 3,-3 4,0 4,3 4,7l0 22c0,7 4,6 12,6l0 -33c0,-4 -3,-9 -9,-9l-22 0 0 42z"/>
   <path class="fil4" d="M1333 210c0,6 -1,13 8,15 5,1 11,-1 11,4 0,3 1,8 -3,8 -6,0 -1,-9 -8,-9 -5,0 -8,-1 -8,1 0,5 1,8 4,11 8,6 28,4 28,-6 0,-6 1,-13 -8,-15 -3,0 -5,0 -7,0 -5,0 -5,-4 -5,-8 0,-4 3,-4 5,-4 4,0 1,9 7,9l8 0 0 -3c0,-7 -6,-12 -14,-12 -6,0 -18,0 -18,9z"/>
   <path class="fil4" d="M1384 286l3 0c1,-2 2,-4 2,-5l1 0c0,1 1,4 1,5l3 0c1,-3 3,-7 3,-9l-2 0c0,1 -1,4 -2,5l-2 -5 -3 0c0,1 -1,4 -2,5l0 0c0,-2 -1,-4 -2,-5l-3 0c1,3 3,6 3,9z"/>
   <path class="fil4" d="M1314 258l0 8 2 0c0,-7 0,-8 3,-7l0 7 3 0 0 -6c0,-2 4,-3 4,1l0 5 2 0c0,-3 1,-13 -6,-8 -2,-1 -1,-1 -3,-1 -2,0 -1,0 -3,0 -1,0 1,0 -1,0 -1,0 -1,0 -1,1z"/>
   <path class="fil4" d="M1236 286l2 0c1,-2 1,-5 3,-6 0,2 1,4 2,6l3 0c0,-3 2,-6 2,-9l-2 0c0,1 -1,2 -1,3 0,1 0,2 -1,2 0,-1 -1,-4 -2,-5l-3 0c0,2 -1,4 -1,5 -1,0 -1,-1 -2,-2 0,-1 0,-2 0,-3l-3 0c0,2 2,7 3,9z"/>
   <path class="fil4" d="M1253 266l2 0c0,-4 0,-7 3,-8 1,2 1,3 1,8l2 0c0,-4 0,-7 2,-8 2,2 2,2 2,8l2 0c0,-6 1,-9 -4,-9 -1,0 -1,0 -2,1 -2,-2 -3,-2 -6,0l0 -1 -2 0 0 9z"/>
   <path class="fil4" d="M1225 256c0,2 1,3 1,5l-3 0c0,-2 1,-4 2,-5zm-7 10l3 0c1,-3 -1,-3 5,-3 2,0 2,2 2,3l3 0c-1,-3 -4,-11 -5,-13l-3 0c-1,1 -1,2 -1,3 -1,1 -1,2 -2,3 0,2 -1,5 -2,7z"/>
   <path class="fil4" d="M1333 259c2,0 1,0 2,-1 0,0 0,0 0,0 0,1 2,1 2,3 0,2 -1,2 -1,3l-3 0c0,-3 0,-2 0,-5zm-3 -1l0 11 3 0 0 -4c7,4 8,-8 2,-8 -2,0 0,0 -2,0 -1,0 1,0 -2,0 -1,0 -1,0 -1,1z"/>
   <path class="fil4" d="M1328 281c0,-4 3,-3 3,-1 0,2 1,4 -1,4 -2,0 -2,-1 -2,-3zm-3 5l2 0c0,0 1,0 1,0 1,-1 6,2 6,-5 0,-4 -3,-4 -6,-4l0 -4 -3 0 0 13z"/>
   <path class="fil4" d="M1423 282c0,-4 2,-3 4,-3 0,3 0,2 0,5 -2,0 -1,0 -3,0 0,-1 -1,-1 -1,-2zm4 -4c-6,-5 -10,8 -2,8 2,0 1,-1 3,0l2 0 0 -13 -3 0 0 5z"/>
   <path class="fil4" d="M1267 286l3 0 0 -5c1,1 3,4 3,5l4 0c-1,-1 -3,-4 -4,-5 0,-1 3,-4 3,-4l-3 0c-1,1 -2,2 -3,3l0 -7 -3 0 0 13z"/>
   <path class="fil4" d="M1247 264l-2 0c0,-3 1,-2 3,-2 0,1 0,2 -1,2zm-4 -4c0,0 1,0 1,-1 2,0 1,-1 4,-1 0,2 0,1 0,2 -9,0 -6,6 -2,6 0,0 2,-1 2,-1l1 1c1,0 1,0 2,0 0,-8 1,-9 -5,-9 -2,0 -3,1 -3,3z"/>
   <path class="fil4" d="M1314 284c-1,0 -1,-2 0,-2l2 0c0,1 0,2 -2,2zm-3 -4c5,0 0,-3 5,-1l0 1c-9,0 -6,6 -3,6 3,0 2,0 3,-1l0 1c3,0 3,0 3,-4 0,-5 -2,-5 -5,-5 -3,0 -3,1 -3,3z"/>
   <path class="fil4" d="M1216 284c-1,0 -2,0 -2,-1 0,-2 2,-1 4,-1 -1,1 -1,2 -2,2zm-3 -4c3,0 1,-1 3,-2 1,1 1,1 2,2 -3,0 -5,0 -6,2 0,1 -1,5 5,4 1,-1 0,0 3,0 0,-9 1,-9 -5,-9 -3,0 -4,3 -2,3z"/>
   <path class="fil4" d="M1305 262c0,-4 4,-6 4,0 0,2 -4,3 -4,0zm-3 -1c0,6 10,7 10,0 0,-6 -10,-6 -10,0z"/>
   <path class="fil4" d="M1340 279l0 0c2,0 2,0 2,1l-4 0c1,-1 1,-1 2,-1zm-5 3c0,5 9,6 9,1l-2 0c-1,2 -4,2 -4,-1l7 0c0,-5 -3,-5 -6,-5 -2,0 -4,2 -4,5z"/>
   <path class="fil4" d="M1345 264c-2,0 -1,0 -2,0 1,-3 1,-2 4,-2 0,1 -1,2 -2,2zm-4 -4l3 0 0 -2c2,0 2,0 3,2 -9,0 -6,6 -4,6 2,0 2,-1 4,-1l0 1c1,0 1,0 2,0 0,-8 1,-9 -5,-9 -2,0 -3,0 -3,3z"/>
   <path class="fil4" d="M1351 258l0 8 3 0 0 -6c0,-2 3,-2 3,0l0 6 3 0c0,-7 1,-9 -3,-9 -3,0 -1,0 -3,0 -1,0 1,0 -2,0 0,0 -1,0 -1,1z"/>
   <path class="fil4" d="M1367 280l-4 0c0,-1 0,-2 2,-1 1,0 1,0 2,1zm-7 1c0,5 3,5 6,5 2,0 3,-1 3,-3 -4,0 -2,1 -4,1 -2,0 -2,0 -2,-2l6 0c0,-7 -9,-6 -9,-1z"/>
   <path class="fil4" d="M1293 279c1,0 3,3 0,5 -1,0 -2,0 -2,-2 0,-2 0,-3 2,-3zm-5 2c0,4 1,5 6,5 5,0 5,-9 0,-9 -3,0 -6,0 -6,4z"/>
   <path class="fil4" d="M1401 282c0,-4 1,-4 3,-3 1,3 1,2 0,5 -2,1 -1,0 -3,0 0,-1 0,-1 0,-2zm-3 -1c0,7 10,6 10,0 0,-6 -10,-6 -10,0z"/>
   <path class="fil4" d="M1252 281l1 -2c3,-1 3,1 2,5l-1 0c-1,0 -2,-1 -2,-3zm-3 0c0,6 10,7 10,0 0,-6 -10,-5 -10,0z"/>
   <path class="fil4" d="M1282 266c0,1 -1,2 -2,3l3 0c1,-2 1,-4 2,-6 1,-2 2,-4 2,-6 -2,0 -3,0 -4,5l-1 -3c-1,-3 -1,-2 -3,-2 -3,0 3,6 3,9z"/>
   <path class="fil4" d="M1364 269l2 0c1,-3 5,-10 5,-12 -4,0 -3,1 -4,4l-1 1c0,-2 -1,-5 -4,-5 -3,0 3,6 3,8 0,2 -1,3 -1,4z"/>
   <path class="fil4" d="M1283 275l0 2 -2 0 0 2 2 0 0 7 2 0 0 -7 2 0 0 -2 -2 0c0,-2 0,-2 2,-2l0 -2c-1,0 -4,0 -4,2z"/>
   <path class="fil4" d="M1237 255l0 2c-2,0 -2,0 -2,2l2 0 0 7 3 0 0 -7 2 0c0,-2 0,-2 -2,-2 0,-2 0,-2 2,-2 0,-1 0,-3 -1,-3 -2,0 -4,1 -4,3z"/>
   <path class="fil4" d="M1293 261c0,6 7,7 8,1l-2 0c-1,2 0,2 -2,2 -2,0 -1,0 -1,-1 -2,-4 2,-7 3,-3l2 0c-1,-3 -1,-3 -4,-3 -2,0 -4,1 -4,4z"/>
   <path class="fil4" d="M1347 277l-2 0 0 2 2 0c0,8 0,7 5,7l0 -2c-2,0 -2,1 -2,-5l2 0 0 -2 -2 0 0 -3c-2,1 -3,1 -3,3z"/>
   <path class="fil4" d="M1223 277l-2 0 0 2 2 0c0,7 0,7 5,7l0 -2c-2,0 -1,0 -2,0 0,-2 0,-1 0,-5 2,0 2,0 2,-2l-2 0 0 -3c-2,1 -3,1 -3,3z"/>
   <path class="fil4" d="M1355 277l-2 0 0 2 2 0c0,7 -1,7 5,7l0 -2c-3,0 -3,-1 -3,-5 3,0 2,0 3,-2l-3 0 0 -3c-2,1 -2,1 -2,3z"/>
   <polygon class="fil4" points="1274,266 1277,266 1277,253 1274,253 "/>
   <path class="fil4" d="M1260 286c4,0 3,0 3,-3 0,-2 0,-2 1,-4 1,0 1,0 2,0l0 -2c-5,0 1,1 -4,0l-2 0 0 9z"/>
   <polygon class="fil4" points="1416,286 1419,286 1419,273 1416,273 "/>
   <path class="fil4" d="M1409 286l3 0c0,-5 0,-7 3,-7l0 -2c-5,0 1,1 -4,0l-2 0 0 9z"/>
   <path class="fil4" d="M1371 286l3 0c0,-4 -1,-7 3,-7l0 -2c-2,0 -2,0 -3,0l-1 0c-1,0 -1,0 -2,0l0 9z"/>
   <path class="fil4" d="M1299 286l3 0c0,-4 -1,-7 3,-7l0 -2c-2,0 -2,0 -3,0 0,0 0,0 0,0 0,0 0,0 0,0 0,0 -1,0 -1,0 -1,0 -1,0 -2,0l0 9z"/>
   <polygon class="fil4" points="1270,266 1272,266 1272,257 1270,257 "/>
   <polygon class="fil4" points="1270,255 1272,255 1272,253 1270,253 "/>
  </g>
  <g id="_2173641640768">
   <path class="fil5" d="M1705 277l0 -66 15 -3 0 56c3,-1 7,-2 9,-3 1,0 2,-1 3,-1l0 12c-1,0 0,0 -1,0 -1,0 -2,0 -2,1 -1,0 -2,0 -4,0 -2,1 -4,1 -6,2 -2,0 -13,3 -14,2zm64 -21c-2,13 -29,19 -33,9 -2,-3 -1,-31 -1,-38 0,-4 0,-10 0,-13 2,-13 28,-19 33,-9 1,3 1,20 1,25 0,4 0,23 0,26zm79 -17c-1,7 -7,10 -13,12 -8,3 -17,3 -20,-4 -1,-2 0,-31 0,-38 0,-3 -1,-10 0,-13 1,-3 3,-6 5,-7 7,-6 24,-10 28,-1 1,3 1,32 1,38 0,4 0,11 -1,13zm-147 13c0,4 0,9 0,12 0,5 0,7 -2,11 -5,7 -20,11 -27,9 -8,-3 -7,-10 -7,-19 0,-5 0,-34 0,-37 3,-13 27,-17 33,-11 3,2 3,6 3,10 0,4 0,9 0,12 -2,1 -11,3 -13,2 -2,-1 -1,-4 -1,-6 0,-2 0,-6 0,-8 -2,-1 -8,-1 -8,3 0,11 0,25 0,36 0,5 -1,7 6,5 3,-1 2,-3 2,-9 0,-5 0,-7 4,-8 3,-1 7,-1 10,-2zm102 -28c7,2 6,5 6,14 0,3 0,6 0,10 0,4 1,5 3,7 0,0 -10,2 -11,2 -2,1 -4,-1 -5,-2 -1,-1 -1,-3 -1,-6 0,-21 2,-21 -7,-18l0 29 -14 3 0 -66 16 -4c7,-1 19,-2 19,8 0,3 0,6 0,9 0,4 0,6 -2,9 -1,2 -2,3 -4,5zm90 14c-1,1 -7,1 -9,2 -5,1 -5,0 -7,-4 -1,-2 -5,-16 -5,-17 -2,7 -4,13 -6,19 -1,4 -1,6 -5,7 -4,1 -8,1 -11,2 1,-3 10,-31 12,-34 1,-5 1,-3 -1,-9l-12 -23c8,-1 14,-5 16,0 1,2 2,4 3,7 1,2 3,5 4,7l6 -17c1,-3 3,-4 6,-4 3,-1 7,-2 10,-2 -1,2 -3,6 -3,8l-7 16c-4,11 -4,7 -1,17 2,3 10,23 10,25zm-232 6l0 22c0,5 0,11 2,15 0,2 2,4 3,5 7,4 12,5 20,3 7,-1 7,-2 12,-4 1,-1 1,-1 2,-2 1,-1 2,-1 4,-1l0 2 26 -5c2,-1 4,-1 6,-2 3,0 3,0 6,1l31 13c6,3 5,3 11,1 4,-2 7,-3 11,-4 28,-12 53,-23 80,-38l8 -4c0,0 2,0 3,0 4,-1 8,-2 12,-3l4 -1 -1 -1 -2 -4 10 -6c3,-2 -2,-5 -6,-7 -3,-2 -6,-4 -9,-6 -3,-1 -2,-1 -4,-4 0,-2 -1,-3 -2,-5 -1,-3 0,-2 1,-5 0,-2 1,-3 1,-5 2,-3 3,-6 4,-9l9 -22 -3 0 0 -2c-2,0 -5,1 -8,2 -3,0 -6,1 -8,2 -5,1 -8,2 -10,6 0,1 -1,2 -1,3l-1 2c0,0 -1,-2 -1,-2 -1,-1 -1,-1 -2,-2 -1,0 -1,0 -2,-1 -2,-1 -2,-1 -5,-2 -6,1 -13,3 -19,4l1 2c-9,-2 -7,-1 -15,0l-6 2c-2,1 -5,-1 -7,-2 -10,-4 -21,-9 -31,-13 -2,0 -5,-2 -7,-1 -6,1 -47,19 -51,20 -8,4 -16,8 -24,12 -5,3 -12,6 -17,9l-34 19c-6,4 -4,4 4,8 1,2 3,3 5,4l0 6z"/>
   <path class="fil6" d="M1661 266l0 -22c-2,-1 -20,-12 -21,-13 -3,-4 3,-6 5,-8 2,-1 4,-2 7,-4 4,-2 8,-4 12,-7 13,-7 26,-14 39,-20 4,-2 9,-4 13,-6 5,-3 9,-5 14,-7 15,-6 27,-11 42,-17 8,-3 7,-3 15,1 5,1 9,3 14,5 2,1 27,11 28,12 8,-1 6,-2 15,0l-1 -2c6,-1 13,-3 19,-4 -2,-1 -15,-7 -18,-8 -18,-8 -37,-16 -57,-22 -3,-1 -7,-3 -10,-2 -6,2 -24,8 -30,11 -30,11 -62,26 -90,41 -10,6 -15,9 -24,15 -3,2 -2,1 -2,4 -1,2 -1,4 -1,7 -1,8 -1,17 0,25 0,3 0,3 2,4 1,1 3,2 4,3 4,2 13,8 17,10 1,1 7,4 8,4z"/>
   <path class="fil6" d="M1901 241l1 1 -4 1c-1,1 -18,10 -20,11 -6,4 -13,7 -20,10 -21,11 -51,24 -74,33 -6,2 -5,2 -11,0 -11,-5 -22,-9 -32,-14 -4,-1 -7,-3 -11,-4l-26 5 0 -2c-2,0 -3,0 -4,1 -1,1 -1,1 -2,2l1 1c1,0 1,1 2,1l11 5c12,6 31,14 44,18 5,2 10,4 15,6 9,3 8,3 17,0 30,-11 59,-24 87,-38 17,-8 32,-16 47,-26 3,-1 4,-3 7,-4 1,-9 0,-21 0,-30 -1,-7 0,-7 -3,-9 -5,-3 -27,-17 -32,-19 -1,3 -2,6 -4,9 0,2 -1,3 -1,5 -1,3 -2,2 -1,5 1,0 3,1 5,2 1,1 2,2 4,2 3,2 6,4 8,5l13 8c2,2 2,4 1,5 -1,1 -16,10 -18,10z"/>
   <path class="fil7" d="M1788 203c0,0 6,-2 7,0 0,1 0,7 0,8 0,9 2,11 -7,11l0 -19zm15 21c2,-2 3,-3 4,-5 2,-3 2,-5 2,-9 0,-3 0,-6 0,-9 0,-10 -12,-9 -19,-8l-16 4 0 66 14 -3 0 -29c9,-3 7,-3 7,18 0,3 0,5 1,6 1,1 3,3 5,2 1,0 11,-2 11,-2 -2,-2 -3,-3 -3,-7 0,-4 0,-7 0,-10 0,-9 1,-12 -6,-14z"/>
   <path class="fil7" d="M1831 194c3,0 4,0 4,3l0 34c0,8 2,10 -3,11 -3,0 -4,0 -4,-3l0 -34c0,-9 -1,-10 3,-11zm17 45c1,-2 1,-9 1,-13 0,-6 0,-35 -1,-38 -4,-9 -21,-5 -28,1 -2,1 -4,4 -5,7 -1,3 0,10 0,13 0,7 -1,36 0,38 3,7 12,7 20,4 6,-2 12,-5 13,-12z"/>
   <path class="fil7" d="M1752 211c2,0 4,0 4,3l0 20c0,5 0,10 0,14 0,8 1,10 -4,11 -2,0 -4,0 -4,-2l0 -35c0,-9 -1,-10 4,-11zm17 45c0,-3 0,-22 0,-26 0,-5 0,-22 -1,-25 -5,-10 -31,-4 -33,9 0,3 0,9 0,13 0,7 -1,35 1,38 4,10 31,4 33,-9z"/>
   <path class="fil7" d="M1701 252c-3,1 -7,1 -10,2 -4,1 -4,3 -4,8 0,6 1,8 -2,9 -7,2 -6,0 -6,-5 0,-11 0,-25 0,-36 0,-4 6,-4 8,-3 0,2 0,6 0,8 0,2 -1,5 1,6 2,1 11,-1 13,-2 0,-3 0,-8 0,-12 0,-4 0,-8 -3,-10 -6,-6 -30,-2 -33,11 0,3 0,32 0,37 0,9 -1,16 7,19 7,2 22,-2 27,-9 2,-4 2,-6 2,-11 0,-3 0,-8 0,-12z"/>
   <path class="fil7" d="M1893 238c0,-2 -8,-22 -10,-25 -3,-10 -3,-6 1,-17l7 -16c0,-2 2,-6 3,-8 -3,0 -7,1 -10,2 -3,0 -5,1 -6,4l-6 17c-1,-2 -3,-5 -4,-7 -1,-3 -2,-5 -3,-7 -2,-5 -8,-1 -16,0l12 23c2,6 2,4 1,9 -2,3 -11,31 -12,34 3,-1 7,-1 11,-2 4,-1 4,-3 5,-7 2,-6 4,-12 6,-19 0,1 4,15 5,17 2,4 2,5 7,4 2,-1 8,-1 9,-2z"/>
   <path class="fil8" d="M1661 244l0 -6c-2,-1 -4,-2 -5,-4 -8,-4 -10,-4 -4,-8l34 -19c5,-3 12,-6 17,-9 8,-4 16,-8 24,-12 4,-1 45,-19 51,-20 2,-1 5,1 7,1 10,4 21,9 31,13 2,1 5,3 7,2l6 -2c-1,-1 -26,-11 -28,-12 -5,-2 -9,-4 -14,-5 -8,-4 -7,-4 -15,-1 -15,6 -27,11 -42,17 -5,2 -9,4 -14,7 -4,2 -9,4 -13,6 -13,6 -26,13 -39,20 -4,3 -8,5 -12,7 -3,2 -5,3 -7,4 -2,2 -8,4 -5,8 1,1 19,12 21,13z"/>
   <path class="fil7" d="M1705 277c1,1 12,-2 14,-2 2,-1 4,-1 6,-2 2,0 3,0 4,0 0,-1 1,-1 2,-1 1,0 0,0 1,0l0 -12c-1,0 -2,1 -3,1 -2,1 -6,2 -9,3l0 -56 -15 3 0 66z"/>
   <path class="fil8" d="M1730 279c4,1 7,3 11,4 10,5 21,9 32,14 6,2 5,2 11,0 23,-9 53,-22 74,-33 7,-3 14,-6 20,-10 2,-1 19,-10 20,-11 -4,1 -8,2 -12,3 -1,0 -3,0 -3,0l-8 4c-27,15 -52,26 -80,38 -4,1 -7,2 -11,4 -6,2 -5,2 -11,-1l-31 -13c-3,-1 -3,-1 -6,-1 -2,1 -4,1 -6,2z"/>
   <path class="fil5" d="M1831 194c-4,1 -3,2 -3,11l0 34c0,3 1,3 4,3 5,-1 3,-3 3,-11l0 -34c0,-3 -1,-3 -4,-3z"/>
   <path class="fil5" d="M1752 211c-5,1 -4,2 -4,11l0 35c0,2 2,2 4,2 5,-1 4,-3 4,-11 0,-4 0,-9 0,-14l0 -20c0,-3 -2,-3 -4,-3z"/>
   <path class="fil8" d="M1901 241c2,0 17,-9 18,-10 1,-1 1,-3 -1,-5l-13 -8c-2,-1 -5,-3 -8,-5 -2,0 -3,-1 -4,-2 -2,-1 -4,-2 -5,-2 1,2 2,3 2,5 2,3 1,3 4,4 3,2 6,4 9,6 4,2 9,5 6,7l-10 6 2 4z"/>
   <path class="fil5" d="M1788 203l0 19c9,0 7,-2 7,-11 0,-1 0,-7 0,-8 -1,-2 -7,0 -7,0z"/>
   <path class="fil9" d="M1912 263c9,-2 13,12 4,15 -9,2 -13,-12 -4,-15zm0 -1c-11,2 -8,19 4,17 11,-2 8,-20 -4,-17z"/>
   <path class="fil9" d="M1913 270l0 -3c3,-1 4,4 0,3zm3 1c3,-1 2,-4 1,-5 -1,-1 -5,-1 -7,0l0 9 3 0 0 -3c3,0 2,1 3,3l2 0c0,-1 0,-2 0,-3 -1,-1 -1,0 -2,-1z"/>
   <path class="fil10" d="M1873 179l-2 0c0,0 1,2 1,2l1 -2z"/>
  </g>
  <g id="_2173641640608">
   <g>
    <path class="fil11" d="M926 686l1 0c0,0 1,-1 1,-1 0,-1 -1,-1 -1,-1 -1,0 -1,0 -1,0l0 2zm0 3l-2 0 0 -6c1,0 2,-1 3,-1 1,0 2,1 2,1 1,0 1,1 1,1 0,1 -1,2 -1,2l0 0c0,0 1,1 1,2 0,1 0,1 0,1l-2 0c0,0 0,0 0,-1 0,-1 -1,-1 -1,-1l-1 0 0 2zm1 -8c-3,0 -5,2 -5,5 0,3 2,5 5,5 3,0 5,-2 5,-5 0,-3 -2,-5 -5,-5l0 0zm0 -2c4,0 7,3 7,7 0,4 -3,7 -7,7 -4,0 -7,-3 -7,-7 0,-4 3,-7 7,-7l0 0zm0 0l0 0 0 0z"/>
   </g>
   <g>
    <path class="fil11" d="M613 620c-13,0 -19,8 -19,24l0 81c0,15 6,23 19,23 12,0 19,-8 19,-23l0 -25c0,-1 -1,-2 -2,-2l-11 0c-1,0 -2,1 -2,2l0 26c0,4 -1,7 -4,7 -4,0 -4,-3 -4,-7l0 -84c0,-4 0,-7 4,-7 3,0 4,3 4,7l0 24c0,1 1,2 2,2l11 0c1,0 2,-1 2,-2l0 -22c0,-16 -7,-24 -19,-24l0 0zm121 56c-1,0 -2,0 -2,0l0 -36c1,0 1,0 2,0 6,0 9,6 9,18 0,12 -3,18 -9,18l0 0zm11 14c7,-4 11,-16 11,-34 0,-25 -8,-36 -23,-36l-13 0c-1,0 -1,1 -1,2l0 124c0,1 0,2 1,2l10 0c1,0 2,-1 2,-2l0 -49c0,-1 0,-1 0,0l11 49c0,2 1,2 2,2l11 0c1,0 2,0 2,-1l-13 -57zm-48 36c0,4 -1,7 -5,7 -3,0 -4,-3 -4,-7l0 -84c0,-4 1,-7 4,-7 4,0 5,3 5,7l0 84zm-5 -106c-12,0 -18,8 -18,24l0 81c0,15 6,23 18,23 13,0 19,-8 19,-23l0 -81c0,-16 -6,-24 -19,-24l0 0zm94 86l-5 0c-1,0 -2,-1 -2,-2 0,0 4,-31 4,-51 0,-2 0,-4 0,-6 0,3 1,5 1,8 0,20 4,49 4,49 0,1 -1,2 -2,2l0 0zm3 -86l-11 0c-1,0 -2,1 -2,2l-16 124c0,2 1,2 2,2l10 0c1,0 2,-1 2,-2l2 -18c0,-1 1,-2 2,-2l10 0c1,0 2,1 2,2l2 18c0,1 1,2 2,2l11 0c1,0 1,0 1,-2l-15 -124c0,-1 -1,-2 -2,-2l0 0zm50 111l-14 0c-1,0 -2,-1 -2,-2l0 -107c0,-1 0,-2 -2,-2l-10 0c-1,0 -2,1 -2,2l0 124c0,1 1,2 2,2l28 0c1,0 2,-1 2,-2l0 -13c0,-1 -1,-2 -2,-2l0 0zm-172 0l-14 0c-1,0 -2,-1 -2,-2l0 -107c0,-1 -1,-2 -2,-2l-10 0c-1,0 -2,1 -2,2l0 124c0,1 1,2 2,2l28 0c1,0 2,-1 2,-2l0 -13c0,-1 -1,-2 -2,-2l0 0zm254 16l-15 -62c0,-1 0,-2 0,-3l14 -60c0,-1 -1,-2 -2,-2l-10 0c-1,0 -2,1 -3,2l-5 25c0,4 -1,9 -2,16 -1,-8 -2,-14 -2,-14 0,-1 0,-3 0,-4l-5 -23c0,-1 -1,-2 -2,-2l-11 0c-1,0 -2,1 -1,2l13 60c1,1 1,2 0,3l-15 62c0,1 1,1 2,1l12 0c1,0 2,0 2,-2l4 -24c1,-4 2,-10 3,-19 1,8 2,14 3,19l5 24c0,2 1,2 2,2l11 0c1,0 2,0 2,-1l0 0zm-49 -127l-26 0c-1,0 -2,1 -2,2l0 124c0,1 1,2 2,2l26 0c1,0 1,-1 1,-2l0 -13c0,-1 0,-2 -1,-2l-13 0c-1,0 -1,-1 -1,-2l0 -34c0,-1 0,-2 1,-2l8 0c1,0 2,-1 2,-2l0 -14c0,-1 -1,-1 -2,-1l-8 0c-1,0 -1,-1 -1,-2l0 -34c0,-1 0,-2 1,-2l13 0c1,0 1,-1 1,-2l0 -14c0,-1 0,-2 -1,-2z"/>
   </g>
   <g>
    <path class="fil12" d="M734 621l-13 0c-1,0 -1,1 -1,2l0 122c0,1 0,2 1,2l1 0 0 -122c0,-1 1,-2 2,-2l12 0c5,0 9,2 13,5 -4,-5 -9,-7 -15,-7l0 0zm2 78c-1,-3 -3,-2 -3,-2l11 48c0,1 1,2 2,2 0,0 0,0 0,0l-10 -48zm55 8c0,0 -6,-48 -6,-51 0,20 4,49 4,49 0,1 -1,2 -2,2l-5 0c-1,0 -1,0 -1,0 0,1 1,2 3,2l5 0c1,0 2,0 2,-2l0 0zm-93 -69c0,0 -1,-1 -1,-1 1,1 1,3 1,6l0 84c0,5 -1,7 -4,7 -1,0 -2,0 -2,0 0,0 1,2 4,2 3,0 4,-2 4,-7l0 -84c0,-3 0,-6 -2,-7l0 0zm182 -13c0,-1 1,-2 2,-2l9 0c-1,-1 -1,-2 -2,-2l-9 0c-2,0 -2,1 -2,2l14 59c0,1 0,2 0,3l-15 60c-1,1 0,2 1,2l1 0 15 -60c0,-1 0,-2 0,-3l-14 -59zm-10 107l-12 0c0,0 0,0 0,0 0,0 0,2 3,2l11 0 0 0c0,-1 -1,-2 -2,-2l0 0zm34 -8c-1,-5 -2,-11 -3,-19 0,0 0,-2 -2,-2 1,8 2,14 3,19l5 23c0,1 1,2 2,2 0,0 0,0 0,0l-5 -23zm-33 -103l-24 0c-1,0 -2,1 -2,2l0 122c0,1 1,2 2,2l0 0 0 -122c0,-1 1,-2 2,-2l24 0 0 0c0,-1 -1,-2 -2,-2l0 0zm-179 0c-11,0 -17,8 -17,23l0 80c0,10 2,16 7,20 -4,-4 -5,-10 -5,-18l0 -80c0,-15 6,-23 17,-23 4,0 8,2 11,4 -3,-4 -7,-6 -13,-6l0 0zm98 2c0,-1 -1,-2 -2,-2l-9 0c-1,0 -2,1 -2,2l-15 122c0,1 0,2 1,2l1 0 15 -122c0,-1 1,-2 2,-2l9 0zm0 102c1,1 1,1 1,2l2 18c0,1 1,2 2,2l0 0 -2 -18c0,-2 -2,-3 -3,-4l0 0zm71 -46l7 0 0 0c0,-1 -1,-2 -2,-2l-8 0c0,0 0,0 0,0 0,0 0,2 3,2l0 0zm-23 53l-14 0c0,0 0,0 0,0 0,0 0,2 3,2l13 0 0 0c0,-1 -1,-2 -2,-2l0 0zm-17 -111l-9 0c-1,0 -2,1 -2,2l0 122c0,1 1,2 2,2l0 0 0 -122c0,-1 1,-2 2,-2l8 0 0 0c0,-1 0,-2 -1,-2l0 0zm-155 111l-14 0c0,0 0,0 0,0 0,0 0,2 2,2l14 0 0 0c0,-1 -1,-2 -2,-2l0 0zm251 -111l-9 0c-1,0 -2,1 -2,2l-4 25c-1,3 -2,8 -3,15 0,0 1,2 2,2 1,-7 2,-12 3,-15l4 -25c1,-1 2,-2 3,-2l8 0c0,-1 -1,-2 -2,-2l0 0zm-183 56c0,0 -1,0 -1,0l0 2c0,0 3,0 4,0 6,0 9,-6 9,-19 0,-9 -2,-14 -5,-16 0,-1 0,-1 -1,-2 0,0 0,0 0,0 2,3 3,8 3,16 0,13 -3,19 -9,19l0 0zm-85 -56l-9 0c-1,0 -2,1 -2,2l0 122c0,1 1,2 2,2l0 0 0 -122c0,-1 1,-2 1,-2l9 0 0 0c0,-1 -1,-2 -1,-2l0 0zm-20 78l-9 0c-1,0 -2,1 -2,2l0 25c0,5 -1,8 -4,8 0,0 -1,0 -2,0 1,0 2,2 4,2 3,0 4,-3 4,-7l0 -26c0,-1 1,-2 2,-2l9 0 0 0c0,-1 -1,-2 -2,-2l0 0zm-9 -32l0 0 0 -23c0,-4 0,-7 -3,-8 0,0 0,0 0,0 1,1 1,3 1,6l0 24c0,1 1,1 2,1l0 0zm-5 -44c4,0 8,2 11,4 -3,-4 -7,-6 -13,-6 -12,0 -18,8 -18,23l0 80c0,10 3,16 7,20 -3,-4 -5,-10 -5,-18l0 -80c0,-15 6,-23 18,-23z"/>
   </g>
  </g>
  <path class="fil13" d="M1272 601c83,0 150,37 150,83 0,47 -67,84 -150,84 -83,0 -150,-37 -150,-84 0,-46 67,-83 150,-83zm0 7c-79,0 -142,34 -142,76 0,42 63,76 142,76 79,0 142,-34 142,-76 0,-42 -63,-76 -142,-76zm-26 84l-30 0c0,8 5,11 11,11 4,0 7,-3 8,-5l10 0c-3,9 -10,13 -19,13 -12,0 -20,-9 -20,-21 0,-12 8,-21 20,-21 14,0 20,11 20,23l0 0zm-20 -16c-6,0 -9,4 -10,10l19 0c0,-6 -3,-10 -9,-10l0 0zm147 16l-29 0c0,8 4,11 10,11 5,0 8,-3 9,-5l10 0c-3,9 -10,13 -19,13 -13,0 -20,-9 -20,-21 0,-12 8,-21 20,-21 14,0 20,11 19,23l0 0zm-19 -16c-6,0 -9,4 -10,10l19 0c-1,-6 -3,-10 -9,-10l0 0zm-200 34l11 0 0 -24 24 0 0 24 11 0 0 -56 -11 0 0 23 -24 0 0 -23 -11 0 0 56zm98 0l10 0 0 -22c0,-8 3,-11 9,-11 5,0 7,3 7,9l0 24 11 0 0 -25c0,-10 -3,-16 -15,-16 -5,0 -10,2 -12,6l-1 0 0 -5 -9 0 0 40zm45 0l11 0 0 -22 15 22 13 0 -17 -23 15 -17 -13 0 -13 17 0 -33 -11 0 0 56zm83 0l10 0 0 -56 -10 0 0 56z"/>
  <path class="fil14" d="M1779 597l46 31c3,2 6,5 11,3 9,-3 5,-15 6,-24l18 -1c2,14 -4,41 5,49 4,3 26,17 33,21 4,3 12,10 18,4 2,-2 3,-6 2,-10 -2,-3 -5,-4 -8,-6l-32 -21c-1,-1 0,-28 0,-31 0,-9 2,-22 -9,-23 -9,0 -21,0 -30,0 -12,0 -15,1 -14,17 -3,-1 -8,-5 -10,-7 -8,-4 -25,-17 -31,-20 -5,-3 -9,0 -12,2 -4,2 -7,5 -10,7 -33,22 -67,43 -99,66 -1,0 -2,0 -3,1 -3,3 -6,5 -10,7 -3,2 -7,5 -9,8 -2,5 1,9 4,11 5,3 9,0 12,-3 12,-8 29,-18 41,-27 14,-9 27,-18 41,-27l40 -27zm121 20c2,0 4,1 7,2 2,1 4,3 5,5 1,3 2,5 2,7 0,3 -1,5 -2,7 -1,3 -3,4 -5,6 -3,1 -5,2 -7,2 -3,0 -5,-1 -7,-2 -3,-2 -4,-3 -6,-6 -1,-2 -2,-4 -2,-7 0,-2 1,-4 2,-7 2,-2 3,-4 6,-5 2,-1 4,-2 7,-2zm0 3c-2,0 -4,1 -6,1 -2,1 -3,3 -4,5 -1,2 -2,3 -2,5 0,2 1,4 2,6 1,2 2,3 4,4 2,1 4,2 6,2 2,0 3,-1 5,-2 2,-1 3,-2 4,-4 1,-2 2,-4 2,-6 0,-2 -1,-3 -2,-5 -1,-2 -2,-4 -4,-5 -2,0 -3,-1 -5,-1zm-7 19l0 -15 3 0c3,0 5,0 5,0 1,0 2,0 2,1 1,0 1,0 2,1 0,1 0,1 0,2 0,1 0,2 -1,3 0,1 -1,1 -3,1 1,1 1,1 1,1 1,0 1,1 1,1 0,0 1,1 1,2l2 3 -4 0 -1 -2c-1,-2 -1,-3 -2,-4 0,0 -1,0 -2,0l-1 0 0 6 -3 0zm3 -9l1 0c2,0 3,0 4,0 0,0 1,0 1,0 0,-1 0,-1 0,-2 0,0 0,0 0,-1 0,0 -1,0 -1,0 -1,-1 -2,-1 -4,-1l-1 0 0 4zm-148 28c1,16 1,32 1,48 0,8 -1,15 5,19 6,3 13,3 19,0l-3 -13c-3,1 -4,1 -4,-2 -1,-5 -1,-33 -1,-40 0,-5 0,-9 0,-15l-17 3zm80 18c3,9 3,14 3,24 0,9 0,18 0,27l17 0 0 -33c0,-2 -1,-4 1,-5 3,-2 6,-3 10,-3 2,4 1,34 1,41l17 0c0,-9 1,-39 0,-45 -2,-5 -6,-9 -12,-10 -8,-1 -13,2 -19,5 -1,-2 -2,-4 -2,-6 -2,1 -14,4 -16,5zm-48 51l44 0 0 -14 -27 0 0 -15 20 0 0 -13 -20 0 0 -13 24 0 2 -13 -43 0 0 68zm-66 -50l6 21 -12 1 6 -22zm-32 49l17 0c2,-3 3,-9 5,-13l19 0c2,4 4,10 6,13l17 0 -23 -67 -17 0 -24 67zm9 65l177 0c12,0 9,-12 9,-22 0,-11 1,-21 0,-32l-17 0 0 36 -160 0c-1,-3 -1,-30 -1,-36l-17 0c0,11 0,21 0,32 0,9 -2,22 9,22z"/>
  <g>
   <path class="fil15" d="M318 1114l-20 0 -24 0 -34 0 -13 21 59 0 24 0c4,0 9,1 12,-1 2,-1 4,-4 5,-7 1,-2 9,-15 10,-16 -2,1 -2,2 -4,2 -1,1 -3,1 -5,1 -3,0 -7,-1 -10,0z"/>
   <path class="fil15" d="M297 1153l-81 0c-1,3 -3,5 -4,8 -2,3 -3,5 -3,9 2,5 7,5 12,5l67 0c13,0 13,1 17,-8 2,-4 6,-10 8,-13 0,-1 1,-2 1,-3 0,0 -1,0 -1,1 -3,2 -11,1 -16,1z"/>
   <path class="fil16" d="M215 1114c0,0 -5,9 -6,10 -2,4 -4,8 -6,11 -1,1 -2,3 -2,4 -1,1 -2,3 -3,4 -2,5 0,7 2,10 1,3 3,6 4,8 1,1 5,8 5,9 0,-4 1,-6 3,-9 1,-3 3,-5 4,-8 2,-3 4,-6 6,-9 1,-1 1,-3 2,-4 1,-1 2,-4 3,-5l13 -21 8 -15c2,-3 7,-12 9,-15 -2,-3 -10,-16 -12,-20 -1,0 -4,5 -4,6 -5,8 -10,17 -15,25l-9 16c0,0 -1,2 -2,3z"/>
   <path class="fil17" d="M223 1032c4,0 5,3 7,6 0,1 1,3 2,4 1,1 2,3 2,4 0,0 0,0 1,0 1,3 9,17 10,18 2,4 10,17 12,20l12 22c2,3 4,5 5,8l24 0c0,-1 -3,-6 -4,-7l-25 -44 -5 -8c-2,-2 -6,-10 -7,-13 -1,0 -4,-5 -5,-6 -1,-3 -2,-4 -7,-4l-19 0c-1,0 -2,-1 -3,0z"/>
   <path class="fil16" d="M188 1131c-1,-4 1,-7 3,-9 0,-2 1,-3 2,-4 1,-1 1,-3 2,-4l30 -51c2,-3 8,-14 9,-17 0,-1 -1,-3 -2,-4 -1,-1 -2,-3 -2,-4 -2,-3 -3,-6 -7,-6 0,0 -4,-1 -6,3 -2,1 -3,4 -4,6 -1,2 -3,4 -4,6 -3,6 -7,14 -11,19 -7,13 -15,26 -21,38 -2,3 -2,5 0,8l10 18c0,1 0,1 1,1z"/>
   <path class="fil17" d="M279 1046c0,1 0,0 0,1l10 16c1,3 3,6 5,9l7 12c1,2 1,3 2,4l15 26c3,-1 7,0 10,0 2,0 4,0 5,-1 2,0 2,-1 4,-2 3,-3 -2,-10 -4,-13l-14 -24c-3,-5 -6,-12 -10,-18l-10 -18c-4,-7 -5,-6 -12,-6 -6,0 -13,-1 -19,0l1 0c1,0 2,2 3,2 1,2 7,11 7,12z"/>
   <path class="fil15" d="M308 1203l1 2c0,0 0,1 1,1l5 13c0,1 2,3 2,5l-17 0 8 -21zm-28 42l11 0c1,-1 4,-11 5,-12l25 0 5 12 11 0c0,0 -5,-12 -6,-14l-17 -40c-1,0 -4,0 -5,0 -3,0 -5,2 -6,4 -2,3 -18,40 -21,47 0,1 -1,3 -2,3z"/>
   <path class="fil15" d="M208 1230c0,5 -4,7 -9,7 -3,0 -5,0 -8,-1 -3,-1 -7,-4 -11,-1 -2,1 -3,3 -4,4l1 1c2,1 6,3 8,4 8,3 20,3 27,-2l2 -2c5,-4 8,-19 -5,-24 -4,-1 -8,-2 -12,-3 -4,-2 -8,-3 -8,-7 0,-7 9,-8 15,-5 5,1 8,3 12,-2 0,-1 1,-2 1,-2 -6,-6 -20,-8 -29,-5 -5,2 -9,7 -9,13 -1,4 0,8 3,11 0,1 1,1 2,2 9,6 24,4 24,12z"/>
   <path class="fil15" d="M226 1218c0,7 3,13 6,17 0,1 0,1 1,2 0,0 0,0 1,0 1,2 1,2 3,4 10,7 25,7 35,0 0,-1 1,-1 1,-2 1,-1 2,-1 3,-3l-5 -4c-1,-1 -1,-2 -2,-2 0,0 -1,1 -1,2 -10,10 -31,6 -31,-14 0,-5 2,-11 6,-14 5,-5 13,-6 20,-2 5,3 9,2 12,-3 0,0 0,0 0,0l-4 -4c-2,-1 -6,-3 -10,-4 -18,-4 -35,9 -35,27z"/>
   <path class="fil17" d="M297 1153c5,0 13,1 16,-1 0,-1 1,-1 1,-1 2,-3 2,-5 1,-9 -2,-2 -3,-5 -5,-7l-24 0 8 14c1,1 2,3 3,4z"/>
   <path class="fil15" d="M188 1131c1,6 9,4 15,4 2,-3 4,-7 6,-11 1,-1 6,-10 6,-10l-20 0c-1,1 -1,3 -2,4 -1,1 -2,2 -2,4 -2,2 -4,5 -3,9z"/>
   <path class="fil16" d="M257 1042c1,3 5,11 7,13l5 8c0,0 2,-3 2,-4l8 -13c0,-1 -6,-10 -7,-12 -1,0 -2,-2 -3,-2l-1 0c-6,-1 -7,3 -10,9 -1,0 -1,0 -1,1l0 0z"/>
  </g>
  <path class="fil18" d="M1826 1125c0,-4 3,-10 5,-12 6,-6 15,-6 13,4 -1,4 -1,4 -5,5 -4,1 -9,2 -13,3zm114 -52c5,-1 5,4 0,3l0 -3zm-1 8l1 0 0 -4c5,0 2,4 5,4 0,-2 -1,-4 -2,-4 1,-1 3,-2 1,-5 -1,-1 -3,-1 -5,0l0 9zm1 -11c4,-1 7,2 8,4 1,4 -2,7 -4,8 -8,2 -12,-9 -4,-12zm0 -1c-10,2 -6,17 4,15 3,-1 6,-5 5,-9 -1,-4 -4,-7 -9,-6zm-210 63c2,0 17,-4 21,-4 3,-1 3,-1 4,-3l3 -10c0,-2 2,-4 0,-5 -2,-3 -9,1 -13,5l-9 10c-1,1 -6,6 -6,7zm-16 -5c-1,0 -18,19 -20,20 -2,3 -4,5 -6,7l-26 28c-1,1 -2,2 -3,3 -1,1 -2,2 -3,4 -1,1 -8,6 -9,3 0,-2 9,-39 10,-44l4 -16c0,-4 0,-4 -1,-5 -4,0 -1,-1 -6,1l-28 8c-3,1 -8,2 -8,6 2,3 6,7 5,13 -1,5 -3,10 -4,15 -2,10 -4,20 -7,30 -2,10 -7,23 6,25 12,0 22,-4 29,-9 3,-3 6,-5 9,-8l18 -20c1,-1 3,-3 4,-5l39 -43c0,-1 1,-2 2,-3 5,-4 12,-13 17,-18l24 -28c5,-5 10,-11 15,-16l19 -22c0,0 1,0 -1,0 -5,2 -10,0 -15,4 -2,2 -7,8 -9,10 -3,4 -6,7 -9,10 -9,10 -19,20 -28,30l-18 19c0,1 0,0 0,1zm10 19c0,2 -5,16 -6,19 -3,8 -2,16 5,17 10,2 20,-6 26,-12 1,0 6,-5 7,-6 0,6 2,9 9,9 5,0 10,-2 14,-4 8,-4 13,-9 19,-15 2,3 4,5 7,7 10,3 24,0 33,-4 6,-3 11,-7 15,-11 2,-2 13,-12 14,-13 1,4 2,7 3,11 1,4 1,7 7,6 4,-1 21,-4 23,-4 0,-2 0,-2 0,-3 -1,0 -1,0 -1,0l-1 -3c0,-1 0,-2 -1,-3 0,-2 -1,-3 -1,-5l-5 -17c-1,-4 -2,-4 0,-6 4,-3 10,-8 14,-12 7,-6 15,-14 21,-19 1,-1 4,-3 4,-4 -2,0 -6,1 -7,2 -3,0 -4,1 -6,3 -3,2 -6,5 -10,8l-9 9c-1,1 -9,7 -10,8 0,-3 -2,-6 -3,-9 -1,-4 -1,-5 -6,-5 -7,1 -15,2 -21,3 -4,2 -2,5 -1,8l7 22c1,2 2,3 0,4l-12 11c-4,4 -10,9 -13,11 -9,4 -19,3 -17,-8 0,-3 0,-4 2,-4 2,-1 6,-2 9,-3 3,-1 6,-2 9,-3 1,0 7,-2 8,-3 2,-5 3,-15 2,-21 -2,-15 -21,-12 -30,-5 -12,7 -19,21 -22,37 -1,4 -1,5 -3,8 -3,4 -12,12 -14,9 -1,-1 1,-6 2,-8l6 -22c2,-3 9,-1 10,-3 1,-2 3,-7 4,-9 0,-2 3,-8 1,-10 -1,-3 -6,-1 -9,-1 0,-2 3,-8 3,-10 -1,-3 -8,-1 -10,-1 -13,2 -13,1 -16,11 -1,3 0,4 -2,4 -8,1 -8,2 -10,10 -5,17 -5,14 4,14l-7 21c-1,5 -9,10 -13,12 -5,1 -3,-3 -1,-8 1,-3 7,-22 8,-23 -3,0 -7,1 -9,1 -3,1 -6,2 -9,2 -2,1 -7,1 -8,2 -1,2 -2,7 -3,8z"/>
  <g>
   <g>
    <path class="fil19" d="M165 725l-17 4 -28 -99 18 -5 20 74 11 -36 21 -6 -12 35 27 22 -20 6 -27 -21 7 26zm0 0l0 0 0 0z"/>
   </g>
   <g>
    <path class="fil19" d="M229 696c-7,1 -14,-5 -16,-14 -3,-9 0,-18 7,-20 6,-2 13,4 16,14 2,9 -1,18 -7,20l0 0zm-12 -47c-16,4 -25,21 -21,37 4,16 20,26 36,22 16,-4 25,-21 21,-37 -5,-16 -21,-26 -36,-22z"/>
   </g>
   <g>
    <path class="fil19" d="M329 658l1 -15 11 12 -12 3zm4 -39l-18 5 -5 46 -31 8 -11 -41 -17 4 16 57 58 -15 1 -10 22 -6 7 8 17 -5 -39 -51zm0 0l0 0 0 0z"/>
   </g>
   <g>
    <path class="fil19" d="M209 780l-44 12 -15 -57 17 -4 11 41 27 -7 4 15zm0 0l0 0 0 0z"/>
   </g>
   <g>
    <path class="fil19" d="M235 761c-7,1 -14,-5 -15,-15 -2,-9 2,-18 8,-19 7,-1 14,5 15,15 2,9 -2,18 -8,19l0 0zm-9 -47c-16,3 -26,19 -23,35 3,17 18,28 34,25 16,-3 27,-19 24,-35 -3,-17 -19,-28 -35,-25z"/>
   </g>
   <g>
    <path class="fil19" d="M346 721l2 -15 10 11 -12 4zm5 -40l-19 6 -6 57 -22 -19 10 -34 -19 5 -13 35 -7 -29 -18 4 16 57 17 -4 -7 -26 26 20 6 -1 0 0 27 -7 1 -10 23 -6 6 8 17 -5 -38 -51zm0 0l0 0 0 0z"/>
   </g>
   <g>
    <path class="fil20" d="M374 693c-5,1 -9,-1 -10,-6 -1,-4 1,-8 5,-9 5,-1 9,1 10,5 1,5 -1,9 -5,10l0 0zm-5 -17c-5,1 -8,7 -7,12 1,5 7,8 12,7 5,-1 8,-7 7,-12 -2,-5 -7,-8 -12,-7z"/>
   </g>
   <g>
    <path class="fil20" d="M162 635l-4 -15 -8 2 9 34 8 -2 -4 -13 12 11 7 -2 -13 -13 3 -14 -7 2 -3 10zm209 50l-2 1 -1 -4 2 0c1,-1 2,-1 3,0 0,0 0,1 1,1 0,1 0,1 -1,2 -1,0 -1,0 -2,0l0 0zm-24 -84c0,1 1,2 2,3 0,0 1,1 2,0 1,0 1,0 1,-1 1,-1 1,-2 0,-4 0,-1 -1,-2 -1,-3 -1,-1 -2,-1 -3,0 -1,0 -1,0 -1,1 -1,1 0,2 0,4l0 0zm-8 7l-3 -10 7 -2 0 1 -5 2 1 3 4 -1 1 1 -5 1 1 4 5 -1 0 1 -6 1zm-9 3l-3 -11 2 0 6 8 -2 -9 1 0 3 10 -2 0 -7 -8 3 9 -1 1zm-10 2l0 -11 2 0 6 9 -1 1 -2 -3 -4 1 0 3 -1 0zm-5 2l-3 -10 -3 1 0 -1 7 -2 1 1 -3 1 2 9 -1 1zm-12 3l-3 -10 2 -1 7 8 -3 -9 2 0 2 10 -1 0 -7 -8 2 10 -1 0zm-10 2l1 -11 1 0 7 9 -2 1 -1 -3 -4 1 -1 3 -1 0zm-4 1l-2 -9 -3 1 0 -1 7 -2 0 1 -3 1 3 9 -2 0zm-20 6l-3 -10 2 -1 7 8 -3 -9 1 0 3 10 -2 0 -6 -7 2 9 -1 0zm71 -42c1,2 2,4 2,5 1,0 2,1 3,0 1,0 1,-1 2,-1 0,-1 0,-3 -1,-5 -1,-2 -1,-4 -2,-5 -1,0 -1,-1 -2,0 -1,0 -2,1 -2,2 0,0 0,2 0,4l0 0zm-5 9l-4 -12 -3 1 -1 -2 9 -2 0 2 -3 0 3 13 -1 0zm-14 4l-3 -14 2 -1 8 11 -4 -12 2 0 4 13 -2 1 -8 -11 3 12 -2 1zm-9 2l-3 -14 7 -2 0 2 -5 1 1 5 5 -2 0 2 -5 1 2 5 5 -1 0 1 -7 2zm-3 1l-4 -13 0 14 -1 0 -7 -12 3 13 -1 1 -4 -14 3 -1 6 11 0 -12 2 -1 4 14 -1 0zm-21 5l0 -14 2 -1 8 13 -2 0 -2 -3 -4 1 0 4 -2 0zm-3 1l0 -2c0,1 0,2 -1,2 0,1 -1,1 -2,1 -1,1 -2,0 -3,-1 -1,-1 -2,-2 -3,-5 -1,-2 -1,-4 0,-5 0,-2 1,-3 3,-3 1,0 2,0 3,0 1,1 2,2 2,3l-2 1c0,-1 0,-2 -1,-2 0,-1 -1,-1 -2,-1 -1,1 -2,1 -2,2 0,1 0,3 1,5 0,2 1,3 2,4 0,1 1,1 2,1 1,0 2,-1 2,-2 0,-1 0,-2 0,-3 0,0 0,0 0,0 0,0 0,0 0,-1l-3 1 -1 -1 5 -1 2 7 -2 0zm-16 4l-3 -13 6 -2 1 1 -6 2 2 4 5 -1 0 1 -5 2 1 5 6 -2 0 2 -7 1zm-9 3l-4 -14 3 -1c2,0 3,0 4,0 1,1 1,2 2,3 0,1 0,3 0,3 -1,1 -2,2 -3,2l-2 1 1 6 -1 0zm-15 -4l-1 0 -1 -2 1 0c1,0 1,0 2,0 0,0 0,0 0,0 0,1 0,1 0,1 -1,0 -1,0 -1,1l0 0zm1 3c-2,1 -4,0 -5,-2 0,-3 1,-5 3,-5 2,-1 4,0 5,3 0,2 -1,4 -3,4l0 0zm-11 23l-12 3 -2 -7 10 -3 -17 -18 8 -2 8 8 -2 -9 7 -2 0 30zm-35 -21l11 -3 6 7 -5 6 9 -2 5 5 -20 5 -3 -6 6 -7 -7 2 -2 -7zm-2 1l-9 2 -6 21 6 -2 1 -4 6 -2 1 4 6 -1 -5 -18zm-21 25l-6 -5 4 -14 6 -2 0 4 4 -4 -1 6 -4 1 -3 14zm-15 -6l0 0 0 0zm213 47c0,-1 -1,-1 -2,-2 -1,0 -2,0 -3,1l-4 1 3 10 1 0 -1 -5 3 -1 4 4 1 0 -4 -4c1,0 3,-1 2,-4zm-29 -81c-1,-2 -1,-3 -1,-4 1,-1 2,-2 3,-2 2,-1 3,-1 3,0 1,1 2,2 3,4 0,2 0,3 0,4 -1,1 -2,2 -3,2 -1,1 -3,1 -3,0 -1,-1 -2,-2 -2,-4zm-7 7l0 0 0 0zm-9 3l0 0 0 0zm-10 -10l1 -2 1 0 -1 2 -1 0zm1 8l4 -1 -4 -5 0 6zm-1 4l0 0 0 0zm-5 2l0 0 0 0zm-12 3l0 0 0 0zm-8 -2l3 -1 -3 -5 0 6zm-2 4l0 0 0 0zm-4 1l0 0 0 0zm-12 0l1 0 1 0c0,1 0,1 1,2 0,0 1,0 1,0 1,0 2,-1 2,-1 0,-1 0,-1 0,-2 0,0 0,-1 -1,-1 0,0 0,0 -1,0 -1,0 -1,0 -1,0 -1,0 -2,0 -2,0 -1,-1 -1,-1 -1,-1 -1,0 -1,-1 -1,-1 0,-1 0,-2 1,-3 0,0 1,-1 2,-1 1,0 2,0 2,0 1,0 2,1 2,2 0,0 0,0 0,0 0,0 0,0 0,0l-1 0 -1 0c0,0 0,-1 0,-1 -1,0 -1,0 -2,0 -1,0 -1,0 -1,1 -1,0 -1,1 -1,1 1,1 1,1 1,1 0,0 1,1 2,1 0,0 0,0 0,0 2,0 3,0 3,0 0,0 1,0 1,1 0,0 0,0 0,1 1,1 1,2 0,2 0,1 -1,1 -2,2 -2,0 -3,0 -3,0 -1,-1 -1,-1 -2,-2 0,0 0,-1 0,-1 0,0 0,0 0,0zm-8 6l0 0 0 0zm-4 1l-3 -10 2 -1 3 11 -2 0zm74 -42c-1,-3 -1,-5 -1,-6 1,-1 2,-2 3,-3 2,0 3,0 4,1 1,1 2,3 3,5 0,3 0,5 0,6 0,1 -1,2 -3,3 -2,0 -3,0 -4,-1 -1,-1 -2,-3 -2,-5zm-4 8l0 0 0 0zm-14 4l0 0 0 0zm-9 2l0 0 0 0zm-3 1l0 0 0 0zm-19 -1l3 -1 -4 -6 1 7zm-2 6l0 0 0 0zm-3 1l0 0 0 0zm-16 4l0 0 0 0zm-10 -5l2 0c1,0 2,-1 2,-1 0,-1 0,-2 0,-3 0,0 0,-1 -1,-1 -1,-1 -1,-1 -2,0l-2 0 1 5zm1 8l0 0 0 0zm-16 -9c-3,1 -4,3 -4,6 1,2 4,4 6,3 3,0 4,-3 4,-6 -1,-2 -4,-4 -6,-3zm-9 31l0 0 0 0zm-35 -21l0 0 0 0zm-9 14l2 -7 3 6 -5 1zm7 -13l0 0 0 0zm-21 25l0 0 0 0z"/>
   </g>
  </g>
  <g>
   <path class="fil21" d="M403 276l37 -94c-1,-1 0,-1 -1,-1 0,0 -2,0 -2,0l-345 0c-7,0 -15,0 -23,0l0 96c7,0 15,0 21,0l146 0c28,0 56,0 84,0l80 0c2,0 2,0 3,-1zm-310 -42c1,1 2,4 3,5 2,1 3,2 5,4 3,2 7,3 12,4 5,0 10,0 14,-1 1,0 2,0 2,0 1,-1 1,0 2,-4 1,-2 2,-4 3,-6 -7,2 -15,5 -22,1 -12,-7 -2,-33 22,-33 7,0 8,1 11,2l4 -7 0 -1c-2,0 -5,-2 -11,-2 -18,-1 -41,9 -45,27 -2,7 0,8 0,11zm72 -18c10,-2 10,6 8,13 -2,6 -6,11 -12,12 -10,2 -11,-6 -8,-13 2,-6 6,-10 12,-12zm-15 -1c-15,9 -19,32 6,33 11,0 18,-3 25,-11 5,-4 9,-13 5,-19 -1,-3 -2,-3 -4,-5 -4,-2 -7,-3 -13,-3 -2,0 -4,0 -7,0 -4,1 -8,3 -12,5zm50 -2l-13 34c14,0 12,1 14,-3l18 -47 -13 0c0,1 -6,16 -6,16zm50 6c0,5 -4,13 -7,16 -8,9 -22,8 -15,-7 2,-5 7,-10 13,-11 4,-1 6,1 9,2zm-16 -8c-5,2 -10,4 -14,9 -10,11 -11,26 4,27 5,1 10,0 15,-2 1,0 3,-1 4,-2 -2,5 -8,9 -12,10 -7,3 -14,2 -20,0 -1,1 -3,6 -3,8 7,1 15,2 22,0 10,-1 18,-6 22,-14 2,-3 3,-6 4,-9l6 -15c0,-1 1,-2 1,-3 0,-2 3,-7 3,-9l-12 0 -1 2c-6,-4 -12,-3 -19,-2zm64 19c0,1 -2,4 -2,6 -1,3 -2,2 -5,3 -3,1 -10,2 -13,0 -2,-1 -2,-4 0,-6 3,-4 15,-3 20,-3zm-21 -19l-4 9c6,-1 10,-2 16,-3 4,0 13,0 12,6 -7,1 -32,-3 -37,10 -4,13 8,16 19,15 5,-1 6,-2 10,-3l0 2 13 0c0,-5 0,-5 2,-9 1,-5 6,-15 6,-19 -1,-5 -5,-6 -6,-7 -6,-2 -8,-2 -15,-2 -3,0 -6,0 -9,0 -1,1 -6,2 -7,1zm43 1l-1 4 6 0c-2,10 -21,33 5,31 1,0 6,0 7,-2 0,0 2,-5 2,-6 -13,3 -11,0 -5,-15 1,-2 3,-6 4,-8l9 0 2 -6 -9 0 4 -10 -13 2c-1,0 -1,2 -2,4 -2,5 -1,4 -8,4l-1 2zm40 13c2,-8 13,-10 16,-7 2,2 1,5 1,7l-17 0zm-3 -11c0,0 -2,1 -3,2 -3,2 -6,5 -7,8 -7,12 -2,24 13,25 5,1 11,0 15,-1 4,-1 2,-1 4,-2l2 -6c-5,1 -10,3 -16,2 -5,-1 -8,-5 -7,-11l30 0c1,-4 2,-7 1,-12 -3,-9 -13,-10 -20,-9 -6,1 -7,2 -12,4z"/>
   <path class="fil22" d="M155 240c-1,-1 -2,-2 -2,-4 1,-5 3,-9 6,-12 2,-4 6,-6 11,-6 2,0 3,1 3,3 -11,-2 -18,10 -18,19zm10 -24c-6,2 -10,6 -12,12 -3,7 -2,15 8,13 6,-1 10,-6 12,-12 2,-7 2,-15 -8,-13z"/>
   <path class="fil22" d="M230 239c-2,0 -2,-1 -2,-3 0,-2 1,-3 1,-5 1,-2 3,-5 5,-6 3,-4 11,-8 15,-5l0 2c-7,0 -9,1 -13,5 -3,2 -6,7 -6,12zm20 -20c-3,-1 -5,-3 -9,-2 -6,1 -11,6 -13,11 -7,15 7,16 15,7 3,-3 7,-11 7,-16z"/>
   <path class="fil23" d="M265 222c0,2 -5,14 -7,18 -2,7 -4,12 -8,16 -11,10 -25,9 -39,7l-1 2c9,1 14,3 25,1 12,-3 19,-9 23,-19 2,-5 11,-29 12,-30 0,-1 1,-2 1,-3l-3 0 -3 8z"/>
   <path class="fil24" d="M309 250l-16 0c0,-1 0,-1 0,-2 -6,2 -14,3 -20,1 -2,0 -3,-2 -5,-2 3,6 16,6 25,4 1,1 -1,0 1,1l17 0c0,-3 -2,-4 1,-10 1,-3 2,-6 3,-9 3,-6 5,-12 -1,-16 1,3 3,3 2,8 -1,2 -2,5 -3,8 -2,5 -5,10 -4,17z"/>
   <path class="fil23" d="M221 206c0,-1 1,-2 1,-2l2 -4 -3 0 -10 25c-1,3 -9,23 -10,24l-11 0 -1 2 14 0c2,-2 17,-43 18,-45z"/>
   <path class="fil23" d="M144 248c1,0 2,1 4,2 1,0 2,1 4,1 4,2 13,1 18,0 5,-2 9,-4 13,-7 3,-2 6,-6 8,-12 1,-4 1,-11 -3,-15 1,6 4,9 -1,17 -7,14 -24,18 -37,15 -3,-1 -5,-3 -7,-4l1 3z"/>
   <path class="fil24" d="M151 207l1 -3 2 -2 -2 -1c-1,1 -3,5 -5,7 -5,-1 -8,-3 -15,-2 -22,4 -27,26 -20,29 -3,-10 4,-18 10,-22 3,-2 8,-4 12,-5 3,0 6,0 9,1 2,0 4,1 6,2 1,-2 1,-3 2,-4z"/>
   <path class="fil21" d="M279 238c1,-6 10,-6 17,-6 -1,2 -1,2 -3,2 -4,0 -9,1 -11,3l-1 2 -2 -1zm19 -8c-5,0 -17,-1 -20,3 -2,2 -2,5 0,6 3,2 10,1 13,0 3,-1 4,0 5,-3 0,-2 2,-5 2,-6z"/>
   <path class="fil23" d="M389 216c1,4 2,5 2,9 0,2 0,7 -1,9l-30 -1c0,3 -1,6 2,7l0 -4 2 0c8,-1 21,0 27,0 3,-4 4,-16 -2,-20z"/>
   <path class="fil24" d="M99 243c3,5 12,8 18,8 4,1 8,0 12,0 1,-1 4,-1 5,-2 1,0 1,-3 2,-4 0,-1 1,-2 1,-3 1,-2 1,-2 0,-3 -2,0 -2,1 -3,4 0,0 -1,4 -2,4 -1,2 -9,2 -12,2 -5,0 -11,-1 -16,-3 -2,-1 -3,-3 -5,-3z"/>
   <path class="fil24" d="M381 247c-1,3 -1,3 -7,4 -3,0 -6,1 -9,1 -8,-1 -10,-3 -15,-5 4,6 16,9 26,6 7,-1 6,-1 7,-4 1,-2 3,-5 4,-8 -6,2 -4,5 -6,6z"/>
   <path class="fil21" d="M364 224c1,-3 6,-5 10,-5 2,0 2,0 2,2 -2,0 -3,0 -6,1 -3,2 -1,2 -6,2zm-4 1l17 0c0,-2 1,-5 -1,-7 -3,-3 -14,-1 -16,7z"/>
   <path class="fil23" d="M349 218l-9 0c-2,4 -8,18 -8,21l2 0 8 -18c8,0 4,0 9,-4 1,-1 2,-1 3,-4l-3 0 -2 5z"/>
   <path class="fil23" d="M230 239c0,-5 3,-10 6,-12 4,-4 6,-5 13,-5l0 -2c-4,-3 -12,1 -15,5 -2,1 -4,4 -5,6 0,2 -1,3 -1,5 0,2 0,3 2,3z"/>
   <path class="fil23" d="M155 240c0,-9 7,-21 18,-19 0,-2 -1,-3 -3,-3 -5,0 -9,2 -11,6 -3,3 -5,7 -6,12 0,2 1,3 2,4z"/>
   <path class="fil23" d="M320 247c1,6 18,5 20,3l1 -1c0,0 0,0 0,-1 1,-1 1,-1 1,-2 1,-2 2,-3 2,-5 -3,1 -3,2 -5,6 0,2 0,1 -5,2 -2,0 -5,1 -8,0 -3,0 -4,-1 -6,-2z"/>
   <path class="fil24" d="M276 223c9,-2 15,-2 24,-2 0,-2 -3,-2 -5,-2 -5,0 -10,0 -14,1 -1,0 -2,0 -3,1 -1,0 -1,0 -2,2z"/>
   <path class="fil24" d="M279 238l2 1 1 -2c2,-2 7,-3 11,-3 2,0 2,0 3,-2 -7,0 -16,0 -17,6z"/>
   <path class="fil24" d="M364 224c5,0 3,0 6,-2 3,-1 4,-1 6,-1 0,-2 0,-2 -2,-2 -4,0 -9,2 -10,5z"/>
   <path class="fil24" d="M349 202c-3,0 -3,0 -4,3 0,1 -1,3 -2,4l3 0 3 -7z"/>
   <path class="fil25" d="M398 211c-1,-1 -1,-2 0,-3 2,0 1,0 2,0l0 3c-1,0 -1,0 -1,-1 -1,0 0,0 -1,0 0,0 0,0 0,1l0 0zm0 -4c-3,2 -2,6 1,5 3,-1 2,-6 -1,-5z"/>
   <path class="fil26" d="M399 206c0,0 1,1 1,1 0,0 1,0 1,1 0,0 1,1 1,1 0,1 -1,1 -1,2 0,0 -1,1 -1,1 0,0 -1,0 -1,0 -1,0 -2,0 -2,0 0,0 -1,-1 -1,-1 0,-1 0,-1 0,-2 0,0 0,-1 0,-1 0,-1 1,-1 1,-1 1,0 1,-1 2,-1zm0 1c-1,0 -1,0 -2,0 0,1 0,1 -1,1 0,1 0,1 0,1 0,1 0,1 0,2 1,0 1,0 1,1 1,0 1,0 2,0 0,0 0,0 1,0 0,-1 0,-1 1,-1 0,-1 0,-1 0,-2 0,0 0,0 0,-1 -1,0 -1,0 -1,-1 -1,0 -1,0 -1,0zm-2 4l0 -3 1 0c0,0 1,0 1,0 0,0 0,0 0,0 0,0 1,0 1,0 0,0 0,1 0,1 0,0 0,0 0,0 -1,1 -1,1 -1,1 0,0 0,0 0,0 0,0 0,0 0,0 0,0 0,0 1,0l0 1 -1 0 0 0c0,-1 0,-1 -1,-1 0,0 0,0 0,0l0 0 0 1 -1 0zm1 -2l0 0c0,0 1,0 1,0 0,0 0,0 0,0 0,0 0,0 0,0 0,0 0,0 0,0 0,-1 0,-1 0,-1 0,0 -1,0 -1,0l0 0 0 1z"/>
  </g>
  <g>
   <path class="fil27" d="M857 229c0,52 -42,94 -94,94 -51,0 -93,-42 -93,-94 0,-52 42,-94 93,-94 52,0 94,42 94,94z"/>
   <g>
    <g>
     <path class="fil28" d="M715 251c0,0 0,0 0,0 1,-2 2,-4 2,-5 2,-6 4,-11 5,-17 1,-3 2,-5 3,-8 1,-2 1,-5 2,-7 1,-3 2,-6 3,-9 1,-2 0,-4 -1,-5 0,0 0,0 0,0 9,0 17,0 25,0 4,0 7,1 10,3 2,2 4,4 4,7 0,3 0,6 -2,9 -3,7 -8,11 -15,14 -2,0 -4,1 -6,1 -3,0 -5,0 -7,0 -1,0 -2,0 -3,0 0,0 0,0 0,0 -1,2 -1,3 -2,5 0,2 -1,4 -2,6 0,2 -1,4 -1,5 -1,2 0,3 2,5 -7,0 -14,0 -20,0 1,-1 3,-2 3,-4 0,0 0,0 0,0zm31 -47l0 0c0,0 -1,0 -1,0 -1,0 -1,0 -1,1 0,1 0,2 -1,2 -2,8 -4,15 -7,22 0,1 0,1 1,1 4,0 7,-1 10,-3 2,-2 3,-4 4,-6 1,-3 3,-7 2,-11 0,-3 -1,-5 -3,-5 -2,-1 -3,-1 -4,-1z"/>
     <path class="fil28" d="M840 201c0,0 0,0 0,0 0,1 1,1 1,1 0,0 0,1 -1,1 0,2 -1,4 -1,6 0,0 0,0 0,0 -3,-2 -5,-3 -7,-4 -1,-1 -3,-1 -4,-1 -5,0 -9,2 -13,5 0,0 0,0 0,0 0,1 0,1 -1,1 -1,1 -2,2 -3,4 -2,4 -4,8 -6,13 -1,4 -2,8 -2,12 0,3 0,5 1,8 1,2 3,3 5,4 2,0 3,0 5,0 0,0 0,0 0,-1 1,0 1,-1 1,-2 1,-2 1,-4 2,-6 1,-4 2,-7 3,-11 1,-1 1,-2 0,-3 0,0 -1,-1 -2,-2 0,0 0,0 0,0 7,0 14,0 21,0 0,0 0,0 0,1 -2,0 -4,2 -4,4 -2,6 -4,13 -6,19 -1,1 -1,1 -1,1 -4,2 -8,3 -13,4 -3,1 -7,0 -10,0 -3,-1 -5,-2 -7,-3 0,0 -1,0 -1,0 -5,-4 -6,-8 -7,-14 -1,-8 1,-16 6,-23 1,-1 2,-3 3,-4 0,-1 1,-1 2,-2 2,-2 5,-4 8,-6 4,-2 8,-3 13,-3 4,-1 7,-1 11,0 2,0 4,1 7,1z"/>
     <path class="fil28" d="M781 235c0,0 1,0 2,0 1,0 2,0 4,0 0,0 1,1 0,1 0,4 -1,7 -4,10 -1,0 -1,0 0,1 4,3 8,6 12,7 0,0 0,1 1,1 -1,0 -1,0 -1,0 -4,0 -8,0 -12,0 -1,0 -1,0 -2,-1 -1,-1 -2,-2 -3,-3 -1,0 -1,0 -1,0 -3,2 -7,4 -10,4 -3,1 -5,1 -8,0 -2,-1 -3,-2 -4,-3 -3,-2 -3,-5 -3,-9 0,-4 3,-7 6,-9 3,-2 5,-3 8,-3 1,-1 1,-1 1,-2 0,-4 1,-8 4,-12 3,-4 7,-5 11,-4 2,0 3,1 4,2 3,2 3,5 1,8 -1,2 -3,4 -5,5 -2,1 -4,2 -6,3 -1,0 -1,1 -1,1 1,4 3,7 5,11 0,0 0,0 0,0 1,-2 2,-4 2,-5 0,-1 0,-1 -1,-3zm-7 13l0 0c0,-1 -1,-2 -1,-2 -2,-4 -4,-7 -5,-11 0,0 0,-1 -1,0 0,0 0,0 -1,0 -2,2 -4,3 -5,6 -2,4 0,9 5,9 3,0 6,-1 8,-2zm0 -20l0 0c1,-1 1,-1 1,-1 2,-1 4,-3 6,-5 0,-1 1,-3 1,-4 0,-2 -1,-3 -3,-2 -1,0 -2,1 -2,2 -2,3 -3,6 -3,10z"/>
    </g>
    <g>
     <path class="fil29" d="M714 249c0,0 0,0 0,0 0,-2 1,-3 1,-5 2,-5 4,-11 5,-17 1,-2 2,-5 3,-8 1,-2 2,-5 2,-7 1,-3 2,-6 3,-9 1,-2 1,-3 -1,-5 0,0 0,0 1,0 8,0 16,0 24,0 4,0 7,1 10,3 2,2 4,4 4,7 1,3 0,6 -2,10 -2,6 -8,11 -15,13 -2,0 -4,1 -6,1 -3,1 -5,1 -7,1 -1,0 -2,-1 -2,-1 -1,0 -1,0 -1,1 0,1 -1,3 -1,4 -1,2 -2,5 -2,7 -1,1 -1,3 -2,4 -1,3 0,4 2,5 -7,0 -13,0 -20,0 2,-1 3,-2 4,-4 0,0 0,0 0,0zm30 -46l0 0c0,0 -1,0 -1,0 0,0 -1,0 -1,0 0,1 0,2 -1,3 -2,7 -4,14 -6,21 -1,1 -1,1 0,1 4,1 7,0 10,-3 2,-1 3,-3 4,-6 2,-3 3,-7 3,-11 0,-2 -2,-4 -4,-5 -1,0 -3,0 -4,0z"/>
     <path class="fil29" d="M838 200c0,0 0,0 0,0 0,0 1,0 1,0 0,0 0,1 0,1 -1,2 -2,4 -2,6 0,0 0,0 0,0 -2,-1 -4,-3 -7,-4 -1,0 -3,-1 -4,-1 -5,0 -9,2 -12,5 -1,0 -1,1 -1,1 0,0 0,0 0,0 -2,1 -3,3 -3,4 -3,4 -5,8 -6,13 -2,4 -3,8 -3,12 0,3 0,6 1,8 1,2 3,4 6,4 1,1 3,0 4,0 0,0 1,0 1,0 0,-1 0,-2 0,-2 1,-3 2,-5 2,-7 1,-4 2,-7 4,-11 0,-1 0,-2 -1,-2 0,-1 -1,-2 -2,-2 0,0 0,0 0,0 7,0 14,0 21,0 0,0 0,0 0,0 -2,1 -3,2 -4,4 -2,7 -4,13 -6,20 0,0 -1,0 -1,1 -4,1 -8,3 -12,3 -4,1 -7,1 -11,0 -2,0 -5,-1 -7,-3 0,0 -1,0 -1,0 -4,-3 -6,-8 -7,-14 0,-8 2,-15 6,-22 1,-2 2,-3 3,-5 1,0 1,-1 2,-2 2,-2 5,-4 8,-6 4,-2 9,-3 13,-3 4,-1 8,0 11,0 2,1 5,1 7,2z"/>
     <path class="fil29" d="M779 234c1,0 1,0 2,0 1,0 3,0 4,0 1,0 1,0 1,0 -1,4 -2,7 -5,10 0,1 0,1 0,1 4,3 8,6 12,8 0,0 1,0 1,0 0,0 -1,0 -1,0 -4,0 -8,0 -12,0 0,0 -1,0 -1,0 -2,-1 -3,-3 -4,-4 -1,0 -1,0 -1,0 -3,2 -6,4 -10,4 -3,1 -5,1 -8,0 -1,-1 -3,-1 -4,-3 -2,-2 -3,-5 -3,-8 1,-5 3,-7 7,-10 2,-1 5,-2 7,-3 2,-1 1,-1 1,-2 0,-4 1,-8 4,-12 3,-3 7,-5 11,-4 2,0 3,1 5,2 2,2 2,5 1,8 -2,2 -4,4 -6,5 -2,2 -4,2 -6,3 -1,1 -1,1 -1,1 1,4 3,8 5,11 0,0 0,0 1,0 1,-2 1,-3 1,-5 0,-1 0,-1 -1,-2zm-7 12l0 0c0,-1 0,-1 -1,-2 -2,-3 -4,-7 -5,-11 0,0 0,0 0,0 -1,0 -1,0 -1,1 -3,1 -5,3 -6,5 -2,5 1,9 6,9 2,0 5,-1 7,-2zm1 -20l0 0c0,0 0,0 0,-1 3,-1 4,-3 6,-5 1,-1 1,-2 1,-4 1,-2 -1,-3 -3,-2 -1,0 -1,1 -2,2 -2,3 -3,6 -2,10z"/>
    </g>
   </g>
   <g>
    <path class="fil30" d="M697 227c0,-38 21,-71 54,-91 -46,6 -81,45 -81,93 0,49 38,90 87,93 -36,-19 -60,-54 -60,-95z"/>
   </g>
  </g>
  <g>
   <path class="fil31" d="M822 1077c1,5 10,13 12,13 1,0 2,-8 2,-13 0,-3 0,-6 -1,-6 -3,5 -10,6 -13,6zm1 -3c6,0 12,-4 12,-9 0,-2 -1,-3 -4,-4 1,1 1,1 1,2 0,3 -5,7 -10,7 -2,0 -3,1 -3,2 0,2 2,2 4,2zm-1 -6c-1,0 -2,0 -3,-2 -1,-1 0,-2 -1,-3 1,0 2,0 2,0 3,0 6,-2 8,-2 1,0 1,1 1,2 0,3 -5,5 -7,5zm-132 46c2,0 2,-12 5,-12 1,0 1,0 1,1 0,3 -1,7 -1,9 0,1 0,2 0,2 2,0 4,-14 7,-14 1,0 1,1 1,2 0,3 -4,11 -4,13 0,0 0,1 1,1 1,0 4,-7 5,-10 1,-1 1,-2 2,-2 1,0 1,0 1,2 0,3 -3,10 -5,15 -2,4 -6,10 -6,13 0,1 1,3 3,5 -4,0 -5,0 -7,-3 -6,12 12,11 6,22 -1,-2 -10,-4 -10,-16 0,-10 9,-16 9,-20 0,-1 -1,-1 -1,-2 -2,-2 -2,-3 -4,-3 -1,0 -2,3 -1,5 1,1 1,1 1,2 0,1 -3,6 -4,6 -2,0 -4,-5 -4,-12 0,-6 2,-13 4,-13 0,0 0,0 0,1 0,1 0,2 0,5 0,3 1,3 1,3zm90 -58c1,0 1,2 1,4 1,0 1,0 1,0 1,0 2,-2 3,-2 1,0 4,3 9,3 7,0 14,-5 14,-14 0,-8 -6,-13 -15,-13 -4,0 -7,1 -8,1 -1,1 -2,-2 -3,-2 0,0 -1,1 -1,2 0,0 0,2 0,2 -2,0 -7,-4 -7,-2 0,1 3,5 3,6 0,1 -3,2 -3,3 0,1 4,2 4,3 0,2 -4,3 -4,5 0,1 4,0 4,1 0,1 -3,5 -3,7 0,0 0,0 0,0 1,0 4,-4 5,-4zm-75 87c0,-1 1,-2 2,-3 1,0 2,1 2,2 0,2 0,3 -2,3 -1,0 -2,-1 -2,-2zm-7 2c1,2 2,3 5,3 0,0 1,0 1,-1 1,2 2,3 5,3 2,0 3,-2 3,-4 0,-1 0,-1 0,-1l0 0c2,-1 4,-2 4,-5 -1,-2 -3,-3 -5,-3 0,0 -1,0 -1,1 -1,-2 -3,-3 -5,-3 -2,0 -3,2 -3,4 0,0 0,1 0,1l0 0c-2,1 -4,2 -4,5zm131 -108c0,1 1,1 2,1 0,0 1,0 1,-1 0,-1 -1,-2 -1,-2 -1,0 -2,1 -2,2zm-33 56c0,1 2,2 3,2 1,0 2,-1 2,-2 0,-2 -1,-3 -2,-3 -1,0 -3,1 -3,3zm1 7c0,2 1,3 2,3 2,0 3,-1 3,-3 0,-1 -1,-3 -3,-3 -1,0 -2,2 -2,3zm-9 5c0,2 2,4 4,4 2,0 4,-2 4,-4 0,-2 -2,-4 -4,-4 -2,0 -4,2 -4,4zm2 -8c0,1 1,2 3,2 1,0 2,-1 2,-2 0,-2 -1,-3 -2,-3 -2,0 -3,1 -3,3zm-7 4c0,2 1,3 2,3 1,0 2,-1 2,-3 0,-1 -1,-2 -2,-2 -1,0 -2,1 -2,2zm6 -13c0,2 1,3 3,3 2,0 4,-1 4,-3 0,-2 -2,-4 -4,-4 -2,0 -3,2 -3,4zm4 -8c0,2 1,3 2,3 2,0 3,-1 3,-3 0,-1 -1,-2 -3,-2 -1,0 -2,1 -2,2zm-11 6c0,1 1,2 3,2 1,0 2,-1 2,-2 0,-1 -1,-2 -2,-2 -2,0 -3,1 -3,2zm0 8c0,2 2,3 4,3 2,0 3,-1 3,-3 0,-2 -1,-4 -3,-4 -2,0 -4,2 -4,4zm-7 4c0,1 1,3 3,3 2,0 3,-2 3,-3 0,-2 -1,-4 -3,-4 -2,0 -3,2 -3,4zm2 -9c0,2 1,3 2,3 1,0 2,-1 2,-3 0,-1 -1,-2 -2,-2 -1,0 -2,1 -2,2zm-8 87c0,1 1,2 2,2 2,0 3,-1 3,-2 0,-1 -1,-3 -3,-3 -1,0 -2,2 -2,3zm-63 -98c0,2 1,3 2,3 1,0 2,-1 2,-3 0,-1 -1,-2 -2,-2 -1,0 -2,1 -2,2zm-3 -5c0,2 1,3 2,3 1,0 2,-1 2,-3 0,-1 -1,-2 -2,-2 -1,0 -2,1 -2,2zm2 58c3,0 5,-2 5,-6l0 -6c0,-2 0,-5 1,-7 0,1 0,2 0,3 0,5 3,8 3,13 0,2 0,3 -2,3 -1,0 -1,-1 -1,-1 -1,0 -1,1 -1,1 0,2 1,4 3,4 2,0 4,-2 4,-5 0,-5 -4,-11 -4,-16 0,-3 1,-4 1,-6 0,12 10,20 10,25 0,1 -1,2 -2,2 -1,0 -2,-1 -2,-2 0,0 0,0 0,0 0,0 -2,1 -2,3 0,2 2,4 5,4 3,0 5,-3 5,-5 0,-7 -12,-16 -12,-26 0,-2 0,-4 2,-7 -8,5 -11,12 -11,18 0,5 0,7 -2,7 -2,0 -2,-1 -2,-1 -1,0 -1,1 -1,2 0,2 2,3 3,3zm102 -59c3,0 5,-1 5,-2 0,0 -1,0 -2,0 0,0 -2,0 -5,0 -2,-1 -4,-2 -5,-2 0,0 0,0 0,0 0,2 3,4 7,4zm-13 -7c1,-1 4,0 9,-2 0,0 1,0 1,0 2,0 2,2 3,2 2,0 4,-1 5,-1 2,0 4,5 4,8 0,3 -4,5 -10,5 -7,0 -12,-7 -12,-12 0,0 0,0 0,0zm-88 88c-2,1 -5,4 -5,8 0,6 7,15 17,15 8,0 10,-6 10,-10 0,-9 -5,-15 -12,-15 -4,0 -8,3 -8,7 0,4 3,10 10,10 4,0 6,-3 6,-5 0,-3 -3,-7 -6,-7 -1,0 -2,1 -2,2 0,2 2,3 4,3 1,0 1,0 2,0 0,0 0,0 0,1 0,1 -2,2 -4,2 -3,0 -5,-3 -5,-6 0,-2 1,-4 4,-4 5,0 8,5 8,10 0,4 -2,6 -7,6 -9,0 -14,-8 -12,-17zm-5 -64c-2,1 -5,2 -5,5 0,2 2,4 4,4 1,0 2,-1 2,-1 -1,-1 -2,-3 -2,-5 0,-1 0,-2 1,-3zm-15 1c0,0 0,1 0,1 0,3 2,4 4,4 1,0 3,-1 4,-3 0,1 -1,1 -2,1 -2,0 -4,-1 -6,-3zm-2 5c0,5 1,7 4,7 2,0 4,-1 7,-4 -2,1 -4,1 -5,1 -2,0 -4,-1 -6,-4zm89 93c3,0 3,-1 4,-1 1,0 1,1 1,1 0,2 -3,3 -8,3 -3,0 -5,-1 -5,-3 -3,2 -8,3 -12,3 -12,0 -15,-5 -19,-7 -3,-1 -7,2 -13,-5 0,0 1,0 2,0 6,0 9,-3 9,-7 0,0 0,-1 -1,-2 2,1 6,4 7,9 0,1 2,1 4,1 2,0 5,-1 5,-4 7,-1 12,-5 13,-10 2,0 5,3 6,4 1,0 2,-1 4,-1 1,0 3,1 6,2 0,-1 0,-2 1,-2 2,0 2,2 2,3 1,0 2,1 2,2 0,1 -1,2 -1,2 -1,0 -1,-1 -1,-1 -1,1 -1,9 -6,9 -4,0 -7,-3 -9,-6 0,-2 -1,-2 -2,-2 -1,0 -1,0 -2,1 -4,4 -9,7 -15,7 -2,0 -4,-1 -4,-1 -1,0 -1,0 -1,1 0,0 2,2 7,2 10,0 13,-6 14,-6 0,0 1,0 2,1 2,5 7,7 10,7l0 0zm-33 -118c4,0 6,3 6,7 0,1 -1,4 -1,4 -1,0 -1,-2 -1,-3 0,-1 -1,-2 -1,-2 -1,0 -2,2 -2,5 0,1 0,3 1,3 1,0 2,-1 2,-1 0,3 -2,5 -5,5 -5,0 -7,-6 -8,-10 -3,4 -6,6 -11,6 -5,0 -7,-3 -7,-7 0,-1 0,-3 2,-3 1,0 0,4 3,4 0,0 2,0 2,-2 1,-1 1,-2 1,-4 0,-1 0,-2 -1,-2 -1,0 -3,1 -3,1 1,-4 5,-6 8,-6 5,0 8,4 8,8 0,1 0,2 -1,2 2,-3 5,-5 8,-5zm-15 -35c0,-1 -1,-1 -4,-1 -4,0 -3,3 -6,3 -3,0 -2,-3 -6,-3 -3,0 -5,0 -5,1 0,0 3,0 3,2 0,2 -6,3 -6,4 0,0 1,0 1,0 1,0 4,0 5,0 1,0 2,0 2,1 0,1 -4,4 -4,5 0,0 1,1 1,1 1,0 3,-3 5,-3 3,0 1,6 3,6 2,0 1,-6 3,-6 2,0 4,4 5,4 1,0 1,0 1,-1 0,-1 -2,-3 -2,-5 0,-1 1,-1 2,-1 1,0 3,0 4,0 0,0 1,0 1,0 0,-2 -5,-3 -5,-5 0,-2 2,-2 2,-2zm84 115c-1,0 -8,9 -12,9 -1,0 -2,-2 -2,-3 0,-1 0,-2 2,-2 10,-2 8,-10 17,-10 4,0 10,3 10,11 0,7 -11,17 -13,17 -1,0 -3,-2 -3,-3 0,-1 0,-1 2,-2 5,-2 8,-7 8,-10 0,0 0,-1 -1,-1 -1,0 -5,10 -10,10 -3,0 -6,-3 -6,-5 0,-2 9,-6 9,-10 0,-1 0,-1 -1,-1zm6 -3c0,0 -1,0 -1,2 0,2 1,3 2,3 0,0 1,0 2,0 1,0 3,0 3,-1 0,-2 -3,-4 -6,-4zm-76 -107c0,2 4,4 6,4 1,0 1,-2 1,-3 0,-2 -1,-2 -2,-2 -2,0 -5,1 -5,1zm6 12c0,-3 -9,-10 -9,-13 0,0 0,0 0,0 0,-2 8,-3 8,-5 0,-1 -1,-1 -2,-1 -5,0 -13,2 -13,4 0,2 7,7 7,10 0,0 0,1 -1,1 -2,0 -6,-3 -8,-3 -1,0 -2,1 -2,2 0,3 4,8 4,10 0,0 0,0 -1,0 -1,0 -6,-6 -7,-6 -1,0 -1,1 -1,2l0 2c0,2 0,2 -1,2 -1,0 -2,-4 -4,-4 -1,0 -1,8 -3,8 -2,0 0,-9 -2,-9 -2,0 -4,6 -5,6 0,0 -1,-1 -1,-1 0,-2 1,-4 1,-6 0,-1 0,-1 0,-1 -2,0 -6,3 -8,3 0,0 0,-1 0,-1 0,-1 6,-6 6,-8 0,-2 -9,0 -9,-3 0,-1 7,-3 7,-5 0,-2 -8,-3 -11,-3 -3,0 -5,1 -5,2 0,1 8,2 8,3 0,1 -8,5 -8,7 0,2 11,0 11,2 0,2 -10,10 -10,13 0,1 1,1 1,1 3,0 11,-6 13,-6 1,0 1,1 1,2 0,2 0,4 0,6 0,1 0,2 1,2 2,0 4,-4 6,-4 2,0 1,11 3,11 3,0 4,-12 5,-12 2,0 3,4 4,4 2,0 1,-6 3,-6 2,0 8,7 11,7 1,0 1,-1 1,-2 0,-3 -4,-10 -4,-12 0,-1 0,-1 0,-1 3,0 9,3 13,3 1,0 1,0 1,-1zm80 68c1,-3 3,-5 5,-8 -2,-1 -8,-4 -8,-7 0,-4 6,-7 7,-7 0,0 0,0 0,1 0,2 -1,5 -1,7 0,2 1,4 2,4 1,0 4,-4 4,-7 0,-7 -6,-9 -7,-9 -2,0 -5,3 -11,3 -13,0 -16,-13 -16,-18 0,0 0,0 0,0 0,0 2,1 6,1 2,0 4,0 7,0 7,0 10,5 14,11 3,1 9,4 9,12 0,6 -7,10 -9,17 3,0 5,-5 7,-5 2,0 2,1 2,3 0,2 -1,6 -4,8 0,0 0,0 0,0 0,-2 0,-4 -2,-4 -3,0 -4,3 -6,5 -2,-6 -4,-11 -8,-14 -4,-4 -11,-2 -11,-8 0,-2 1,-4 1,-6 0,0 0,-1 -1,-1 6,2 4,5 7,9 3,3 9,5 12,15 0,0 0,-1 0,-1 0,-9 -11,-18 -12,-21 6,1 8,2 11,11 0,2 2,6 2,9zm-126 -48c1,-1 1,-2 1,-4 0,-2 -1,-7 -5,-7 -3,0 -4,2 -4,4 0,5 4,7 8,7zm-5 15c-2,0 -4,-3 -4,-5 0,-1 1,-3 2,-3 0,0 0,1 0,1 1,3 2,5 4,5 0,0 0,1 0,1 0,0 -1,1 -2,1zm7 -6c0,1 0,2 -1,2 -2,0 -4,-3 -4,-5 0,-1 1,-1 2,-1 0,0 0,0 1,0 0,0 0,2 1,2 0,1 1,2 1,2zm-2 -6c0,0 -1,0 -1,0 -2,0 -5,0 -7,2 -5,3 -4,8 -5,10 0,0 0,0 0,0 0,1 0,2 1,2 0,0 1,-1 1,-1 1,0 3,1 5,1 1,0 3,0 5,-1 4,-2 6,-7 6,-8 0,-1 -1,-1 -2,-2 -1,-1 0,-2 -1,-3 0,0 -1,0 -2,0zm6 9c-1,2 -2,5 -2,7 0,3 2,6 5,6 3,0 4,-2 4,-5 0,-4 -4,-7 -7,-8zm-12 -11c0,0 -2,1 -4,1 -2,0 -4,-1 -4,-4 0,-2 0,-4 3,-5 0,1 0,1 0,1 0,4 1,6 5,7zm104 34c0,-1 1,-2 3,-2 1,0 2,1 2,2 0,2 -1,3 -2,3 -2,0 -3,-1 -3,-3zm2 68c0,0 1,0 1,1 0,1 -1,3 -3,4 -2,1 -4,2 -7,2 1,-1 1,-3 1,-4 0,0 0,-1 0,-1l1 0c5,0 7,-2 7,-2zm0 -6c1,0 1,-1 1,-2l0 -1c0,-2 -3,-3 -6,-3 -4,0 -7,2 -7,3l0 3c0,1 3,2 6,2 3,0 5,-1 6,-2zm3 1c-1,1 -5,4 -11,4 -3,0 -4,-1 -5,-1 0,0 -1,0 -2,1 -1,2 -3,5 -3,8 0,2 2,5 5,5 11,0 20,-7 20,-13 0,-3 -2,-4 -4,-4zm2 -50c0,2 1,3 2,3 2,0 3,-1 3,-3 0,-3 -1,-5 -1,-6 0,0 0,0 1,0 1,0 1,2 2,2 1,0 3,-2 4,-2 0,0 0,1 0,1 0,1 -2,2 -2,3 0,1 4,1 4,2 0,0 -4,0 -5,1 -2,1 -3,2 -3,3 0,1 1,1 3,1 4,0 6,-2 7,-2 1,0 1,0 1,1 0,0 -2,2 -2,3 0,1 3,2 3,3 0,0 0,0 0,0 -1,0 -2,0 -3,0 0,0 -1,0 -1,0 0,1 0,4 -1,4 0,0 -2,-7 -7,-7 -1,0 -1,0 -1,1 0,3 2,5 4,7 1,0 3,1 3,1 0,1 -4,0 -4,1 0,1 1,3 1,4 0,0 0,1 -1,1 0,0 -2,-4 -3,-4 -1,0 -2,2 -3,2 0,0 0,0 0,0 0,-1 2,-4 2,-7 0,-2 0,-5 -2,-5 -1,0 -3,2 -3,5 -1,1 -1,6 -1,6 -1,0 -1,-3 -2,-3 -1,0 -3,1 -4,1 0,0 0,0 0,0 0,-1 2,-3 2,-4 0,0 -4,-1 -4,-1 0,-1 1,-1 3,-1 3,-1 7,-3 7,-6 0,-3 -3,-5 -5,-6 -1,-1 -3,-2 -3,-2 0,0 2,0 2,0 1,0 2,-1 2,-1 0,-1 0,-2 0,-3 0,0 0,-1 0,-1 1,0 2,3 3,3 1,0 2,-2 3,-2 0,0 1,0 1,1 0,2 -2,4 -2,6zm-28 -17c1,5 8,3 8,9 0,1 0,2 0,3 0,1 0,2 1,2 1,0 1,0 1,-1 0,-1 0,-2 0,-3 0,-2 1,-3 2,-3 2,0 4,3 7,3 0,3 -8,2 -8,7 0,2 2,2 3,2 1,0 2,0 2,-1 0,-1 0,-1 0,-2 0,0 0,0 0,0 1,0 8,5 8,6 0,1 -7,3 -9,3 0,0 -1,-1 -1,-1 0,0 1,-2 1,-2 0,-1 0,-1 -3,-1 -1,0 -2,0 -2,1 0,1 3,3 3,5 0,1 -1,2 -3,2 -1,0 -4,-2 -4,-4 0,-1 2,-3 2,-4 0,0 0,-1 -1,-1 -2,0 -3,6 -10,7 1,-1 2,-3 2,-5 0,-1 0,-2 0,-4 0,-1 0,-2 2,-2 2,0 3,3 4,3 1,0 2,-1 2,-2 0,-5 -9,-4 -9,-10 0,-2 1,-4 2,-7zm12 38c0,1 0,2 1,2 1,0 2,-1 2,-2 0,-1 -2,-3 -3,-3 0,0 0,1 0,2 0,0 0,1 0,1zm-3 -8c6,2 9,6 9,11 0,3 -2,5 -5,5 -3,0 -5,-2 -5,-5 0,-2 2,-5 2,-8 0,-1 -1,-2 -1,-3zm-8 10c0,1 0,2 0,2 0,1 0,2 0,3 0,1 1,3 3,3 1,0 2,-2 2,-3 0,-2 -2,-5 -5,-5zm19 -3c1,0 1,1 1,2 0,1 -1,3 -1,4 0,2 1,4 3,4 3,0 4,-2 4,-4 0,-3 -2,-6 -7,-6zm-18 -3c3,0 3,1 3,2 0,1 -1,1 -2,1 -1,0 -2,0 -3,0 -1,0 -2,0 -3,2 1,0 2,0 2,2 0,3 -10,0 -10,9 0,4 5,10 12,10 4,0 6,-2 6,-3 0,-1 -2,0 -2,-1 0,-1 1,-2 1,-2 0,-1 0,-1 -1,-1 -1,0 -3,2 -7,2 -3,0 -6,-2 -6,-5 0,0 0,0 1,0 0,0 1,0 1,0 0,0 0,0 0,-1 0,-1 0,-3 1,-3 2,0 4,5 12,5 2,0 8,-1 10,-3 0,7 -5,15 -16,15 -11,0 -17,-9 -17,-17 0,-9 7,-17 17,-17 3,0 5,1 5,2 0,2 -4,1 -4,3zm-42 -61c0,-1 -1,-1 -1,-1 0,0 -1,1 -2,2 0,3 0,4 1,4 1,0 2,-3 2,-5zm-8 3c0,0 1,-1 3,-3 0,0 0,-1 0,-2 0,-1 -1,-2 -1,-2 -2,0 -3,4 -3,6 0,0 0,1 1,1zm9 5c2,0 3,-6 3,-9 0,-1 0,-2 0,-2 -1,0 -4,6 -4,9 0,2 1,2 1,2zm-14 -3c2,0 4,-11 4,-13 0,0 0,-1 -1,-1 -1,0 -4,11 -4,13 0,0 0,1 1,1zm6 4c-2,0 -2,3 -2,10 -2,-5 -5,-9 -9,-9 -3,0 -4,2 -4,5 0,0 1,1 1,2 0,-1 1,-2 2,-2 3,0 6,2 8,5 -3,-1 -5,-1 -7,-1 -1,0 -2,0 -3,1 -2,0 -4,3 -4,7 0,0 0,1 0,2 2,-5 8,-7 11,-7 1,0 2,0 2,0 -2,2 -2,5 -2,7 0,0 -1,1 -1,1 0,1 1,4 1,6 0,0 0,1 0,1 0,2 2,4 2,6 0,0 0,1 0,1 0,1 3,3 3,4 1,1 1,1 1,1 1,0 3,-1 3,-2 0,-1 0,-1 0,-1 -2,-1 -2,-3 -3,-4 0,0 -1,0 -1,-1 0,-1 0,-3 -1,-5 0,0 -1,0 -1,-2 0,0 1,-3 1,-5 -1,0 -1,0 -1,0 0,-2 2,-4 2,-6 4,2 4,5 4,7 0,1 0,2 0,3 3,-1 6,-3 6,-6 0,-3 -1,-5 -7,-6 2,-1 4,-1 6,-1 4,0 6,1 7,4 1,-1 1,-3 1,-4 0,-3 -2,-5 -5,-5 -4,0 -7,2 -10,4 1,-3 2,-5 4,-5 0,0 1,0 1,0 -1,-2 -3,-5 -5,-5zm-37 -36c0,1 -5,5 -6,5 -1,0 -1,-1 -1,-2 0,-1 0,-2 1,-3 1,-1 3,-1 4,-1 1,0 2,0 2,1zm136 79c3,0 5,3 5,8 0,5 -2,10 -6,13 0,-8 -10,-5 -10,-11 0,-2 2,-4 4,-4 2,0 4,1 5,2 -1,-1 -2,-3 -2,-4 0,-2 2,-4 4,-4zm-43 -60c-1,-1 -3,-2 -4,-2 -2,0 -4,2 -4,4 0,-1 -1,-1 -1,-2 0,-3 2,-6 6,-6 4,0 6,2 6,2 1,0 1,0 2,0 0,0 0,1 0,1 0,3 -1,7 -3,8 -1,-1 -2,-2 -3,-3 -1,0 -1,0 -1,-1 0,0 1,-1 2,-1zm-9 4c1,1 3,2 4,2 1,0 2,0 2,0 1,0 1,0 1,0 0,1 -1,2 -1,3 0,0 1,0 2,0 3,0 7,-2 7,-7 1,1 1,3 1,4 0,6 -5,8 -9,8 -3,0 -4,-1 -4,-1 -2,0 -2,3 -2,3 -2,-1 -3,-4 -3,-7 0,-2 1,-4 2,-5zm-41 -17c0,2 7,12 9,12 1,0 2,-2 2,-4 0,0 0,-1 -1,-1 -1,-2 -8,-8 -10,-8 0,0 0,1 0,1zm85 -5c0,-4 -10,-5 -10,-6 0,-1 5,-2 8,-2 -4,-6 -11,-5 -11,-6 0,-1 5,-2 9,-2 4,0 7,1 7,3 0,2 -1,4 -1,6 0,1 1,2 3,2 1,0 2,-2 2,-4 0,-1 0,-3 0,-4 0,-2 1,-4 4,-4 2,0 2,1 5,1 -2,1 -2,3 -2,4 0,2 1,4 1,9 0,9 -8,13 -19,13 -3,0 -6,-1 -9,-1 0,0 -1,0 -1,-1 0,0 5,-1 5,-5 0,-1 -1,-2 -1,-3 0,0 0,0 1,0 1,0 2,3 6,3 0,0 3,0 3,-3zm10 -6c0,5 -4,9 -11,10 1,0 1,0 2,0 8,0 11,-3 11,-6 0,-2 -1,-4 -2,-4zm-6 47c0,-1 -3,-1 -3,-5 -1,0 -1,-1 -1,-1 -1,0 -1,3 -2,3 -2,0 -3,-5 -4,-5 -1,0 -1,0 -1,1 0,0 0,1 0,2 0,0 0,1 -1,1 -1,0 -3,-4 -4,-4 0,0 -1,0 -1,1 0,0 2,2 2,2 0,2 -4,1 -4,2 0,1 0,1 1,1 1,0 3,-1 4,-1 1,0 2,0 2,1 0,1 -2,2 -2,3 0,0 0,0 0,0 2,0 5,-2 7,-2 0,0 1,0 1,0 0,1 -2,2 -2,4 0,0 0,0 0,0 1,0 3,-3 5,-3 1,0 2,1 2,1 1,0 1,-1 1,-1zm-42 -45c0,0 -2,-1 -2,-2 0,0 0,0 0,0 1,0 2,0 3,0 0,0 0,-3 1,-3 0,0 1,3 2,3 1,0 2,-1 3,-1 0,0 0,0 0,0 0,0 -2,2 -2,2 0,1 4,2 4,2 0,1 -4,1 -4,1 0,1 1,2 1,3 0,0 0,0 0,0 0,0 -2,-1 -3,-1 0,0 -1,3 -2,3 0,0 0,-1 0,-1l0 -2c0,-1 0,-1 -1,-1 0,0 -2,0 -2,0 0,0 0,0 0,0 0,-1 2,-2 2,-3zm11 12c-4,0 -6,-2 -6,-4 0,0 0,0 0,0 2,0 4,2 5,2 1,0 1,-1 1,-1 0,-1 -1,-3 -1,-4 0,0 0,0 0,0 2,0 4,1 6,1 0,0 0,-1 0,-1 0,-1 -4,-4 -4,-4 0,-1 5,-2 5,-3 0,-1 -6,-1 -6,-2 0,-1 1,-2 1,-3 0,0 0,0 -1,0 0,0 -3,1 -4,1 -1,0 -2,0 -2,-1 0,-1 3,-3 6,-3 6,0 9,4 9,11 0,8 -5,11 -9,11zm-39 101c0,1 -1,1 -1,2 -1,-1 -3,-2 -3,-2 -6,0 -4,9 -11,9 -2,0 -3,0 -4,0 0,0 0,0 0,0 0,2 2,5 8,5 6,0 12,-3 12,-8 0,-1 0,-2 -1,-2 1,-1 1,-1 2,-1 1,0 1,1 2,1 1,0 2,-1 2,-2 0,0 -1,-1 -1,-1 0,-1 0,-1 0,-2 0,-1 0,-2 -1,-2 -1,0 -1,0 -2,1 0,-1 0,-2 -2,-2 0,0 -1,0 -1,1 0,1 1,2 1,3zm-16 2c-2,0 -5,-1 -5,-3 0,0 1,-1 2,-1 1,0 4,2 4,3 0,1 0,1 -1,1zm-17 -13c5,1 7,4 8,7 0,3 1,5 2,6 2,2 4,3 7,3 2,0 4,0 4,-2 0,-2 -3,-7 -7,-7 -1,0 -1,0 -2,0 0,0 -1,0 -2,-1 -1,0 -1,-5 -3,-7 -2,-3 -4,-4 -7,-4 -2,0 -4,1 -4,3 0,1 1,1 4,2zm30 -7c0,-3 -6,-3 -6,-7 0,-1 1,-2 2,-4 1,3 2,5 5,6 5,1 6,4 6,8 0,5 -4,11 -14,11 -7,0 -13,-6 -13,-12 0,-2 1,-4 2,-4 1,0 1,1 2,2 2,3 5,3 9,3 4,0 7,-1 7,-3zm0 4c-2,1 -3,1 -3,3 0,1 0,2 0,2 0,1 0,2 1,2 2,0 6,-4 6,-7 0,-1 -1,-1 -1,-1 -1,0 -1,1 -3,1zm-19 -29c0,-4 9,-6 9,-11 0,0 0,-2 -1,-3 4,2 6,5 6,7 0,4 -4,6 -4,9 0,2 4,3 4,7 0,3 -4,6 -4,10 0,3 2,5 5,6 -1,0 -2,0 -3,0 -6,0 -12,-5 -12,-10 0,-3 1,-6 3,-8 2,2 4,3 5,3 1,0 1,-1 1,-2 0,-2 -9,-4 -9,-8zm0 0z"/>
   <path class="fil31" d="M744 1241c2,0 5,0 7,-4 -1,-3 -2,-8 -2,-11 -1,-10 3,-20 8,-21 3,0 6,3 6,8 1,14 -3,19 -6,24 1,2 4,5 7,5 1,0 2,0 3,-1 -1,-1 -1,-2 -1,-3 0,-8 5,-14 9,-14 4,0 6,4 6,7 0,4 -3,7 -7,9 0,1 2,2 3,2 6,0 10,-8 12,-15 0,-1 1,-3 3,-3 2,0 4,17 8,17 2,0 3,-3 3,-6 0,-3 0,-3 0,-6 0,-4 1,-7 4,-7 2,0 2,2 2,4 0,7 -5,20 -12,20 -6,0 -6,-10 -8,-10 -2,0 -5,10 -16,10 -2,0 -4,-1 -5,-2 -3,1 -5,2 -8,2 -4,0 -5,-4 -7,-4 -2,0 -4,4 -11,4 -5,0 -6,-7 -8,-7 -2,0 -4,7 -7,7 -5,0 -6,-12 -10,-12 -3,0 -13,12 -16,12 -1,0 -1,-1 -1,-2 0,-1 1,-6 2,-8 1,-3 1,-7 2,-8 0,-1 2,-2 3,-2 0,0 0,1 0,2 1,3 2,6 3,6 1,0 6,-10 9,-10 4,0 4,15 9,15 2,0 3,-2 4,-4 0,-4 2,-10 5,-10 2,0 3,5 2,10 0,5 3,6 5,6zm83 -10c0,-3 -2,-7 -6,-7 -5,0 -10,6 -10,13 0,7 4,9 8,9 8,0 12,-6 14,-11 1,4 2,11 5,11 1,0 2,0 3,-3 3,-8 7,-16 11,-16 2,0 1,3 5,3 2,0 3,-2 3,-4 0,-2 -2,-4 -6,-4 -10,0 -13,15 -14,15 -3,0 -2,-12 -4,-12 -2,0 -3,2 -3,3 -1,6 -5,14 -12,14 -1,0 -4,0 -4,-2 0,-1 10,-2 10,-9zm-67 -15c-1,-3 -1,-4 -3,-4 -2,0 -3,7 -3,14 1,5 1,6 2,6 1,0 4,-9 4,-16zm-18 -6c0,-2 -2,-3 -4,-3 -2,0 -4,2 -4,5 0,2 2,3 4,3 2,0 4,-3 4,-5zm34 22c0,-1 -1,-3 -2,-3 -1,0 -3,1 -3,5 0,2 1,4 1,4 3,-1 4,-3 4,-6zm43 -3c3,0 3,2 3,4 -1,2 -3,4 -6,4 -1,-1 -1,-8 3,-8zm-152 1c0,-4 0,-9 2,-15 1,-3 2,-5 5,-5 2,-1 2,2 2,5 -2,6 -2,10 -2,17 1,8 4,11 8,11 6,0 9,-5 10,-12 1,-6 0,-8 0,-10 0,-1 -1,-3 -2,-5 0,-4 2,-6 4,-7 2,0 2,1 3,3 1,4 1,8 1,15 -1,9 -5,20 -16,20 -10,-1 -14,-7 -15,-17zm0 0z"/>
  </g>
 </g>
</svg>
