<?xml version="1.0" encoding="UTF-8"?>
<!DOCTYPE svg PUBLIC "-//W3C//DTD SVG 1.0//EN" "http://www.w3.org/TR/2001/REC-SVG-20010904/DTD/svg10.dtd">
<!-- Creator: CorelDRAW X8 -->
<svg xmlns="http://www.w3.org/2000/svg" xml:space="preserve" width="532px" height="31px" version="1.0" style="shape-rendering:geometricPrecision; text-rendering:geometricPrecision; image-rendering:optimizeQuality; fill-rule:evenodd; clip-rule:evenodd"
viewBox="0 0 531 31"
 xmlns:xlink="http://www.w3.org/1999/xlink">
 <defs>
  <style type="text/css">
   <![CDATA[
    .fil1 {fill:#F20E16}
    .fil0 {fill:#4A4949;fill-rule:nonzero}
   ]]>
  </style>
 </defs>
 <g id="Capa_x0020_1">
  <metadata id="CorelCorpID_0Corel-Layer"/>
  <g id="_2079310599216">
   <path class="fil0" d="M115 2l6 15 0 0 5 -15 7 0 0 2 -1 1c-1,0 -1,0 -1,1l1 15 2 0 0 3 -8 0 0 -3 1 0c0,0 1,0 1,-1l-1 -12 0 0 -5 14 -3 0 -5 -13 0 0 -1 12 2 0 0 3 -8 0 0 -3 2 0c0,0 0,0 0,-1l1 -15 -2 0 0 -3 7 0z"/>
   <path id="1" class="fil0" d="M150 8l0 12c0,1 0,1 1,1 0,0 0,0 0,0l1 0 0 3 -5 0 0 -2 0 0c-1,2 -3,2 -5,2 -2,0 -4,0 -5,-2 -1,-1 -1,-3 -1,-6 0,-3 0,-5 2,-7 1,-2 4,-2 6,-2 2,0 4,0 6,1zm-3 11l0 -9c-1,0 -2,0 -3,0 -2,0 -3,0 -3,1 -1,2 -1,3 -1,5 0,4 1,5 3,5 1,0 2,0 3,0 0,-1 1,-2 1,-2z"/>
   <path id="2" class="fil0" d="M156 20l0 -9c0,0 0,-1 0,-1 0,0 0,0 0,0l-2 0 0 -3 6 0 0 3c0,-1 1,-2 2,-3 0,0 1,0 2,0 2,0 3,0 4,0l0 5 -3 1 0 -2c0,0 -1,-1 -1,-1 0,0 0,0 -1,0 -1,0 -1,0 -2,1 0,1 -1,1 -1,2l0 8 3 0 0 3 -9 0 0 -3 1 0c1,0 1,0 1,0 0,0 0,0 0,-1z"/>
   <path id="3" class="fil0" d="M174 15c0,2 0,4 1,5 0,1 1,1 3,1 1,0 2,0 4,-1l1 2c-1,2 -3,2 -6,2 -2,0 -4,0 -5,-2 -2,-1 -2,-4 -2,-7 0,-2 0,-5 2,-6 2,-2 3,-2 5,-2 2,0 4,0 6,1l0 4 -3 1 0 -2c0,-1 -1,-1 -1,-1 0,0 -1,0 -1,0 -3,0 -4,2 -4,5z"/>
   <path id="4" class="fil0" d="M200 8l0 12c0,1 0,1 0,1 0,0 1,0 1,0l1 0 0 3 -5 0 0 -2 0 0c-1,2 -3,2 -5,2 -2,0 -4,0 -5,-2 -1,-1 -1,-3 -1,-6 0,-3 0,-5 2,-7 1,-2 3,-2 6,-2 2,0 4,0 6,1zm-4 11l0 -9c0,0 -1,0 -2,0 -2,0 -3,0 -3,1 -1,2 -1,3 -1,5 0,4 1,5 3,5 1,0 2,0 2,0 1,-1 1,-2 1,-2z"/>
   <path id="5" class="fil0" d="M213 10c-1,-1 -1,-1 -2,-1 -1,0 -1,1 -2,1 0,0 -1,1 -1,1 0,1 0,1 1,1 0,1 0,1 0,1 1,0 2,1 2,1 1,0 2,0 2,0 1,0 1,1 2,1 0,0 1,0 1,1 1,1 1,2 1,3 0,2 -1,3 -2,4 -1,1 -3,1 -4,1 -3,0 -5,0 -7,-1l0 -4 3 -1 0 2c0,1 1,1 3,1 2,0 3,0 3,-2 0,0 0,0 0,-1 -1,0 -1,0 -1,0 -1,0 -1,-1 -2,-1 0,0 0,0 -1,0 0,0 -1,0 -1,0 -1,-1 -1,-1 -2,-1 -1,-1 -1,-2 -1,-4 0,-2 0,-3 1,-4 2,-1 3,-1 5,-1 2,0 4,0 6,1l0 4 -3 0 0 -1c0,-1 -1,-1 -1,-1z"/>
   <path id="6" class="fil0" d="M228 27l0 -16c0,0 0,-1 -1,-1 0,0 0,0 0,0l-2 0 0 -3 6 0 0 2c0,0 1,-1 2,-2 1,0 2,0 3,0 4,0 6,2 6,8 0,3 0,5 -2,7 -1,2 -3,2 -5,2 -1,0 -3,0 -4,-1l0 5 3 0 0 3 -8 0 0 -3 1 0c0,0 0,0 0,0 1,0 1,-1 1,-1zm10 -12c0,-3 -1,-5 -3,-5 -1,0 -2,0 -3,1 0,0 -1,1 -1,2l0 7c1,1 2,1 3,1 2,0 3,0 3,-1 1,-2 1,-3 1,-5z"/>
   <path id="7" class="fil0" d="M259 8l0 12c0,1 1,1 1,1 0,0 0,0 0,0l1 0 0 3 -5 0 0 -2 0 0c-1,2 -3,2 -5,2 -2,0 -3,0 -5,-2 -1,-1 -1,-3 -1,-6 0,-3 1,-5 2,-7 1,-2 4,-2 7,-2 1,0 3,0 5,1zm-3 11l0 -9c-1,0 -2,0 -3,0 -1,0 -2,0 -3,1 -1,2 -1,3 -1,5 0,4 1,5 3,5 1,0 2,0 3,0 0,-1 1,-2 1,-2z"/>
   <path id="8" class="fil0" d="M265 20l0 -9c0,0 0,-1 0,-1 0,0 0,0 0,0l-2 0 0 -3 6 0 0 3c0,-1 1,-2 2,-3 1,0 2,0 3,0 1,0 2,0 3,0l0 5 -3 1 0 -2c0,0 0,-1 -1,-1 0,0 0,0 -1,0 0,0 -1,0 -2,1 0,1 -1,1 -1,2l0 8 3 0 0 3 -9 0 0 -3 2 0c0,0 0,0 0,0 0,0 0,0 0,-1z"/>
   <path id="9" class="fil0" d="M282 4l3 0 0 3 4 0 0 3 -4 0 0 9c0,1 0,1 0,2 0,0 1,0 2,0 1,0 1,0 2,0l1 2c-1,1 -3,1 -4,1 -1,0 -2,0 -3,0 0,0 -1,-1 -1,-1 -1,0 -1,-1 -1,-1 0,-1 0,-1 0,-2 0,0 0,-1 0,-1l0 -9 -3 0 1 -3c1,0 1,0 2,-1 1,0 1,-1 1,-2z"/>
   <path id="10" class="fil0" d="M297 7l0 14 2 0 0 3 -8 0 0 -3 1 0c1,0 1,0 1,-1l0 -9c0,0 0,-1 0,-1 0,0 0,0 0,0l-2 0 0 -3 6 0zm-4 -3c0,0 -1,-1 -1,-2 0,0 1,-1 1,-1 1,-1 1,-1 2,-1 1,0 1,0 2,1 0,0 0,1 0,1 0,1 0,2 0,2 -1,1 -1,1 -2,1 -1,0 -1,0 -2,-1z"/>
   <path id="11" class="fil0" d="M305 15c0,2 0,4 1,5 1,1 2,1 3,1 2,0 3,0 4,-1l2 2c-2,2 -4,2 -6,2 -3,0 -4,0 -6,-2 -1,-1 -2,-4 -2,-7 0,-2 1,-5 2,-6 2,-2 4,-2 6,-2 2,0 4,0 5,1l0 4 -3 1 0 -2c0,-1 0,-1 -1,-1 0,0 0,0 -1,0 -3,0 -4,2 -4,5z"/>
   <path id="12" class="fil0" d="M323 7l0 14 2 0 0 3 -8 0 0 -3 1 0c0,0 1,0 1,-1l0 -9c0,0 0,-1 0,-1 -1,0 -1,0 -1,0l-1 0 0 -3 6 0zm-4 -3c-1,0 -1,-1 -1,-2 0,0 0,-1 1,-1 0,-1 1,-1 1,-1 1,0 2,0 2,1 1,0 1,1 1,1 0,1 0,2 -1,2 0,1 -1,1 -2,1 0,0 -1,0 -1,-1z"/>
   <path id="13" class="fil0" d="M328 27l0 -16c0,0 0,-1 0,-1 0,0 0,0 0,0l-2 0 0 -3 6 0 0 2c0,0 1,-1 2,-2 1,0 2,0 3,0 4,0 6,2 6,8 0,3 -1,5 -2,7 -1,2 -3,2 -5,2 -2,0 -3,0 -4,-1l0 5 3 0 0 3 -9 0 0 -3 1 0c1,0 1,0 1,0 0,0 0,-1 0,-1zm11 -12c0,-3 -1,-5 -3,-5 -1,0 -2,0 -3,1 0,0 -1,1 -1,2l0 7c1,1 2,1 3,1 2,0 2,0 3,-1 1,-2 1,-3 1,-5z"/>
   <path id="14" class="fil0" d="M360 8l0 12c0,1 0,1 1,1 0,0 0,0 0,0l1 0 0 3 -5 0 0 -2 0 0c-1,2 -3,2 -5,2 -2,0 -4,0 -5,-2 -1,-1 -1,-3 -1,-6 0,-3 0,-5 2,-7 1,-2 4,-2 6,-2 2,0 4,0 6,1zm-4 11l0 -9c0,0 -1,0 -2,0 -2,0 -3,0 -3,1 -1,2 -1,3 -1,5 0,4 1,5 3,5 1,0 2,0 3,0 0,-1 0,-2 0,-2z"/>
   <path id="15" class="fil0" d="M364 10l0 -3 6 0 0 2c0,-1 1,-1 2,-2 1,0 2,0 3,0 2,0 3,0 4,1 1,1 1,2 1,4l0 9 2 0 0 3 -8 0 0 -3 1 0c1,0 1,0 1,0 0,0 0,0 0,-1l0 -7c0,-1 0,-2 0,-2 -1,-1 -1,-1 -2,-1 -1,0 -2,0 -3,1 0,0 -1,1 -1,2l0 8 2 0 0 3 -8 0 0 -3 1 0c1,0 1,0 1,0 0,0 0,0 0,-1l0 -9c0,-1 0,-1 -1,-1l-1 0z"/>
   <path id="16" class="fil0" d="M387 4l2 0 0 3 4 0 0 3 -4 0 0 9c0,1 0,1 0,2 1,0 1,0 2,0 1,0 1,0 2,0l1 2c-1,1 -2,1 -4,1 -1,0 -2,0 -3,0 0,0 -1,-1 -1,-1 0,0 -1,-1 -1,-1 0,-1 0,-1 0,-2 0,0 0,-1 0,-1l0 -9 -3 0 1 -3c1,0 2,0 2,-1 1,0 1,-1 2,-2z"/>
   <path id="17" class="fil0" d="M404 7c1,0 3,0 4,1 1,1 1,2 1,3 0,1 0,2 -1,3 0,1 0,1 -1,2 -1,0 -1,0 -2,1 -2,0 -3,0 -5,0 0,1 0,2 1,3 0,1 1,1 3,1 1,0 3,0 4,-1l1 2c0,1 -1,1 -2,2 -1,0 -2,0 -4,0 -2,0 -4,0 -6,-2 -1,-1 -1,-3 -1,-6 0,-3 0,-5 2,-7 1,-1 3,-2 6,-2zm-2 7c1,0 2,0 2,-1 1,0 1,-1 1,-2 0,-1 0,-2 -2,-2 -1,0 -2,1 -2,2 -1,1 -1,2 -1,3 1,0 1,0 2,0z"/>
   <path id="18" class="fil0" d="M420 10c0,-1 -1,-1 -2,-1 -1,0 -1,1 -2,1 0,0 0,1 0,1 0,1 0,1 0,1 0,1 0,1 1,1 0,0 1,1 2,1 1,0 1,0 1,0 1,0 1,1 2,1 0,0 1,0 1,1 1,1 1,2 1,3 0,2 0,3 -1,4 -2,1 -3,1 -5,1 -3,0 -5,0 -6,-1l0 -4 3 -1 0 2c0,1 1,1 3,1 1,0 2,0 2,-2 0,0 0,0 0,-1 0,0 -1,0 -1,0 0,0 -1,-1 -1,-1 -1,0 -1,0 -1,0 -1,0 -1,0 -2,0 0,-1 -1,-1 -1,-1 -1,-1 -2,-2 -2,-4 0,-2 1,-3 2,-4 1,-1 3,-1 4,-1 2,0 4,0 6,1l0 4 -3 0 0 -1c0,-1 0,-1 -1,-1z"/>
   <rect class="fil1" y="15" width="89.9335" height="1.4611"/>
   <rect class="fil1" x="441" y="15" width="89.9335" height="1.4611"/>
  </g>
 </g>
</svg>
