<?xml version="1.0" encoding="UTF-8"?>
<!DOCTYPE svg PUBLIC "-//W3C//DTD SVG 1.0//EN" "http://www.w3.org/TR/2001/REC-SVG-20010904/DTD/svg10.dtd">
<!-- Creator: CorelDRAW 2020 -->
<svg xmlns="http://www.w3.org/2000/svg" xml:space="preserve" width="24px" height="24px" version="1.0" style="shape-rendering:geometricPrecision; text-rendering:geometricPrecision; image-rendering:optimizeQuality; fill-rule:evenodd; clip-rule:evenodd"
viewBox="0 0 4.84 4.84"
 xmlns:xlink="http://www.w3.org/1999/xlink"
 xmlns:xodm="http://www.corel.com/coreldraw/odm/2003">
 <defs>
  <style type="text/css">
   <![CDATA[
    .str0 {stroke:#999999;stroke-width:0.1;stroke-miterlimit:22.9256}
    .fil0 {fill:none}
    .fil1 {fill:#F20E16}
   ]]>
  </style>
 </defs>
 <g id="Capa_x0020_1">
  <metadata id="CorelCorpID_0Corel-Layer"/>
  <g id="_-1481935120">
   <circle class="fil0 str0" cx="2.42" cy="2.42" r="2.37"/>
   <path class="fil1" d="M3.57 1.3c0.03,-0.03 0.06,-0.05 0.09,-0.08l0.08 -0.07c0.24,-0.2 0.68,-0.51 0.95,-0.67 0.03,-0.03 0.06,-0.04 0.07,-0.09 0.02,-0.03 0.03,-0.1 0.01,-0.13 -0.04,-0.06 -0.18,0.01 -0.24,0.04 -0.07,0.03 -0.15,0.06 -0.22,0.09 -0.29,0.13 -0.56,0.3 -0.83,0.46 -0.13,0.08 -0.3,0.21 -0.39,0.26 -0.01,-0.01 -0.27,-0.27 -0.34,-0.33l-0.19 -0.16c-0.06,-0.05 -0.12,-0.09 -0.19,-0.14 -0.27,-0.18 -0.7,-0.36 -1.01,-0.17 -0.07,0.04 -0.14,0.09 -0.15,0.19 -0.03,0.24 0.33,0.37 0.54,0.48 0.31,0.16 0.56,0.34 0.81,0.52l-0.22 0.19c-0.13,0.11 -0.26,0.23 -0.38,0.36l-0.12 0.12c-0.2,0.2 -0.46,0.55 -0.56,0.81 -0.09,0.25 -0.1,0.53 0.06,0.72 0.07,0.1 0.19,0.13 0.32,0.04 0.07,-0.05 0.14,-0.17 0.19,-0.27 0.22,-0.42 0.24,-0.48 0.51,-0.87 0.14,-0.2 0.27,-0.33 0.41,-0.51 0.03,-0.04 0.07,-0.08 0.11,-0.12l0.11 -0.12c0.06,0.05 0.13,0.12 0.18,0.17 0.18,0.17 0.35,0.35 0.51,0.54 0.21,0.23 0.44,0.53 0.61,0.78l0.28 0.42c0.04,0.03 0.14,0.05 0.18,0.02 0.05,-0.04 0,-0.12 -0.02,-0.17 -0.02,-0.06 -0.04,-0.11 -0.07,-0.16 -0.25,-0.58 -0.79,-1.45 -1.21,-1.94 -0.02,-0.02 -0.04,-0.03 -0.05,-0.06l0.17 -0.15z"/>
  </g>
 </g>
</svg>
