<?xml version="1.0" encoding="UTF-8"?>
<!DOCTYPE svg PUBLIC "-//W3C//DTD SVG 1.0//EN" "http://www.w3.org/TR/2001/REC-SVG-20010904/DTD/svg10.dtd">
<!-- Creator: CorelDRAW X8 -->
<svg xmlns="http://www.w3.org/2000/svg" xml:space="preserve" width="600px" height="300px" version="1.0" style="shape-rendering:geometricPrecision; text-rendering:geometricPrecision; image-rendering:optimizeQuality; fill-rule:evenodd; clip-rule:evenodd"
viewBox="0 0 215 107"
 xmlns:xlink="http://www.w3.org/1999/xlink">
 <defs>
  <style type="text/css">
   <![CDATA[
    .fil1 {fill:#F20E16}
    .fil0 {fill:url(#id0)}
   ]]>
  </style>
  <linearGradient id="id0" gradientUnits="userSpaceOnUse" x1="107.251" y1="107.251" x2="107.251" y2="0">
   <stop offset="0" style="stop-opacity:1; stop-color:#E0E0E0"/>
   <stop offset="0.109804" style="stop-opacity:1; stop-color:#EFEFEF"/>
   <stop offset="0.470588" style="stop-opacity:1; stop-color:white"/>
   <stop offset="1" style="stop-opacity:1; stop-color:white"/>
  </linearGradient>
 </defs>
 <g id="Capa_x0020_1">
  <metadata id="CorelCorpID_0Corel-Layer"/>
  <g id="_2486059078096">
   <path class="fil0" d="M215 0c0,59 -49,107 -108,107 -59,0 -107,-48 -107,-107l215 0z"/>
   <path class="fil1" d="M122 60l-1 -1c0,-1 0,-1 0,-1 -1,-2 -3,-7 -1,-8 2,-1 10,-1 12,-1l9 0 0 -4c-3,0 -7,0 -11,0 -3,0 -7,0 -10,0 -2,1 -5,3 -5,5 -1,3 1,7 2,9 1,4 5,11 2,16 -1,5 -6,8 -13,7 -4,0 -9,-2 -11,-5 -4,-6 1,-13 3,-19 2,-2 3,-5 2,-8 -1,-3 -3,-5 -6,-5 -3,0 -7,0 -10,0 -3,0 -7,0 -10,0l0 4c2,1 13,0 16,0 2,0 6,0 6,2 1,6 -9,15 -6,25 1,2 2,4 3,5 6,6 17,8 25,3 6,-4 7,-11 6,-18 -1,-1 -2,-6 -2,-6zm-45 13c0,4 5,3 5,0 -1,-3 -6,-3 -5,0zm53 2c0,4 5,3 5,0 0,-4 -6,-3 -5,0zm-3 -12c0,4 6,3 5,0 0,-1 -1,-3 -3,-2 -1,0 -2,1 -2,2zm7 -10c-3,1 -2,6 2,5 3,-1 1,-6 -2,-5zm-53 13c1,3 6,2 5,-2 -1,-3 -6,-2 -5,2zm-1 -13c-3,1 -1,6 2,5 3,-1 2,-6 -2,-5zm43 -32c-1,-1 -1,0 -2,0l-3 4c-2,2 -4,3 -5,5 -7,10 -7,20 -9,31 -1,3 -2,5 -3,8 -1,7 7,10 11,6 2,-3 1,-5 1,-8 -4,-19 -2,-28 8,-43 1,-1 2,-3 2,-3z"/>
  </g>
 </g>
</svg>
