<?xml version="1.0" encoding="UTF-8"?>
<!DOCTYPE svg PUBLIC "-//W3C//DTD SVG 1.0//EN" "http://www.w3.org/TR/2001/REC-SVG-20010904/DTD/svg10.dtd">
<!-- Creator: CorelDRAW X8 -->
<svg xmlns="http://www.w3.org/2000/svg" xml:space="preserve" width="600px" height="300px" version="1.0" style="shape-rendering:geometricPrecision; text-rendering:geometricPrecision; image-rendering:optimizeQuality; fill-rule:evenodd; clip-rule:evenodd"
viewBox="0 0 288 144"
 xmlns:xlink="http://www.w3.org/1999/xlink">
 <defs>
  <style type="text/css">
   <![CDATA[
    .fil1 {fill:#F20E16}
    .fil0 {fill:url(#id0)}
   ]]>
  </style>
  <linearGradient id="id0" gradientUnits="userSpaceOnUse" x1="144.195" y1="144.196" x2="144.195" y2="0">
   <stop offset="0" style="stop-opacity:1; stop-color:#E0E0E0"/>
   <stop offset="0.109804" style="stop-opacity:1; stop-color:#EFEFEF"/>
   <stop offset="0.470588" style="stop-opacity:1; stop-color:white"/>
   <stop offset="1" style="stop-opacity:1; stop-color:white"/>
  </linearGradient>
 </defs>
 <g id="Capa_x0020_1">
  <metadata id="CorelCorpID_0Corel-Layer"/>
  <g id="_2486060469088">
   <path class="fil0" d="M288 0c0,80 -64,144 -144,144 -79,0 -144,-64 -144,-144l288 0z"/>
   <path class="fil1" d="M131 97c4,1 7,2 11,2 3,1 4,-2 2,-3 -1,0 -4,-1 -5,-1 -7,-1 -10,-1 -16,-5 -4,-2 -7,-6 -9,-10 -10,-16 -3,-37 12,-45 10,-5 23,-5 33,0 3,2 5,4 7,6 2,2 4,6 5,8 2,4 2,8 2,12 -2,0 -6,0 -6,2 1,2 4,2 6,2l4 5c0,1 2,5 2,6 -1,1 -5,0 -6,2 0,1 0,15 0,17 0,4 1,5 -3,4l-12 -1c-1,0 -2,0 -2,2 -2,4 -3,9 -4,13l-24 -3 3 -13zm-4 -28c1,0 1,-2 0,-2 -2,-1 -2,0 -4,0 -2,-1 -3,-2 -4,-4 -1,-2 0,-4 1,-6 0,1 0,0 0,1 4,4 7,0 5,-2 -1,0 -2,0 -2,-1 -1,-2 -1,-2 -2,-3 0,-3 2,-7 6,-7 0,1 0,1 1,2 1,1 2,1 3,1 3,1 3,-2 1,-3 -1,0 -2,0 -2,-1 0,-1 3,-4 7,-3l0 40c-2,1 -4,1 -5,0 -1,-1 -2,-1 -2,-2 -2,-3 -1,-1 -4,-2 -3,-1 -5,-4 -4,-6 0,-1 4,0 5,-2zm22 29c-2,1 0,4 2,3 2,-1 0,-5 -2,-3zm-1 -36c-7,1 -8,10 -4,8 2,0 1,-4 4,-4 1,-1 3,-1 3,-2 0,-2 -1,-2 -3,-2zm-15 -10c-2,1 0,4 -4,5 -1,0 -2,0 -2,2 0,4 9,1 9,-5 -1,-2 -2,-3 -3,-2zm1 15c-2,0 0,4 -4,4 -1,1 -2,1 -2,2 -1,4 9,2 8,-5 0,-1 -1,-2 -2,-1zm13 -20c-7,1 -7,11 -3,9 1,-1 0,-4 3,-5 2,0 3,0 3,-2 0,-1 -1,-2 -3,-2zm-6 -6c2,0 3,-1 5,1 2,1 2,3 3,3 2,1 3,0 5,2 2,1 2,3 2,5 -2,0 -3,0 -4,0 -3,1 -2,4 0,4 1,0 1,-1 3,0 1,0 3,1 4,3 1,2 0,5 -1,6 -5,-5 -8,0 -5,1 1,1 1,0 2,2 0,1 1,2 1,3 1,3 -1,6 -5,6 -1,-1 -1,-1 -2,-2 -4,-2 -6,1 -4,2 1,1 2,0 3,2 0,1 -4,4 -7,2l0 -40zm-22 13c-1,1 -2,1 -3,3 -2,4 -1,8 2,11 0,0 0,0 1,1 0,2 -2,4 1,8 2,2 3,3 7,3 2,4 6,6 11,4 2,-1 7,3 11,-2 1,0 1,-1 1,-1 5,0 9,-3 10,-8 0,-2 -1,-3 -1,-5 3,-1 5,-7 2,-11 0,-2 -1,-2 -2,-3 0,-2 0,-2 0,-5 0,-4 -4,-7 -8,-7 -2,-3 -5,-5 -10,-4 0,0 -2,0 -2,0 -1,0 -6,-3 -11,2 -1,1 0,1 -2,2 -5,0 -10,5 -7,12zm13 -25l-3 1c0,0 0,0 0,0 0,0 0,0 0,0l-4 1 0 0 -3 3c-1,0 -2,1 -2,1l-2 1 0 1c-1,0 -1,1 -2,1 0,1 0,0 -1,1 0,0 0,0 0,0l-2 2 -2 3c0,0 0,1 -1,1 0,1 -1,2 -1,4 -1,1 -1,2 -2,3l-1 3c0,1 0,4 0,4l-1 3 1 4 0 3 1 4 1 3 0 1 1 3c1,0 1,1 2,2 1,2 3,4 3,5 1,0 1,0 1,0 0,1 0,1 1,1 0,0 0,1 0,1 1,0 1,0 2,1 0,0 0,0 0,0 0,1 0,0 0,1 1,0 2,1 4,2 1,1 2,2 3,2l3 1 -1 1 0 3 -2 7c0,2 -1,3 -1,5 1,0 1,0 1,1 2,0 3,0 4,0 1,0 2,1 3,1 1,0 7,0 7,1 1,0 3,0 3,0 1,0 3,0 4,1 1,-1 2,0 3,0l4 0c2,0 2,0 2,-1 0,-2 1,-3 1,-4 0,-1 1,-3 1,-4 0,-1 1,-2 1,-3l1 -2 1 0 3 0 4 1 3 0c2,0 2,0 4,0 2,-1 3,-3 3,-6l0 -3 0 -4 0 -3 0 -4 0 -2c1,-2 5,0 6,-5 0,-1 -1,-2 -1,-3 0,0 -2,-3 -2,-4 -1,-1 -2,-2 -2,-3 0,-1 -1,-1 -1,-2l0 -1c-1,0 -1,-6 -1,-8l0 -3 0 0c0,0 0,0 0,0l-1 -3c-1,-1 -1,-2 -1,-3 0,0 0,0 -1,0 0,-1 0,-1 0,-1 0,-1 -1,-2 -2,-3l-1 -2c0,0 0,0 -1,-1 0,0 0,0 0,0 0,0 0,0 0,-1 -1,0 -2,-1 -2,-1 -1,-1 0,0 -1,-1l0 0c-1,-1 -1,-1 -1,-1l-2 -1c0,0 -1,-1 -1,-1 -1,0 -1,-1 -2,-1 -1,-1 -2,-1 -4,-2 0,0 -1,0 -2,0 0,0 0,0 0,0l-1 -1c-1,0 -4,0 -5,-1 -1,0 -3,0 -4,0l-5 0c-1,0 -3,0 -4,0 -1,0 -2,1 -3,1z"/>
  </g>
 </g>
</svg>
