<?xml version="1.0" encoding="UTF-8"?>
<!DOCTYPE svg PUBLIC "-//W3C//DTD SVG 1.0//EN" "http://www.w3.org/TR/2001/REC-SVG-20010904/DTD/svg10.dtd">
<!-- Creator: CorelDRAW X8 -->
<svg xmlns="http://www.w3.org/2000/svg" xml:space="preserve" width="251px" height="125px" version="1.0" style="shape-rendering:geometricPrecision; text-rendering:geometricPrecision; image-rendering:optimizeQuality; fill-rule:evenodd; clip-rule:evenodd"
viewBox="0 0 70 35"
 xmlns:xlink="http://www.w3.org/1999/xlink">
 <defs>
  <style type="text/css">
   <![CDATA[
    .fil1 {fill:#F20E16}
    .fil0 {fill:url(#id0)}
   ]]>
  </style>
  <linearGradient id="id0" gradientUnits="userSpaceOnUse" x1="34.9973" y1="34.9973" x2="34.9973" y2="0">
   <stop offset="0" style="stop-opacity:1; stop-color:#E0E0E0"/>
   <stop offset="0.109804" style="stop-opacity:1; stop-color:#EFEFEF"/>
   <stop offset="0.470588" style="stop-opacity:1; stop-color:white"/>
   <stop offset="1" style="stop-opacity:1; stop-color:white"/>
  </linearGradient>
 </defs>
 <g id="Capa_x0020_1">
  <metadata id="CorelCorpID_0Corel-Layer"/>
  <g id="_2486060469824">
   <path class="fil0" d="M70 0c0,19 -16,35 -35,35 -19,0 -35,-16 -35,-35l70 0z"/>
   <path class="fil1" d="M28 20c0,0 0,-1 1,-1 0,0 1,0 2,0 1,0 3,0 4,0 1,0 3,0 4,0 1,0 2,0 2,0 1,0 1,2 0,3 0,0 -1,0 -2,0 -1,0 -3,0 -4,0 -1,0 -3,0 -4,0 -1,0 -2,0 -3,-1 0,0 0,0 0,-1zm1 -7c0,0 4,0 4,0 3,0 5,0 7,0 1,0 1,0 2,1 1,1 0,2 -1,2 -1,0 -2,0 -2,0 -1,0 -2,0 -2,0l-7 0c-1,0 -1,0 -2,0 0,-1 0,-1 0,-2 0,0 0,0 0,-1 1,0 1,0 1,0zm0 0c-1,0 -1,0 -1,0 -1,1 -1,3 1,4 0,0 1,0 2,0l7 0c1,0 3,0 4,-1 1,-1 1,-3 -1,-3 0,-1 -1,-1 -2,-1l-7 0c-1,0 -3,0 -3,1zm0 5c-2,0 -3,4 -1,4 1,1 2,1 3,1l9 0c1,0 2,0 2,-1 1,-1 1,-3 0,-4 -1,0 -2,0 -3,0 -2,0 -3,0 -5,0 -1,0 -2,0 -2,0 -1,0 -2,0 -3,0z"/>
  </g>
 </g>
</svg>
