<?xml version="1.0" encoding="UTF-8"?>
<!DOCTYPE svg PUBLIC "-//W3C//DTD SVG 1.0//EN" "http://www.w3.org/TR/2001/REC-SVG-20010904/DTD/svg10.dtd">
<!-- Creator: CorelDRAW X8 -->
<svg xmlns="http://www.w3.org/2000/svg" xml:space="preserve" width="251px" height="125px" version="1.0" style="shape-rendering:geometricPrecision; text-rendering:geometricPrecision; image-rendering:optimizeQuality; fill-rule:evenodd; clip-rule:evenodd"
viewBox="0 0 70 35"
 xmlns:xlink="http://www.w3.org/1999/xlink">
 <defs>
  <style type="text/css">
   <![CDATA[
    .fil1 {fill:#F20E16}
    .fil0 {fill:url(#id0)}
   ]]>
  </style>
  <linearGradient id="id0" gradientUnits="userSpaceOnUse" x1="34.9973" y1="34.9973" x2="34.9973" y2="0">
   <stop offset="0" style="stop-opacity:1; stop-color:#E0E0E0"/>
   <stop offset="0.109804" style="stop-opacity:1; stop-color:#EFEFEF"/>
   <stop offset="0.470588" style="stop-opacity:1; stop-color:white"/>
   <stop offset="1" style="stop-opacity:1; stop-color:white"/>
  </linearGradient>
 </defs>
 <g id="Capa_x0020_1">
  <metadata id="CorelCorpID_0Corel-Layer"/>
  <g id="_2485999410816">
   <path class="fil0" d="M70 0c0,19 -16,35 -35,35 -19,0 -35,-16 -35,-35l70 0z"/>
   <path class="fil1" d="M31 12c-1,0 -1,0 -1,0 -1,0 -1,1 -1,1 1,0 1,0 1,-1 0,0 1,0 1,0zm5 7c0,0 0,0 0,0 0,0 0,1 0,0 0,0 -1,0 -1,0 1,0 1,0 1,0zm-4 -4c1,0 1,0 1,1 0,0 0,0 -1,0 0,0 0,0 0,0 0,-1 0,-1 0,-1zm2 2c0,0 1,0 0,0 0,0 0,1 0,1 0,-1 0,-1 0,-1 0,0 0,0 0,0zm-4 -4c0,0 0,0 0,1 0,0 0,0 0,0 0,1 0,1 0,2 1,0 2,1 2,2 1,0 3,3 4,3 0,0 0,0 0,-1l1 0c0,0 1,-1 1,-1 0,0 0,-1 1,-1 0,0 -1,0 -1,0 0,0 -1,1 -1,0 -1,0 0,-1 0,-1l-1 -1c0,0 0,0 0,0 0,0 -1,1 -1,0 0,0 0,-1 1,-1 -1,0 -1,-1 -2,-1 0,0 0,1 -1,1 0,-1 1,-1 1,-2 -1,0 -1,-1 -2,-1 0,0 -1,1 -1,1 0,0 -1,0 -1,0zm6 9c0,0 1,1 2,1l3 -3c-1,0 -1,0 -1,-1 0,0 -1,0 -1,0l-3 3zm3 3c0,-1 0,-1 0,-1l3 -2c0,-1 1,-2 0,-2 0,0 0,0 0,0 -1,1 -1,1 -1,1l-3 3c0,0 -1,1 0,1 0,0 0,0 1,0zm3 0c0,0 1,0 1,0l-2 -2c0,0 0,1 0,1l1 1zm1 2c0,0 0,-1 1,-1 0,0 1,-1 1,-1 0,0 0,-1 0,-1 -1,0 -1,1 -1,1 -1,0 -1,0 -1,1 -1,0 -2,1 -1,1 0,1 1,0 1,0zm-2 0c0,-1 0,-1 1,-1l-2 -2c-1,1 -2,3 -3,2 0,-1 0,-1 0,-2 0,0 0,0 0,0l-1 -2c-1,0 -6,-5 -6,-6 -1,-1 -1,-1 -1,-2 0,0 -1,-1 -1,-2 0,0 0,0 0,0 0,-1 -4,-4 -4,-5 0,0 0,0 1,0 0,0 2,2 2,2 0,0 2,2 2,2 1,0 1,0 2,0 0,0 0,1 1,1 0,0 0,0 1,0 0,0 0,0 1,0 0,0 4,4 5,5 0,0 2,2 2,3 0,-1 1,-1 1,-1 1,0 2,1 1,2 0,0 -1,1 -1,2l1 1c0,0 1,-1 2,0 1,0 1,0 1,1 0,0 -1,1 -2,2 0,0 -1,1 -2,1 -1,0 -1,0 -1,-1z"/>
  </g>
 </g>
</svg>
