<?xml version="1.0" encoding="UTF-8"?>
<!DOCTYPE svg PUBLIC "-//W3C//DTD SVG 1.0//EN" "http://www.w3.org/TR/2001/REC-SVG-20010904/DTD/svg10.dtd">
<!-- Creator: CorelDRAW X8 -->
<svg xmlns="http://www.w3.org/2000/svg" xml:space="preserve" width="600px" height="300px" version="1.0" style="shape-rendering:geometricPrecision; text-rendering:geometricPrecision; image-rendering:optimizeQuality; fill-rule:evenodd; clip-rule:evenodd"
viewBox="0 0 288 144"
 xmlns:xlink="http://www.w3.org/1999/xlink">
 <defs>
  <style type="text/css">
   <![CDATA[
    .fil1 {fill:#F20E16}
    .fil0 {fill:url(#id0)}
   ]]>
  </style>
  <linearGradient id="id0" gradientUnits="userSpaceOnUse" x1="144.195" y1="144.196" x2="144.195" y2="0">
   <stop offset="0" style="stop-opacity:1; stop-color:#E0E0E0"/>
   <stop offset="0.109804" style="stop-opacity:1; stop-color:#EFEFEF"/>
   <stop offset="0.470588" style="stop-opacity:1; stop-color:white"/>
   <stop offset="1" style="stop-opacity:1; stop-color:white"/>
  </linearGradient>
 </defs>
 <g id="Capa_x0020_1">
  <metadata id="CorelCorpID_0Corel-Layer"/>
  <g id="_2486059127408">
   <path class="fil0" d="M288 0c0,80 -64,144 -144,144 -79,0 -144,-64 -144,-144l288 0z"/>
   <path class="fil1" d="M117 35c1,-1 2,-2 4,-2 0,-1 3,-2 4,-2 0,5 3,4 4,3 0,-1 0,-2 0,-3 2,1 3,1 5,2 1,0 3,1 4,2 -1,1 -3,2 -1,3 2,2 3,0 4,0 0,1 1,1 2,3 0,2 1,3 1,5 -1,0 -3,0 -3,2 0,1 0,1 1,2 0,0 1,0 2,0 0,2 -2,7 -4,8 0,0 -1,-2 -3,0 -2,1 0,3 1,3 -2,1 -6,4 -9,4 0,-2 0,-3 -2,-3 0,0 -1,0 -1,0 -1,1 -1,2 -1,3 -1,0 -3,-1 -4,-2 -1,0 -3,-1 -4,-2 0,0 1,-1 1,-1 1,-2 -1,-3 -2,-3 -1,0 -1,1 -2,1 -1,-1 -3,-6 -3,-8 4,0 3,-3 2,-4 -1,0 -1,0 -2,0 0,-2 2,-7 3,-8 1,0 1,1 2,1 1,1 3,-1 2,-3 0,0 -1,-1 -1,-1zm10 16l1 0c3,0 4,-6 0,-6 -2,-1 0,1 -5,-2l-2 -2c-1,0 -1,0 -2,0 1,0 2,2 2,2 1,1 2,2 2,3 1,1 1,1 1,2 0,2 1,3 3,3zm2 21c1,0 1,0 1,-1 1,0 1,-1 1,-2 -2,1 -5,1 -7,0 0,2 0,3 1,3 0,2 0,5 1,7 0,2 0,5 0,7 3,11 16,14 22,5 4,-5 2,-8 3,-13 0,-2 -1,-5 -1,-7 1,-4 4,-6 9,-7 4,0 8,3 9,6 1,3 1,7 1,10 0,1 0,3 0,4 -1,0 -1,1 -1,2 0,1 0,2 0,3 2,-1 3,-1 5,0 0,0 1,0 1,0 0,-1 0,-4 0,-4 0,-1 0,-1 -1,-1 0,0 0,0 0,0 0,-3 0,-5 0,-7 0,-4 -1,-6 -2,-10l-2 -2c-1,-1 -2,-2 -4,-3 -4,-2 -9,-2 -12,0 -3,2 -6,5 -6,9 -1,2 0,5 0,7 0,2 0,6 0,7 -1,4 -4,7 -8,7 -5,0 -8,-2 -9,-6 -1,-2 -1,-5 -1,-7 0,-2 0,-5 0,-7zm52 32l0 -2c0,-4 -2,-8 -6,-11 -5,-3 -12,0 -14,7 -2,7 1,15 7,18 2,1 5,1 7,-1 4,-2 6,-7 6,-11zm-56 -76c0,0 -1,0 -2,0 -2,1 -4,1 -5,2 -7,4 -12,11 -11,20 1,4 2,7 5,11 0,0 1,2 2,2 2,2 3,3 6,4 6,2 12,1 17,-1 4,-3 7,-6 9,-11 4,-11 -2,-22 -12,-26 -2,-1 -6,-2 -9,-1z"/>
  </g>
 </g>
</svg>
