<?xml version="1.0" encoding="UTF-8"?>
<!DOCTYPE svg PUBLIC "-//W3C//DTD SVG 1.0//EN" "http://www.w3.org/TR/2001/REC-SVG-20010904/DTD/svg10.dtd">
<!-- Creator: CorelDRAW X8 -->
<svg xmlns="http://www.w3.org/2000/svg" xml:space="preserve" width="600px" height="300px" version="1.0" style="shape-rendering:geometricPrecision; text-rendering:geometricPrecision; image-rendering:optimizeQuality; fill-rule:evenodd; clip-rule:evenodd"
viewBox="0 0 288 144"
 xmlns:xlink="http://www.w3.org/1999/xlink">
 <defs>
  <style type="text/css">
   <![CDATA[
    .fil1 {fill:#F20E16}
    .fil0 {fill:url(#id0)}
   ]]>
  </style>
  <linearGradient id="id0" gradientUnits="userSpaceOnUse" x1="144.195" y1="144.196" x2="144.195" y2="0">
   <stop offset="0" style="stop-opacity:1; stop-color:#E0E0E0"/>
   <stop offset="0.109804" style="stop-opacity:1; stop-color:#EFEFEF"/>
   <stop offset="0.470588" style="stop-opacity:1; stop-color:white"/>
   <stop offset="1" style="stop-opacity:1; stop-color:white"/>
  </linearGradient>
 </defs>
 <g id="Capa_x0020_1">
  <metadata id="CorelCorpID_0Corel-Layer"/>
  <g id="_2485995030128">
   <path class="fil0" d="M288 0c0,80 -64,144 -144,144 -79,0 -144,-64 -144,-144l288 0z"/>
   <path class="fil1" d="M114 75c0,0 0,0 0,0 1,-2 1,-3 2,-5 4,-11 16,-16 28,-16 8,0 15,2 20,6 4,2 7,6 9,10 0,2 1,4 1,5 4,0 6,0 8,1 4,3 4,9 0,12 -2,2 -5,2 -8,1 0,1 -1,4 -1,5 -2,5 -5,8 -9,11 -8,6 -21,8 -31,4 -4,-1 -6,-2 -9,-4 -2,-2 -5,-4 -6,-7 -1,-1 -2,-2 -2,-4 -1,-1 -2,-4 -2,-5l-2 1c-8,0 -10,-7 -8,-12 2,-3 6,-3 10,-3zm37 6c0,1 1,2 2,3 2,2 7,1 7,-3 0,-3 -2,-5 -5,-5 -2,0 -4,2 -4,5zm-23 -1l0 1c0,2 2,4 4,4 2,0 3,0 4,-1 3,-3 0,-8 -3,-8 -3,0 -5,2 -5,4zm1 14c1,5 4,8 9,10 9,3 20,-1 21,-10l-4 -1c-1,1 0,3 -4,5 -5,4 -14,3 -17,-3 0,-1 0,-2 -1,-2 -1,0 -3,1 -4,1zm6 -57c-2,0 -2,0 -3,0 -2,2 2,5 0,6 -1,2 -3,1 -4,0 -3,-4 0,-9 5,-10 3,-1 6,2 7,4 1,0 2,3 2,5 1,3 0,4 0,6 -14,1 -26,8 -31,20 -2,3 0,1 -4,2 -3,1 -6,3 -7,6 -1,1 -2,3 -2,5 0,7 3,12 9,13 1,1 2,1 3,1 3,7 8,12 15,17 0,0 1,0 2,1 15,7 36,4 46,-9 3,-3 4,-6 5,-9 3,-1 3,0 6,-2 5,-3 7,-9 6,-14 0,-1 -1,-1 -1,-1 -2,-5 -4,-7 -9,-8 -1,0 -1,0 -2,0l-2 -5c-1,-1 -2,-3 -3,-5 -1,0 -2,-1 -2,-2 -1,0 -2,-1 -2,-2 -5,-3 -11,-6 -18,-7 1,-2 5,-6 7,-7 1,-1 4,-2 4,-3 1,-1 0,-4 -2,-4 -1,0 -1,1 -2,1 -3,2 -6,4 -8,6 -2,2 -2,3 -3,4 0,-5 -1,-9 -3,-12 -1,-2 -2,-3 -3,-4 -1,-1 -2,-1 -3,-1 -1,-1 -2,-1 -3,-1 -2,0 -3,0 -6,1 -10,5 -7,17 0,20 6,2 11,-5 8,-10 -1,-2 -1,-2 -2,-2 0,0 0,0 0,0z"/>
  </g>
 </g>
</svg>
