<?xml version="1.0" encoding="UTF-8"?>
<!DOCTYPE svg PUBLIC "-//W3C//DTD SVG 1.0//EN" "http://www.w3.org/TR/2001/REC-SVG-20010904/DTD/svg10.dtd">
<!-- Creator: CorelDRAW 2020 -->
<svg xmlns="http://www.w3.org/2000/svg" xml:space="preserve" width="14.49px" height="16px" version="1.0" style="shape-rendering:geometricPrecision; text-rendering:geometricPrecision; image-rendering:optimizeQuality; fill-rule:evenodd; clip-rule:evenodd"
viewBox="0 0 141 154.54"
 xmlns:xlink="http://www.w3.org/1999/xlink"
 xmlns:xodm="http://www.corel.com/coreldraw/odm/2003">
 <defs>
  <style type="text/css">
   <![CDATA[
    .str0 {stroke:#999999;stroke-width:3.38;stroke-miterlimit:22.9256}
    .fil0 {fill:none}
    .fil1 {fill:#F20E16}
   ]]>
  </style>
 </defs>
 <g id="Capa_x0020_1">
  <metadata id="CorelCorpID_0Corel-Layer"/>
  <g id="_-1506597728">
   <ellipse class="fil0 str0" cx="70.5" cy="84.04" rx="68.81" ry="68.8"/>
   <path class="fil1" d="M71.11 70.07l-8.73 -13.13c-8.01,-12.13 -19.54,-4.95 -22.48,2.95 8.95,3.74 12.02,3.51 18.39,20.53 3.48,9.27 5.5,21 9.22,29.72 4.21,0.19 5.64,-1.35 6.86,-4.91 6.9,-20.11 15.62,-35.99 25.84,-53.81 5.74,-10.02 21.54,-32.85 29.62,-40.61l10.3 -10.81c-9.78,0.47 -17.15,6.76 -23.3,11.85 -6.65,5.49 -13.71,11.47 -19.04,19.29l-13.12 17.36c-2.42,3.48 -4.57,6.86 -6.78,10.43 -1.34,2.16 -2.25,3.61 -3.16,5.39 -1.36,2.65 -2.01,4.14 -3.62,5.75z"/>
  </g>
 </g>
</svg>
