<?xml version="1.0" encoding="UTF-8"?>
<!DOCTYPE svg PUBLIC "-//W3C//DTD SVG 1.0//EN" "http://www.w3.org/TR/2001/REC-SVG-20010904/DTD/svg10.dtd">
<!-- Creator: CorelDRAW X8 -->
<svg xmlns="http://www.w3.org/2000/svg" xml:space="preserve" width="402px" height="400px" version="1.0" style="shape-rendering:geometricPrecision; text-rendering:geometricPrecision; image-rendering:optimizeQuality; fill-rule:evenodd; clip-rule:evenodd"
viewBox="0 0 84 83"
 xmlns:xlink="http://www.w3.org/1999/xlink">
 <defs>
  <style type="text/css">
   <![CDATA[
    .fil0 {fill:#1248A6;fill-rule:nonzero}
   ]]>
  </style>
 </defs>
 <g id="Capa_x0020_1">
  <metadata id="CorelCorpID_0Corel-Layer"/>
  <g id="_2486081794672">
   <path class="fil0" d="M0 73l1 0 0 2c0,-1 1,-1 1,-1 1,-1 1,-1 2,-1 1,0 2,1 2,1 1,1 2,2 2,3 0,1 -1,2 -1,3 -1,0 -2,1 -3,1 -1,0 -1,0 -2,0 0,-1 -1,-1 -1,-2l0 4 -1 0 0 -10zm4 1c-1,0 -2,0 -2,1 -1,1 -1,1 -1,2 0,1 0,1 0,2 1,0 1,0 1,1 1,0 1,0 2,0 0,0 1,0 1,0 1,-1 1,-1 1,-1 1,-1 1,-1 1,-2 0,0 0,-1 -1,-1 0,-1 0,-1 -1,-1 0,-1 -1,-1 -1,-1z"/>
   <path class="fil0" d="M13 74l-1 1c0,-1 -1,-1 -1,-1 0,0 -1,0 -1,0 0,1 0,1 0,1 0,0 0,1 0,1 0,0 1,0 1,1 1,0 1,0 2,1 0,0 0,0 0,1 0,0 0,1 -1,1 0,1 -1,1 -1,1 -1,0 -1,0 -1,0 -1,-1 -1,-1 -1,-1l0 -1c1,1 1,1 2,1 0,0 0,0 1,0 0,-1 0,-1 0,-1 0,0 0,-1 0,-1 0,0 -1,0 -1,-1 -1,0 -1,0 -2,-1 0,0 0,0 0,-1 0,0 0,-1 1,-1 0,-1 0,-1 1,-1 1,0 1,1 2,1z"/>
   <path class="fil0" d="M15 70c0,0 0,0 1,1 0,0 0,0 0,0 0,0 0,1 0,1 -1,0 -1,0 -1,0 0,0 0,0 -1,0 0,0 0,-1 0,-1 0,0 0,0 0,0 1,-1 1,-1 1,-1zm0 3l1 0 0 8 -1 0 0 -8z"/>
   <path class="fil0" d="M25 75l-1 0c-1,-1 -2,-1 -3,-1 -1,0 -1,0 -2,1 -1,1 -1,1 -1,2 0,1 0,1 0,2 1,0 1,0 2,1 0,0 1,0 1,0 1,0 2,0 3,-1l1 0c-1,1 -1,1 -2,1 0,1 -1,1 -2,1 -1,0 -2,0 -3,-1 -1,-1 -1,-2 -1,-3 0,-1 0,-1 1,-2 0,0 0,-1 1,-1 1,-1 1,-1 2,-1 1,0 1,0 2,0 0,1 0,1 1,1 0,0 0,1 1,1z"/>
   <path class="fil0" d="M30 73c1,0 2,1 3,1 0,1 1,2 1,3 0,1 -1,2 -1,3 -1,0 -2,1 -3,1 -1,0 -2,-1 -3,-1 -1,-1 -1,-2 -1,-3 0,-1 0,-2 1,-3 1,0 2,-1 3,-1zm0 1c-1,0 -2,0 -2,1 -1,1 -1,1 -1,2 0,1 0,1 0,2 1,0 1,0 1,1 1,0 1,0 2,0 0,0 1,0 1,0 1,-1 1,-1 1,-1 0,-1 1,-1 1,-2 0,-1 -1,-1 -1,-2 -1,-1 -1,-1 -2,-1z"/>
   <path class="fil0" d="M38 71l0 0c0,0 0,0 -1,0 0,0 0,0 0,0 0,0 0,1 0,1 0,0 0,0 0,0l0 1 1 0 0 1 -1 0 0 7 -1 0 0 -7 -1 0 0 -1 1 0 0 -1c0,0 0,-1 0,-1 0,0 0,0 0,0 1,-1 1,-1 1,-1 1,0 1,0 1,1z"/>
   <path class="fil0" d="M47 73l0 8 -1 0 0 -2c0,1 -1,1 -1,2 -1,0 -1,0 -2,0 -1,0 -2,-1 -3,-1 0,-1 -1,-2 -1,-3 0,-1 1,-2 1,-3 1,0 2,-1 3,-1 1,0 1,0 2,1 0,0 1,0 1,1l0 -2 1 0zm-4 1c0,0 -1,0 -1,1 -1,0 -1,0 -1,1 -1,0 -1,1 -1,1 0,1 0,1 1,2 0,0 0,0 1,1 0,0 1,0 1,0 1,0 1,0 2,0 0,-1 0,-1 1,-1 0,-1 0,-1 0,-2 0,-1 0,-1 -1,-2 0,-1 -1,-1 -2,-1z"/>
   <path class="fil0" d="M49 73l1 0 0 1c0,0 0,0 1,0 0,-1 0,-1 1,-1 0,0 0,0 0,0l0 1c0,0 0,0 -1,0 0,0 0,0 -1,1 0,0 0,0 0,1 0,0 0,1 0,2l0 3 -1 0 0 -8z"/>
   <path class="fil0" d="M53 73l1 0 0 2c0,-1 1,-1 1,-1 1,-1 1,-1 2,-1 0,0 0,0 1,0 0,1 0,1 0,1 1,0 1,1 1,1 0,-1 1,-1 1,-1 1,-1 1,-1 2,-1 0,0 1,0 1,1 0,0 1,0 1,1 0,0 0,1 0,2l0 4 -1 0 0 -4c0,-1 0,-2 0,-2 0,0 0,0 -1,-1 0,0 0,0 -1,0 0,0 0,0 -1,1 0,0 0,0 -1,1 0,0 0,1 0,2l0 3 -1 0 0 -4c0,-1 0,-2 0,-2 0,0 0,0 -1,-1 0,0 0,0 -1,0 0,0 0,0 -1,1 0,0 0,0 -1,1 0,0 0,1 0,2l0 3 -1 0 0 -8z"/>
   <path class="fil0" d="M73 73l0 8 -1 0 0 -2c0,1 0,1 -1,2 0,0 -1,0 -2,0 -1,0 -1,-1 -2,-1 -1,-1 -1,-2 -1,-3 0,-1 0,-2 1,-3 1,0 1,-1 2,-1 1,0 2,0 2,1 1,0 1,0 1,1l0 -2 1 0zm-3 1c-1,0 -1,0 -2,1 0,0 -1,0 -1,1 0,0 0,1 0,1 0,1 0,1 0,2 0,0 1,0 1,1 1,0 1,0 2,0 0,0 1,0 1,0 0,-1 1,-1 1,-1 0,-1 0,-1 0,-2 0,-1 0,-1 0,-2 -1,-1 -2,-1 -2,-1z"/>
   <path class="fil0" d="M84 70c0,1 0,1 -1,2 0,0 0,0 -1,1 0,0 -1,0 -1,0 -1,0 -1,0 -2,0 0,0 -1,-1 -1,-1 0,-1 0,-1 0,-2 0,0 0,-1 0,-1 0,-1 1,-1 1,-1 1,-1 1,-1 2,-1 0,0 1,0 1,1 1,0 1,0 1,1 1,0 1,1 1,1zm-1 0c0,0 0,-1 0,-1 0,-1 0,-1 -1,-1 0,0 -1,0 -1,0 -1,0 -1,0 -1,0 -1,0 -1,0 -1,1 -1,0 -1,1 -1,1 0,1 0,1 1,1 0,1 0,1 1,1 0,1 0,1 1,1 0,0 1,0 1,-1 1,0 1,0 1,-1 0,0 0,0 0,-1zm-3 -2l1 0c0,0 1,0 1,0 0,1 0,1 0,1 0,0 0,0 0,0 0,1 0,1 0,1 0,0 0,0 0,0 0,0 0,0 0,0 0,1 0,1 0,1l0 0c0,0 0,1 0,1l0 0 0 0c0,0 0,0 0,-1l0 0c0,0 0,0 0,0 0,0 -1,-1 -1,-1 0,0 0,0 0,0l-1 0 0 2 0 0 0 -4zm0 1l0 1 1 0c0,0 0,0 0,0 1,0 1,0 1,-1 0,0 0,0 0,0 -1,0 -1,0 -1,0l-1 0z"/>
   <path class="fil0" d="M27 28l1 0c0,-4 3,-7 6,-7 4,0 7,3 7,7 0,3 -3,6 -7,6l0 1c4,0 8,-3 8,-7 0,-4 -4,-8 -8,-8 -4,0 -7,4 -7,8z"/>
   <path class="fil0" d="M20 28c0,1 0,1 1,1 1,0 2,0 2,-1 0,-7 5,-12 11,-12 7,0 12,5 12,12 0,6 -5,11 -11,11 -1,0 -2,1 -2,2 0,1 1,1 2,1 8,0 14,-6 14,-14 0,-8 -7,-15 -15,-15 -8,0 -14,7 -14,15z"/>
   <path class="fil0" d="M14 28c0,5 2,10 6,14l1 -1c-4,-3 -6,-8 -6,-13 0,-11 9,-19 19,-19 7,0 13,3 16,9l1 -1c-3,-6 -10,-9 -17,-9 -11,0 -20,9 -20,20z"/>
   <path class="fil0" d="M55 41c-4,7 -12,11 -20,12 -1,0 -2,0 -2,1 0,1 1,2 2,2 9,-1 18,-6 23,-14 0,-1 0,-1 -1,-2 0,0 -1,0 -2,1z"/>
   <path class="fil0" d="M6 28c0,10 5,18 14,24 1,0 2,0 2,-1 0,-1 0,-2 -1,-2 -7,-5 -12,-12 -12,-21 0,-14 12,-25 25,-25 9,0 18,5 22,13 0,1 1,1 2,1 1,-1 1,-2 1,-3 -5,-8 -15,-14 -25,-14 -15,0 -28,12 -28,28z"/>
   <path class="fil0" d="M65 14l-8 0c-2,0 -11,1 -11,13 0,1 0,2 1,2 1,0 2,-1 2,-2 0,-9 5,-10 8,-10 0,0 4,0 6,0 0,3 0,20 0,23 -2,0 -6,0 -6,0 -1,0 -2,0 -2,1 0,1 1,2 2,2l9 0 0 -29 -1 0z"/>
   <path class="fil0" d="M65 21l-5 0c-4,0 -7,2 -7,6l0 1c0,10 -8,19 -19,19l0 1c9,0 16,-5 19,-13 0,0 12,0 12,0l0 -14 0 0zm-11 7l0 -1c0,-4 3,-5 6,-5 0,0 3,0 4,0 0,1 0,11 0,12 -1,0 -10,0 -11,0 1,-2 1,-4 1,-6z"/>
   <path class="fil0" d="M60 27c0,0 -1,0 -1,1 0,1 1,2 1,2l5 0c1,0 1,-1 1,-2 0,-1 0,-1 -1,-1l-5 0z"/>
   <path class="fil0" d="M33 28c0,0 0,34 0,37 -2,0 -8,0 -10,0 0,-3 0,-37 0,-37 0,-1 -1,-2 -2,-2 -1,0 -1,1 -1,2l0 40 16 0 0 -40c0,-1 -1,-2 -2,-2 0,0 -1,1 -1,2z"/>
   <polygon class="fil0" points="27,66 28,66 28,28 27,28 "/>
  </g>
 </g>
</svg>
