<?xml version="1.0" encoding="UTF-8"?>
<!DOCTYPE svg PUBLIC "-//W3C//DTD SVG 1.0//EN" "http://www.w3.org/TR/2001/REC-SVG-20010904/DTD/svg10.dtd">
<!-- Creator: CorelDRAW X8 -->
<svg xmlns="http://www.w3.org/2000/svg" xml:space="preserve" width="771px" height="400px" version="1.0" style="shape-rendering:geometricPrecision; text-rendering:geometricPrecision; image-rendering:optimizeQuality; fill-rule:evenodd; clip-rule:evenodd" viewBox="0 0 464 241" xmlns:xlink="http://www.w3.org/1999/xlink">
 <defs>
  <style type="text/css">
   <![CDATA[
    .fil0 {fill:#0075BB;fill-rule:nonzero}
   ]]>
  </style>
 </defs>
 <g id="Capa_x0020_1">
  <metadata id="CorelCorpID_0Corel-Layer"/>
  <g id="_2485999420736">
   <path class="fil0" d="M314 92c-3,-2 -7,-3 -12,-3 -5,0 -9,2 -12,4l0 -30 -16 0 0 99 16 0 0 -52c0,-3 3,-7 8,-8 3,0 6,1 8,4 2,3 2,7 2,11l0 45 15 0 0 -46c0,-14 -2,-18 -9,-24z"/>
   <path class="fil0" d="M206 115c-2,-21 -14,-26 -24,-26 -14,0 -22,9 -24,26 0,1 0,4 0,12 0,5 0,10 0,11 1,16 10,26 24,26 14,0 23,-10 24,-26 0,-1 1,-6 1,-11 0,-3 -1,-10 -1,-12zm-14 12c0,9 -1,12 -1,13 0,5 -3,11 -9,11 -6,0 -9,-6 -9,-11 0,0 0,-4 0,-13 0,-10 0,-14 0,-14 0,-6 3,-11 9,-11 6,0 9,5 9,11 0,0 1,4 1,14z"/>
   <path class="fil0" d="M366 138c0,0 0,1 0,2 0,3 -2,11 -9,11 -6,0 -8,-6 -9,-11 0,-2 0,-4 0,-10l33 0c0,0 0,-5 0,-8 0,-1 0,-3 0,-7 -1,-7 -3,-13 -7,-18 -4,-5 -10,-8 -17,-8 -13,0 -22,9 -24,26 0,1 0,3 0,12 0,5 0,10 0,11 1,16 10,26 24,26 14,0 23,-10 24,-26l-15 0zm-18 -20c0,-4 0,-4 0,-5 0,-6 3,-11 9,-11 7,0 9,7 9,11 1,2 1,3 1,5l-19 0z"/>
   <path class="fil0" d="M361 0l-257 0 -104 121 104 120 257 0 103 -120 -103 -121zm-251 12l245 0 93 110 -93 108 -245 0 -94 -109 94 -109z"/>
   <path class="fil0" d="M149 156c0,0 -2,-24 -2,-24 -1,-11 -3,-18 -9,-21 4,-3 9,-9 9,-21 0,-19 -12,-26 -26,-26l-23 0 0 98 15 0 0 -45 8 0c5,0 10,4 11,16l2 23c0,3 1,6 1,6l14 0c0,0 0,-3 0,-6zm-36 -80l7 0c8,0 12,4 12,12 0,0 0,1 0,2 0,1 0,2 0,2 0,5 -2,12 -11,12l-8 0 0 -28z"/>
   <path class="fil0" d="M250 137c0,1 0,2 0,3 0,5 -2,11 -9,11 -6,0 -9,-6 -9,-11 -1,-3 -1,-5 -1,-13 0,-10 1,-13 1,-14 0,-6 3,-11 9,-11 6,0 9,5 9,11 0,0 0,1 0,4l15 0c0,-1 0,-2 0,-2 -2,-21 -14,-26 -24,-26 -14,0 -23,9 -24,26 0,1 -1,4 -1,12 0,5 1,10 1,11 1,16 10,26 24,26 15,0 23,-9 24,-26 0,0 0,-1 0,-1l-15 0z"/>
  </g>
 </g>
</svg>
