<?xml version="1.0" encoding="UTF-8"?>
<!DOCTYPE svg PUBLIC "-//W3C//DTD SVG 1.0//EN" "http://www.w3.org/TR/2001/REC-SVG-20010904/DTD/svg10.dtd">
<!-- Creator: CorelDRAW -->
<svg xmlns="http://www.w3.org/2000/svg" xml:space="preserve" width="113px" height="90px" version="1.0" style="shape-rendering:geometricPrecision; text-rendering:geometricPrecision; image-rendering:optimizeQuality; fill-rule:evenodd; clip-rule:evenodd"
viewBox="0 0 1718.46 1367.63"
 xmlns:xlink="http://www.w3.org/1999/xlink"
 xmlns:xodm="http://www.corel.com/coreldraw/odm/2003">
 <defs>
  <style type="text/css">
   <![CDATA[
    .fil0 {fill:#505AA1}
    .fil2 {fill:#BABA1B}
    .fil1 {fill:#C8AC78}
   ]]>
  </style>
 </defs>
 <g id="Capa_x0020_1">
  <metadata id="CorelCorpID_0Corel-Layer"/>
  <g id="_105553169030144">
   <path class="fil0" d="M597.14 759.09c7.36,8.38 32.85,24.98 44.75,32.3 133.48,82.19 299.5,82.53 432.69,8.21 116.05,-64.76 233.01,-210.26 215.87,-409.99 -1.99,-23.1 -5.79,-44.88 -11.03,-66.66 -1.24,-5.2 -1.53,-11.61 -6.2,-13.04 -8.18,-2.48 -48.83,-2.89 -57.46,-2.59 -49.24,1.76 -87.03,17.38 -116.83,40.28 -55.24,42.52 -84.95,117.61 -119.28,194.21 -37.71,84.14 -66.41,139.83 -128.42,185.17 -57.52,42.07 -150.38,55.08 -223.11,39.66 -7.18,-1.52 -25.84,-7.61 -30.98,-7.55z"/>
   <path class="fil1" d="M1270.6 293.66c-3.08,-25.05 -38.93,-89.23 -56.19,-113.1 -42.09,-58.23 -85.45,-96.2 -150.15,-132.05 -101.07,-55.99 -272.99,-80.08 -335.34,20.18 -32.52,52.3 -18.99,120.97 33.36,158.37 51.3,36.67 122.95,28.34 185.76,10.27 98.99,-28.49 197.43,-71.15 282.52,11.02l40.04 45.31z"/>
   <path class="fil2" d="M440.94 378.32c-4.36,8.89 -2.38,67.85 -1.83,81.79 2.53,62.73 31.56,143.3 64.11,189.82 37.28,53.29 93.1,97.08 165.38,83.67 42.48,-7.88 77.4,-39.68 86.93,-82.07 10.31,-45.81 -11.12,-93.19 -49.55,-115.35 -55.33,-31.9 -123.44,-34.45 -201.41,-93.93 -13.08,-9.97 -32.34,-29.34 -43.43,-41.53l-20.2 -22.4z"/>
   <path class="fil0" d="M633.87 1362.21c3.66,2.06 30.31,0.84 36.74,0.84 10.75,0.02 8.93,1.67 9.08,-27.89 0.1,-24.95 0.16,-49.89 0.18,-74.84 0.01,-23.05 -1.39,-135.7 1.2,-149.26 15.52,20.34 57.99,95.2 75.85,123.58l57.04 93.67c5.09,8.56 13.92,23.92 19.95,29.57 14.92,14.04 54.62,12.17 55.39,-29.81 0.58,-30.81 1.97,-288.85 -1,-297.63 -5.96,-2.44 -16.37,-1.31 -23.53,-1.29 -6.43,0 -17.65,-1.36 -22.31,1.67 -3.65,8.26 -0.78,218.03 -2.3,249.8 -2.94,-1.26 -3.27,-3.05 -5.87,-7.02 -23.82,-36.31 -137.01,-230.38 -147.87,-239.5 -9.35,-7.87 -26.44,-9.65 -38.41,-2.62 -10.36,6.07 -16.14,16.62 -16.42,33.69 -1.51,89.02 -0.99,185.39 -0.08,275.05 0.06,4.06 0.13,8.12 0.17,12.17 0.12,12.53 0.45,8.46 2.19,9.82z"/>
   <path class="fil0" d="M1121.22 1073.25c36.99,-6.25 73.25,8.22 94.39,25.4 50.76,41.26 60.04,119.9 19.53,174.97 -13.14,17.86 -42.41,41.67 -76.05,45.39 -41.04,4.56 -70.53,-5.37 -94.92,-25.45 -19.46,-16.01 -38.68,-43.38 -43.42,-78.97 -5.06,-37.96 7.02,-72.35 24.52,-95.39 15.7,-20.66 39.61,-39.8 75.95,-45.95zm187.67 138.52c8.49,-99.75 -63.92,-175.83 -152.76,-184.25 -99.2,-9.41 -175.94,64.14 -184.81,152.38 -9.89,98.46 65.67,177.48 152.99,185.33 98.32,8.84 177.06,-65.17 184.58,-153.46z"/>
   <path class="fil0" d="M364.88 1224.78c0.16,-5.99 42.57,-124.12 46.68,-131.03 3.63,2.67 32.17,83.04 37.44,97.83 2.71,7.56 10.59,26.15 11.36,33.27 -14.8,0.92 -83.11,1.57 -95.48,-0.07zm-77.7 138.44c28.74,0 24.29,1.68 30.46,-14.85 4.11,-11 8.28,-21.95 12.35,-33.11 4.16,-11.4 8,-21.93 12.33,-33.19 4.86,-12.63 2.94,-12.2 9.51,-12.6 25.79,-1.5 99.13,-0.07 125.64,0.04 12.22,29.22 21.75,65.04 35.1,92.92 11.58,1.36 36.22,1.34 48.01,0.05 -0.52,-9.44 -60.95,-165.7 -65.59,-177.51 -17,-43.18 -33.19,-88.5 -50.69,-131.34 -3.16,-7.75 -4.94,-14.43 -10.95,-19.33 -4.56,-3.73 -13.21,-7.59 -21.71,-7.41 -20.63,0.43 -27.21,13.64 -32.71,27.82 -5.7,14.79 -11.3,29.15 -16.85,43.83 -14.18,37.63 -98.62,256.58 -98.01,264.19l23.11 0.49z"/>
   <path class="fil0" d="M0.04 1266.4c-0.76,35.85 22.29,64.63 40.2,78.01 49.7,37.08 127.61,30.13 164.73,-23.7 16,-23.22 23.94,-64 9.45,-93.77 -14.39,-29.6 -33.15,-38.45 -67.19,-51.24 -27.71,-10.41 -65.05,-18.71 -79.58,-37.7 -9.52,-12.43 -10.27,-30.58 -2.39,-44.94 6.26,-11.43 18.38,-20.73 34.49,-24.21 17.61,-3.82 35.27,0.23 46.2,9.07 12.58,10.15 16.86,16.22 22.2,36.86l46.17 -0.3c2.87,-13.43 -8.57,-35.86 -14.24,-44.16 -27.19,-39.72 -77.01,-55.22 -124.9,-38.15 -65.87,23.49 -82.45,106.16 -36.97,147.4 45.52,41.28 144.02,27.23 135.18,98.63 -3.98,32.12 -35.87,49.26 -70.17,46.37 -34.37,-2.89 -50.52,-26.36 -56.86,-59.05 -10.19,-0.5 -37.89,-1 -46.32,0.88z"/>
   <path class="fil0" d="M1392.31 1361.99c6.33,2.3 39.13,1.4 46.63,0.11 4.61,-20.87 -2.01,-116.87 1.74,-134.71 17.14,0 133.26,1.9 139,-1.62 2.79,-2.6 2.19,-30.51 1.4,-37.33 -0.44,-3.86 0.24,-2.59 -1.54,-4.74 -5.04,-3.27 -122.42,-1.58 -138.99,-1.58l-0.37 -107.69c16.13,0 134.87,1.42 139.16,-1.52 1.3,-1.29 0.81,-0.36 1.44,-2.8 0.21,-0.85 0.36,-2.96 0.41,-3.9 0.16,-2.96 0.18,-6.19 0.2,-9.17 0.36,-32.93 4.24,-27.23 -26.78,-27.62 -21.11,-0.27 -127.16,-1.9 -140.1,1.88 -26.04,7.6 -22.78,32.02 -22.81,48 -0.06,27.67 -1.78,261.07 0.61,282.69z"/>
   <path class="fil0" d="M1670.7 1030.48c-2.82,7.95 -1.78,241.95 -1.37,279.02 0.18,15.13 -0.95,38.37 1.05,52.53 8.13,2.17 36.61,0.9 46.09,0.75 3.17,-8.57 1.58,-176.71 1.58,-187.41 0,-48.49 0.3,-96.68 -0.85,-145.14 -5.26,-1.53 -41.17,-2.05 -46.5,0.25z"/>
  </g>
 </g>
</svg>
