<?xml version="1.0" encoding="UTF-8"?>
<!DOCTYPE svg PUBLIC "-//W3C//DTD SVG 1.0//EN" "http://www.w3.org/TR/2001/REC-SVG-20010904/DTD/svg10.dtd">
<!-- Creator: CorelDRAW X8 -->
<svg xmlns="http://www.w3.org/2000/svg" xml:space="preserve" width="1420px" height="400px" version="1.0" style="shape-rendering:geometricPrecision; text-rendering:geometricPrecision; image-rendering:optimizeQuality; fill-rule:evenodd; clip-rule:evenodd" viewBox="0 0 2213 623" xmlns:xlink="http://www.w3.org/1999/xlink">
 <defs>
  <style type="text/css">
   <![CDATA[
    .fil5 {fill:#1D1C1D}
    .fil6 {fill:#21374C}
    .fil3 {fill:#222021}
    .fil4 {fill:#222121}
    .fil2 {fill:#232122}
    .fil1 {fill:#242223}
    .fil0 {fill:#528ABE}
   ]]>
  </style>
 </defs>
 <g id="Capa_x0020_1">
  <metadata id="CorelCorpID_0Corel-Layer"/>
  <g id="_2485999374464">
   <path class="fil0" d="M167 220c48,-13 87,21 95,57 24,101 -126,136 -152,37 -12,-49 20,-84 57,-94zm-66 -141c3,4 -3,0 4,5 59,-1 126,43 143,75 -10,0 -15,-11 -37,-21 -111,-52 -246,42 -203,189 10,32 30,57 52,71 36,24 55,22 104,22 83,0 166,0 249,1 0,-68 0,-135 0,-203 0,-87 6,-109 -45,-159 -29,-27 -59,-41 -97,-55 -20,-8 -19,-3 -36,6l-134 69z"/>
   <path class="fil1" d="M684 421l27 0 0 -174c8,11 25,69 31,86 11,30 20,59 30,89 32,0 24,6 40,-41 6,-15 10,-29 16,-45 10,-28 19,-62 31,-88l1 174 26 0c3,-59 1,-151 1,-213l-39 0 -61 180 -46 -137c-17,-51 -2,-43 -57,-43l0 212z"/>
   <path class="fil1" d="M1340 233l61 0c65,0 54,44 43,57 -17,20 -75,13 -104,13l0 -9 0 -61zm-29 180l1 9 28 -1 0 -94c55,0 59,-2 86,37 13,18 25,39 37,58l35 0c-5,-13 -24,-40 -33,-53 -7,-11 -18,-26 -28,-34 -6,-5 -7,-5 -12,-9 7,-5 64,-11 56,-69 -6,-40 -38,-48 -80,-48l-90 0 0 204z"/>
   <path class="fil1" d="M1756 421l27 0 0 -163c8,7 104,152 111,164l29 0c2,-53 0,-155 0,-213l-27 0 0 164 -15 -19c-12,-19 -91,-143 -99,-145l-26 1 0 211z"/>
   <path class="fil1" d="M500 303l-1 -70c39,0 113,-13 113,35 -1,46 -73,35 -112,35zm-29 118l28 0 0 -94c23,0 48,-2 64,9 7,5 16,18 22,27 12,19 27,39 37,59l36 -1 -50 -76c-10,-12 -14,-10 -25,-20 74,-13 63,-76 43,-99 -14,-14 -42,-17 -68,-17 -25,0 -64,-2 -87,1l0 211z"/>
   <path class="fil1" d="M2160 393l0 -80 -91 0 1 25 62 1 0 38c-9,23 -148,57 -139,-71 6,-98 125,-96 137,-30 9,-2 19,-5 26,-8 -18,-89 -179,-91 -192,34 -3,26 2,52 13,73 23,43 76,58 123,47 35,-8 43,-21 60,-29z"/>
   <path class="fil1" d="M1606 231c48,-8 79,27 84,70 13,127 -135,130 -144,29 -4,-52 14,-91 60,-99zm1 -25c-60,6 -95,56 -90,122 11,139 217,129 202,-27 -5,-58 -48,-101 -112,-95z"/>
   <path class="fil1" d="M948 351l-25 2c-5,77 119,97 159,41 15,-22 11,-53 -4,-69 -28,-30 -112,-25 -119,-56 -11,-45 91,-60 99,2l27 -2c-1,-52 -56,-73 -107,-60 -57,14 -64,77 -18,101 27,14 132,21 99,70 -12,18 -41,24 -68,18 -28,-7 -34,-19 -43,-47z"/>
   <polygon class="fil1" points="1114,234 1183,235 1184,422 1212,421 1212,234 1282,234 1282,209 1114,209 "/>
   <path class="fil2" d="M1005 601c17,-1 7,1 16,-31 4,-12 11,-24 26,-20 3,14 -6,35 -7,51 17,-1 7,1 16,-32 3,-8 5,-17 15,-19 5,-2 1,-1 5,-1 7,1 4,1 6,2 3,12 -6,36 -7,50 13,0 9,3 15,-27 4,-15 8,-25 -2,-32 -12,-7 -23,3 -30,7 -6,-16 -22,-10 -31,0 -2,-9 4,-8 -8,-8 -7,8 -13,47 -14,60z"/>
   <path class="fil3" d="M743 600c17,1 9,1 17,-29 4,-15 9,-24 26,-22 3,14 -6,36 -7,52 16,-1 8,2 16,-31 4,-13 10,-24 26,-20 3,12 -5,37 -7,50 13,2 10,0 13,-14 4,-19 14,-43 -5,-46 -12,-2 -17,4 -22,9l-9 -8c-11,-2 -18,-2 -22,7l-2 -3c-5,-4 2,-4 -10,-4l-14 59z"/>
   <path class="fil2" d="M673 573l-11 -2c-9,32 -54,29 -46,-15 3,-14 12,-25 23,-28 8,-2 15,-2 20,3 12,9 0,12 15,12 3,-4 1,2 2,-5 0,-14 -20,-25 -42,-19 -16,4 -27,21 -30,39 -7,61 63,52 69,15z"/>
   <path class="fil2" d="M2015 553c23,-20 25,28 9,38 -15,9 -26,-10 -17,-29 4,-8 4,-6 8,-9zm25 -5c-6,-3 -14,-14 -30,-5 -8,4 -13,13 -15,23 -7,28 14,49 33,29 0,0 5,15 12,0l15 -77c-11,1 -10,-4 -15,30z"/>
   <path class="fil2" d="M866 551c26,-16 23,31 8,40 -23,14 -27,-28 -8,-40zm-32 72c22,0 6,-4 18,-30 17,20 38,3 43,-15 7,-28 -13,-52 -33,-31 -13,-20 -15,13 -19,33 -3,14 -6,28 -9,43z"/>
   <path class="fil2" d="M1262 579c-10,26 -37,14 -27,-14 11,-28 40,-17 27,14zm6 -30c-46,-42 -65,76 -15,49 8,-3 3,-3 8,0 15,10 -15,-3 4,3 5,-1 5,-5 7,-17l13 -66c-18,1 -7,2 -17,31z"/>
   <path class="fil2" d="M1851 578c10,-5 17,-5 30,-6 -2,11 -4,18 -14,21 -14,4 -18,-2 -16,-15zm-5 -20c22,1 3,-4 21,-9 13,-3 18,2 17,13 -17,7 -41,-1 -44,19 -4,24 24,23 36,14 6,6 1,5 13,6 -1,-18 11,-46 2,-55 -14,-14 -41,-5 -45,12z"/>
   <path class="fil2" d="M1115 565c6,-19 30,-27 32,0l-32 0zm38 16c-18,-1 -9,8 -24,12 -13,2 -16,-9 -16,-19 13,0 32,2 43,-2 11,-34 -39,-48 -52,-8 -14,43 41,50 49,17z"/>
   <path class="fil2" d="M724 551c10,28 -12,54 -27,38 -8,-8 -4,-25 1,-31 7,-11 16,-10 26,-7zm-21 -9c-33,13 -28,74 15,58 29,-12 28,-75 -15,-58z"/>
   <path class="fil2" d="M1300 591c-3,-10 -5,-23 2,-34 5,-7 17,-13 25,-5 11,10 4,50 -27,39zm7 -49c-16,6 -22,21 -21,39 2,18 19,26 38,18 29,-13 25,-73 -17,-57z"/>
   <path class="fil2" d="M1539 551c9,27 -13,54 -28,39 -7,-7 -4,-25 1,-33 7,-9 16,-9 27,-6zm-22 -9c-34,12 -26,77 17,57 27,-12 27,-73 -17,-57z"/>
   <path class="fil2" d="M970 549c25,-9 22,36 4,43 -26,10 -28,-34 -4,-43zm-6 -8c-32,13 -29,73 13,59 34,-11 28,-74 -13,-59z"/>
   <path class="fil4" d="M1965 592c4,9 -5,9 9,8 4,-6 12,-49 13,-59 -16,0 -8,0 -17,32 -4,15 -10,22 -27,19 -3,-15 5,-35 6,-51 -13,0 -10,1 -13,16 -1,8 -4,18 -5,26 -2,27 24,20 34,9z"/>
   <path class="fil2" d="M1820 585c-3,7 -9,11 -19,8 -16,-6 2,-14 -17,-13 -10,22 31,29 43,14 17,-21 -19,-27 -27,-38 3,-6 7,-10 16,-7 16,5 -2,13 19,9 -4,-24 -35,-22 -42,-10 -14,23 21,22 27,37z"/>
   <path class="fil4" d="M1558 600c12,1 10,2 13,-9 4,-20 4,-45 32,-42 3,12 -5,37 -7,52 15,0 12,-9 15,-25 4,-15 8,-24 -3,-34 -15,-6 -20,0 -28,7 -4,-9 5,-8 -9,-8l-13 59z"/>
   <path class="fil1" d="M1359 548c-6,37 31,16 27,43 -29,11 -18,-10 -34,-11 0,0 -7,3 0,13 8,11 33,11 41,2 8,-9 5,-20 -3,-25 -10,-6 -18,-5 -23,-14 2,-6 8,-11 17,-7 15,6 -3,10 18,10 -3,-24 -24,-24 -43,-11z"/>
   <path class="fil2" d="M1723 592c4,9 -5,9 9,8l14 -59c-18,0 -9,1 -17,31 -5,16 -12,23 -28,20 -4,-16 6,-34 6,-51 -13,0 -10,1 -13,15 -1,8 -4,19 -5,27 -2,25 22,22 34,9z"/>
   <path class="fil2" d="M1487 580c-20,-3 -6,18 -33,12 -7,-17 -3,-46 21,-43 12,9 -1,11 16,11 4,-29 -45,-30 -51,11 -6,46 47,34 47,9z"/>
   <path class="fil2" d="M1657 545c1,0 2,0 2,1l3 4c3,5 1,7 -2,19 -2,11 -5,20 -2,30 8,3 11,5 18,0 0,-8 -2,-4 -9,-9 7,-53 12,-34 19,-45 0,-1 -1,-2 -1,-1 0,0 -1,-1 -1,-1 0,-1 -1,-1 -1,-1 -3,-2 -1,0 -5,-4l3 -18c-16,6 -9,10 -16,19 -5,6 -1,-3 -8,6z"/>
   <path class="fil2" d="M1167 545c1,0 1,0 2,1 0,1 1,1 1,1 11,13 -8,29 -2,52 7,2 11,5 18,0 0,-8 -2,-4 -9,-9 7,-57 11,-33 19,-45 -4,-8 -1,0 -9,-7l4 -18c-7,3 -9,3 -12,11 -8,18 -4,4 -12,14z"/>
   <path class="fil3" d="M1901 601c13,-1 11,0 14,-15 1,-7 3,-14 4,-22 3,-13 8,-33 9,-46 -14,1 -10,-1 -18,37 -3,14 -7,32 -9,46z"/>
   <path class="fil4" d="M903 600c18,2 7,-5 17,-33 11,-28 21,-7 26,-24 -11,-8 -18,1 -21,7 0,0 0,-2 -1,-2l-1 -5c0,0 2,-6 -6,-1 -6,3 -13,51 -14,58z"/>
   <path class="fil3" d="M1195 601c16,-1 13,-9 16,-25 2,-10 6,-25 6,-35 -10,0 -9,-2 -12,7 -1,4 -2,13 -3,17 -2,12 -5,24 -7,36z"/>
   <path class="fil5" d="M2191 241l0 -10c11,-1 14,0 14,5 0,3 -2,5 -14,5zm-5 18c2,-1 5,0 5,0 0,0 1,-9 1,-13 5,0 7,-1 7,-1 5,3 7,13 9,13 1,1 3,0 5,0 -3,-9 -6,-12 -7,-13 9,-5 7,-15 -2,-18 -5,-1 -11,-1 -18,0l0 32z"/>
   <path class="fil3" d="M1213 530c10,-1 8,1 9,-12l-10 1c-2,10 -2,7 1,11z"/>
   <path class="fil6" d="M105 84c-7,-5 -1,-1 -4,-5 -5,-1 -4,-2 -3,3l7 2z"/>
  </g>
 </g>
</svg>
