<?xml version="1.0" encoding="UTF-8"?>
<!DOCTYPE svg PUBLIC "-//W3C//DTD SVG 1.0//EN" "http://www.w3.org/TR/2001/REC-SVG-20010904/DTD/svg10.dtd">
<!-- Creator: CorelDRAW -->
<svg xmlns="http://www.w3.org/2000/svg" xml:space="preserve" width="291px" height="90px" version="1.0" style="shape-rendering:geometricPrecision; text-rendering:geometricPrecision; image-rendering:optimizeQuality; fill-rule:evenodd; clip-rule:evenodd"
viewBox="0 0 2467.03 764.23"
 xmlns:xlink="http://www.w3.org/1999/xlink"
 xmlns:xodm="http://www.corel.com/coreldraw/odm/2003">
 <defs>
  <style type="text/css">
   <![CDATA[
    .fil2 {fill:#0A519E}
    .fil6 {fill:#0D51A1}
    .fil1 {fill:#0E51A0}
    .fil5 {fill:#19150B}
    .fil3 {fill:#1C1A03}
    .fil4 {fill:#1C1B0B}
    .fil7 {fill:#211C04}
    .fil0 {fill:#CAD401}
   ]]>
  </style>
 </defs>
 <g id="Capa_x0020_1">
  <metadata id="CorelCorpID_0Corel-Layer"/>
  <g id="_105553168132864">
   <path class="fil0" d="M260.56 19.72c56.96,-16.68 84.55,74.37 27.23,91.17 -66.79,19.56 -91.84,-72.25 -27.23,-91.17zm201.05 672.54c83.86,-91.3 71.14,-251.89 -30.54,-324.04 -65.65,-46.58 -91.06,-30.55 -117.33,-53.94 -31.77,-28.28 -13.89,-92.89 -41.12,-126.22 -0.6,-29.77 4.69,-35.9 18.03,-47.06 36.43,-30.51 75.08,-64.34 26.77,-122.88 -17.36,-15.91 -47.43,-24.21 -75.75,-9.83 -63.67,32.33 -4.64,103.71 -93.38,108.82 -62.49,3.59 -104.88,32.06 -128.93,72.34 -37.64,63.03 -19.31,160.24 45.69,196.91 22.47,12.68 43.64,26.9 23.29,94.32 -32.97,109.23 24.15,228.99 132.56,269.49 85.03,31.78 179.73,8.46 240.71,-57.91zm-207.38 3.91c-36.19,-8.57 -64.56,-29.92 -87.72,-63.26 -46.83,-67.47 -32.08,-149.54 19.05,-201.42 90.86,-92.18 248.38,-47.04 266.46,86.8 16.32,120.72 -85.36,204.48 -197.79,177.88zm-22.73 -495.11c72.65,94.57 -54.82,232.15 -161.62,137.18 -100.05,-117.76 64.18,-254.45 161.62,-137.18z"/>
   <path class="fil1" d="M1262.55 171.47c-18.43,12.13 -146.54,10.65 -173.68,2.92 -1.48,-15.82 -6.99,-54.47 4.52,-61.85 42.96,-2.02 90.88,-0.96 134.29,-0.59 19.47,0.16 46.24,-2.76 52.4,16.93 6.52,20.88 3.66,40.51 -17.53,42.59zm-228.27 139.56l51.21 -0.36 0.63 -81.78 6.6 5.66c40.73,14.92 122.13,75.34 159.94,77.69l79.67 -0.05c-34.05,-26.06 -123.78,-64.76 -154.38,-89.28 80.92,-8.2 161.72,15.37 157.22,-86.28 -1.89,-42.74 -11.72,-31.81 -26.43,-57.52l-61.12 -13.08 -212.84 -0.51 -0.5 245.51z"/>
   <path class="fil1" d="M1356.03 72.68l0.28 239.64 52.69 -0.01 1.31 -170.86c51.84,34.84 186.18,170.96 220.62,170.5 25.45,-0.34 23.75,-14.61 25.64,-38.9l0.12 -196.75 -0.94 -8.48 -51.67 0.66 0.55 167.28 -8.03 -4.64c-11.22,-6.8 -15.72,-14.25 -27.07,-22.78l-139.13 -118.14c-30.43,-23.19 -27.61,-32.3 -74.37,-17.52z"/>
   <path class="fil1" d="M792.57 202.36c12.92,-22.1 37.54,-51.81 45.08,-71.4l53.83 71.23 -98.91 0.17zm-90.14 32c-10.67,31.23 -37.94,51.46 -49.48,80.88 31.63,-5.96 43.96,3.92 72.99,-10.04 2.98,-16.63 21.85,-40.77 33.22,-55.68l166.65 -0.35c9.15,11.85 37.25,50.33 43.98,64.04l55.94 -0.46c5.33,-6.37 3.97,0.69 0.91,-13.29 -13.69,-7.55 -128.77,-183.25 -151.03,-214.08 -60.33,-83.5 -127.26,127.71 -173.18,148.98z"/>
   <path class="fil1" d="M422.97 72.63c-64.71,22.25 -48.82,64.83 -49.12,134.84 -0.32,74.79 11.48,96.42 86.97,102.11l188.93 1.43 -1.9 -47.04c-59.15,0.46 -170.94,8.11 -218.32,-9.44 -3.05,-20.55 -7.77,-117.83 3.3,-129.67 15.49,-22.87 74.66,-12.84 103.67,-12.84 37.72,0 75.46,-0.32 112.97,0.27l0.03 -48.91c-72.34,10.27 -153.19,-7.3 -226.53,9.25z"/>
   <polygon class="fil1" points="1974.14,109.1 2083.3,112.49 2083.92,312.49 2135.9,310.31 2137.64,112.42 2247.71,112.35 2247.61,63.29 1974.04,66.13 "/>
   <path class="fil1" d="M1682.35 265.6c18.2,29.2 35.17,36.92 74.67,42.5l127.75 -1.92c24.04,-13.56 4.89,6.85 -1.63,-7.96l45.37 -25.19c-17.56,-2.07 -7.08,3.69 -17.18,-15.74 -19.99,4.11 -165.88,18.26 -176.43,-8.15l-2.57 -121.49c10.66,-7.06 9.92,-8.29 25.82,-12.31 -0.11,-6.34 0.34,-6.88 3.94,-13.83 52.83,0 54.91,16.34 80.67,-5.01 -96.39,-0.2 -42.78,-4.55 -85.39,-9.39 -30.08,-3.42 -26.01,8.52 -30.6,-11.51 -36.73,9.55 -48.5,32.91 -48.44,76.13 0.04,35.23 -3.13,81.42 4.02,113.87z"/>
   <path class="fil1" d="M1726.77 75.6c4.59,20.03 0.52,8.09 30.6,11.51 42.61,4.84 -11,9.19 85.39,9.39 -25.76,21.35 -27.84,5.01 -80.67,5.01 -3.6,6.95 -4.05,7.49 -3.94,13.83 47.75,-9.38 127.84,-10.09 158.42,12.91 2.59,34.05 4.08,110.44 -5.24,129.04 10.1,19.43 -0.38,13.67 17.18,15.74l-45.37 25.19c6.52,14.81 25.67,-5.6 1.63,7.96l-127.75 1.92 146.27 0.36c36.79,-12.73 64.55,-18.5 68.08,-61.64 3,-36.59 1.74,-104.65 -2.79,-140.21 -15.78,-13.31 -8.08,-20.7 -38.82,-31.86 -19.34,-7.02 -45.55,-8.72 -66.7,-9.19 -30.26,-0.69 -115.15,-5.35 -136.29,10.04z"/>
   <path class="fil2" d="M2303.55 111.63c-22.51,-105.2 126.82,-124.86 144.24,-34.52 19.68,102.12 -126.2,118.88 -144.24,34.52zm52.34 -108.71c-121.43,29.36 -78.73,209.28 42.55,180.69 116.28,-27.41 73.04,-208.63 -42.55,-180.69z"/>
   <path class="fil3" d="M864.56 498.84l-0.78 -48.84c29.56,0.29 66.38,-3.03 89.63,6.28 14.25,52.35 -15.76,42.92 -88.85,42.56zm1.14 -61.41l-0.34 -46.19c32.58,0.28 59.23,-2.21 84.99,5.54l0.24 33.69c-24.01,10.35 -55.54,6.94 -84.89,6.96zm-21.34 75.57c26.45,-2.73 53.87,-0.37 80.74,-1.14 13.55,-0.39 24.66,-0.23 35.42,-6.87 15.13,-9.33 3.41,-5.44 13.58,-15.11 1.7,-28 2.33,-36.26 -22.29,-48.09 24.1,-18.09 20.93,-22.64 14.29,-54.39 -31.12,-12.94 -82.27,-10.27 -121.19,-7.9l-0.55 133.5z"/>
   <path class="fil4" d="M1784.7 391.78c33.67,-0.89 61.66,-2.12 89,5.2 2.97,24.39 7.67,28.14 -9.42,46.84l-81.27 0.95 1.69 -52.99zm-20.27 37.57c0.04,36.67 -6.39,71.22 7.75,82.51 14.34,-6.55 11.93,18.41 10.96,-53.46 28.45,-1.53 62.27,-2.75 86.51,4.17 13.48,65.63 -8.04,38.5 13.49,49.28 13.93,-8.42 9.32,-0.51 9.14,-27.02 -1.78,-24.02 -4.32,-23.38 -20.63,-34.29 17.71,-7.08 24.47,-10.7 23.21,-36.42 -2.62,-53.09 -107.07,-38.02 -130.44,-33l0.01 48.23z"/>
   <path class="fil5" d="M1178.69 443.84l0.42 -51.78c28.45,-1.7 90.16,-12.61 92.92,22.61 3.24,41.24 -59.67,33.67 -93.34,29.17zm-18.99 69.61l19.03 -1.59 -0.02 -52.37c16.58,-2.48 77.97,-9.43 80.3,8.05 16.32,8.76 6.54,4.06 9.92,22.35 4.65,25.1 -8.2,10.77 8.98,21.87 12.52,-6.05 8.01,-0.47 10.73,-16.64 5.52,-32.8 -12.88,-39.41 -21.66,-44.34 18.65,-6.81 24.9,-9.54 23.18,-36.46 -3.05,-47.69 -54.24,-34.73 -118.19,-35.72 -10.47,5.93 -12.47,-2.8 -12.99,30.29l0.72 104.56z"/>
   <path class="fil4" d="M1112.54 495.39c-29.91,6.26 -68.68,6.69 -95.49,-1.66 -9.01,-26.74 -9.93,-67.85 -0.52,-94.62 18.28,-9.54 77.99,-16.85 94.41,0.58 16.55,17.57 6.67,75.86 1.6,95.7zm-116.88 -5.51c13.21,18.52 19.27,20.76 50.06,22.6 19.33,1.15 50.84,2.1 68.51,-4.56 37.8,-14.24 18.71,-83.41 19.26,-113.22 -22.88,-16.5 -81.99,-26.07 -118.13,-11.27 -34.44,14.1 -23.18,72.76 -19.7,106.45z"/>
   <path class="fil5" d="M2125.14 489.88l7.59 16.51c38.92,7.27 137.13,25.26 118.55,-46.17 -14.66,-56.41 -114.36,18.84 -105.19,-61.98 16.62,-7.14 25.21,-8.78 49.99,-8.15 25.46,0.65 31.12,1.71 34.21,24.79l19.45 2.43c-5.1,-45.47 -34.21,-42.43 -79.39,-39.34 -41.01,2.81 -55.36,24.78 -37.44,58.88 28.56,27.8 71.4,0.83 100.24,26.09 2.47,23.9 1.03,33.53 -22.03,36.43 -89,11.17 -48.16,-23.18 -80.85,-29.06 -5.98,6.67 -5.43,-3.84 -5.13,19.57z"/>
   <path class="fil4" d="M1718.55 403.08c9.36,26 5.17,67.05 -2.17,91.69 -28.49,7.66 -67.06,8.42 -95.3,-0.48 -6.2,-18.44 -13,-83.94 2.91,-97.24 14.52,-12.12 77.84,-9.83 94.56,6.03zm-121.84 22.95c-0.36,27.32 2.6,52.02 7.73,75.96 31.77,11.15 92,19.03 124.57,0.45 11.81,-10.84 12.02,-46.05 11.81,-63 -3,-55.43 -10.39,-61.78 -69.5,-62.05 -46.51,-0.21 -72.24,0.34 -74.61,48.64z"/>
   <path class="fil4" d="M1990.03 399.11c24.81,-15.61 78.57,-11.21 97.56,2.36 15.72,21.71 1.71,72.92 -4.31,90.95 -0.5,1.5 -2.22,1.91 -2.95,2.24 -18.04,8.18 -75.73,7.37 -86.27,-0.04 -16.69,-11.75 -10.64,-77.58 -4.03,-95.51zm-22.61 80.68c10.48,31.63 18.73,31.49 56.84,32.85 34.39,1.23 51.1,-5.38 75.75,-7.63 13.97,-39.86 11.55,-78.39 1.32,-117.57 -42.99,-13.59 -91.69,-15.94 -129.26,3.76 -6.29,26.8 -6.23,58.09 -4.65,88.59z"/>
   <path class="fil4" d="M716.64 461.74l31.26 -68.02c12.37,13.24 30.57,52.97 34.18,73.18l5.04 6.96 -74.54 -0.05 4.06 -12.07zm-39.19 42.59c-0.91,11.09 4.02,6.37 16.11,5.09 10.84,-14.78 6.07,-15.79 19.47,-25.92l65.59 0.2c20.82,4.45 7.22,-6.77 16.28,8.71l6.58 17.99 23.35 1.4c-9.32,-24.76 -21.32,-47.77 -32.13,-71.22 -5.79,-12.54 -10.39,-23.25 -15.85,-34.73l-15.8 -24.69c-0.36,-1.71 -1.73,-1.84 -2.64,-2.8l-25.18 1.16 -55.78 124.81z"/>
   <path class="fil4" d="M1347.09 461.74l31.1 -68.17c10.97,11.66 30.95,54.49 34.4,73.42l5.1 6.81 -74.68 0.21 4.08 -12.27zm-18.77 48.27c2.85,-36.36 31.03,-26.43 97.02,-26.41 7.31,24.83 3.81,26.77 29.91,28.23 -9.36,-25.34 -26.98,-47.68 -28.77,-73.42 -9.54,-8.33 -3.52,-0.17 -11.56,-14.92 -8.79,-16.14 -5.81,-20.41 -20.85,-39.51l-27.26 -5.29 -60.88 133.58 22.39 -2.26z"/>
   <path class="fil6" d="M2353.06 61.03c24.02,-1.53 38.69,-5.86 37.74,19.25 -14.54,8.49 -16.41,6.63 -37.47,5.71l-0.27 -24.96zm-10.96 82.2c14.33,-5.91 8.12,0.62 11.61,-16.1 0.12,-0.59 0.16,-20.37 0.35,-23.78 49.53,1.05 6.58,43.05 62.94,38.93 -7.89,-17.53 -12.94,-26.96 -24.63,-40.74l5.5 -4.57c36.36,-33.88 6.43,-63.08 -64.19,-50.21l-0.32 75.43c1.73,27.02 -3.28,12.93 8.74,21.04z"/>
   <path class="fil7" d="M1514.48 513.43l19.37 -3.38 -0.07 -85.72c-0.01,-4.62 -0.54,-16.37 0.29,-20.29 2.84,-13.34 -2.27,-5.1 7.8,-11.48 19.8,-0.01 40.56,6.04 47,-8.58 -10.47,-7.61 -97.58,-8.5 -118.75,-4.68 -10.4,1.88 -4.99,1.02 -10.53,4.68 8.44,15.41 3.64,7.99 55.25,8.76l-0.36 120.69z"/>
   <polygon class="fil5" points="584.58,378.55 565.54,377.64 565.54,510.25 670.11,510.42 670.11,499.38 583.63,499.02 "/>
   <path class="fil4" d="M1945.57 509.92c-9.31,-36.53 -3.37,-82.56 -3.32,-121.17l2.41 -8.67 -21.57 -1.85 -0.02 133.94 22.5 -2.25z"/>
  </g>
 </g>
</svg>
