<?xml version="1.0" encoding="UTF-8"?>
<!DOCTYPE svg PUBLIC "-//W3C//DTD SVG 1.0//EN" "http://www.w3.org/TR/2001/REC-SVG-20010904/DTD/svg10.dtd">
<!-- Creator: CorelDRAW X8 -->
<svg xmlns="http://www.w3.org/2000/svg" xml:space="preserve" width="636px" height="400px" version="1.0" style="shape-rendering:geometricPrecision; text-rendering:geometricPrecision; image-rendering:optimizeQuality; fill-rule:evenodd; clip-rule:evenodd" viewBox="0 0 454 285" xmlns:xlink="http://www.w3.org/1999/xlink">
 <defs>
  <style type="text/css">
   <![CDATA[
    .fil0 {fill:#007CC2}
   ]]>
  </style>
 </defs>
 <g id="Capa_x0020_1">
  <metadata id="CorelCorpID_0Corel-Layer"/>
  <path class="fil0" d="M353 160c-10,43 -92,42 -71,-19 7,-20 19,-32 44,-33 26,-2 36,18 30,43l-48 0c-1,2 -11,26 -1,29 12,5 16,-12 18,-20l28 0zm-43 -18l19 0c3,-4 10,-29 -5,-25 -9,2 -12,15 -14,25zm-242 1c19,0 25,-5 31,-26 5,-20 8,-36 -15,-34l-16 60zm336 -20c2,-1 2,-2 4,-4 4,-4 8,-8 14,-10 23,-4 24,31 4,30 -5,0 -9,-2 -11,-5 -3,-4 -3,-8 -2,-13 -5,1 -8,9 -11,14 -4,9 -13,42 -15,52l-28 -1 17 -66 -10 0 2 -9 39 0 -3 12zm-178 -12l60 0c-1,4 -9,14 -11,18 -3,5 -30,47 -31,49l25 0 -3 9 -59 -1c1,-3 17,-28 20,-33 3,-4 20,-30 21,-33l-25 0 3 -9zm-100 15c-3,8 -7,12 -12,16 -12,10 -31,9 -48,9 -3,7 -6,30 -10,36l-28 -1c2,-14 28,-96 27,-103l-12 0 2 -9c19,0 39,0 58,0 17,0 28,11 28,29 0,7 -3,17 -5,23zm-29 134l45 -165c6,-23 13,-44 34,-57 25,-15 59,-7 57,19 -1,20 -30,22 -30,1 0,-10 7,-14 14,-16 0,-7 -27,-18 -36,16 -2,7 -14,49 -14,53l48 0 -20 75 -28 1c2,-11 6,-24 9,-34 1,-6 8,-29 8,-33l-20 0 -40 150c10,2 21,6 36,9 41,8 83,8 124,2 33,-5 73,-18 100,-35 5,-3 9,-6 13,-9 22,-16 42,-36 51,-63 9,-25 7,-52 -5,-74 -17,-36 -56,-64 -100,-80 -96,-35 -217,-24 -289,30 -38,29 -65,71 -49,122 5,17 14,30 25,42l12 11c14,12 36,28 55,35z"/>
 </g>
</svg>
