<?xml version="1.0" encoding="UTF-8"?>
<!DOCTYPE svg PUBLIC "-//W3C//DTD SVG 1.0//EN" "http://www.w3.org/TR/2001/REC-SVG-20010904/DTD/svg10.dtd">
<!-- Creator: CorelDRAW X8 -->
<svg xmlns="http://www.w3.org/2000/svg" xml:space="preserve" width="483px" height="400px" version="1.0" style="shape-rendering:geometricPrecision; text-rendering:geometricPrecision; image-rendering:optimizeQuality; fill-rule:evenodd; clip-rule:evenodd"
viewBox="0 0 116 96"
 xmlns:xlink="http://www.w3.org/1999/xlink">
 <defs>
  <style type="text/css">
   <![CDATA[
    .fil0 {fill:#0C7BC0}
    .fil1 {fill:#A3C5E8}
   ]]>
  </style>
 </defs>
 <g id="Capa_x0020_1">
  <metadata id="CorelCorpID_0Corel-Layer"/>
  <g id="_2485999372736">
   <path class="fil0" d="M11 50c0,-8 3,-15 6,-20 3,-4 5,-7 8,-10 1,0 1,-1 2,-1 9,-9 25,-16 39,-19 -5,0 -19,4 -24,6 -11,4 -20,9 -28,16 -20,20 -19,48 7,63 11,7 26,11 41,11 20,0 36,-4 52,-13 1,-1 2,-1 2,-2 -1,1 -3,2 -5,2 -25,12 -57,13 -80,-2 -9,-5 -20,-16 -20,-31zm20 5l26 0c1,-1 2,-3 3,-4 1,-1 1,-2 2,-4l12 -20c1,-1 2,-3 3,-4 -1,-1 -2,-2 -3,-4l-5 -7c-1,-2 -2,-3 -3,-4 0,0 -7,10 -8,11l-23 30c-1,1 -4,5 -4,6zm6 7c0,0 0,0 0,0l0 -1c0,-1 1,-1 -3,-1l-3 15 3 0c1,-3 2,-9 3,-11 1,-1 3,-2 4,-1 1,2 -2,10 -2,12l4 0c1,-3 1,-9 3,-11 0,-1 2,-2 3,-1 1,1 -2,10 -2,12l4 0c0,-3 2,-9 2,-12 0,-4 -6,-3 -8,-1 0,0 0,0 0,0 0,0 -1,-1 -1,-1 -2,-1 -5,-1 -7,1zm76 -1c-1,1 -1,0 -1,0 0,0 0,-1 1,-1 1,1 0,1 0,1zm-1 2c1,0 0,0 0,-1 2,0 0,1 2,1l0 -1c0,-1 0,-1 0,-2 -1,0 -1,0 -2,0l0 3zm3 -1c-1,4 -6,1 -4,-2 1,-2 6,-1 4,2zm-3 -4c-4,2 -2,8 2,7 3,-1 2,-8 -2,-7zm-23 1l4 0 1 -4 -4 0 -1 4zm-3 16l4 0c0,-1 2,-13 3,-15l-4 0 -3 15zm6 0l5 0c0,-1 2,-4 3,-4 0,1 1,3 2,4l4 0 -4 -7 7 -7c-1,-1 -2,-1 -3,-1 -2,0 -2,0 -2,1 -2,1 -2,3 -3,3l-2 -4 -4 0c0,2 2,5 3,6 0,2 -1,2 -3,5 -1,1 -1,1 -2,2 0,0 -1,1 -1,2zm-33 -9c1,-1 1,-3 3,-3 2,0 3,1 3,3l-6 0zm9 5l-4 -1c0,1 -1,3 -3,2 -2,0 -2,-1 -2,-3l9 0c1,-4 0,-8 -4,-9 -9,-1 -12,12 -5,15 4,1 8,-1 9,-4zm8 -8c5,-2 5,7 2,9 -3,1 -4,-1 -4,-3 0,-3 1,-5 2,-6zm7 -8l-2 7c-2,-3 -9,-4 -11,4 -2,9 5,11 9,7l0 2 3 0 5 -20c-2,0 -3,0 -4,0z"/>
   <path class="fil1" d="M79 23l17 29 20 0c0,-1 -3,-4 -4,-5l-11 -16c0,-1 -13,-20 -14,-20l-6 9c-1,1 -2,2 -2,3z"/>
  </g>
 </g>
</svg>
