<?xml version="1.0" encoding="UTF-8"?>
<!DOCTYPE svg PUBLIC "-//W3C//DTD SVG 1.0//EN" "http://www.w3.org/TR/2001/REC-SVG-20010904/DTD/svg10.dtd">
<!-- Creator: CorelDRAW X8 -->
<svg xmlns="http://www.w3.org/2000/svg" xml:space="preserve" width="780px" height="400px" version="1.0" style="shape-rendering:geometricPrecision; text-rendering:geometricPrecision; image-rendering:optimizeQuality; fill-rule:evenodd; clip-rule:evenodd"
viewBox="0 0 472 242"
 xmlns:xlink="http://www.w3.org/1999/xlink">
 <defs>
  <style type="text/css">
   <![CDATA[
    .fil1 {fill:#205C34}
    .fil0 {fill:#3FBA69}
   ]]>
  </style>
 </defs>
 <g id="Capa_x0020_1">
  <metadata id="CorelCorpID_0Corel-Layer"/>
  <g id="_2485999374624">
   <path class="fil0" d="M0 86l0 4c1,3 0,20 2,22 3,2 86,7 97,7 34,2 70,4 103,4l-2 -3c-2,-1 -2,-2 -3,-3 -13,-16 -18,-35 -10,-55 18,-46 81,-45 98,1 6,16 4,35 -6,49 -3,5 -8,9 -9,11 44,0 106,-3 152,-7 8,-1 44,-3 49,-4 0,-6 0,-19 1,-22l0 -4c-12,0 -26,2 -38,3 -39,3 -77,6 -116,7 2,-15 2,-26 -3,-40 -3,-10 -9,-21 -16,-27 -28,-30 -47,-25 -58,-29l-10 0c-5,2 -18,1 -34,10 -19,10 -34,26 -40,47 -5,14 -5,24 -3,39 -38,-1 -78,-4 -116,-7 -13,-1 -26,-3 -38,-3z"/>
   <path class="fil0" d="M0 238l0 4 2 0c6,-3 100,-8 114,-9 100,-5 198,-3 298,4 8,0 53,3 56,5l2 0 0 -4c-1,-4 -1,-17 -1,-22 -5,-1 -23,-2 -29,-3 -9,-1 -19,-1 -28,-2 -93,-7 -206,-9 -298,-4 -9,1 -107,7 -114,9 -1,5 -1,19 -2,22z"/>
   <path class="fil0" d="M251 193l12 0 0 -33 21 33 11 0 0 -58 -12 0 0 32c-4,-4 -7,-11 -10,-16 -3,-5 -8,-12 -10,-16l-12 0 0 58z"/>
   <path class="fil0" d="M155 193l12 0 0 -33 20 33 11 0 0 -58 -12 0 0 32c-1,-1 -18,-29 -19,-32l-12 0 0 58z"/>
   <path class="fil0" d="M68 145c7,-1 16,0 16,9 0,8 -9,9 -16,8l0 -17zm-12 48l12 0 0 -21 8 0 9 20 14 1 -11 -24c9,-4 13,-19 4,-28 -4,-4 -8,-6 -15,-6 -7,0 -15,0 -21,0l0 58z"/>
   <path class="fil0" d="M0 160l0 7c2,3 2,18 16,24 11,5 24,2 31,-5l0 -27 -21 0 0 11 9 0 0 11c-24,10 -28,-27 -14,-35 4,-2 7,-2 11,-1 4,1 5,3 8,4 1,-1 5,-7 6,-9 -4,-2 -6,-4 -13,-6 -6,-1 -12,0 -17,2 -5,2 -8,5 -11,9 -1,2 -2,4 -3,6 -1,3 -1,6 -2,9z"/>
   <polygon class="fil0" points="340,193 352,193 352,169 370,169 370,193 382,193 382,135 370,135 370,158 352,158 352,135 340,135 "/>
   <path class="fil0" d="M410 154l6 17 -12 0 6 -17zm-25 39l12 0 3 -9c1,-2 0,-2 2,-3l18 0 3 12 14 0 -21 -58 -11 0 -20 58z"/>
   <polygon class="fil0" points="208,193 244,193 244,182 220,182 220,169 241,169 241,158 220,158 220,146 244,146 244,135 208,135 "/>
   <path class="fil0" d="M146 151l-12 0c-1,15 3,32 -9,32 -13,0 -9,-17 -10,-32l-12 0c0,7 -1,24 1,30 7,17 33,17 40,0 3,-5 2,-23 2,-30z"/>
   <polygon class="fil0" points="298,146 311,146 311,193 324,193 324,146 336,146 336,135 298,135 "/>
   <polygon class="fil0" points="439,193 470,193 470,182 452,182 451,135 439,135 "/>
   <polygon class="fil0" points="134,146 146,146 146,135 134,135 "/>
   <polygon class="fil0" points="115,145 115,135 103,135 103,145 "/>
   <polygon class="fil1" points="115,145 103,145 103,135 103,146 "/>
  </g>
 </g>
</svg>
