<?xml version="1.0" encoding="UTF-8"?>
<!DOCTYPE svg PUBLIC "-//W3C//DTD SVG 1.0//EN" "http://www.w3.org/TR/2001/REC-SVG-20010904/DTD/svg10.dtd">
<!-- Creator: CorelDRAW X8 -->
<svg xmlns="http://www.w3.org/2000/svg" xml:space="preserve" width="2293px" height="400px" version="1.0" style="shape-rendering:geometricPrecision; text-rendering:geometricPrecision; image-rendering:optimizeQuality; fill-rule:evenodd; clip-rule:evenodd" viewBox="0 0 2947 514" xmlns:xlink="http://www.w3.org/1999/xlink">
 <defs>
  <style type="text/css">
   <![CDATA[
    .fil2 {fill:#DA8B02;fill-rule:nonzero}
    .fil1 {fill:#E23E28;fill-rule:nonzero}
    .fil0 {fill:#00839B;fill-rule:nonzero}
   ]]>
  </style>
 </defs>
 <g id="Capa_x0020_1">
  <metadata id="CorelCorpID_0Corel-Layer"/>
  <g id="_2486076162880">
   <path class="fil0" d="M752 443c1,27 6,37 13,39 6,2 12,2 18,2 4,0 6,1 6,3 0,3 -3,4 -8,4 -23,0 -37,-1 -44,-1 -3,0 -19,1 -38,1 -4,0 -7,-1 -7,-4 0,-2 2,-3 5,-3 5,0 11,0 16,-1 9,-3 11,-13 11,-44l3 -208c0,-7 1,-12 5,-12 4,0 7,5 13,11 4,5 57,62 109,113 23,24 71,74 77,80l2 0 -4 -158c0,-21 -4,-28 -12,-31 -5,-2 -14,-2 -19,-2 -4,0 -5,-1 -5,-3 0,-3 4,-4 9,-4 18,0 35,1 42,1 4,0 18,-1 35,-1 4,0 8,1 8,4 0,2 -2,3 -6,3 -4,0 -7,0 -11,1 -10,3 -13,10 -13,30l-4 221c0,8 -1,11 -4,11 -4,0 -8,-4 -12,-8 -22,-21 -67,-67 -104,-103 -38,-38 -77,-82 -83,-88l-1 0 3 147z"/>
   <path class="fil0" d="M1291 365c0,-79 -45,-128 -103,-128 -40,0 -86,23 -86,110 0,73 40,131 108,131 24,0 81,-12 81,-113zm-237 -7c0,-60 39,-137 145,-137 87,0 141,50 141,131 0,80 -56,144 -145,144 -101,0 -141,-76 -141,-138z"/>
   <path class="fil0" d="M1415 260c-9,-19 -14,-23 -27,-27 -5,-1 -11,-1 -14,-1 -3,0 -4,-1 -4,-3 0,-3 4,-4 9,-4 19,0 39,1 51,1 9,0 26,-1 43,-1 4,0 8,1 8,4 0,2 -2,3 -5,3 -6,0 -11,0 -14,2 -2,2 -3,4 -3,8 0,4 3,14 8,27l60 159 2 0c15,-39 60,-152 69,-175 2,-4 3,-10 3,-13 0,-3 -1,-5 -5,-7 -4,-1 -9,-1 -14,-1 -3,0 -6,-1 -6,-3 0,-3 4,-4 10,-4 18,0 33,1 37,1 6,0 23,-1 33,-1 5,0 7,1 7,4 0,2 -2,3 -5,3 -4,0 -11,0 -17,4 -5,3 -10,9 -20,32 -13,33 -23,51 -42,95 -22,51 -39,89 -46,107 -10,20 -12,26 -17,26 -4,0 -6,-5 -13,-22l-88 -214z"/>
   <path class="fil0" d="M1811 382c2,0 2,-1 2,-2l-32 -87c0,-2 -1,-3 -2,-3 -1,0 -1,1 -2,3l-32 86c0,2 0,3 1,3l65 0zm-72 17c-1,0 -2,1 -3,3l-19 50c-3,9 -5,17 -5,22 0,6 3,10 14,10l5 0c4,0 6,1 6,3 0,3 -3,4 -6,4 -12,0 -27,-1 -38,-1 -4,0 -23,1 -41,1 -5,0 -7,-1 -7,-4 0,-2 2,-3 4,-3 4,0 9,0 11,0 16,-2 23,-14 30,-32l88 -220c5,-10 7,-14 10,-14 3,0 5,3 9,11 8,19 65,162 87,216 13,31 23,36 31,38 5,1 10,1 15,1 2,0 4,1 4,3 0,3 -3,4 -16,4 -13,0 -38,0 -66,-1 -7,0 -11,0 -11,-3 0,-2 2,-3 5,-3 3,-1 5,-4 3,-8l-28 -74c-1,-2 -2,-3 -3,-3l-79 0z"/>
   <path class="fil0" d="M2058 355c0,4 1,5 3,6 8,3 18,4 27,4 14,0 19,-2 25,-6 11,-8 21,-24 21,-53 0,-50 -33,-64 -54,-64 -9,0 -15,0 -19,1 -2,1 -3,2 -3,5l0 107zm-41 -28c0,-53 0,-63 -1,-74 -1,-12 -3,-18 -15,-20 -3,-1 -9,-1 -14,-1 -3,0 -6,-1 -6,-3 0,-3 3,-4 8,-4 19,0 41,1 48,1 12,0 39,-1 50,-1 22,0 45,3 64,16 10,6 24,24 24,48 0,26 -11,49 -46,78 31,40 55,71 76,93 20,20 34,22 39,23 4,1 7,1 10,1 3,0 4,2 4,3 0,3 -2,4 -6,4l-34 0c-19,0 -28,-2 -37,-7 -15,-8 -29,-24 -48,-51 -14,-20 -30,-44 -35,-49 -2,-2 -4,-2 -6,-2l-31 -1c-2,0 -3,1 -3,3l0 5c0,32 0,60 2,75 1,10 3,18 14,19 5,1 13,1 17,1 3,0 4,2 4,3 0,3 -2,4 -7,4 -20,0 -46,-1 -51,-1 -7,0 -29,1 -43,1 -5,0 -7,-1 -7,-4 0,-1 1,-3 5,-3 6,0 10,0 13,-1 7,-1 9,-9 10,-19 2,-15 2,-43 2,-75l0 -62z"/>
   <path class="fil0" d="M2371 245l-52 1c-21,1 -29,3 -35,11 -3,5 -5,9 -5,12 -1,3 -2,4 -4,4 -3,0 -4,-2 -4,-5 0,-6 7,-38 8,-41 1,-4 2,-6 4,-6 3,0 6,3 15,4 10,1 24,1 35,1l139 0c23,0 31,-3 34,-3 2,0 3,2 3,7 0,8 -1,32 -1,41 -1,4 -1,6 -3,6 -3,0 -4,-2 -4,-7l-1 -4c0,-9 -10,-19 -41,-20l-44 -1 0 144c0,32 0,60 1,75 2,10 4,18 14,19 5,1 13,1 18,1 4,0 6,2 6,3 0,3 -3,4 -7,4 -23,0 -45,-1 -55,-1 -8,0 -30,1 -44,1 -5,0 -7,-1 -7,-4 0,-1 1,-3 5,-3 6,0 10,0 13,-1 7,-1 9,-9 10,-19 2,-15 2,-43 2,-75l0 -144z"/>
   <path class="fil0" d="M2625 327c0,-53 0,-63 -1,-74 -1,-12 -4,-18 -12,-20 -4,-1 -8,-1 -13,-1 -3,0 -5,-1 -5,-4 0,-2 3,-3 8,-3 13,0 36,1 46,1 9,0 29,-1 43,-1 4,0 7,1 7,3 0,3 -2,4 -6,4 -3,0 -6,0 -10,1 -10,2 -12,8 -13,20 -1,11 -1,21 -1,74l0 62c0,34 0,62 2,77 1,9 3,16 14,17 4,1 12,1 17,1 4,0 6,2 6,3 0,3 -3,4 -7,4 -23,0 -45,-1 -54,-1 -8,0 -31,1 -45,1 -4,0 -7,-1 -7,-4 0,-1 2,-3 6,-3 5,0 10,0 13,-1 7,-1 9,-7 10,-17 2,-15 2,-43 2,-77l0 -62z"/>
   <path class="fil0" d="M2807 487c-6,-3 -7,-5 -7,-12 0,-20 2,-41 2,-46 1,-6 2,-9 4,-9 4,0 4,3 4,5 0,5 1,12 3,18 8,26 28,36 50,36 32,0 47,-22 47,-40 0,-17 -5,-34 -34,-56l-16 -13c-39,-30 -52,-55 -52,-83 0,-39 32,-66 81,-66 23,0 37,3 46,5 4,1 5,2 5,5 0,4 -1,14 -1,42 0,8 -1,10 -4,10 -2,0 -3,-2 -3,-6 0,-3 -2,-14 -9,-23 -6,-7 -16,-17 -39,-17 -26,0 -41,15 -41,36 0,16 8,28 37,50l10 8c42,32 57,56 57,89 0,21 -8,45 -33,61 -17,12 -37,15 -56,15 -20,0 -36,-3 -51,-9z"/>
   <path class="fil1" d="M214 514c-195,-15 -254,-127 -189,-253 36,-68 89,-141 25,-208 -1,-3 0,-4 3,-3 145,58 70,176 45,224 -49,96 -18,212 116,237 3,1 3,3 0,3z"/>
   <path class="fil0" d="M240 407l33 -407 -77 0 41 407c1,3 3,3 3,0z"/>
   <path class="fil2" d="M328 202c48,38 127,248 -65,309 -3,1 -2,3 0,3 305,-38 200,-257 68,-314 -4,-2 -5,0 -3,2z"/>
  </g>
 </g>
</svg>
