<?xml version="1.0" encoding="UTF-8"?>
<!DOCTYPE svg PUBLIC "-//W3C//DTD SVG 1.0//EN" "http://www.w3.org/TR/2001/REC-SVG-20010904/DTD/svg10.dtd">
<!-- Creator: CorelDRAW X8 -->
<svg xmlns="http://www.w3.org/2000/svg" xml:space="preserve" width="355px" height="400px" version="1.0" style="shape-rendering:geometricPrecision; text-rendering:geometricPrecision; image-rendering:optimizeQuality; fill-rule:evenodd; clip-rule:evenodd" viewBox="0 0 67 75" xmlns:xlink="http://www.w3.org/1999/xlink">
 <defs>
  <style type="text/css">
   <![CDATA[
    .fil1 {fill:black;fill-rule:nonzero}
    .fil0 {fill:#0E99D6;fill-rule:nonzero}
   ]]>
  </style>
 </defs>
 <g id="Capa_x0020_1">
  <metadata id="CorelCorpID_0Corel-Layer"/>
  <g id="_2485999428288">
   <path class="fil0" d="M0 9l55 0 0 0c2,0 3,1 3,3l0 30 0 0c0,1 -1,3 -3,3l-43 0c-2,0 -3,-2 -3,-3l0 -12c0,-2 1,-3 3,-3l37 0 0 -9 -40 0c-5,0 -9,4 -9,9l0 18c0,5 4,9 9,9l49 0c5,0 9,-4 9,-9l0 -36c0,-5 -4,-9 -9,-9l-58 0 0 9zm0 0z"/>
   <path class="fil1" d="M7 69l3 0 -1 -4 0 0 -2 4zm5 -7l3 10c0,1 0,1 1,1l1 0 0 2 -7 0 0 -2 0 0c1,0 1,0 1,0 0,0 0,0 0,-1l0 -1 -4 0 0 1c-1,0 -1,1 -1,1 0,0 1,0 2,0l0 0 0 2 -6 0 0 -2 1 0c1,0 1,0 1,-1l4 -10 4 0zm0 0z"/>
   <path class="fil1" d="M21 71c0,2 1,3 2,3 1,0 1,-1 1,-3 0,-2 0,-4 -1,-4 -1,0 -2,2 -2,4zm-3 -6c0,-1 0,-1 -1,-1l-1 0 0 -2 5 0 0 5c1,-1 2,-1 3,-1 3,0 4,2 4,5 0,2 -1,4 -4,4 -1,0 -3,0 -3,-1l-1 1 -2 0 0 -10zm0 0z"/>
   <path class="fil1" d="M32 71c0,2 1,3 2,3 1,0 1,-1 1,-3 0,-2 0,-4 -1,-4 -1,0 -2,2 -2,4zm-3 -6c0,-1 0,-1 -1,-1l-1 0 0 -2 5 0 0 5c1,-1 2,-1 3,-1 3,0 4,2 4,5 0,2 -1,4 -4,4 -1,0 -3,0 -3,-1l-1 1 -2 0 0 -10zm0 0z"/>
   <path class="fil1" d="M43 71c0,2 1,3 2,3 1,0 1,-1 1,-3 0,-3 0,-4 -1,-4 -1,0 -2,1 -2,4zm7 0c0,3 -2,4 -5,4 -3,0 -5,-1 -5,-4 0,-4 2,-5 5,-5 3,0 5,1 5,5z"/>
   <path class="fil1" d="M64 71l0 1c0,1 0,2 -1,2 -1,0 -1,-1 -1,-1l0 -5 3 0 0 -2 -3 0 0 -4 -2 0c0,2 0,4 -2,4l-3 0 0 -4 -2 0c-1,2 -1,4 -3,4l0 2 1 0 0 4c0,2 1,3 3,3l1 0c2,0 3,-1 3,-3l0 -1 -2 0 0 1c0,1 0,2 -1,2 0,0 0,-1 0,-1l0 -5 4 0 0 4c0,2 1,3 3,3l0 0c2,0 3,-1 3,-3l0 -1 -1 0zm0 0z"/>
  </g>
 </g>
</svg>
