<?xml version="1.0" encoding="UTF-8"?>
<!DOCTYPE svg PUBLIC "-//W3C//DTD SVG 1.0//EN" "http://www.w3.org/TR/2001/REC-SVG-20010904/DTD/svg10.dtd">
<!-- Creator: CorelDRAW X8 -->
<svg xmlns="http://www.w3.org/2000/svg" xml:space="preserve" width="1444px" height="400px" version="1.0" style="shape-rendering:geometricPrecision; text-rendering:geometricPrecision; image-rendering:optimizeQuality; fill-rule:evenodd; clip-rule:evenodd" viewBox="0 0 2230 618" xmlns:xlink="http://www.w3.org/1999/xlink">
 <defs>
  <style type="text/css">
   <![CDATA[
    .fil1 {fill:none}
    .fil0 {fill:#147C36;fill-rule:nonzero}
    .fil5 {fill:#221E1F;fill-rule:nonzero}
    .fil3 {fill:#E31837;fill-rule:nonzero}
    .fil2 {fill:white;fill-rule:nonzero}
    .fil4 {fill:url(#id1)}
   ]]>
  </style>
    <clipPath id="id0">
     <path d="M0 320l2230 0 0 298 -2230 0 0 -298zm0 0z"/>
    </clipPath>
  <radialGradient id="id1" gradientUnits="userSpaceOnUse" gradientTransform="matrix(1 -0 -0 0.999998 0 0)" cx="304.461" cy="245.835" r="172.281" fx="304.461" fy="245.835">
   <stop offset="0" style="stop-opacity:1; stop-color:#F3C561"/>
   <stop offset="1" style="stop-opacity:1; stop-color:#EEB51F"/>
  </radialGradient>
 </defs>
 <g id="Capa_x0020_1">
  <metadata id="CorelCorpID_0Corel-Layer"/>
  <g id="_2486076125344">
   <g>
   </g>
   <g style="clip-path:url(#id0)">
    <g id="_2486076126496">
     <path class="fil0" d="M0 354c661,449 1397,-438 2230,235 0,0 -608,-243 -1433,-10 -568,160 -797,-225 -797,-225z"/>
    </g>
   </g>
   <path class="fil1" d="M0 320l2230 0 0 298 -2230 0 0 -298zm0 0z"/>
   <g id="_2486076125984">
    <path class="fil2" d="M309 7c0,0 -3,4 -5,7 -1,-3 -4,-7 -4,-7 -4,-5 -9,-7 -15,-7 -6,1 -11,4 -13,9 0,0 -2,5 -4,8 -2,-3 -6,-6 -6,-6 -4,-4 -10,-6 -15,-5 -6,1 -10,6 -12,11 0,0 -1,5 -2,8 -3,-2 -7,-5 -7,-5 -4,-3 -11,-4 -16,-2 -5,2 -9,7 -10,13 0,0 0,5 -1,8 -3,-1 -7,-4 -7,-4 -5,-3 -11,-2 -16,1 -5,3 -8,8 -8,13 0,0 0,6 0,9 -3,-1 -8,-3 -8,-3 -5,-1 -11,0 -16,3 -3,3 -5,8 -5,13 0,1 0,2 0,3 0,0 1,5 2,8 -4,-1 -9,-2 -9,-2 -5,-1 -11,1 -15,6 -3,3 -4,6 -4,10 0,2 0,4 1,6 0,0 2,4 3,8 -3,-1 -9,-1 -9,-1 -5,0 -11,3 -14,8 -1,3 -2,6 -2,8 0,3 1,6 2,8 0,0 2,5 4,8 -3,0 -9,1 -9,1 -5,0 -10,4 -12,9 -1,2 -2,5 -2,7 0,3 2,7 4,9 0,0 3,5 5,7 -3,1 -8,3 -8,3 -6,1 -10,6 -11,11 -1,2 -1,3 -1,4 0,4 2,9 5,12 0,0 4,3 7,6 -3,1 -8,3 -8,3 -5,3 -9,8 -9,14 0,0 0,0 0,1 0,5 2,10 7,13 0,0 4,3 7,5 -3,2 -7,5 -7,5 -5,3 -7,8 -7,13 0,0 0,1 0,1 0,6 4,11 9,13 0,0 5,3 8,4 -3,2 -7,6 -7,6 -3,3 -5,7 -5,12 0,1 0,2 1,3 1,6 5,10 11,12 0,0 5,2 8,2 -2,3 -5,7 -5,7 -2,3 -4,7 -4,10 0,2 1,4 2,6 2,6 7,9 12,10 0,0 6,1 9,1 -2,3 -4,8 -4,8 -1,2 -2,5 -2,7 0,3 1,6 2,9 3,5 9,7 14,7 0,0 6,0 9,0 -1,3 -3,8 -3,8 -1,2 -1,4 -1,6 0,3 1,7 4,10 4,4 10,6 15,5 0,0 5,-1 9,-1l-2 8c0,1 0,2 0,3 0,5 2,9 5,12 5,4 11,5 16,3 0,0 5,-1 8,-3 0,4 0,9 0,9 0,6 3,11 8,14 5,3 11,3 16,0 0,0 4,-2 7,-4 1,4 1,9 1,9 1,6 5,10 10,13 5,2 12,1 16,-3 0,0 4,-3 7,-5 1,4 2,8 2,8 2,6 6,10 12,12 5,1 11,-1 15,-5 0,0 4,-4 6,-6 2,3 4,7 4,7 2,6 7,9 13,10 6,0 11,-3 15,-7 0,0 3,-5 4,-7 2,2 5,7 5,7 4,4 9,7 15,7 6,-1 11,-4 13,-10 0,0 2,-4 4,-7 2,2 6,6 6,6 4,4 9,6 15,5 6,-2 10,-6 12,-12 0,0 1,-4 2,-8 3,2 7,5 7,5 4,4 10,5 16,3 5,-3 9,-7 10,-13 0,0 0,-5 1,-9 3,2 7,4 7,4 5,3 11,3 16,0 5,-3 8,-8 8,-14 0,0 0,-5 0,-9 3,2 8,3 8,3 5,2 11,1 16,-3 3,-3 5,-7 5,-12 0,-1 0,-2 0,-3 0,0 -1,-5 -2,-8 4,0 9,1 9,1 5,1 11,-1 15,-5 2,-3 4,-7 4,-10 0,-2 -1,-4 -1,-6 0,0 -2,-5 -3,-8 3,0 8,0 8,0 6,0 12,-2 15,-7 1,-3 2,-6 2,-9 0,-2 -1,-5 -2,-7 0,0 -2,-5 -4,-8 3,0 8,-1 8,-1 6,-1 11,-4 13,-10 1,-2 1,-4 1,-6 0,-3 -1,-7 -3,-10 0,0 -3,-4 -5,-7 3,0 8,-2 8,-2 6,-2 10,-6 11,-12 0,-1 1,-2 1,-3 0,-5 -2,-9 -5,-12 0,0 -4,-4 -7,-6 3,-1 8,-4 8,-4 5,-2 9,-7 9,-13 0,0 0,-1 0,-1 0,-5 -2,-10 -7,-13 0,0 -4,-3 -7,-5 3,-2 7,-5 7,-5 5,-3 7,-8 7,-13 0,-1 0,-1 0,-1 0,-6 -4,-11 -9,-14 0,0 -5,-2 -8,-3 3,-3 7,-6 7,-6 3,-3 5,-8 5,-12 0,-1 -1,-2 -1,-4 -1,-5 -5,-10 -11,-11 0,0 -5,-2 -8,-3 2,-2 5,-7 5,-7 2,-2 3,-6 3,-9 0,-2 0,-5 -1,-7 -2,-5 -7,-9 -13,-9 0,0 -5,-1 -8,-1 2,-3 4,-8 4,-8 1,-2 2,-5 2,-8 0,-2 -1,-5 -2,-8 -3,-5 -9,-8 -15,-8 0,0 -5,0 -8,1 1,-4 3,-8 3,-8 0,-2 1,-4 1,-6 0,-4 -2,-7 -4,-10 -4,-5 -10,-7 -15,-6 0,0 -5,1 -9,2 1,-3 2,-8 2,-8 0,-1 0,-2 0,-3 0,-5 -2,-10 -5,-13 -5,-3 -11,-4 -16,-3 0,0 -5,2 -8,3 0,-3 0,-9 0,-9 0,-5 -3,-10 -8,-13 -5,-3 -11,-4 -16,-1 0,0 -4,3 -7,4 -1,-3 -1,-8 -1,-8 -1,-6 -5,-11 -10,-13 -6,-2 -12,-1 -16,2 0,0 -4,3 -7,5 -1,-3 -2,-8 -2,-8 -2,-5 -6,-10 -12,-11 -6,-1 -11,1 -15,5 0,0 -4,3 -6,6 -2,-3 -4,-8 -4,-8 -2,-5 -7,-8 -13,-9 -6,0 -11,2 -15,7z"/>
    <g>
     <path class="fil3" d="M304 42l19 -26 13 29 22 -23 9 30 26 -19 4 32 28 -16 -1 32 30 -10 -6 31 32 -6 -11 30 32 -1 -15 29 31 4 -19 25 31 9 -24 22 29 14 -26 18 26 18 -29 14 24 22 -31 9 19 25 -31 4 15 28 -32 -1 11 31 -32 -6 6 31 -30 -11 1 32 -28 -15 -4 32 -26 -20 -9 31 -22 -23 -13 29 -19 -27 -18 27 -13 -29 -22 23 -9 -31 -26 20 -4 -32 -28 15 1 -32 -30 11 6 -31 -32 6 11 -31 -32 1 15 -28 -31 -4 19 -25 -31 -9 24 -22 -29 -14 26 -18 -26 -18 29 -14 -24 -22 31 -9 -19 -25 31 -4 -15 -29 32 1 -11 -30 32 6 -6 -31 30 10 -1 -32 28 16 4 -32 26 19 9 -30 22 23 13 -29 18 26zm0 0l0 0 0 0z"/>
    </g>
   </g>
   <circle class="fil4" cx="304" cy="246" r="194"/>
   <g>
    <path class="fil2" d="M1443 331c-2,1 -4,2 -6,2 -9,0 -18,-16 -18,-44 0,-20 5,-45 19,-45 2,0 3,1 5,2 -2,13 -3,28 -3,44 0,15 1,29 3,41l0 0zm653 -138c0,0 -3,-8 -4,-15 2,-6 3,-12 3,-21 0,-31 -20,-42 -38,-42l-7 0c-2,0 -3,0 -4,0 -1,0 -3,0 -4,0l-9 0c-2,0 -3,0 -4,0 -1,0 -2,0 -3,0l-9 0c-13,0 -24,9 -26,21l-48 0c-9,0 -16,5 -21,11 -5,-7 -13,-11 -21,-11l-57 0c-5,0 -9,1 -13,4 -3,-3 -7,-4 -12,-4l-57 0c-15,0 -26,12 -26,26l0 167 -6 0 0 -167c0,-14 -12,-26 -26,-26l-58 0c-14,0 -25,12 -26,26 -18,-20 -42,-31 -71,-31 -25,0 -46,8 -63,23 -3,-6 -8,-11 -15,-14 -15,-5 -31,-8 -48,-8 -32,0 -59,13 -80,37l0 -7c0,-14 -12,-26 -26,-26l-51 0c-9,0 -16,5 -21,11 -5,-7 -13,-11 -21,-11l-57 0c-14,0 -26,12 -26,26l0 3c-18,-22 -43,-34 -74,-34 -34,0 -61,15 -80,42 -18,-23 -46,-37 -81,-37l-62 0c-16,-52 -65,-88 -129,-88l-86 0c-14,0 -26,12 -26,26l0 345c0,14 12,25 26,25l86 0c43,0 73,-9 94,-22 2,12 12,22 26,22l62 0c5,0 10,-1 14,-4 4,3 8,4 14,4l65 0c9,0 17,-4 21,-11 1,0 1,0 1,0 15,11 34,16 55,16 15,0 48,-3 74,-33l0 3c0,14 12,25 26,25l52 0c9,0 17,-4 21,-11 5,7 13,11 22,11l55 0c14,0 26,-11 26,-25l0 -9c23,26 51,39 82,39 16,0 32,-3 48,-11 6,-3 10,-7 12,-12 17,15 39,23 64,23 14,0 46,-3 71,-30 1,14 12,25 26,25l100 0c3,0 5,0 8,-1 2,1 5,1 8,1l57 0c5,0 9,-1 12,-3 4,2 8,3 13,3l52 0c9,0 17,-4 21,-11 5,7 13,11 22,11l55 0c14,0 26,-11 26,-25l0 -194 0 0c1,0 2,0 3,0 1,0 2,0 3,0l6 0c1,0 2,0 3,0 1,0 2,0 3,0l7 0c1,0 2,0 2,0 1,0 2,0 3,0l7 0c1,0 2,0 4,0 0,0 1,0 2,0l7 0c8,0 16,-3 21,-10 3,-4 5,-10 5,-16 0,-2 0,-4 0,-6z"/>
   </g>
   <g>
    <path class="fil5" d="M1769 422l57 0 0 -256 -57 0 0 256zm-58 -256l-58 0 0 256 100 0 0 -63 -42 0 0 -193zm-374 126c0,46 10,80 32,105 18,20 40,30 63,30 13,0 25,-3 37,-9l0 -64c-8,6 -17,8 -25,8 -24,0 -44,-24 -44,-69 0,-47 19,-71 45,-71 8,0 16,3 24,8l0 -62c-12,-4 -25,-7 -39,-7 -52,0 -93,52 -93,131l0 0zm613 -126l0 135 -42 -135 -57 0 0 256 52 0 0 -128 43 128 55 0 0 -256 -51 0zm-677 135l-42 -135 -57 0 0 256 52 0 0 -128 43 128 55 0 0 -256 -51 0 0 135zm283 61c-19,0 -23,-22 -23,-70 0,-47 4,-69 23,-69 20,0 24,22 24,69 0,48 -4,70 -24,70l0 0zm0 -201c-52,0 -83,47 -83,133 0,86 31,133 83,133 53,0 84,-47 84,-133 0,-86 -31,-133 -84,-133l0 0zm-482 201c-19,0 -23,-22 -23,-70 0,-47 4,-69 23,-69 20,0 24,22 24,69 0,48 -4,70 -24,70l0 0zm0 -201c-52,0 -83,47 -83,133 0,86 31,133 83,133 53,0 84,-47 84,-133 0,-86 -31,-133 -84,-133l0 0zm-171 136l0 -78 3 0c14,0 22,14 22,34 0,21 -8,43 -25,44l0 0zm87 -52c0,-48 -28,-79 -77,-79l-71 0 0 256 61 0 0 -99 28 99 66 0 -44 -113c25,-13 37,-34 37,-64l0 0zm-267 106l-4 0 0 -101c21,0 38,27 38,49 0,39 -16,52 -34,52l0 0zm-4 -193l5 0c9,0 27,13 27,39 0,21 -10,40 -32,41l0 -80zm58 93c35,-10 52,-35 52,-76 0,-58 -45,-97 -107,-97l-86 0 0 344 86 0c66,0 113,-23 113,-87 0,-46 -19,-73 -58,-84z"/>
   </g>
   <g>
    <path class="fil3" d="M1762 419l57 0 0 -257 -57 0 0 257zm-58 -257l-58 0 0 257 100 0 0 -64 -42 0 0 -193zm-374 126c0,46 10,81 32,105 18,20 40,31 63,31 13,0 25,-4 37,-9l0 -65c-8,6 -17,8 -25,8 -24,0 -43,-24 -43,-69 0,-46 18,-70 44,-70 8,0 16,2 24,7l0 -61c-12,-5 -25,-8 -39,-8 -52,0 -93,52 -93,131l0 0zm613 -126l0 135 -42 -135 -57 0 0 257 52 0 0 -129 43 129 55 0 0 -257 -51 0zm-677 135l-42 -135 -57 0 0 257 52 0 0 -129 43 129 55 0 0 -257 -51 0 0 135zm284 61c-20,0 -24,-21 -24,-69 0,-48 4,-70 24,-70 19,0 23,22 23,70 0,48 -4,69 -23,69l0 0zm-1 -201c-52,0 -83,48 -83,133 0,86 31,134 83,134 53,0 84,-48 84,-134 0,-85 -31,-133 -84,-133l0 0zm-482 201c-19,0 -23,-21 -23,-69 0,-48 4,-70 23,-70 20,0 24,22 24,70 0,48 -4,69 -24,69l0 0zm0 -201c-52,0 -83,48 -83,133 0,86 31,134 83,134 53,0 84,-48 84,-134 0,-85 -31,-133 -84,-133l0 0zm-170 136l0 -78 2 0c14,0 22,14 22,35 0,20 -8,42 -24,43l0 0zm87 -52c0,-48 -29,-79 -78,-79l-71 0 0 257 62 0 0 -100 28 100 65 0 -44 -114c25,-13 38,-34 38,-64l0 0zm-268 106l-4 0 0 -100c21,0 38,27 38,48 0,39 -16,52 -34,52l0 0zm-4 -192l5 0c9,0 27,12 27,38 0,21 -10,40 -32,41l0 -79zm58 93c35,-10 53,-36 53,-77 0,-58 -46,-97 -108,-97l-86 0 0 345 86 0c66,0 113,-24 113,-87 0,-47 -19,-74 -58,-84z"/>
   </g>
   <g>
    <path class="fil5" d="M2023 144l10 0 2 23c0,6 1,12 1,19 0,-10 1,-16 1,-19l3 -23 9 0 3 59 -8 0 0 -27c0,-6 -1,-12 -1,-21l-4 48 -6 0 -4 -48c0,8 -1,14 -1,21l-1 27 -7 0 3 -59zm0 0l0 0 0 0z"/>
   </g>
   <g>
    <path class="fil5" d="M2065 170c3,0 4,-3 4,-8 0,-6 -1,-8 -4,-8 -1,0 -1,0 -1,0l0 16c0,0 0,0 1,0l0 0zm-8 -26l7 0c8,0 12,5 12,17 0,8 -2,13 -6,15l7 27 -7 0 -6 -24 0 24 -7 0 0 -59zm0 0l0 0 0 0z"/>
   </g>
   <g>
    <path class="fil3" d="M2017 141l9 0 2 22c0,6 1,13 1,19 1,-10 1,-16 1,-19l3 -22 9 0 3 58 -7 0 -1 -27c0,-5 -1,-12 -1,-20l-4 47 -6 0 -4 -48c0,8 0,15 -1,21l-1 27 -7 0 4 -58zm0 0l0 0 0 0z"/>
   </g>
   <g>
    <path class="fil3" d="M2058 166c3,0 4,-3 4,-8 0,-6 -1,-8 -4,-8 0,0 -1,0 -1,0l0 16c0,0 0,0 1,0l0 0zm-8 -25l7 0c8,0 12,4 12,16 0,8 -2,14 -6,16l7 26 -7 0 -6 -24 0 24 -7 0 0 -58zm0 0l0 0 0 0z"/>
   </g>
   <g>
    <path class="fil3" d="M409 339l-3 0 0 -4 -1 0 0 6 4 -1 0 -1zm-92 -197c2,0 2,-1 2,-2 0,-1 0,-2 -2,-2 -1,0 -2,1 -2,2 0,1 1,2 2,2l0 0zm97 173c-2,1 -3,1 -5,2 0,0 0,0 -1,0 -3,0 -5,-2 -6,-3 -1,-1 -2,-2 -3,-2 -1,0 -2,1 -3,1 -2,1 -3,1 -4,1 -2,-1 -3,-2 -4,-3 3,0 6,-1 10,-1 3,0 6,1 8,1 0,-1 0,-2 0,-3 0,0 -2,-2 -4,-4 -1,-1 -1,-3 3,-3 6,3 7,5 7,6 0,0 0,4 0,6 1,1 2,2 2,2 0,0 0,0 0,0l0 0zm0 10c-1,0 -2,0 -3,1 0,-4 -1,-7 -1,-8 1,0 3,-1 4,-1 0,3 0,5 0,8l0 0zm-1 4c0,1 -1,1 -2,1 0,-1 0,-1 0,-2 1,0 2,-1 2,-1 0,1 0,2 0,2l0 0zm-1 11c0,0 -1,0 -1,0 0,-3 0,-5 0,-8 1,0 1,0 2,0 0,3 -1,6 -1,8l0 0zm0 3c-1,0 -1,1 -1,1 0,-1 0,-1 0,-1 0,0 0,0 1,0 0,0 0,0 0,0l0 0zm-1 3c0,1 0,2 -1,3 0,-1 0,-2 1,-3 0,0 0,0 0,0 0,0 0,0 0,0l0 0zm-5 -19c0,-4 1,-7 1,-8 0,0 1,0 1,-1 0,2 1,4 1,8 -1,0 -2,0 -3,1l0 0zm4 1c0,1 0,2 0,2 -2,1 -3,1 -4,1 0,-1 0,-1 0,-2 1,0 2,0 4,-1l0 0zm-1 13c-2,1 -5,1 -8,1 0,-2 0,-4 0,-4 0,0 0,-1 0,-1l0 0 0 -1 0 0c-1,-2 -3,-2 -3,-2 0,0 0,0 0,0 4,0 8,0 12,-1 0,2 0,5 -1,8l0 0zm0 3c-3,1 -5,1 -8,1 0,0 0,0 0,0 3,-1 6,-1 8,-2 0,1 0,1 0,1l0 0zm-1 6c0,0 0,0 0,0 -3,1 -5,2 -7,2 0,-1 0,-3 0,-4 3,-1 5,-1 8,-2 0,2 0,3 -1,4l0 0zm-8 -11c-1,0 -2,1 -3,1 0,-1 0,-1 0,-4 2,1 3,2 3,2l0 1zm0 11c-1,0 -2,0 -3,0 -1,-4 -2,-7 -2,-8 2,0 3,-1 5,-1 0,3 0,6 0,9l0 0zm-1 5c0,0 -1,0 -2,0 0,0 0,-1 0,-2 1,0 2,0 2,-1 0,1 0,2 0,3l0 0zm-1 12c0,0 0,0 -1,0 0,-3 0,-6 0,-9 1,0 2,0 2,0 0,3 0,6 -1,9l0 0zm0 4c0,0 -1,0 -1,0 0,0 0,-1 0,-1 0,0 1,0 1,0 0,0 0,1 0,1l0 0zm0 3c-1,1 -1,2 -2,3 1,-1 1,-2 1,-3 0,0 0,0 1,0 0,0 0,0 0,0l0 0zm-3 -6c-7,2 -15,2 -21,1l0 -1c0,-1 0,-2 -1,-3 0,-1 -1,-3 -2,-6 7,1 15,2 25,0 0,2 0,6 -1,9l0 0zm0 4c-4,1 -8,1 -11,1 0,0 0,0 0,-1 3,0 7,0 11,-1 0,0 0,0 0,1l0 0zm0 6c-1,1 -1,1 -1,1 -4,1 -8,2 -11,2 0,-2 0,-3 0,-5 4,0 8,-1 12,-2 0,2 0,3 0,4l0 0zm-13 -5c-3,0 -6,0 -9,0 1,-1 1,-1 1,-1 2,0 5,0 8,0 0,1 0,1 0,1l0 0zm0 8c-4,0 -6,0 -9,0 0,-2 0,-4 0,-6 3,0 6,1 9,1 0,2 0,3 0,5l0 0zm-9 -12c-6,-1 -10,-2 -12,-3 0,-4 0,-7 0,-11 1,1 4,2 9,3 0,1 0,2 0,3l-1 0 -1 2c0,1 0,1 0,2 0,-1 -1,-1 -1,-2l-1 -3 -2 0 0 5 2 1 0 -2c0,-1 0,-2 0,-3l1 5 1 0 2 -4c0,1 0,2 0,2l0 3 1 0 0 -3c0,1 1,2 1,2 0,1 1,1 1,2l0 1zm-1 3c-5,0 -8,-2 -10,-2 0,0 0,-1 0,-1 2,1 5,2 10,2 0,1 0,1 0,1l0 0zm0 9c-5,-1 -8,-3 -8,-3 0,-1 -1,-3 -1,-5 2,0 5,1 9,2 -1,1 -1,3 0,6l0 0zm-11 -30c2,0 5,1 8,2l0 3c-5,-2 -8,-3 -8,-3 0,0 0,0 0,0 0,-1 0,-2 0,-2l0 0zm2 -11c2,0 4,1 7,2 0,1 -1,5 -1,9 -4,-1 -7,-3 -8,-3 1,-4 2,-6 2,-8l0 0zm6 -3c1,0 2,1 2,1 1,1 2,1 4,1 1,0 3,0 5,-1 1,0 2,-1 3,-1 0,0 1,1 2,2 1,0 3,2 4,2 -11,2 -20,-1 -25,-3 2,0 4,-1 5,-1l0 0zm14 18c0,1 0,2 0,2 -4,0 -8,0 -12,-1 0,0 0,-1 0,-2 4,0 8,1 12,1l0 0zm-2 -7c1,2 1,3 2,4 -5,0 -8,0 -12,-1 0,-3 0,-7 0,-9 3,1 6,1 9,1 0,2 0,4 1,5l0 0zm8 9c-1,0 -3,0 -4,0 0,0 0,-1 0,-2 1,0 3,0 4,0 0,0 0,1 0,2l0 0zm-4 -5c-1,-2 -2,-3 -3,-5 0,0 0,-2 0,-4 3,0 5,0 8,0 0,2 -1,5 -1,9 -1,0 -3,0 -4,0l0 0zm-3 -19c3,0 5,0 8,1 0,0 0,0 0,0 0,5 0,5 0,6 0,0 0,0 1,0 -2,-1 -4,-2 -5,-3 -1,-1 -2,-2 -3,-2 -1,0 -3,1 -4,1 -1,1 -3,1 -4,1 -2,0 -2,0 -3,0 0,-1 -1,-1 -2,-2 -1,0 -2,0 -3,0 3,-1 8,-2 15,-2l0 0zm-12 -19c-6,0 -4,-9 -4,-9 6,0 10,-5 13,-5 5,0 5,9 5,9 0,0 -4,1 -6,2 -2,1 -4,3 -8,3l0 0zm-17 -62c0,0 1,-3 1,-3 23,5 29,27 29,27 -5,9 3,15 3,15 -2,4 1,9 1,9 0,0 -1,2 -1,2 0,0 -1,0 -1,0 -2,-5 -7,-5 -7,-5 0,-2 -5,-18 -10,-29 -6,-12 -15,-16 -15,-16l0 0zm4 -39c0,-2 -3,-5 -2,-6 1,-2 5,-2 5,-2 0,-1 -2,-4 -1,-6 2,-3 6,-3 7,-4 2,-1 3,-7 11,-4 5,2 5,7 9,8 2,1 9,0 11,5 1,4 -4,8 -5,9 -1,1 0,4 -4,6 0,1 0,2 1,2 0,0 2,-1 3,1 1,2 0,4 -2,4 -3,1 -5,-1 -6,0 -1,0 1,7 -5,7 -5,0 -7,-6 -8,-6 0,0 0,6 -7,6 -4,0 -7,-3 -5,-8 0,0 -6,-2 -6,-6 0,-3 4,-4 4,-6l0 0zm-5 8c-3,1 -5,1 -5,1 -13,12 -30,2 -30,2 0,0 -26,7 -31,-13 -4,-17 11,-28 11,-28 0,0 0,-3 0,-8 2,2 3,2 3,2l3 2 -1 -3c-1,-9 0,-16 4,-22 4,-5 10,-7 13,-8 0,0 1,0 1,0 10,-1 15,6 15,6 0,0 6,-14 20,-11 13,3 14,17 13,34 0,1 -1,2 -1,3 0,6 3,9 5,11 -3,0 -4,2 -5,4 -1,0 -1,1 -2,1 0,0 -1,1 -2,1 -1,0 -4,1 -5,3 0,1 -1,1 -1,2 0,1 1,2 1,3 -5,0 -10,0 -12,0 0,-1 1,-2 1,-3 0,-2 -1,-4 -3,-5 -3,-2 -5,0 -6,0 0,0 -1,1 -1,1 -3,-2 -6,-3 -8,0l-3 2c0,0 0,1 0,1 -2,-6 -6,-8 -7,-9 0,0 -1,0 -1,1 0,0 0,1 0,1 0,0 6,4 6,9 0,1 1,1 1,1 1,0 1,0 3,-2l2 -3c2,-1 4,-1 6,1 1,1 2,0 3,-1 1,0 2,-1 4,0 1,1 1,2 1,3 0,2 -1,3 -1,3l0 1 0 1c0,0 1,1 8,1 -1,0 -2,1 -3,2 -1,0 -1,0 -1,0 0,1 0,1 0,1 1,1 2,1 2,0 1,-1 3,-1 5,-2 0,0 0,1 0,1 0,1 0,2 1,3 0,1 0,1 0,2 0,0 0,0 0,1 -2,-1 -4,-1 -5,-2 -4,-1 -7,-3 -8,-1 -3,5 -6,7 -9,7 -4,0 -7,-3 -7,-3 0,0 -1,0 -1,0 -1,0 -1,1 -1,2 1,0 4,4 9,4 3,0 7,-3 11,-8 1,0 3,1 5,1 1,1 3,2 4,2 -1,1 -1,2 -1,3 0,0 0,1 0,2l0 0zm-9 76c0,0 3,6 6,11 0,0 -4,24 -45,24 -20,0 -43,-15 -49,-19 0,-1 0,-1 0,-2 0,0 0,-1 0,-1l0 0c0,-2 -1,-3 -2,-4 0,0 0,0 0,-1 1,0 2,-2 2,-4 0,-2 -1,-3 -3,-5 1,-3 1,-6 3,-8 0,0 46,54 88,9l0 0zm14 89c0,6 -8,8 -12,8 -7,0 -10,-3 -10,-8 0,-3 4,-5 4,-5 0,0 2,3 6,3 5,0 9,-3 9,-3 0,0 3,2 3,5l0 0zm10 7c9,0 10,7 10,10 0,3 -2,11 -13,11 -5,0 -30,0 -30,-13 0,-4 2,-7 2,-7 0,0 6,4 13,2 0,0 0,2 2,2 0,0 0,0 0,0 0,0 -2,2 -1,3 2,1 4,-2 4,-3 2,-2 5,-5 13,-5l0 0zm-29 -49c0,0 -25,19 -80,3 0,-2 0,-4 0,-6 10,4 48,13 83,-2 0,0 -1,3 -3,5l0 0zm-82 3c-1,1 -2,1 -3,1 0,-4 -1,-7 -1,-8 1,-1 4,-2 5,-2 0,1 -1,6 -1,9l0 0zm0 6c-1,0 -1,0 -2,0 0,-1 0,-1 0,-2 1,0 1,-1 2,-1 0,1 0,2 0,3l0 0zm-1 12c0,0 -1,0 -1,0 0,-3 0,-6 0,-9 1,0 1,0 2,-1 0,4 -1,7 -1,10l0 0zm-1 4c0,0 0,-1 0,-1 0,0 0,0 1,0 0,0 0,0 0,1 -1,0 -1,0 -1,0l0 0zm0 2c0,0 0,1 0,1 0,1 0,2 -1,3 0,-1 0,-2 1,-3 0,-1 0,-1 0,-1l0 0zm2 21c0,3 -1,4 -1,5 -2,0 -5,0 -9,3 -1,1 0,2 1,2 1,-1 5,-4 8,-3 0,1 2,2 2,6 0,7 -20,17 -29,17 -11,0 -14,-8 -14,-12 0,-10 11,-11 14,-11 2,0 3,0 5,0 1,1 4,4 5,8 0,1 2,1 1,-1 0,-2 -1,-4 1,-2 0,0 1,1 1,2 0,1 2,0 1,-2 -1,-3 -4,-5 -6,-6 0,0 0,0 0,0 1,-1 0,-4 -1,-5 -1,-1 -1,-3 2,-3 1,0 2,3 6,3 5,0 9,-5 10,-5 1,0 3,2 3,4l0 0zm-26 -13c0,-3 0,-5 0,-6 3,0 5,1 8,1 0,1 0,3 0,5 -3,0 -6,0 -8,0l0 0zm-1 -12c-5,-1 -10,-3 -11,-3 -1,-4 -1,-7 -1,-11 2,1 5,2 9,3 0,1 1,2 1,3l-1 -1 -1 3c0,0 -1,1 -1,1 0,0 0,-1 0,-1l-1 -3 -2 -1 0 6 1 0 0 -2c0,0 0,-1 0,-2l2 5 1 0 1 -4c0,1 0,1 0,2l0 2 2 1 0 -3c0,1 0,1 1,2 0,1 0,1 0,2l0 1zm-1 3c-4,-1 -8,-2 -9,-2 -1,-1 -1,-1 -1,-1 2,1 6,2 11,2 0,0 -1,1 -1,1l0 0zm0 9c-5,-1 -7,-3 -7,-3 -1,-2 -1,-4 -2,-5 2,0 5,1 9,2 0,1 0,3 0,6l0 0zm-10 -31c1,1 4,2 8,3 0,1 0,2 0,2 -5,-1 -8,-2 -8,-2 0,-1 0,-1 0,-1 0,0 0,-1 0,-2l0 0zm2 -10c1,0 4,1 6,1 0,2 0,6 0,9 -4,-1 -7,-2 -8,-2 1,-4 1,-7 2,-8l0 0zm6 -3c1,0 1,1 2,1 1,0 1,1 3,1 2,0 4,-1 5,-1 1,-1 3,-1 3,-1 1,0 2,1 3,1 1,1 2,2 4,3 -11,1 -20,-1 -25,-3 1,-1 3,-1 5,-1l0 0zm13 -4c2,0 5,0 8,1l0 5c0,0 0,1 0,1 -2,-1 -3,-2 -4,-3 -1,-1 -2,-2 -4,-2 -1,0 -2,1 -3,1 -2,1 -3,1 -5,1 -1,0 -2,0 -2,-1 -1,0 -1,0 -3,-1 -1,0 -1,0 -2,0 3,-1 7,-2 15,-2l0 0zm-7 -2c0,0 0,0 0,1 0,0 -4,0 -4,-1 -1,-2 -1,-9 0,-10 1,3 2,8 4,10l0 0zm17 9c0,-1 0,-9 0,-10 0,-1 -1,-2 -4,-3 -1,-1 -1,-1 -1,-1 0,0 0,0 0,0 0,0 0,0 0,-1 0,-1 0,-2 1,-3 5,1 9,3 9,9 0,2 0,7 -1,9 0,1 -4,1 -4,0l0 0zm-1 11c0,-4 0,-7 1,-9 0,0 1,0 1,0 0,1 1,4 2,9 -2,0 -3,0 -4,0l0 0zm-1 6c0,-1 0,-2 0,-3 2,0 3,0 5,-1 0,1 0,2 0,3 -1,0 -3,0 -5,1l0 0zm-7 -2c0,1 0,1 0,2 -4,0 -9,0 -12,-1l0 -2c3,0 7,1 12,1l0 0zm6 2c-2,0 -3,0 -4,0 0,-1 0,-2 0,-2 1,0 2,0 4,-1 0,1 0,2 0,3l0 0zm-5 -5c0,-2 -1,-3 -2,-5 0,-1 0,-2 0,-4 2,0 5,0 8,0 -1,1 -1,4 -1,9 -2,0 -3,0 -5,0l0 0zm-3 -4c1,1 1,3 2,4 -5,0 -9,-1 -12,-1 0,-4 0,-7 0,-9 3,0 6,1 9,1 0,1 0,4 1,5l0 0zm1 24c0,0 0,1 0,1 -3,0 -6,0 -9,-1 0,0 0,0 0,-1 3,1 6,1 9,1l0 0zm-8 -3l0 -1c0,-1 0,-2 -1,-3 -1,-1 -1,-3 -2,-6 6,1 15,2 24,-1 0,3 0,6 0,10 -7,2 -15,2 -21,1l0 0zm21 5c0,1 -1,3 -1,4 0,0 0,0 -1,1 -4,1 -7,1 -10,2 0,-2 0,-4 0,-5 4,-1 8,-1 12,-2l0 0zm-12 -1c0,0 0,-1 0,-1 4,0 8,0 12,-1 0,0 0,0 0,0 -4,1 -8,2 -12,2l0 0zm14 -61c0,1 0,9 -3,10 0,0 -2,0 -3,-2 0,0 0,-2 0,-2 0,0 -1,2 -2,2 -5,5 -2,8 -1,9 1,1 0,3 -2,2 -1,0 -2,-1 -3,-1 -4,-7 1,-13 1,-13 0,0 0,0 0,-1 0,0 0,0 -1,0 0,0 -6,6 -1,14 0,1 0,1 1,1 -1,1 -1,1 -2,1 -1,0 -2,-1 -2,-2 -5,-7 -1,-13 -1,-13 1,0 1,0 0,-1 0,0 0,0 -1,0 0,0 -5,6 0,14 0,0 0,0 0,0 -4,0 -5,-8 -5,-11 0,-6 9,-10 9,-13 0,-1 -1,-2 -1,-4 0,-3 2,-5 4,-5 11,0 13,4 13,6 0,5 -5,4 -5,5 0,0 5,1 5,4l0 0zm-28 17c-28,1 -30,-18 -30,-29 0,-49 77,-64 77,-64 0,0 0,3 0,4 0,0 -1,0 -1,0 0,1 3,3 3,4 0,1 -2,1 -2,1 0,1 3,4 3,4 -2,1 -4,2 -5,2 -7,-3 -15,-3 -22,1 0,0 0,0 0,0 0,0 0,0 0,0 -10,7 -15,3 -15,3 -1,0 -2,0 -2,1 0,0 0,1 0,1 1,1 4,3 11,1 -1,2 -2,4 -2,6 -1,1 0,2 1,2 0,0 1,-1 1,-1 1,-7 7,-10 8,-10 0,0 0,0 0,0 5,-4 12,-4 17,-2 -11,6 -17,12 -21,18 -1,0 -1,0 -1,0 -9,-1 -12,0 -16,2 -2,0 -3,1 -5,1 -3,1 -6,2 -11,7 0,0 -1,0 -1,0 -1,0 -2,0 -2,0 0,-1 -1,-1 -1,0 -1,0 -1,1 -1,1 1,1 2,2 4,2 1,0 2,0 3,-2 1,-1 2,-1 3,-2 0,1 -1,1 -1,2l-1 1c-1,1 -3,2 -3,7 -1,1 -3,3 -5,4 -1,0 -1,0 -1,1 0,1 1,1 2,1 1,0 3,-1 4,-2 0,2 -1,3 -3,4 -1,0 -2,0 -2,1 0,1 1,1 2,1 5,0 5,-4 5,-7l1 -2c0,-3 0,-5 1,-6l1 6c1,5 -1,11 -1,11 0,0 0,1 1,1 1,0 1,0 2,-1 0,0 2,-6 0,-11l-1 -8c1,-2 4,-5 6,-6 1,0 2,-1 2,-1 0,2 0,5 1,6 0,2 1,3 -4,13 0,0 0,1 1,1 0,1 1,0 1,0 5,-10 5,-12 4,-14 0,-1 0,-5 0,-7 4,-1 7,-3 14,-1 -5,8 -5,16 -4,22 0,0 0,0 0,0 -3,0 -5,3 -5,6 0,2 1,3 1,3l0 1c0,0 -2,2 -3,3 -1,1 -3,3 -4,5 0,0 -2,2 -2,2 -2,5 -2,11 -2,13l0 0zm45 -119c-2,-2 -4,-4 -4,-6 0,-5 9,-11 9,-11 -6,8 -5,17 -5,17l0 0zm4 -52c0,1 1,1 2,1 1,0 2,-1 2,-2 0,0 -1,-1 -1,-1 2,-1 3,-3 5,-5 0,2 0,5 1,8 -1,0 -2,0 -3,1 -1,1 -1,3 -1,5 -2,-2 -5,-3 -8,-5 0,0 1,-1 3,-2l0 0zm63 125c0,0 -26,33 -73,-10 0,0 6,-6 15,-9 0,0 26,36 58,15 0,0 0,2 0,4l0 0zm-48 -119c4,3 6,6 4,8 -1,1 -5,0 -8,-3 -3,-3 -6,-6 -4,-8 2,-1 5,-1 8,3l0 0zm6 8c0,0 0,0 0,0 0,-1 0,-2 0,-3 1,0 3,0 5,-1 -1,3 -1,7 0,10 0,0 -2,-1 -4,-2 1,-1 1,-1 1,-2 0,-1 -1,-2 -2,-2l0 0zm-9 -26l2 -3c3,-3 4,-4 7,-6 2,-1 4,-1 5,-1 1,1 2,2 2,2 -5,2 -10,8 -10,8 0,1 0,1 0,1 1,1 1,1 1,0 0,0 7,-8 12,-7 1,0 2,0 2,4 -4,1 -9,7 -9,8 -1,0 -1,1 0,1 0,0 1,0 1,0 1,-2 6,-6 8,-7 2,0 3,0 4,0 0,1 1,1 1,3 -5,3 -11,8 -12,17 -2,1 -5,2 -6,2 0,-2 -1,-2 -2,-3 -3,-4 -5,-5 -7,-6 -2,-8 -1,-11 1,-13l0 0zm2 -13c0,-1 2,0 3,1 1,1 1,1 2,2 -2,2 -3,3 -6,6 0,-3 -1,-7 1,-9l0 0zm6 -3c0,0 1,1 2,1 1,0 2,-1 2,-2 0,-2 -1,-3 -2,-3 -1,0 -1,1 -2,1 0,-1 0,-2 0,-3 0,0 26,3 28,22 0,0 -4,0 -9,2 0,-2 -1,-3 -1,-3 -1,-1 -2,-1 -3,-1 0,-4 -1,-6 -3,-6 -1,0 -1,0 -2,0 0,-1 -1,-2 -3,-3 -2,-1 -4,-1 -7,1 0,0 0,0 0,0 0,-2 0,-4 0,-6l0 0zm101 90c0,1 -3,1 -3,0 -1,0 -1,-3 0,-3 1,-1 3,2 3,3l0 0zm-11 59c0,0 4,1 7,-2 1,-1 4,0 6,3 2,2 3,6 2,7 -1,1 -6,4 -9,4 -4,0 -9,-3 -6,-12l0 0zm2 29l0 -5c0,-2 7,1 7,2l0 4c0,2 -1,2 -2,2 -1,0 -5,-2 -5,-3l0 0zm-9 21l0 3c0,2 0,2 -1,2 -1,0 -4,-1 -4,-2l0 -5c0,-2 5,1 5,2l0 0zm1 1c0,0 5,3 5,4 0,0 -3,0 -5,0 0,0 1,-3 0,-4l0 0zm16 26c0,0 0,1 0,2 -1,0 -3,1 -4,1 0,-1 0,-2 0,-3 1,0 3,0 4,0l0 0zm-4 -2c0,-5 1,-8 1,-9 0,0 1,-1 1,-1 1,2 1,4 2,9 -1,0 -3,1 -4,1l0 0zm5 -12c-1,0 -4,0 -5,-1 -1,0 0,-6 -1,-7 0,0 -1,-3 -3,-4 0,-1 0,-4 3,-4 7,4 6,6 6,7 0,0 0,8 0,9l0 0zm-1 -20c4,5 5,9 4,11 -1,1 -1,0 -2,0 0,-1 1,-2 -4,-7 -3,-3 -9,-2 -8,1 0,1 0,2 1,3 1,1 2,3 2,4 0,0 0,0 -1,0 0,-1 -6,-6 -10,-7 -2,-1 -4,-3 -4,-7 0,-2 5,-7 11,-7 3,0 10,7 11,9l0 0zm0 -2c0,-1 -1,-2 -2,-3 1,0 2,0 3,0 1,-1 2,-1 3,-1 0,0 1,0 2,1 1,1 2,2 4,2 -4,1 -7,1 -10,1l0 0zm9 11c0,1 0,2 0,2 -1,0 -2,1 -4,1 1,-1 0,-1 0,-2 1,0 1,0 1,-1 1,0 2,0 3,0l0 0zm-3 -2c-1,-1 -1,-2 -1,-3 -1,-1 -1,-2 -2,-3 0,-1 0,-1 0,-2 2,0 5,0 7,0 0,1 -1,4 -1,8 -1,0 -2,0 -3,0l0 0zm1 -39c3,3 6,8 7,12 0,0 -6,-1 -8,1 -2,2 1,6 1,7 1,0 0,2 -1,1 -3,-1 -4,-5 -6,-7 -3,-2 -9,-2 -7,-11 0,0 5,1 11,-3 1,-1 2,-1 3,0l0 0zm11 22c0,0 0,-4 0,-4 0,-2 -3,-5 -3,-5 0,0 2,-5 -8,-17 0,0 2,-9 -9,-12 0,0 -5,-26 -26,-37l1 -1c2,-1 3,-2 4,-3 1,2 4,4 8,4 5,0 6,-5 6,-8l0 0c1,1 2,1 4,1 2,0 3,-1 4,-2 0,-1 0,-1 0,-2 0,-1 0,-2 0,-3 -1,0 -1,0 -1,-1 1,0 3,0 3,0 1,0 2,-1 2,-2 0,-1 -1,-3 -3,-4 0,0 0,0 -1,-1 2,-1 5,-4 5,-7 0,-1 0,-1 -1,-2 -1,-5 -7,-6 -10,-6l-2 -1c-1,0 -2,-1 -3,-3 -1,-1 -3,-3 -6,-5 -3,-1 -8,-2 -8,-11 0,-6 5,-6 5,-8 0,-2 -3,-6 -4,-8 0,-3 1,-18 -5,-25 -2,-2 -6,-5 -6,-5 0,0 0,-3 0,-4 0,0 -8,-3 -11,-6 0,0 8,-7 9,-34 3,-1 5,-4 5,-8 1,-4 -2,-8 -7,-8 -4,0 -8,4 -9,8 0,4 2,7 5,8 0,4 -1,19 -8,30 0,0 -1,-1 -2,-2 -1,-1 -4,2 -7,3 -3,1 -6,-2 -7,-2 -1,-1 -4,2 -6,2 -4,1 -5,-2 -7,-2 -6,4 -8,0 -10,0 -2,0 -3,0 -3,0 -5,-17 0,-29 1,-32 3,-1 6,-5 6,-9 1,-5 -3,-9 -7,-9 -5,0 -9,4 -9,9 -1,4 1,7 4,9 -9,15 -2,34 -2,34 -1,2 -9,7 -9,7 1,1 1,2 1,2 0,1 -15,11 -15,11 2,0 3,2 3,2 -4,7 -7,13 -7,13 1,0 3,1 3,1 0,3 -3,8 -3,8 3,4 4,6 4,6 -1,1 -5,4 -5,4 1,1 2,2 2,2 -17,14 -22,24 -22,29 0,7 26,27 26,27 -87,24 -83,67 -74,86 8,17 28,14 28,14l0 0c0,0 -4,1 -6,2 -2,3 -4,15 -4,23 0,16 1,18 3,21 3,4 17,5 17,5 0,4 0,6 0,6 0,0 -2,0 -3,1 -2,2 -1,5 1,6 1,1 0,2 0,2 -13,0 -23,2 -23,13 0,4 3,15 15,15 9,0 33,-9 33,-19 0,-6 -2,-7 -2,-8 0,-1 2,-1 2,-6 0,-5 -4,-6 -4,-6 2,-16 2,-22 2,-22 0,0 2,1 7,3l0 0c3,17 14,11 14,11 -4,-2 -3,-8 -3,-8 18,3 44,2 66,-29 0,0 0,5 -1,9 0,2 -3,13 -2,29 0,0 -6,1 -6,6 0,6 2,5 2,7 0,1 -3,1 -3,10 0,11 15,15 33,15 14,0 16,-8 16,-14 0,-11 -8,-15 -20,-12 0,0 0,-1 -2,-1 0,0 6,-6 -2,-11 0,0 1,-11 3,-31 3,-23 -3,-33 -11,-46 -14,-26 -7,-33 -3,-33 6,1 14,9 19,34 1,3 -5,12 7,14l0 16c0,0 -4,0 -6,1 -2,2 -6,5 -6,22 0,13 1,19 2,21 1,3 4,7 18,7 15,0 18,-4 19,-7 2,-3 3,-23 3,-23 0,0 8,0 10,-4 2,-2 5,-23 5,-37 0,-1 -2,-2 -3,-3l0 0zm-37 -81c1,-1 5,-1 9,-8 1,-1 0,-1 0,-2 -1,0 -1,0 -2,1 -3,5 -7,6 -7,6 -1,0 -1,1 -1,2 0,0 1,1 1,1l0 0zm-12 -6c0,0 1,1 1,1 0,0 2,-1 3,1 0,0 0,1 1,1 1,-1 1,-1 1,-2 -1,-2 -4,-3 -5,-3 -1,0 -1,1 -1,2l0 0zm15 -13c2,-2 3,-4 4,-4 0,0 1,1 1,2 0,0 0,1 1,1 0,0 1,-1 1,-1 0,-1 -1,-3 -2,-4 -1,-1 -1,-1 -2,-1 -1,1 -3,4 -4,5 -1,1 -1,2 0,2 0,0 1,0 1,0l0 0zm-56 -5c0,0 -1,0 -1,1 0,0 -2,9 -8,13 0,0 -1,1 0,1 0,1 1,1 1,0 7,-4 9,-13 9,-14 0,0 0,-1 -1,-1l0 0zm10 9c1,2 2,0 2,-1 1,-4 5,-4 7,-4 2,0 3,-2 1,-2 -2,-1 -2,-1 -2,-3 0,0 1,-2 0,-3 0,-1 -1,1 -2,0 -2,-1 -3,-1 -4,1 -4,6 -10,6 -10,6 4,1 7,5 8,6l0 0zm10 -36c2,0 4,2 4,4 0,2 -2,3 -4,3 -3,0 -4,-1 -4,-3 0,-2 1,-4 4,-4l0 0zm-1 -9c1,-1 2,-2 3,-3 0,0 0,1 0,1 0,5 3,8 6,8 4,0 6,-3 6,-8 0,-1 0,-3 -1,-4 3,1 5,4 6,6 -1,1 -6,9 -11,9 -6,0 -8,-5 -9,-9l0 0zm8 -7c1,0 2,1 2,2 0,2 -1,3 -2,3 -1,0 -2,-1 -2,-3 0,-1 1,-2 2,-2l0 0zm4 -8c1,1 2,2 3,3 -1,1 -2,3 -2,4 0,-1 -1,-1 -1,-1 -1,0 -1,0 -1,0 0,-3 1,-5 1,-6l0 0zm5 5c1,2 1,4 2,6 -1,-1 -2,-2 -4,-3 1,-1 1,-2 2,-3l0 0zm-18 32c4,0 8,-4 8,-8 0,-2 0,-3 -1,-4 1,1 2,1 3,1 6,0 12,-11 13,-11l0 0 0 -1c-3,-9 -6,-14 -11,-16 -5,-1 -10,2 -10,2 0,0 0,1 0,1 0,1 1,1 1,0 0,0 4,-3 9,-1 -1,1 -2,3 -2,6 0,0 0,0 0,0 -2,0 -4,1 -5,2 -2,2 -3,4 -4,5 0,0 0,0 0,0 0,-6 3,-9 4,-10 0,0 1,0 0,-1 0,0 0,0 -1,0 -1,1 -4,4 -4,11 0,2 0,5 1,7 0,0 -1,0 -1,0 -5,0 -9,4 -9,9 0,4 4,8 9,8l0 0zm-26 -26c1,-1 2,-2 3,-2 -1,1 -2,3 -2,6 0,4 3,7 6,7 4,0 7,-3 7,-7 0,-1 0,-1 0,-1 0,-1 0,-2 -1,-3 1,1 1,1 2,2 1,2 3,6 0,9 -3,3 -6,4 -10,4 -6,0 -12,-4 -13,-6 1,-1 4,-5 8,-9l0 0zm0 -7c0,1 0,2 0,5 0,0 -1,0 -2,1 0,1 -1,2 -2,2 0,-2 -1,-4 -1,-4 1,-2 3,-3 5,-4l0 0zm4 -2c0,1 0,3 0,5 -1,0 -1,0 -2,1 0,-3 -1,-4 -1,-5 1,0 2,0 3,-1l0 0zm4 10c0,1 -1,2 -2,2 -1,0 -2,-1 -2,-2 0,-2 1,-3 2,-3 1,0 2,1 2,3l0 0zm1 -11c0,1 1,3 1,6 -1,0 -2,0 -3,0 -1,0 -1,0 -1,0 0,-3 -1,-5 -1,-5 1,-1 3,-1 4,-1l0 0zm7 22c4,-4 2,-9 0,-11 -1,-2 -3,-3 -5,-4 0,-2 0,-3 0,-4 2,0 3,3 3,4 0,0 0,1 1,0 0,0 0,0 0,0 0,-1 -1,-5 -4,-6 0,-1 0,-1 0,-2 1,0 2,0 3,0 0,0 1,0 1,-1 0,0 -1,-1 -1,0 -18,0 -24,13 -25,13 0,1 0,1 1,1 0,0 1,0 1,0 0,0 1,-2 3,-4 0,1 0,2 1,5 -3,3 -5,6 -5,6l0 1 0 0c0,0 7,7 15,7 4,0 8,-1 11,-5l0 0zm29 37c0,0 3,1 5,-2 0,0 0,-1 0,-1 -1,-1 -1,-1 -2,0 -1,1 -2,1 -2,1 -1,0 -2,0 -2,1 0,0 0,1 1,1l0 0zm-112 145l-1 0 0 6 5 0 0 -2 -4 1 0 -5zm127 8l2 0 0 -5 -2 0 0 5zm-145 -67c0,0 -1,-1 -1,0 -1,0 -6,2 -10,5l-4 1c-7,2 -9,-2 -10,-2 0,-1 -1,-1 -1,0 -1,0 -1,1 -1,1 1,1 4,6 12,4 -1,0 -1,1 -2,2 -3,7 1,13 2,13 0,0 1,0 1,0 1,0 1,-1 0,-2 0,0 -3,-4 0,-10 1,-2 2,-3 4,-4 0,0 0,1 0,1 0,2 0,3 -1,3 0,1 -1,2 -1,4 -1,4 3,6 3,6 1,1 1,1 2,0 0,-1 0,-1 -1,-2 0,0 -2,-1 -1,-4 0,-1 0,-2 1,-2 0,-1 1,-3 1,-5 0,-1 -1,-2 -1,-3 4,-2 8,-4 8,-4 0,0 1,-1 0,-2l0 0zm162 62l-2 0 0 6 5 -1 0 -1 -3 0 0 -4zm-9 3l3 0 0 -1 -3 0 0 -1 3 0 0 -1 -5 0 0 6 5 0 0 -1 -3 0 0 -2zm-75 -231c1,0 2,-1 2,-2 0,-1 -1,-2 -2,-2 -1,0 -2,1 -2,2 0,1 1,2 2,2l0 0zm-76 231l2 0 0 -6 -2 0 0 6zm7 -2l3 0 0 -1 -3 0 0 -1 4 0 0 -1 -5 0 0 6 5 0 0 -2 -4 0 0 -1zm0 0l0 0 0 0z"/>
   </g>
  </g>
 </g>
</svg>
