<?xml version="1.0" encoding="UTF-8"?>
<!DOCTYPE svg PUBLIC "-//W3C//DTD SVG 1.0//EN" "http://www.w3.org/TR/2001/REC-SVG-20010904/DTD/svg10.dtd">
<!-- Creator: CorelDRAW X8 -->
<svg xmlns="http://www.w3.org/2000/svg" xml:space="preserve" width="474px" height="400px" version="1.0" style="shape-rendering:geometricPrecision; text-rendering:geometricPrecision; image-rendering:optimizeQuality; fill-rule:evenodd; clip-rule:evenodd" viewBox="0 0 229 193" xmlns:xlink="http://www.w3.org/1999/xlink">
 <defs>
  <style type="text/css">
   <![CDATA[
    .fil0 {fill:#122A6A}
   ]]>
  </style>
 </defs>
 <g id="Capa_x0020_1">
  <metadata id="CorelCorpID_0Corel-Layer"/>
  <path class="fil0" d="M52 128c2,-1 5,-2 7,-2 3,-1 5,-1 8,-2 2,-1 3,1 6,2 3,1 5,1 7,2 -1,1 -3,1 -4,1l-17 4c-2,1 -3,2 -3,1 -2,-1 -4,-4 -4,-6zm170 64l5 0 2 -5 -6 0 -1 5zm-53 -15c0,2 -1,5 -2,8 0,2 -1,5 -2,7l16 0 1 -4 -9 0c0,-2 1,-5 2,-7 0,-3 1,-6 2,-8l-7 0 -1 4zm-139 7c0,-2 1,-3 3,-3 2,0 2,1 1,3l-4 0zm-4 -3c0,0 -1,0 -1,1 -2,3 -3,9 1,10 2,1 6,1 8,1 3,-1 2,0 4,-5 -1,0 -10,3 -9,-2 1,-1 9,0 10,0 1,-2 1,-4 1,-6 -1,-1 -2,-2 -4,-2 -2,0 -5,-1 -6,0 -1,0 -2,1 -2,1 -1,1 -2,1 -2,2zm158 7c0,1 -1,4 3,5l4 -1c0,0 0,0 0,0 0,0 1,-2 2,-3 -2,0 -2,1 -3,0 -1,-1 0,-2 1,-2 1,0 3,-1 3,-1l-1 6c7,0 5,1 7,-4 2,-8 3,-10 -3,-11 -3,0 -6,1 -8,1 -1,0 -1,2 -1,2 0,1 0,1 -1,2 1,0 9,-3 8,0 0,1 -1,1 -2,1 -2,0 -4,1 -6,1 -2,1 -2,3 -3,4zm-44 -6c3,-1 6,-2 8,-1 0,2 -2,2 -5,3 -2,0 -4,1 -5,2 -1,1 -2,4 0,5 1,2 4,2 6,1l2 -3c-1,0 -3,1 -3,0 -1,-2 2,-2 3,-3 0,0 1,0 1,0l-1 6 6 0c0,-2 1,-5 1,-7 1,-2 2,-5 0,-7 -2,-1 -5,-1 -8,0 0,0 -3,0 -4,0 0,1 -1,3 -1,4zm-67 3c0,1 -1,3 -3,3 -2,1 -3,-1 -2,-3 1,-5 6,-5 5,0zm-3 -8c-4,1 -7,4 -8,7 -1,3 0,6 2,7 6,3 15,0 15,-8 1,-3 -2,-4 -2,-5 -1,0 -2,-1 -3,-1 -2,0 -3,0 -4,0zm-17 1c-2,0 -2,1 -4,1l1 -1 -6 0c-1,5 -2,10 -4,14 1,0 5,0 6,0 2,-1 1,-9 5,-10 1,0 2,0 2,1 1,1 -1,7 -1,9l6 0c0,-2 1,-5 1,-8 2,-5 1,-5 -2,-6 -1,-1 -3,-1 -4,0zm158 4c5,-2 5,4 3,6 -1,0 -4,1 -4,-1 -1,-1 0,-4 1,-5zm-5 -5c0,1 -1,6 -2,8 0,2 -1,5 -2,7 6,0 6,1 6,-1l1 0c0,1 1,1 2,1 7,2 11,-6 10,-11 0,-2 -2,-3 -5,-4 -2,0 -3,1 -4,1 0,-2 1,-4 1,-5l-6 0c0,1 0,3 -1,4zm-186 4c-8,0 -6,-1 -7,2 0,1 -1,1 0,2l2 0 -1 3c-2,1 -6,0 -7,-1 -1,-3 1,-12 12,-10 1,0 3,1 4,1l0 -5 -5 0c-5,-1 -8,0 -12,2 -5,3 -8,10 -5,15 1,1 3,2 5,2 2,1 5,1 7,1 2,0 6,-1 7,-2l3 -10 -3 0zm113 -4c-3,0 -5,1 -6,3 -1,-3 -3,-3 -6,-3 -4,2 -3,2 -4,2l0 -1 -5 0c-1,2 -2,5 -2,7 -1,2 -2,5 -2,7l6 0c0,-2 1,-4 2,-6 0,-2 1,-5 4,-4 0,1 0,1 0,3 0,0 -1,1 -1,2 0,2 -1,4 -1,5 7,0 6,1 7,-3 0,-1 0,-2 0,-3 1,-2 2,-5 4,-4 1,1 -1,8 -2,10l6 0c1,0 1,-1 1,-2l2 -6c1,-4 1,-6 -3,-7zm-49 2c0,1 -3,11 -4,13l6 0c2,-1 1,-11 6,-10 1,1 -1,8 -2,10l6 0c1,-2 1,-4 2,-6 0,-2 1,-5 4,-4 0,2 -2,8 -2,10l6 0c0,0 2,-7 2,-8 1,-4 1,-6 -3,-7 -1,0 -2,0 -4,1 -2,1 -1,1 -2,1 -1,-1 -2,-2 -5,-2 -2,0 -4,1 -5,2l1 -1 -6 0c0,0 0,0 0,1zm24 -130c1,1 14,6 16,7 6,2 12,4 17,6 3,1 6,1 9,2 4,2 22,8 24,12 1,0 0,3 -1,5 0,1 -2,2 -3,3 -6,5 -16,9 -23,12 -2,0 -5,1 -6,2 0,0 -1,13 -1,15 7,-2 20,-9 26,-13l4 -4c1,0 0,0 2,-2 1,-1 4,-5 5,-6 4,-9 3,-17 -3,-23 -2,-3 -4,-5 -8,-8 -2,-1 -3,-2 -5,-3 0,0 -4,-2 -5,-3 -1,0 -3,-1 -4,-2 -4,-2 -8,-4 -12,-5 -11,-4 -24,-9 -34,-15 -2,-2 -4,-3 -5,-6 -2,-6 3,-10 7,-13 1,-1 1,-1 2,-1 17,-1 34,4 47,13l9 7c1,1 2,2 4,4 -8,3 -24,8 -33,8l14 6c1,0 1,1 2,1 2,0 16,-4 19,-5 1,0 4,-1 5,-1 0,0 1,1 2,2 1,1 3,6 4,7 1,1 4,12 5,13 7,25 2,51 -14,70l-4 5c-4,4 -11,9 -16,12 -1,1 -2,2 -3,2 1,-5 -1,-9 -4,-12l-2 -3c-1,0 -1,-1 -1,-1 -3,-2 -7,-4 -9,-5 -9,-5 -19,-8 -27,-12 6,-1 11,-2 16,-3 3,-1 12,-4 14,-5l5 -36c0,-1 0,0 -1,0l-8 0c-8,1 -19,2 -27,3l-2 12c4,-1 12,-2 16,-2 0,0 -3,16 -3,17 -2,1 -6,2 -8,2 -2,1 -5,2 -7,2 -5,1 -13,1 -18,-1 -10,-2 -15,-11 -12,-24 2,-9 11,-15 19,-19 6,-3 13,-6 20,-8 2,0 6,-2 8,-2 -1,0 -1,0 -2,-1l-13 -5c-4,0 -15,3 -18,4 -7,3 -14,6 -19,11 -2,2 -5,4 -6,5 -1,2 -2,3 -4,5 -2,3 -4,7 -5,11 -3,7 -3,15 2,22l1 2c7,7 13,9 21,13 6,3 11,5 16,7 6,2 34,14 38,17 3,4 4,8 1,12 -1,2 -1,2 -3,2 -22,4 -44,-1 -61,-14 -3,-2 -6,-5 -9,-7 0,-1 0,-1 -1,-2 -1,-1 -1,-1 -1,-1 2,-1 5,-2 7,-2l23 -6c-1,0 -16,-7 -18,-8 -1,0 -1,0 -2,0 -1,0 -2,1 -3,1 -2,0 -14,4 -15,4 -1,-2 -3,-4 -4,-6 -9,-19 -10,-41 -3,-60 1,-5 4,-9 6,-14 4,-6 5,-6 9,-11 0,-1 0,-1 1,-2 3,-3 6,-6 9,-8 2,-2 4,-3 6,-4 2,-1 5,-3 7,-4 -2,12 2,16 8,21 3,3 6,5 9,6 2,1 9,5 11,5zm35 51c8,-3 13,-4 21,-9 2,-1 5,-3 7,-5 0,-1 1,0 1,-2 1,0 1,0 1,0l3 -4c1,-1 1,-3 0,-5 -4,-5 -13,-8 -20,-11 -6,-2 -15,-4 -22,-7 -16,-5 -33,-11 -46,-22 -5,-3 -7,-9 -6,-15 1,-4 0,-3 3,-5 6,-2 12,-4 18,-4 -2,2 -5,4 -5,9 -1,6 8,12 13,14 3,2 6,3 9,4 13,5 26,11 38,17 6,4 12,7 15,12 5,7 6,13 1,20 -2,5 -6,8 -10,11 -3,3 -8,6 -12,8 -3,1 -7,3 -10,4l1 -10zm39 34c-1,-1 -1,-3 -1,-4 1,-4 8,-3 9,-4 0,-1 -4,-7 -2,-9 2,-2 4,-2 6,-3 2,0 1,-1 0,-2 -1,-1 -3,-4 -3,-6 1,-2 5,-5 7,-5 -1,-2 -8,-7 -2,-11 3,-2 5,-2 3,-3 0,-1 -1,-1 -1,-1 -1,-1 -2,-2 -3,-3 -3,-3 2,-7 4,-8l0 -2c-3,-1 -7,-3 -7,-5 0,-4 5,-7 4,-8l-2 0c-1,-1 -2,-1 -2,-1 -2,-1 -3,-2 -3,-3 -2,-3 2,-7 2,-8 -1,0 -7,0 -9,-3 0,-2 1,-4 1,-5 1,-3 2,-4 0,-4 -1,0 -3,0 -4,0 -2,0 -3,-1 -4,-2 -1,-3 1,-8 0,-8l0 0c0,0 -1,0 -1,0 0,0 0,0 -1,0 -1,0 -5,1 -6,-1 -2,-1 -1,-7 -1,-8 -1,0 -3,1 -5,1 -4,1 -5,0 -7,-3 0,-2 0,-4 0,-5 -1,0 -2,1 -4,2 -4,1 -6,1 -7,-3 -1,-1 -1,-1 -1,-2 0,-1 0,-1 0,-1 -1,-2 -1,-1 -1,-2 -1,2 -5,4 -8,4 -2,0 -4,-6 -4,-7 -1,1 -5,5 -8,5 -2,0 -5,-3 -6,-6l0 0c-1,1 -1,3 -2,4 -3,3 -5,3 -8,0 -1,-1 -3,-2 -4,-3 0,3 -3,7 -5,7 -2,0 -5,-2 -7,-3 0,-1 0,-1 0,-1 -1,3 -3,7 -5,8 -2,2 -7,-3 -8,-3 0,7 -1,10 -8,8 -1,0 -2,-1 -4,-1 1,10 -1,10 -9,8 -1,0 -1,1 -1,1 0,1 0,1 0,1 2,9 -2,9 -9,9 2,5 5,9 -2,10 -2,1 -3,1 -5,1 3,5 5,9 -1,11 0,0 -4,1 -4,1 0,1 2,3 2,4 3,4 1,6 -3,8 -1,1 -2,1 -2,1 0,1 0,1 0,1 2,2 5,4 5,6 -1,3 -3,4 -5,5 0,1 -1,1 -1,2 0,0 1,1 1,1 2,1 4,3 4,5 1,2 -3,6 -5,7l1 1c2,1 6,3 7,5 1,3 -4,6 -4,8 2,1 6,1 7,3 1,2 0,4 0,5 -2,6 -4,4 2,5 8,2 3,8 3,11 0,0 0,0 2,0 0,0 1,0 2,0 7,1 6,4 4,10 8,-1 10,-1 10,8 6,-2 10,-3 10,6 0,0 0,0 0,0l0 1c1,1 6,-4 9,-2 1,0 2,2 2,3 1,1 1,3 2,4l0 1c3,-3 7,-7 11,-1 0,1 1,2 1,3 0,0 0,1 1,1 0,0 0,0 1,-1 0,0 0,0 0,-1 3,-3 7,-5 10,-1l2 4c0,0 0,0 0,0 1,0 4,-5 7,-5 1,-1 3,1 4,2 0,0 1,0 1,1 1,1 2,2 3,1l1 -3c2,-4 4,-4 8,-2l2 2c1,1 1,1 2,0 0,-1 0,-1 0,-2 0,0 0,-1 1,-2 2,-3 3,-4 7,-2 1,0 1,1 2,1 1,1 1,1 2,1 0,-2 0,-3 1,-5 2,-7 6,-3 10,-2 0,-2 0,-7 2,-9 2,-1 7,1 9,0 0,-1 -2,-5 0,-8 2,-3 7,-1 8,-2 1,-1 0,-1 0,-3z"/>
 </g>
</svg>
