<?xml version="1.0" encoding="UTF-8"?>
<!DOCTYPE svg PUBLIC "-//W3C//DTD SVG 1.0//EN" "http://www.w3.org/TR/2001/REC-SVG-20010904/DTD/svg10.dtd">
<!-- Creator: CorelDRAW X8 -->
<svg xmlns="http://www.w3.org/2000/svg" xml:space="preserve" width="346px" height="93px" version="1.0" style="shape-rendering:geometricPrecision; text-rendering:geometricPrecision; image-rendering:optimizeQuality; fill-rule:evenodd; clip-rule:evenodd" viewBox="0 0 732 196" xmlns:xlink="http://www.w3.org/1999/xlink">
 <defs>
  <style type="text/css">
   <![CDATA[
    .fil1 {fill:#009EC2}
    .fil2 {fill:#029EC4}
    .fil3 {fill:#1A3E94}
    .fil0 {fill:#1C3D95}
   ]]>
  </style>
 </defs>
 <g id="Capa_x0020_1">
  <metadata id="CorelCorpID_0Corel-Layer"/>
  <g id="_2485754251024">
   <path class="fil0" d="M358 196l0 -98 -14 0c0,17 -9,28 -21,33 -14,6 -32,5 -47,2l0 -35 -16 0 0 98 98 0z"/>
   <path class="fil1" d="M260 98l16 0 0 -36c6,-2 18,-2 25,-2 9,0 16,2 23,5 11,5 20,16 20,33l14 0 0 -98c-16,0 -33,0 -49,0 -8,0 -44,-1 -49,1l0 97z"/>
   <path class="fil0" d="M603 112c0,-3 8,-20 10,-24 1,-3 2,-7 4,-8l8 53c3,1 8,0 11,1l-11 -72c-14,0 -10,-4 -17,13 -3,5 -5,10 -7,15 -2,5 -11,28 -13,30l-25 -58 -11 0 -12 71 11 0 8 -53c2,2 11,24 12,26 4,9 8,18 12,27l10 0c3,-3 7,-17 10,-21 0,0 0,0 0,0z"/>
   <path class="fil0" d="M470 101c0,-3 0,-27 0,-30 1,-2 3,-1 5,-1 11,-1 23,0 23,14 0,14 -17,18 -28,17zm-11 -40l0 72 11 0 0 -23 14 -2 15 19c2,2 4,4 5,6l15 0c-2,-3 -9,-10 -12,-14 -3,-5 -8,-9 -11,-14 0,-1 0,-1 0,-1 1,0 1,-1 1,-1 5,-3 10,-6 12,-13 3,-8 1,-16 -4,-21 -10,-11 -29,-9 -46,-8z"/>
   <path class="fil0" d="M2 112c0,0 3,6 4,7 2,3 4,5 6,7 14,13 40,11 57,1l0 -33c0,-4 2,-4 -10,-3l0 31c-12,4 -23,6 -34,0 -18,-10 -18,-42 5,-51 13,-4 24,0 36,2 0,-11 1,-9 -6,-11 -22,-5 -49,-2 -58,22 -3,10 -2,17 0,28z"/>
   <path class="fil0" d="M695 71l14 38 -29 0 15 -38zm-37 62c15,1 11,2 15,-8 1,-1 1,-3 2,-4 2,-5 1,-4 5,-4l33 0 6 16 13 0c-1,-4 -13,-30 -15,-36l-13 -31c-2,-6 0,-4 -16,-4l-30 71z"/>
   <path class="fil0" d="M131 71l15 38 -30 0 15 -38zm-24 32l-13 30 12 0 7 -16 36 0 2 5 5 11 12 0 -29 -71 -14 0c-2,1 -17,37 -18,41z"/>
   <path class="fil0" d="M377 133l51 0 0 -9 -40 0 0 -24 31 0 0 -9 -30 0 -1 -20 37 0 0 -9 -48 0c-1,4 -1,68 0,71z"/>
   <polygon class="fil0" points="197,133 248,133 248,125 209,124 209,62 197,62 "/>
   <path class="fil2" d="M288 125c-1,-3 -1,-23 0,-27l43 0c0,-24 -19,-31 -43,-27 -1,4 -1,52 0,54z"/>
   <path class="fil3" d="M288 125c11,1 23,1 31,-4 7,-4 12,-12 12,-23l-43 0c-1,4 -1,24 0,27z"/>
  </g>
 </g>
</svg>
