<?xml version="1.0" encoding="UTF-8"?>
<!DOCTYPE svg PUBLIC "-//W3C//DTD SVG 1.0//EN" "http://www.w3.org/TR/2001/REC-SVG-20010904/DTD/svg10.dtd">
<!-- Creator: CorelDRAW X8 -->
<svg xmlns="http://www.w3.org/2000/svg" xml:space="preserve" width="431px" height="400px" version="1.0" style="shape-rendering:geometricPrecision; text-rendering:geometricPrecision; image-rendering:optimizeQuality; fill-rule:evenodd; clip-rule:evenodd" viewBox="0 0 170 157" xmlns:xlink="http://www.w3.org/1999/xlink">
 <defs>
  <style type="text/css">
   <![CDATA[
    .fil0 {fill:#003D90}
    .fil1 {fill:#FEFEFE}
   ]]>
  </style>
 </defs>
 <g id="Capa_x0020_1">
  <metadata id="CorelCorpID_0Corel-Layer"/>
  <g id="_2485999403968">
   <path class="fil0" d="M105 22c9,-2 13,11 4,14 -9,3 -14,-11 -4,-14zm-19 -6c-21,11 -16,42 6,47 17,3 33,-11 30,-29 -1,-7 -3,-10 -6,-13 -4,-4 -7,-6 -13,-7 -6,-2 -12,-1 -17,2z"/>
   <path class="fil0" d="M86 14c3,-2 15,-4 19,-5 7,-1 15,-1 23,-1 7,1 14,1 21,3l21 4 0 -8c-6,-2 -21,-4 -27,-5 -6,-2 -26,-3 -32,-2 -19,1 -41,10 -53,26 -6,10 -10,21 -11,33 0,5 -1,13 1,17 0,-9 -1,-13 2,-23 3,-13 10,-23 20,-30 4,-3 11,-8 16,-9z"/>
   <path class="fil0" d="M146 19c-1,6 -1,9 -4,14 -9,22 -29,38 -55,39 -18,0 -29,-6 -31,-6l0 8c6,4 25,6 26,6 2,0 5,0 7,0 20,-1 35,-10 46,-26 2,-3 4,-6 6,-10 3,-7 7,-16 6,-26 -1,1 0,0 -1,1z"/>
   <path class="fil0" d="M39 123l1 4 10 0 0 -28c-20,-1 -23,-3 -21,10 2,1 4,0 6,2 -3,9 -20,6 -19,-11 0,-5 3,-10 7,-12 7,-3 9,2 12,5l14 1c-2,-12 -9,-19 -23,-19 -13,0 -21,7 -24,17 -6,14 1,35 21,36 10,1 11,-2 16,-5z"/>
   <path class="fil0" d="M142 94c-3,-1 -2,-3 -5,-3 -4,0 -7,-1 -11,0 -1,5 -1,30 0,36l13 1c2,-7 -4,-26 6,-27 9,-1 4,19 5,26l14 1c0,-7 1,-27 0,-31 -4,-9 -19,-10 -22,-3z"/>
   <path class="fil1" d="M105 22c-10,3 -5,17 4,14 9,-3 5,-16 -4,-14z"/>
   <path class="fil0" d="M77 94c-1,-3 1,-1 -1,-4l-12 0c-1,11 -1,26 0,37l13 0c1,-21 -2,-26 14,-25l0 -12c-9,-2 -9,1 -14,4z"/>
   <polygon class="fil0" points="98,128 112,128 113,91 99,91 "/>
   <g>
    <path class="fil0" d="M2 141l-1 15 2 0c1,-4 0,-5 0,-8 1,2 1,1 1,3l1 5 2 1c0,-3 0,-6 1,-7l0 6 2 0c0,-3 1,-12 0,-15l-3 0 -1 8c-1,-2 -1,-3 -1,-4 0,-2 0,-6 -3,-4z"/>
    <path class="fil0" d="M100 153c-1,-3 -1,-9 2,-8 1,3 1,8 -2,8zm-3 -1c1,8 9,7 8,-6 -1,-8 -9,-8 -8,6z"/>
    <path class="fil0" d="M131 149c2,0 0,3 1,8l2 -1c0,-2 0,-3 0,-4 0,-3 0,-2 1,-4 1,2 0,5 0,8 3,2 3,0 3,-4 0,-8 -1,-7 -3,-7 -1,1 -5,0 -7,1 0,12 0,11 2,10l1 -7z"/>
    <path class="fil0" d="M49 154c0,-1 -1,-2 0,-4 0,-2 -1,0 0,-2 3,3 -1,10 3,8 1,-3 0,-6 1,-7 2,3 -1,9 3,7 0,-6 1,-12 -3,-11 -2,1 -5,0 -6,0l0 12 2 -1 0 -2z"/>
    <path class="fil0" d="M23 154c-1,-1 -2,-2 -1,-6l1 1c1,3 1,3 0,5zm0 -9c-1,0 -2,-1 -3,2 -1,2 -1,10 2,10 5,0 4,0 4,-11 0,-5 0,-5 -2,-5l-1 4z"/>
    <path class="fil0" d="M154 154c-1,-1 -1,-3 -1,-5l1 0c1,2 1,3 0,5zm3 0c2,-9 -5,-12 -6,-6 -2,9 4,12 6,6z"/>
    <path class="fil0" d="M119 154c0,-2 0,-2 1,-2 0,1 0,2 0,2 -1,1 -1,0 -1,0zm-3 -2c0,3 0,5 3,5 1,0 0,-1 1,-1 1,0 1,1 2,1 0,-9 0,-11 -1,-12 -1,0 -2,0 -2,0 -2,0 -2,1 -3,3 2,1 2,0 3,0 1,0 0,0 1,1l-1 1c-1,0 -1,0 -3,2z"/>
    <path class="fil0" d="M41 154c0,-2 1,-2 1,-2 0,3 0,3 -1,2zm1 -6c0,2 1,1 -1,2 -1,0 -3,0 -2,6 2,1 1,1 3,1 1,-1 1,0 3,0l-1 -11c-1,-1 -4,-2 -5,2 2,2 2,-1 3,0z"/>
    <path class="fil0" d="M82 149l0 4c-1,1 -2,0 -2,-2 0,-2 1,-3 2,-2zm-4 3c1,8 7,6 6,-2 0,-7 -7,-7 -6,2z"/>
    <path class="fil0" d="M67 156c1,-4 0,-6 1,-7 2,2 1,4 1,8l2 -1c0,-4 0,-7 0,-11l-6 0c0,7 0,8 0,10 0,1 1,1 1,1 0,0 0,0 0,0l1 0z"/>
    <path class="fil0" d="M14 149c1,-2 1,-1 2,-1 -1,1 0,1 -1,2 -2,0 0,-1 -1,-1zm0 3c1,-1 3,0 4,0 0,-10 -6,-8 -6,-2 -1,8 5,10 6,4 -2,-1 -3,2 -4,-2z"/>
    <path class="fil0" d="M60 149c1,-2 1,-2 1,0 0,1 2,1 -1,1 0,-1 0,-1 0,-1zm0 3c1,0 2,0 4,0 0,-10 -6,-8 -6,-2 -1,8 5,10 5,4 -3,-1 -3,2 -3,-2z"/>
    <path class="fil0" d="M161 148c1,-1 0,2 3,0 -1,-4 -5,-4 -6,0 1,6 3,3 4,6 -2,2 0,-2 -4,-1 0,4 2,4 4,4 2,0 2,-2 2,-6 -1,-2 -2,-1 -3,-2 -1,-1 0,0 0,-1z"/>
    <path class="fil0" d="M88 148c1,-1 1,2 3,0 0,-2 -1,-3 -2,-3 -2,0 -3,0 -3,2 -1,5 2,5 3,7 -1,2 -1,-3 -3,0 0,3 1,4 3,3 2,0 2,-2 2,-6 -1,-2 -2,-1 -3,-3z"/>
    <path class="fil0" d="M146 149c2,-1 0,1 3,1 1,-7 -6,-7 -6,1 0,7 6,9 6,1 -3,0 -1,2 -3,2l0 -5z"/>
    <path class="fil0" d="M34 149c2,-1 1,1 3,1 1,-7 -6,-6 -6,1 0,7 6,9 6,1 -2,0 -1,2 -3,1l0 -4z"/>
    <path class="fil0" d="M114 151c0,-4 1,-2 1,-4 0,-3 0,0 -1,-2 0,-2 0,-2 0,-3l-2 0 -1 5c0,0 0,1 0,1l1 2c0,4 -1,8 3,7 0,-6 0,-1 -1,-6z"/>
    <path class="fil0" d="M109 145c0,0 0,0 0,0 1,-2 1,-2 1,-3 -2,-4 -3,2 -4,4 1,5 -1,-4 1,2 0,3 0,4 0,8l2 0 0 -7c1,-2 1,0 1,-2 0,-2 0,-1 -1,-2z"/>
    <path class="fil0" d="M76 145l0 -1c-1,-1 0,-3 -2,-2 -1,0 0,1 -1,4 0,1 0,-2 0,1 0,2 0,1 1,3 0,4 -1,8 3,7 0,-6 -1,-1 -1,-6 0,-4 0,-2 1,-4 -1,-3 0,0 -1,-2z"/>
    <path class="fil0" d="M124 141c0,4 0,11 0,16l2 -1c0,-4 1,-11 0,-15l-2 0z"/>
    <path class="fil0" d="M30 145c-2,0 -2,0 -2,4 -1,3 -1,5 0,8l2 0 0 -12z"/>
    <polygon class="fil0" points="140,156 142,156 141,145 139,146 "/>
    <path class="fil0" d="M4 151c0,-2 0,-1 -1,-3 0,3 1,4 0,8l-2 0 1 -15c-1,1 -1,0 -1,2l0 14 2 0c1,-4 0,-4 1,-7l0 1z"/>
    <path class="fil0" d="M141 141c-2,-2 -2,5 1,3l-1 -3z"/>
    <path class="fil0" d="M119 144c1,0 2,-1 2,-3l-2 0c0,1 0,2 0,3z"/>
    <path class="fil0" d="M28 143c1,1 1,2 2,-1 -1,0 0,-1 -1,-1 -1,0 -1,0 -1,1l0 1z"/>
   </g>
  </g>
 </g>
</svg>
