<?xml version="1.0" encoding="UTF-8"?>
<!DOCTYPE svg PUBLIC "-//W3C//DTD SVG 1.0//EN" "http://www.w3.org/TR/2001/REC-SVG-20010904/DTD/svg10.dtd">
<!-- Creator: CorelDRAW X8 -->
<svg xmlns="http://www.w3.org/2000/svg" xml:space="preserve" width="535px" height="400px" version="1.0" style="shape-rendering:geometricPrecision; text-rendering:geometricPrecision; image-rendering:optimizeQuality; fill-rule:evenodd; clip-rule:evenodd" viewBox="0 0 274 205" xmlns:xlink="http://www.w3.org/1999/xlink">
 <defs>
  <style type="text/css">
   <![CDATA[
    .fil0 {fill:#2A2927}
    .fil2 {fill:#2C2B29}
    .fil1 {fill:#DE2127}
   ]]>
  </style>
 </defs>
 <g id="Capa_x0020_1">
  <metadata id="CorelCorpID_0Corel-Layer"/>
  <g id="_2485752846928">
   <path class="fil0" d="M67 145c2,1 0,1 1,1 1,0 1,-1 2,-1l100 0c11,0 23,0 35,0 0,0 0,1 0,1 0,0 0,0 0,0l1 0c0,0 0,0 0,0 0,2 0,27 0,29 -12,1 -23,0 -35,0l-86 0c-6,0 -12,1 -18,0 -2,1 -28,0 -33,0 -5,0 -31,0 -34,0 0,4 0,28 0,30 1,0 4,0 5,0 32,0 265,0 267,0 1,0 1,0 1,-2 0,-1 0,-1 0,-2 0,-3 0,-24 0,-25 0,0 0,0 0,0 0,-2 -60,-1 -67,-1l0 -30 67 0c0,-2 0,-20 0,-26 0,0 0,-1 0,-2l0 -1c-1,-1 -272,-1 -273,0l0 29 67 0z"/>
   <path class="fil0" d="M232 93c1,-4 -1,-40 0,-49 1,0 1,1 2,3 0,1 0,2 1,3l14 30c1,2 1,2 2,4 1,1 4,8 5,9 0,0 11,0 13,0 5,0 5,0 5,-2 0,-20 0,-42 0,-62 0,-9 0,-19 0,-27l-19 0 0 49c0,0 0,0 0,0l-4 -10c-1,-1 -2,-1 -2,-2 -3,-7 -5,-13 -9,-19 0,-1 -1,-2 -1,-3 0,-1 -1,-2 -1,-3 -2,-4 -5,-10 -6,-12 -4,0 -16,-1 -19,0 0,7 0,15 0,23l0 57c0,1 0,10 1,11 1,0 15,0 18,0z"/>
   <path class="fil1" d="M67 175c6,1 12,0 18,0l86 0c12,0 23,1 35,0 0,-2 0,-27 0,-29 0,0 0,0 0,0l-1 0c0,0 0,0 0,0 0,0 0,-1 0,-1 -12,0 -24,0 -35,0l-100 0c-1,0 -1,1 -2,1 -1,0 1,0 -1,-1 1,2 1,26 0,30z"/>
   <path class="fil0" d="M124 25c0,-3 0,-3 2,-3 6,0 11,1 14,6 2,5 3,11 3,17 0,8 0,15 -3,22 -3,5 -7,5 -14,5 -3,0 -2,0 -2,-2l0 -45zm-20 68c8,0 18,0 26,0 9,0 6,0 12,-2 6,-1 8,-4 12,-8 4,-5 4,-7 6,-11 0,-2 0,-4 1,-6 1,-4 0,-3 1,-6 1,-4 0,-21 0,-25 -1,-1 0,-2 -1,-3 -1,-7 -4,-17 -8,-22 -6,-7 -12,-9 -23,-9 -8,0 -17,0 -25,0 -1,4 -1,19 -1,23 0,6 0,66 0,69z"/>
   <path class="fil0" d="M36 27c0,8 2,13 7,19 1,1 5,4 6,5 9,5 22,5 23,15 0,2 0,4 -1,6 -1,1 -3,3 -4,4 -4,2 -9,0 -11,-3 -6,-8 -1,-12 -6,-12 -1,1 -1,1 -2,1 -2,0 -3,0 -5,0 -3,0 -6,0 -9,1 0,1 0,5 0,6l4 12c5,10 13,13 25,13 7,0 12,-1 17,-5 1,0 1,0 2,-1 3,-4 5,-6 7,-12 1,-4 2,-7 2,-13 0,-8 -2,-17 -9,-22 -3,-2 -8,-5 -11,-7 -2,-1 -13,-4 -15,-5 -3,-3 -3,-12 5,-12 3,0 5,1 7,3l1 3c0,1 1,1 1,2 0,1 0,1 0,2 1,2 1,2 5,1l13 -1c1,-2 -1,-9 -1,-11 -2,-5 -4,-9 -8,-12 -4,-3 -12,-4 -16,-4 -10,0 -18,3 -23,11 -3,5 -4,9 -4,16z"/>
   <path class="fil2" d="M176 93c3,0 9,0 12,0 9,0 8,1 8,-3l0 -89 -15 0c-5,0 -5,0 -5,3 0,12 0,86 0,89z"/>
   <path class="fil0" d="M19 93l1 -68c0,-8 0,-16 0,-23l-20 0c0,8 0,19 0,27l0 55c0,9 -1,9 2,9 1,0 2,0 4,0l13 0z"/>
  </g>
 </g>
</svg>
