<?xml version="1.0" encoding="UTF-8"?>
<!DOCTYPE svg PUBLIC "-//W3C//DTD SVG 1.0//EN" "http://www.w3.org/TR/2001/REC-SVG-20010904/DTD/svg10.dtd">
<!-- Creator: CorelDRAW X8 -->
<svg xmlns="http://www.w3.org/2000/svg" xml:space="preserve" width="483px" height="400px" version="1.0" style="shape-rendering:geometricPrecision; text-rendering:geometricPrecision; image-rendering:optimizeQuality; fill-rule:evenodd; clip-rule:evenodd" viewBox="0 0 9088 7521" xmlns:xlink="http://www.w3.org/1999/xlink">
 <defs>
  <style type="text/css">
   <![CDATA[
    .fil0 {fill:#0C7BC0}
    .fil1 {fill:#A3C5E8}
   ]]>
  </style>
 </defs>
 <g id="Capa_x0020_1">
  <metadata id="CorelCorpID_0Corel-Layer"/>
  <g id="_2486081830256">
   <path class="fil0" d="M867 3882c0,-622 227,-1147 493,-1565 173,-271 375,-511 594,-716 45,-42 76,-83 123,-127 718,-667 1971,-1267 3113,-1473 -454,-17 -1474,287 -1879,433 -860,311 -1555,744 -2180,1325 -1619,1505 -1533,3681 474,4908 872,532 2057,854 3285,854 1505,0 2748,-324 4007,-1038 116,-65 159,-72 191,-142 -116,45 -247,125 -366,179 -1969,888 -4480,972 -6329,-160 -694,-425 -1526,-1259 -1526,-2478zm1546 433l2063 0c65,-73 141,-221 194,-306 69,-110 123,-198 192,-310l952 -1550c49,-78 166,-251 194,-327 -48,-97 -133,-212 -195,-307l-406 -614c-59,-91 -139,-234 -209,-304 -63,43 -602,787 -696,913l-1750 2333c-60,80 -329,420 -339,472zm500 534c-3,-4 -5,-17 -6,-14l-12 -56c-15,-56 59,-48 -269,-45l-228 1118 298 0c28,-191 107,-709 235,-848 50,-53 173,-131 242,-38 81,89 -109,728 -128,883l285 2c87,-204 91,-685 250,-853 45,-48 182,-126 246,-29 71,76 -117,734 -138,883l295 -1c35,-243 173,-677 169,-890 -8,-377 -496,-276 -648,-79 -3,-3 -7,-14 -8,-11 -3,9 -29,-69 -82,-111 -126,-98 -380,-64 -501,89zm5963 -81c-107,70 -85,3 -92,-20 4,-3 -25,-32 52,-21 68,11 27,13 40,41zm-148 168c81,5 56,20 56,-96 139,29 20,107 164,98l-56 -107c48,-30 46,-50 38,-120 -67,-37 -92,-37 -195,-27l-7 252zm287 -53c-113,251 -446,82 -351,-155 91,-227 454,-72 351,155zm-225 -310c-343,89 -187,559 116,475 273,-75 192,-555 -116,-475zm-1807 8l298 0 51 -270 -285 -3 -64 273zm-259 1271l284 -1c46,-90 219,-974 235,-1120l-290 1 -229 1120zm465 0l364 0c29,-54 202,-265 269,-304 23,77 100,261 168,304l283 -2 -270 -546 500 -568c-74,-8 -150,-5 -225,-6 -127,-1 -107,-14 -175,55 -88,90 -139,186 -228,248l-157 -300 -310 -2c23,89 171,359 229,469 66,126 -19,139 -224,376 -45,52 -51,68 -107,125 -46,47 -75,81 -117,151zm-2558 -652c27,-152 92,-266 242,-275 165,-11 210,121 215,275l-457 0zm660 357l-246 -51c-69,74 -130,180 -287,148 -113,-23 -164,-128 -158,-268l735 0c47,-337 -17,-626 -331,-674 -731,-112 -916,940 -400,1131 308,114 628,-64 687,-286zm684 -597c349,-189 403,515 99,665 -190,94 -312,-71 -304,-261 7,-161 65,-328 205,-404zm506 -635l-118 546c-160,-237 -693,-293 -856,322 -170,646 386,851 656,559l37 100 250 0 327 -1542c-96,-3 -227,-17 -296,15z"/>
   <path class="fil1" d="M6145 1822l1381 2253 1546 3c-31,-75 -216,-320 -274,-407l-856 -1224c-43,-63 -1062,-1565 -1155,-1617l-477 737c-49,74 -128,179 -165,255z"/>
  </g>
 </g>
</svg>
