<?xml version="1.0" encoding="UTF-8"?>
<!DOCTYPE svg PUBLIC "-//W3C//DTD SVG 1.0//EN" "http://www.w3.org/TR/2001/REC-SVG-20010904/DTD/svg10.dtd">
<!-- Creator: CorelDRAW X8 -->
<svg xmlns="http://www.w3.org/2000/svg" xml:space="preserve" width="1087px" height="400px" version="1.0" style="shape-rendering:geometricPrecision; text-rendering:geometricPrecision; image-rendering:optimizeQuality; fill-rule:evenodd; clip-rule:evenodd" viewBox="0 0 452 166" xmlns:xlink="http://www.w3.org/1999/xlink">
 <defs>
  <style type="text/css">
   <![CDATA[
    .fil1 {fill:black}
    .fil0 {fill:#009996}
   ]]>
  </style>
 </defs>
 <g id="Capa_x0020_1">
  <metadata id="CorelCorpID_0Corel-Layer"/>
  <g id="_2485999386496">
   <path class="fil0" d="M76 166c-19,-4 -31,-18 -34,-38l0 -3 85 0 -1 4c0,6 -3,13 -6,18 -6,9 -16,16 -26,19 -4,0 -15,1 -18,0l0 0z"/>
   <path class="fil1" d="M334 127c-8,-1 -14,-3 -18,-7 -5,-4 -9,-12 -9,-19l0 -3 17 0 1 4c1,5 2,8 6,10 3,1 4,1 8,1 10,0 16,-5 15,-12 -1,-5 -5,-8 -16,-10 -8,-3 -12,-4 -17,-8 -5,-3 -8,-7 -10,-11 -2,-5 -1,-13 1,-18 3,-6 11,-12 20,-15 6,-1 16,-1 20,1 10,4 17,11 18,22l0 3 -8 0c-9,0 -8,0 -9,-4 -1,-5 -5,-8 -11,-9 -11,-1 -19,10 -11,18 2,2 4,3 15,6 14,4 20,8 24,15 1,3 2,3 2,10 0,7 -1,8 -2,11 -5,9 -14,14 -28,15 -2,0 -6,0 -8,0l0 0zm-91 -31c-6,-16 -12,-30 -13,-30 0,0 0,11 0,29l0 30 -9 -1 -9 0 0 -42 -1 -42 14 0c8,0 13,0 14,0 0,1 4,10 9,22 4,11 8,21 8,20 0,0 4,-9 9,-21l8 -21 14 0 14 0 0 85 -18 0 0 -30c0,-16 -1,-29 -1,-29 0,0 -6,12 -12,26 -6,15 -12,29 -13,30l-1 3 -13 -29z"/>
   <path class="fil0" d="M37 124c-10,-1 -18,-5 -24,-12 -10,-10 -14,-19 -13,-33 1,-11 4,-18 11,-26 8,-8 16,-12 26,-13l5 0 0 3c0,7 4,17 9,24 6,6 15,12 24,14l4 1 -3 1c-8,1 -19,8 -25,15 -6,7 -8,14 -9,22 0,5 0,5 -5,4l0 0zm90 -2c0,-4 -2,-11 -5,-16 -3,-7 -8,-13 -15,-17 -4,-3 -12,-6 -16,-6 -2,-1 -2,-1 1,-1 5,-1 12,-4 15,-6 10,-7 18,-19 20,-31l0 -5 3 0c7,0 17,4 24,10 12,10 18,27 14,42 -5,17 -18,29 -36,32 -2,0 -4,1 -5,1 0,0 0,-2 0,-3l0 0z"/>
   <path class="fil1" d="M380 82l0 -43 17 1c21,0 24,1 34,6 7,3 12,8 16,15 6,12 7,28 1,41 -4,7 -12,15 -20,18 -1,1 -5,2 -8,3 -4,1 -7,1 -22,1l-18 1 0 -43zm35 26c5,-2 9,-4 12,-8 4,-4 6,-8 6,-17 0,-8 -1,-12 -4,-17 -5,-7 -13,-11 -25,-11l-6 0 0 54 7 0c3,0 8,-1 10,-1z"/>
   <path class="fil0" d="M43 36c1,-10 6,-20 15,-27 4,-3 12,-7 17,-8 4,-1 13,-1 17,0 12,2 24,11 30,21 2,6 4,12 4,15l0 2 -84 0 1 -3z"/>
  </g>
 </g>
</svg>
