<?xml version="1.0" encoding="UTF-8"?>
<!DOCTYPE svg PUBLIC "-//W3C//DTD SVG 1.0//EN" "http://www.w3.org/TR/2001/REC-SVG-20010904/DTD/svg10.dtd">
<!-- Creator: CorelDRAW X8 -->
<svg xmlns="http://www.w3.org/2000/svg" xml:space="preserve" width="1966px" height="400px" version="1.0" style="shape-rendering:geometricPrecision; text-rendering:geometricPrecision; image-rendering:optimizeQuality; fill-rule:evenodd; clip-rule:evenodd" viewBox="0 0 1107 225" xmlns:xlink="http://www.w3.org/1999/xlink">
 <defs>
  <style type="text/css">
   <![CDATA[
    .fil0 {fill:#0071BB}
   ]]>
  </style>
 </defs>
 <g id="Capa_x0020_1">
  <metadata id="CorelCorpID_0Corel-Layer"/>
  <path class="fil0" d="M238 7l0 213 47 0 0 -174 51 0 0 174 47 0 0 -174c22,-1 32,-1 44,12 10,12 7,32 7,49 0,38 1,76 0,112l48 1c0,-38 0,-77 0,-115 0,-19 1,-35 -6,-52 -10,-28 -37,-46 -67,-47 -19,-1 -39,-1 -58,-1 -38,0 -76,0 -113,2zm735 39c14,0 50,-1 60,1 15,3 26,16 26,34 0,45 1,94 0,139l47 0c0,-25 0,-49 0,-74 0,-22 1,-50 0,-72 -3,-38 -35,-69 -76,-69l-104 2 0 66c0,47 1,101 0,147l47 0 0 -174zm-472 -39l0 212 47 1 0 -174 56 0c36,1 45,49 13,64 -12,5 -39,2 -54,3l54 80c4,4 6,8 9,13 2,3 8,10 9,14l58 0 -26 -39c-4,-6 -8,-12 -13,-19l-13 -20c19,-5 37,-28 41,-49 6,-29 -7,-55 -21,-67 -21,-19 -35,-21 -71,-21 -17,0 -76,0 -89,2zm235 112c-4,-38 26,-68 59,-71 38,-4 68,24 71,58 4,38 -25,69 -58,72 -39,3 -68,-25 -72,-59zm-47 1c1,16 6,31 12,44 5,8 11,18 18,25 12,12 22,20 41,28 75,30 160,-29 153,-112 -2,-29 -16,-59 -36,-76 -11,-9 -19,-15 -35,-21 -73,-29 -159,28 -153,112zm-512 0c-3,33 -34,62 -73,57 -33,-4 -61,-35 -56,-73 4,-32 34,-62 73,-56 33,5 60,34 56,72zm47 2c2,-17 -1,-34 -6,-49 -7,-19 -21,-37 -36,-49 -18,-13 -35,-21 -60,-23 -39,-4 -74,13 -98,42 -13,16 -21,37 -23,60 -7,65 44,117 102,122 65,5 117,-45 121,-103z"/>
 </g>
</svg>
