<?xml version="1.0" encoding="UTF-8"?>
<!DOCTYPE svg PUBLIC "-//W3C//DTD SVG 1.0//EN" "http://www.w3.org/TR/2001/REC-SVG-20010904/DTD/svg10.dtd">
<!-- Creator: CorelDRAW X8 -->
<svg xmlns="http://www.w3.org/2000/svg" xml:space="preserve" width="636px" height="400px" version="1.0" style="shape-rendering:geometricPrecision; text-rendering:geometricPrecision; image-rendering:optimizeQuality; fill-rule:evenodd; clip-rule:evenodd" viewBox="0 0 353 222" xmlns:xlink="http://www.w3.org/1999/xlink">
 <defs>
  <style type="text/css">
   <![CDATA[
    .fil0 {fill:#007CC2}
   ]]>
  </style>
 </defs>
 <g id="Capa_x0020_1">
  <metadata id="CorelCorpID_0Corel-Layer"/>
  <path class="fil0" d="M275 124c-8,34 -72,33 -55,-14 5,-16 14,-25 34,-26 20,-1 28,14 23,34l-37 0c-1,1 -8,20 -1,22 9,4 12,-9 14,-16l22 0zm-34 -14l15 1c2,-4 8,-23 -4,-20 -7,2 -9,11 -11,19zm-188 1c15,0 19,-3 24,-20 4,-16 7,-28 -11,-27l-13 47zm262 -15c1,-1 1,-2 3,-4 3,-3 6,-6 11,-7 17,-3 18,24 2,24 -4,-1 -6,-3 -8,-5 -2,-2 -2,-6 -2,-10 -4,1 -6,7 -8,11 -3,7 -10,33 -12,40l-21 0 13 -52 -8 0 2 -6 30 0 -2 9zm-139 -9l46 0c0,2 -6,10 -8,13 -2,4 -23,37 -24,38l19 0 -2 7 -46 0c1,-2 13,-22 16,-26 2,-3 15,-23 16,-26l-19 0 2 -6zm-78 11c-2,6 -5,10 -9,13 -10,7 -24,6 -37,7 -3,5 -5,23 -8,27l-22 0c2,-11 21,-75 21,-81l-9 0 1 -6c15,-1 30,-1 45,0 13,0 22,8 22,22 0,5 -2,13 -4,18zm-23 104l36 -128c4,-18 10,-35 26,-44 19,-12 46,-6 45,14 -1,16 -24,18 -24,1 0,-8 5,-10 11,-12 0,-6 -21,-14 -28,12 -2,6 -11,38 -11,42l37 0 -15 58 -22 0c1,-8 5,-18 7,-26 1,-5 7,-22 6,-26l-15 0 -32 117c8,2 17,5 28,7 32,7 65,7 97,2 26,-4 57,-14 78,-28 4,-2 7,-4 10,-7 18,-12 32,-28 40,-48 7,-20 5,-41 -4,-58 -14,-28 -44,-50 -78,-62 -75,-28 -169,-19 -225,23 -30,22 -51,55 -38,95 4,13 11,23 19,33l9 8c12,10 29,22 43,27z"/>
 </g>
</svg>
