<?xml version="1.0" encoding="UTF-8"?>
<!DOCTYPE svg PUBLIC "-//W3C//DTD SVG 1.0//EN" "http://www.w3.org/TR/2001/REC-SVG-20010904/DTD/svg10.dtd">
<!-- Creator: CorelDRAW X8 -->
<svg xmlns="http://www.w3.org/2000/svg" xml:space="preserve" width="716px" height="400px" version="1.0" style="shape-rendering:geometricPrecision; text-rendering:geometricPrecision; image-rendering:optimizeQuality; fill-rule:evenodd; clip-rule:evenodd" viewBox="0 0 633 353" xmlns:xlink="http://www.w3.org/1999/xlink">
 <defs>
  <style type="text/css">
   <![CDATA[
    .fil1 {fill:none}
    .fil0 {fill:#009EE0}
   ]]>
  </style>
     <clipPath id="id0">
      <path d="M0 0l633 0 0 353 -633 0 0 -353zm0 0z"/>
     </clipPath>
 </defs>
 <g id="Capa_x0020_1">
  <metadata id="CorelCorpID_0Corel-Layer"/>
  <g id="_2486081775696">
   <g id="surface1">
    <g>
    </g>
    <g style="clip-path:url(#id0)">
     <g>
      <path class="fil0" d="M89 251l0 54c0,17 9,28 14,29 5,2 8,1 8,1l0 15c0,0 -111,2 -111,0 0,-1 0,-8 0,-8 0,0 23,-13 23,-35l0 -259c0,-1 -1,-10 -6,-14 -5,-5 -13,-5 -13,-5l0 -17 83 0c0,0 46,-3 75,57 29,61 4,130 -24,156 -16,15 -35,23 -49,26zm0 -29c6,-1 16,-4 16,-12l0 -164c0,-8 -10,-12 -16,-12l0 188zm136 83c0,0 0,0 0,0 0,17 7,25 11,28 4,3 10,2 10,2l0 15 -107 0 0 -15c12,1 21,-5 22,-25l0 -26c-1,-20 -10,-25 -22,-25l0 -15 107 0 0 16c0,0 -6,-1 -10,1 -4,3 -11,11 -11,28 0,0 0,0 0,0l0 16zm-18 -136c19,0 35,15 35,34 0,20 -16,35 -35,35 -19,0 -35,-15 -35,-35 0,-19 16,-34 35,-34zm59 182l-9 0 0 -74 13 -4c0,0 12,57 49,55 37,-2 37,-39 15,-74 -22,-35 -80,-86 -92,-121 -11,-35 -4,-86 32,-112 36,-26 74,-7 80,-1 7,7 17,2 18,-4 0,-6 1,-7 6,-7 6,-1 8,0 8,0l0 87 -14 0c0,0 -18,-63 -60,-60 -21,2 -25,18 -22,37 4,22 20,47 35,63 26,29 84,98 78,143 -6,46 -33,72 -69,72 -36,1 -49,-9 -55,-10 -5,-2 -13,6 -13,10zm170 -61l65 0c2,9 4,15 4,18 4,17 -14,31 -14,31l0 14 109 0 0 -19c0,0 -5,3 -13,-4 -8,-6 -14,-19 -14,-19l-78 -305 -12 0c0,0 -75,286 -83,308 -8,22 -24,25 -24,25l0 14 73 0 0 -16c0,0 -4,1 -13,-8 -8,-9 -5,-21 -5,-21l5 -18zm57 -27l-50 0 24 -90c0,0 15,50 26,90zm90 -212l0 19 -12 0 0 -48 21 0c4,0 7,1 10,2 2,0 4,2 5,4 2,3 3,6 3,8 0,6 -3,10 -9,13l9 21 -12 0 -8 -19 -7 0zm0 -20l0 12 6 0c3,0 4,0 5,-1 1,0 2,-1 3,-2 1,-1 1,-2 1,-3 0,-2 0,-3 -1,-4 -1,-1 -2,-2 -3,-2 -1,0 -2,0 -5,0l-6 0zm6 -30c12,0 23,5 31,13 8,8 13,19 13,32 0,12 -5,23 -13,31 -8,8 -19,13 -31,13 -12,0 -23,-5 -31,-13 -8,-8 -13,-19 -13,-31 0,-13 5,-24 13,-32 8,-8 19,-13 31,-13zm24 21c-7,-6 -15,-10 -24,-10 -10,0 -18,4 -24,10 -6,6 -10,14 -10,24 0,9 4,17 10,23 6,7 14,10 24,10 9,0 17,-3 24,-10 6,-6 9,-14 9,-23 0,-10 -3,-18 -9,-24zm0 0z"/>
     </g>
    </g>
    <path class="fil1" d="M0 0l633 0 0 353 -633 0 0 -353zm0 0z"/>
   </g>
  </g>
 </g>
</svg>
