<?xml version="1.0" encoding="UTF-8"?>
<!DOCTYPE svg PUBLIC "-//W3C//DTD SVG 1.0//EN" "http://www.w3.org/TR/2001/REC-SVG-20010904/DTD/svg10.dtd">
<!-- Creator: CorelDRAW X8 -->
<svg xmlns="http://www.w3.org/2000/svg" xml:space="preserve" width="400px" height="400px" version="1.0" style="shape-rendering:geometricPrecision; text-rendering:geometricPrecision; image-rendering:optimizeQuality; fill-rule:evenodd; clip-rule:evenodd" viewBox="0 0 83 83" xmlns:xlink="http://www.w3.org/1999/xlink">
 <defs>
  <style type="text/css">
   <![CDATA[
    .fil2 {fill:#FEFEFE}
    .fil1 {fill:#858789}
    .fil0 {fill:url(#id0)}
    .fil3 {fill:url(#id1);fill-rule:nonzero}
   ]]>
  </style>
  <radialGradient id="id0" gradientUnits="userSpaceOnUse" gradientTransform="matrix(-1.01015 -1.01015 1.01016 -1.01015 42 125)" cx="41.5153" cy="41.5153" r="116.406" fx="41.5153" fy="41.5153">
   <stop offset="0" style="stop-opacity:1; stop-color:#00AFEF"/>
   <stop offset="0.101961" style="stop-opacity:1; stop-color:#316DA7"/>
   <stop offset="0.501961" style="stop-opacity:1; stop-color:#355A9C"/>
   <stop offset="0.74902" style="stop-opacity:1; stop-color:#3B4694"/>
   <stop offset="0.988235" style="stop-opacity:1; stop-color:#2F3165"/>
   <stop offset="1" style="stop-opacity:1; stop-color:#2F3165"/>
  </radialGradient>
  <linearGradient id="id1" gradientUnits="userSpaceOnUse" x1="-3.38457" y1="80.826" x2="42.0066" y2="2.20555">
   <stop offset="0" style="stop-opacity:1; stop-color:#3B4694"/>
   <stop offset="0.0117647" style="stop-opacity:1; stop-color:#3B4694"/>
   <stop offset="0.188235" style="stop-opacity:1; stop-color:#3374B8"/>
   <stop offset="0.270588" style="stop-opacity:1; stop-color:#317ABE"/>
   <stop offset="0.54902" style="stop-opacity:1; stop-color:#00AFEF"/>
   <stop offset="0.701961" style="stop-opacity:1; stop-color:#D5EFFC"/>
   <stop offset="1" style="stop-opacity:1; stop-color:#00AFEF"/>
  </linearGradient>
 </defs>
 <g id="Capa_x0020_1">
  <metadata id="CorelCorpID_0Corel-Layer"/>
  <g id="_2485978484304">
   <path class="fil0" d="M83 42c0,22 -19,41 -41,41 -23,0 -42,-19 -42,-41 0,-23 19,-42 42,-42 22,0 41,19 41,42z"/>
   <g>
    <g>
     <path class="fil1" d="M20 51c0,0 0,0 0,0 1,-1 1,-1 1,-2 1,-3 2,-5 2,-7 1,-2 1,-3 1,-4 1,-1 1,-2 1,-3 1,-2 1,-3 2,-4 0,-1 0,-2 -1,-2 0,0 0,0 0,0 4,0 8,0 11,0 2,0 3,0 5,1 1,1 1,2 1,3 1,1 0,3 0,4 -2,3 -4,5 -7,6 -1,0 -2,1 -3,1 -1,0 -2,0 -3,0 0,0 -1,0 -1,0 0,0 0,0 0,0 0,0 -1,1 -1,2 0,1 0,2 -1,3 0,0 0,1 0,2 -1,1 0,1 0,2 -3,0 -5,0 -8,0 0,-1 1,-1 1,-2 0,0 0,0 0,0zm14 -20l0 0c0,0 -1,0 -1,0 0,0 0,0 0,0 0,0 0,1 0,1 -1,3 -2,6 -3,10 -1,0 -1,0 0,0 1,0 3,0 4,-1 1,-1 1,-2 2,-3 1,-2 1,-3 1,-5 0,-1 -1,-2 -2,-2 0,0 -1,0 -1,0z"/>
     <path class="fil1" d="M75 29c0,0 0,0 0,0 0,0 1,0 1,0 0,1 0,1 0,1 -1,1 -1,2 -1,2 0,1 0,1 0,1 -1,-1 -2,-2 -3,-2 -1,0 -1,-1 -2,-1 -2,0 -4,1 -6,3 0,0 0,0 0,0 0,0 0,0 0,0 0,1 -1,1 -1,2 -2,1 -2,3 -3,5 -1,2 -1,4 -1,6 0,1 0,2 0,3 1,1 2,2 3,2 0,0 1,0 2,0 0,0 0,0 0,0 0,0 0,-1 0,-1 1,-1 1,-2 1,-3 1,-1 1,-3 2,-5 0,0 0,0 0,-1 -1,0 -1,0 -1,-1 0,0 0,0 0,0 3,0 6,0 9,0 0,0 0,0 0,0 -1,1 -2,1 -2,2 -1,3 -2,6 -3,9 0,0 0,0 0,0 -2,1 -4,2 -5,2 -2,0 -4,0 -5,0 -1,0 -2,-1 -3,-1 0,0 -1,0 -1,0 -2,-2 -2,-4 -3,-6 0,-4 1,-7 3,-11 0,0 1,-1 1,-1 0,-1 1,-1 1,-1 1,-1 2,-2 4,-3 1,-1 3,-1 5,-2 2,0 4,0 5,1 1,0 2,0 3,0z"/>
     <path class="fil1" d="M49 44c0,0 1,0 1,0 1,0 1,0 2,0 0,0 0,0 0,1 0,1 -1,3 -2,4 0,0 0,0 0,0 2,2 4,3 5,4 1,0 1,0 1,0 0,0 0,0 0,0 -2,0 -4,0 -6,0 0,0 0,0 -1,0 0,-1 -1,-1 -1,-2 0,0 -1,0 -1,0 -1,1 -2,2 -4,2 -1,0 -2,0 -3,0 -1,0 -2,-1 -2,-1 -1,-1 -2,-3 -2,-4 1,-2 2,-3 3,-4 1,-1 2,-1 4,-2 0,0 0,0 0,-1 0,-1 0,-3 2,-5 1,-1 3,-2 5,-2 0,0 1,1 2,1 1,1 1,2 0,4 0,1 -1,1 -2,2 -1,1 -2,1 -3,1 0,1 0,1 0,1 0,2 1,3 2,5 0,0 0,0 0,0 0,-1 1,-2 1,-3 0,0 0,0 -1,-1zm-3 6l0 0c0,-1 0,-1 0,-1 -1,-2 -2,-3 -2,-5 0,0 -1,0 -1,0 0,0 0,0 0,0 -1,1 -2,2 -3,3 -1,2 1,4 3,4 1,0 2,-1 3,-1zm0 -9l0 0c1,0 1,0 1,0 1,-1 1,-2 2,-3 0,0 1,-1 1,-1 0,-1 -1,-2 -1,-1 -1,0 -1,0 -2,0 -1,2 -1,3 -1,5z"/>
    </g>
    <g>
     <path class="fil2" d="M19 50c0,0 0,0 0,0 1,0 1,-1 1,-2 1,-2 2,-5 2,-7 1,-1 1,-3 2,-4 0,-1 0,-2 1,-3 0,-1 0,-3 1,-4 0,-1 0,-2 -1,-2 0,0 1,0 1,0 3,0 7,0 11,0 1,0 3,0 4,1 1,1 2,2 2,3 0,2 0,3 -1,4 -1,3 -4,5 -7,6 -1,1 -2,1 -3,1 -1,0 -2,0 -3,0 0,0 0,0 -1,0 0,0 0,0 0,0 0,1 0,1 -1,2 0,1 0,2 -1,3 0,1 0,1 0,2 0,1 0,2 1,2 -3,0 -6,0 -9,0 1,0 1,-1 1,-2 0,0 0,0 0,0zm14 -20l0 0c0,0 0,0 -1,0 0,0 0,0 0,0 0,0 0,1 0,1 -1,3 -2,7 -3,10 0,0 0,0 0,0 2,0 3,0 4,-1 1,-1 2,-2 2,-3 1,-1 1,-3 1,-5 0,-1 0,-2 -1,-2 -1,0 -1,0 -2,0z"/>
     <path class="fil2" d="M74 28c0,0 0,0 0,1 1,0 1,0 1,0 0,0 0,0 0,0 0,1 -1,2 -1,3 0,0 0,0 0,0 -1,-1 -2,-1 -3,-2 -1,0 -1,0 -2,0 -2,-1 -4,0 -5,2 0,0 0,0 -1,0 0,0 0,0 0,0 0,1 -1,1 -1,2 -1,2 -2,4 -3,6 0,1 -1,3 -1,5 0,1 0,2 1,4 0,0 1,1 2,1 1,1 1,1 2,0 0,0 0,0 0,0 0,0 0,0 1,-1 0,-1 0,-2 0,-3 1,-1 1,-3 2,-4 0,-1 0,-1 0,-2 0,0 -1,0 -1,0 0,0 0,0 0,0 3,0 6,0 9,0 0,0 0,0 0,0 -1,0 -1,1 -2,2 -1,2 -2,5 -2,8 -1,0 -1,1 -1,1 -2,0 -3,1 -5,1 -2,0 -3,0 -5,0 -1,0 -2,0 -3,-1 0,0 0,0 0,0 -3,-2 -3,-4 -3,-6 -1,-4 0,-7 2,-10 0,-1 1,-2 1,-2 1,-1 1,-1 1,-1 1,-1 3,-2 4,-3 2,-1 4,-1 6,-1 1,0 3,0 5,0 1,0 1,0 2,0z"/>
     <path class="fil2" d="M48 44c1,0 1,0 1,0 1,0 1,0 2,0 0,0 0,0 0,0 0,1 0,3 -2,4 0,0 0,0 0,1 2,1 4,2 6,3 0,0 0,0 0,0 0,0 0,0 0,0 -2,0 -4,0 -6,0 0,0 0,0 0,0 -1,-1 -1,-1 -2,-2 0,0 0,0 0,0 -2,1 -3,2 -5,2 -1,1 -2,0 -3,0 -1,0 -2,-1 -2,-1 -1,-1 -1,-3 -1,-4 0,-2 1,-3 2,-4 2,-1 3,-1 4,-2 0,0 0,0 0,0 0,-2 1,-4 2,-6 1,-1 3,-2 5,-2 1,1 1,1 2,1 1,1 1,3 0,4 0,1 -1,2 -2,2 -1,1 -2,1 -3,2 0,0 0,0 0,0 0,2 1,3 2,5 0,0 0,0 0,0 1,-1 1,-2 1,-2 0,-1 0,-1 -1,-1zm-3 5l0 0c0,0 0,-1 0,-1 -1,-1 -2,-3 -2,-5 0,0 0,0 -1,0 0,0 0,0 0,1 -1,0 -2,1 -2,2 -1,2 0,4 2,4 1,0 2,0 3,-1zm1 -9l0 0c0,0 0,0 0,0 1,-1 2,-2 2,-2 1,-1 1,-2 1,-2 0,-1 0,-1 -1,-1 -1,0 -1,0 -1,1 -1,1 -2,2 -1,4z"/>
    </g>
   </g>
   <g>
    <path class="fil3" d="M12 41c0,-17 9,-32 24,-41 -20,3 -36,20 -36,41 0,22 17,40 39,42 -16,-9 -27,-24 -27,-42z"/>
   </g>
  </g>
 </g>
</svg>
