<?xml version="1.0" encoding="UTF-8"?>
<!DOCTYPE svg PUBLIC "-//W3C//DTD SVG 1.0//EN" "http://www.w3.org/TR/2001/REC-SVG-20010904/DTD/svg10.dtd">
<!-- Creator: CorelDRAW X8 -->
<svg xmlns="http://www.w3.org/2000/svg" xml:space="preserve" width="2907px" height="400px" version="1.0" style="shape-rendering:geometricPrecision; text-rendering:geometricPrecision; image-rendering:optimizeQuality; fill-rule:evenodd; clip-rule:evenodd" viewBox="0 0 1906 262" xmlns:xlink="http://www.w3.org/1999/xlink">
 <defs>
  <style type="text/css">
   <![CDATA[
    .fil0 {fill:#1A4684;fill-rule:nonzero}
   ]]>
  </style>
 </defs>
 <g id="Capa_x0020_1">
  <metadata id="CorelCorpID_0Corel-Layer"/>
  <g>
   <path id="path64136" class="fil0" d="M0 255l147 -255 147 255 -294 0 0 0zm147 -244l-137 238 275 0 -138 -238 0 0zm13 231c-24,0 -49,-3 -74,-7l-29 -60 6 0c5,9 9,17 16,25 17,22 39,31 66,31 23,0 50,-9 50,-35 0,-21 -16,-28 -34,-33 -12,-3 -24,-6 -36,-10 -15,-6 -26,-18 -26,-35 0,-23 18,-42 42,-42 22,0 38,4 38,4l29 49 -5 0c-7,-11 -14,-22 -25,-30 -10,-7 -24,-13 -37,-13 -12,0 -23,7 -23,20 0,18 20,22 34,25l23 6c30,7 57,16 57,52 0,40 -38,53 -72,53l0 0zm361 20c-35,0 -68,-11 -98,-26l30 -69c18,13 37,26 61,26 6,0 19,-1 19,-11 0,-10 -9,-13 -22,-17 -29,-8 -74,-16 -74,-77 0,-61 47,-85 102,-85 26,0 61,10 82,25l-27 62c0,0 -22,-19 -46,-19 -14,0 -22,4 -22,12 0,9 13,12 21,15 29,9 76,18 76,79 0,62 -46,85 -102,85l0 0zm269 -7l-7 -31 -66 0 -9 31 -92 0 85 -245 100 0 81 245 -92 0 0 0zm-40 -166l-22 77 43 0 -21 -77 0 0zm298 166l-73 -119 0 119 -85 0 0 -245 85 0 73 120 0 -120 85 0 0 245 -85 0 0 0zm208 -1l-28 1 -68 0 0 -245 65 0 28 1c79,0 140,28 140,122 0,89 -57,121 -137,121l0 0zm2 -170l-10 0 0 98 10 0c31,0 47,-15 47,-48 0,-30 -16,-50 -47,-50l0 0zm277 178c-75,0 -133,-51 -133,-129 0,-77 56,-130 133,-130 76,0 135,52 135,130 0,77 -49,129 -135,129l0 0zm1 -177c-27,0 -44,19 -44,47 0,29 17,49 44,49 28,0 46,-20 46,-49 0,-28 -18,-47 -46,-47l0 0zm267 97l91 0 0 73 -235 0 105 -171 -82 0 0 -74 224 0 -103 172z"/>
  </g>
 </g>
</svg>
