<?xml version="1.0" encoding="UTF-8"?>
<!DOCTYPE svg PUBLIC "-//W3C//DTD SVG 1.0//EN" "http://www.w3.org/TR/2001/REC-SVG-20010904/DTD/svg10.dtd">
<!-- Creator: CorelDRAW X8 -->
<svg xmlns="http://www.w3.org/2000/svg" xml:space="preserve" width="705px" height="400px" version="1.0" style="shape-rendering:geometricPrecision; text-rendering:geometricPrecision; image-rendering:optimizeQuality; fill-rule:evenodd; clip-rule:evenodd" viewBox="0 0 2536 1439" xmlns:xlink="http://www.w3.org/1999/xlink">
 <defs>
  <style type="text/css">
   <![CDATA[
    .fil1 {fill:#26326C}
    .fil0 {fill:#F0D40E}
   ]]>
  </style>
 </defs>
 <g id="Capa_x0020_1">
  <metadata id="CorelCorpID_0Corel-Layer"/>
  <g id="_2486058547376">
   <path class="fil0" d="M1323 1355c-187,0 -553,-23 -695,-104l68 -87c19,-28 34,-75 62,-94l1489 0c-1,2 -4,3 -4,6l-14 14c-10,9 -15,12 -24,17 -19,13 -26,17 -44,29 -86,55 -213,107 -314,137 -162,48 -340,82 -524,82zm-1036 -284l191 -1c-16,31 -50,57 -75,81 -28,-7 -96,-52 -116,-80zm-109 -102l366 -3c-13,44 -13,43 -61,43l-235 0 -39 -1 -31 -39zm2226 -66l-1584 1c31,-147 167,-455 251,-576 51,-73 182,-243 276,-244 413,-5 1318,263 1057,819zm-1825 0l-443 1c-70,-79 -67,-244 -18,-341 53,-106 126,-171 212,-233 151,-111 431,-212 666,-230l-36 45c-39,38 -68,77 -100,126 -116,175 -196,428 -281,632zm134 62l1643 1 -30 42 -1633 1c-20,21 -51,87 -70,115 -24,35 -57,76 -91,94 -24,-10 -39,-13 -59,-32 13,-23 55,-58 100,-128 149,-230 202,-569 366,-789 41,-55 110,-136 167,-173 24,-15 65,-13 102,-13 -37,49 -70,37 -168,174 -100,141 -167,299 -232,463 -24,62 -84,193 -95,245zm-709 -183c30,232 281,423 485,504 260,103 526,162 842,152 299,-10 571,-75 801,-194 174,-90 444,-298 399,-586 -39,-249 -280,-412 -487,-508 -461,-213 -1198,-199 -1641,43 -55,30 -108,62 -153,97l-130 121c-67,91 -137,212 -116,371z"/>
   <path class="fil1" d="M1948 512l65 0 -1 316 -64 0 0 -316zm153 313l-63 3 118 -317c65,-1 64,-11 84,41l105 275 -65 0 -27 -71 -122 0 -30 69zm-1091 -123c-25,-250 272,-254 299,-65 34,239 -279,262 -299,65zm677 126l-46 0 0 -317c90,1 54,-2 64,124l122 0 0 -124 64 1 0 316 -64 0 0 -137 -120 -2 -3 110c-5,28 5,17 -17,29zm-268 -120l-1 119 -60 1 -4 -316c93,-2 216,-20 237,69 27,120 -77,128 -172,127zm985 195c261,-556 -644,-824 -1057,-819 -94,1 -225,171 -276,244 -84,121 -220,429 -251,576l1584 -1z"/>
   <path class="fil1" d="M579 903c85,-204 165,-457 281,-632 32,-49 61,-88 100,-126l36 -45c-235,18 -515,119 -666,230 -86,62 -159,127 -212,233 -49,97 -52,262 18,341l443 -1z"/>
   <path class="fil1" d="M1323 1355c184,0 362,-34 524,-82 101,-30 228,-82 314,-137 18,-12 25,-16 44,-29 9,-5 14,-8 24,-17l14 -14c0,-3 3,-4 4,-6l-1489 0c-28,19 -43,66 -62,94l-68 87c142,81 508,104 695,104z"/>
   <path class="fil1" d="M713 965c11,-52 71,-183 95,-245 65,-164 132,-322 232,-463 98,-137 131,-125 168,-174 -37,0 -78,-2 -102,13 -57,37 -126,118 -167,173 -164,220 -217,559 -366,789 -45,70 -87,105 -100,128 20,19 35,22 59,32 34,-18 67,-59 91,-94 19,-28 50,-94 70,-115l1633 -1 30 -42 -1643 -1z"/>
   <path class="fil0" d="M1076 694c-19,-170 158,-175 169,-41 13,158 -155,165 -169,41zm-66 8c20,197 333,174 299,-65 -27,-189 -324,-185 -299,65z"/>
   <path class="fil0" d="M1687 828c22,-12 12,-1 17,-29l3 -110 120 2 0 137 64 0 0 -316 -64 -1 0 124 -122 0c-10,-126 26,-123 -64,-124l0 317 46 0z"/>
   <path class="fil0" d="M2149 702c7,-29 27,-87 42,-110l38 112 -34 -1 -8 1 -38 -2zm-18 54l122 0 27 71 65 0 -105 -275c-20,-52 -19,-42 -84,-41l-118 317 63 -3 30 -69z"/>
   <path class="fil0" d="M1420 566c53,0 82,-9 107,31 1,69 -48,58 -109,58l0 -10 2 -79zm-1 142c95,1 199,-7 172,-127 -21,-89 -144,-71 -237,-69l4 316 60 -1 1 -119z"/>
   <path class="fil1" d="M1076 694c14,124 182,117 169,-41 -11,-134 -188,-129 -169,41z"/>
   <polygon class="fil0" points="1948,828 2012,828 2013,512 1948,512 "/>
   <path class="fil1" d="M209 1008l39 1 235 0c48,0 48,1 61,-43l-366 3 31 39z"/>
   <path class="fil1" d="M287 1071c20,28 88,73 116,80 25,-24 59,-50 75,-81l-191 1z"/>
   <path class="fil1" d="M1418 645l0 10c61,0 110,11 109,-58 -25,-40 -54,-31 -107,-31l-2 79z"/>
   <path class="fil1" d="M2149 702l38 2 8 -1 34 1 -38 -112c-15,23 -35,81 -42,110z"/>
  </g>
 </g>
</svg>
