<?xml version="1.0" encoding="UTF-8"?>
<!DOCTYPE svg PUBLIC "-//W3C//DTD SVG 1.0//EN" "http://www.w3.org/TR/2001/REC-SVG-20010904/DTD/svg10.dtd">
<!-- Creator: CorelDRAW X8 -->
<svg xmlns="http://www.w3.org/2000/svg" xml:space="preserve" width="1291px" height="400px" version="1.0" style="shape-rendering:geometricPrecision; text-rendering:geometricPrecision; image-rendering:optimizeQuality; fill-rule:evenodd; clip-rule:evenodd" viewBox="0 0 7071 2191" xmlns:xlink="http://www.w3.org/1999/xlink">
 <defs>
  <style type="text/css">
   <![CDATA[
    .fil2 {fill:#0A519E}
    .fil6 {fill:#0D51A1}
    .fil1 {fill:#0E51A0}
    .fil5 {fill:#19150B}
    .fil3 {fill:#1C1A03}
    .fil4 {fill:#1C1B0B}
    .fil7 {fill:#211C04}
    .fil0 {fill:#CAD401}
   ]]>
  </style>
 </defs>
 <g id="Capa_x0020_1">
  <metadata id="CorelCorpID_0Corel-Layer"/>
  <g id="_2485999434976">
   <path class="fil0" d="M747 57c163,-48 242,213 78,261 -192,56 -263,-207 -78,-261zm576 1927c241,-261 204,-722 -87,-929 -189,-133 -261,-87 -337,-154 -91,-81 -40,-266 -118,-362 -1,-85 14,-103 52,-135 105,-87 215,-184 77,-352 -50,-46 -136,-69 -217,-28 -183,92 -14,297 -268,312 -179,10 -301,92 -370,207 -107,181 -55,459 131,564 65,37 126,78 67,271 -94,313 69,656 380,772 244,91 515,25 690,-166zm-594 11c-104,-24 -185,-85 -252,-181 -134,-193 -92,-429 55,-577 260,-264 712,-135 764,249 46,346 -245,586 -567,509zm-65 -1419c208,271 -158,666 -464,393 -287,-337 184,-729 464,-393z"/>
   <path class="fil1" d="M3619 491c-53,35 -420,31 -498,9 -4,-45 -20,-156 13,-177 123,-6 261,-3 385,-2 56,0 133,-8 150,48 19,60 11,117 -50,122zm-654 401l146 -1 2 -235 19 16c117,43 350,216 459,223l228 0c-98,-75 -355,-186 -443,-256 232,-24 464,44 451,-247 -5,-123 -34,-92 -76,-165l-175 -38 -610 -1 -1 704z"/>
   <path class="fil1" d="M3887 208l1 687 151 0 3 -490c149,100 534,490 633,489 73,-1 68,-42 73,-111l1 -564 -3 -25 -148 2 1 480 -23 -14c-32,-19 -45,-40 -77,-65l-399 -338c-87,-67 -79,-93 -213,-51z"/>
   <path class="fil1" d="M2272 580c37,-63 107,-148 129,-205l154 205 -283 0zm-259 92c-30,89 -108,147 -141,232 90,-17 126,11 209,-29 8,-48 62,-117 95,-160l478 -1c26,34 106,144 126,184l160 -2c15,-18 12,2 3,-38 -40,-21 -369,-525 -433,-613 -173,-240 -365,366 -497,427z"/>
   <path class="fil1" d="M1212 208c-185,64 -140,186 -140,387 -1,214 33,276 249,292l541 4 -5 -134c-170,1 -490,23 -626,-27 -9,-59 -22,-338 10,-372 44,-66 214,-37 297,-37 108,0 216,-1 324,1l0 -140c-208,29 -439,-21 -650,26z"/>
   <polygon class="fil1" points="5659,313 5972,322 5973,896 6122,889 6127,322 6443,322 6442,181 5658,190 "/>
   <path class="fil1" d="M4822 761c52,84 101,106 214,122l366 -5c69,-39 14,19 -4,-23l130 -72c-50,-6 -20,10 -49,-46 -58,12 -476,53 -506,-23l-7 -348c30,-20 28,-24 74,-35 -1,-19 0,-20 11,-40 151,0 157,47 231,-14 -276,-1 -123,-13 -245,-27 -86,-10 -74,24 -87,-33 -106,27 -139,94 -139,218 0,101 -9,233 11,326z"/>
   <path class="fil1" d="M4950 217c13,57 1,23 87,33 122,14 -31,26 245,27 -74,61 -80,14 -231,14 -11,20 -12,21 -11,40 136,-27 366,-29 454,37 7,97 11,316 -15,369 29,56 -1,40 49,46l-130 72c18,42 73,-16 4,23l-366 5 420 1c105,-36 185,-53 195,-177 8,-104 5,-300 -8,-401 -46,-39 -23,-60 -112,-92 -55,-20 -130,-25 -191,-26 -87,-2 -330,-15 -390,29z"/>
   <path class="fil2" d="M6603 320c-65,-302 363,-358 413,-99 57,293 -361,341 -413,99zm150 -312c-348,85 -226,600 122,518 333,-78 209,-598 -122,-518z"/>
   <path class="fil3" d="M2478 1430l-2 -140c85,1 190,-9 257,18 41,150 -45,123 -255,122zm3 -176l-1 -133c94,1 170,-6 244,16l1 97c-69,30 -159,20 -244,20zm-61 216c76,-7 155,-1 232,-3 39,-1 70,0 101,-20 44,-26 10,-15 39,-43 5,-80 7,-104 -64,-138 69,-52 60,-65 41,-156 -89,-37 -236,-29 -347,-22l-2 382z"/>
   <path class="fil4" d="M5116 1123c96,-3 176,-6 255,15 8,70 22,81 -27,134l-233 3 5 -152zm-58 108c0,105 -19,204 22,236 41,-19 34,53 31,-153 82,-4 179,-8 248,12 39,188 -23,110 39,141 40,-24 27,-1 26,-77 -5,-69 -12,-67 -59,-99 51,-20 70,-30 66,-104 -7,-152 -307,-109 -374,-95l1 139z"/>
   <path class="fil5" d="M3379 1272l1 -148c81,-5 258,-36 266,65 9,118 -171,96 -267,83zm-55 200l55 -5 0 -150c47,-7 223,-27 230,23 47,25 19,12 28,64 14,72 -23,31 26,63 36,-17 23,-1 31,-48 16,-94 -37,-113 -62,-127 53,-19 71,-27 66,-104 -9,-137 -155,-100 -339,-103 -30,17 -35,-8 -37,87l2 300z"/>
   <path class="fil4" d="M3189 1420c-86,18 -197,19 -274,-5 -26,-76 -28,-194 -1,-271 52,-27 223,-48 270,2 48,50 19,217 5,274zm-335 -16c38,53 55,60 143,65 56,3 146,6 197,-13 108,-41 53,-239 55,-325 -66,-47 -235,-74 -339,-32 -98,40 -66,209 -56,305z"/>
   <path class="fil5" d="M6091 1404l22 47c112,21 393,73 340,-132 -42,-162 -328,54 -301,-177 47,-21 72,-26 143,-24 73,2 89,5 98,71l56 7c-15,-130 -98,-121 -228,-113 -118,8 -159,71 -107,169 82,80 204,3 287,75 7,68 3,96 -63,104 -255,32 -138,-66 -232,-83 -17,19 -15,-11 -15,56z"/>
   <path class="fil4" d="M4926 1155c27,75 15,193 -6,263 -82,22 -192,24 -273,-1 -18,-53 -38,-241 8,-279 42,-35 223,-28 271,17zm-349 66c-1,78 7,149 22,218 91,32 264,54 357,1 34,-31 34,-132 34,-180 -9,-159 -30,-177 -199,-178 -134,-1 -207,1 -214,139z"/>
   <path class="fil4" d="M5704 1144c71,-45 225,-32 280,7 45,62 5,209 -13,260 -1,5 -6,6 -8,7 -52,23 -217,21 -247,0 -48,-34 -31,-223 -12,-274zm-65 231c30,91 54,91 163,94 99,4 147,-15 217,-21 40,-115 34,-225 4,-337 -123,-39 -263,-46 -370,10 -18,77 -18,167 -14,254z"/>
   <path class="fil4" d="M2054 1324l90 -195c35,37 87,151 98,209l14 20 -214 0 12 -34zm-112 122c-3,31 11,18 46,14 31,-42 17,-45 56,-74l188 0c59,13 20,-19 46,25l19 52 67 4c-26,-71 -61,-137 -92,-204 -16,-36 -30,-67 -45,-100l-46 -70c-1,-5 -5,-6 -7,-8l-72 3 -160 358z"/>
   <path class="fil4" d="M3861 1324l89 -196c32,34 89,156 99,211l15 19 -214 1 11 -35zm-54 138c9,-104 89,-76 279,-76 20,71 10,77 85,81 -27,-73 -77,-137 -82,-210 -28,-24 -10,-1 -33,-43 -25,-46 -17,-59 -60,-113l-78 -16 -175 383 64 -6z"/>
   <path class="fil6" d="M6745 175c69,-4 111,-17 108,55 -42,24 -47,19 -107,16l-1 -71zm-32 236c41,-17 24,1 34,-47 0,-1 0,-58 1,-68 142,3 18,124 180,112 -23,-50 -37,-77 -71,-117l16 -13c104,-97 19,-181 -184,-144l-1 216c5,78 -9,37 25,61z"/>
   <path class="fil7" d="M4341 1472l56 -10 -1 -246c0,-13 -1,-47 1,-58 8,-38 -6,-14 23,-33 56,0 116,18 134,-24 -30,-22 -279,-25 -340,-14 -30,6 -14,3 -30,14 24,44 10,23 158,25l-1 346z"/>
   <polygon class="fil5" points="1676,1085 1621,1082 1621,1463 1921,1463 1921,1431 1673,1430 "/>
   <path class="fil4" d="M5577 1462c-27,-105 -10,-237 -10,-348l7 -25 -62 -5 0 384 65 -6z"/>
  </g>
 </g>
</svg>
