<svg xmlns="http://www.w3.org/2000/svg" viewBox="0 0 46.49 47.99"><defs><style>.cls-1{fill:#ed1c24;fill-rule:evenodd;}</style></defs><title>zz</title><g id="Layer_2" data-name="Layer 2"><g id="Layer_1-2" data-name="Layer 1"><path class="cls-1" d="M5.84,19.79H19.73L19.5,20,13,24.83l-.25.2a8.34,8.34,0,0,1-.85-.65l-.88-.63c-.6-.48-1.17-.87-1.76-1.33ZM7,0h.32a1.27,1.27,0,0,1,.85.4,1.46,1.46,0,0,1,.39,1V7.11A1.35,1.35,0,0,1,7.15,8.53c-1.48,0-1.48-1.42-1.48-2.44a4.11,4.11,0,0,0-2.72,4v5.16A6,6,0,0,0,3.23,17H22.34a6,6,0,0,0,.2-1.13V9.55c0-1.84-1.45-2.86-2.72-3.54a4.07,4.07,0,0,1-.17,1.79,1.43,1.43,0,0,1-2.47.08c-.45-.77-.28-4.65-.28-5.9s.62-1.87,1.27-2h.4a1.48,1.48,0,0,1,1.16.94A9.45,9.45,0,0,1,19.82,3c.28.15.85.26,1.21.4A6.87,6.87,0,0,1,23.7,5.33a6.66,6.66,0,0,1,1.73,4.42v6.1a7.68,7.68,0,0,1-.51,2.38c-.91,2.09-2.38,3-4.17,4.39-.28.2-6.21,4.76-6.55,4.85V38.15c0,1.48-.2,4.09.17,5.19a2.86,2.86,0,0,0,3.35,1.73,2.68,2.68,0,0,0,1.59-1.16c1-1.42-.09-5.93.65-8.7a5.64,5.64,0,0,1,10.17-1.65c1.7,2.44.54,7,1,9.33a2.65,2.65,0,0,0,1.5,2,2.73,2.73,0,0,0,4-2.18V28c0-.25-.31-.45-.48-.56s-.32-.29-.54-.48c-2.38-2.13-5.93-4.51-5.93-8a5.09,5.09,0,0,1,5-5.25,5,5,0,0,1,3.49,1.59,5.87,5.87,0,0,1,1.5-1.14c4.28-2.12,9.13,3.24,5.76,8.23-.26.36-.43.53-.71.87a39.63,39.63,0,0,1-5.16,4.6V40.59c0,2.64,0,3.63-1.16,5.22A5.44,5.44,0,0,1,34.22,48h-.71a5.67,5.67,0,0,1-3.83-1.79,5.86,5.86,0,0,1-1.5-4c-.17-1.53,0-4,0-5.61,0-3.49-5.41-3.69-5.53.17-.05,1.81,0,3.74,0,5.55a5.3,5.3,0,0,1-1.56,3.94,5.09,5.09,0,0,1-1.61,1.22,5.39,5.39,0,0,1-2.1.54h-.77a5.45,5.45,0,0,1-2.46-.76c-2.64-1.59-2.84-3.69-2.84-6.81v-13c-1.41-.94-7.45-5.5-8.73-6.55A7.6,7.6,0,0,1,1.19,19.3,8.58,8.58,0,0,1,0,14.43C0,11.06-.34,8.14,1.5,5.7A6.35,6.35,0,0,1,3.26,4.08a6,6,0,0,1,2.41-1V2A2.64,2.64,0,0,1,6,.6,1.37,1.37,0,0,1,7,0Z"/></g></g></svg>