<svg xmlns="http://www.w3.org/2000/svg" viewBox="0 0 45.08 47.99"><defs><style>.cls-1{fill:#ed1c24;fill-rule:evenodd;}</style></defs><title>z7</title><g id="Layer_2" data-name="Layer 2"><g id="Layer_1-2" data-name="Layer 1"><path class="cls-1" d="M32.62,43.47c-.51.28-1,.59-1.53.88A14.66,14.66,0,0,1,27.86,46C22,47.72,18,40.15,22.61,36.24a39.54,39.54,0,0,1,6-3.49c.68,1,5.27,8.79,5.55,9.7ZM10.4,13.65c1.16-.45,1.13-1.33,0-1.79-1.22.4-1.25,1.42,0,1.79Zm3.68,15.76c-1.08.08-3.57-.4-3.66.85s2.58.91,3.66,1c.28,1.34-.48,3.69,1,3.69s.71-2.33,1-3.71c1,0,2.4.19,3.17-.2s.57-.91,0-1.39A12.2,12.2,0,0,0,16,29.44c-.2-1.36.39-3.69-.94-3.72s-.79,2.56-1,3.69ZM19,42.56c-3.21.23-7.18,0-10.46,0-3.63,0-7.2.51-6.58-3.91l17,.08ZM30.18,31.79c1.45-.88,4.4-2.86,6.1-3.32,5.72-1.47,9.41,5.76,5.3,9.64a27.41,27.41,0,0,1-5.9,3.4c-.79-1.61-1.84-3.23-2.78-4.87a51.86,51.86,0,0,1-2.72-4.85Zm-1.9-8.73,0,7.77c-1.53.82-3.09,1.75-4.64,2.66A9.26,9.26,0,0,0,19.72,37H1.86V23.29ZM1.92,21.22a5.55,5.55,0,0,1,1.53-2.81c.68-.85,1.14-1.53,1.76-2.38C8,12.35,7.39,13.93,7.5,9.91l15.14,0v1.89c-1.95,0-3.91,0-5.87,0-1.81,0-4.19-.48-3.23,1.65,1.45.45,7.43.17,9.44.2.26.08,4.82,5.81,5.27,7.57ZM5.61,5.06c0-2.38-.54-3.29,1.95-3.26l15.05,0c1.22,0,1.9-.09,1.9,1.36,0,3.8.51,4.9-1.53,4.9-2.8,0-15.53.31-17.09-.2a8.26,8.26,0,0,1-.28-2.83Zm15.1-5C18.84,0,17,0,15.07,0,3.62,0,3.9-.89,3.85,6c0,2.38.28,2.92,1.87,3.71,0,.59.06,1.33,0,1.93a1.68,1.68,0,0,1-.48,1.44C4.1,14.73,1.13,18.33.53,19.6-.32,21.44.11,31.31.11,34.17c0,4.17-1.14,9.92,4.82,10.18,4.87.2,9.94-.09,14.85,0,.76.68,1.16,1.47,2.1,2.21,3.28,2.52,6.71,1.27,9.55-.37,1.3-.76,10-5.64,10.88-6.41,6.24-5,1-15-6.6-13-2.1.57-3.8,2.13-5.64,2.86-.4-5.41.93-8.19-1.33-11.39C27.8,17,27,15.92,26,14.61c-1.59-2.15-1.68-1.47-1.56-4.93C26,8.94,26.3,8.06,26.3,5.83,26.27.33,26.13,0,20.71,0Z"/></g></g></svg>