<svg xmlns="http://www.w3.org/2000/svg" viewBox="0 0 54.63 48"><defs><style>.cls-1{fill:#ed1c24;fill-rule:evenodd;}</style></defs><title>z3</title><g id="Layer_2" data-name="Layer 2"><g id="Layer_1-2" data-name="Layer 1"><path class="cls-1" d="M3.91,2.27C5.22,2.27,5.64,5.1,3.52,5a1.38,1.38,0,0,1-.15-2.75ZM28.52,21.12c0,1.19,2.15,2.21,2.21-.4l0-9.38c-.2-1.59-2.24-1.53-2.24.34Zm13,.54a100.74,100.74,0,0,0,.06-10.58,1.08,1.08,0,0,0-2-.25c-.19.42-.17,10.23,0,10.66a1.05,1.05,0,0,0,2,.17Zm3.86-.12a1.09,1.09,0,0,0,2.06.06c.17-.51.15-10.12,0-10.54a1.08,1.08,0,0,0-2.07-.12c-.17.51-.11,10.32,0,10.6ZM23.53,21c0,1.81,2.27,1.84,2.27-.15V11.68c0-2-2.27-1.93-2.27-.11Zm10.91-3c0,1.25-.37,3.63.57,4.2a1.06,1.06,0,0,0,1.56-.54,6.85,6.85,0,0,0,.11-2.16c0-1.3.23-8.13-.28-8.81a1,1,0,0,0-1.56-.17c-.48.45-.4,1.1-.4,1.9ZM19.79,21.4c.11-.59.22-9.92-.09-10.57a1.08,1.08,0,0,0-2,.28c-.11.48-.25,9.92.11,10.63a1.07,1.07,0,0,0,2-.34ZM40.9,39.63c3.52-.54,4.85,5.72.37,6.15a3.08,3.08,0,1,1-.37-6.15Zm4.63.06a1,1,0,0,1-.23-.23l-.23-.2c-1.7-1.76-2-1.19-3.4-1.81A5.27,5.27,0,0,0,36.09,41C34.27,46.32,41,50.43,45,46.29c2.66-2.81.71-5.92.57-6.6Zm-21.15-.06a3.07,3.07,0,0,1,3.32,2.8c.25,4.26-5.84,4.4-6.16.54-.14-1.95,1.14-3,2.84-3.34Zm-5,3.48a5.16,5.16,0,0,0,1.7,3.49A5.26,5.26,0,0,0,24.8,48a5.19,5.19,0,0,0,5.08-5.27c0-6.89-10.52-7.32-10.52.39ZM49.89,24.8c-1.47,0-30.44-.11-31.18,0A1.09,1.09,0,0,0,19,27H50.8c1.05,0,1.1-.77,1.24-1.73L54.26,10c.25-1.79,1.07-4-1-4h-37c-1.53,0-2.06,2.21.29,2.21l35.8,0Zm2.44,7.57-39.52-.06a9.41,9.41,0,0,1,1.48-1.24c2.38-1.9,1.9-1.25,1.27-5.47-.88-6.07-2-12.28-2.75-18.29-.11-.85-.42-3.91-.9-4.42-.63-.65-3.72-.34-4.85-.34C6,.14,5,.4,4,0c-6,.06-4.56,8.14.25,7.23a3.66,3.66,0,0,0,2.84-2.5h3.15l3.57,23.76c0,.31-1.48,1.33-1.9,1.67-.74.62-1.36,1.05-2,1.64S8.05,32.88,8.56,34c.4.82,2,.59,3.15.57,4.85-.09,9.92-.09,14.77,0s9.78,0,14.59,0H52.13a1,1,0,0,0,.85-1c.06-.85-.45-.93-.65-1.16Z"/></g></g></svg>