<svg xmlns="http://www.w3.org/2000/svg" viewBox="0 0 54.96 48"><defs><style>.cls-1{fill:#ed1c24;fill-rule:evenodd;}</style></defs><title>z1</title><g id="Layer_2" data-name="Layer 2"><g id="Layer_1-2" data-name="Layer 1"><path class="cls-1" d="M27.92,46.33a5,5,0,0,1-4.08-1.53,5.73,5.73,0,0,1-1-1.5,5,5,0,1,1,5,3ZM55,33.12v.32c-.05.31-.31.56-.93.79l-3.91,1.45c-2.7,1-5.3,1.84-8,2.89-.88.34-1.7.59-2.58.93-.48.2-.91.34-1.36.51s-.85.31-1.33.48-.85.32-1.33.49a6.86,6.86,0,0,1-1.31.39,6.69,6.69,0,0,1-2,4.77c-.2.17-.28.19-.48.36a6.71,6.71,0,0,1-10.18-8.33,5.25,5.25,0,0,1,.68-1.05l.4-.45a1.24,1.24,0,0,1,.42-.43l-2.15-5.89C20,27.74,11.85,5.74,11.82,5.12A45.61,45.61,0,0,0,6.89,6.85c-1.19.39-4.06,1.7-5.16,1.7C1,8.55,0,4.92,0,4.66c0-.7.62-.79,1.16-1L9,.89c2.15-.76,3.6-1.5,5.67-.11A4.05,4.05,0,0,1,16,2.54c.65,1.47,1.16,3,1.67,4.53L21,16.2c.77,2,6.52,17.72,6.58,18.31a18.05,18.05,0,0,1,1.84.31c-.22-.9-2.07-5.61-2.38-6.51-.76-2.16-1.56-4.34-2.35-6.47C23.33,18,21.86,14.3,20.58,10.5c-.37-1.07-1-2,.31-2.52l3.63-1.33,1.25-.45L36.65,2.25c3.12-1.07,2.64-1.44,3.77,1.51.54,1.36,1.22,2.49.63,3.12-1.31,1.41-2.13-2.7-2.53-3.49-1.13.08-4.08,1.61-5.47,1.93.17.68.46,1.24.63,1.84.82,2.41.87,2.24-1.45,3-2.89,1-3.12,1.76-3.94-.42a10.55,10.55,0,0,1-.82-2.41c-.34.17-1,.39-1.39.54A31.18,31.18,0,0,1,22,9.28a5.77,5.77,0,0,0,.48,1.59c.2.54.34.91.51,1.42s.34,1,.51,1.42.31.93.51,1.41c.51,1.28,1.79,4.57,2.07,5.76.65-.06,7.62-2.72,8.39-3,1.25-.45,7.17-2.52,8.25-3a18.85,18.85,0,0,1-1-2.75c-.29-.82-1.79-3.57-.2-3.57.68,0,.82.48,1,1.1l1.05,2.81c1.61,4.68,3.43,9.18,5,13.86.43,1.28,1.16,2.86,1.45,4.11,2.77-.65,3.14-2.21,4.11.71a18.69,18.69,0,0,1,.73,2ZM34,39.67a6.38,6.38,0,0,0-.43-1.39,11.21,11.21,0,0,1,1.16-.45c5.19-1.73,11.34-4.28,16.53-6a6.58,6.58,0,0,1,1.3-.42A6.31,6.31,0,0,1,53,32.9a4.15,4.15,0,0,0-1.22.39c-.43.17-.74.26-1.16.43-.85.31-1.56.54-2.38.85s-13.61,5-14.23,5.1Zm-.2-19.76a15.22,15.22,0,0,1,2.46-.85l.85,2.47a21.74,21.74,0,0,0-2.46.85Zm4-1.5L41.9,17a6,6,0,0,1,1.47-.49,8.35,8.35,0,0,0,.6,1.88l4,10.82a8.69,8.69,0,0,1,.57,1.9l-16,5.79c-1.07-1.59-.28.62-1.75-3.26l-4-11.12,2.75-1c.45-.17.91-.31,1.33-.48s1-.31,1.39-.54l1.16,3.23c.32.71.77.69,1.42.43l3.32-1.19c1.59-.51.71-1.62,0-3.63-.12-.28-.2-.62-.31-.88ZM29,6.82A23.34,23.34,0,0,1,31.44,6a14.39,14.39,0,0,1,.87,2.46l-2.46.85A20.65,20.65,0,0,0,29,6.82ZM2.35,6.71C2.3,6.05,2,5.88,1.93,5.2c.31-.14.82-.31,1.16-.42C4.25,4.35,11.4,1.66,12,1.66c2.29,0,2.38,1.45,3.06,3.17,1.5,3.92,3.2,8.82,4.65,12.85C21.4,22.35,23.64,28,25.14,32.56L26,34.74a6.46,6.46,0,0,0-1.51.54l-11-30.39c-.15-.4-.2-.68-.37-1-.54-1.19-1.39-.48-3.23.14l-5,1.82c-.83.28-1.82.59-2.53.91Z"/><path class="cls-1" d="M26.73,41.29c0-.94,1.5-1,1.5-.23,0,.48.09,1-.85,1-.31,0-.65-.45-.65-.73Zm-1.62-.23a2.42,2.42,0,1,0,4.82.11,2.49,2.49,0,0,0-2.35-2.35,2.45,2.45,0,0,0-2.47,2.24Z"/></g></g></svg>