<svg xmlns="http://www.w3.org/2000/svg" viewBox="0 0 69.24 48.01"><defs><style>.cls-1{fill:#ed1c24;fill-rule:evenodd;}</style></defs><title>z2</title><g id="Layer_2" data-name="Layer 2"><g id="Layer_1-2" data-name="Layer 1"><path class="cls-1" d="M33.62,41.64c-.4,6.12-10,7.29-11.11,0l2.15.06c.88,1.36.94,2.72,3.49,2.72A3,3,0,0,0,31,42.58l.57-.94ZM7.09,37.45H19.22a6.73,6.73,0,0,1,.59-1.17h-8.1A.69.69,0,0,1,11,35.6h0a.7.7,0,0,1,.71-.7h9.12c1.39-1.54,2.92-2,3.83-2.78.26-.23.37-.63.51-1.68-.88-.14-1.36.2-1.9-2.6l-.34-1.22a17.26,17.26,0,0,0-3-.09c-3.66,0-3.86.14-4-3.26H5.05a.69.69,0,0,1-.71-.68h0a.71.71,0,0,1,.71-.71H16l0-1.38H15.7v0H13a.69.69,0,0,1-.68-.68h0a.69.69,0,0,1,.68-.71h2.95C16.38,9.21,13.58,11,26.87,11c6,0,4.74-1.33,4.74,14.23h2.75c-.74-3.63.19-7,1.27-10.18,1.14-3.37,2-5.21,4.42-7.25-.59-1-1.47-1.9-1.36-3.69A4.46,4.46,0,0,1,44.82.31,4.39,4.39,0,0,1,47.37,3c1.24.11,1.41-.23,2.41.28-.26,1.42-.74,1-2.19,1-.25,3.37-2.07,3.63-3,4.45,3.49,5.3,2.27,6.66,4.93,7.25,1.67.37,1.7.06,3.09-.42,1.08-.37,6.15-1.42,7.29-.77.9.54-.26,6.64-.37,7-1.16.42-1.53,0-2.75-.06l3.57,7.34a14.18,14.18,0,0,1,.65,2.3c2.38,0,7.17.34,7.2,3.6L67,35.92c1.19,1.61,2.64,2.94,2.22,6.18-1,7.08-11.6,8.39-13.55.48C54.11,43.06,53,44.31,52.7,41c-.49.23-.63.62-1.65.65H44.31c-11.85,0-8.45-.71-10,2.47a6.94,6.94,0,0,1-13.16-2.47c-3,0-2.94,0-2.49-2.72l0-.08H7.09a.7.7,0,0,1-.71-.68h0a.7.7,0,0,1,.71-.71Zm13.57,0h4a.69.69,0,0,1,.68.71h0a.69.69,0,0,1-.68.68H20a2.41,2.41,0,0,0-.11,1.38l15.93.12a6,6,0,0,0-5.44-7.66c-2.72,0-5.07.06-7.23,1.93a2.92,2.92,0,0,0-.34.29h4.73a.69.69,0,0,1,.68.7h0a.69.69,0,0,1-.68.68h-6a9.35,9.35,0,0,0-.83,1.17ZM.71,32.2H18.28a.69.69,0,0,1,.68.71h0a.69.69,0,0,1-.68.68H.71A.69.69,0,0,1,0,32.91H0a.7.7,0,0,1,.71-.71Zm8.64-2.72h11.8a.7.7,0,0,1,.71.68h0a.71.71,0,0,1-.71.71H9.35a.7.7,0,0,1-.68-.71h0a.69.69,0,0,1,.68-.68Zm7.77-7.6H20.3a.7.7,0,0,1,.7.71h0a.69.69,0,0,1-.7.68H17.12v1.14h.11c0,1.22.8.82,6.18.82,5,0,7,.74,7-1.25V13c0-1.19-1.5-.77-4.48-.77l-.11,2.87c-3.43.51-4,0-4-1.16V12.27h-.48l-2.35,0c-1.39,0-1.85-.26-1.79,2.8v4h6.1a.7.7,0,0,1,.7.71h0a.69.69,0,0,1-.7.68h-6.1ZM30,41.76c-.51.7-.74,1.36-1.87,1.38s-1.65-.65-2-1.5Zm32.46,1.38a2,2,0,0,1-.46-4c3.06-.37,2.87,4,.46,4ZM68,41.61c-.6,6.58-10.29,6.78-11.17.29a11,11,0,0,1,2.1-1.36c.53,2.55.79,3.85,3.6,3.85,2.09,0,5.49-3.15,1-6.46a4.43,4.43,0,0,1,2.33-1.25c1.05,1.42,2.32,2.24,2.1,4.93ZM51,35.92c-1.17,1.41-3.57,1-5.79,1L45.69,35c1.62.22,4.34.2,5.28.88ZM54,41.67c-.17-3.66.65-3.26,4.19-7.51,1.17-1.39,1.93-1.62,4.51-1.48a5.62,5.62,0,0,1,3.91,1.68c-.79.62-11.7,7.11-12.61,7.31ZM42.89,30.19l0-2.27,2.07.37c.28,3.54-.57,7.77-1.14,8.65-4.45,0-4.85-2.5-3.34-5.81.59-1.31.71-.86,2.38-.94Zm-4.34-2.92c1.84.28,2.92-.14,3.09,1.7H24.77l-.31-2.44c3.29.06,6.61,0,9.9,0a23.3,23.3,0,0,1,4.19.74ZM46.18,34c-.57-1.92.53-4.33,0-6-.42-1.45-2.89-1.37-4.62-1.62-5.38-.74-6.94-.11-6-6.15,7,.85,3.63,1.33,5.11,2.32.51.34,5.21,1.17,6.29,1.42,2.83.65,2.52,2.3,2.15,5.5-.65,5.44.23,4.56-3,4.53Zm-4.6-12.5a18.16,18.16,0,0,1,1.73-4.7c1.87,2.41.26,2.83,4.11,3.51,3.66.66,3.49,0,4.71,3,1.36,3.37,3.12,9-.11,11.62l-1.53-.77c-.46-.22-.18-.05-.49-.28.12-2.72,1.42-7.79-.08-9.83-1.11-1.51-6-2-8.34-2.56Zm-2.24,8.68c-.19,1.13-2.66,6.43,1.73,7.68,2.44.71,8.42.54,10.24-.48a10.17,10.17,0,0,0,2.8-2.89c2.67-4-.17-8.71-1.27-13,2.35-1.39,2.75-2.61.85-4.74A14.38,14.38,0,0,1,59,16l-.57,4.65a15.76,15.76,0,0,1-1.59-.34c-3-.54-1.22,2.1-.93,2.72.42.94.79,1.62,1.22,2.53.62,1.3,2.18,3.88,2.35,5.1l-7.37,8.59c-1,1.1-1,1.1-2.84,1.08h-12c-.45-3.77-.17-5.5-2.69-7.46s-5-1.59-8.31-1.25c.12-.88.17-1.41.68-1.41ZM35.89,19a29.81,29.81,0,0,1,2.41-7c4.13-7.68,6.8.31,8.5,3.77,1.16,2.41,4.25,1.14,6.63,2.58.34,2.61-2,1.45-6,.74-2-.37-1.7-.34-2.41-1.84-1.5-3.32-2.13-3.26-3.37-.12a19.42,19.42,0,0,1-1.14,2.75ZM23.07,12.27l1.51.09C24.66,14,24.8,14,23.16,14l-.09-1.42ZM46.29,4.54c-.51,4.25-6,3.65-6.21.28Zm-6.15-1a3.05,3.05,0,0,1,5.75-.31Z"/></g></g></svg>