<?xml version="1.0" encoding="UTF-8"?>
<!DOCTYPE svg PUBLIC "-//W3C//DTD SVG 1.0//EN" "http://www.w3.org/TR/2001/REC-SVG-20010904/DTD/svg10.dtd">
<!-- Creator: CorelDRAW X8 -->
<svg xmlns="http://www.w3.org/2000/svg" xml:space="preserve" width="932px" height="400px" version="1.0" style="shape-rendering:geometricPrecision; text-rendering:geometricPrecision; image-rendering:optimizeQuality; fill-rule:evenodd; clip-rule:evenodd" viewBox="0 0 353 152" xmlns:xlink="http://www.w3.org/1999/xlink">
 <defs>
  <style type="text/css">
   <![CDATA[
    .fil1 {fill:black}
    .fil0 {fill:#133D54}
    .fil2 {fill:#133E53}
   ]]>
  </style>
 </defs>
 <g id="Capa_x0020_1">
  <metadata id="CorelCorpID_0Corel-Layer"/>
  <g id="_2486058557552">
   <path class="fil0" d="M160 34c0,-13 16,-21 27,-12 11,10 4,28 -9,28 -6,0 -10,0 -14,-5 -2,-2 -4,-6 -4,-11zm16 -34l3 0c20,0 39,19 40,34l-14 0c-3,41 -57,35 -57,0l-15 0c1,-1 2,-4 2,-7 5,-11 13,-18 23,-23 7,-4 11,-4 18,-4z"/>
   <path class="fil1" d="M163 144l-9 0 0 -19c6,0 7,-1 12,1 0,3 4,18 -3,18zm-17 -36l0 38c0,3 -1,5 9,5 16,0 20,1 20,-19 0,-16 -9,-14 -21,-14 0,-16 0,-10 -8,-10z"/>
   <path class="fil1" d="M34 141c0,-2 1,-1 1,-3 5,-1 6,-1 12,-1l0 7c-3,0 -13,3 -13,-3zm-4 -22c0,7 -3,6 15,6 2,3 2,2 2,7 -8,0 -20,-2 -20,9 0,12 9,10 18,10 12,0 10,-1 10,-22 0,-14 -16,-11 -25,-10z"/>
   <path class="fil1" d="M121 142c0,-6 0,-5 11,-5l0 7c-1,0 -11,3 -11,-2zm-6 -21c0,5 1,4 8,4 4,0 6,0 9,1l0 6c-17,0 -19,-1 -19,12 0,9 13,7 19,7 4,0 5,-1 8,-1 0,-7 0,-14 0,-21 0,-12 -9,-11 -19,-11 -3,0 -6,0 -6,3z"/>
   <path class="fil1" d="M221 141c0,-5 5,-4 11,-4l0 7c-10,1 0,1 -11,0 0,-1 0,-1 0,-3zm-5 -22c0,6 -1,6 6,6 11,0 10,0 10,7 -12,0 -19,-2 -19,10 0,11 9,9 18,9 4,0 6,-1 9,-1 0,-7 0,-14 0,-21 0,-12 -7,-11 -19,-11 -3,0 -3,0 -5,1z"/>
   <path class="fil1" d="M60 121l0 28c0,3 2,2 8,2l0 -27c2,1 8,1 11,1 4,9 -1,26 4,26l5 0 0 -23c0,-12 -11,-10 -21,-10 -3,0 -7,0 -7,3z"/>
   <path class="fil1" d="M315 147l-10 0 0 -24c11,0 16,-2 16,12 0,5 0,12 -6,12zm-15 -39l0 42c11,1 24,5 26,-8 2,-24 -3,-23 -21,-23 0,-11 1,-14 -5,-11z"/>
   <path class="fil2" d="M195 67l0 16c6,-1 13,-8 17,-13 6,-8 8,-15 8,-26 -10,0 -6,0 -9,7 -4,7 -9,12 -16,16z"/>
   <path class="fil0" d="M158 83l0 -16c-8,-4 -17,-14 -18,-23l-8 0c0,13 7,27 16,33 2,2 7,6 10,6z"/>
   <path class="fil1" d="M96 110l0 8c-4,0 -4,0 -4,4 0,3 1,2 4,2 0,26 -2,27 13,27 3,0 3,-7 0,-7l-5 0 0 -20 6 0 0 -6 -6 0c0,-12 1,-11 -4,-10 -2,0 -4,0 -4,2z"/>
   <path class="fil1" d="M0 130c0,21 1,21 21,21 4,0 4,-2 4,-4 0,-4 -7,-3 -11,-3 -8,0 -6,-2 -6,-13 0,-5 1,-6 6,-6 8,0 11,1 11,-4 0,-4 -9,-3 -15,-3 -7,0 -10,5 -10,12z"/>
   <path class="fil1" d="M274 138c5,-1 8,-1 14,-1 0,12 3,10 -11,10 -5,0 -5,-6 -3,-9zm-4 -16c9,4 18,-5 18,11 -17,0 -20,-1 -20,12 0,3 2,4 4,5 4,2 21,3 21,-2 0,-24 3,-29 -16,-29 -6,0 -6,1 -7,3z"/>
   <path class="fil1" d="M331 126c0,12 9,9 16,14 3,2 2,3 1,6 -8,2 -18,-1 -18,3 0,3 3,2 6,2 4,0 17,3 17,-5 0,-11 0,-8 -14,-15 -5,-2 -4,-8 2,-8l12 0 0 -4c-6,0 -22,-3 -22,7z"/>
   <path class="fil1" d="M179 125l0 24c0,3 3,2 8,2 0,-32 -2,-26 8,-26 4,0 3,-2 3,-6 -6,-2 -19,-3 -19,6z"/>
   <path class="fil1" d="M201 151c11,0 8,5 8,-31 0,-3 -2,-2 -8,-2l0 33z"/>
   <path class="fil1" d="M258 110l0 41 5 0 0 -44c-2,0 -5,0 -5,3z"/>
   <path class="fil0" d="M169 34c0,9 15,11 15,0 0,-9 -15,-9 -15,0z"/>
   <path class="fil1" d="M204 114l4 -1c2,-5 2,-7 -4,-7 -4,0 -4,8 0,8z"/>
  </g>
 </g>
</svg>
