<?xml version="1.0" encoding="UTF-8"?>
<!DOCTYPE svg PUBLIC "-//W3C//DTD SVG 1.0//EN" "http://www.w3.org/TR/2001/REC-SVG-20010904/DTD/svg10.dtd">
<!-- Creator: CorelDRAW X8 -->
<svg xmlns="http://www.w3.org/2000/svg" xml:space="preserve" width="1832px" height="400px" version="1.0" style="shape-rendering:geometricPrecision; text-rendering:geometricPrecision; image-rendering:optimizeQuality; fill-rule:evenodd; clip-rule:evenodd" viewBox="0 0 1434 313" xmlns:xlink="http://www.w3.org/1999/xlink">
 <defs>
  <style type="text/css">
   <![CDATA[
    .fil0 {fill:#1880C3}
    .fil1 {fill:#332B66}
   ]]>
  </style>
 </defs>
 <g id="Capa_x0020_1">
  <metadata id="CorelCorpID_0Corel-Layer"/>
  <g id="_2486051143008">
   <path class="fil0" d="M572 86l0 107c0,19 39,18 39,0l0 -107 73 0c15,0 18,-3 32,-3l0 113c0,14 36,18 36,-5l0 -108 103 0 0 108c0,25 39,18 39,2l0 -107c0,-56 -86,-44 -122,-44 -24,0 -16,12 -39,12 -14,0 -16,-12 -37,-12 -44,0 -77,-7 -103,14 -5,4 -21,24 -21,30z"/>
   <path class="fil0" d="M975 86l158 0 0 22 -158 0 0 -22zm-42 2c0,82 -10,80 32,107 25,16 72,22 97,8l0 -27c-28,7 -87,3 -87,-34l183 0c12,0 7,-21 7,-54 0,-16 -8,-23 -18,-31 -6,-4 -25,-15 -33,-15l-120 0c-21,0 -61,28 -61,46z"/>
   <path class="fil0" d="M227 149c0,-7 7,-27 25,-27l149 0 0 54 -147 0c-16,0 -27,-15 -27,-27zm93 -100l0 24c19,0 32,3 49,3 20,0 31,0 32,19 -18,-8 -116,-4 -142,-4 -89,0 -81,119 -10,119l134 0c31,0 57,-29 57,-61 0,-69 10,-85 -31,-98 -31,-11 -50,-9 -82,-9 -5,0 -7,1 -7,7z"/>
   <path class="fil0" d="M1309 100c-15,-9 -80,-58 -93,-58 -6,0 -6,1 -12,2 -12,25 15,36 50,60 5,3 8,4 12,8 7,5 6,6 14,8l-80 59c-15,19 1,36 24,24l28 -20c11,-7 18,-13 29,-20 7,-4 25,-17 28,-21l77 53c5,4 22,15 28,15 17,0 30,-18 -1,-38 -9,-6 -15,-11 -24,-17 -11,-7 -43,-27 -48,-35 8,-2 36,-24 45,-30 10,-7 42,-25 40,-38 -3,-7 -7,-15 -17,-15 -13,0 -85,59 -100,63z"/>
   <path class="fil0" d="M115 12l0 30c-15,0 -32,-4 -32,17 0,20 23,17 32,17l0 117c0,18 34,20 34,-7l0 -110c19,0 59,3 67,-4 11,-9 6,-30 -6,-30l-61 0c0,-25 3,-42 -22,-42 -6,0 -12,7 -12,12z"/>
   <path class="fil0" d="M7 20l0 166c0,27 35,25 35,7l0 -181c0,-16 -35,-19 -35,8z"/>
   <path class="fil0" d="M488 12l0 181c0,18 35,20 35,-7l0 -166c0,-27 -35,-24 -35,-8z"/>
   <path class="fil1" d="M1072 313l12 0 0 -37c6,4 21,29 22,37 15,0 14,-6 20,-17 7,-11 6,-12 15,-22l0 39 9 0 0 -54c-2,0 -7,0 -9,0 -7,2 -5,3 -13,16 -6,9 -12,16 -14,26 -8,-6 -16,-22 -22,-32 -6,-10 -1,-10 -20,-10l0 54z"/>
   <path class="fil1" d="M818 266l37 0 0 10 -37 0 0 -10zm-12 40l12 0 0 -22c7,4 13,8 21,13 9,7 10,9 26,9 -8,-11 -20,-13 -27,-22 27,0 27,4 27,-20 0,-13 -25,-7 -59,-7l0 49z"/>
   <path class="fil1" d="M266 313c14,0 12,1 12,-25l42 0 0 25 12 0 0 -54 -12 0 0 22 -42 0 0 -22 -12 0 0 54z"/>
   <path class="fil1" d="M562 269l5 0c1,6 6,14 9,19l-24 0c3,-5 8,-13 10,-19zm-34 44c12,0 7,2 13,-6 9,-13 -3,-11 35,-11 8,0 7,4 11,9 4,7 2,8 14,8 -2,-7 -26,-54 -34,-54 -16,0 -20,19 -33,39 -3,6 -5,8 -6,15z"/>
   <path class="fil1" d="M1395 266c6,5 10,16 14,22l-24 0c2,-9 7,-11 10,-22zm-35 47c13,0 8,2 14,-7 8,-12 -2,-10 35,-10 15,0 1,16 25,17l-24 -43c-5,-10 -3,-11 -15,-11 -9,0 -13,13 -20,24 -4,7 -14,20 -15,30z"/>
   <path class="fil1" d="M32 284l-20 0 0 -18 27 0c6,0 5,2 10,5 -2,9 -7,13 -17,13zm-32 22c0,8 4,7 12,7l0 -22c74,0 43,-32 27,-32l-39 0 0 47z"/>
  </g>
 </g>
</svg>
