<?xml version="1.0" encoding="UTF-8"?>
<!DOCTYPE svg PUBLIC "-//W3C//DTD SVG 1.0//EN" "http://www.w3.org/TR/2001/REC-SVG-20010904/DTD/svg10.dtd">
<!-- Creator: CorelDRAW X8 -->
<svg xmlns="http://www.w3.org/2000/svg" xml:space="preserve" width="535px" height="400px" version="1.0" style="shape-rendering:geometricPrecision; text-rendering:geometricPrecision; image-rendering:optimizeQuality; fill-rule:evenodd; clip-rule:evenodd"
viewBox="0 0 11091 8295"
 xmlns:xlink="http://www.w3.org/1999/xlink">
 <defs>
  <style type="text/css">
   <![CDATA[
    .fil0 {fill:#2A2927}
    .fil2 {fill:#2C2B29}
    .fil1 {fill:#DE2127}
   ]]>
  </style>
 </defs>
 <g id="Capa_x0020_1">
  <metadata id="CorelCorpID_0Corel-Layer"/>
  <g id="_2486076135296">
   <path class="fil0" d="M2720 5881c55,16 9,19 46,14 8,-1 24,-13 68,-17l4041 0c465,0 944,-10 1408,2 3,3 6,13 7,14 23,27 -10,11 14,8l13 -6c1,0 4,-3 6,-2 15,109 15,1122 -7,1198 -458,13 -930,3 -1391,2l-3494 0c-226,0 -496,19 -702,-12 -119,21 -1140,8 -1350,8 -215,0 -1248,-13 -1369,5 -5,154 -21,1118 10,1183 20,22 143,14 169,14 1297,-2 10751,10 10812,-3 29,-5 41,1 44,-77 1,-23 -1,-53 -1,-77 -1,-134 11,-959 -7,-1021 -1,-3 -4,-4 -4,-10 -6,-51 -2427,-12 -2707,-20l5 -1203 2707 -4c19,-106 4,-837 6,-1060 0,-21 2,-56 0,-76l-12 -55c-23,-22 -10988,-24 -11012,0l-5 1195 2705 0z"/>
   <path class="fil0" d="M9375 3759c39,-162 -19,-1621 9,-1993 39,19 46,62 67,121 16,43 32,76 59,118l584 1251c27,45 40,74 64,126 30,64 157,348 181,364 36,24 472,10 550,11 214,0 196,20 194,-91 -14,-796 -1,-1689 -1,-2496 0,-344 22,-768 -3,-1107l-745 7 -11 1979c0,-2 -2,6 -4,9l-179 -381c-18,-38 -49,-71 -64,-109 -111,-265 -216,-496 -349,-755 -23,-44 -37,-83 -59,-131 -16,-36 -41,-79 -57,-121 -60,-154 -193,-384 -236,-498 -145,-1 -628,-18 -737,7 -18,289 -2,629 -2,923l0 2317c0,44 -17,411 16,440 41,28 627,17 723,9z"/>
   <path class="fil1" d="M2729 7082c206,31 476,12 702,12l3494 0c461,1 933,11 1391,-2 22,-76 22,-1089 7,-1198 -2,-1 -5,2 -6,2l-13 6c-24,3 9,19 -14,-8 -1,-1 -4,-11 -7,-14 -464,-12 -943,-2 -1408,-2l-4041 0c-44,4 -60,16 -68,17 -37,5 9,2 -46,-14 26,64 18,1054 9,1201z"/>
   <path class="fil0" d="M5004 993c0,-112 0,-99 111,-99 218,1 431,21 543,252 92,188 117,427 117,683 0,309 16,601 -112,864 -110,226 -291,223 -561,223 -106,0 -98,6 -99,-99l1 -1824zm-777 2761c325,22 720,2 1052,3 351,0 206,9 472,-64 252,-70 325,-155 462,-324 172,-212 168,-313 244,-462 33,-65 34,-156 57,-223 57,-164 8,-146 41,-273 39,-147 14,-851 -14,-1009 -7,-39 -6,-84 -13,-127 -44,-267 -161,-654 -324,-853 -248,-301 -488,-365 -937,-364 -337,0 -704,-14 -1037,1 -32,142 -8,734 -8,921 0,236 -11,2664 5,2774z"/>
   <path class="fil0" d="M1456 1082c0,318 82,556 282,781 43,49 199,161 258,197 333,204 884,222 906,591 6,103 2,196 -44,265 -28,42 -98,129 -148,152 -166,75 -357,2 -441,-114 -242,-334 -61,-492 -239,-470 -33,4 -56,8 -93,9 -71,2 -121,9 -190,12 -117,6 -253,16 -378,25 -11,57 6,218 16,282l146 460c192,411 538,543 1013,542 288,-1 477,-54 688,-196 49,-33 43,-18 83,-69 121,-153 203,-236 276,-460 61,-187 77,-301 77,-526 -1,-353 -74,-686 -350,-913 -103,-86 -321,-212 -438,-256 -106,-41 -543,-181 -604,-233 -130,-110 -130,-475 192,-476 128,0 209,47 277,132l49 103c15,50 19,61 34,106 7,20 8,33 14,58 19,82 18,73 209,63l530 -42c23,-103 -41,-362 -70,-456 -63,-200 -170,-364 -327,-485 -152,-116 -455,-164 -652,-164 -401,0 -708,109 -909,440 -121,199 -168,387 -167,642z"/>
   <path class="fil2" d="M7137 3757c122,17 329,5 460,5 374,0 340,30 340,-110l-5 -3592 -601 -2c-196,0 -200,-29 -198,99 7,483 -14,3480 4,3600z"/>
   <path class="fil0" d="M787 3744l11 -2751c0,-293 17,-637 -2,-924l-785 -6c-24,345 -2,770 -2,1120l0 2229c0,340 -35,346 77,346 46,1 94,-2 141,-1l560 -13z"/>
  </g>
 </g>
</svg>
