<?xml version="1.0" encoding="UTF-8"?>
<!DOCTYPE svg PUBLIC "-//W3C//DTD SVG 1.0//EN" "http://www.w3.org/TR/2001/REC-SVG-20010904/DTD/svg10.dtd">
<!-- Creator: CorelDRAW X8 -->
<svg xmlns="http://www.w3.org/2000/svg" xml:space="preserve" width="1244px" height="400px" version="1.0" style="shape-rendering:geometricPrecision; text-rendering:geometricPrecision; image-rendering:optimizeQuality; fill-rule:evenodd; clip-rule:evenodd" viewBox="0 0 5467 1758" xmlns:xlink="http://www.w3.org/1999/xlink">
 <defs>
  <style type="text/css">
   <![CDATA[
    .fil0 {fill:#005494}
    .fil1 {fill:#010101}
   ]]>
  </style>
 </defs>
 <g id="Capa_x0020_1">
  <metadata id="CorelCorpID_0Corel-Layer"/>
  <g id="_2485965857248">
   <path class="fil0" d="M2514 359c52,-19 73,-36 138,-47 154,-26 307,50 386,166 84,125 94,288 15,428 -20,35 -58,86 -79,104 58,-18 139,-93 170,-135 331,-437 -68,-925 -453,-871 -287,40 -244,300 -177,355zm-10 661c114,69 428,96 484,-117 24,-92 -11,-135 -38,-192 -28,8 -52,23 -82,33 -30,10 -55,15 -88,18 -385,9 -543,-380 -340,-652 12,-16 26,-27 35,-43 -69,23 -162,125 -199,185 -52,83 -84,184 -81,305 7,220 158,400 309,463zm-111 -652c0,152 88,255 180,308 54,31 122,48 197,44 105,-7 143,-51 184,-63 79,71 67,133 87,176 49,-115 19,-251 -40,-334 -58,-82 -154,-149 -292,-149 -95,0 -139,30 -202,65 -90,-90 -66,-131 -88,-165l-7 -9c-7,47 -19,72 -19,127z"/>
   <path class="fil1" d="M94 1334c84,-4 262,-15 312,29 34,30 32,82 -2,109 -52,42 -238,33 -309,30l-1 -33 0 -135zm0 223c93,-7 215,11 301,-8 189,-42 194,-269 -89,-272 -101,-1 -202,0 -306,0l0 472 94 -2 0 -190z"/>
   <path class="fil1" d="M4179 1614c-52,-190 266,-218 303,-70 48,192 -264,213 -303,70zm-1 94c42,23 54,36 116,45 379,55 372,-408 -7,-351 -61,10 -68,22 -110,46l0 -170 -86 0 0 471 86 -2 1 -39z"/>
   <path class="fil1" d="M3854 1576c7,74 -8,99 -70,118 -175,54 -259,-70 -96,-96 57,-9 111,-11 166,-22zm-250 -61c23,-9 8,-3 22,-25 37,-60 206,-49 225,-6 36,81 -130,54 -247,85 -125,33 -118,141 -23,173 93,32 208,11 274,-33 14,15 8,45 73,48 80,3 65,-24 64,-53 -57,1 -53,3 -52,-57 1,-161 19,-215 -90,-239 -111,-25 -313,-12 -317,106l71 1z"/>
   <path class="fil1" d="M1236 1543l-289 1c17,-127 266,-124 289,-1zm-3 97c-19,57 -90,72 -165,63 -68,-7 -118,-39 -123,-108l381 -2c23,-240 -408,-256 -465,-59 -73,251 405,298 457,106l-85 0z"/>
   <path class="fil1" d="M2174 1543c23,-125 272,-125 289,1l-289 -1zm290 98c-37,55 -79,72 -167,63 -71,-8 -118,-38 -124,-109l382 -2c23,-237 -414,-258 -467,-55 -66,252 412,290 458,101l-82 2z"/>
   <path class="fil1" d="M5088 1544c21,-127 267,-125 289,0l-289 0zm146 -145c-215,0 -305,178 -184,299 94,93 373,82 409,-59l-75 0c-24,14 -19,37 -65,55 -61,23 -227,25 -232,-99l378 0c12,-67 -30,-118 -61,-145 -42,-37 -101,-51 -170,-51z"/>
   <path class="fil1" d="M3063 1333l370 -2 -4 -54 -462 1 2 470c114,9 93,15 93,-106 0,-36 0,-72 0,-109l323 -1 0 -52 -323 -3 1 -144z"/>
   <path class="fil1" d="M1514 1748c1,-186 -27,-284 185,-288l0 -61c-45,0 -85,5 -119,21 -36,17 -48,42 -71,53l-1 -66 -79 1 0 341 85 -1z"/>
   <path class="fil1" d="M1859 1749c19,-59 -14,-158 18,-221 29,-56 92,-61 169,-70l0 -57c-106,-11 -142,36 -188,72l-2 -66 -79 3 2 339 80 0z"/>
   <path class="fil1" d="M4775 1748c0,-62 -9,-175 16,-221 36,-64 92,-53 169,-70l-2 -57c-89,-9 -144,30 -186,74l-2 -66 -79 1 -1 339 85 0z"/>
   <polygon class="fil1" points="649,1749 734,1749 735,1731 733,1407 650,1407 649,1430 649,1725 "/>
   <polygon class="fil1" points="650,1347 734,1347 734,1277 649,1277 "/>
  </g>
 </g>
</svg>
