<?xml version="1.0" encoding="UTF-8"?>
<!DOCTYPE svg PUBLIC "-//W3C//DTD SVG 1.0//EN" "http://www.w3.org/TR/2001/REC-SVG-20010904/DTD/svg10.dtd">
<!-- Creator: CorelDRAW X8 -->
<svg xmlns="http://www.w3.org/2000/svg" xml:space="preserve" width="771px" height="400px" version="1.0" style="shape-rendering:geometricPrecision; text-rendering:geometricPrecision; image-rendering:optimizeQuality; fill-rule:evenodd; clip-rule:evenodd" viewBox="0 0 259 134" xmlns:xlink="http://www.w3.org/1999/xlink">
 <defs>
  <style type="text/css">
   <![CDATA[
    .fil0 {fill:#0075BB;fill-rule:nonzero}
   ]]>
  </style>
 </defs>
 <g id="Capa_x0020_1">
  <metadata id="CorelCorpID_0Corel-Layer"/>
  <g id="_2486076138016">
   <path class="fil0" d="M175 52c-2,-2 -4,-2 -7,-2 -2,0 -5,1 -7,2l0 -17 -8 0 0 55 8 0 0 -29c0,-2 2,-4 5,-4 1,0 3,1 4,2 1,2 1,4 1,6l0 25 9 0 0 -25c0,-8 -1,-11 -5,-13z"/>
   <path class="fil0" d="M115 64c-1,-12 -8,-14 -14,-14 -7,0 -12,5 -13,14 0,1 0,2 0,6 0,4 0,6 0,7 1,9 6,14 13,14 8,0 13,-5 14,-14 0,-1 0,-3 0,-7 0,-1 0,-5 0,-6zm-8 6c0,6 0,7 0,8 -1,3 -2,6 -6,6 -3,0 -4,-3 -5,-6 0,0 0,-2 0,-8 0,-5 0,-7 0,-7 0,-3 2,-6 5,-6 4,0 5,3 6,6 0,0 0,2 0,7z"/>
   <path class="fil0" d="M204 77c0,0 0,0 0,1 0,2 -1,6 -5,6 -4,0 -5,-3 -5,-6 0,-1 0,-2 0,-6l18 0c0,0 0,-2 0,-4 0,-1 0,-2 0,-4 0,-4 -1,-7 -3,-10 -3,-3 -6,-4 -10,-4 -8,0 -12,5 -13,14 0,1 -1,2 -1,6 0,4 1,6 1,7 0,9 5,14 13,14 8,0 13,-5 13,-14l-8 0zm-10 -11c0,-2 0,-3 0,-3 0,-4 2,-6 5,-6 4,0 5,4 5,6 0,1 0,2 0,3l-10 0z"/>
   <path class="fil0" d="M201 0l-143 0 -58 67 58 67 143 0 58 -66 -58 -68zm-140 7l137 0 52 61 -52 60 -137 0 -52 -60 52 -61z"/>
   <path class="fil0" d="M83 87c0,0 -1,-14 -1,-14 0,-6 -2,-9 -5,-11 2,-2 5,-5 5,-12 0,-11 -7,-14 -15,-15l-12 0 0 55 8 0 0 -25 5 0c2,0 5,3 6,9l1 13c0,2 0,3 0,3l8 0c0,0 0,-1 0,-3zm-20 -45l4 0c4,0 7,3 7,7 0,0 0,1 0,1 0,1 0,1 0,1 -1,3 -2,7 -7,7l-4 0 0 -16z"/>
   <path class="fil0" d="M139 76c0,1 0,1 0,2 0,3 -1,6 -5,6 -3,0 -5,-3 -5,-6 0,-2 0,-3 0,-8 0,-5 0,-6 0,-7 0,-4 2,-6 5,-6 4,0 5,3 5,6 0,0 0,1 0,2l9 0c0,0 0,-1 0,-1 -1,-12 -8,-14 -14,-14 -8,0 -12,5 -13,14 0,1 0,2 0,6 -1,4 0,6 0,7 0,9 5,14 13,14 8,0 13,-5 14,-14 0,0 0,-1 0,-1l-9 0z"/>
  </g>
 </g>
</svg>
