<?xml version="1.0" encoding="UTF-8"?>
<!DOCTYPE svg PUBLIC "-//W3C//DTD SVG 1.0//EN" "http://www.w3.org/TR/2001/REC-SVG-20010904/DTD/svg10.dtd">
<!-- Creator: CorelDRAW X8 -->
<svg xmlns="http://www.w3.org/2000/svg" xml:space="preserve" width="401px" height="400px" version="1.0" style="shape-rendering:geometricPrecision; text-rendering:geometricPrecision; image-rendering:optimizeQuality; fill-rule:evenodd; clip-rule:evenodd" viewBox="0 0 177 176" xmlns:xlink="http://www.w3.org/1999/xlink">
 <defs>
  <style type="text/css">
   <![CDATA[
    .fil0 {fill:#008752}
   ]]>
  </style>
 </defs>
 <g id="Capa_x0020_1">
  <metadata id="CorelCorpID_0Corel-Layer"/>
  <g id="_2486081789072">
   <path class="fil0" d="M86 4l4 -1 0 67 3 -1 0 -5 4 0 0 5 2 0 0 -5 3 0 0 5 3 1 0 -6 4 0 0 6 2 0 0 -6 4 0 0 6 2 0 0 -6 4 0 0 6 3 -1 0 -5 3 0 0 5 2 0 0 -5 4 0c-3,-4 -4,-4 -4,-10l0 -40 4 2 0 54 3 -1 0 -51c1,1 2,2 4,3l0 49 2 0 0 -47c1,0 3,2 3,3 1,1 1,41 1,44l2 0 0 -41c3,1 4,4 4,7l0 34 2 -1 0 -33c2,1 4,3 4,6 1,5 0,22 0,27l3 0 0 -24 1 2c1,1 1,2 2,3 1,2 1,2 1,5 0,5 0,10 0,15l2 0 0 -13c8,16 8,46 0,62 0,-2 0,-5 0,-7 0,-4 1,-6 -2,-6 -1,2 0,12 0,14 0,4 -1,6 -3,9 0,0 0,1 0,1 -1,1 0,0 -1,1 0,-6 0,-11 0,-17 0,-2 0,-7 -1,-8 -2,-1 -2,4 -2,6 0,3 1,22 0,24 -1,1 -3,4 -4,4l0 -34c-3,0 -2,1 -2,5l0 28c0,4 0,7 -4,8l0 -33c0,-6 2,-8 -2,-8l0 44c-2,1 -2,2 -4,3 -1,-9 1,-41 0,-47l-2 0 0 49 -4 3 0 -52c-3,0 -2,0 -2,2l0 52c-2,0 -3,1 -5,2l0 -56c-2,0 -2,2 -1,5l-1 52 -3 2 0 -59 -3 0 0 60 -4 1 0 -48c0,-10 2,-13 -2,-13l0 62 -4 1c0,-8 1,-59 0,-63l-2 0 0 64 -4 1 0 -65 -2 0c-1,4 -1,57 -1,65l-3 1 -1 -66c-1,0 -1,0 -1,2 -1,21 1,44 0,64l-4 0 0 -66 -3 0 0 67 -3 -1 0 -66c-3,0 -3,0 -3,3l0 63 -4 0c0,-8 1,-62 0,-66l-2 0c-1,4 0,57 0,66l-4 -1c0,-8 1,-61 0,-65l-2 0c-1,5 0,55 0,65l-4 -1 0 -64c-3,0 -2,3 -2,6l0 57 -4 -1 0 -56c0,-5 1,-6 -2,-6l0 61 -3 0 0 -57c0,-5 0,-4 -4,-4l0 59c-2,-1 -3,-1 -4,-2 0,-2 0,-38 0,-45 0,-10 2,-12 -2,-12l0 56c-1,-1 -3,-2 -4,-3 0,-7 1,-49 0,-53l-2 0c-1,4 0,45 0,52l-4 -3c-1,-10 2,-42 0,-49 -3,0 -2,1 -2,4 0,11 0,35 0,43 -2,0 -4,-2 -4,-4l0 -38c0,-4 0,-4 -2,-5 -1,1 0,0 0,2 -1,6 0,33 0,40 -3,-2 -4,-4 -4,-8l0 -34c-4,0 -3,1 -3,8l0 27c0,-1 0,-1 0,-1 -2,-2 -3,-3 -3,-6 -1,-9 0,-17 0,-26 0,-2 0,-2 -3,-2l0 26c-1,-1 -2,-3 -3,-5 -1,-2 -1,-3 -1,-6 0,-4 1,-12 0,-15l-2 0c-1,3 0,10 0,13 -4,-5 -6,-22 -6,-31 0,-9 1,-18 4,-27 1,-1 1,-2 2,-3l0 11 2 1c0,-5 0,-10 0,-15 0,-6 1,-7 4,-10l0 25 2 0c0,-7 0,-13 0,-19 0,-7 -1,-11 4,-16l0 35 3 0 0 -34c0,-4 1,-6 4,-7l0 40 2 0 0 -38c0,-4 0,-6 4,-8l0 46 2 1 0 -49c1,-1 2,-2 4,-2l0 50 2 1 0 -53 4 -2 0 55 2 0 0 -57 4 -2 0 58 4 0 0 -47c0,-11 -1,-12 3,-13l0 60 2 0 0 -61 4 -1 0 62 2 0 0 -63 4 -1 0 64 2 1 0 -65 4 -1 0 66 2 0 0 -66 4 0 0 66 2 0 0 -66zm7 0l3 0c1,11 1,37 1,49 0,2 -3,5 -4,6l0 1 0 -56zm34 51c-2,-2 -3,-5 -3,-8 0,-9 -1,-29 0,-36l3 2 0 42zm-22 -29c0,0 0,0 0,2 1,1 0,2 0,2 0,3 1,10 0,12l0 -16zm-11 36c0,-1 9,-15 11,-17 1,-3 2,-3 2,-6 0,-2 0,-5 0,-7 0,-10 -2,-6 -3,-12l12 0c1,4 0,10 0,14 0,8 0,6 3,12 2,2 10,15 11,16l-36 0zm27 -16c-4,-5 -3,-10 -3,-18 0,-7 -1,-12 -1,-19l4 1 0 36zm-10 -39l4 1 0 11 -4 0 0 -12zm-6 -2l4 1 0 13 -4 0 0 -14zm-6 -1l3 1 0 14c0,0 0,0 0,1 1,3 0,20 0,24 0,2 -2,6 -3,7l0 -47zm78 86l0 -4c-1,-2 -1,-8 -1,-10 -1,-3 -1,-6 -2,-9 -4,-15 -12,-30 -22,-40 -6,-6 -15,-14 -24,-18 -20,-10 -40,-11 -61,-7 -8,2 -19,6 -32,16 -27,21 -42,57 -32,93 3,12 9,23 17,32 3,4 8,10 12,13 1,1 2,2 4,3 26,19 59,22 89,9 8,-3 14,-8 20,-12 5,-4 12,-12 15,-17 18,-27 15,-43 17,-49z"/>
   <path class="fil0" d="M57 79c0,-1 0,-1 0,-3l-4 0 0 25 4 0c1,-8 -3,-21 5,-22 8,-1 5,11 6,22l4 0c1,-7 -3,-21 5,-22 8,-1 4,11 5,22l5 0c0,-4 0,-19 -1,-22 -1,-2 -3,-4 -7,-4 -4,0 -6,2 -8,4 -2,-2 -2,-4 -6,-4 -4,0 -6,1 -8,4z"/>
   <path class="fil0" d="M159 88c0,4 0,7 -3,8 -2,2 -6,3 -8,0 -6,-6 8,-7 11,-8zm-16 -5l4 0c2,-7 11,-5 12,-2 2,7 -7,3 -13,6 -4,3 -5,10 -1,13 2,1 5,2 8,1 3,0 4,-2 7,-3 1,3 -1,3 5,3 -1,-8 -1,-3 -1,-13 0,-5 0,-9 -3,-11 -3,-3 -16,-5 -18,6z"/>
   <path class="fil0" d="M29 86c1,-10 14,-10 14,0l-14 0zm18 7l-4 0c-1,2 -1,2 -3,3 -1,2 -3,2 -5,2 -4,-1 -5,-5 -6,-9l19 0c0,-7 -3,-13 -9,-14 -8,-1 -13,4 -14,10 -4,22 23,19 22,8z"/>
   <path class="fil0" d="M96 86c0,-9 14,-10 14,0l-14 0zm18 7l-4 0c-2,2 -2,6 -8,5 -4,-1 -6,-4 -6,-9l18 0c0,-7 -2,-13 -9,-14 -16,-2 -18,22 -6,26 7,2 15,-2 15,-8z"/>
   <path class="fil0" d="M126 88c-1,2 -7,9 -9,13 6,0 4,0 8,-5 1,-2 2,-3 3,-5 2,2 5,7 7,10l5 0c-1,-3 -3,-5 -4,-7 -2,-2 -3,-4 -5,-6 1,-3 6,-9 8,-12l-4 0c-2,1 -5,6 -7,8 -2,-2 -4,-8 -6,-8l-5 0c1,1 3,4 4,6 2,1 3,4 5,6z"/>
   <path class="fil0" d="M14 79l0 -3 -4 0 0 25 4 0c1,-8 -3,-25 8,-21 1,-1 1,-2 2,-4 -2,0 -4,-1 -6,-1 -3,1 -2,2 -4,4z"/>
  </g>
 </g>
</svg>
