<?xml version="1.0" encoding="UTF-8"?>
<!DOCTYPE svg PUBLIC "-//W3C//DTD SVG 1.0//EN" "http://www.w3.org/TR/2001/REC-SVG-20010904/DTD/svg10.dtd">
<!-- Creator: CorelDRAW X8 -->
<svg xmlns="http://www.w3.org/2000/svg" xml:space="preserve" width="1379px" height="400px" version="1.0" style="shape-rendering:geometricPrecision; text-rendering:geometricPrecision; image-rendering:optimizeQuality; fill-rule:evenodd; clip-rule:evenodd" viewBox="0 0 2186 634" xmlns:xlink="http://www.w3.org/1999/xlink">
 <defs>
  <style type="text/css">
   <![CDATA[
    .fil0 {fill:black}
   ]]>
  </style>
 </defs>
 <g id="Capa_x0020_1">
  <metadata id="CorelCorpID_0Corel-Layer"/>
  <g id="_2486076140704">
   <path class="fil0" d="M1222 467l73 0c4,0 5,-1 5,-6l0 -202 264 0 0 208 76 0 0 -467 -76 0 0 199 -264 0 0 -199 -78 0 0 467z"/>
   <path class="fil0" d="M729 232c0,41 10,70 24,99 15,33 58,78 90,95 48,26 84,41 148,41 46,0 83,-10 122,-28 5,-2 3,-1 8,-3l0 -74c-6,1 -8,4 -13,7 -10,7 -32,18 -43,22 -48,17 -101,16 -149,0 -20,-7 -41,-18 -56,-30 -20,-17 -27,-26 -40,-47 -7,-12 -8,-17 -13,-30 -11,-33 -11,-66 0,-99 14,-46 37,-71 78,-95 42,-25 93,-29 142,-23 18,2 50,13 66,21 11,7 20,15 28,15l0 -72c-57,-30 -130,-38 -193,-24 -20,4 -30,9 -46,14 -54,19 -101,65 -129,114 -12,22 -24,63 -24,97z"/>
   <path class="fil0" d="M226 465c7,-2 6,-5 10,-12l221 -453 -79 0 -61 128c-2,3 -3,6 -5,10l-81 171c-1,3 0,2 -3,4l-46 -97c-2,-4 -3,-6 -5,-10l-97 -206 -80 0c2,10 62,125 70,145l71 144c5,11 10,20 14,30l65 131c2,5 5,9 6,15z"/>
   <path class="fil0" d="M1911 272l0 195 71 0 0 -197c0,-4 8,-15 11,-18l77 -99c5,-7 9,-11 14,-18 5,-5 8,-10 13,-16l12 -16c14,-16 49,-65 65,-84 6,-8 11,-10 12,-19l-81 0c-2,5 -34,46 -39,52 -5,6 -5,6 -10,12l-109 143 -40 -51c-4,-4 -5,-8 -9,-12l-70 -91c-7,-8 -13,-17 -20,-26 -3,-4 -6,-8 -10,-13 -4,-4 -8,-8 -10,-14l-83 0 201 260c3,4 5,5 5,12z"/>
   <path class="fil0" d="M560 461c0,5 2,6 6,6l72 0 0 -467 -78 0 0 461z"/>
   <path class="fil0" d="M1367 550c13,0 22,0 32,11 13,15 12,38 -1,51 -23,24 -54,7 -61,-9 -13,-30 11,-53 30,-53zm-45 33c0,19 7,36 23,45 42,24 103,-24 63,-72 -27,-34 -86,-13 -86,27z"/>
   <path class="fil0" d="M747 624c-19,0 -36,-18 -36,-27 0,-20 -4,-25 11,-39 19,-16 63,-10 63,32 0,8 -8,20 -12,24 -5,4 -18,10 -26,10zm-49 -40c0,30 21,49 41,49 17,0 28,1 43,-12 19,-18 18,-50 0,-68 -31,-30 -84,-8 -84,31z"/>
   <path class="fil0" d="M570 624l-15 0 0 -34c9,0 17,-1 24,3 2,1 6,1 8,12 1,11 -6,19 -17,19zm-15 -43l0 -29c12,0 28,1 25,17 -1,6 -5,8 -9,10 -4,1 -11,2 -16,2zm-11 52c21,0 54,6 54,-25 0,-14 -5,-19 -14,-24 19,-28 -3,-43 -22,-43l-18 0 0 92z"/>
   <path class="fil0" d="M400 563c5,7 10,26 14,34l-29 0c4,-6 13,-27 15,-34zm-42 70l14 0c3,-9 7,-16 9,-25l38 0c2,6 7,20 9,25l13 0c0,-7 -7,-17 -10,-24 -2,-5 -3,-8 -4,-12l-26 -61c-5,3 -3,3 -6,11l-37 86z"/>
   <path class="fil0" d="M902 584l-5 0 0 -32c40,0 31,32 5,32zm-16 49l11 0 0 -40c4,2 1,1 4,3l11 17c5,8 9,12 14,20l14 0 -13 -19c-3,-4 -4,-6 -7,-10 -3,-5 -5,-4 -7,-11 32,-7 31,-52 -13,-52l-14 0 0 92z"/>
   <path class="fil0" d="M1067 563c6,5 12,26 14,34l-27 0c3,-6 12,-27 13,-34zm-40 70l13 0c2,-6 8,-18 9,-25l38 0c2,4 8,20 9,25l14 0c-7,-15 -13,-32 -20,-47l-20 -49c-7,2 -3,2 -12,22l-31 74z"/>
   <path class="fil0" d="M1662 584l-6 0 0 -32c34,0 26,23 20,28 -4,3 -9,4 -14,4zm-17 49l11 0 0 -40c5,4 10,13 14,19 4,7 11,14 13,21l15 0c-2,-6 -3,-4 -7,-10l-20 -30c26,-2 37,-52 -15,-52l-11 0 0 92z"/>
   <polygon class="fil0" points="1799,633 1850,633 1850,624 1810,624 1810,590 1846,590 1846,579 1810,579 1810,552 1850,552 1850,541 1799,541 "/>
   <path class="fil0" d="M1942 561c0,13 6,20 18,25 19,8 23,9 23,22 0,15 -22,22 -31,8 -7,-10 -1,-9 -14,-6 0,12 11,23 22,23l13 0c17,0 28,-25 19,-41 -10,-16 -51,-16 -36,-37 6,-9 23,-7 26,4 5,-1 7,-3 10,-5 -10,-15 -11,-15 -28,-15 -11,0 -22,11 -22,22z"/>
   <path class="fil0" d="M1521 633l18 0 0 -87c0,-4 -2,-5 -6,-5l-12 0 0 92z"/>
   <polygon class="fil0" points="1186,552 1210,552 1210,633 1220,633 1220,552 1242,552 1242,541 1186,541 "/>
   <polygon class="fil0" points="228,633 266,633 266,624 240,624 240,541 228,541 "/>
  </g>
 </g>
</svg>
