<?xml version="1.0" encoding="UTF-8"?>
<!DOCTYPE svg PUBLIC "-//W3C//DTD SVG 1.0//EN" "http://www.w3.org/TR/2001/REC-SVG-20010904/DTD/svg10.dtd">
<!-- Creator: CorelDRAW X8 -->
<svg xmlns="http://www.w3.org/2000/svg" xml:space="preserve" width="5065px" height="400px" version="1.0" style="shape-rendering:geometricPrecision; text-rendering:geometricPrecision; image-rendering:optimizeQuality; fill-rule:evenodd; clip-rule:evenodd"
viewBox="0 0 7251 573"
 xmlns:xlink="http://www.w3.org/1999/xlink">
 <defs>
  <style type="text/css">
   <![CDATA[
    .fil0 {fill:#265499}
   ]]>
  </style>
 </defs>
 <g id="Capa_x0020_1">
  <metadata id="CorelCorpID_0Corel-Layer"/>
  <path class="fil0" d="M888 522l659 2 -2 -91 -477 -2 2 -129 429 -1 0 -92 -426 -2 -6 -103 464 -1 1 -90 -642 -4 -2 513zm6052 -439l105 252 -207 -2 102 -250zm-292 486l89 0c89,-214 26,-171 345,-171l71 170 98 0c-33,-98 -172,-366 -232,-502 -1,-2 -14,-30 -16,-32 -23,-33 -64,-37 -94,-29 -41,11 -258,545 -261,564zm-1817 -486l105 251 -206 -4 101 -247zm-293 486l90 0c22,-48 45,-138 86,-171l240 0c40,30 48,75 66,120 28,71 34,53 122,51l-261 -562 -83 -2c-36,26 -242,496 -260,564zm-1101 -494l173 0c84,0 153,21 143,111 -9,76 -84,86 -166,86l-150 0 0 -197zm-91 449l3 45 83 0 5 -220c131,-37 313,38 386,-92 88,-160 -46,-252 -201,-252l-275 0 -1 519zm609 0l3 45 81 0 3 -264 336 0 2 264 82 0 3 -564 -87 0 0 231 -336 0 0 -231 -87 0 0 519zm-1532 -48l0 48 604 0 -3 -93 -424 0 0 -411 -177 -5 0 461zm-732 0l1 48 607 -1c5,-127 56,-92 -431,-92l3 -414 -180 -2 0 461zm3614 -404c66,0 135,-2 201,-1 184,5 170,165 24,179 -67,6 -159,1 -229,1l4 -179zm-93 493l87 5 3 -250c216,0 190,5 318,174 22,30 39,47 56,75l105 0c-31,-79 -144,-211 -215,-251 64,-34 118,-27 153,-96 36,-72 0,-147 -44,-179 -61,-46 -379,-53 -463,-30l0 552zm-5212 -293c0,333 667,333 744,96 -41,-23 -117,-31 -171,-36 -77,166 -374,144 -391,-50 -9,-110 55,-166 151,-181 116,-19 180,5 243,78l158 -20c1,-6 2,-18 1,-25 -39,-170 -735,-229 -735,138zm5862 252l3 45 94 0 3 -461c48,76 186,438 239,461 105,22 101,-67 178,-215 41,-80 74,-167 118,-237l2 452 95 0 3 -564 -143 3c-32,82 -66,150 -106,230 -40,78 -72,163 -113,234 -67,-95 -183,-455 -238,-467l-135 0 0 519z"/>
 </g>
</svg>
