<?xml version="1.0" encoding="UTF-8"?>
<!DOCTYPE svg PUBLIC "-//W3C//DTD SVG 1.0//EN" "http://www.w3.org/TR/2001/REC-SVG-20010904/DTD/svg10.dtd">
<!-- Creator: CorelDRAW X8 -->
<svg xmlns="http://www.w3.org/2000/svg" xml:space="preserve" width="2000px" height="400px" version="1.0" style="shape-rendering:geometricPrecision; text-rendering:geometricPrecision; image-rendering:optimizeQuality; fill-rule:evenodd; clip-rule:evenodd" viewBox="0 0 1134 227" xmlns:xlink="http://www.w3.org/1999/xlink">
 <defs>
  <style type="text/css">
   <![CDATA[
    .fil0 {fill:#0077BD;fill-rule:nonzero}
   ]]>
  </style>
 </defs>
 <g id="Capa_x0020_1">
  <metadata id="CorelCorpID_0Corel-Layer"/>
  <g id="_2486058560112">
   <path class="fil0" d="M968 2l-7 0 -54 105 -54 -105 -8 0 -15 115c-2,11 -4,16 -6,21l15 0c-1,-4 -1,-12 0,-22l10 -71 48 93 6 0 48 -93 9 69c1,8 1,18 -1,24l31 0c-4,-7 -5,-10 -6,-21l-16 -115z"/>
   <path class="fil0" d="M284 0c-44,0 -79,31 -79,71 0,39 35,70 79,70 43,0 78,-31 78,-70 0,-40 -35,-71 -78,-71zm2 131c-31,0 -55,-26 -56,-60 -1,-35 19,-60 51,-60 31,0 55,25 56,60 1,34 -21,60 -51,60z"/>
   <path class="fil0" d="M1104 138l30 0 0 0c-5,-6 -10,-13 -14,-22l-49 -114 -6 0 -49 117c-4,9 -7,14 -12,19l14 0 19 -45 48 0 19 45zm-63 -55l20 -48 20 48 -40 0z"/>
   <path class="fil0" d="M72 59c10,-5 19,-13 19,-25 0,-14 -6,-22 -18,-27 -8,-3 -20,-5 -32,-5 -23,0 -41,0 -41,0 3,4 4,10 4,18 0,15 0,85 0,100 0,10 -2,14 -4,18 0,0 8,0 44,0 13,0 29,-2 37,-6 13,-6 20,-18 20,-34 0,-23 -17,-34 -29,-39zm-45 -48c2,0 5,0 9,0 4,0 10,1 14,1 10,3 18,10 18,22 0,11 -8,18 -17,19 -2,1 -8,1 -10,1 -6,0 -10,0 -14,0l0 -43zm27 117c-3,1 -9,1 -11,1 -2,0 -14,0 -16,0l0 -66c2,0 10,0 12,0 3,0 9,1 13,1 16,4 25,15 25,34 0,15 -8,27 -23,30z"/>
   <path class="fil0" d="M592 129l0 -65 49 0 3 -10 -52 0 0 -42c0,0 35,0 38,0 8,0 15,0 23,5l-6 -15 -81 0c2,4 3,10 3,18 0,15 0,85 0,100 0,10 -1,14 -3,18l88 0 7 -15c-8,5 -16,6 -26,6 -4,0 -43,0 -43,0z"/>
   <path class="fil0" d="M477 5c-7,-2 -21,-3 -25,-3 -3,0 -55,0 -55,0 2,4 3,10 3,18 0,15 0,85 0,100 0,10 -1,14 -3,18 0,0 46,0 51,0 6,0 17,0 23,-1 39,-6 62,-31 62,-66 0,-33 -23,-58 -56,-66zm-15 123c-3,1 -12,1 -16,1 -11,0 -18,0 -23,0l0 -117c5,0 14,0 19,0 7,0 20,1 28,4 22,8 37,27 37,55 0,31 -13,53 -45,57z"/>
   <path class="fil0" d="M171 2l-30 0c2,4 3,10 3,18 0,15 0,85 0,100 0,10 -1,14 -4,18l30 0c-2,-4 -3,-9 -3,-17 0,-16 0,-86 0,-100 0,-10 1,-15 4,-19z"/>
   <path class="fil0" d="M746 75c18,-2 40,-12 40,-35 0,-22 -14,-31 -31,-35 -12,-3 -27,-3 -36,-3 -2,0 -28,0 -28,0 2,4 4,10 4,18 0,15 0,85 0,100 0,10 -2,14 -4,18l31 0c-3,-5 -4,-11 -4,-18l0 -109c4,0 14,0 22,2 18,4 23,15 23,27 0,16 -10,34 -37,27l-4 3c24,35 44,57 59,68l35 0c-24,-16 -50,-39 -70,-63z"/>
   <polygon class="fil0" points="7,214 22,214 22,218 0,218 0,182 7,182 "/>
   <path class="fil0" d="M39 218l-6 0 16 -36 5 0 15 36 -8 0 -3 -9 -15 0 -4 9zm12 -26l-6 13 11 0 -5 -13z"/>
   <path class="fil0" d="M83 182l12 0c9,0 14,3 14,8 0,5 -4,8 -7,9 6,0 10,4 10,9 0,6 -7,10 -15,10l-14 0 0 -36zm22 26c0,-4 -3,-6 -9,-6l-6 0 0 12 6 0c5,0 9,-2 9,-6zm-11 -10c5,0 8,-3 8,-7 0,-3 -3,-5 -8,-5l-4 0 0 12 4 0z"/>
   <path class="fil0" d="M168 200c0,12 -9,19 -21,19 -12,0 -20,-7 -20,-19 0,-11 8,-19 20,-19 13,0 21,8 21,19zm-34 0c0,8 5,15 13,15 8,0 13,-7 13,-15 0,-8 -5,-14 -13,-14 -8,0 -13,6 -13,14z"/>
   <path class="fil0" d="M207 219l-11 -17 -4 0 0 16 -7 0 0 -36 11 0c10,0 15,5 15,9 0,5 -5,9 -8,10l12 17 -8 1zm-12 -21c6,0 9,-3 9,-6 0,-3 -3,-6 -8,-6l-4 0 0 12 3 0z"/>
   <path class="fil0" d="M231 219l-6 0 16 -37 5 0 14 37 -7 0 -4 -10 -14 0 -4 10zm11 -27l-5 13 11 0 -6 -13z"/>
   <polygon class="fil0" points="266,182 299,182 299,187 286,187 286,219 279,219 279,187 266,187 "/>
   <path class="fil0" d="M350 200c0,12 -10,19 -21,19 -12,0 -21,-7 -21,-19 0,-11 9,-19 21,-19 13,0 21,8 21,19zm-34 0c0,9 5,15 13,15 8,0 13,-6 13,-15 0,-8 -5,-14 -13,-14 -8,0 -13,6 -13,14z"/>
   <polygon class="fil0" points="366,219 367,182 373,182 373,219 "/>
   <path class="fil0" d="M415 219l-12 -17 -4 0 0 17 -7 0 0 -37 11 0c10,0 15,5 15,9 0,6 -5,9 -8,10l13 18 -8 0zm-12 -21c5,0 8,-3 8,-6 0,-3 -2,-6 -8,-6l-4 0 0 12 4 0z"/>
   <polygon class="fil0" points="462,219 437,219 437,182 461,182 461,187 444,187 444,197 457,197 457,202 444,202 444,214 462,214 "/>
   <path class="fil0" d="M503 182l12 0c13,0 22,7 22,18 0,11 -10,19 -22,19l-12 0 0 -37zm13 32c7,0 14,-5 14,-14 0,-9 -7,-13 -15,-13l-5 0 0 27 6 0z"/>
   <polygon class="fil0" points="579,219 554,219 554,182 578,182 578,187 561,187 561,198 574,198 574,202 561,202 561,214 579,214 "/>
   <path class="fil0" d="M617 219l-11 -17 -4 0 0 17 -7 0 0 -37 11 0c10,0 15,5 15,10 0,5 -5,8 -8,9l12 18 -8 0zm-12 -21c6,0 9,-3 9,-6 0,-3 -3,-6 -8,-6l-4 0 0 12 3 0z"/>
   <polygon class="fil0" points="680,219 674,219 673,194 661,219 657,219 646,195 645,219 639,219 641,182 647,182 660,211 673,182 680,182 "/>
   <path class="fil0" d="M701 219l-7 0 17 -37 4 0 15 37 -7 0 -4 -9 -14 0 -4 9zm11 -27l-6 14 11 0 -5 -14z"/>
   <polygon class="fil0" points="736,182 769,182 769,187 756,187 756,219 749,219 749,187 736,187 "/>
   <path class="fil0" d="M819 201c0,11 -9,19 -20,19 -12,0 -21,-8 -21,-19 0,-11 9,-19 21,-19 12,0 20,8 20,19zm-33 0c0,8 5,14 13,14 8,0 13,-6 13,-14 0,-9 -5,-15 -13,-15 -8,0 -13,6 -13,15z"/>
   <polygon class="fil0" points="843,214 858,214 858,219 836,219 836,182 843,182 "/>
   <path class="fil0" d="M910 201c0,11 -9,19 -20,19 -12,0 -21,-8 -21,-19 0,-11 9,-19 21,-19 12,0 20,8 20,19zm-34 0c0,8 6,14 14,14 8,0 13,-6 13,-14 0,-8 -5,-15 -13,-15 -8,0 -14,6 -14,15z"/>
   <path class="fil0" d="M947 220c-13,0 -22,-9 -22,-19 0,-11 9,-19 22,-19 8,0 12,1 13,2l-2 5c-1,-1 -5,-2 -11,-2 -8,0 -14,6 -14,14 0,8 7,14 15,14 4,0 5,-1 7,-1l0 -11 7 0 0 14c-2,1 -7,3 -15,3z"/>
   <polygon class="fil0" points="978,219 978,182 985,182 985,219 "/>
   <path class="fil0" d="M1043 222l-2 5 -24 -8c-10,-3 -15,-9 -15,-18 0,-11 9,-19 21,-19 13,0 20,8 20,19 0,9 -6,16 -13,17l13 4zm-33 -21c0,8 5,14 13,14 8,0 13,-6 13,-14 0,-8 -5,-15 -13,-15 -8,0 -13,7 -13,15z"/>
   <path class="fil0" d="M1092 207c0,6 -5,13 -16,13 -11,0 -17,-5 -17,-13l0 -25 7 1 0 24c0,5 3,8 10,8 7,0 10,-4 10,-8l0 -24 6 0 0 24z"/>
   <polygon class="fil0" points="1134,219 1110,219 1110,183 1134,183 1134,187 1117,187 1117,198 1130,198 1130,203 1117,203 1117,215 1134,215 "/>
  </g>
 </g>
</svg>
