<?xml version="1.0" encoding="UTF-8"?>
<!DOCTYPE svg PUBLIC "-//W3C//DTD SVG 1.0//EN" "http://www.w3.org/TR/2001/REC-SVG-20010904/DTD/svg10.dtd">
<!-- Creator: CorelDRAW X8 -->
<svg xmlns="http://www.w3.org/2000/svg" xml:space="preserve" width="2040px" height="1370px" version="1.0" style="shape-rendering:geometricPrecision; text-rendering:geometricPrecision; image-rendering:optimizeQuality; fill-rule:evenodd; clip-rule:evenodd"
viewBox="0 0 2040 1370"
 xmlns:xlink="http://www.w3.org/1999/xlink">
 <defs>
  <style type="text/css">
   <![CDATA[
    .str0 {stroke:#E6E6E6;stroke-width:3.5441}
    .fil33 {fill:none}
    .fil3 {fill:black}
    .fil19 {fill:#002E61}
    .fil21 {fill:#002E62}
    .fil20 {fill:#002F61}
    .fil22 {fill:#002F62}
    .fil2 {fill:#00478F}
    .fil1 {fill:#004992}
    .fil42 {fill:#004B8D}
    .fil0 {fill:#004B97}
    .fil23 {fill:#006FAB}
    .fil11 {fill:#0078C2}
    .fil17 {fill:#00BBFF}
    .fil14 {fill:#040707}
    .fil26 {fill:#0A519E}
    .fil30 {fill:#0D51A1}
    .fil25 {fill:#0E51A0}
    .fil18 {fill:#10374E}
    .fil29 {fill:#19150B}
    .fil27 {fill:#1C1A03}
    .fil28 {fill:#1C1B0B}
    .fil9 {fill:#1D1C1D}
    .fil31 {fill:#211C04}
    .fil10 {fill:#21374C}
    .fil7 {fill:#222021}
    .fil8 {fill:#222121}
    .fil6 {fill:#232122}
    .fil5 {fill:#242223}
    .fil15 {fill:#417BBA}
    .fil4 {fill:#528ABE}
    .fil12 {fill:#77787B}
    .fil16 {fill:#89D329}
    .fil24 {fill:#CAD401}
    .fil13 {fill:#EC232A}
    .fil39 {fill:black;fill-rule:nonzero}
    .fil40 {fill:#004B8D;fill-rule:nonzero}
    .fil38 {fill:#0E99D6;fill-rule:nonzero}
    .fil32 {fill:#147C36;fill-rule:nonzero}
    .fil37 {fill:#221E1F;fill-rule:nonzero}
    .fil35 {fill:#E31837;fill-rule:nonzero}
    .fil41 {fill:#ED2327;fill-rule:nonzero}
    .fil34 {fill:white;fill-rule:nonzero}
    .fil36 {fill:url(#id1)}
   ]]>
  </style>
     <clipPath id="id0">
      <path d="M1101 1142l347 0 0 47 -347 0 0 -47zm0 0z"/>
     </clipPath>
  <radialGradient id="id1" gradientUnits="userSpaceOnUse" gradientTransform="matrix(0.999989 -0 -0 0.999997 0 0)" cx="1148.4" cy="1130.82" r="111.564" fx="1148.4" fy="1130.82">
   <stop offset="0" style="stop-opacity:1; stop-color:#F3C561"/>
   <stop offset="1" style="stop-opacity:1; stop-color:#EEB51F"/>
  </radialGradient>
 </defs>
 <g id="Capa_x0020_1">
  <metadata id="CorelCorpID_0Corel-Layer"/>
  <g id="_2486060514432">
   <g>
    <path class="fil0" d="M1236 254c-2,1 0,-1 -1,0 0,1 0,2 -3,2l0 -2c1,0 2,0 3,-1 1,0 2,-1 3,-2 0,3 0,3 -2,3zm16 -11c3,-2 3,3 5,5l2 -1c3,2 1,4 2,8 -4,-1 -10,-7 -9,-12zm-11 2c1,0 2,0 3,1 1,0 2,1 2,2 -4,0 -4,-1 -5,-3zm-17 -4c4,5 5,3 6,3 1,0 2,1 2,1 1,0 2,-1 3,0 0,1 1,3 1,4 -4,0 -6,-3 -8,-3 -2,1 -2,2 -3,0 -1,-2 -2,-3 -1,-5zm21 2c0,-5 6,-5 6,0 1,7 -5,5 -6,0zm11 -5c1,0 1,0 1,1 0,0 0,0 0,0 1,1 2,2 2,3l0 1c0,0 0,0 0,0 -2,0 -2,0 -3,-2 -1,-1 -1,-2 0,-3zm-26 -2l0 0c2,1 1,2 3,3 2,1 4,1 5,2l0 2c-1,-1 -1,-1 -2,-1 -4,-1 -6,0 -6,-6zm22 -5c2,2 4,6 2,10 -4,0 -3,-7 -2,-10zm-28 -2c6,-4 9,-3 8,1 2,-1 4,-1 6,-1 2,0 2,2 4,3 -1,-2 0,-4 1,-6 1,0 2,1 3,1 1,1 1,2 2,2 0,1 0,1 -1,1 1,2 2,2 1,4l-3 -1c1,1 2,1 2,2 0,2 -1,3 -2,4 -1,2 -1,3 -2,4 -2,0 -3,-1 -3,-2 0,-3 1,-3 2,-5 -3,1 -5,4 -8,2l-3 -3c-1,-1 -1,-2 0,-4 -2,1 -3,1 -4,0 -1,-1 -2,-2 -3,-2zm59 16c-4,-4 -9,-1 -13,-5 -1,-1 -2,-3 -3,-5 -2,-2 -4,-2 -3,-6 5,1 4,5 7,7 3,0 2,-3 8,2 1,1 3,1 4,2 3,0 2,1 4,2 0,-2 -1,-6 -2,-9 0,-3 0,-7 4,-7 0,1 2,4 3,5 -5,7 0,5 -1,12l1 0c1,1 1,2 2,2 0,-3 0,-3 -1,-6 -1,-2 0,-3 0,-5 2,0 3,1 3,3 1,2 1,4 1,5 -2,6 0,7 -5,11 -2,1 -5,6 -10,3 -4,-2 -6,0 -9,-2 -2,-1 -3,-1 -5,-2 -1,-2 -1,-3 -2,-4 -1,-1 -3,-1 -4,-3 -2,-2 -2,-5 -7,-11 0,-1 -1,-3 -1,-5 2,1 4,3 4,6 3,2 5,4 6,5 1,2 2,2 2,4 4,4 3,2 11,6 3,1 5,3 9,2 -1,-4 -6,-2 -11,-4 -5,-3 -4,0 -9,-6l-7 -9c-1,-1 -3,-5 -6,-5 -2,-1 -1,1 -3,0 -2,0 -1,-6 4,-4 2,2 3,2 4,3 1,1 1,2 2,3 2,2 4,5 7,8 2,1 2,1 4,3 1,2 9,4 12,4zm-25 -19l1 -2c1,1 8,6 2,5 -1,-1 -1,-1 -1,-2 -1,0 -1,-1 -2,-1zm-13 -3c2,1 3,1 2,3l-1 0c-1,-1 -1,-2 -1,-3zm-21 5c-1,-1 -1,-2 -1,-4 0,0 4,-1 5,-2 2,0 4,0 5,1 -1,2 -1,1 -4,3 -1,0 -3,1 -5,2zm-1 -5c-1,-1 -1,-1 -1,-2 2,-1 4,-1 5,0 -1,2 -2,2 -4,2zm65 -4c2,0 4,1 5,1 2,1 4,1 5,2 2,4 5,7 8,11 3,5 8,4 4,10 -1,1 0,1 -1,1 -4,0 -5,-6 -8,-7 0,1 5,9 5,10 -1,3 -4,-1 -5,-1 -2,-4 0,-8 -3,-9 -2,-2 -4,-5 -4,-8 -1,-3 0,-3 -2,-5 -1,-1 -2,-1 -2,-2 -2,-1 -2,-1 -2,-3zm-57 0c1,-1 4,-2 6,-1 1,1 1,2 2,3 1,0 2,0 3,1 -1,2 -1,1 -2,1 -2,-1 -3,-1 -4,-1 -5,-1 -6,0 -5,-3zm21 -3c0,-4 5,-2 3,2 0,0 0,1 -2,1 -1,0 -1,-2 -1,-3zm-8 -2l2 0c1,1 5,4 3,6 -2,1 -3,0 -4,-1 -1,-2 0,-3 -1,-5zm11 -20l1 1c0,0 0,0 1,1 -3,3 -5,-1 -6,-2l4 0zm-13 -18c6,4 1,10 -1,4 0,-2 0,-3 1,-4zm31 2l0 0zm-35 -7c1,-1 1,-1 3,0l-1 2c-1,0 -2,-1 -2,-2zm42 -6c-1,2 -2,2 -4,3 -3,0 -3,1 -4,3 -1,-2 -1,-3 0,-4 1,-3 6,-6 8,-2zm-33 4c-2,0 -5,-3 -5,-6 0,-3 2,0 2,-3 0,-1 0,-3 1,-4 2,2 1,4 3,6l1 3c2,1 2,1 1,3l-2 -1c0,0 0,1 -1,2zm24 -7c1,0 1,1 0,2 -2,1 -3,0 -5,-1 -1,-2 0,-4 2,-4 2,2 1,2 3,3zm-18 1c-1,2 -2,1 -3,-1 -1,-1 -1,-3 -1,-4 2,0 4,4 4,5zm18 -1l-1 -2c-3,-3 -1,-6 1,-6 1,1 1,1 2,1 2,0 1,0 3,1 1,0 3,1 4,1 1,4 -3,2 -5,2 1,1 2,0 2,2 0,3 -4,1 -6,1zm14 -3c0,-5 1,-4 5,-3 3,0 4,-3 6,0 0,1 -1,1 -2,2 -3,0 -3,-1 -4,-1 -3,1 -5,7 -9,4 0,-2 1,-2 4,-2zm-2 -3c-2,1 -2,-1 -2,-2 3,0 3,0 2,2zm-13 -6c2,-1 4,-1 7,-1 3,1 3,0 6,-1 6,-1 10,2 6,3 -1,0 -2,-1 -3,-1 -1,3 -2,2 -5,2 -2,2 -2,1 -5,0l0 1c0,0 -1,1 -1,1 -1,1 -1,0 -2,0 -2,0 -3,-1 -3,-4zm-17 2c-1,-3 3,-4 6,-6 3,0 4,0 5,1 2,1 4,1 5,2 -1,1 -1,1 -2,1 -2,1 -1,1 -1,3l-2 0c1,2 0,2 -2,3l0 2c0,0 -1,0 -2,0 -1,1 -2,3 -5,1 1,2 2,3 -2,3 0,-2 -1,-3 -1,-5l0 -1c1,-1 1,0 2,2 0,-2 0,-2 -1,-3 -1,-3 -1,-2 0,-3zm19 -5c1,-2 5,-2 5,1 -2,1 -4,1 -5,-1zm8 1c0,-1 0,-2 1,-3 2,-1 2,0 3,1 -1,1 -2,2 -4,2zm-12 -5c3,-1 3,3 0,4 -5,0 -3,-3 0,-4zm31 35c0,1 2,4 2,6 0,3 0,6 1,8 -1,1 -1,1 -2,1 -1,0 -4,-2 -7,0 0,1 2,2 0,4 -1,2 -2,2 -4,1 1,2 2,1 4,1 0,3 -1,2 -1,4 1,2 4,5 -1,7 -3,2 -9,-1 -11,1 -1,2 1,6 1,8 1,3 1,6 1,9 2,0 2,-1 2,1 1,2 1,4 1,7 1,2 1,1 0,3 -4,0 -5,-2 -8,-3 -5,-3 -5,0 -8,-4 -1,-1 -1,-2 -2,-3l-10 -8c1,-7 -1,-5 -4,-10 -1,-2 -2,-4 -1,-7 1,-2 1,2 2,-6 3,0 4,-1 5,-3l-4 -1c-1,-1 -2,-1 -3,-2 0,0 -2,-2 -2,-3l0 2c-1,0 -1,0 -2,0 0,0 0,0 0,0l-1 -1 0 -2 2 0c-1,-1 -3,-2 -3,-3 1,-2 3,-2 5,-1 0,-3 -3,-4 -6,-6 1,-1 0,-1 2,-2 -2,-1 -2,-3 -3,-7 3,0 2,2 4,3 2,-1 3,-7 9,-7l1 2c1,0 0,0 1,0 0,-2 0,-2 1,-3 1,1 2,3 3,3 -3,-5 -4,-3 -3,-5 0,-1 1,-1 2,-1 1,1 1,3 2,4 1,2 3,0 5,1 1,1 0,2 -1,3 -4,4 -9,4 -11,2 -1,0 -1,0 -1,1l-2 0c0,0 0,1 0,2 -1,1 -1,-1 -1,1 -1,1 -1,4 0,5 0,2 1,3 1,4 1,2 0,2 -1,4 1,1 3,3 6,3 2,2 5,2 5,0 0,0 -3,1 -5,-5l-1 -2c0,-3 -1,-5 0,-8 0,1 1,1 1,2 3,-1 4,-2 6,0 2,1 1,3 2,5 3,1 5,-3 6,-5 0,0 0,0 0,0 0,0 0,0 0,0l3 -2c1,-1 0,-3 0,-4 1,-5 4,-4 4,-7l2 -2c0,0 0,0 2,0 7,-1 7,-5 10,-3 0,0 0,0 0,0 2,1 3,1 4,5 1,5 2,4 0,8 -1,3 -1,2 1,4 -1,-2 -1,-2 0,-4 1,-2 1,-1 1,-4 -1,-2 -3,-6 -3,-9 0,-8 3,-5 -4,-11 -1,-2 -5,-4 -7,-4 -1,0 -3,-1 -4,-1 -1,-1 -1,0 -2,0 -1,0 -1,-1 -2,-1 -1,-1 -3,-1 -4,-1 -2,0 -4,-1 -5,0 -1,0 -1,1 -4,1 -4,0 -7,0 -8,3 -7,-1 -8,3 -12,7 -1,1 -3,2 -4,4 -1,2 -2,4 -2,7 -1,1 -1,1 -2,3 -2,7 1,6 2,10 1,4 0,3 3,6 2,4 0,5 1,7 1,-1 1,-2 1,-3 1,0 1,0 2,1 0,1 -1,1 -2,3 1,1 3,2 3,4 1,4 2,0 2,6 0,5 3,11 1,14 -2,0 -4,-2 -3,-5 1,-2 3,-4 2,-6 -1,0 -1,1 -2,2 -2,6 -4,5 -5,7 0,2 1,2 1,4 -3,3 -5,0 -9,-1 -5,0 -3,3 -8,3 -5,0 -6,0 -5,6 0,3 2,5 4,7 -2,-1 -4,-2 -7,-2 0,2 2,7 3,9 -3,0 -3,-1 -4,-3 -1,-2 -3,-2 -5,-3 -4,-1 -8,-3 -12,-1 2,1 2,0 4,2 2,3 4,6 7,8 4,3 2,3 8,3 1,0 1,0 1,1 0,1 0,1 -1,2 -1,1 -2,1 -3,2 8,5 8,4 15,5 0,1 0,1 0,2 1,1 4,2 6,2 4,1 4,2 7,2 4,1 7,1 11,0 2,-1 5,0 3,-3 -1,-1 -1,-2 -1,-2 -3,-1 -7,-1 -10,-2 1,-5 6,-4 8,-2 3,4 -1,4 9,5 2,1 3,0 4,1 0,1 1,3 2,2 1,-1 0,-1 0,-2 0,0 -1,-1 -1,-1 -3,-3 -5,-1 -6,-9 5,2 2,4 7,6 3,1 4,2 6,3 1,1 1,1 2,0 4,-1 7,3 10,0 2,-1 5,-4 8,-4 -1,1 -1,2 -1,3l2 0c1,3 -2,4 -4,6 -3,3 -4,1 -6,-1 -3,-1 -6,1 -8,1 -4,0 -4,-3 -8,-3 0,2 1,1 2,2 3,3 3,3 8,3 3,-1 3,-1 6,0 5,3 6,1 9,-2 2,-2 3,-2 4,-4 0,-2 1,-3 2,-5 1,-2 2,-2 5,-3 -1,3 -3,2 -3,5 2,2 7,2 9,0 3,-2 6,-3 7,-6 -2,0 -5,-1 -6,0 -6,2 -7,-2 -4,-4 4,1 2,4 8,0 2,-2 1,-2 4,-2 6,0 5,-2 8,-4 5,-4 7,-4 9,-10 -2,0 -3,0 -4,1 -3,0 -7,0 -9,2 -2,2 -3,1 -6,3 -1,1 -1,2 -2,3 -1,3 -2,4 -5,5 -1,-1 -2,-3 -1,-4 1,-3 3,-1 4,-2 2,-1 1,-3 0,-4 -1,-2 -1,-2 0,-4 -3,0 -5,3 -6,5 -4,0 -4,-3 -6,-5 -2,-3 -3,-5 -5,-7 -1,-1 -1,-2 -3,-3 -5,-1 -4,0 -9,-3 -1,0 -3,-2 -2,-3 2,-2 11,1 9,-7 -1,-5 0,-2 1,-5 1,-2 1,-5 2,-7 8,0 6,-4 4,-11 -1,-3 0,-4 -2,-5z"/>
    <path class="fil0" d="M1300 323c1,-1 1,-4 2,-6l3 -16 0 22 5 0 0 -27c-9,0 -7,-1 -9,5l-3 16c-1,-2 -3,-13 -4,-16 -1,-6 1,-5 -9,-4l0 26 5 0 0 -21 1 2c0,0 0,1 0,1 1,5 4,14 4,18l5 0z"/>
    <path class="fil0" d="M1184 304l10 19 6 0 0 -27 -6 1 0 17c0,0 0,0 0,0l-2 -4c-1,-2 -2,-3 -3,-5 -6,-10 -3,-9 -11,-9l0 27 5 0 1 -19z"/>
    <path class="fil0" d="M1236 301l6 0c6,0 4,5 4,6 -1,2 -7,1 -10,1l0 -1 0 -6zm12 9c2,-1 4,-2 4,-6 0,-3 -2,-5 -3,-6 -3,-2 -14,-2 -18,-1l0 26 5 0 0 -11c12,0 9,0 10,11l6 0c0,-2 -1,-2 -1,-4 0,-1 0,-3 0,-4 0,-4 -2,-4 -3,-5z"/>
    <path class="fil0" d="M1378 301c10,-3 11,16 3,17 -5,2 -8,-2 -9,-7 0,-5 1,-9 6,-10zm8 21c5,-3 6,-8 6,-13 0,-6 -3,-11 -7,-12 -8,-3 -18,0 -18,12 0,4 1,7 3,10 3,4 11,6 16,3z"/>
    <path class="fil0" d="M1210 301c7,0 11,-1 11,9 0,9 -5,8 -11,8l0 -17zm-5 22c4,0 13,0 16,-2 7,-4 8,-20 0,-24 -3,-1 -12,-1 -16,-1l0 27z"/>
    <path class="fil0" d="M1275 312c0,4 -3,8 -9,6 -4,-1 -5,-6 -4,-11 1,-10 16,-9 13,5zm0 10c9,-5 9,-26 -6,-26 -15,-1 -15,17 -11,22 4,5 12,7 17,4z"/>
    <path class="fil0" d="M1323 313c0,-2 1,-4 1,-5 0,-1 1,-2 1,-3l1 -2c0,0 0,0 0,0l3 10 -6 0zm-4 10c1,-1 2,-4 2,-6l10 0 1 6 6 0c-1,-4 -3,-10 -4,-14l-4 -10c0,-1 0,-2 -1,-3l-6 0c-1,1 -1,3 -1,4 -1,1 -1,2 -1,3 -2,5 -6,16 -7,20l5 0z"/>
    <path class="fil0" d="M1163 303l3 10 -7 0 4 -10zm-7 20c1,-1 1,-4 2,-6l9 0c3,6 0,6 8,6 -1,-4 -3,-10 -5,-14 0,-2 -1,-4 -2,-6 0,-1 -2,-6 -3,-7l-5 0c-1,1 0,1 -1,2l-9 25 6 0z"/>
    <path class="fil0" d="M1357 322c4,-1 6,-5 6,-8l-5 0c-1,3 -3,6 -7,4 -7,-2 -6,-15 -1,-17 2,-1 7,-1 8,4l5 0c0,-10 -15,-12 -20,-4 -3,4 -4,14 1,19 4,3 9,4 13,2z"/>
    <path class="fil0" d="M1206 207l0 -2c3,1 7,2 6,-3 -3,0 -1,1 -3,1 -1,0 0,-1 -3,-1 -1,-4 -2,-2 -2,-5 -1,-5 -1,-3 -3,-7 -1,-2 -5,-5 -7,-5 0,6 0,11 3,14 1,2 2,3 4,4 1,1 2,4 5,4z"/>
    <path class="fil0" d="M1215 159c2,0 3,-1 4,-2 2,-1 3,-1 5,-2 2,-1 4,-5 4,-7 -4,-1 -5,0 -8,1 1,-2 1,-6 1,-9 -2,0 -6,4 -7,7 -1,3 1,5 1,12z"/>
    <path class="fil0" d="M1214 232c0,-3 -6,-10 -7,-11 -5,-4 -6,-3 -12,-6 0,3 1,1 2,3 0,1 0,2 1,3 1,2 1,1 2,3 1,0 1,2 1,3 1,1 4,3 5,4 2,0 2,-1 4,-1 2,1 2,2 4,2z"/>
    <path class="fil0" d="M1215 230c2,-2 3,-9 3,-13 0,-2 -1,-4 -2,-6 -1,-2 -1,-4 -2,-6 -4,3 -5,15 0,23 0,1 0,1 1,2z"/>
    <path class="fil0" d="M1207 200c5,-1 6,-3 6,-7 1,-6 -1,-7 2,-12 -2,0 -2,1 -5,2 -3,1 -3,1 -4,4 -2,6 1,10 1,13z"/>
    <path class="fil0" d="M1202 167c-1,0 -2,3 -3,4 -4,6 0,9 1,12 1,6 4,7 5,4 0,-2 0,-1 1,-2 2,-2 -1,-4 -1,-6 0,-1 0,-2 0,-3 0,-2 -1,-1 -1,-3 0,-3 -1,-4 -2,-6z"/>
    <path class="fil0" d="M1326 230c5,0 9,-3 10,-7 1,-2 1,-3 3,-5 0,-1 2,-3 2,-6 -1,1 -1,1 -2,2 -1,1 -2,1 -3,1 -5,3 -5,3 -8,8 -2,2 -2,4 -2,7z"/>
    <path class="fil0" d="M1323 231c0,-2 1,-4 2,-5 0,-2 2,-3 2,-5 0,-2 0,-4 -1,-5 -1,-2 -2,-4 -3,-5 0,8 -3,7 -5,11 0,1 -1,4 0,6 0,1 1,1 2,2 1,0 2,1 3,1z"/>
    <path class="fil0" d="M1336 187c1,-5 -2,-7 -3,-12 0,-4 -2,-7 -6,-9 0,5 -1,10 1,14 0,0 1,1 1,2 2,1 1,0 3,1 1,0 2,3 4,4z"/>
    <path class="fil0" d="M1339 187c1,0 0,0 1,-2 3,-4 5,-9 2,-13 -1,-2 -2,-4 -3,-5 0,1 0,1 -1,2 -2,5 -3,3 -3,8 1,1 1,3 2,5 0,2 1,3 2,5z"/>
    <path class="fil0" d="M1334 202c3,-6 4,-12 -2,-17 -1,-1 -2,-2 -5,-2 1,2 2,1 3,5 0,3 -3,4 1,11 1,1 2,2 3,3z"/>
    <path class="fil0" d="M1318 143c0,2 2,5 1,10 -1,3 1,5 3,7 3,4 6,4 5,0 -1,-2 1,-6 -5,-13 -1,-2 -2,-3 -4,-4z"/>
    <path class="fil0" d="M1337 206c2,-1 3,-2 4,-4 1,-3 0,-4 2,-6 1,-2 2,-2 1,-6 0,-3 0,-5 0,-8l-3 5c-1,2 -2,3 -3,5 -1,3 0,5 -1,8 -1,2 -1,5 0,6z"/>
    <path class="fil0" d="M1210 222c0,-5 -1,-9 -4,-11 -3,-4 -2,-2 -4,-4 -1,-1 -2,-3 -4,-4l1 8c0,2 1,3 3,4 1,2 6,5 8,7z"/>
    <path class="fil0" d="M1327 198c0,3 1,2 0,5 -2,5 -2,6 0,11 1,2 2,5 4,3 0,-1 1,-3 2,-5 0,-2 -1,-3 -1,-6 0,-1 0,-1 0,-2 0,-1 -1,-2 -1,-3 -1,-2 -2,-2 -4,-3z"/>
    <path class="fil0" d="M1335 171c2,-1 2,-8 0,-10 -2,-2 -3,-6 -6,-7 0,7 -1,9 0,11 0,1 2,2 3,3 3,2 1,2 3,3z"/>
    <path class="fil0" d="M1207 182c3,0 8,-5 8,-11 0,-2 1,-3 1,-5l-4 3c-3,2 -6,5 -5,8 0,1 0,1 0,3 0,1 0,1 0,2z"/>
    <path class="fil0" d="M1234 136l-2 0c-5,3 -8,0 -10,11 2,-1 5,1 8,-3 2,-3 3,-5 4,-8l0 0z"/>
    <path class="fil0" d="M1206 171c2,0 1,-1 2,-1 2,-2 3,1 5,-5 1,-3 2,-7 1,-11l-5 7c-2,2 -5,6 -3,10z"/>
    <path class="fil0" d="M1253 268c4,0 7,1 10,-2 2,-2 2,-1 4,-1 7,1 1,-8 -4,-4 -1,1 0,1 -1,2 -4,1 -8,0 -9,5z"/>
    <path class="fil0" d="M1316 148c0,-2 2,-2 1,-4 -1,-2 -3,-3 -4,-5 -1,-1 -1,-1 -1,-1 -2,-1 -3,-2 -5,-2 -2,0 0,2 1,3 0,3 0,3 1,5 2,2 4,4 7,4z"/>
    <path class="fil0" d="M1283 174l3 0c0,2 -1,1 -1,3 1,1 2,1 3,2 1,1 1,2 2,3 2,-1 2,-1 2,-2 1,-1 1,0 2,-2 1,-1 2,-4 1,-5 -2,-1 -3,1 -6,0 -2,0 -5,-1 -6,1z"/>
    <path class="fil0" d="M1206 162c0,0 0,0 0,0l0 0c3,-3 4,-2 5,-4 0,-3 -1,-2 0,-4 1,-2 1,-3 0,-4 0,0 -1,2 -2,3 -2,3 -2,1 -4,6 -1,2 0,2 1,3z"/>
    <path class="fil0" d="M1281 268c-1,-2 -3,-2 -4,-3 -1,0 -1,-1 -2,-1 -4,-1 -4,4 0,5 1,0 2,0 3,0 2,0 2,0 3,-1z"/>
    <path class="fil0" d="M1335 208c-1,0 -1,5 0,5 1,1 2,1 3,0 1,-2 0,-3 0,-5 1,0 2,-1 2,-3 -2,0 -4,2 -5,3z"/>
    <path class="fil0" d="M1265 294l4 0c0,-1 1,-2 2,-3 1,-1 2,-1 2,-2 -8,0 -4,-1 -8,5z"/>
    <path class="fil1" d="M1391 295c-1,-5 6,-6 7,-2 1,5 -6,6 -7,2zm3 -5c-5,0 -5,7 0,8 6,1 6,-9 0,-8z"/>
    <path class="fil2" d="M1394 294l0 -2c2,0 2,2 0,2zm-1 2c1,0 1,0 1,-2 1,0 1,0 1,1 1,2 0,1 1,1 0,-1 0,-1 -1,-2 1,0 1,-1 1,-1 0,-1 -1,-2 -3,-1l0 4z"/>
    <path class="fil0" d="M1208 210c2,1 2,0 2,-1 1,-1 1,-2 0,-2 -2,-1 -3,1 -2,3z"/>
    <path class="fil1" d="M1259 185c1,1 2,1 4,1 -1,-1 -1,-2 -2,-3 0,0 -1,0 -1,1 0,0 0,1 -1,1z"/>
    <path class="fil1" d="M1290 250c1,-1 0,-3 0,-4 -1,1 -2,3 0,4z"/>
    <path class="fil0" d="M1299 233c0,-1 -1,-2 -2,-2 0,1 1,2 2,2z"/>
    <line class="fil3" x1="1273" y1="178" x2="1273" y2= "178" />
   </g>
   <g>
    <path class="fil4" d="M1651 217c7,-2 12,3 13,8 4,14 -17,19 -21,5 -2,-7 3,-12 8,-13zm-9 -20c0,0 -1,0 0,0 9,0 18,6 20,11 -1,0 -2,-2 -5,-3 -15,-7 -35,6 -28,27 1,4 4,8 7,10 5,3 8,3 15,3 11,0 23,0 35,0 0,-10 0,-19 0,-29 0,-12 1,-15 -7,-22 -4,-4 -8,-6 -13,-8 -3,-1 -3,0 -5,1l-19 10z"/>
    <path class="fil5" d="M1724 245l4 0 0 -25c1,2 3,10 4,13 2,4 3,8 4,12 5,0 4,1 6,-6 1,-2 2,-4 2,-6 2,-4 3,-9 5,-13l0 25 4 0c0,-8 0,-21 0,-30l-6 0 -9 25 -6 -19c-2,-7 0,-6 -8,-6l0 30z"/>
    <path class="fil5" d="M1817 218l8 0c9,0 8,7 6,8 -2,3 -10,2 -14,2l0 -1 0 -9zm-4 26l0 1 4 0 0 -13c7,0 8,-1 12,5 2,2 3,6 5,8l5 0c-1,-2 -3,-5 -5,-7 -1,-2 -2,-4 -4,-5 0,-1 -1,-1 -1,-1 1,-1 9,-2 7,-10 0,-6 -5,-7 -11,-7l-12 0 0 29z"/>
    <path class="fil5" d="M1875 245l4 0 0 -23c1,1 15,21 16,23l4 0c0,-7 0,-22 0,-30l-4 0 0 23 -2 -3c-2,-2 -13,-20 -14,-20l-4 0 0 30z"/>
    <path class="fil5" d="M1698 228l0 -10c5,0 16,-1 16,5 0,7 -11,5 -16,5zm-4 17l4 0 0 -13c3,0 7,-1 9,1 1,1 2,3 3,4 2,2 4,5 5,8l5 0 -7 -11c-1,-1 -2,-1 -3,-3 10,-1 9,-10 6,-14 -2,-2 -6,-2 -10,-2 -3,0 -9,0 -12,0l0 30z"/>
    <path class="fil5" d="M1932 241l0 -11 -12 0 0 3 8 0 0 6c-1,3 -20,8 -19,-10 1,-14 18,-14 19,-5 2,0 3,0 4,-1 -3,-12 -25,-12 -27,5 -1,4 0,8 2,10 3,7 10,9 17,7 5,-1 6,-3 8,-4z"/>
    <path class="fil5" d="M1854 218c7,-1 11,4 12,10 2,18 -19,18 -20,4 -1,-7 2,-13 8,-14zm0 -3c-8,0 -13,7 -12,17 1,19 30,18 28,-4 -1,-8 -7,-14 -16,-13z"/>
    <path class="fil5" d="M1761 235l-3 0c-1,11 17,14 22,6 2,-3 2,-7 0,-10 -4,-4 -16,-3 -17,-7 -2,-7 13,-9 14,0l4 0c0,-8 -8,-11 -16,-9 -8,2 -8,11 -2,14 4,2 19,3 14,10 -2,3 -6,4 -10,3 -4,-1 -5,-3 -6,-7z"/>
    <polygon class="fil5" points="1785,219 1795,219 1795,245 1799,245 1799,219 1808,219 1808,215 1785,215 "/>
    <path class="fil6" d="M1769 270c3,0 1,0 3,-4 0,-2 1,-3 3,-3 1,2 -1,5 -1,7 3,0 1,1 3,-4 0,-1 0,-3 2,-3 0,0 0,0 0,0 1,0 1,0 1,0 1,2 -1,5 -1,7 2,0 1,1 2,-3 1,-3 1,-4 0,-5 -2,-1 -3,1 -4,1 -1,-2 -3,-1 -5,0 0,-1 1,-1 -1,-1 -1,1 -2,7 -2,8z"/>
    <path class="fil7" d="M1732 270c3,0 2,0 3,-4 0,-2 1,-3 3,-3 1,2 0,5 -1,7 3,0 2,1 3,-4 0,-2 1,-3 3,-3 1,2 0,5 -1,7 2,1 2,0 2,-2 1,-2 2,-6 -1,-6 -1,0 -2,0 -3,1l-1 -1c-1,0 -2,0 -3,1l0 -1c-1,0 0,0 -2,0l-2 8z"/>
    <path class="fil6" d="M1722 266l-1 0c-1,5 -8,4 -7,-2 1,-2 2,-3 4,-4 1,0 2,0 2,0 2,2 0,2 3,2 0,0 0,0 0,0 0,-2 -3,-4 -6,-3 -2,0 -4,3 -4,5 -1,9 9,8 9,2z"/>
    <path class="fil6" d="M1912 264c3,-3 3,4 1,5 -2,1 -3,-1 -2,-4 0,-1 0,-1 1,-1zm3 -1c0,-1 -1,-2 -4,-1 -1,1 -2,2 -2,3 -1,4 2,7 5,5 0,0 1,2 1,0l3 -11c-2,0 -2,-1 -3,4z"/>
    <path class="fil6" d="M1750 263c3,-2 3,5 1,6 -3,2 -4,-4 -1,-6zm-5 11c3,-1 1,-1 3,-5 2,3 5,1 6,-2 1,-4 -2,-7 -5,-4 -2,-3 -2,2 -3,4 0,2 0,4 -1,7z"/>
    <path class="fil6" d="M1806 267c-2,4 -6,2 -4,-2 1,-4 5,-2 4,2zm1 -4c-7,-6 -10,11 -3,7 1,-1 1,0 1,0 3,1 -2,-1 1,0 1,0 1,0 1,-2l2 -9c-3,0 -1,0 -2,4z"/>
    <path class="fil6" d="M1889 267c1,-1 2,-1 4,-1 0,2 -1,3 -2,3 -2,1 -2,0 -2,-2zm-1 -3c3,1 1,0 3,-1 2,0 3,0 2,2 -2,1 -5,0 -6,3 0,3 4,3 5,2 1,0 0,0 2,0 0,-2 2,-6 0,-7 -2,-2 -5,-1 -6,1z"/>
    <path class="fil6" d="M1785 265c1,-2 4,-4 4,0l-4 0zm5 3c-2,-1 -1,1 -3,1 -2,1 -2,-1 -2,-2 1,0 4,0 6,-1 1,-5 -6,-6 -8,-1 -2,6 6,7 7,3z"/>
    <path class="fil6" d="M1730 263c1,4 -2,8 -4,6 -1,-1 -1,-4 0,-5 1,-1 2,-1 4,-1zm-3 -1c-5,2 -4,11 2,8 4,-1 4,-10 -2,-8z"/>
    <path class="fil6" d="M1811 269c-1,-1 -1,-3 0,-5 1,-1 3,-2 4,-1 1,2 0,8 -4,6zm1 -7c-2,1 -3,3 -3,6 0,2 3,3 5,2 4,-2 4,-10 -2,-8z"/>
    <path class="fil6" d="M1845 263c1,4 -2,8 -4,6 -1,-1 -1,-4 0,-5 1,-1 2,-1 4,-1zm-3 -1c-5,2 -4,11 2,8 4,-2 4,-10 -2,-8z"/>
    <path class="fil6" d="M1764 263c4,-1 4,5 1,6 -4,2 -4,-5 -1,-6zm0 -1c-5,2 -5,10 1,8 5,-1 4,-10 -1,-8z"/>
    <path class="fil8" d="M1905 269c0,1 -1,1 1,1 1,-1 2,-7 2,-8 -2,0 -1,0 -2,4 -1,3 -2,4 -4,3 -1,-2 1,-5 1,-7 -2,0 -2,0 -2,2 0,1 -1,3 -1,4 0,4 3,3 5,1z"/>
    <path class="fil6" d="M1884 268c0,1 -1,2 -2,1 -3,-1 0,-2 -3,-2 -1,4 5,5 6,2 3,-3 -2,-3 -3,-5 0,-1 1,-1 2,-1 2,1 0,2 3,1 -1,-3 -5,-3 -6,-1 -2,3 3,3 3,5z"/>
    <path class="fil8" d="M1847 270c2,0 2,1 2,-1 1,-3 1,-6 5,-6 0,2 -1,5 -1,7 2,0 1,-1 2,-3 0,-2 1,-4 -1,-5 -2,-1 -2,0 -3,1 -1,-1 0,-1 -2,-1l-2 8z"/>
    <path class="fil5" d="M1819 263c0,5 5,2 4,6 -4,1 -2,-1 -5,-2 0,0 -1,1 0,2 1,2 5,2 6,1 1,-2 1,-3 0,-4 -2,-1 -3,-1 -4,-2 1,-1 2,-2 3,-1 2,1 -1,2 2,1 0,-3 -3,-3 -6,-1z"/>
    <path class="fil6" d="M1871 269c0,1 -1,1 1,1l2 -8c-3,0 -1,0 -2,4 -1,3 -2,4 -4,3 -1,-2 0,-5 1,-7 -2,0 -2,0 -2,2 -1,1 -1,3 -1,4 0,3 3,3 5,1z"/>
    <path class="fil6" d="M1837 267c-2,0 0,3 -4,2 -1,-2 -1,-6 3,-6 1,1 0,2 2,2 1,-4 -6,-5 -7,1 -1,7 6,5 6,1z"/>
    <path class="fil6" d="M1861 262c1,1 1,1 1,1l0 0c1,1 0,1 0,3 0,1 -1,3 0,4 1,0 1,1 2,0 0,-1 0,0 -1,-1 1,-8 1,-5 3,-7 -1,0 -1,0 -1,0 0,0 0,0 0,0 0,0 0,0 0,0 0,0 0,0 -1,0l1 -3c-2,1 -1,1 -2,3 -1,0 -1,-1 -2,0z"/>
    <path class="fil6" d="M1792 262c0,1 0,1 0,1 0,0 1,0 1,0 1,2 -2,4 -1,7 1,0 2,1 3,0 0,-1 0,0 -1,-1 1,-8 1,-5 2,-7 0,-1 0,1 -1,-1l1 -2c-1,0 -2,0 -2,1 -1,3 -1,1 -2,2z"/>
    <path class="fil7" d="M1896 270c2,0 1,0 2,-2 0,-1 0,-2 0,-3 1,-2 2,-4 2,-6 -2,0 -2,0 -3,5 0,2 -1,4 -1,6z"/>
    <path class="fil8" d="M1755 270c2,1 1,0 2,-4 2,-4 3,-1 4,-4 -2,-1 -2,0 -3,1 0,0 0,0 0,0l0 -1c0,0 0,-1 -1,0 -1,1 -2,7 -2,8z"/>
    <path class="fil7" d="M1796 270c2,0 2,-1 2,-3 1,-2 1,-4 1,-5 -1,0 -1,0 -1,1 -1,0 -1,2 -1,2 0,2 -1,4 -1,5z"/>
    <path class="fil9" d="M1937 220l0 -2c1,0 2,0 2,1 0,0 -1,1 -2,1zm-1 2c0,0 1,0 1,0 0,0 0,-1 0,-2 1,0 1,0 1,0 1,0 1,2 1,2 0,0 1,0 1,0 0,-1 -1,-2 -1,-2 1,-1 1,-2 0,-2 -1,-1 -2,-1 -3,0l0 4z"/>
    <path class="fil7" d="M1799 260c1,0 1,1 1,-1l-1 0c-1,1 -1,1 0,1z"/>
    <path class="fil10" d="M1642 197c-1,0 0,0 0,0 -1,0 -1,-1 -1,0l1 0z"/>
   </g>
   <g>
    <path class="fil11" d="M666 198c0,1 1,3 2,5 2,3 8,13 8,15l-21 0 11 -20zm-47 45l23 0c0,0 0,1 1,-1l2 -4c1,-2 2,-4 3,-6l35 0c1,1 5,9 6,11l22 0c0,-1 -2,-3 -2,-4 -1,-2 -2,-3 -3,-5 -2,-3 -3,-6 -5,-9l-23 -42c-1,-1 -1,-3 -3,-4 -4,-4 -9,-6 -15,-3 -2,1 -3,2 -4,3 -4,4 -18,31 -21,37 -2,3 -4,6 -5,9 -1,1 -2,3 -3,5 -1,1 -2,3 -3,4 0,2 -1,3 -2,5 -1,1 -2,3 -3,4z"/>
    <path class="fil11" d="M816 213c4,-1 17,-1 19,3 1,1 1,8 0,10 -1,6 -11,4 -17,4 -3,0 -6,0 -7,-3 -1,-2 -2,-7 -1,-10 0,-2 3,-4 6,-4zm-3 -13c-9,0 -14,1 -18,8 -3,4 -3,16 -2,22 2,7 6,12 14,13 6,1 34,2 40,-3 1,-1 2,-3 3,-4 3,-6 3,-23 0,-29 -2,-4 -7,-6 -12,-7 -8,-1 -17,-1 -25,0z"/>
    <path class="fil11" d="M912 243l0 -28c0,-1 -1,-5 -3,-8 -3,-4 -7,-6 -12,-7 -6,-1 -15,-1 -20,2 -2,1 -3,2 -5,3l0 -4c-2,-1 -15,-1 -17,0l0 42 17 0c0,-6 0,-14 0,-21 0,-7 4,-9 12,-9 16,1 10,2 11,30l17 0z"/>
    <path class="fil11" d="M763 244c13,0 25,1 26,-11 1,-2 1,-11 1,-12 -1,0 -1,0 -3,2 -6,7 -16,8 -25,8 -3,0 -7,0 -10,-1 -2,-2 -3,-5 -3,-8 1,-8 7,-9 14,-9 10,0 10,5 11,7 1,-1 1,-1 2,-2l10 -12c-4,-9 -38,-7 -46,-3 -9,5 -8,23 -6,31 4,10 18,10 29,10z"/>
    <polygon class="fil11" points="713,243 729,243 729,183 713,183 "/>
    <path class="fil12" d="M648 272l0 -16c3,7 5,10 9,15 1,2 2,4 3,5l3 0 0 -24 -3 0 0 20c-1,-3 -7,-12 -9,-15 -1,-1 -2,-3 -3,-5l-3 0 0 24 3 0 0 -4z"/>
    <path class="fil12" d="M815 276c0,-3 -1,-10 1,-13 0,-1 6,-4 6,4 0,3 0,6 0,10l3 -1c0,-2 0,-11 1,-13 2,-2 7,-4 7,4 0,3 0,6 0,9l3 0c0,-4 1,-11 -1,-15 -1,-2 -3,-2 -6,-2 -2,0 -3,2 -4,3 -2,-4 -7,-5 -11,0l0 -3 -2 0 0 17 3 0z"/>
    <path class="fil12" d="M848 262c7,-3 9,10 3,12 -8,3 -9,-10 -3,-12zm-4 12c2,1 1,1 3,2 4,3 11,-1 11,-9 0,-4 -2,-6 -5,-8 -5,-2 -7,2 -9,3l0 -3 -3 0 0 25 3 -1 0 -9z"/>
    <path class="fil12" d="M794 270c0,-4 0,-8 4,-9 7,-2 9,11 3,13 -4,1 -6,-2 -7,-4zm3 -11c-1,0 -2,1 -3,1 -2,3 -4,6 -3,10 1,4 5,8 10,7 10,-3 8,-20 -4,-18z"/>
    <path class="fil12" d="M670 268c0,-10 11,-9 11,0 0,3 -2,6 -5,6 -4,1 -6,-2 -6,-6zm4 -9c-11,2 -8,20 4,18 9,-3 8,-20 -4,-18z"/>
    <path class="fil12" d="M629 268c0,2 0,4 -1,5 -4,4 -9,-2 -5,-4 2,-1 4,-1 6,-1zm-10 2l0 3c1,2 1,3 4,4 3,0 5,-1 6,-3l1 2 2 0c-1,-7 3,-16 -6,-17 -3,0 -4,0 -6,1l0 2c2,1 9,-4 9,3 -7,1 -7,1 -10,5z"/>
    <path class="fil12" d="M871 268c0,2 0,4 -2,5 -4,4 -8,-2 -4,-4 1,-1 4,-1 6,-1zm0 7l0 0c0,0 0,0 0,0 0,1 0,1 0,1l3 0c0,-4 1,-11 -1,-14 -2,-4 -8,-4 -11,-2l0 2c4,-1 8,-3 9,3 -3,1 -6,1 -8,2 -1,1 -3,3 -3,5 1,6 7,6 11,2 0,0 0,1 0,1z"/>
    <path class="fil12" d="M714 268c0,2 0,4 -2,6 -1,0 -4,1 -5,0 -1,-2 0,-4 1,-5 1,-1 4,-1 6,-1zm-9 -6l0 0c2,-1 4,-1 6,-1 2,1 2,2 3,5 -5,-1 -11,1 -11,6 0,4 5,7 10,3 0,0 1,0 1,0l0 2 3 -1c-1,-4 1,-11 -1,-14 -2,-4 -8,-4 -11,-2l0 2z"/>
    <path class="fil12" d="M882 262l0 -3 -3 0 0 18 3 -1c0,-2 0,-6 0,-9 0,-3 1,-5 4,-6 6,0 5,9 4,15l4 0c-1,-5 2,-18 -7,-17 -1,0 -2,0 -3,1 -2,1 -1,1 -2,2z"/>
    <path class="fil12" d="M898 284l0 0c3,-2 3,0 6,-4 1,-2 2,-4 3,-6 1,-4 4,-12 5,-14l0 -1 -3 0c-2,5 -3,9 -4,14 -1,-1 -5,-13 -6,-14l-3 0 5 12c1,3 2,4 1,7 -2,2 -3,3 -5,4l1 2z"/>
    <path class="fil12" d="M699 267c1,-2 2,-6 3,-8l-4 0 -4 14c-1,-2 -4,-12 -5,-14l-3 0 6 17 3 0 4 -9z"/>
    <path class="fil12" d="M788 276l0 -2c-3,0 -7,1 -9,-3 -2,-3 -1,-7 2,-9 3,-2 4,0 7,0l1 -2c-5,-3 -14,0 -14,8 0,1 0,3 1,4 2,5 8,6 12,4z"/>
    <path class="fil12" d="M764 260c-2,-1 -5,-2 -7,-1 -3,1 -5,5 -2,8 1,1 2,1 3,2 2,1 4,1 3,4 -2,2 -4,2 -7,0l-1 3c3,0 5,1 7,1 3,-1 5,-3 5,-5 0,-7 -9,-4 -8,-10 1,-2 5,-1 6,0l1 -2z"/>
    <path class="fil12" d="M735 257l0 2 -2 0 -1 3c1,0 3,-1 3,0 0,3 0,10 1,12 0,2 1,3 3,3 4,0 3,-2 3,-3 -5,-1 -4,2 -4,-12l5 -1 0 -2 -5 0 0 -4 -3 1 0 1z"/>
    <path class="fil12" d="M725 268c0,-6 3,-6 5,-6l0 -3c-2,-1 -3,0 -4,2 -1,0 -1,0 -1,1 0,0 0,0 0,0l0 -3 -3 0 0 17 3 1 0 -9z"/>
    <polygon class="fil12" points="746,276 749,276 749,259 748,259 746,259 746,263 746,266 746,268 746,271 "/>
    <path class="fil11" d="M902 184c5,-2 10,6 4,9 -5,3 -10,-6 -4,-9zm1 -1c-7,2 -5,12 2,11 2,0 2,-1 3,-2 3,-3 0,-10 -5,-9z"/>
    <path class="fil11" d="M903 186c1,0 1,0 2,1 0,1 -1,1 -2,1l0 -2zm0 6l0 -3c3,0 1,1 3,3 0,-1 0,0 0,-2 0,-1 0,-1 -1,-1 3,-3 0,-4 -3,-3 0,5 -1,5 1,6z"/>
    <path class="fil12" d="M746 255c1,1 1,2 3,1 0,0 1,-1 1,-2 -1,-1 -1,-1 -1,-1 -2,-1 -3,0 -3,2z"/>
   </g>
   <g>
    <path class="fil13" d="M184 723l144 0 0 -132 -67 0 0 85c0,3 8,2 14,2l45 0c0,9 -13,23 -22,28 -43,25 -99,5 -106,-28l59 0 0 -87 -67 0 0 132z"/>
    <path class="fil14" d="M324 778l5 0c0,-12 2,-22 2,-31l16 31c2,-1 1,-1 2,-3l13 -26c0,0 1,0 1,0l1 -2c0,7 2,24 2,31l6 0 -5 -43c-2,1 -2,3 -5,8l-14 25 -13 -25c-2,-4 -2,-7 -5,-8l-4 32c-1,3 -2,8 -2,11z"/>
    <path class="fil14" d="M176 757c0,-26 33,-25 33,-2l0 5c0,21 -33,23 -33,-3zm-6 -2c0,7 0,14 7,19 12,9 38,6 38,-17 0,-12 -9,-22 -20,-22 -8,0 -14,1 -19,6 -3,3 -6,8 -6,14z"/>
    <path class="fil14" d="M300 755l-4 0 0 -16c6,0 15,-1 15,7 0,6 -5,9 -11,9zm-10 -15l0 34c0,4 -3,4 6,4l0 -20c3,0 3,2 6,5 12,16 9,15 18,15l-8 -10c-1,-2 -7,-9 -7,-11 13,0 19,-21 -2,-21 -3,0 -5,1 -8,0 -7,-1 -5,0 -5,4z"/>
    <path class="fil14" d="M116 744c1,3 2,5 3,7 1,2 3,6 3,7 -3,1 -2,1 -5,1 -4,0 -4,-1 -7,-1 1,-2 2,-4 3,-7 1,-2 2,-5 3,-7zm-18 34l5 0c0,-3 4,-13 5,-16l16 0 6 16 6 0 -16 -38c-1,-3 -1,-4 -4,-5 -1,7 -18,39 -18,43z"/>
    <path class="fil14" d="M393 745l2 0c0,2 1,5 2,7 1,1 3,5 3,6 -2,1 -1,1 -5,1 -4,0 -4,-1 -7,-1 1,-2 5,-11 5,-13zm-17 33l5 0 5 -16 16 0c0,4 5,12 5,16l8 0c-4,-7 -11,-23 -14,-32l-5 -11 -1 0c-1,2 -2,3 -3,5l-14 32c-1,2 -1,4 -2,6z"/>
    <path class="fil14" d="M263 745l1 0c1,4 5,10 5,13 -2,1 -1,1 -5,1 -3,0 -4,-1 -7,-1 1,-1 2,-4 3,-6 1,-2 3,-5 3,-7zm-18 33l5 0 5 -16 16 0c1,2 5,13 6,16l6 0c0,-3 -16,-36 -17,-43 -2,1 -2,-1 -4,5 -1,2 -2,3 -2,5l-10 22c-2,3 -3,7 -5,11z"/>
    <path class="fil14" d="M141 747c0,13 18,11 18,19 0,12 -10,11 -14,8 -2,-2 -2,-3 -4,-5 -1,2 -1,4 -2,6 5,3 9,5 17,3 5,-2 9,-7 9,-13 0,-14 -19,-8 -19,-21 0,-4 4,-6 7,-6 6,0 6,4 8,6 1,-1 2,-5 2,-6 -4,-1 -1,-3 -10,-3 -7,0 -12,5 -12,12z"/>
    <path class="fil14" d="M223 750l0 14c0,5 0,8 0,14 9,0 6,0 6,-7l0 -14c6,0 9,1 15,1l0 -4 -15 0 0 -14 9 0c6,0 7,1 7,-1 2,-5 -8,-2 -11,-2 -4,0 -7,-1 -11,-1 0,5 0,8 0,14z"/>
   </g>
   <g>
    <path class="fil15" d="M1319 674c5,0 11,-2 11,4 -1,3 -2,4 -4,5 -3,1 -4,0 -6,2 -1,3 8,12 10,15l11 0c-1,-4 -9,-11 -10,-14 5,-2 7,-2 9,-6 4,-16 -20,-12 -31,-12l0 32 10 0 0 -26zm-70 26l0 -6 -12 0 0 -26 -10 0c-1,7 0,18 0,26 0,7 2,6 8,6 5,0 9,0 14,0zm4 -32c0,6 -1,26 0,31 4,2 17,1 22,1l0 -6 -13 0 0 -26 -9 0zm51 32l0 -6 -16 0 0 -7 16 0 0 -6 -16 0 0 -7 16 0 0 -6c-5,0 -22,-2 -25,1 -1,2 -1,28 0,30 5,2 19,0 25,1zm88 -13c0,-2 3,-12 5,-13 2,1 4,12 5,13l-10 0zm-10 13l6 0c1,-2 1,-5 2,-7l13 0 2 7 10 0c0,-2 -1,-7 -2,-9 -1,-3 -2,-7 -3,-10 -1,-3 -2,-6 -3,-10 -1,-2 0,-3 -2,-3 -1,0 -5,0 -7,0 -9,0 -5,-2 -11,13 -1,3 -2,6 -3,9 -1,3 -2,7 -2,10zm-182 -13c1,-3 3,-12 5,-13 2,0 1,0 2,3l3 10 -10 0zm12 7l1 6 11 0c-1,-3 -9,-31 -11,-32 -2,-1 -11,-1 -13,0 -2,1 -3,8 -4,10l-6 22 6 0 2 -7 11 0c2,0 2,-1 3,1zm141 5c5,3 14,2 19,0 2,0 3,-1 5,-2l0 -11 -9 0 0 7c-7,6 -15,-2 -14,-11 1,-5 3,-8 7,-9 5,-1 8,3 10,5 0,-1 5,-5 5,-6 -13,-10 -32,-5 -32,13 0,6 4,11 9,14zm83 0c2,2 8,1 12,1l0 -32 -5 0 0 22c-3,-3 -6,-12 -8,-16 -1,-3 -1,-6 -5,-6 -3,-1 -8,-1 -11,1l0 31 6 0 0 -24 11 23z"/>
    <path class="fil15" d="M1104 688c3,0 17,1 19,0l2 -1c0,0 0,0 1,0l10 0c5,0 11,0 17,0 0,0 1,0 1,0 1,0 1,0 1,0 1,0 1,0 1,0 0,0 0,0 0,0 1,0 1,0 1,0 4,-3 3,-2 10,-2 3,0 6,0 8,0 1,0 2,0 2,0 1,0 3,0 3,-1 0,-1 0,-1 0,-1 -1,-1 -1,-1 -2,-1 -7,0 -74,0 -75,1 -2,0 -2,1 -2,2 0,2 0,2 1,3 1,0 1,0 2,0zm47 -28c-3,0 -22,0 -23,0 0,0 0,0 -1,0 0,1 0,1 0,1 -1,2 0,4 1,5 0,0 1,0 1,0 0,0 0,0 0,0 0,0 0,0 0,0 1,0 21,0 22,0 2,-1 3,-3 3,-5l-2 -1c0,0 -1,0 -1,0zm-22 45c0,0 0,0 0,0 -2,0 -2,3 -2,4 1,1 1,1 3,1l16 0c1,0 1,0 2,-1l2 -1c1,-1 0,-1 1,-1 2,0 4,0 5,0 4,0 5,1 6,-1 0,-1 -1,-2 -3,-2 -3,0 -28,0 -29,1l-1 0zm-13 -32l12 0 3 -1c0,0 0,0 0,0 0,0 0,0 0,0l17 0c2,0 1,0 3,-1l1 0c1,-1 3,-1 6,-1 3,0 8,0 11,0 1,-3 -1,-2 -2,-2l-51 0c-1,0 -2,-1 -3,1 0,2 0,4 2,4 0,1 0,0 1,0zm0 30c3,0 11,0 13,-1 0,0 1,0 1,0l1 0c2,-1 18,0 20,-1l1 -1c1,0 1,0 3,0l11 0c1,0 2,0 3,0l0 -1c0,0 0,-1 0,-1 0,-1 0,-1 -2,-1l-51 0c-1,0 -1,0 -2,1 -1,1 -2,5 2,5zm-7 -22c2,0 14,0 16,-1l0 0c1,0 2,-1 4,-1l24 0c1,0 1,0 2,-1 1,0 1,0 1,0 2,-1 3,0 5,0l11 0c0,0 1,0 1,0 2,0 2,0 2,-2 0,0 0,0 0,-1 -1,0 -60,0 -66,0 -1,0 -2,0 -3,1 0,1 -1,5 3,5zm49 11l16 0c1,0 1,1 2,0 0,-1 0,-2 0,-2 -1,0 -1,0 -2,0l-65 0c-1,0 -3,0 -3,2 0,1 0,2 0,2 1,1 1,1 2,2 2,0 15,0 17,-1l2 0c0,0 0,0 0,0 1,-1 0,-1 1,-1l24 0c2,0 2,1 3,0 0,0 0,0 0,0 0,0 0,0 0,0l2 -1c1,-1 0,-1 1,-1z"/>
   </g>
   <g>
    <path class="fil16" d="M163 1137c0,1 2,12 3,17 3,10 6,18 12,26 3,5 9,13 13,16 8,8 19,16 30,20 4,1 10,4 15,4 -1,0 0,0 -1,0 0,0 -1,0 -1,0 -1,-1 -1,-1 -2,-1 -1,0 -3,-1 -4,-1 -8,-3 -13,-6 -20,-11 -7,-5 -14,-13 -20,-21 -18,-26 -19,-64 1,-92 3,-5 5,-7 9,-11 1,-1 2,-2 3,-3 1,-1 7,-5 8,-7 14,-9 29,-14 46,-15 8,0 12,1 19,2 8,1 23,7 29,11 4,2 8,4 11,7 3,3 8,7 11,10l8 10c3,4 6,9 8,13 3,7 6,14 7,22 1,2 1,6 2,8 1,-19 -6,-40 -16,-54 -4,-5 -5,-5 -8,-9l-6 -6c-3,-3 -6,-6 -9,-8 -33,-22 -74,-23 -107,-1 -2,1 -4,3 -6,5l-6 5c-13,12 -29,37 -29,64z"/>
    <path class="fil17" d="M236 1220c-5,0 -11,-3 -15,-4 -11,-4 -22,-12 -30,-20 -4,-3 -10,-11 -13,-16 -6,-8 -9,-16 -12,-26 -1,-5 -3,-16 -3,-17 -1,4 1,18 2,22 3,16 10,30 20,42 3,4 9,10 13,13 16,12 35,20 56,20 23,1 46,-7 62,-21l9 -8c7,-8 12,-16 17,-25 6,-13 8,-24 8,-39 -1,-2 -1,-6 -2,-8 -1,-8 -4,-15 -7,-22 -2,-4 -5,-9 -8,-13l-8 -10c-3,-3 -8,-7 -11,-10 -3,-3 -7,-5 -11,-7 -6,-4 -21,-10 -29,-11 2,1 6,2 8,3 3,0 5,1 8,2 7,3 14,8 19,12l3 3c1,1 2,1 2,2 11,11 19,25 23,40 13,56 -35,108 -93,100 -2,0 -6,-1 -8,-2z"/>
    <path class="fil18" d="M188 1147l0 -4c3,-1 5,0 8,0 2,0 5,-1 6,2 0,3 -3,3 -6,3 -3,0 -5,0 -8,-1zm0 -14c2,0 5,0 8,0 2,0 5,-1 5,2 0,3 -3,2 -5,2 -3,0 -6,0 -8,0l0 -4zm18 7c3,-5 0,-11 -5,-13 -3,0 -15,0 -19,0l0 26c4,0 18,1 21,0 2,-1 4,-3 5,-5 1,-4 -1,-6 -2,-8z"/>
    <path class="fil18" d="M251 1080c3,0 5,0 8,0 3,0 5,0 5,3 1,3 -3,2 -5,2 -3,0 -5,0 -8,0l0 -5zm0 -10c2,0 5,0 8,0 1,0 5,0 5,2 0,3 -3,3 -5,3 -3,0 -6,0 -8,0l0 -5zm-6 21c2,0 19,0 21,-1 5,-2 7,-9 2,-13 2,-2 3,-4 2,-7 -1,-3 -3,-4 -5,-5 -2,0 -18,0 -20,0l0 26z"/>
    <polygon class="fil18" points="251,1164 268,1164 268,1159 245,1159 245,1185 268,1185 268,1179 251,1179 251,1174 268,1174 268,1169 251,1169 "/>
    <polygon class="fil18" points="283,1133 300,1133 300,1127 276,1127 276,1154 300,1154 300,1148 282,1148 283,1143 299,1143 299,1137 282,1137 "/>
    <path class="fil18" d="M251 1196c3,0 5,0 8,0 2,0 5,0 5,3 0,3 -3,2 -5,2 -3,0 -6,0 -8,0l0 -5zm14 11c1,-1 1,-1 2,-2 4,-3 4,-10 -1,-13 -3,-2 -6,-1 -10,-1 -3,0 -8,0 -11,0l0 26 6 0 0 -10c8,0 6,-1 10,3 6,9 3,7 12,7 -1,-1 -1,-2 -2,-3 -1,-1 -1,-1 -2,-2 -1,-1 -1,-2 -2,-3 -1,-1 -1,-2 -2,-2z"/>
    <path class="fil18" d="M314 1133c5,0 12,-1 12,2 0,3 -3,3 -5,3 -2,0 -4,0 -7,0l0 -5zm12 10c3,-1 5,-3 5,-6 1,-4 -1,-7 -2,-8 -3,-2 -6,-2 -10,-2 -4,0 -8,0 -11,0l0 26 6 0 0 -10 5 0c1,3 6,8 7,10l7 0c0,-1 -1,-1 -1,-2 -2,-2 -5,-6 -6,-8z"/>
    <path class="fil18" d="M257 1103l4 9 -9 0 5 -9zm-16 19l6 0c4,-6 -2,-5 17,-5l2 5 7 0 -13 -26 -6 0 -13 26z"/>
    <path class="fil18" d="M227 1134l5 9 -9 0 4 -9zm-7 15l15 0c0,1 1,4 2,4l6 0c-2,-4 -4,-9 -6,-13l-7 -13 -6 0c-2,6 -9,19 -13,26l7 0 2 -4z"/>
    <path class="fil18" d="M254 1153l6 0c0,-10 -2,-7 4,-15 2,-2 3,-3 5,-5l4 -6c-7,1 -7,-1 -9,2l-7 10c-1,-1 -6,-8 -7,-9 0,-1 -1,-2 -2,-3l-7 0 12 17c1,1 1,7 1,9z"/>
   </g>
   <g>
    <path class="fil19" d="M593 1138c0,10 3,19 6,25 1,2 4,6 5,7 3,3 6,7 11,9l0 -28 -5 0 0 20 -7 -10c-2,-4 -4,-8 -5,-12 -3,-15 1,-28 9,-39 7,-10 22,-17 34,-17 8,0 14,1 20,4 2,1 4,3 7,4 5,4 12,12 14,18 4,9 5,12 5,22 0,9 -4,17 -9,23 -1,2 -3,6 -4,6l0 -19 -5 0 0 28c2,-1 7,-5 9,-7 6,-7 11,-15 12,-26 2,-9 1,-19 -3,-27 -1,-1 -1,-2 -1,-3 -1,0 -1,-1 -1,-1 -2,-4 -5,-8 -8,-11 -4,-4 -9,-8 -15,-10 -14,-6 -26,-6 -40,0 -17,7 -29,25 -29,44z"/>
    <path class="fil20" d="M879 1159l0 1c1,0 2,1 3,1l0 19c-1,0 -2,0 -3,1 0,3 0,2 11,2l0 -3c-1,0 -3,0 -3,-1l0 -16c0,-2 7,-5 8,0l0 17c-3,0 -2,1 -2,3l10 0 0 -3c-1,0 -3,0 -3,-1l0 -16c0,0 3,-3 5,-3 4,0 3,5 3,9 0,3 0,7 0,11 -3,0 -2,1 -2,3l10 0c0,-4 0,-2 -3,-3 0,-5 1,-17 0,-20 -1,-2 -4,-3 -7,-3 -3,1 -4,2 -6,4 -1,-4 -7,-4 -10,-3 -2,1 -2,2 -3,2l0 -3c-2,0 -6,1 -8,2z"/>
    <path class="fil19" d="M721 1128c-2,0 -2,-1 -3,-1l0 -15c5,0 11,0 11,8 0,5 -3,8 -8,8zm1 -18l-4 0 0 -13c1,0 9,-3 9,6 0,1 0,4 -1,5 -1,1 -2,2 -4,2zm-13 -16l0 2c1,1 3,1 4,1l0 30c-2,0 -2,1 -4,1l0 2 17 0c10,0 12,-15 4,-18 -3,-1 -3,0 -4,-1 3,-1 7,-4 7,-8 0,-3 0,-4 -3,-7 -3,-3 -9,-2 -13,-2 -2,0 -6,0 -8,0z"/>
    <path class="fil19" d="M879 1134c0,-6 2,-5 9,-5 4,1 4,2 4,4 0,3 -7,4 -10,3 -1,0 -3,-1 -3,-2zm6 -28c5,0 5,13 0,13 -5,0 -4,-9 -3,-11 0,-1 1,-2 3,-2zm-9 6c0,4 1,5 3,7 1,1 1,1 1,1 -3,1 -7,7 -2,8 0,1 -1,2 -2,2 -3,4 -1,9 7,9 4,0 9,-1 11,-4 2,-3 3,-10 -3,-10 -2,-1 -4,-1 -6,-1 -2,0 -7,0 -4,-3 1,-1 2,0 4,0 6,0 12,-6 6,-14l5 0 0 -2c-2,0 -3,0 -5,0 -3,0 -8,-3 -12,1 -2,1 -3,4 -3,6z"/>
    <path class="fil21" d="M762 1189c-4,0 -5,-1 -5,-4 0,-2 1,-2 1,-3 3,0 12,0 12,2 0,2 0,2 -1,4 -1,0 -2,0 -2,1 -1,0 -3,0 -5,0zm-4 -24c0,-8 6,-7 7,-4 1,1 3,11 -3,11 -3,0 -4,-4 -4,-7zm-4 -1c0,3 0,7 4,8l0 1c-2,0 -5,3 -5,5 0,3 2,2 3,4 -1,0 -4,2 -4,4l0 1c0,7 19,7 21,-2 1,-6 -2,-8 -8,-8 -2,0 -7,0 -7,-1 -1,-1 1,-2 1,-2 2,-1 6,1 10,-3 0,0 1,-1 1,-2 1,-2 1,-4 1,-6 -1,-2 -1,-2 -2,-3l4 0 0 -3 -5 1c-2,0 -4,-1 -6,-1 -4,0 -8,3 -8,7z"/>
    <path class="fil19" d="M814 1146l0 2c1,0 3,0 3,1l0 31c-1,0 -2,0 -3,1l0 2 10 0 0 -3c-1,0 -1,0 -2,0l0 -17c0,-1 2,-2 4,-2 2,0 3,0 3,3 1,1 0,4 0,5 0,4 0,7 0,11 -2,1 -2,0 -2,3l10 0 0 -3c-1,0 -2,0 -3,0 0,-4 1,-16 0,-19 -1,-2 -3,-4 -6,-4 -3,0 -4,2 -6,3l0 -16c-3,0 -6,2 -8,2z"/>
    <path class="fil22" d="M787 1093c0,2 -1,2 2,2l0 32c-1,0 -2,1 -3,1l0 2 11 0c0,-3 0,-2 -3,-3l0 -17c2,-1 2,-2 5,-2 4,0 3,5 3,8 0,4 0,7 0,11 -1,0 -2,1 -3,1 0,3 0,2 11,2 0,-2 0,-3 -3,-3 0,-4 0,-9 0,-14 0,-2 0,-4 -1,-6 -1,-2 -3,-2 -6,-2 -3,0 -4,1 -6,2l0 -15c-4,0 -5,1 -7,1z"/>
    <path class="fil21" d="M639 1120l0 67c0,1 2,1 5,1l0 -69c-3,0 -5,0 -5,1z"/>
    <path class="fil19" d="M630 1186c1,0 3,1 4,1l0 -67c0,-1 0,-1 -1,-1l-3 0 0 67z"/>
    <path class="fil21" d="M649 1187c2,0 3,-1 5,-1l0 -66c0,-1 0,-1 -1,-1l-4 0 0 68z"/>
    <path class="fil20" d="M726 1159l0 1 2 1 0 19c-3,0 -2,1 -2,3l10 0 0 -3c-2,0 -1,0 -3,0l0 -17c0,-1 3,-3 5,-3 3,0 3,5 3,9 0,3 0,7 0,11 0,0 -1,0 -2,0 -1,1 -1,0 -1,3l11 0 0 -3c-1,0 -3,0 -3,0 0,-5 0,-9 0,-14 0,-2 0,-4 -1,-6 -2,-4 -6,-4 -9,-2 -2,1 -2,2 -3,2 0,-3 1,-4 -2,-3 -2,1 -5,1 -5,2z"/>
    <path class="fil19" d="M848 1106c0,4 2,0 3,3l0 18c-1,0 -2,1 -3,1l0 2 10 0 0 -2c-1,0 -2,-1 -3,-1l0 -17c1,0 8,-6 9,2 0,5 0,10 0,15 -1,0 -2,1 -3,1l0 2 10 0c0,-2 0,-3 -3,-3 0,-5 0,-9 0,-14 0,-3 0,-5 -1,-6 -1,-2 -3,-3 -5,-3 -3,0 -5,2 -7,3l0 -3c-3,0 -4,2 -7,2z"/>
    <path class="fil19" d="M749 1128c-6,0 -5,-22 0,-22 3,0 4,2 5,4 1,4 1,10 0,14 -1,2 -2,4 -5,4zm0 3c2,0 4,-1 5,-2 8,-4 9,-25 -5,-25 -3,0 -5,2 -7,4 -3,5 -3,13 0,18 1,3 5,5 7,5z"/>
    <path class="fil21" d="M774 1106l0 0c3,0 4,5 4,9l-9 0c0,-4 2,-9 5,-9zm-9 11c0,3 0,7 2,10l2 2c6,4 13,0 13,-5l-2 0c-3,6 -11,3 -11,-7l13 0c0,-7 -1,-13 -8,-13 -7,0 -9,7 -9,13z"/>
    <path class="fil19" d="M909 1106c3,0 4,6 4,9l-9 0c0,-3 1,-9 5,-9zm-9 12c0,3 0,6 2,9 3,4 8,5 12,2 2,-1 3,-3 3,-5 0,0 -1,0 -2,0 -1,4 -11,6 -11,-7l13 0c0,-6 -1,-13 -8,-13 -7,0 -9,7 -9,14z"/>
    <path class="fil20" d="M786 1159l1 0c3,0 3,5 3,8l-8 0c0,-3 1,-8 4,-8zm-9 11c0,5 2,13 8,13l3 0c3,0 6,-3 7,-5 -1,-1 -1,-1 -2,-2 -1,1 -1,2 -2,3 -3,3 -9,1 -9,-9l13 0c0,-8 -1,-13 -9,-13 -6,0 -9,7 -9,13z"/>
    <path class="fil20" d="M851 1159c3,0 3,5 4,8l-9 0c0,-3 1,-8 5,-8zm-9 10c0,4 -1,7 2,10 0,2 1,2 2,3 4,3 12,1 13,-5l-2 -1c-3,6 -7,4 -9,1 -1,-2 -2,-5 -2,-7l13 0c0,-17 -12,-15 -15,-10 -1,2 -2,5 -2,9z"/>
    <path class="fil21" d="M710 1148l0 1c1,0 1,1 3,1l0 30c-1,0 -2,0 -3,1l0 2 11 0 0 -3c-1,0 -1,0 -3,0l0 -30c0,-2 3,1 3,-2 0,-1 0,-1 -1,-1l-10 0c0,0 0,0 0,1z"/>
    <path class="fil22" d="M799 1146l0 2 3 0 0 32c-3,0 -3,1 -3,3l11 0 0 -3c-2,0 -3,0 -3,-1l0 -35c-3,0 -5,2 -8,2z"/>
    <path class="fil19" d="M814 1107c0,1 2,1 3,1l0 19c-1,0 -2,1 -3,1l0 2 11 0 0 -2c-1,0 -3,-1 -4,-1l0 -12c0,-2 1,-4 2,-5 2,-2 3,0 5,0 4,-2 -1,-10 -6,-2l-1 1 0 -5c-1,0 -7,1 -7,3z"/>
    <path class="fil19" d="M923 1106l0 2c1,0 2,0 3,0l0 19c-1,0 -2,1 -3,1l0 2 11 0 0 -2c-1,0 -3,-1 -4,-1l0 -13c0,-3 2,-4 3,-5 2,0 2,1 4,1 2,-2 1,-5 -2,-5 -3,0 -3,3 -5,4l0 -5c-3,0 -5,2 -7,2z"/>
    <path class="fil21" d="M620 1183c2,0 5,3 5,0l0 -31c0,-2 -2,-1 -5,-1l0 32z"/>
    <path class="fil20" d="M659 1184c1,0 2,0 3,0 1,-1 1,-1 2,-1l0 -32 -5 0 0 33z"/>
    <path class="fil19" d="M627 1112c1,1 2,2 2,3 2,0 5,-4 7,-5 2,-1 4,-3 6,-5 2,2 4,4 6,5 1,1 5,5 7,5 0,-1 0,-1 1,-2 0,0 0,0 1,-1 -1,-1 -1,-1 -2,-2 -1,0 -1,0 -2,-1 -1,-1 -2,-2 -4,-3 -8,-7 -6,-7 -11,-3 -2,2 -10,8 -11,9z"/>
    <path class="fil21" d="M833 1106l0 2 3 0 0 19c-3,1 -3,0 -3,3l10 0 0 -2c0,0 -2,-1 -3,-1l0 -22c-3,0 -4,1 -7,1z"/>
    <path class="fil22" d="M865 1160c0,1 1,1 2,1l0 19c-3,0 -2,1 -2,3l10 0 0 -3c-4,0 -3,0 -3,-10 0,-4 0,-8 0,-13l-6 1c-1,1 -1,1 -1,2z"/>
    <path class="fil19" d="M866 1148c0,4 6,4 6,0 0,-4 -6,-5 -6,0z"/>
    <path class="fil20" d="M834 1095c0,4 7,4 7,0 0,-4 -7,-4 -7,0z"/>
   </g>
   <path class="fil23" d="M1723 1120c1,0 1,0 1,1 1,0 1,0 2,0 1,1 1,1 1,1 2,1 6,4 8,5 2,1 12,7 13,7 0,1 0,21 0,25 0,1 0,2 0,3 -1,0 -2,-1 -2,-2l-5 -8c-2,-4 -7,-12 -9,-16l-8 -13c0,-1 -1,-2 -1,-3zm184 69c1,3 6,3 6,-1 -1,-1 -2,-2 -4,-2 -1,0 -2,2 -2,3zm-255 0c1,4 6,3 5,-1 0,-3 -6,-2 -5,1zm78 16c-1,0 -5,0 -6,0 -2,0 -5,-1 -5,1 -1,2 2,2 4,2 2,0 5,0 7,0 0,-1 0,-2 0,-3zm-73 -9c-2,0 -2,0 -3,1 -1,1 -5,2 -3,3 1,0 1,-1 2,1 0,1 0,11 0,13 -1,0 -3,0 -3,1 1,1 2,1 3,1 1,0 2,0 4,0 1,0 2,0 3,-1 0,-1 -2,-1 -3,-1 -1,-3 1,-15 0,-18zm249 3c1,1 2,0 2,2l0 13c-2,1 -2,0 -2,1 -1,1 1,1 2,1 2,0 5,0 7,0l0 -2c-2,0 -3,1 -3,-3 0,-1 0,-3 0,-5 0,-12 1,-11 -4,-9 -2,1 -2,1 -2,2zm-102 14c0,2 -1,1 -2,2 0,2 2,1 4,1 2,0 4,0 5,0 0,-2 -1,-1 -2,-2 0,0 -1,-11 0,-13 1,-1 2,-1 3,-1 1,0 1,1 2,0 1,0 2,-1 2,-2 0,-1 -1,-1 -1,-2 -5,-1 -5,2 -6,2 0,0 0,-1 -1,-2 -1,0 -3,1 -4,2 -1,0 -3,0 -2,1 1,1 2,0 2,2 1,1 0,10 0,12zm-160 1c-2,-1 -2,2 -2,-7 0,-1 0,-3 0,-4 0,-2 1,-3 2,-3 2,-1 2,1 4,0 2,-1 2,-4 -3,-4 -2,1 -1,2 -3,2l0 -1c0,0 0,0 0,0 -1,-2 -2,-1 -4,0 -1,1 -1,1 -2,1 0,0 -1,0 -1,1 2,1 3,0 3,3 0,3 0,10 0,11 -1,2 -3,0 -3,3 1,0 4,0 5,0 4,0 5,0 4,-2zm38 -8c0,-6 0,-7 2,-7 1,0 3,0 2,-2 0,-1 -2,0 -3,0 -1,0 0,0 0,-1 -1,-1 0,-6 -1,-7 -1,-1 -1,0 -2,0 -1,1 -2,0 -2,1 0,2 0,5 0,6 -2,1 -3,0 -3,2 1,1 2,1 3,1 1,3 0,11 0,15 1,4 6,3 8,2 0,-1 2,-1 1,-3 -1,0 -1,0 -2,0 -1,1 -1,1 -2,1 -1,-2 -1,-6 -1,-8zm32 -22c-1,0 -2,0 -3,1 -2,1 -3,1 -3,3 1,0 2,-1 2,1 0,1 0,2 0,3 0,3 0,5 0,8l0 12c0,3 -3,1 -2,4 1,0 4,0 5,0 1,0 4,0 4,-1 -1,-2 -3,0 -3,-3 0,-6 1,-26 0,-28zm-52 32c1,0 1,0 3,0 2,0 4,1 8,-1 3,-2 2,-7 -1,-9 -1,-1 -4,-3 -6,-4 -1,-2 -1,-4 1,-4 3,0 5,3 5,3 1,1 1,1 1,1 1,-2 1,-2 1,-3 -1,-1 0,-1 -1,-2 -1,-2 -1,0 -2,0 -1,0 -1,-1 -3,-1 -8,0 -10,6 -2,11 2,1 7,5 3,7 -1,0 -4,0 -5,-1 -2,-2 -1,-3 -3,-3 -1,1 0,5 1,6zm158 0c2,0 2,1 5,0 6,-1 7,-7 2,-10 -2,-2 -7,-4 -6,-6 0,-1 1,-1 2,-2 2,-1 4,3 5,4 2,0 2,-1 1,-3 0,-1 0,-2 -1,-3 -1,0 -1,1 -3,1 -3,-1 -3,-1 -6,0 -3,0 -5,6 1,9 2,1 8,5 5,7 -2,2 -5,1 -7,-2 -3,-4 -2,4 -1,6 2,0 1,-1 3,-1zm-47 -18c-1,-2 -3,-1 -5,-1 -3,0 -4,-1 -4,1 0,1 1,0 2,2 1,1 1,1 1,2 1,2 1,2 2,4 0,1 0,1 1,2 0,1 1,2 1,3 2,4 3,3 0,7 0,1 -1,3 -2,4 0,0 -2,2 -1,3 1,0 3,0 4,0l10 -25c1,-2 2,-1 3,-2 -1,-2 -3,-1 -4,-1 -2,0 -3,0 -4,0 0,2 1,1 2,2 0,1 -1,5 -1,6l-2 5c-1,0 -1,-1 -2,-2l-1 -2c0,-1 -3,-6 -2,-7 0,-1 1,-1 2,-1zm28 13c-2,0 -3,2 -5,3 -8,2 -9,-8 -7,-12 2,-6 7,-4 7,0 0,2 -4,3 -6,4 -1,2 -1,4 3,2l6 -4c1,-1 4,-2 1,-5 -2,-2 -5,-2 -5,-3 -4,0 -6,1 -8,3 -4,3 -4,10 -3,13 2,2 4,4 6,4 3,1 5,1 9,-1 3,-2 2,-3 2,-4zm90 5c7,1 5,-1 7,-1l1 1c1,0 2,0 3,0 1,0 3,0 2,-1 0,-1 -1,-1 -2,-1l0 -16c0,-1 0,-1 0,-2 -1,0 -6,2 -7,3 1,1 3,0 3,3 0,1 0,3 0,5 0,2 0,4 -1,5 -2,2 -3,2 -5,1 -2,-1 -1,-3 -1,-5l0 -7c0,-4 1,-6 -5,-3 -2,0 -2,0 -2,1 1,1 2,1 2,2 1,4 -2,15 5,15zm-196 -17c3,-1 4,0 5,1 1,1 2,3 2,5 0,4 -1,8 -4,9 -2,0 -2,0 -3,0 -6,-1 -5,-14 0,-15zm11 10c1,-3 1,-3 0,-5 0,-2 0,-1 0,-2 -2,-3 -4,-5 -7,-6 -3,0 -7,1 -9,2 0,0 -1,1 -1,1 -3,3 -4,9 -1,14 2,4 10,5 15,2 2,-2 3,-4 3,-6zm176 -13c-2,-1 -2,0 -3,1 -1,0 -2,-1 -6,-1 -4,0 -6,2 -8,5 0,1 0,0 0,1 -1,2 -1,3 -1,4 0,2 0,4 1,6 1,2 1,2 3,3 3,2 9,2 8,-1 -1,-1 -3,1 -5,-1 -3,-2 -3,-15 4,-14 2,0 2,3 3,5l0 15c0,5 0,4 -3,5l0 1c1,0 8,0 9,0 1,-2 -1,-1 -2,-2l0 -24 0 -3zm57 16c0,0 -2,1 -2,1 -1,3 8,4 9,4 6,0 10,-4 10,-8 2,-12 -5,-12 -5,-13 -3,0 -7,0 -7,2 2,2 4,-1 6,1 1,2 2,4 2,7 0,2 0,5 -2,6 -1,3 -6,4 -6,-1 -1,-3 0,-24 -1,-27 -1,0 -1,0 -2,0 -1,1 -1,1 -2,1 -1,1 -2,1 -2,2 2,2 2,-1 2,5 0,2 0,4 0,7 0,2 0,4 0,7 0,2 0,5 0,6zm-9 -16c-2,0 -8,0 -6,3 0,0 1,0 1,0 1,0 1,-1 2,-1 0,0 2,1 2,1 3,4 2,18 -5,15 -2,-1 -1,-4 -1,-7l0 -22c-1,-1 -1,0 -1,-1 -1,0 -1,0 -2,1 -2,0 -4,1 -4,2 1,1 2,0 2,2 0,1 0,2 0,3 0,5 1,17 0,20 -1,1 -2,1 -2,2 1,2 18,7 20,-6 0,-1 0,-5 -1,-6 -2,-6 -4,-5 -5,-6zm-88 13c0,1 1,7 2,7 1,1 2,0 2,0 1,-1 2,0 3,0 2,1 7,1 9,0 2,-2 4,-4 5,-8 0,-9 -15,-12 -15,-18 0,-1 1,-3 3,-3 2,-1 4,0 5,0 2,1 2,2 3,4 1,0 4,2 2,-3 0,-2 0,-3 -1,-5 -2,1 -2,2 -4,1 -2,-1 -9,-1 -12,3 -1,3 -1,6 1,8 2,4 9,7 11,10 4,6 -2,11 -8,8 -3,-2 -4,-6 -6,-4zm-221 -23c2,0 5,1 6,3 0,1 0,1 0,2 1,8 -6,5 -7,7 -2,3 4,2 6,3 2,1 3,5 3,8 -1,3 -3,5 -7,5 -5,0 -4,-3 -4,-7 0,-4 0,-8 0,-12 0,-5 -1,-8 3,-9zm7 12c1,-1 3,-1 4,-4 1,-2 1,-5 0,-7 -1,-1 -1,-1 -2,-2 -4,-3 -15,-1 -18,1 -3,2 0,2 1,3 0,1 0,13 0,15 0,1 0,7 0,7 -1,1 -5,2 0,4 4,2 10,2 14,1 1,0 3,-1 5,-3 0,0 1,-1 1,-2 2,-5 1,-10 -4,-12 -1,0 -1,0 -1,-1zm120 4c-1,-1 -1,-1 -1,-2l-2 -3c-1,-2 -6,-11 -6,-12 -1,-1 -7,-1 -8,0 0,1 1,1 1,1 1,1 2,1 2,1 0,3 0,25 0,27 -1,0 -2,0 -3,1 1,1 2,1 3,1 1,0 3,0 4,0 1,0 2,0 2,-1 0,-1 -1,-1 -2,-1 -1,-2 -1,-20 0,-21 1,0 0,0 1,1l3 7c1,1 2,2 2,4 1,1 1,1 1,2l1 1c2,1 3,-1 4,-3l4 -8c0,-1 1,-4 2,-4 0,0 0,0 0,0 1,1 1,17 1,19 -1,3 -4,0 -3,3 1,1 3,1 5,1 2,0 4,0 6,-1 0,-3 -3,0 -3,-2l0 -23c0,-2 -1,-3 1,-4 1,0 2,0 1,-1 0,-1 -1,-1 -2,-1 -6,0 -5,0 -6,3l-4 6c0,2 -1,3 -2,5 -1,2 -1,4 -2,4zm37 -98c-1,-1 0,-24 0,-27 0,-1 0,-2 0,-2 1,0 2,-1 2,-1l19 -11c1,-1 3,-2 4,-2l-12 21c-2,2 -2,4 -4,6l-3 5c-1,2 -2,4 -3,6 -1,1 -2,5 -3,5zm-28 -43c1,0 7,3 8,4 1,0 1,1 2,1l12 7c2,1 3,2 4,2 0,1 0,18 0,22l-1 6c0,1 0,0 0,1 -1,-1 -1,-2 -1,-3 -2,-4 -6,-10 -8,-13 -2,-4 -6,-10 -8,-14 0,-1 -1,-1 -1,-2 -1,-2 -7,-11 -7,-11zm2 -3l50 0c0,1 -1,1 -3,2l-22 13c-1,0 -2,-1 -3,-2 -6,-2 -11,-6 -16,-9 -1,0 -5,-2 -6,-3 0,-1 0,-1 0,-1zm-7 -2c1,1 2,3 2,4l5 8c0,1 1,1 1,2 1,1 1,1 1,2 0,0 1,1 1,2 0,0 1,1 1,1l20 35c1,1 0,0 1,1 1,-1 3,-6 4,-7 1,-2 3,-6 5,-8 0,-1 0,-2 1,-2 2,-4 5,-10 7,-14l4 -7c2,-3 6,-10 8,-13 1,-1 2,-3 2,-4 -2,0 -52,0 -56,0 -1,0 -6,0 -7,0zm67 107c0,0 0,0 0,0l0 -2c0,-3 0,-26 0,-27 1,0 0,0 1,0 0,0 0,0 1,-1l8 -4c2,-2 4,-3 6,-4l5 -3c1,0 4,-2 5,-2l-6 9c0,1 0,0 0,1l-12 19c-1,3 -4,8 -6,11 -1,1 -1,2 -2,3zm-27 -43c1,0 25,14 25,14 0,2 0,27 0,29 -2,-1 0,-1 -2,-3l-23 -40zm1 -3c1,0 37,0 44,0l5 0c1,0 1,0 1,1 0,0 -1,1 -3,1 -1,1 -2,2 -3,2l-6 4c-2,1 -12,7 -13,7 -1,0 -5,-3 -6,-3l-11 -7c0,0 -1,0 -2,-1l-4 -2c0,0 -1,-1 -1,-1 -1,0 0,1 -1,-1zm45 19c1,-2 11,-20 11,-21l-16 0c-7,0 -46,0 -46,0 0,1 0,1 1,2 0,1 0,1 1,2l5 8c2,4 4,8 6,12 1,1 2,2 2,3 1,1 1,2 1,2l5 9c1,1 1,2 2,3l6 10c0,1 1,3 2,4l20 -34zm-115 -26c1,-1 17,-10 20,-11 6,-4 6,-5 8,-3 3,2 16,9 21,12 1,0 1,0 2,1 0,0 0,0 1,0 0,1 -1,1 -2,1 -2,0 -2,-1 -3,-1 -10,1 -21,0 -31,0 -3,0 -6,0 -9,0l-5 1c-1,0 -1,0 -2,0zm0 -3l9 -16c3,-4 6,-9 8,-14l6 -9c0,0 0,-1 0,-1l2 -3c0,1 0,19 0,23 0,7 1,5 -4,8l-17 10c-1,1 -3,2 -4,2zm27 -34c0,-2 0,-9 1,-9 0,0 1,2 1,3l8 13c0,1 1,2 2,3 1,3 6,10 7,13l3 6c1,1 3,4 3,5 -1,0 -2,-1 -3,-2 0,0 -1,0 -2,-1l-7 -4c-1,-1 -1,-1 -2,-1 0,0 -1,-1 -1,-1 -1,0 -9,-5 -10,-6l0 -19zm-32 39l62 0c1,-1 -1,-3 -1,-4 -1,0 -1,-1 -1,-2 -1,0 -1,-1 -1,-1l-12 -21c-1,-2 -3,-4 -4,-6 -1,-1 -1,-3 -2,-4 0,0 0,-1 -1,-1l-8 -15c0,-1 0,0 -1,-1 0,1 0,1 -1,2l-3 5c-1,2 -2,5 -4,7l-12 22c-1,0 -1,1 -1,2 -1,0 -1,1 -1,1l-5 9c-1,0 -1,1 -1,1 -1,1 -1,1 -1,2 -1,1 -2,3 -2,4zm41 56c0,-1 5,-3 6,-4l12 -7c1,0 6,-3 7,-3 0,0 20,11 24,14 1,0 0,-1 1,0 -1,0 0,0 -1,0l-48 1c-1,-1 -1,0 -1,-1zm-2 -2c0,-1 6,-10 7,-11l6 -11c1,-1 2,-3 3,-5l8 -15c1,0 1,0 1,-1 1,9 1,20 1,29 -3,1 -5,2 -7,3l-6 4c-1,0 -11,7 -13,7zm28 -43c1,0 1,2 2,3l4 8c3,3 4,6 7,10 1,3 4,8 6,11 0,1 6,10 6,11 -1,0 -2,-1 -3,-2 -3,-2 -10,-5 -13,-7 -2,-1 -4,-2 -6,-3l-2 -2c-2,-1 -1,-1 -1,-3 0,-4 -1,-25 0,-26zm-1 -7c-1,1 -1,1 -1,2 -1,1 -2,3 -3,5 -2,4 -8,12 -10,17l-6 10c-3,5 -5,9 -8,14l-3 5c0,1 -1,1 0,2 1,0 41,0 46,0 3,0 15,0 16,0 0,-1 0,-1 -1,-2l-3 -5c-3,-6 -8,-15 -12,-21l-15 -27zm9 -6c0,-1 11,-7 12,-8 2,-1 12,-7 13,-7 1,0 17,9 19,11 1,0 7,3 7,4 0,0 0,0 -1,0l-7 -1c-2,0 -38,0 -40,0 0,1 -3,1 -3,1zm-1 -3c0,-1 0,-1 0,-1 2,-2 3,-4 4,-6l2 -4c0,-1 1,-1 1,-2 4,-6 9,-15 11,-19l5 -8c1,-2 1,-2 2,-3 0,1 0,5 0,6 0,7 0,15 0,23 -1,0 -1,0 -2,1 0,0 -1,0 -1,1l-3 1c-5,3 -12,7 -16,10 -1,0 -1,0 -2,1 -1,0 -1,0 -1,0zm27 -15c0,-4 0,-10 0,-14 0,-1 0,-13 0,-14 1,0 1,0 1,1 1,2 5,7 6,10 1,2 2,4 3,5l6 11c1,2 9,15 9,16 0,0 -11,-6 -12,-7 -2,-1 -4,-3 -7,-4 -2,-1 -4,-2 -6,-4zm28 15l-4 -6c-2,-4 -4,-7 -6,-11l-3 -5c0,0 0,-1 -1,-1l-11 -21c-1,-1 -1,-2 -2,-3 0,0 -1,-2 -2,-3 0,0 0,0 0,0l-5 9c-1,2 -2,3 -3,5 0,1 0,1 -1,1l-20 36c-1,1 -2,2 -2,4 6,0 61,0 62,0 0,-2 -1,-3 -2,-5zm-96 55c0,0 0,0 0,0l-1 0c0,0 0,0 0,0l0 -28 22 -13c1,0 1,0 1,0l2 -1c0,0 0,0 0,0 0,0 0,0 1,0 0,0 -1,2 -2,2 -1,2 -7,13 -9,16l-13 23c-1,1 -1,1 -1,1zm-27 -44c1,-1 3,-1 4,-1 5,1 21,0 26,0 7,0 13,1 20,0 0,1 -1,2 -2,2l-16 9c-1,1 -5,4 -6,4 -1,0 -3,-1 -4,-2l-18 -10c-1,-1 -3,-2 -4,-2zm56 -3c-1,0 -61,0 -62,0 0,1 1,3 2,4l15 27c1,1 2,2 2,3 2,3 3,5 4,7l6 10c1,1 1,1 1,2 1,1 1,1 1,2 1,-1 5,-8 5,-9 1,-1 1,-1 1,-2l12 -20c1,-3 13,-22 13,-24z"/>
   <g>
    <path class="fil24" d="M1647 634c8,-2 12,11 4,13 -9,3 -13,-10 -4,-13zm29 95c11,-13 9,-36 -5,-46 -9,-6 -13,-4 -16,-7 -5,-4 -2,-13 -6,-18 0,-4 1,-5 3,-7 5,-4 10,-9 3,-17 -2,-2 -6,-3 -10,-1 -9,4 -1,14 -13,15 -9,0 -15,4 -18,10 -6,9 -3,23 6,28 3,1 6,3 3,13 -4,15 4,32 19,38 12,4 25,1 34,-8zm-30 0c-5,-1 -9,-4 -12,-9 -6,-9 -4,-21 3,-28 13,-13 35,-7 37,12 2,17 -12,29 -28,25zm-3 -69c10,13 -7,32 -22,19 -14,-17 9,-36 22,-19z"/>
    <path class="fil25" d="M1788 656c-3,1 -21,1 -25,0 0,-2 -1,-8 1,-9 6,0 13,0 19,0 3,0 6,0 7,3 1,3 1,5 -2,6zm-32 19l7 0 0 -11 1 0c6,2 17,11 22,11l12 0c-5,-3 -18,-9 -22,-12 11,-1 23,2 22,-12 0,-6 -2,-5 -4,-8l-8 -2 -30 0 0 34z"/>
    <path class="fil25" d="M1801 642l0 33 7 0 0 -24c8,5 27,24 31,24 4,0 4,-2 4,-5l0 -28 0 -1 -7 0 0 24 -1 -1c-2,-1 -3,-2 -4,-3l-20 -17c-4,-3 -4,-4 -10,-2z"/>
    <path class="fil25" d="M1722 660c2,-3 5,-7 6,-10l8 10 -14 0zm-13 4c-1,5 -5,8 -7,12 5,-1 6,0 11,-2 0,-2 3,-5 4,-8l24 0c1,2 5,7 6,9l8 0c0,-1 0,0 0,-2 -2,-1 -18,-25 -21,-30 -9,-11 -18,18 -25,21z"/>
    <path class="fil25" d="M1670 642c-9,3 -7,9 -7,19 0,10 2,13 12,14l27 0 0 -6c-9,0 -24,1 -31,-2 0,-3 -1,-16 0,-18 3,-3 11,-2 15,-2 5,0 11,0 16,0l0 -7c-10,2 -22,-1 -32,2z"/>
    <polygon class="fil25" points="1887,647 1903,647 1903,675 1910,675 1910,647 1926,647 1926,640 1887,641 "/>
    <path class="fil25" d="M1847 669c2,4 4,5 10,6l18 -1c3,-1 1,1 0,-1l6 -3c-2,-1 -1,0 -2,-2 -3,0 -24,2 -25,-2l0 -17c1,-1 1,-1 3,-1 0,-1 0,-1 1,-2 7,0 7,2 11,-1 -13,0 -6,-1 -12,-1 -4,-1 -4,1 -4,-2 -5,1 -7,5 -7,11 0,5 0,11 1,16z"/>
    <path class="fil25" d="M1853 642c0,3 0,1 4,2 6,0 -1,1 12,1 -4,3 -4,1 -11,1 -1,1 -1,1 -1,2 7,-2 18,-2 22,1 1,5 1,16 0,19 1,2 0,1 2,2l-6 3c1,2 3,0 0,1l-18 1 21 0c5,-2 9,-3 9,-9 0,-5 0,-15 0,-20 -3,-1 -1,-2 -6,-4 -2,-1 -6,-1 -9,-1 -4,0 -16,-1 -19,1z"/>
    <path class="fil26" d="M1934 647c-4,-15 17,-17 20,-5 3,15 -18,17 -20,5zm7 -15c-17,4 -11,29 6,25 16,-4 10,-29 -6,-25z"/>
    <path class="fil27" d="M1732 701l0 -6c4,0 9,-1 12,0 2,8 -2,6 -12,6zm0 -8l0 -7c5,0 8,0 12,1l0 5c-3,1 -8,1 -12,1zm-3 10c4,0 8,0 11,0 2,0 4,0 5,-1 3,-1 1,0 2,-2 1,-4 1,-5 -3,-7 4,-2 3,-3 2,-7 -4,-2 -11,-2 -17,-1l0 18z"/>
    <path class="fil28" d="M1861 686c5,0 9,0 12,1 1,4 1,4 -1,7l-11 0 0 -8zm-3 6c0,5 -1,10 1,11 2,-1 2,3 2,-7 4,0 8,-1 12,0 2,10 -1,6 2,7 2,-1 1,0 1,-4 0,-3 -1,-3 -3,-4 3,-1 4,-2 3,-5 0,-8 -15,-6 -18,-5l0 7z"/>
    <path class="fil29" d="M1776 694l0 -8c4,0 13,-1 13,4 1,5 -8,4 -13,4zm-3 9l3 0 0 -7c2,0 11,-1 11,1 3,1 1,1 2,3 0,4 -2,2 1,3 2,-1 1,0 1,-2 1,-5 -1,-6 -3,-6 3,-1 4,-2 4,-5 -1,-7 -8,-5 -17,-5 -1,0 -2,-1 -2,4l0 14z"/>
    <path class="fil28" d="M1767 701c-4,1 -10,1 -14,0 -1,-4 -1,-10 0,-14 3,-1 11,-2 13,1 3,2 1,10 1,13zm-17 -1c2,3 3,3 7,3 3,0 7,1 10,0 5,-2 3,-12 3,-16 -4,-2 -12,-4 -17,-2 -5,2 -3,10 -3,15z"/>
    <path class="fil29" d="M1909 700l1 2c5,1 19,4 16,-6 -2,-8 -16,3 -14,-9 2,-1 3,-1 7,-1 3,0 4,0 4,4l3 0c-1,-6 -5,-6 -11,-6 -6,1 -8,4 -5,9 4,4 10,0 14,3 0,4 0,5 -3,5 -13,2 -7,-3 -12,-4 -1,1 0,0 0,3z"/>
    <path class="fil28" d="M1852 688c1,4 0,9 -1,13 -4,1 -9,1 -13,0 -1,-3 -2,-12 0,-14 2,-2 11,-1 14,1zm-17 3c0,4 0,8 1,11 4,1 13,3 17,0 2,-2 2,-7 2,-9 -1,-8 -2,-9 -10,-9 -7,0 -10,0 -10,7z"/>
    <path class="fil28" d="M1890 687c3,-2 11,-1 13,1 3,3 1,10 0,13 0,0 -1,0 -1,0 -2,1 -10,1 -12,0 -2,-2 -1,-11 0,-14zm-4 12c2,4 3,4 8,4 5,1 8,0 11,-1 2,-5 2,-11 0,-16 -6,-2 -13,-2 -18,0 -1,4 -1,8 -1,13z"/>
    <path class="fil28" d="M1711 696l5 -9c1,2 4,7 4,10l1 1 -10 0 0 -2zm-5 6c0,2 0,1 2,1 2,-2 1,-2 3,-4l9 0c3,1 1,-1 2,2l1 2 3 0c-1,-3 -3,-6 -4,-10 -1,-1 -2,-3 -2,-5l-3 -3c0,0 0,0 0,0l-3 0 -8 17z"/>
    <path class="fil28" d="M1800 696l4 -9c1,1 4,7 5,10l0 1 -10 0 1 -2zm-3 7c0,-5 4,-4 14,-4 1,4 0,4 4,4 -2,-3 -4,-6 -4,-10 -2,-1 -1,0 -2,-2 -1,-2 -1,-3 -3,-6l-4 0 -8 18 3 0z"/>
    <path class="fil30" d="M1941 640c3,0 5,-1 5,3 -2,1 -2,1 -5,1l0 -4zm-2 12c2,-1 1,0 2,-3 0,0 0,-3 0,-3 7,0 1,6 8,5 -1,-2 -1,-3 -3,-5l1 -1c5,-5 1,-9 -9,-7l0 11c0,3 -1,1 1,3z"/>
    <path class="fil31" d="M1823 703l3 0 0 -12c0,-1 0,-2 0,-3 0,-2 -1,-1 1,-1 3,0 6,0 6,-2 -1,-1 -13,-1 -16,0 -2,0 -1,0 -2,0 2,2 1,1 8,2l0 16z"/>
    <polygon class="fil29" points="1693,685 1690,684 1690,703 1705,703 1705,701 1693,701 "/>
    <path class="fil28" d="M1883 703c-1,-5 0,-12 0,-17l0 -1 -3 0 0 18 3 0z"/>
   </g>
   <g>
    <g>
    </g>
    <g style="clip-path:url(#id0)">
     <g>
      <path class="fil32" d="M1101 1148c103,69 217,-69 347,36 0,0 -95,-38 -223,-1 -88,25 -124,-35 -124,-35z"/>
     </g>
    </g>
    <path class="fil33" d="M1101 1142l347 0 0 47 -347 0 0 -47zm0 0z"/>
    <g>
     <path class="fil34" d="M1149 1094c0,0 0,0 -1,1 0,-1 0,-1 0,-1 -1,-1 -2,-1 -3,-1 -1,0 -1,0 -2,1 0,0 0,1 0,1 -1,0 -1,-1 -1,-1 -1,0 -2,-1 -3,0 0,0 -1,0 -1,1 0,0 -1,1 -1,2 0,-1 -1,-1 -1,-1 -1,-1 -1,-1 -2,-1 -1,1 -2,1 -2,2 0,0 0,1 0,2 0,-1 -1,-1 -1,-1 -1,0 -2,0 -3,0 0,1 -1,1 -1,2 0,0 0,1 0,2 0,-1 -1,-1 -1,-1 -1,0 -2,0 -3,1 0,0 0,1 0,2 0,0 0,0 0,0 0,0 0,1 0,1 -1,0 -1,0 -1,0 -1,0 -2,0 -3,1 0,0 0,1 0,2 0,0 0,0 0,0 0,0 0,1 0,2 0,0 -1,0 -1,0 -1,0 -2,0 -2,1 -1,0 -1,1 -1,1 0,0 0,1 1,1 0,0 0,1 0,1 0,1 -1,1 -1,1 -1,0 -2,0 -2,1 0,0 0,1 0,1 0,1 0,1 0,2 0,0 1,0 1,1 0,0 -1,0 -1,0 -1,0 -2,1 -2,2 0,0 0,0 0,0 0,1 0,2 1,2 0,0 0,1 1,1 -1,0 -1,1 -1,1 -1,0 -2,1 -2,2 0,0 0,0 0,0 0,1 1,2 1,2 0,0 1,1 1,1 0,0 -1,1 -1,1 0,0 -1,1 -1,2 0,0 0,0 0,0 0,1 1,2 2,2 0,0 0,0 1,0 -1,1 -1,1 -1,1 -1,1 -1,2 -1,2 0,0 0,1 0,1 0,1 1,1 2,2 0,0 1,0 1,0 0,0 -1,1 -1,1 0,0 0,1 0,2 0,0 0,0 0,0 0,1 1,2 2,2 0,0 1,0 1,0 0,1 0,1 0,1 -1,1 -1,1 -1,2 0,0 0,0 1,1 0,1 1,1 2,1 0,0 1,0 1,0 0,1 0,1 0,1 0,1 0,1 0,1 0,1 0,1 0,2 1,0 2,1 3,1 0,0 0,-1 1,-1l0 2c0,0 0,0 0,0 0,1 0,2 0,2 1,1 2,1 3,0 0,0 1,0 1,0 0,1 0,1 0,1 0,1 1,2 1,3 1,0 2,0 3,0 0,0 1,-1 1,-1 0,0 0,1 0,1 0,1 1,2 2,2 1,1 1,0 2,0 0,0 1,-1 1,-1 0,1 1,1 1,1 0,1 1,2 1,2 1,0 2,0 3,-1 0,0 0,0 1,-1 0,1 0,2 0,2 1,0 1,1 2,1 1,0 2,0 3,-1 0,0 0,-1 0,-1 1,0 1,1 1,1 1,1 2,1 2,1 1,0 2,-1 2,-1 0,0 1,-1 1,-2 0,1 1,1 1,1 1,1 1,1 2,1 1,0 2,-1 2,-2 0,0 0,0 1,-1 0,0 1,1 1,1 0,0 1,1 2,0 1,0 1,-1 2,-2 0,0 0,-1 0,-1 0,0 1,1 1,1 1,0 2,0 2,0 1,-1 2,-2 2,-3 0,0 0,0 0,-1 0,0 1,0 1,0 1,1 2,1 2,0 1,0 1,-1 1,-2 0,0 0,0 0,0 0,0 0,-1 0,-2 0,0 1,1 1,1 1,0 2,-1 3,-1 0,-1 0,-1 0,-2 0,0 0,0 0,-1 0,0 0,0 0,-1 0,0 1,0 1,0 1,0 2,0 2,-1 0,-1 0,-1 0,-1 0,-1 0,-1 0,-2 0,0 0,0 0,-1 0,0 1,0 1,0 1,0 1,-1 2,-2 0,0 0,0 0,0 0,-1 0,-2 0,-2 0,0 -1,-1 -1,-1 0,0 1,0 1,0 1,-1 1,-1 2,-2 0,0 0,-1 0,-1 0,0 -1,-1 -1,-2 0,0 -1,0 -1,-1 0,0 1,0 1,0 1,0 2,-1 2,-2 0,0 0,0 0,0 0,-1 -1,-2 -1,-2 0,0 -1,-1 -2,-1 1,0 2,-1 2,-1 0,0 1,-1 1,-2 0,0 0,0 0,0 0,-1 -1,-2 -2,-2 0,0 -1,-1 -1,-1 0,0 1,-1 1,-1 0,0 1,-1 1,-2 0,0 0,0 0,0 -1,-1 -1,-2 -2,-2 0,0 -1,0 -1,0 0,-1 1,-1 1,-1 0,-1 0,-1 0,-2 0,0 0,-1 0,-1 -1,-1 -1,-1 -2,-1 0,0 -1,0 -1,-1 0,0 0,-1 0,-1 0,0 0,-1 0,-1 0,0 0,-1 0,-1 0,-1 -1,-1 -2,-1 0,0 -1,0 -1,0 0,-1 0,-2 0,-2 0,0 0,0 0,0 0,-1 0,-2 0,-2 -1,-1 -2,-1 -3,-1 0,0 -1,0 -1,0 0,0 0,-1 0,-1 0,0 0,0 0,0 0,-1 0,-2 -1,-2 0,-1 -1,-1 -2,-1 0,0 -1,0 -1,1 0,-1 0,-2 0,-2 0,-1 -1,-1 -2,-2 0,0 -1,0 -2,0 0,0 -1,0 -1,1 0,-1 0,-2 0,-2 -1,-1 -1,-1 -2,-2 -1,0 -2,0 -2,1 0,0 -1,0 -1,1 -1,-1 -1,-2 -1,-2 0,-1 -1,-1 -2,-1 -1,-1 -1,0 -2,0 0,0 -1,1 -1,1 0,0 -1,-1 -1,-1 0,-1 -1,-1 -2,-1 0,0 -1,0 -2,1z"/>
     <g>
      <path class="fil35" d="M1148 1099l3 -4 2 5 4 -4 1 5 4 -3 1 5 4 -3 0 5 5 -1 -1 4 5 0 -2 4 5 0 -2 4 5 1 -4 4 5 1 -3 4 4 2 -4 3 4 3 -4 2 3 3 -5 2 4 4 -5 0 2 5 -5 -1 2 5 -5 -1 1 5 -5 -2 0 5 -4 -2 -1 5 -4 -3 -1 5 -4 -4 -2 5 -3 -5 -2 5 -3 -5 -3 4 -1 -5 -4 3 -1 -5 -4 2 0 -5 -5 2 1 -5 -5 1 2 -5 -5 1 2 -5 -5 0 3 -4 -4 -2 3 -3 -4 -2 4 -3 -4 -3 4 -2 -3 -4 4 -1 -3 -4 5 -1 -2 -4 5 0 -2 -4 5 0 -1 -4 5 1 0 -5 4 3 1 -5 4 3 1 -5 3 4 3 -5 2 4zm0 0l0 0 0 0z"/>
     </g>
    </g>
    <circle class="fil36" cx="1148" cy="1131" r="30"/>
    <g>
     <path class="fil34" d="M1325 1144c0,0 0,0 0,0 -2,0 -3,-2 -3,-6 0,-4 1,-7 3,-7 0,0 0,0 1,0 -1,2 -1,4 -1,7 0,2 0,4 0,6l0 0zm102 -21c0,0 0,-2 -1,-3 1,-1 1,-2 1,-3 0,-5 -3,-7 -6,-7l-1 0c0,0 0,0 -1,0 0,0 0,0 0,0l-2 0c0,0 0,0 0,0 0,0 -1,0 -1,0l-1 0c-2,0 -4,2 -4,4l-8 0c-1,0 -2,0 -3,1 -1,-1 -2,-1 -3,-1l-9 0c-1,0 -1,0 -2,0 -1,0 -1,0 -2,0l-9 0c-2,0 -4,2 -4,4l0 26 -1 0 0 -26c0,-2 -2,-4 -4,-4l-9 0c-2,0 -4,2 -4,4 -3,-3 -6,-5 -11,-5 -4,0 -7,1 -10,4 0,-1 -1,-2 -2,-3 -2,-1 -5,-1 -7,-1 -5,0 -10,2 -13,6l0 -1c0,-2 -2,-4 -4,-4l-8 0c-1,0 -3,0 -3,1 -1,-1 -2,-1 -4,-1l-8 0c-3,0 -4,2 -4,4l0 0c-3,-3 -7,-5 -12,-5 -5,0 -9,2 -12,6 -3,-3 -8,-5 -13,-5l-10 0c-2,-8 -10,-14 -20,-14l-13 0c-2,0 -4,2 -4,4l0 54c0,2 2,4 4,4l13 0c7,0 12,-2 15,-4 0,2 2,4 4,4l10 0c0,0 1,-1 2,-1 0,0 1,1 2,1l10 0c1,0 3,-1 3,-2 0,0 0,0 0,0 3,2 6,2 9,2 2,0 8,0 12,-5l0 1c0,2 1,4 4,4l8 0c1,0 2,-1 3,-2 1,1 2,2 3,2l9 0c2,0 4,-2 4,-4l0 -2c4,4 8,6 13,6 2,0 5,0 7,-1 1,-1 2,-1 2,-2 3,2 6,3 10,3 2,0 7,0 11,-4 0,2 2,4 4,4l16 0c0,0 1,0 1,-1 0,1 1,1 1,1l9 0c1,0 1,0 2,-1 1,1 1,1 2,1l8 0c1,0 3,-1 3,-2 1,1 2,2 4,2l8 0c3,0 4,-2 4,-4l0 -30 0 0c1,0 1,0 1,0 0,0 0,0 0,0l1 0c0,0 0,0 1,0 0,0 0,0 0,0l1 0c0,0 0,0 1,0 0,0 0,0 0,0l1 0c0,0 0,0 1,0 0,0 0,0 0,0l1 0c1,0 3,-1 3,-2 1,-1 1,-2 1,-2 0,-1 0,-1 0,-1z"/>
    </g>
    <g>
     <path class="fil37" d="M1376 1158l9 0 0 -40 -9 0 0 40zm-9 -40l-9 0 0 40 16 0 0 -10 -7 0 0 -30zm-58 20c0,7 2,12 5,16 3,3 6,5 10,5 2,0 4,0 6,-1l0 -10c-2,1 -3,1 -4,1 -4,0 -7,-4 -7,-11 0,-7 3,-11 7,-11 1,0 2,1 4,1l0 -9c-2,-1 -4,-1 -6,-1 -9,0 -15,8 -15,20l0 0zm95 -20l0 21 -6 -21 -9 0 0 40 8 0 0 -20 7 20 8 0 0 -40 -8 0zm-105 21l-6 -21 -9 0 0 40 8 0 0 -20 6 20 9 0 0 -40 -8 0 0 21zm44 10c-3,0 -3,-3 -3,-11 0,-7 0,-11 3,-11 3,0 4,4 4,11 0,8 -1,11 -4,11l0 0zm0 -31c-8,0 -13,7 -13,20 0,14 5,21 13,21 8,0 13,-7 13,-21 0,-13 -5,-20 -13,-20l0 0zm-75 31c-3,0 -3,-3 -3,-11 0,-7 0,-11 3,-11 3,0 4,4 4,11 0,8 -1,11 -4,11l0 0zm0 -31c-8,0 -13,7 -13,20 0,14 5,21 13,21 8,0 13,-7 13,-21 0,-13 -5,-20 -13,-20l0 0zm-26 21l0 -12 0 0c2,0 3,2 3,5 0,3 -1,7 -3,7l0 0zm13 -8c0,-8 -4,-13 -12,-13l-11 0 0 40 10 0 0 -15 4 15 10 0 -7 -17c4,-2 6,-6 6,-10l0 0zm-41 16l-1 0 0 -15c3,0 6,4 6,7 0,6 -3,8 -5,8l0 0zm-1 -30l1 0c1,0 4,2 4,6 0,3 -2,6 -5,7l0 -13zm9 15c5,-2 8,-6 8,-12 0,-9 -7,-15 -17,-15l-13 0 0 53 13 0c11,0 18,-3 18,-13 0,-7 -3,-12 -9,-13z"/>
    </g>
    <g>
     <path class="fil35" d="M1375 1158l9 0 0 -40 -9 0 0 40zm-9 -40l-9 0 0 40 16 0 0 -10 -7 0 0 -30zm-58 19c0,8 2,13 5,17 3,3 6,4 10,4 2,0 4,0 6,-1l0 -10c-2,1 -3,1 -4,1 -4,0 -7,-3 -7,-10 0,-8 3,-11 7,-11 1,0 2,0 4,1l0 -10c-2,-1 -4,-1 -6,-1 -9,0 -15,8 -15,20l0 0zm95 -19l0 21 -6 -21 -9 0 0 40 8 0 0 -20 7 20 8 0 0 -40 -8 0zm-105 21l-7 -21 -8 0 0 40 8 0 0 -20 6 20 9 0 0 -40 -8 0 0 21zm44 9c-3,0 -4,-3 -4,-11 0,-7 1,-10 4,-10 3,0 4,3 4,10 0,8 -1,11 -4,11l0 0zm0 -31c-8,0 -13,7 -13,21 0,13 5,20 13,20 8,0 13,-7 13,-20 0,-14 -5,-21 -13,-21l0 0zm-75 31c-3,0 -4,-3 -4,-11 0,-7 1,-10 4,-10 3,0 4,3 4,10 0,8 -1,11 -4,11l0 0zm0 -31c-8,0 -13,7 -13,21 0,13 5,20 13,20 8,0 13,-7 13,-20 0,-14 -5,-21 -13,-21l0 0zm-26 21l0 -12 0 0c2,0 3,2 3,5 0,4 -1,7 -3,7l0 0zm13 -8c0,-7 -4,-12 -12,-12l-11 0 0 40 10 0 0 -16 4 16 10 0 -7 -18c4,-2 6,-5 6,-10l0 0zm-42 17l0 0 0 -16c3,0 6,4 6,7 0,7 -3,9 -6,9l0 0zm0 -30l1 0c1,0 4,2 4,6 0,3 -2,6 -5,6l0 -12zm9 14c5,-1 8,-5 8,-12 0,-9 -7,-15 -17,-15l-13 0 0 54 13 0c11,0 18,-4 18,-14 0,-7 -3,-11 -9,-13z"/>
    </g>
    <g>
     <path class="fil37" d="M1416 1115l1 0 1 4c0,0 0,1 0,2 0,-1 0,-2 0,-2l0 -4 2 0 0 9 -1 0 0 -4c0,-1 0,-2 0,-3l-1 7 -1 0 0 -7c0,1 0,2 0,3l-1 4 -1 0 1 -9zm0 0l0 0 0 0z"/>
    </g>
    <g>
     <path class="fil37" d="M1422 1119c1,0 1,0 1,-1 0,-1 0,-2 -1,-2 0,0 0,0 0,0l0 3c0,0 0,0 0,0l0 0zm-1 -4l1 0c1,0 2,1 2,3 0,1 0,2 -1,2l1 4 -1 0 -1 -4 0 4 -1 0 0 -9zm0 0l0 0 0 0z"/>
    </g>
    <g>
     <path class="fil35" d="M1415 1114l1 0 1 4c0,1 0,2 0,3 0,-2 0,-3 0,-3l0 -4 2 0 0 10 -1 0 0 -5c0,-1 0,-2 0,-3l-1 8 -1 0 0 -8c0,1 0,2 0,3l-1 5 -1 0 1 -10zm0 0l0 0 0 0z"/>
    </g>
    <g>
     <path class="fil35" d="M1421 1118c1,0 1,0 1,-1 0,-1 0,-1 -1,-1 0,0 0,0 0,0l0 2c0,0 0,0 0,0l0 0zm-1 -4l1 0c1,0 2,1 2,3 0,1 0,2 -1,2l1 5 -1 0 -1 -4 0 4 -1 0 0 -10zm0 0l0 0 0 0z"/>
    </g>
    <g>
     <path class="fil35" d="M1165 1145l-1 0 0 0 0 0 0 1 1 -1 0 0zm-15 -30c1,0 1,0 1,-1 0,0 0,0 -1,0 0,0 0,0 0,0 0,1 0,1 0,1l0 0zm15 27c0,0 0,0 0,0 0,0 0,0 0,0 -1,0 -1,0 -1,-1 -1,0 -1,0 -1,0 0,0 0,0 0,0 -1,0 -1,0 -1,0 0,0 0,0 -1,0 1,0 1,0 2,0 0,0 1,0 1,0 0,0 0,0 0,0 0,-1 0,-1 0,-1 -1,0 -1,-1 0,-1 1,1 1,1 1,1 0,0 0,1 0,1 0,0 0,1 0,1 0,0 0,0 0,0l0 0zm0 1c0,0 0,0 0,0 0,0 0,-1 0,-1 0,0 0,0 0,0 0,0 0,1 0,1l0 0zm0 1c0,0 0,0 0,0 0,0 0,0 0,0 0,0 0,0 0,-1 0,1 0,1 0,1l0 0zm0 2c0,0 0,0 0,0 0,-1 0,-1 0,-2 0,0 0,0 0,0 0,1 0,1 0,2l0 0zm0 0c0,0 0,0 0,0 0,0 0,0 0,0 0,0 0,0 0,0 0,0 0,0 0,0l0 0zm0 0c0,1 0,1 0,1 0,0 0,0 0,-1 0,0 0,0 0,0 0,0 0,0 0,0l0 0zm-1 -3c0,0 0,-1 0,-1 0,0 0,0 1,0 0,0 0,1 0,1 0,0 -1,0 -1,0l0 0zm1 1c0,0 0,0 0,0 0,0 -1,0 -1,0 0,0 0,0 0,0 0,0 1,0 1,0l0 0zm0 2c-1,0 -1,0 -2,0 0,-1 0,-1 0,-1 0,0 0,0 0,0l0 0 0 0 0 0c0,0 0,0 0,0 0,0 0,0 0,0 1,0 1,-1 2,-1 0,1 0,1 0,2l0 0zm0 0c-1,0 -1,0 -2,0 0,0 0,0 0,0 1,0 1,0 2,0 0,0 0,0 0,0l0 0zm0 1c0,0 -1,0 -1,0 0,0 0,0 -1,0 0,0 0,0 0,0 1,0 1,0 2,-1 0,1 0,1 0,1l0 0zm-2 -2c0,0 0,0 0,0 0,0 0,0 0,0 0,0 0,0 0,0l0 0zm0 2c0,0 0,0 0,0 0,-1 0,-1 -1,-1 1,0 1,0 1,0 0,0 0,1 0,1l0 0zm0 1c0,0 0,0 0,0 0,0 0,0 0,0 0,-1 0,-1 0,-1 0,1 0,1 0,1l0 0zm0 2c0,0 0,0 0,0 0,-1 0,-1 0,-2 0,0 0,0 0,0 0,1 0,1 0,2l0 0zm0 0c0,0 0,0 0,0 0,0 0,0 0,0 0,0 0,0 0,0 0,0 0,0 0,0l0 0zm0 1c0,0 0,0 0,0 0,0 0,0 0,0 0,0 0,0 0,0 0,0 0,0 0,0l0 0zm0 -1c-2,0 -3,0 -4,0l0 0c0,0 0,0 0,-1 0,0 0,0 0,-1 1,1 2,1 4,0 0,1 0,1 0,2l0 0zm0 0c-1,1 -2,1 -2,1 0,0 0,0 0,-1 0,0 1,0 2,0 0,0 0,0 0,0l0 0zm-1 1c0,0 0,0 0,1 0,0 -1,0 -1,0 0,0 0,-1 0,-1 0,0 1,0 1,0 0,0 0,0 0,0l0 0zm-2 0c0,0 0,0 -1,0 0,-1 0,-1 0,-1 1,0 1,0 1,0 0,1 0,1 0,1l0 0zm0 1c0,0 -1,0 -1,0 0,-1 0,-1 0,-1 1,0 1,0 1,0 0,0 0,1 0,1l0 0zm-1 -2c-1,0 -2,0 -2,0 0,-1 0,-2 0,-2 0,0 1,0 2,0 0,0 0,1 0,1l-1 0 0 0c0,0 0,0 0,0 0,0 0,0 0,0l0 0 0 0 0 0 0 0 0 0c0,0 0,0 0,0l0 0 0 1 1 -1c0,0 0,0 0,0l0 1 0 0 0 -1c0,0 0,0 0,1 0,0 0,0 0,0l0 0zm0 0c-1,0 -1,0 -2,0 0,0 0,0 0,0 1,0 1,0 2,0 0,0 0,0 0,0l0 0zm0 2c-1,0 -1,-1 -1,-1 0,0 0,0 -1,0 1,0 1,0 2,0 0,0 0,0 0,1l0 0zm-2 -5c0,0 1,0 2,1l0 0c-1,0 -2,-1 -2,-1 0,0 0,0 0,0 0,0 0,0 0,0l0 0zm1 -2c0,1 0,1 1,1 0,0 0,1 0,1 -1,0 -2,0 -2,0 0,-1 0,-1 1,-2l0 0zm0 0c1,0 1,0 1,0 0,0 0,0 0,0 1,0 1,0 1,0 0,0 0,0 1,0 0,0 0,0 0,0 0,0 0,1 1,1 -2,0 -4,-1 -4,-1 0,0 0,0 0,0l0 0zm3 3c0,0 0,0 0,0 -1,0 -2,0 -2,0 0,0 0,0 0,0 0,0 1,0 2,0l0 0zm-1 -1c0,0 1,0 1,0 -1,0 -2,0 -2,0 0,0 0,-1 0,-1 0,0 1,0 1,0 0,0 0,1 0,1l0 0zm2 1c-1,0 -1,0 -1,0 0,0 0,0 0,0 0,0 0,0 1,0 0,0 0,0 0,0l0 0zm-1 -1c0,0 0,0 0,0 -1,0 -1,-1 -1,-1 1,0 1,0 2,0 0,0 0,1 0,1 -1,0 -1,0 -1,0l0 0zm-1 -3c1,0 1,0 2,1 0,0 0,0 0,0 0,0 0,0 0,0 0,0 0,0 0,0 0,0 -1,0 -1,0 0,0 0,0 0,0 -1,0 -1,0 -1,0 0,0 0,0 -1,0 0,0 0,0 0,0 0,0 0,0 0,0 -1,0 -1,0 -1,0 1,0 1,-1 2,-1l0 0zm-1 -3c-1,0 -1,-1 -1,-1 1,0 1,-1 2,-1 1,0 1,2 1,2 0,0 -1,0 -1,0 -1,0 -1,0 -1,0l0 0zm-3 -9c0,0 0,-1 0,-1 4,1 5,5 5,5 -1,1 0,2 0,2 0,0 0,1 0,1 0,0 0,1 0,1 0,0 0,0 0,0 0,-1 -1,-1 -1,-1 0,-1 -1,-3 -2,-5 -1,-2 -2,-2 -2,-2l0 0zm0 -6c0,-1 0,-1 0,-1 0,-1 1,0 1,-1 0,0 0,0 0,-1 0,0 1,0 1,0 0,0 0,-1 2,-1 0,1 0,1 1,2 0,0 2,0 2,0 0,1 -1,2 -1,2 0,0 0,0 -1,1 0,0 0,0 0,0 1,0 1,0 1,0 0,0 0,1 0,1 -1,0 -1,0 -1,0 0,0 0,1 -1,1 -1,0 -1,-1 -1,-1 0,0 0,1 -1,1 -1,0 -1,-1 -1,-1 0,0 -1,-1 -1,-1 0,-1 0,-1 0,-1l0 0zm0 1c-1,0 -1,0 -1,0 -2,2 -5,0 -5,0 0,0 -4,2 -4,-2 -1,-2 1,-4 1,-4 0,0 0,-1 0,-1 1,0 1,0 1,0l0 0 0 0c0,-1 0,-3 1,-3 0,-1 1,-2 2,-2 0,0 0,0 0,0 1,0 2,1 2,1 0,0 1,-2 3,-1 2,0 2,2 2,5 0,0 0,0 0,0 0,1 1,2 1,2 -1,0 -1,0 -1,1 0,0 0,0 0,0 0,0 0,0 0,0 -1,0 -1,0 -1,0 0,0 0,1 0,1 0,0 0,0 0,0 -1,0 -2,0 -2,0 0,0 0,0 0,0 0,-1 0,-1 0,-1 -1,0 -1,0 -1,0 0,0 -1,0 -1,0 0,0 -1,0 -1,0l0 0c0,0 0,0 0,0 0,0 -1,-1 -1,-1 0,0 0,0 -1,0 0,0 0,0 1,0 0,1 0,1 0,2 0,0 1,0 1,0 0,0 0,0 0,0l0 -1c1,0 1,0 1,0 0,0 1,0 1,0 0,0 0,0 0,0 1,0 1,1 1,1 0,0 -1,0 -1,0l0 0 0 0c0,0 1,1 2,1 -1,0 -1,0 -1,0 0,0 0,0 0,0 0,0 0,0 0,0 0,0 0,0 0,0 1,0 1,0 1,0 0,0 0,0 0,0 0,0 0,0 0,0 0,1 0,1 0,1 0,0 0,0 0,0 0,0 0,0 -1,0 0,-1 -1,-1 -1,-1 0,1 -1,1 -1,1 -1,1 -1,0 -1,0 0,0 0,0 0,0 -1,0 -1,0 0,0 0,0 0,1 1,1 0,0 1,-1 2,-1 0,0 0,0 0,0 1,0 1,0 1,0 0,0 0,0 0,1 0,0 0,0 0,0l0 0zm-2 12c0,0 1,1 1,1 0,0 0,4 -7,4 -3,0 -6,-2 -7,-3 0,0 0,0 0,0 0,0 0,0 0,0l0 0c0,-1 0,-1 -1,-1 0,0 0,0 0,0 1,0 1,0 1,-1 0,0 0,0 -1,0 0,-1 0,-1 1,-2 0,0 7,9 13,2l0 0zm3 14c0,0 -2,1 -2,1 -1,0 -2,-1 -2,-1 0,-1 1,-1 1,-1 0,0 0,0 1,0 0,0 1,0 1,0 0,0 1,0 1,1l0 0zm1 1c2,0 2,1 2,1 0,1 -1,2 -2,2 -1,0 -5,0 -5,-2 0,-1 0,-1 0,-1 0,0 1,1 2,0 0,0 0,0 1,0 0,0 0,0 0,1 0,0 -1,0 0,0 0,0 0,0 0,0 0,-1 1,-1 2,-1l0 0zm-4 -8c0,0 -4,3 -13,1 0,-1 0,-1 0,-1 2,0 8,2 13,-1 0,0 0,1 0,1l0 0zm-13 1c0,0 0,0 -1,0 0,-1 0,-1 0,-2 0,0 1,0 1,0 0,0 0,1 0,2l0 0zm0 0c0,0 0,0 0,1 0,-1 0,-1 -1,-1 1,0 1,0 1,0 0,0 0,0 0,0l0 0zm0 2c0,0 0,0 0,0 0,0 0,-1 0,-1 0,0 0,0 0,0 0,0 0,1 0,1l0 0zm0 1c0,0 0,0 0,0 0,0 0,0 0,0 0,0 0,0 0,0 0,0 0,0 0,0l0 0zm0 0c0,0 0,0 0,0 0,1 -1,1 -1,1 0,0 0,0 0,-1 1,0 1,0 1,0l0 0zm0 4c0,0 0,0 0,0 -1,0 -1,0 -2,1 0,0 0,0 0,0 1,0 1,0 2,0 0,0 0,0 0,1 0,1 -3,2 -5,2 -1,0 -2,-1 -2,-2 0,-1 2,-1 3,-1 0,0 0,0 0,0 0,0 1,0 1,1 0,0 0,0 0,0 0,-1 0,-1 0,-1 0,0 0,1 1,1 0,0 0,0 0,-1 -1,0 -1,0 -1,0 0,0 0,0 0,0 0,-1 0,-1 0,-1 -1,0 0,-1 0,-1 0,0 0,1 1,1 1,0 1,-1 1,-1 1,0 1,0 1,1l0 0zm-4 -3c0,0 0,0 0,0 0,0 1,0 1,0 0,0 0,0 0,1 0,0 -1,0 -1,-1l0 0zm0 -1c-1,-1 -2,-1 -2,-1 0,0 0,-1 0,-1 0,0 1,0 1,0 0,0 0,0 0,0l0 0 0 1c0,0 0,0 0,0 0,0 0,0 0,0l0 -1 -1 0 0 1 1 0 0 0c0,0 0,0 0,-1l0 1 0 0 0 0c0,0 0,0 0,0l0 0 0 0 0 0c1,0 1,0 1,0 0,0 0,0 0,1l0 0zm0 0c-1,0 -2,0 -2,0 0,0 0,0 0,0 0,0 1,0 2,0 0,0 0,0 0,0l0 0zm0 1c-1,0 -2,0 -2,0 0,0 0,0 0,-1 0,0 1,0 2,1 0,0 0,0 0,0l0 0zm-2 -4c0,0 1,0 1,0 0,0 0,0 0,1 -1,-1 -1,-1 -1,-1 0,0 0,0 0,0 0,0 0,0 0,0l0 0zm0 -2c0,0 1,0 1,0 0,1 0,1 0,2 0,0 -1,-1 -1,-1 0,0 0,-1 0,-1l0 0zm1 0c0,0 0,0 0,0 1,0 1,0 1,0 0,0 1,0 1,0 0,0 0,0 0,0 0,0 0,0 1,0 0,0 0,0 0,0 -1,1 -3,0 -4,0 1,0 1,0 1,0l0 0zm2 -1c1,0 1,0 1,0l0 1c0,0 1,0 1,0 -1,0 -1,0 -1,0 0,0 -1,-1 -1,-1 0,0 0,0 0,1 -1,0 -1,0 -1,0 0,0 0,0 0,0 0,0 -1,-1 -1,-1 0,0 0,0 0,0 0,0 1,0 2,0l0 0zm-1 0c0,0 0,0 0,0 0,0 0,0 -1,0 0,0 0,-2 1,-2 0,1 0,1 0,2l0 0zm3 1c0,0 0,-1 0,-1 0,-1 0,-1 -1,-1 0,0 0,0 0,0 0,0 0,0 0,0 0,0 0,0 0,0 0,0 0,0 0,-1 1,1 2,1 2,2 0,0 -1,1 -1,1 0,0 0,0 0,0l0 0zm0 2c0,-1 0,-1 0,-1 0,0 0,0 0,-1 0,1 0,1 0,2 0,0 0,0 0,0l0 0zm0 1c0,0 0,-1 0,-1 0,0 0,0 0,0 0,0 0,0 0,1 0,0 0,0 0,0l0 0zm-2 -1c0,1 0,1 0,1 0,0 -1,0 -2,0l0 -1c1,0 2,0 2,0l0 0zm1 1c0,0 0,0 0,0 0,0 0,0 0,-1 0,0 0,0 0,0 0,1 0,1 0,1l0 0zm0 -1c-1,0 -1,-1 -1,-1 0,0 0,0 0,0 1,0 1,0 1,0 0,0 0,0 0,1 0,0 0,0 0,0l0 0zm-1 -1c0,1 0,1 0,1 0,0 -1,0 -2,0 0,-1 0,-1 0,-2 1,1 1,1 2,1 0,0 0,0 0,0l0 0zm0 4c0,0 0,0 0,0 0,0 -1,0 -1,0 0,0 0,0 0,0 0,0 1,0 1,0l0 0zm-1 0l0 0c0,-1 0,-1 0,-1 0,0 0,0 0,-1 1,0 2,0 3,0 0,0 0,1 0,1 -1,1 -2,1 -3,1l0 0zm3 0c0,1 0,1 0,1 0,0 0,0 0,0 -1,0 -1,0 -2,0 0,0 0,0 0,0 1,0 2,0 2,-1l0 0zm-2 0c0,0 0,0 0,0 1,0 2,0 2,0 0,0 0,0 0,0 0,0 -1,0 -2,0l0 0zm3 -9c0,0 0,1 -1,1 0,0 0,0 0,0 0,0 0,0 0,0 0,0 -1,0 -1,0 0,1 0,1 0,1 0,1 0,1 0,1 0,0 -1,0 -1,0 0,-2 1,-2 1,-2 0,0 0,0 0,-1 0,0 -1,0 -1,0 0,0 -1,1 0,3 0,0 0,0 0,0 0,0 0,0 0,0 0,0 0,0 0,0 -1,-2 0,-2 0,-2 0,0 0,0 0,-1 0,0 0,0 0,0 -1,0 -1,1 -1,3 0,0 0,0 0,0 0,0 0,-2 0,-2 0,-1 1,-2 1,-2 0,0 0,0 0,-1 0,0 0,0 0,0 2,0 2,0 2,0 0,1 0,1 0,1 0,0 1,0 1,1l0 0zm-5 2c-4,1 -4,-2 -4,-4 0,-8 11,-10 11,-10 0,0 1,0 1,1 0,0 -1,0 -1,0 0,0 1,0 1,0 0,0 -1,0 -1,0 1,0 1,1 1,1 0,0 -1,0 -1,0 -1,0 -2,0 -3,1 0,0 0,0 0,0 0,0 0,0 0,0 -2,0 -3,0 -3,0 0,0 0,0 0,0 0,0 0,0 0,0 0,0 1,1 2,0 0,1 0,1 -1,1 0,0 1,1 1,1 0,0 0,0 0,-1 0,-1 1,-1 1,-1 0,0 0,0 0,0 1,-1 2,-1 3,0 -2,1 -3,1 -4,2 0,0 0,0 0,0 -1,0 -2,0 -2,1 0,0 -1,0 -1,0 0,0 -1,0 -2,1 0,0 0,0 0,0 0,0 0,0 0,0 0,0 0,0 0,0 0,0 0,0 0,0 0,0 0,0 0,0 0,0 0,0 1,0 0,0 0,0 0,0 0,0 0,0 0,0l0 0c0,0 -1,1 -1,1 0,1 0,1 0,1 -1,0 -1,0 -1,0 0,0 1,0 1,0 0,0 0,0 0,0 0,0 0,1 0,1 0,0 0,0 0,0 0,0 0,0 0,0 1,0 1,-1 1,-1l0 0c0,-1 0,-1 0,-1l0 1c0,0 0,1 0,1 0,0 0,0 0,0 0,0 0,0 0,0 0,0 1,-1 0,-2l0 -1c0,0 1,0 1,-1 0,0 0,0 1,0 0,1 0,1 0,1 0,0 0,1 -1,2 0,0 0,0 0,0 0,0 0,0 0,0 1,-1 1,-2 1,-2 0,0 0,-1 0,-1 1,0 1,0 2,0 -1,1 -1,2 0,3 -1,0 -1,0 -1,0 0,0 0,1 0,1 0,0 0,1 0,1l0 0c0,0 0,0 -1,0 0,0 0,1 0,1 0,0 0,0 0,0 -1,1 -1,2 -1,2l0 0zm7 -18c0,0 0,-1 0,-1 0,-1 1,-2 1,-2 -1,2 -1,3 -1,3l0 0zm1 -8c0,0 0,0 0,0 0,0 0,0 0,0 0,0 0,0 0,0 1,-1 1,-1 1,-1 0,0 0,0 0,1 0,0 0,0 0,0 0,0 0,1 0,1 -1,0 -1,-1 -2,-1 0,0 1,0 1,0l0 0zm10 19c0,0 -4,5 -12,-1 0,0 1,-1 3,-2 0,0 4,6 9,3 0,0 0,0 0,0l0 0zm-8 -18c1,0 1,1 1,1 0,0 -1,0 -2,0 0,-1 0,-1 0,-2 0,0 1,0 1,1l0 0zm1 1c0,0 0,0 0,0 0,0 0,0 0,0 0,0 1,0 1,-1 0,1 0,1 0,2 0,0 0,0 -1,0 0,0 0,-1 0,-1 0,0 0,0 0,0l0 0zm-1 -4l0 0c0,-1 1,-1 1,-1 0,-1 1,-1 1,-1 0,1 0,1 0,1 -1,0 -1,1 -1,1 0,0 0,0 0,0 0,0 0,0 0,0 0,0 1,-1 2,-1 0,0 0,0 0,1 -1,0 -1,1 -2,1 0,0 0,0 1,0 0,0 0,0 0,0 0,0 1,-1 1,-1 0,0 0,0 0,0 1,0 1,0 1,0 -1,1 -2,2 -2,3 0,0 -1,0 -1,0 0,0 0,0 0,0 -1,-1 -1,-1 -2,-1 0,-1 0,-2 1,-2l0 0zm0 -2c0,0 0,0 0,0 1,0 1,0 1,0 -1,1 -1,1 -1,1 0,0 0,-1 0,-1l0 0zm1 -1c0,1 0,1 0,1 0,0 0,-1 0,-1 0,0 0,0 0,0 0,0 0,0 0,0 0,0 0,0 0,-1 0,0 4,1 4,4 0,0 0,0 -1,0 0,0 0,0 0,0 0,0 -1,0 -1,0 0,-1 0,-1 0,-1 0,0 0,0 -1,0 0,0 0,-1 0,-1 0,0 -1,0 -1,0 0,0 0,0 0,0 0,0 0,0 0,-1l0 0zm16 14c0,1 -1,1 -1,1 0,-1 0,-1 0,-1 0,0 1,0 1,0l0 0zm-2 10c0,0 0,0 1,-1 0,0 1,0 1,1 0,0 0,1 0,1 0,0 -1,1 -1,1 -1,0 -1,-1 -1,-2l0 0zm0 4l0 -1c0,0 1,1 1,1l0 0c0,1 0,1 0,1 0,0 -1,-1 -1,-1l0 0zm-1 4l0 0c0,0 0,0 0,0 0,0 -1,0 -1,0l0 -1c0,0 1,0 1,1l0 0zm0 0c0,0 1,0 1,0 0,0 -1,0 -1,0 0,0 0,0 0,0l0 0zm3 4c0,0 0,0 0,0 -1,0 -1,0 -1,0 0,0 0,0 0,0 0,0 0,0 1,0l0 0zm-1 -1c0,0 0,-1 0,-1 0,0 0,0 0,0 0,0 0,0 0,1 0,0 0,0 0,0l0 0zm1 -2c0,1 -1,1 -1,0 0,0 0,-1 0,-1 0,0 0,0 -1,0 0,-1 0,-1 1,-1 1,1 1,1 1,1 0,0 0,1 0,1l0 0zm0 -3c0,1 0,2 0,2 0,0 0,0 0,0 0,0 0,0 -1,-1 0,-1 -1,0 -1,0 0,0 0,0 0,1 0,0 0,0 0,0 0,0 0,0 0,0 0,0 -1,-1 -1,-1 -1,0 -1,0 -1,-1 0,0 1,-1 2,-1 0,0 1,1 2,1l0 0zm0 0c-1,0 -1,0 -1,0 0,0 1,0 1,0 0,-1 0,-1 0,-1 0,0 0,0 0,1 1,0 1,0 1,0 -1,0 -1,0 -1,0l0 0zm1 2c0,0 0,0 0,0 0,0 0,0 -1,0 0,0 0,0 0,0 0,0 0,0 0,0 1,0 1,0 1,0l0 0zm-1 -1c0,0 0,0 0,0 0,0 0,0 0,-1 0,0 0,0 0,0 0,0 1,0 1,0 0,0 0,1 0,1 0,0 0,0 -1,0l0 0zm1 -6c0,1 0,2 1,2 0,0 -1,0 -2,0 0,1 1,1 1,1 0,1 0,1 -1,1 0,-1 0,-1 -1,-1 0,-1 -1,-1 -1,-2 0,0 1,0 2,-1 0,0 0,0 1,0l0 0zm1 4c0,0 0,-1 0,-1 0,0 0,-1 0,-1 0,0 0,0 -1,-2 0,0 0,-2 -2,-2 0,0 -1,-4 -4,-6l0 0c1,0 1,0 1,-1 0,1 0,1 1,1 1,0 1,-1 1,-1l0 0c0,0 0,0 1,0 0,0 0,0 0,0 0,0 0,0 0,-1 0,0 0,0 0,0 0,0 0,0 0,0 0,0 1,0 1,0 0,0 0,0 0,-1 0,0 0,0 0,0 -1,0 -1,0 -1,0 1,0 1,-1 1,-1 0,-1 0,-1 0,-1 0,-1 -1,-1 -2,-1l0 0c0,0 0,0 0,0 -1,0 -1,-1 -1,-1 -1,0 -2,0 -2,-2 0,-1 1,-1 1,-1 0,0 0,-1 0,-1 0,-1 0,-3 -1,-4 0,0 -1,-1 -1,-1 0,0 0,0 0,-1 0,0 -1,0 -2,-1 0,0 1,-1 1,-5 1,0 1,0 1,-1 0,-1 0,-1 -1,-1 0,0 -1,0 -1,1 0,1 0,1 1,1 0,1 0,3 -2,5 0,0 0,0 0,0 0,-1 -1,0 -1,0 0,0 -1,0 -1,0 0,0 -1,0 -1,0 -1,0 -1,0 -1,0 -1,0 -1,0 -2,0 0,0 0,0 0,0 -1,-3 0,-5 0,-5 1,0 1,-1 1,-2 0,0 0,-1 -1,-1 -1,0 -2,1 -2,1 0,1 1,2 1,2 -1,2 0,5 0,5 0,0 -2,1 -2,1 0,0 1,0 1,0 -1,1 -3,2 -3,2 1,0 1,0 1,0 -1,2 -1,3 -1,3 0,0 0,0 0,0 0,0 0,1 0,1 0,0 0,1 0,1 0,0 -1,1 -1,1 1,0 1,0 1,0 -3,2 -4,4 -4,4 0,1 4,4 4,4 -13,4 -13,11 -11,14 1,3 4,2 4,2l0 0c0,0 0,0 -1,0 0,1 0,3 0,4 0,2 0,3 0,3 0,1 3,1 3,1 0,1 0,1 0,1 0,0 -1,0 -1,0 0,0 0,1 0,1 1,0 0,0 0,0 -2,0 -3,1 -3,2 0,1 0,3 2,3 2,0 5,-2 5,-3 0,-1 0,-1 0,-1 0,-1 0,-1 0,-1 0,-1 0,-1 0,-1 0,-3 0,-4 0,-4 0,0 0,0 1,1l0 0c0,2 2,1 2,1 0,0 0,-1 0,-1 3,1 7,0 10,-4 0,0 0,0 0,1 0,0 -1,2 0,5 0,0 -1,0 -1,0 0,1 0,1 0,2 0,0 0,0 0,1 0,2 2,2 5,2 2,0 2,-1 2,-2 0,-2 -1,-2 -3,-2 0,0 0,0 0,0 0,0 1,-1 -1,-1 0,0 1,-2 1,-5 0,-4 -1,-5 -2,-8 -2,-3 -1,-5 0,-5 1,1 2,2 3,6 0,0 -1,2 1,2l0 2c0,0 -1,0 -1,1 0,0 -1,0 -1,3 0,2 0,3 0,3 0,1 1,1 3,1 2,0 3,0 3,-1 0,0 0,-3 0,-3 0,0 2,0 2,-1 0,0 1,-4 1,-6 0,0 -1,0 -1,0l0 0zm-5 -13c0,0 0,0 1,-1 0,0 0,0 0,0 0,0 0,0 0,0 -1,1 -1,1 -1,1 -1,0 -1,0 -1,0 0,0 1,0 1,0l0 0zm-2 -1c0,0 0,0 0,0 0,0 0,0 0,1 0,0 0,0 0,0 1,0 1,0 1,-1 -1,0 -1,0 -1,0 0,0 0,0 0,0l0 0zm2 -2c0,0 0,0 1,0 0,0 0,0 0,0 0,0 0,0 0,0 0,0 0,0 0,0 0,0 0,-1 0,-1 0,0 0,0 -1,0 0,0 0,1 0,1 0,0 0,0 0,0 0,0 0,0 0,0l0 0zm-9 -1c0,0 0,0 0,1 0,0 0,1 -1,2 0,0 0,0 0,0 0,0 0,0 0,0 1,-1 1,-2 1,-2 0,0 0,-1 0,-1l0 0zm2 2c0,0 0,0 0,0 0,-1 1,-1 1,-1 1,0 1,0 0,0 0,0 0,0 0,-1 0,0 0,0 0,0 0,0 0,0 0,0 0,0 -1,0 -1,0 0,1 -1,1 -1,1 0,0 1,1 1,1l0 0zm1 -6c1,0 1,1 1,1 0,0 0,0 -1,0 0,0 0,0 0,0 0,0 0,-1 0,-1l0 0zm0 -1c0,0 0,0 1,-1 0,0 0,1 0,1 0,0 0,1 1,1 0,0 1,-1 1,-1 0,-1 0,-1 -1,-1 1,0 1,1 1,1 0,0 -1,1 -1,1 -1,0 -2,0 -2,-1l0 0zm2 -1c0,0 0,0 0,0 0,0 0,0 0,0 -1,0 -1,0 -1,0 0,0 0,0 1,0l0 0zm0 -1c0,0 0,0 1,0 -1,0 -1,0 -1,1 0,0 0,0 0,-1 0,0 0,0 0,0 0,0 0,0 0,0l0 0zm1 0c0,1 0,1 0,1 0,0 0,0 0,0 0,0 0,-1 0,-1l0 0zm-3 5c1,0 1,0 1,-1 0,0 0,0 0,-1 0,0 0,1 1,1 1,0 2,-2 2,-2l0 0 0 0c-1,-2 -1,-2 -2,-3 -1,0 -2,1 -2,1 0,0 0,0 0,0 0,0 0,0 1,0 0,0 0,-1 1,-1 0,1 0,1 0,1 0,0 0,0 0,0 -1,0 -1,1 -1,1 0,0 -1,0 -1,1 0,0 0,-1 0,-1 0,0 1,-1 1,-1 0,0 0,0 0,0 0,0 0,0 0,0 0,0 -1,0 -1,1 0,1 0,1 0,2 0,0 0,0 0,0 -1,0 -1,0 -1,1 0,1 0,1 1,1l0 0zm-4 -4c0,0 0,0 1,0 -1,0 -1,0 -1,1 0,0 1,1 1,1 1,0 1,-1 1,-1 0,0 0,0 0,0 0,0 0,-1 0,-1 0,0 0,0 0,1 1,0 1,0 0,1 0,0 -1,1 -1,1 -1,0 -2,-1 -2,-1 0,-1 0,-1 1,-2l0 0zm0 -1c0,0 0,1 0,1 0,0 0,0 0,0 0,0 0,0 -1,0 0,0 0,0 0,0 0,0 1,-1 1,-1l0 0zm1 0c0,0 0,0 0,1 0,0 -1,0 -1,0 0,-1 0,-1 0,-1 0,0 0,0 1,0l0 0zm0 1c0,1 0,1 0,1 0,0 0,0 0,-1 0,0 0,0 0,0 0,0 0,0 0,0l0 0zm0 -1c1,0 1,0 1,1 -1,0 -1,0 -1,0 0,0 0,0 0,0 0,-1 0,-1 0,-1 0,0 0,0 0,0l0 0zm2 3c0,0 0,-1 0,-2 -1,0 -1,0 -1,0 0,-1 0,-1 0,-1 0,0 0,1 0,1 0,0 0,0 0,0 0,0 0,0 0,0 0,0 0,-1 0,-1 0,0 0,0 0,0 0,0 0,0 0,0 0,0 0,-1 0,-1 0,0 0,0 0,0 -3,0 -4,2 -4,2 0,0 0,1 0,1 0,0 1,0 1,0 0,0 0,-1 0,-1 0,0 0,0 0,1 0,0 0,1 -1,1l0 0 1 0c0,0 1,1 2,1 0,0 1,0 2,-1l0 0zm4 6c0,0 0,0 1,0 0,0 0,-1 0,-1 0,0 0,0 0,0 -1,1 -1,1 -1,1 0,-1 0,0 0,0 0,0 0,0 0,0l0 0zm-17 22l-1 0 0 1 1 0 0 0 0 0 0 -1zm19 2l1 0 0 -1 -1 0 0 1zm-22 -11c0,0 0,0 0,0 0,0 -1,1 -2,1l-1 0c-1,0 -1,0 -1,0 0,0 0,0 0,0 0,0 0,0 0,0 0,0 0,1 1,1 0,0 0,0 0,0 0,1 0,2 0,2 0,0 1,0 1,0 0,0 0,0 0,0 0,0 -1,-1 0,-2 0,0 0,0 0,-1 0,0 0,1 0,1 0,0 0,0 0,0 0,0 0,0 0,1 0,0 0,1 0,1 1,0 1,0 1,0 0,0 0,-1 0,-1 0,0 -1,0 -1,0 0,0 0,-1 1,-1 0,0 0,0 0,0 0,-1 0,-1 0,-1 0,0 1,0 1,0 0,0 0,-1 0,-1l0 0zm25 10l0 0 0 1 0 0 0 -1 0 1 0 -1zm-1 0l0 0 0 0 0 0 0 0 0 0 0 0 -1 0 0 1 1 0 0 0 0 0 0 -1zm-12 -36c0,0 0,0 0,0 0,0 0,0 0,0 0,0 0,0 0,0 0,0 0,0 0,0l0 0zm-12 36l0 0 0 -1 0 0 0 1zm1 0l1 0 0 0 -1 0 0 0 1 0 0 0 -1 0 0 0 1 0 0 0 -1 0 0 0zm0 0l0 0 0 0z"/>
    </g>
   </g>
   <g>
    <path class="fil38" d="M166 152l149 0 0 0c4,0 7,3 7,8l0 80 0 1c0,4 -3,7 -7,7l-117 0c-4,0 -8,-3 -8,-8l0 -32c0,-4 4,-8 8,-8l100 0 0 -24 -108 0c-13,0 -24,11 -24,24l0 49c0,13 11,23 24,23l133 0c13,0 24,-11 24,-24l0 -96c0,-13 -11,-24 -24,-24l-157 0 0 24zm0 0z"/>
    <path class="fil39" d="M186 315l8 0 -4 -12 0 0 -4 12zm11 -20l9 27c1,3 2,4 4,4l2 0 0 4 -20 0 0 -4 2 0c1,0 3,0 3,-1 0,-1 0,-1 -1,-2l-1 -4 -10 0 -1 2c-1,2 -1,3 -1,4 0,1 2,1 3,1l2 0 0 4 -15 0 0 -4 1 0c2,0 3,-1 4,-4l9 -27 10 0zm0 0z"/>
    <path class="fil39" d="M223 318c0,5 2,9 4,9 3,0 5,-4 5,-9 0,-5 -2,-9 -5,-9 -2,0 -4,4 -4,9zm-8 -16c0,-2 -1,-2 -2,-2l-3 0 0 -5 13 0 0 14c2,-3 5,-4 7,-4 8,0 11,6 11,13 0,7 -3,13 -11,13 -3,0 -6,-1 -8,-4l-2 3 -5 0 0 -28zm0 0z"/>
    <path class="fil39" d="M253 318c0,5 1,9 4,9 3,0 4,-4 4,-9 0,-5 -1,-9 -4,-9 -3,0 -4,4 -4,9zm-9 -16c0,-2 0,-2 -2,-2l-2 0 0 -5 13 0 0 14c2,-3 4,-4 7,-4 8,0 11,6 11,13 0,7 -3,13 -11,13 -4,0 -7,-1 -8,-4l-2 3 -6 0 0 -28zm0 0z"/>
    <path class="fil39" d="M282 318c0,6 2,9 5,9 3,0 4,-3 4,-9 0,-6 -1,-9 -4,-9 -3,0 -5,3 -5,9zm18 0c0,8 -5,13 -13,13 -8,0 -14,-5 -14,-13 0,-8 6,-13 14,-13 8,0 13,5 13,13z"/>
    <path class="fil39" d="M338 318l0 5c0,2 -1,3 -3,3 -1,0 -1,0 -1,-2l0 -14 6 0 0 -4 -6 0 0 -10 -6 0c0,4 -1,10 -7,10l-8 0 0 -10 -5 0c-1,4 -2,10 -7,10l0 4 3 0 0 13c0,5 3,8 8,8l1 0c6,0 9,-3 9,-8l0 -5 -5 0 0 5c0,2 0,3 -2,3 -1,0 -2,0 -2,-2l0 -14 12 0 0 13c0,5 3,8 8,8l1 0c6,0 8,-3 8,-8l0 -5 -4 0zm0 0z"/>
   </g>
   <g>
    <path class="fil40" d="M658 636c-1,0 -33,6 -46,40 0,0 -14,36 21,54 0,0 21,13 46,-5 0,0 19,-12 13,-42 0,0 -3,-15 -15,-23 0,0 -10,-4 -7,7 0,0 6,9 8,17 0,0 4,22 -22,26 0,0 -24,1 -25,-24 0,0 -1,-16 24,-30 0,0 10,-4 13,-11 0,0 2,-12 -10,-9z"/>
    <path class="fil41" d="M643 688c0,-7 5,-13 12,-13 7,0 12,6 12,13 0,6 -5,12 -12,12 -7,0 -12,-6 -12,-12z"/>
    <path class="fil42" d="M743 694c0,6 -6,10 -13,10 -5,0 -7,-3 -7,-7 0,-5 5,-6 8,-7 9,-1 11,-1 12,-2l0 6zm-19 -14c0,-3 1,-8 9,-8 7,0 10,3 10,7 0,4 -2,5 -4,5l-11 1c-12,2 -13,10 -13,13 0,7 6,12 13,12 8,0 13,-4 15,-7 0,3 1,7 8,7 1,0 2,-1 3,-1l0 -5c0,0 -1,0 -2,0 -1,0 -2,-1 -2,-2l0 -24c0,-11 -12,-12 -16,-12 -10,0 -16,4 -16,14l6 0z"/>
    <path class="fil40" d="M792 679c0,-2 -2,-13 -16,-13 -8,0 -16,4 -16,14 0,5 4,8 10,10l8 2c6,1 8,2 8,5 0,5 -5,7 -10,7 -9,0 -10,-5 -10,-8l-7 0c0,4 1,14 18,14 9,0 16,-5 16,-14 0,-5 -3,-8 -12,-11l-7 -1c-5,-2 -7,-2 -7,-6 0,-5 6,-6 8,-6 9,0 10,5 10,7l7 0z"/>
    <path class="fil42" d="M800 719l7 0 0 -15 0 0c2,3 6,6 11,6 14,0 20,-13 20,-23 0,-12 -8,-21 -19,-21 -7,0 -10,5 -12,7l0 0 0 -5 -7 0 0 51zm7 -29c0,-7 1,-17 11,-17 11,0 13,10 13,15 0,9 -5,16 -13,16 -4,0 -11,-3 -11,-14z"/>
    <path class="fil42" d="M850 685c0,-6 5,-12 11,-12 9,0 11,6 12,12l-23 0zm23 11c-1,3 -5,8 -11,8 -8,0 -12,-5 -12,-14l30 0c0,-14 -6,-24 -18,-24 -13,0 -19,11 -19,23 0,12 6,21 18,21 7,0 9,-2 11,-3 5,-3 7,-9 7,-11l-6 0z"/>
    <path class="fil40" d="M922 681c0,-12 -8,-15 -15,-15 -7,0 -11,5 -12,7l0 0 0 -5 -7 0 0 41 7 0 0 -23c0,-11 7,-13 11,-13 7,0 9,3 9,10l0 26 7 0 0 -28z"/>
   </g>
   <rect class="fil33 str0" x="2" y="2" width="509" height="456"/>
   <rect class="fil33 str0" x="511" y="2" width="509" height="456"/>
   <rect class="fil33 str0" x="1020" y="2" width="509" height="456"/>
   <rect class="fil33 str0" x="1529" y="2" width="509" height="456"/>
   <rect class="fil33 str0" x="2" y="457" width="509" height="456"/>
   <rect class="fil33 str0" x="511" y="457" width="509" height="456"/>
   <rect class="fil33 str0" x="1529" y="457" width="509" height="456"/>
   <rect class="fil33 str0" x="2" y="913" width="509" height="456"/>
   <rect class="fil33 str0" x="511" y="913" width="509" height="456"/>
   <rect class="fil33 str0" x="1529" y="913" width="509" height="456"/>
   <rect class="fil33 str0" x="1020" y="913" width="509" height="456"/>
   <rect class="fil33 str0" x="1020" y="457" width="509" height="456"/>
  </g>
 </g>
</svg>
