<?xml version="1.0" encoding="UTF-8"?>
<!DOCTYPE svg PUBLIC "-//W3C//DTD SVG 1.0//EN" "http://www.w3.org/TR/2001/REC-SVG-20010904/DTD/svg10.dtd">
<!-- Creator: CorelDRAW X8 -->
<svg xmlns="http://www.w3.org/2000/svg" xml:space="preserve" width="2040px" height="1370px" version="1.0" style="shape-rendering:geometricPrecision; text-rendering:geometricPrecision; image-rendering:optimizeQuality; fill-rule:evenodd; clip-rule:evenodd"
viewBox="0 0 2040 1370"
 xmlns:xlink="http://www.w3.org/1999/xlink">
 <defs>
  <style type="text/css">
   <![CDATA[
    .str0 {stroke:#E6E6E6;stroke-width:3.5441}
    .fil21 {fill:none}
    .fil12 {fill:#003D90}
    .fil9 {fill:#009EC2}
    .fil17 {fill:#013871}
    .fil10 {fill:#029EC4}
    .fil7 {fill:#122A6A}
    .fil2 {fill:#155392}
    .fil11 {fill:#1A3E94}
    .fil8 {fill:#1C3D95}
    .fil18 {fill:#237BC3}
    .fil0 {fill:#265499}
    .fil14 {fill:#2A2927}
    .fil16 {fill:#2C2B29}
    .fil5 {fill:#646464}
    .fil1 {fill:#6B2974}
    .fil15 {fill:#DE2127}
    .fil20 {fill:#E30240}
    .fil19 {fill:#E82938}
    .fil4 {fill:#EB1C22}
    .fil13 {fill:#FEFEFE}
    .fil6 {fill:#FF2A00}
    .fil3 {fill:#155392;fill-rule:nonzero}
   ]]>
  </style>
 </defs>
 <g id="Capa_x0020_1">
  <metadata id="CorelCorpID_0Corel-Layer"/>
  <g id="_2485893910352">
   <path class="fil0" d="M88 244l41 0 -1 -5 -29 -1 0 -8 27 0 0 -5 -27 0 0 -7 29 0 0 -5 -40 -1 0 32zm372 -27l7 16 -13 -1 6 -15zm-18 30l6 0c5,-13 1,-11 21,-11l4 11 6 0c-2,-6 -10,-23 -14,-31 0,0 -1,-2 -1,-2 -1,-2 -4,-2 -6,-2 -2,1 -16,34 -16,35zm-112 -30l7 15 -13 0 6 -15zm-18 30l6 0c1,-3 3,-9 5,-11l15 0c3,2 3,5 4,8 2,4 2,3 8,3l-16 -35 -6 0c-2,2 -14,31 -16,35zm-67 -30l10 0c6,0 10,1 9,6 0,5 -5,6 -10,6l-9 0 0 -12zm-6 27l0 3 5 0 1 -14c8,-2 19,3 23,-5 6,-10 -2,-16 -12,-16l-17 0 0 32zm38 0l0 3 5 0 0 -16 21 0 0 16 5 0 0 -35 -5 0 0 14 -21 0 0 -14 -5 0 0 32zm-95 -3l0 3 38 0 -1 -6 -26 0 0 -25 -11 0 0 28zm-45 0l0 3 38 0c0,-8 3,-6 -27,-6l0 -25 -11 0 0 28zm223 -25c4,0 8,0 12,0 11,1 10,10 1,11 -4,1 -9,0 -14,0l1 -11zm-6 31l5 0 0 -15c14,0 12,0 20,10 1,2 2,3 3,5l7 0c-2,-5 -9,-13 -13,-16 4,-2 7,-1 9,-5 2,-5 0,-9 -3,-11 -3,-3 -23,-4 -28,-2l0 34zm-321 -18c0,20 41,20 46,6 -2,-2 -7,-2 -10,-3 -5,11 -23,9 -24,-3 -1,-6 3,-10 9,-11 7,-1 11,0 15,5l10 -1c0,-1 0,-1 0,-2 -3,-10 -46,-14 -46,9zm361 15l0 3 6 0 0 -28c3,4 11,27 15,28 6,1 6,-4 11,-13 2,-5 4,-11 7,-15l0 28 6 0 0 -35 -9 0c-2,5 -4,10 -6,15 -3,4 -5,10 -7,14 -4,-6 -11,-28 -15,-29l-8 0 0 32z"/>
   <path class="fil1" d="M638 213c-1,-1 -3,0 -4,0 -9,1 -15,11 -11,21 2,6 10,15 17,16 6,1 15,-12 18,-16 2,-4 3,-9 0,-13 -5,-5 -12,0 -9,2 2,1 1,-1 3,-1 1,-1 2,0 3,0 6,5 -1,13 -4,17 -2,2 -6,8 -9,8 -5,1 -17,-8 -18,-18 -1,-14 13,-17 19,-11 1,1 2,4 2,7 -1,4 -3,3 -5,4l0 1c2,2 4,0 5,-1 4,-4 3,-15 -7,-16zm3 12c0,0 0,0 0,0zm-30 17c-2,2 4,12 6,10 1,-2 -1,-2 -3,-6 0,-1 -2,-5 -3,-4zm50 -30c1,1 1,1 2,1 2,3 3,7 5,5 1,-2 -2,-4 -2,-5 -1,-1 -2,-2 -3,-3 -1,-2 -2,-2 -3,-1 -2,1 0,2 1,3zm-29 55c-1,-1 -5,-1 -7,-2 -2,-1 -4,-3 -6,-3 -2,3 1,4 5,5 1,1 3,1 4,2 3,0 4,1 4,-2zm16 -75c2,1 5,2 7,2 2,1 5,3 7,3 1,-3 -2,-4 -6,-5 -1,-1 -3,-1 -4,-1 -3,-1 -4,-2 -4,1zm-3 -3c-9,-2 -26,4 -27,6 -1,3 6,-1 6,-1 12,-4 19,-2 21,-2l0 -3zm-10 79c0,2 1,2 6,2 6,0 19,-3 21,-5 1,-1 0,-3 -1,-2 -1,0 -2,1 -3,1 -5,2 -9,3 -14,4 -3,0 -7,-1 -9,0zm147 -40l0 -3 -2 0c-1,2 -1,17 0,19 5,1 2,-2 3,-11 0,-6 5,-5 7,-6l0 -3c-5,0 -5,3 -8,4zm124 16c0,-8 0,-19 -1,-27l-2 0c-1,1 0,18 0,23 0,5 -1,5 3,4zm6 -2c1,3 3,3 7,2l0 -2c-6,0 -4,1 -4,-12l0 -2c2,-1 2,-1 4,-1l0 -2c-1,0 -2,0 -2,0 -5,-1 1,-7 -5,-6 0,2 0,3 0,5 -3,1 -4,0 -3,3 1,0 3,0 3,1l0 14zm-315 7c0,1 0,3 2,3 1,0 2,-1 1,-2 -4,-11 -7,-19 -3,-32 1,-3 4,-8 3,-9 -2,-1 -2,1 -3,3 -1,1 -1,3 -2,4 -5,14 -2,22 2,33zm82 -37c3,3 4,15 4,20 -1,12 -6,17 -5,20 3,1 4,-3 5,-7 4,-10 3,-23 -1,-33 -1,-1 -1,-3 -2,-3 -3,-1 -2,2 -1,3zm-60 -8c1,1 3,-1 5,-2 11,-6 24,-5 35,0 4,2 8,-1 -8,-5 -10,-3 -21,-1 -30,4 -2,1 -4,2 -2,3zm22 72c5,0 17,-1 21,-4 1,-1 1,-2 0,-2 -1,-1 -3,0 -5,1 -9,4 -19,4 -29,1 -5,-2 -10,-5 -10,-2 0,2 8,4 10,5 4,1 8,1 13,1zm-8 -90c20,-3 28,7 29,4 1,-2 -2,-3 -3,-3 -12,-5 -24,-6 -36,-2 -1,1 -4,2 -5,3 0,1 1,2 1,2 1,0 2,-1 3,-1 3,-2 7,-3 11,-3zm8 78c6,0 13,-2 18,-5 2,-1 4,-2 3,-4 -2,0 -6,2 -8,3 -20,9 -33,-4 -35,-4 -2,0 -1,2 0,3 6,4 14,7 22,7zm167 -26c-4,-1 -2,5 -8,5 -8,0 -9,-15 -1,-16 2,-1 4,0 5,1 2,2 0,3 4,3 0,-9 -18,-11 -18,4 1,11 11,11 15,8 1,0 4,-3 3,-5zm-49 -13c0,2 0,15 1,17 1,2 3,3 6,3 4,0 5,-2 7,-3l0 2 2 1c1,-6 1,-13 1,-19 0,-2 -3,-2 -3,0 -1,6 1,14 -4,16 -4,2 -7,0 -7,-4 0,-4 0,-10 0,-13 -2,0 -2,-1 -3,0zm163 -7l0 27 2 0c1,-7 -2,-17 6,-18 8,-1 4,8 5,17l3 1 0 -3c0,-8 2,-19 -8,-18 -4,1 -3,2 -6,2l0 -9 -2 0 0 1zm-110 27l3 0c0,-8 -2,-17 5,-18 8,-1 5,7 6,17 1,1 1,1 2,0 1,-2 1,-14 0,-16 -2,-4 -7,-4 -10,-3 -2,1 -2,1 -3,1l0 -9c-4,0 -3,1 -3,4 0,6 0,20 0,24zm-73 -28c0,1 0,25 0,28l3 0c0,-7 -2,-17 5,-18 5,-1 6,2 6,6 0,3 -1,8 0,11 1,1 1,1 2,0 1,-2 1,-14 0,-16 -3,-7 -12,-2 -13,-2l0 -9 -3 0zm-95 -6c0,2 3,5 5,4 1,0 1,-1 0,-2 -1,-1 -2,-1 -3,-3 7,0 17,8 17,19 0,5 -2,9 -4,13 -1,2 -3,4 -4,5 -2,2 -4,3 -3,5 3,0 6,-5 8,-7 6,-8 8,-20 2,-28 -1,-2 -1,-2 -2,-3 -1,0 -1,-1 -2,-1 -2,-2 -4,-3 -7,-4 -3,-1 -8,-2 -7,2zm224 16c3,-1 5,0 6,2 3,3 1,4 -2,4 -2,0 -8,1 -8,-1 -1,-2 2,-5 4,-5zm10 12c-4,-1 -2,4 -9,4 -5,-1 -6,-6 -5,-7 1,-1 8,-1 11,-1 2,0 6,2 3,-5 -3,-6 -10,-8 -15,-3 -6,7 -2,21 10,18 2,-1 5,-3 5,-5l0 -1zm17 -4c0,3 0,5 -3,7 -2,1 -5,1 -7,0 -3,-2 -1,-5 2,-6 1,-1 6,-2 8,-1zm-13 -5c4,1 1,-1 5,-3 5,-3 10,3 6,5 -2,2 -9,1 -12,5 -1,3 0,8 7,8 4,0 4,-2 6,-2 1,1 2,3 5,2 0,0 1,-1 0,-2 0,-1 -1,0 -1,-2 -2,-6 4,-18 -9,-17 -4,0 -7,2 -7,6zm-147 5l-3 0c-1,2 -1,4 -2,6 -2,1 -5,2 -8,1 -5,0 -7,-4 -8,-10 0,-6 2,-10 7,-12 2,-1 5,-1 7,0 2,1 3,3 4,5l3 0c0,-4 -7,-10 -15,-7 -12,3 -12,25 2,27 4,0 7,0 9,-2 2,-1 5,-5 4,-8zm-130 14c1,1 2,4 3,3 0,0 2,0 0,-3 0,0 -1,-1 -1,-2 -1,-1 -2,-3 -2,-4 -3,-8 -3,-16 0,-24 1,-2 3,-8 6,-7 1,2 0,5 -1,7 -3,6 -4,12 -3,18 1,2 1,3 3,3 1,-3 -2,-6 0,-15 1,-3 5,-9 4,-12 -1,-3 -2,-4 -5,-4 -6,2 -11,18 -8,29 1,7 3,8 4,11zm65 -38c4,7 6,11 6,20 -1,4 -1,8 -3,11 0,1 -1,3 -2,4 -1,2 -1,3 -4,3 -1,-3 2,-9 3,-13 1,-4 2,-12 0,-15l-2 0c-1,5 3,8 -2,20 -5,12 3,13 7,8 3,-5 5,-11 5,-18 1,-9 -2,-12 -4,-19 -1,0 -2,-3 -3,-3 -1,-1 -2,1 -1,2zm170 31l0 -10c4,0 8,0 12,0 3,0 3,2 3,9 0,2 -1,3 1,3 2,1 2,0 2,-2 0,-6 0,-19 -1,-24 -3,-1 -2,1 -2,4 0,9 1,7 -10,7 -8,0 -5,2 -6,-11 -4,-1 -3,2 -3,5l0 18c0,2 0,3 1,3 3,1 3,0 3,-2zm-220 -29c-9,14 -4,35 12,41 5,2 15,3 18,0 0,-5 -5,2 -16,-2 -16,-5 -21,-25 -12,-38 1,-1 1,-1 2,-1 2,-4 8,-7 14,-8 3,-1 7,-1 10,0 2,1 7,3 8,2 1,-2 -1,-2 -3,-3 -5,-2 -11,-3 -17,-1 -8,1 -13,5 -16,10z"/>
   <g>
    <path class="fil2" d="M1267 200c-2,-6 -1,-33 -1,-41 0,0 1,0 1,1 0,0 0,0 0,0l2 5c10,26 16,26 20,35l-22 0zm-24 -1c1,-3 5,-8 6,-13 2,-4 4,-9 5,-15l6 0c3,5 2,25 1,30l-18 -2zm9 -32c-3,4 -4,14 -7,19 -3,8 -6,11 -9,16 3,5 2,-1 6,5 3,7 -3,0 0,6l1 1c1,0 1,0 3,-1 12,-2 5,0 17,0 7,0 17,-2 24,-2 4,0 2,0 3,-2l-1 -1c-1,1 -2,0 -3,2 0,0 -1,-1 -1,-1 -1,1 -1,0 -1,0 -9,-1 -13,2 -21,1 -5,0 -6,-1 -11,-1 -8,1 -7,3 -8,-5l42 0 3 3c3,-4 3,-3 8,-3l0 12c-4,3 -9,4 -15,4 -6,0 -11,2 -15,2 -2,0 -8,-2 -14,-2 -24,-1 -21,-1 -21,-35 0,-14 0,-33 -1,-46l30 0 0 28 -9 0zm47 -28c-1,22 -1,41 -2,62 -6,-3 -17,-20 -20,-26 -4,-7 -9,-27 -11,-36l33 0zm-33 89c12,-8 13,-4 27,-6 11,-1 9,-12 9,-23 0,-11 0,-22 0,-32 0,-7 2,-28 2,-30l-79 -1c0,8 2,20 2,31 0,20 -4,50 11,55 5,2 11,1 16,1 6,1 9,3 12,5z"/>
    <path class="fil2" d="M1230 313c1,12 12,10 30,10 0,-7 -1,-19 1,-24 8,1 6,4 6,24l10 0 1 -24c10,0 7,0 7,24l11 0 0 -25c-2,-7 -7,-7 -15,-7 -6,0 -2,-1 -5,3 -4,-5 -16,-3 -27,-3l0 22c-13,2 -7,-2 -9,-22l-10 0 0 22z"/>
    <path class="fil2" d="M1298 323c16,0 36,4 33,-21 -1,-7 -3,-9 -8,-10l-13 -1c0,10 -1,5 5,8 11,3 9,16 -7,14l0 -35 -9 0 -1 45z"/>
    <path class="fil2" d="M1191 312c-7,-17 17,-16 10,0l-10 0zm-13 -2c4,19 40,16 36,-7 -4,-21 -41,-16 -36,7z"/>
    <path class="fil2" d="M1357 322l11 1 0 -10c-5,0 -6,0 -7,-1 -3,-3 -5,-4 -3,-9 1,-4 5,-4 11,-4l1 22 10 1 0 -30 -23 0c-15,1 -15,26 0,30z"/>
    <path class="fil2" d="M1249 243l-12 3c15,8 20,1 26,4l-8 6c4,-1 9,-4 12,-3 6,0 5,4 13,3l-11 -7c6,-2 14,5 24,-3l-5 -2c-2,0 -4,0 -6,-1 2,-5 4,-6 7,-11 -17,2 -14,8 -21,16 -12,-3 -6,-13 -25,-16l6 11z"/>
    <polygon class="fil2" points="1227,323 1227,278 1216,279 1216,322 "/>
    <path class="fil2" d="M1165 322l11 1 0 -8c-2,0 -4,0 -5,0l-5 -1 -4 -2c-1,-7 -1,-7 1,-12l12 -1 1 -8 -13 1c-6,1 -8,3 -11,7 -1,10 -2,24 13,23z"/>
    <polygon class="fil2" points="1334,321 1344,321 1344,291 1334,291 "/>
    <path class="fil2" d="M1228 232l-12 0c5,7 10,8 22,8 1,-10 -6,-18 -13,-20l3 12z"/>
    <path class="fil2" d="M1313 233c-3,-2 4,-2 -5,-1l-3 0 -3 1c-1,-7 0,-2 1,-4l4 -9c-6,3 -14,8 -14,18 11,4 14,1 20,-5z"/>
    <path class="fil2" d="M1242 218c4,-1 8,-2 12,-1 4,0 6,2 11,2 9,0 14,-2 24,-2 -5,-7 -12,-1 -21,-1 -7,1 -8,0 -13,-1 -12,-3 -13,2 -13,3z"/>
    <path class="fil2" d="M1214 202c1,-6 -1,-13 -4,-17 -2,-4 0,-2 -4,-4 -3,7 1,18 8,21z"/>
    <path class="fil2" d="M1221 205c4,-5 6,-14 3,-21 -5,5 -9,15 -3,21z"/>
    <path class="fil2" d="M1216 186c5,-4 10,-10 9,-20 -4,2 -6,4 -8,8 -2,3 -2,8 -1,12z"/>
    <path class="fil2" d="M1314 186c1,-11 -1,-16 -8,-20 -1,3 -2,2 -1,6 1,2 1,4 2,5 2,4 4,7 7,9z"/>
    <path class="fil2" d="M1323 208l0 -4 -3 1c-5,5 -8,7 -9,17 6,-2 10,-7 12,-14z"/>
    <path class="fil2" d="M1218 221c4,2 1,1 2,-1 -2,-7 -5,-12 -10,-15 -2,0 -1,-1 -1,1 2,9 1,13 9,15z"/>
    <path class="fil2" d="M1311 205c3,-7 1,-18 -4,-21 -3,8 -1,15 4,21z"/>
    <polygon class="fil2" points="1343,278 1335,278 1334,287 1344,287 "/>
    <path class="fil2" d="M1318 191c0,6 -1,4 1,8 3,-8 6,-3 5,-18 -4,2 -5,4 -6,10z"/>
    <path class="fil2" d="M1284 209c0,0 0,1 1,0 0,0 1,1 1,1 1,-2 2,-1 3,-2l0 -1 -3 -3c0,8 1,3 -2,5z"/>
    <path class="fil2" d="M1217 228c0,3 3,0 2,-1 -3,0 -2,-2 -2,1z"/>
    <path class="fil2" d="M1304 216c4,-1 2,0 3,-3 -5,2 0,-1 -3,3z"/>
    <path class="fil2" d="M1224 216c1,4 4,1 2,0 0,0 -1,0 -1,0 0,0 -1,-3 -1,0z"/>
    <path class="fil2" d="M1205 200c3,1 -5,2 1,0l1 0c-1,-1 3,-4 -2,0z"/>
    <path class="fil2" d="M1299 245c0,1 3,2 2,0l0 0c-4,0 -2,-4 -2,0z"/>
    <path class="fil2" d="M1317 180c0,3 3,0 2,0 0,0 -1,0 -1,0 -3,0 0,-3 -1,0z"/>
    <path class="fil2" d="M1210 180l2 1c0,0 0,-1 0,-1l-2 0z"/>
    <path class="fil3" d="M1317 136c2,0 3,0 4,1 1,0 2,1 3,2 0,1 1,3 1,4 0,1 -1,2 -1,3 -1,2 -2,2 -3,3 -1,1 -2,1 -4,1 -1,0 -2,0 -3,-1 -1,-1 -2,-1 -3,-3 0,-1 -1,-2 -1,-3 0,-1 1,-3 1,-4 1,-1 2,-2 3,-2 1,-1 2,-1 3,-1zm0 1c-1,0 -2,0 -2,1 -1,0 -2,1 -3,2 0,1 0,2 0,3 0,1 0,2 0,3 1,1 2,1 3,2 0,0 1,1 2,1 1,0 2,-1 3,-1 1,-1 2,-1 2,-2 1,-1 1,-2 1,-3 0,-1 0,-2 -1,-3 0,-1 -1,-2 -2,-2 -1,-1 -2,-1 -3,-1zm-3 10l0 -8 2 0c1,0 2,0 2,0 1,0 1,0 1,0 1,1 1,1 1,1 0,1 0,1 0,1 0,1 0,1 0,2 -1,0 -1,0 -2,0 0,0 1,1 1,1 0,0 0,0 0,0 0,0 1,1 1,1l1 2 -2 0 -1 -2c0,0 -1,-1 -1,-1 0,0 0,0 -1,0l0 0 0 3 -2 0zm2 -5l0 0c1,0 2,0 2,0 0,0 0,0 0,0 1,0 1,0 1,-1 0,0 0,0 -1,0 0,0 0,0 0,-1 0,0 -1,0 -2,0l0 0 0 2z"/>
    <path class="fil3" d="M1390 288c1,0 3,1 4,1 1,1 2,2 2,3 1,1 1,2 1,3 0,2 0,3 -1,4 0,1 -1,2 -2,3 -1,0 -3,1 -4,1 -1,0 -2,-1 -3,-1 -2,-1 -2,-2 -3,-3 -1,-1 -1,-2 -1,-4 0,-1 0,-2 1,-3 1,-1 1,-2 3,-3 1,0 2,-1 3,-1zm0 2c-1,0 -2,0 -3,0 -1,1 -1,2 -2,3 0,0 -1,1 -1,2 0,1 1,2 1,3 1,1 1,2 2,2 1,1 2,1 3,1 1,0 2,0 3,-1 1,0 2,-1 2,-2 1,-1 1,-2 1,-3 0,-1 0,-2 -1,-2 0,-1 -1,-2 -2,-3 -1,0 -2,0 -3,0zm-3 9l0 -7 1 0c2,0 3,0 3,0 0,0 1,0 1,0 0,0 1,0 1,1 0,0 0,0 0,1 0,0 0,1 0,1 -1,1 -1,1 -2,1 0,0 0,0 1,0 0,0 0,1 0,1 0,0 0,0 1,1l1 1 -2 0 -1 -1c0,-1 -1,-1 -1,-2 0,0 -1,0 -1,0l-1 0 0 3 -1 0zm1 -4l1 0c1,0 2,0 2,0 0,0 0,0 0,-1 0,0 0,0 0,0 0,0 0,0 0,-1 0,0 0,0 0,0 0,0 -1,0 -2,0l-1 0 0 2z"/>
   </g>
   <path class="fil4" d="M1677 253c-5,3 -9,4 -15,5 -5,0 -15,0 -14,-6 2,-9 26,-4 29,1zm89 -36c-9,2 -6,17 4,14 3,-1 6,-5 5,-9 -1,-3 -4,-6 -9,-5zm75 26c1,-11 23,-37 30,-35 1,5 -6,13 -9,16 -1,1 -2,3 -4,4 -1,1 -2,2 -4,4 -4,4 -9,9 -13,11zm-49 -2c0,-5 8,-17 11,-21 4,-4 22,-24 28,-23 1,3 -5,11 -7,13l-5 6c-2,2 -3,4 -5,5 -2,2 -3,3 -5,5 -7,6 -12,10 -17,15zm-49 -43c1,-1 2,-2 3,-3 4,-6 12,-15 17,-20 2,-1 4,-4 6,-6 4,-2 11,-9 16,-7 2,8 -15,25 -19,29 -3,2 -4,3 -7,5 -6,5 -17,12 -24,13l8 -11zm-45 55c1,-1 3,-2 4,-3l16 -18c1,-1 1,-2 2,-2 2,-3 4,-7 7,-8 10,-2 14,-4 23,-8 8,-4 20,-12 26,-18 3,-3 7,-6 11,-12 1,-1 1,-1 2,-2 7,-8 16,-29 2,-32 -8,-2 -17,3 -22,6 -5,3 -9,6 -13,10 -7,6 -18,20 -25,28l-12 17c-2,3 -2,3 -5,3 -2,0 -5,1 -7,1 -10,-1 -18,-2 -24,-6 -8,-5 -9,-12 -5,-21 2,-2 5,-6 8,-8 5,-4 13,-8 19,-10 2,0 12,-2 13,-3l-5 -9c-9,0 -23,7 -29,11 -8,4 -16,12 -19,21 -2,5 -2,13 1,17 8,16 27,18 42,18l-2 3c-6,6 -11,13 -18,19 -6,-3 -12,-10 -28,-10 -23,0 -30,18 -17,27 8,6 22,4 32,2 2,-1 4,-2 6,-3 3,-1 5,-2 7,-3 2,0 11,9 27,8 5,-1 11,-2 14,-4 2,-1 4,-2 6,-3 2,-1 3,-2 5,-3l1 1c0,1 0,1 0,2 1,3 3,5 6,6 12,5 31,-7 35,-8 1,1 2,3 3,4 2,1 4,3 6,3 4,2 10,2 14,1 15,-1 17,-5 26,-7 2,3 4,5 8,7 8,3 18,-1 26,-4 2,-1 8,-4 10,-5 0,5 1,8 5,9 4,2 8,0 12,0 -2,3 -6,6 -8,9 -6,6 -18,23 -20,31 3,1 10,3 12,3 3,-8 6,-14 11,-20 4,-6 9,-12 14,-17l7 -8c4,-4 16,-17 20,-20 2,-1 3,-1 3,-5 -1,0 -3,-1 -4,-2 -1,-1 -2,-2 -3,-3 -4,2 -17,18 -31,22 -13,4 1,-11 2,-14 -3,-2 -6,-4 -9,-6 -1,0 -15,13 -25,18 -3,1 -4,1 -7,2 -6,2 -10,1 -13,-3 3,-3 7,-5 10,-7l11 -9 14 -14c18,-26 2,-33 -17,-21 -3,2 -6,4 -9,7 -3,2 -5,5 -8,8 -4,6 -8,13 -11,21 -1,3 -1,7 -2,10 -1,3 -10,5 -13,6 -8,3 -20,5 -24,-2 1,-2 11,-8 13,-10 2,-1 3,-2 4,-3l9 -8c1,-1 2,-2 3,-3 2,-2 3,-3 4,-4 2,-2 2,-3 4,-4 6,-7 23,-29 10,-34 -9,-4 -25,7 -31,13 -2,1 -3,2 -4,4 -2,1 -2,2 -4,3 -2,2 -5,7 -7,9 -7,10 -12,19 -13,32 -14,10 -42,19 -19,-8 -2,-2 -5,-5 -8,-7l-11 11c-7,6 -17,13 -27,14 -6,0 -14,-2 -17,-5z"/>
   <g>
    <path class="fil5" d="M243 751c0,-6 7,-8 7,-1l0 9 3 0c0,-3 0,-9 1,-11 1,-3 6,-4 6,2l0 9 3 0 0 -10c0,-3 -2,-5 -4,-5 -2,-1 -5,0 -6,2l-1 0c0,-1 -2,-3 -4,-2 -2,0 -3,0 -4,1l-1 1 0 -2 -3 0 0 15 3 0 0 -8zm84 -14c-1,1 -2,1 -1,2 0,1 1,2 2,1 2,0 1,-4 -1,-3zm-59 0c-2,1 -1,4 1,3 2,0 0,-4 -1,-3zm-1 22l0 0 2 0 0 -15 -1 0 0 0 -1 0 0 15zm59 0l2 0 1 0 0 -15 -1 0 -1 0 -1 0 0 15zm-155 -21c0,4 0,9 0,13 0,6 -1,10 5,8 -1,0 -1,0 -2,-1 0,-1 0,-19 0,-20l-3 0zm148 20c0,3 3,2 4,1 -1,0 -1,0 -1,-1 0,-1 0,-2 0,-3 0,-5 0,-13 0,-17l-3 0 0 20zm-44 -18l0 4 -3 0 0 2 3 0c0,6 -2,12 2,14 2,0 4,0 5,-1l0 -2c-3,1 -4,1 -4,-4 0,-2 0,-4 0,-7l3 0 0 -2 -3 0 0 -5c-1,1 -1,1 -2,1 -1,0 -1,0 -1,0zm-77 11l-5 8 3 0 3 -6c1,1 0,0 1,1 0,0 0,0 0,0l3 5 3 0c0,-1 -1,-2 -2,-3 -3,-5 -3,-4 -2,-6 1,-1 1,-2 2,-2 0,-1 1,-3 2,-4l-3 0c-1,1 -2,4 -3,5 -1,0 -1,-1 -1,-1 0,-1 -1,-1 -1,-1 0,-1 -1,-2 -1,-3 -1,0 -3,0 -4,0l5 7zm138 8c0,-5 -2,-13 4,-13 5,0 3,8 4,13l2 0c1,-2 0,-5 0,-7 0,-2 0,-5 -1,-6 -1,-2 -2,-3 -5,-2 -3,0 -4,2 -4,2l0 -2 -3 0 0 15 3 0zm-117 -7c0,3 -1,6 -5,5 -3,0 -4,-3 -3,-6 0,-3 1,-5 5,-5 2,0 3,3 3,6zm3 1c2,-12 -13,-13 -14,-3 -2,12 13,13 14,3zm130 -3c0,-1 1,-2 1,-3 2,-3 7,-1 6,3l-7 0zm11 2l0 -3c-1,0 -1,-6 -7,-5 -4,0 -6,2 -7,5 -1,4 1,8 3,9 2,2 7,2 9,1l0 -3c0,0 0,0 -1,1 -3,1 -8,1 -8,-5l11 0zm-175 0c0,7 -6,6 -7,5 -1,-1 0,-4 1,-4 2,-1 4,-1 6,-1zm-8 -5c0,0 2,-1 4,-1 3,0 4,1 3,4l-3 0c-4,0 -8,3 -6,7 1,2 3,3 5,3 3,0 3,-1 5,-2 0,0 0,0 0,0 0,0 0,0 0,0l0 1 3 0 0 -9c0,-3 -1,-5 -4,-6 -2,-1 -6,0 -8,1l1 2zm105 12l2 0c1,-4 -1,-13 4,-13 4,0 4,2 4,5 0,3 0,6 0,8l3 0c0,-2 0,-4 0,-7 0,-3 0,-9 -6,-8 -1,0 -2,0 -3,0 -1,1 -1,2 -2,2l0 -8 -2 0 0 21zm-49 -18c1,0 1,-2 1,-2 -7,-3 -14,0 -12,6 0,3 4,4 7,5 6,3 1,10 -7,6l0 3c3,1 8,1 11,-1 3,-2 3,-6 0,-9 -3,-2 -7,-3 -8,-5 -1,-5 6,-4 8,-3zm80 -3c-3,0 -3,0 -4,1l-6 8c-1,0 0,0 -1,0 0,-2 0,-6 0,-9l-3 0 0 21 3 0 0 -10c1,1 0,0 1,1l3 5c5,5 3,4 8,4 -1,-1 -2,-1 -2,-2l-6 -8c-1,0 -1,0 -1,-1l8 -10zm-151 19c-1,0 -4,0 -5,0 -2,0 -3,-1 -4,-2 -2,-2 -3,-4 -2,-8 0,-3 2,-5 5,-6 2,-1 7,0 8,1l1 -3c-2,-1 -5,-1 -7,-1 -2,0 -4,0 -6,1 -2,2 -5,5 -5,10 0,4 2,8 5,9 4,2 11,2 13,1l0 -9 -3 0c0,1 0,5 0,7z"/>
    <path class="fil6" d="M299 613c0,0 3,1 4,1 1,1 3,1 4,2 1,0 3,1 4,2 1,1 3,2 4,3 0,1 1,1 1,2 1,0 2,1 2,2 4,5 6,10 6,19 0,4 -2,11 -3,15 0,1 -1,2 -1,3 0,0 0,0 0,1 0,0 0,0 -1,0 0,1 0,0 0,1 0,1 -3,7 -4,9 0,1 -4,8 -5,8 0,1 -5,9 -6,9 0,1 0,1 0,1l-2 3 -1 1c0,0 -1,0 -1,1 0,0 -1,1 -1,1 -1,1 -1,1 -1,2 -1,0 -1,1 -2,1 -1,1 -1,2 -2,3 0,0 -1,1 -2,2 0,0 0,0 -1,1 0,0 -1,1 -1,1 0,1 -5,5 -6,5 0,1 0,1 0,1 0,0 0,0 -1,0 0,0 0,0 0,1 0,0 0,0 -1,0 0,1 -1,1 -1,2 -1,0 -1,0 -2,1 -1,0 -2,1 -3,2 0,0 -5,3 -6,3 0,1 -1,1 -2,2 -1,0 -3,1 -3,1 -2,1 -4,1 -7,2 -14,2 -27,-2 -37,-9 -3,-2 -5,-3 -8,-6 0,-1 -1,-1 -1,-1 -1,-1 -1,-1 -2,-2l-2 -2c0,0 0,-1 -1,-1 -2,-2 -7,-10 -8,-12 1,0 2,2 3,2 4,2 9,3 14,4 3,0 5,0 8,-1 1,0 2,0 2,0 1,0 2,-1 3,-1l1 -1c1,0 4,-2 4,-2 0,0 0,0 0,0 0,-1 0,0 0,-1 1,-1 1,-3 2,-3l0 -2c0,-4 -1,-5 -3,-7 -1,-1 -4,-2 -6,-2l-1 -1c0,1 -1,0 -2,0l-4 0c-1,0 -3,0 -3,0 -2,0 -3,0 -4,-1 -1,0 -1,0 -2,-1 0,-2 2,-4 3,-5 0,0 0,0 1,0 0,0 0,0 0,0 1,0 1,0 1,0l5 0 2 -1c1,0 1,0 2,0 0,0 0,0 1,-1 0,0 0,0 0,0 1,0 1,0 2,-1 0,0 0,0 1,-1 1,-1 1,-1 2,-3 1,-1 1,-2 1,-3 0,-2 0,-4 0,-6 -1,-1 -1,-1 -1,-2 -1,0 -2,-2 -2,-2l5 0 2 0c0,0 0,0 0,1 0,0 0,0 0,0 0,-1 0,-1 0,-1l0 -4 -1 0 -3 1c0,0 0,0 0,0l0 0c0,0 0,0 0,0 -2,0 -4,0 -4,0 -1,0 -3,-1 -4,-1 0,0 0,0 0,0l-1 0 -1 -1c-3,0 -4,0 -7,0l0 0 -3 1c0,0 -1,0 -2,0 0,1 -1,1 -2,1 0,1 0,1 -1,1 -1,1 -2,2 -2,3l-1 1c0,1 -1,3 -1,5 0,2 0,4 1,5 1,3 2,4 2,4 1,0 2,1 2,2 1,0 2,1 3,1 -1,0 -1,1 -2,1 0,0 -1,1 -1,1 -1,1 -2,2 -2,3 -1,2 0,3 0,5 2,3 7,3 8,4 1,-1 2,0 3,0l5 0 5 0c5,1 5,5 4,6 0,2 -2,3 -4,4 0,0 -2,0 -3,0l-4 1c-1,0 -8,-1 -9,-1 -1,0 -6,-3 -8,-3 -12,-8 -17,-27 -15,-41 1,-6 3,-10 6,-14 1,-1 1,-2 2,-2 0,-1 5,-5 6,-6 0,-1 3,-3 3,-3l3 -1c0,-1 1,-2 2,-2 0,0 0,0 1,0 0,0 0,-1 0,-1 1,0 2,0 2,-1 1,0 4,-1 5,-2 0,0 1,0 1,0l1 -1 1 0c1,0 5,-2 6,-2l4 -1c1,0 1,0 2,0l3 -1c1,0 2,-1 3,-1l2 0 3 -1c1,0 3,0 4,0 1,0 1,0 2,0 0,-1 4,-1 5,-1l2 0c0,0 1,0 2,0l6 -1 5 0 0 0c3,0 12,1 15,1 7,0 9,1 14,2zm-49 34l-3 0c0,1 0,1 0,1 -1,0 -1,0 -2,0 0,1 -1,1 -2,1 0,1 -1,1 -1,2l-1 0c0,1 -1,2 -1,3 -1,1 -1,2 -1,3 0,2 0,2 1,4 0,0 1,2 4,4 0,0 1,1 1,1l5 3c2,0 5,2 6,3 0,0 1,1 2,2 0,1 0,3 0,3 0,1 -1,1 -1,2 0,0 0,0 -1,0 0,1 -1,1 -1,1 -1,1 -2,1 -3,1 -1,0 -4,0 -5,-1 -1,0 -4,-1 -4,-1 -1,0 -3,-1 -4,-2l0 1 0 4 0 1 1 0c2,1 4,1 5,2 3,0 5,0 7,0l4 -1c0,0 3,-1 3,-1 1,0 2,-1 2,-1 1,-1 1,-1 2,-2 0,0 0,0 0,0 0,0 0,-1 0,-1 1,0 1,0 1,0l1 -3 0 -2c-1,-8 -12,-10 -14,-12 -2,-1 -6,-4 -5,-7 0,-2 1,-2 2,-3 1,-1 2,-1 4,-1l1 0c1,0 4,0 4,1 1,0 2,1 3,1 0,0 0,0 0,0 1,0 1,0 1,1 1,0 1,0 1,0 1,0 0,1 0,0l0 -5c0,0 0,0 -1,0 0,0 0,0 0,-1 0,0 -1,0 -1,0l0 0 -1 0 -1 -1 -3 0 -1 0c-1,0 -2,0 -4,0zm25 -16l0 0c-1,1 0,0 -1,1 0,0 0,0 0,0 0,0 -1,0 -1,0 0,0 -1,0 -2,0l-2 1c0,1 0,1 1,2 0,4 0,17 0,20 0,4 0,8 0,12l0 12 0 0 0 2 -1 2 0 1c2,0 7,-1 9,0l-1 -2 0 -3 0 -1 0 -13c0,0 2,2 2,3 1,0 1,1 2,2 0,1 1,1 2,2 0,0 0,1 0,1 1,1 1,0 1,1 0,0 1,1 1,2 1,1 2,2 3,3l2 2c0,0 0,0 0,0 1,0 1,1 2,1 0,0 0,1 1,1l1 0c1,1 2,1 3,2 2,0 4,-1 6,-1l1 -1c1,0 0,0 1,0 -1,0 -2,0 -3,0 0,-1 -1,-1 -1,-1 -2,-1 -4,-2 -4,-3 0,0 -1,0 -1,0 0,-1 0,-1 0,-1 0,0 0,0 0,0 -1,0 -2,-2 -3,-2 0,-1 0,0 0,-1 0,0 0,0 0,0 0,0 -1,0 -1,-1 0,0 0,1 0,0 0,0 0,0 0,0 -1,-1 -1,-1 -1,-1 0,0 -1,-1 -1,-1 -1,-1 -1,-1 -1,-1 -1,-1 -1,-2 -2,-2 0,-1 -2,-2 -2,-3l0 0c-1,-1 -2,-2 -2,-3l1 0 0 -1c1,-1 1,-1 2,-1 0,-1 0,-1 1,-2 0,0 0,0 0,0l12 -10c0,0 1,-1 1,-1l-1 0 -8 0c0,1 -1,1 -1,2l-6 5c0,1 -7,7 -7,7l0 -31c-1,0 -1,0 -2,0zm-62 21c1,-1 5,-1 6,-1 1,0 2,0 3,1 1,0 0,0 0,0 4,2 4,8 3,11l0 1c0,0 0,0 0,0 0,1 -1,2 -1,2 -1,1 -2,2 -3,2 -1,0 -2,0 -3,0l-2 0c-4,-1 -6,-3 -6,-6 -1,-2 -1,-4 -1,-6 1,-1 2,-3 3,-3 0,-1 0,-1 1,-1z"/>
   </g>
   <path class="fil7" d="M704 715c3,0 5,-1 8,-1 2,-1 5,-2 7,-2 2,-1 4,0 7,2 2,0 4,1 6,2 -1,1 -3,1 -4,1l-16 4c-2,1 -3,1 -4,0 -1,-1 -3,-3 -4,-6zm166 63l5 0 2 -5 -6 0 -1 5zm-51 -15c-1,3 -1,6 -2,8 -1,2 -2,5 -2,7l15 0 1 -4 -9 0c1,-2 2,-5 2,-7 1,-2 2,-5 2,-7l-6 -1 -1 4zm-136 7c1,-1 1,-2 3,-3 2,0 2,1 2,3l-5 0zm-4 -3c0,1 0,1 0,1 -3,3 -3,9 1,10 2,1 5,1 7,1 3,-1 2,0 4,-5 -1,0 -10,3 -8,-2 1,0 8,0 10,0 0,-2 1,-4 0,-5 -1,-2 -2,-2 -4,-3 -2,0 -4,0 -6,1 -1,0 -1,0 -2,1 -1,0 -1,1 -2,1zm154 7c0,1 0,4 4,5l3 0c0,-1 0,-1 0,-1 0,0 1,-2 2,-3 -2,1 -2,1 -3,0 0,-1 0,-2 1,-2 1,0 3,-1 3,-1l-1 6c7,0 5,1 6,-4 2,-7 4,-9 -2,-10 -3,0 -6,0 -8,1 0,0 -1,1 -1,1 0,1 0,2 -1,2 1,0 9,-2 8,0 0,1 -1,1 -2,1 -2,1 -4,1 -5,2 -3,1 -3,2 -4,3zm-42 -6c2,0 5,-2 7,-1 1,2 -2,2 -4,3 -3,0 -4,1 -5,2 -1,1 -2,4 -1,5 1,2 4,2 6,1l2 -3c-1,0 -2,1 -3,0 -1,-2 2,-2 3,-2 1,-1 1,-1 2,-1l-2 6 6 0c0,-2 1,-5 1,-7 1,-2 2,-5 0,-6 -2,-1 -5,-1 -7,-1 -1,0 -4,0 -4,1 0,0 -1,3 -1,3zm-65 3c-1,2 -2,3 -3,3 -3,1 -4,-1 -3,-3 1,-4 7,-4 6,0zm-4 -7c-4,1 -7,3 -8,6 0,3 0,6 3,7 5,3 14,0 15,-7 0,-4 -2,-5 -3,-5 -1,-1 -1,-1 -3,-1 -1,0 -3,0 -4,0zm-16 0c-2,0 -2,1 -4,2l1 -2 -6 0c-1,5 -2,10 -4,14 1,0 5,0 6,0 1,-1 1,-8 5,-10 1,0 2,0 2,1 1,2 -1,7 -2,9l6 0c1,-2 1,-5 2,-8 1,-4 1,-4 -2,-6 -1,0 -3,0 -4,0zm153 4c6,-2 5,4 3,6 -1,1 -3,1 -4,-1 0,-1 1,-4 1,-5zm-4 -4c0,1 -2,5 -2,7 -1,2 -1,5 -2,7 6,0 5,1 6,-1l0 0c1,1 1,1 2,1 7,2 11,-6 10,-11 0,-2 -2,-3 -5,-3 -1,0 -2,0 -4,0 0,-1 1,-3 1,-4l-5 -1c-1,2 -1,4 -1,5zm-181 3c-8,0 -7,0 -7,2 0,1 -1,2 -1,2l3 0 -1 3c-2,1 -6,1 -7,-1 -1,-3 1,-11 12,-10 1,1 2,1 3,1l1 -4 -5 -1c-5,0 -8,0 -12,3 -5,3 -8,10 -4,14 1,1 2,2 4,2 2,1 5,1 7,1 1,0 6,0 6,-2l3 -10 -2 0zm109 -3c-3,0 -4,0 -6,2 -1,-2 -2,-2 -5,-2 -4,1 -3,1 -4,2l0 -2 -5 0c-1,2 -1,5 -2,7 0,2 -1,5 -2,7l6 0c1,-2 1,-4 2,-6 0,-2 1,-4 4,-4 0,1 0,2 0,3 0,1 -1,1 -1,2 0,2 -1,4 -1,5 7,0 6,1 6,-3 1,-1 1,-2 1,-3 1,-2 2,-5 4,-4 1,2 -1,8 -2,10l6 0c0,0 1,-1 1,-2l1 -6c1,-4 1,-6 -3,-6zm-47 1c0,1 -3,11 -4,13l6 0c2,-1 1,-11 6,-10 1,1 -2,8 -2,10l6 0c0,-2 1,-4 1,-6 1,-2 2,-4 4,-4 1,3 -1,8 -2,10l6 0c1,0 2,-7 2,-8 1,-4 2,-5 -2,-6 -2,0 -3,0 -4,0 -2,1 -2,1 -3,2 -1,-2 -1,-2 -4,-2 -2,0 -4,1 -5,2l1 -2 -6 0c0,1 0,0 0,1zm23 -126c1,1 14,6 16,7 6,2 11,4 17,5 3,1 6,2 8,3 4,1 22,8 23,11 2,1 1,3 0,5 -1,1 -3,2 -3,3 -7,5 -16,9 -23,11 -1,1 -5,2 -5,2 -1,1 -1,13 -2,15 7,-2 20,-8 25,-13l4 -3c1,-1 1,-1 2,-2 2,-1 4,-5 5,-7 5,-8 3,-16 -2,-22 -3,-3 -5,-5 -8,-7 -2,-1 -3,-2 -5,-3 -1,0 -4,-2 -5,-3 -1,0 -2,-1 -4,-2 -4,-2 -8,-4 -12,-5 -11,-4 -23,-9 -32,-15 -3,-1 -5,-2 -6,-6 -2,-5 4,-9 8,-12 0,-1 0,-1 2,-1 15,-1 33,4 45,13l8 6c2,2 3,2 5,5 -8,2 -24,7 -32,7l13 6c1,0 1,1 2,1 2,0 16,-4 19,-5 1,0 3,-1 5,-1 0,0 0,1 1,2 1,1 4,6 4,7 1,1 5,11 5,13 6,24 2,49 -13,67l-5 5c-3,4 -10,9 -15,12 -1,1 -2,2 -3,2 1,-5 0,-9 -3,-12l-3 -2c0,-1 -1,-1 -1,-1 -3,-2 -6,-4 -9,-6 -8,-4 -18,-7 -26,-11 6,-1 11,-1 16,-3 3,-1 11,-3 13,-5l5 -34c0,-1 0,-1 -1,-1l-7 1c-8,0 -19,1 -26,2l-2 11c3,0 11,-1 15,-2 0,1 -3,17 -3,17 -2,1 -5,2 -7,3 -3,0 -5,1 -8,1 -5,1 -12,1 -17,0 -10,-3 -15,-12 -12,-24 2,-9 11,-14 18,-18 7,-3 13,-6 20,-8 2,-1 6,-2 8,-2 -1,-1 -1,-1 -2,-1l-13 -5c-3,0 -14,3 -17,4 -7,3 -14,6 -19,11 -2,1 -4,3 -5,5 -1,1 -3,2 -4,4 -2,3 -4,7 -6,11 -2,7 -2,14 2,21l2 2c6,7 12,9 21,13 5,3 10,5 15,7 5,2 33,13 36,16 4,4 4,8 2,12 -2,2 -1,2 -4,2 -21,4 -42,-1 -58,-13 -3,-3 -7,-6 -9,-8 0,0 -1,-1 -1,-1 -1,-1 -1,-1 -2,-2 3,0 5,-1 8,-2l22 -5c-1,0 -16,-7 -18,-8 -1,0 0,0 -2,0 -1,0 -1,1 -2,1 -2,0 -14,4 -15,4 -1,-2 -3,-4 -4,-6 -9,-18 -10,-39 -3,-58 2,-5 4,-9 6,-14 4,-6 5,-6 8,-11 1,0 1,-1 2,-1 2,-3 5,-6 9,-9 1,-1 3,-2 5,-4 2,-1 5,-3 7,-3 -2,11 2,16 8,21 3,2 6,4 9,5 2,1 8,5 10,5zm34 49c8,-3 13,-4 21,-8 1,-1 5,-3 6,-5 1,-1 1,-1 2,-2 0,0 1,0 1,0l2 -3c1,-2 1,-4 0,-6 -3,-4 -12,-8 -19,-10 -6,-3 -15,-5 -22,-7 -15,-5 -31,-11 -44,-21 -5,-4 -7,-9 -6,-16 1,-3 0,-2 3,-4 5,-2 12,-4 17,-4 -1,2 -4,4 -4,8 -1,7 7,12 12,15 3,1 6,2 9,4 13,5 25,10 37,16 6,3 12,7 15,12 5,6 5,12 1,19 -3,4 -6,7 -10,11 -3,2 -8,5 -12,7 -2,1 -7,3 -9,4l0 -10zm38 34c0,-1 -1,-3 0,-4 0,-4 7,-3 8,-4 0,-1 -4,-7 -2,-9 2,-2 4,-2 6,-3 2,0 1,-1 0,-2 -1,-1 -3,-4 -3,-6 1,-1 5,-4 7,-5 -1,-2 -8,-6 -2,-10 3,-2 5,-3 3,-4 -1,0 -1,0 -1,0 -1,-1 -2,-2 -3,-3 -3,-3 2,-7 4,-8l0 -2c-3,0 -7,-2 -7,-5 0,-4 5,-7 3,-7l-1 -1c-1,0 -2,0 -2,-1 -2,0 -3,-1 -3,-2 -2,-3 2,-7 2,-8 -1,-1 -7,0 -8,-3 -1,-1 0,-4 0,-5 1,-3 2,-4 1,-4 -2,0 -3,0 -5,0 -1,0 -3,0 -3,-1 -2,-4 1,-8 0,-9l-1 0c0,0 0,0 0,0 0,0 -1,1 -1,1 -2,0 -5,0 -6,-1 -2,-2 -1,-7 -2,-8 -1,0 -2,1 -4,1 -4,1 -5,0 -6,-3 -1,-2 -1,-4 -1,-5 -1,0 -2,1 -4,2 -3,1 -6,1 -7,-3 0,-1 -1,-1 -1,-2 0,-1 0,-1 0,-1 0,-1 0,-1 0,-1 -2,1 -6,4 -8,3 -3,0 -4,-6 -5,-6 0,0 -4,4 -7,4 -2,1 -5,-3 -6,-6l0 0c-1,2 -1,3 -2,4 -3,3 -5,3 -8,0 -1,0 -2,-2 -3,-2 -1,2 -3,6 -5,6 -2,0 -5,-2 -7,-3 0,0 0,-1 -1,-1 0,3 -2,7 -4,8 -2,2 -7,-3 -8,-3 0,7 -1,9 -7,8 -2,0 -3,-1 -4,-1 0,9 -2,10 -9,8 -1,0 -1,0 -1,1 0,0 0,1 0,1 2,9 -2,9 -9,8 2,5 5,9 -2,10 -2,1 -3,1 -5,1 3,5 5,8 0,10 -1,1 -4,2 -5,2 0,1 2,3 3,3 2,5 1,7 -4,9 0,0 -1,0 -2,1 0,0 0,0 1,0 1,2 4,4 4,7 0,2 -3,3 -4,4 -1,1 -2,1 -2,2 0,0 1,0 2,1 1,1 3,3 4,5 0,2 -4,6 -5,6l0 1c2,1 6,4 7,6 1,3 -4,6 -4,7 2,1 6,1 7,3 1,2 0,4 0,5 -2,6 -4,4 2,5 8,2 3,7 3,10 0,1 0,1 2,1 0,0 1,0 2,0 6,0 6,4 4,9 8,-1 10,-1 9,8 7,-2 10,-3 10,6 0,0 0,0 0,0l1 1c0,1 5,-4 8,-2 1,0 2,2 2,3 1,1 1,3 2,4l0 0c3,-2 7,-6 11,-1 0,1 1,2 1,3 0,1 0,1 0,2 1,-1 1,-1 1,-1 0,-1 1,-1 1,-1 2,-3 6,-5 9,-1l2 3c0,1 0,1 1,1 0,-1 3,-5 6,-6 1,0 3,1 4,2 0,1 1,1 1,2 1,1 2,2 2,0l2 -3c2,-3 4,-3 7,-1l3 2c1,1 1,0 1,-1 0,0 0,0 0,-1 1,0 1,-1 1,-2 2,-4 4,-4 7,-2 1,0 2,1 2,1 1,0 1,1 2,0 0,-1 0,-2 1,-4 2,-7 6,-3 10,-2 0,-2 0,-7 2,-8 2,-2 7,0 8,0 1,-2 -1,-6 1,-9 1,-2 7,-1 8,-1 0,-1 -1,-2 -1,-3z"/>
   <g>
    <path class="fil8" d="M1271 731l0 -46 -7 0c0,8 -4,13 -10,16 -6,3 -15,2 -22,1l0 -17 -7 0 0 46 46 0z"/>
    <path class="fil9" d="M1225 685l7 0 0 -17c3,-1 9,-1 12,-1 4,0 8,1 11,2 5,3 9,8 9,16l7 0 0 -46c-8,0 -16,0 -23,0 -4,0 -21,-1 -23,0l0 46z"/>
    <path class="fil8" d="M1387 692c0,-2 3,-10 4,-12 1,-1 1,-3 2,-3l4 25c1,0 4,0 5,0l-5 -34c-7,0 -5,-2 -8,6 -1,3 -2,5 -3,8 -1,2 -5,12 -6,14l-12 -28 -6 0 -5 34 5 0 4 -25c1,0 5,11 6,12 1,4 3,9 5,13l5 0c1,-2 3,-9 5,-10 0,0 0,0 0,0z"/>
    <path class="fil8" d="M1324 687c0,-2 0,-13 0,-14 0,-1 1,-1 2,-1 5,0 11,0 11,7 0,6 -8,8 -13,8zm-5 -19l0 34 5 0 0 -11 6 -1 8 9c0,1 1,2 2,3l7 0c-1,-2 -4,-5 -6,-7 -1,-2 -3,-4 -5,-7 0,0 0,0 0,0 0,0 1,0 1,0 2,-2 4,-3 5,-6 2,-5 1,-8 -2,-11 -4,-5 -13,-4 -21,-3z"/>
    <path class="fil8" d="M1103 692c0,0 1,2 1,3 1,2 2,2 3,3 7,6 19,6 27,1l0 -16c0,-2 1,-2 -5,-1l0 15c-5,1 -10,2 -15,-1 -9,-4 -9,-20 2,-23 6,-3 11,-1 17,0 0,-5 0,-4 -3,-5 -10,-2 -23,-1 -27,10 -2,5 -1,9 0,14z"/>
    <path class="fil8" d="M1430 672l7 18 -14 0 7 -18zm-17 30c6,0 5,1 7,-4 0,-1 0,-1 1,-2 0,-2 0,-2 2,-2l15 0 4 8 5 0c0,-2 -5,-14 -7,-17l-6 -15c-1,-3 0,-2 -7,-2l-14 34z"/>
    <path class="fil8" d="M1164 672l7 18 -14 0 7 -18zm-12 16l-6 14 6 0 3 -8 17 0 1 2 2 6 6 0 -14 -34 -6 0c-1,1 -8,18 -9,20z"/>
    <path class="fil8" d="M1280 702l24 0 0 -5 -19 0 0 -11 14 0 0 -4 -14 0 0 -10 18 0 0 -4 -23 0c-1,2 -1,32 0,34z"/>
    <polygon class="fil8" points="1195,702 1219,702 1219,698 1201,698 1201,668 1195,668 "/>
    <path class="fil10" d="M1238 698c-1,-2 0,-11 0,-13l20 0c0,-11 -9,-15 -20,-13 -1,2 -1,25 0,26z"/>
    <path class="fil11" d="M1238 698c5,0 10,0 14,-2 4,-2 6,-5 6,-11l-20 0c0,2 -1,11 0,13z"/>
   </g>
   <g>
    <path class="fil12" d="M1807 618c11,-3 17,12 5,17 -10,3 -16,-14 -5,-17zm-22 -8c-25,13 -19,50 7,56 20,4 40,-13 36,-34 -1,-8 -4,-12 -8,-16 -4,-4 -8,-7 -15,-9 -7,-1 -14,0 -20,3z"/>
    <path class="fil12" d="M1786 608c2,-2 17,-5 22,-6 9,-1 18,-2 27,-1 9,1 17,2 26,3l24 5 0 -9c-7,-3 -25,-5 -32,-7 -7,-1 -30,-2 -38,-1 -23,1 -49,12 -63,31 -8,11 -12,25 -13,39 -1,5 -1,15 0,19 1,-10 -1,-15 3,-27 4,-15 13,-27 24,-36 5,-3 13,-8 20,-10z"/>
    <path class="fil12" d="M1857 614c-2,7 -2,11 -5,17 -11,26 -35,45 -65,46 -22,1 -36,-7 -38,-7l0 9c7,5 30,7 31,8 2,0 6,0 9,0 23,-2 41,-13 54,-31 3,-3 6,-8 8,-12 4,-8 7,-20 6,-31 0,0 0,0 0,1z"/>
    <path class="fil12" d="M1729 738l2 5 11 -1 0 -32c-24,-2 -27,-4 -25,12 2,0 5,0 7,1 -3,11 -23,7 -22,-12 0,-6 3,-12 7,-14 9,-4 11,2 15,6l17 0c-2,-14 -11,-22 -27,-23 -16,0 -25,9 -29,21 -7,17 2,42 25,43 12,1 13,-3 19,-6z"/>
    <path class="fil12" d="M1851 703c-3,-1 -1,-3 -5,-3 -5,-1 -9,-2 -13,0 -2,6 -1,36 0,43l15 0c3,-8 -4,-30 7,-31 11,-1 5,22 7,31l16 0c0,-7 1,-31 -1,-36 -4,-10 -21,-12 -26,-4z"/>
    <path class="fil13" d="M1807 618c-11,3 -5,20 5,17 12,-5 6,-20 -5,-17z"/>
    <path class="fil12" d="M1775 704c-2,-4 0,-2 -2,-5l-14 0c-1,13 -1,31 0,44l16 0c0,-25 -3,-31 16,-31l0 -14c-11,-2 -11,2 -16,6z"/>
    <polygon class="fil12" points="1800,743 1816,744 1817,700 1800,700 "/>
    <g>
     <path class="fil12" d="M1684 760l0 17 2 0c1,-4 0,-5 1,-9 1,2 0,1 1,3l0 7 2 0c1,-3 1,-6 2,-8l0 8 3 0c0,-4 0,-15 0,-19l-4 0 -2 9c0,-1 0,-2 0,-4 -1,-2 -1,-7 -5,-4z"/>
     <path class="fil12" d="M1802 774c-2,-5 -2,-11 2,-10 1,4 1,10 -2,10zm-4 -2c1,10 11,9 9,-6 -1,-11 -11,-10 -9,6z"/>
     <path class="fil12" d="M1838 768c3,1 1,4 2,10l2 0c0,-3 0,-4 0,-6 0,-3 0,-2 1,-4 2,2 1,5 1,10 3,1 3,-1 3,-5 0,-10 -1,-9 -4,-8 -1,0 -6,-1 -8,0 0,14 0,14 3,13l0 -10z"/>
     <path class="fil12" d="M1740 775c1,-1 0,-3 0,-4 1,-3 0,-1 1,-3 3,4 -2,11 4,10 0,-4 -1,-8 1,-10 2,4 -2,12 3,10 0,-8 1,-15 -3,-13 -2,0 -6,-1 -8,0l0 13 2 0 0 -3z"/>
     <path class="fil12" d="M1710 774c-2,0 -2,-2 -1,-6l1 1c1,3 1,3 0,5zm0 -9c-1,0 -2,-2 -4,1 -1,3 -1,13 3,12 5,0 4,0 4,-13 0,-5 1,-6 -2,-6l-1 6z"/>
     <path class="fil12" d="M1866 774c-1,0 -2,-2 -1,-6l2 0c0,3 0,4 -1,6zm3 0c3,-10 -5,-13 -7,-6 -2,10 5,14 7,6z"/>
     <path class="fil12" d="M1824 774c0,-2 1,-2 2,-1 0,1 0,1 -1,2 -1,1 -1,-1 -1,-1zm-3 -2c0,4 0,7 3,6 1,0 1,0 2,0 1,0 1,0 2,0 0,-10 1,-13 -2,-14 0,0 -2,0 -2,0 -2,1 -2,2 -3,4 2,0 3,0 4,0 1,0 0,0 1,0l-1 2c-2,1 -2,0 -4,2z"/>
     <path class="fil12" d="M1731 775c1,-3 1,-3 2,-2 0,3 0,3 -2,2zm2 -7c0,2 0,1 -1,2 -2,1 -4,0 -3,8 2,1 2,1 4,0 1,-1 1,0 3,0l0 -13c-3,-1 -6,-2 -7,3 2,2 2,-1 4,0z"/>
     <path class="fil12" d="M1780 769l0 5c-1,0 -2,0 -2,-3 0,-3 1,-3 2,-2zm-4 4c0,8 8,7 7,-3 -1,-9 -8,-8 -7,3z"/>
     <path class="fil12" d="M1763 778c1,-5 -1,-8 1,-10 2,3 1,5 1,10l2 0c0,-5 1,-9 0,-13l-7 -1c0,9 0,10 1,12 0,1 0,1 0,1 0,0 0,1 0,1l2 0z"/>
     <path class="fil12" d="M1700 768c1,-1 0,-1 2,0 -1,1 0,1 -2,2 -2,0 0,-1 0,-2zm-1 5c1,-1 4,-1 5,-1 0,-12 -7,-9 -7,-2 -1,9 6,12 7,5 -3,-2 -4,2 -5,-2z"/>
     <path class="fil12" d="M1754 768c1,-1 1,-1 2,0 -1,2 1,2 -1,2 -2,-1 -1,-1 -1,-2zm0 5c1,-1 3,-1 4,-1 0,-11 -6,-10 -7,-2 -1,10 6,12 7,4 -3,0 -4,4 -4,-1z"/>
     <path class="fil12" d="M1874 768c2,-2 1,2 4,0 -1,-6 -6,-5 -7,0 0,6 3,3 4,6 -2,3 0,-1 -4,0 0,4 2,5 4,5 3,-1 3,-3 3,-7 -2,-3 -2,-2 -3,-3 -1,-1 -1,0 -1,-1z"/>
     <path class="fil12" d="M1787 768c2,-2 1,2 4,0 0,-3 -1,-4 -3,-4 -2,0 -2,0 -3,3 -1,6 3,5 4,7 -2,3 -2,-2 -4,0 0,4 2,5 4,5 2,-1 2,-3 2,-7 -1,-3 -3,-2 -4,-4z"/>
     <path class="fil12" d="M1856 768c3,0 1,2 4,2 1,-8 -7,-8 -7,1 0,9 7,11 7,2 -3,-1 -1,1 -4,1l0 -6z"/>
     <path class="fil12" d="M1723 769c2,-1 1,1 4,1 0,-8 -7,-8 -7,1 0,9 7,11 7,2 -3,-1 -2,2 -4,1l0 -5z"/>
     <path class="fil12" d="M1819 771c-1,-5 0,-3 1,-5 -1,-3 0,0 -1,-2 -1,-2 0,-2 -1,-4l-2 1 -1 5c0,0 0,2 0,2l1 2c0,4 -1,10 4,8 0,-7 -1,-1 -1,-7z"/>
     <path class="fil12" d="M1813 764c0,0 0,0 0,0 1,-2 1,-2 1,-4 -3,-4 -4,3 -5,6 1,5 -1,-6 1,2 0,3 0,5 0,10l2 0 1 -10c1,-1 0,1 1,-2 -1,-2 0,-1 -1,-2z"/>
     <path class="fil12" d="M1773 764l0 -1c-1,-1 0,-4 -2,-3 -1,1 0,1 -1,5 -1,2 0,-2 -1,1 1,2 1,1 1,4 1,4 -1,10 4,8 0,-7 -1,-1 -1,-7 0,-5 0,-3 1,-5 -1,-4 0,1 -1,-2z"/>
     <path class="fil12" d="M1831 759c-1,5 -1,14 0,19l2 0c0,-5 1,-14 0,-19l-2 0z"/>
     <path class="fil12" d="M1718 764c-3,0 -3,0 -3,5 0,3 0,6 1,9l2 0 0 -14z"/>
     <polygon class="fil12" points="1849,778 1851,778 1851,764 1849,765 "/>
     <path class="fil12" d="M1688 771c-1,-2 0,-1 -1,-3 -1,4 0,5 -1,9l-2 0 0 -17c0,1 0,0 0,2l0 16 3 0c0,-4 0,-4 0,-8l1 1z"/>
     <path class="fil12" d="M1851 760c-3,-3 -3,5 0,3l0 -3z"/>
     <path class="fil12" d="M1824 763c2,0 3,-1 3,-4l-2 0c-1,1 -1,2 -1,4z"/>
     <path class="fil12" d="M1715 762c2,1 2,2 3,-2 -1,0 0,0 -1,0 -1,0 -1,0 -2,0l0 2z"/>
    </g>
   </g>
   <g>
    <path class="fil14" d="M711 1174c1,0 0,0 1,0 0,0 1,0 1,0l78 0c9,0 18,0 27,0 0,0 0,0 0,0 1,1 0,0 0,0l1 0c0,0 0,0 0,0 0,2 0,22 0,23 -9,0 -18,0 -27,0l-67 0c-4,0 -10,0 -14,0 -2,0 -21,0 -25,0 -5,0 -24,0 -27,0 0,3 0,22 0,23 1,0 3,0 4,0 25,0 206,0 207,0 1,0 1,0 1,-1 0,-1 0,-1 0,-2 0,-2 0,-18 0,-20 0,0 0,0 0,0 0,-1 -47,0 -52,0l0 -23 52 0c0,-2 0,-16 0,-21 0,0 0,-1 0,-1l0 -1c-1,0 -211,-1 -212,0l0 23 52 0z"/>
    <path class="fil14" d="M839 1133c1,-3 0,-31 0,-38 1,0 1,1 1,2 1,1 1,2 1,3l12 24c0,0 0,1 1,2 0,1 3,7 3,7 1,0 9,0 11,0 4,0 4,0 4,-2 -1,-15 0,-32 0,-48 0,-6 0,-14 0,-21l-15 0 0 38c0,0 0,0 0,1l-3 -8c-1,-1 -1,-1 -2,-2 -2,-5 -4,-9 -6,-14 -1,-1 -1,-2 -1,-3 -1,-1 -1,-1 -2,-2 -1,-3 -3,-8 -4,-10 -3,0 -12,0 -14,0 -1,6 0,12 0,18l0 45c0,0 -1,7 0,8 1,1 12,0 14,0z"/>
    <path class="fil15" d="M711 1197c4,0 10,0 14,0l67 0c9,0 18,0 27,0 0,-1 0,-21 0,-23 0,0 0,0 0,0l-1 0c0,0 1,1 0,0 0,0 0,0 0,0 -9,0 -18,0 -27,0l-78 0c0,0 -1,0 -1,0 -1,0 0,0 -1,0 1,1 1,20 0,23z"/>
    <path class="fil14" d="M755 1080c0,-2 0,-2 2,-2 4,0 8,1 11,5 1,4 2,8 2,13 0,6 0,12 -2,17 -2,4 -6,4 -11,4 -2,0 -2,0 -2,-2l0 -35zm-15 53c6,0 14,0 20,0 7,0 4,0 9,-1 5,-1 7,-3 9,-6 4,-4 3,-6 5,-9 1,-1 1,-3 1,-4 1,-4 0,-3 1,-6 1,-3 0,-16 0,-19 -1,-1 -1,-2 -1,-2 -1,-6 -3,-13 -6,-17 -5,-6 -9,-7 -18,-7 -6,0 -13,0 -20,0 0,3 0,14 0,18 0,4 0,51 0,53z"/>
    <path class="fil14" d="M687 1082c0,6 2,10 5,15 1,1 4,3 5,4 7,3 17,4 18,11 0,2 0,4 -1,5 -1,1 -2,2 -3,3 -3,1 -7,0 -8,-2 -5,-7 -2,-10 -5,-9 -1,0 -1,0 -2,0 -1,0 -2,0 -3,0 -3,0 -5,0 -8,1 0,1 0,4 1,5l2 9c4,8 11,10 20,10 5,0 9,-1 13,-4 1,0 1,0 2,-1 2,-3 4,-4 5,-9 1,-3 1,-5 1,-10 0,-7 -1,-13 -6,-17 -2,-2 -6,-4 -9,-5 -2,-1 -10,-4 -11,-5 -3,-2 -3,-9 3,-9 3,0 4,1 6,3l1 2c0,1 0,1 0,2 0,0 0,0 1,1 0,1 0,1 4,1l10 -1c0,-2 -1,-7 -2,-9 -1,-3 -3,-6 -6,-9 -3,-2 -9,-3 -12,-3 -8,0 -14,2 -18,8 -2,4 -3,8 -3,13z"/>
    <path class="fil16" d="M796 1133c2,0 6,0 9,0 7,0 6,1 6,-2l0 -69 -11 0c-4,0 -4,0 -4,2 0,9 0,67 0,69z"/>
    <path class="fil14" d="M674 1133l0 -53c0,-6 1,-12 0,-18l-15 0c0,7 0,15 0,22l0 42c0,7 0,7 2,7 1,0 2,0 2,0l11 0z"/>
   </g>
   <g>
    <path class="fil17" d="M1310 1132l0 39 6 1 0 -37c3,-2 9,-2 12,-1 4,2 5,4 5,9 0,10 0,19 0,29l7 0c0,-9 0,-18 0,-27 0,-6 0,-11 -6,-14 -2,-1 -3,-1 -5,-2 -6,0 -15,0 -19,3z"/>
    <path class="fil17" d="M1173 1130c-3,0 -5,1 -7,2l0 40 7 0 0 -37c3,-2 9,-2 12,-1 4,1 5,5 5,9 0,8 -1,22 0,28l7 1c0,-7 0,-14 0,-20 0,-4 0,-11 -1,-15 0,0 0,-1 -1,-1 0,-1 0,-1 0,-1 -1,-1 -1,-1 -1,-1 -1,-1 -1,-2 -4,-3 -1,-1 -3,-1 -5,-2 -3,0 -9,0 -12,1z"/>
    <path class="fil17" d="M1149 1167c-3,2 -18,4 -17,-8 1,-9 10,-11 17,-11l0 19zm-16 -37c-1,1 -4,1 -5,2l2 4c1,0 7,-4 13,-2 5,1 7,6 6,10 -7,1 -12,2 -17,5 -4,2 -8,7 -6,14 1,6 5,8 12,9 6,1 13,0 17,-3 0,-7 0,-15 0,-23 0,-3 1,-7 -1,-10 -1,-2 -3,-5 -6,-5 -4,-2 -10,-2 -15,-1z"/>
    <path class="fil17" d="M1274 1150c0,-8 2,-15 9,-16 8,-2 11,5 11,13l-20 3zm-6 8c2,3 2,5 4,8 8,11 23,5 25,5 0,-1 0,0 0,-1l2 -1 -2 -4c-1,0 -2,1 -4,1 -6,2 -14,2 -17,-5 -1,-2 -2,-5 -2,-8l26 -4c0,-6 -1,-12 -4,-15 -8,-9 -33,-8 -28,24z"/>
    <path class="fil17" d="M1251 1165c-2,2 -4,2 -7,2 -3,0 -5,-1 -7,-2 0,0 -1,4 -2,4 3,2 4,2 7,3 5,1 6,0 8,0 1,-1 2,-1 2,-1 1,0 1,-1 2,-1 3,-2 6,-5 6,-9 1,-7 -3,-10 -8,-12 -2,-1 -4,-2 -6,-4 -5,-3 -3,-11 3,-11 4,-1 6,1 8,2 0,-1 1,-3 2,-4 -1,-1 -2,-1 -4,-2 -4,-1 -9,-1 -12,0 -4,2 -8,7 -6,14 1,5 7,7 11,9 7,3 6,9 3,12z"/>
    <path class="fil17" d="M1210 1132c-4,3 -5,9 -3,14 3,4 7,5 11,7 8,4 6,15 -4,14 -5,0 -6,-2 -7,-2l-2 4c3,2 3,2 7,3 6,1 10,0 14,-4 2,-2 2,-3 3,-6 2,-13 -8,-13 -14,-16 -5,-4 -3,-13 6,-12 3,0 4,1 5,2 1,-1 2,-3 2,-4 -3,-2 -5,-3 -9,-3 -5,0 -7,1 -9,3z"/>
    <path class="fil17" d="M1102 1184l0 5c5,-1 8,-4 10,-6 3,-4 4,-8 4,-13l0 -40 -7 0c0,5 0,10 0,15 0,6 0,11 0,16 0,7 2,20 -7,23z"/>
    <path class="fil18" d="M1443 1106c2,0 3,0 4,0l0 4c-1,3 0,3 -2,4 -2,1 -3,1 -5,2 -2,1 -8,3 -10,3 0,1 -5,2 -7,3 -1,0 -5,1 -6,2 0,5 0,10 0,16 0,4 -1,10 -2,14 -1,4 -3,9 -4,12 -2,4 -3,7 -5,11 -1,1 -4,7 -4,7 -1,1 -3,4 -4,5l0 0c0,1 0,0 -1,1 -1,2 -6,8 -8,9l-2 1c-1,2 -7,6 -9,7 0,1 -8,4 -9,5 -1,0 -3,1 -4,1 -1,0 -1,0 -2,0 -1,1 -1,1 -2,1l-1 0c1,-1 7,-5 8,-8 1,0 3,-3 4,-4 1,-1 2,-3 3,-4 2,-3 4,-6 6,-10 1,-2 2,-3 3,-5 0,-1 2,-5 3,-6l0 -1c1,-1 3,-10 4,-12 0,-2 1,-4 1,-6 1,-2 1,-5 1,-7 1,-6 1,-11 1,-17 0,-3 -1,-6 -1,-8 -1,-2 -2,-6 -2,-8 0,0 -2,-5 -3,-7l-3 -7c2,0 14,1 15,1 1,0 13,0 14,0 1,0 5,0 6,1 1,-1 23,0 23,0zm-34 -21c3,0 4,1 6,3 2,2 4,5 5,8 -1,1 -2,1 -3,1l0 0c0,0 0,0 -1,0 0,0 0,0 0,0 0,0 -1,0 -1,0l-8 0c-3,0 -6,0 -10,0l-8 0 -3 -1 -7 -1 -1 0c-2,-1 -4,-1 -6,-2 -2,-1 -4,-1 -5,-2 -2,-1 -3,-1 -5,-2 -5,-3 -8,-5 -13,-9 -2,-2 -8,-8 -8,-13 1,0 5,4 12,8 2,1 5,2 7,3 1,0 3,0 4,1l3 1c0,0 0,0 0,0 1,0 7,1 8,2 1,0 4,0 5,1 0,0 0,0 0,0 1,0 12,1 12,1 0,0 1,0 2,0 0,0 0,0 0,0 1,0 0,0 1,0 1,0 14,0 14,1z"/>
   </g>
   <path class="fil19" d="M1623 1145l1 7c2,21 -14,21 -7,3 2,-4 4,-7 6,-10zm185 0c3,5 2,26 -6,23 -3,-1 -1,-10 0,-13 1,-3 4,-8 6,-10zm125 -13c1,4 0,15 2,16 4,3 8,-14 11,-15 1,4 -1,13 2,16 2,1 5,-1 6,-3 1,-1 3,-3 3,-5 -1,0 0,-1 -2,2 -1,1 -2,2 -3,2 -1,-1 0,0 -1,-2l1 -7c0,-10 -4,-10 -9,-3 -1,3 -3,6 -4,7 0,-5 1,-8 -2,-11 -2,-1 -4,0 -5,1 -2,1 -3,2 -5,3 -1,-3 -7,-6 -8,-2 -2,3 1,5 7,4 1,10 -6,11 -9,8 -6,-6 1,-13 1,-14 -3,-1 -6,1 -9,2 -2,1 -5,4 -7,5 0,-2 -1,-2 -2,-4l-1 -3c0,-1 0,-1 -1,-1 -2,1 -5,10 -7,13 -1,2 -2,4 -3,3 -2,-3 3,-18 -4,-15 -5,1 -6,11 -9,12 -1,-2 0,-7 -1,-10 -1,-4 -4,-2 -5,0 -3,3 -7,12 -9,13 -2,-4 1,-11 -2,-15 -4,-1 -5,2 -6,4 -2,3 -3,7 -5,7 0,-2 0,-5 0,-8 0,-3 1,-4 3,-6 9,-15 -2,-21 -6,-10 -2,6 -1,10 -2,16 -1,1 -3,2 -6,2 0,-2 -1,-3 -2,-4 -5,-3 -9,2 -5,5 2,1 4,0 5,1 3,4 -4,12 -9,7 -1,-2 -2,-4 -2,-8 1,-4 3,-4 3,-6 -6,0 -11,7 -14,9 -1,-2 -1,-11 -2,-14 0,-3 0,-5 1,-8 0,-2 1,-5 1,-6 -7,-1 -18,9 -16,22 0,5 1,6 3,9l-8 1c0,-3 -1,-7 -2,-9 -2,0 -3,0 -4,1 1,3 3,3 3,6 -3,-3 -14,-7 -13,1 4,5 6,4 12,4 1,1 1,2 2,3 1,-1 1,-2 1,-4 8,-3 11,-2 15,3 -3,5 -6,10 -7,17 -1,15 15,7 15,-17 0,-2 -1,-4 -1,-5 0,-3 1,-3 2,-4 2,-1 5,-4 7,-5 -2,3 -3,4 -2,9 3,10 18,10 18,-6 3,-1 4,-2 6,-2 0,3 -1,12 1,14 3,2 6,-14 10,-15 2,4 -1,12 3,15 3,1 6,-5 7,-7 1,-2 4,-7 6,-8 1,5 -1,11 1,15 3,1 5,-3 6,-7 2,-3 4,-8 6,-8 0,4 -2,13 2,15 3,2 6,-3 7,-5 2,-3 3,-7 5,-8 4,5 1,4 0,9 -2,6 8,6 7,-3 0,-3 -1,-3 1,-5 1,-1 5,-4 8,-5 0,1 0,1 -1,2 -4,4 -3,13 4,15 9,3 12,-5 12,-13 1,-1 3,-3 5,-3zm-34 14c-1,-2 -1,-3 1,-4 0,1 1,5 -1,4zm-112 -3c-11,1 -8,-8 -3,-4 1,1 2,3 3,4zm137 -9l-2 0c-3,-3 2,-4 2,0zm-94 -2c3,0 3,0 4,2 -3,0 -4,0 -4,-2zm17 -5c0,-2 0,-6 0,-9 0,-4 1,-6 3,-6 2,5 0,12 -3,15zm-41 19c-5,-3 -7,-13 -6,-20 0,-6 4,-14 10,-15 0,3 -2,5 -2,8 -1,3 -2,6 -2,9 -1,12 4,14 0,18zm-92 1c-2,-1 0,-5 1,-6 0,1 0,2 0,3 0,2 -1,2 -1,3zm22 -15c2,-1 3,0 3,2 -2,0 -3,0 -3,-2zm-91 0c2,-1 3,0 3,2 -1,0 -3,0 -3,-2zm17 -5c0,-3 0,-6 0,-9 0,-4 0,-6 3,-6 2,5 0,12 -3,15zm-41 19c-5,-3 -7,-13 -7,-20 1,-6 6,-15 11,-15 0,5 -6,10 -3,27 0,1 0,4 0,5 0,1 -1,1 -1,3zm150 -3c1,-1 1,-1 1,-2 -3,1 -2,4 -5,4 -1,-4 2,-17 -4,-17 -4,1 -6,10 -9,12 -1,-4 1,-10 -3,-11 -2,-1 -6,3 -9,4 -1,-1 -2,-3 -4,-3 -5,-2 -6,3 -3,5 2,1 3,0 5,1 2,7 -4,12 -9,7 -1,-2 -2,-5 -1,-8 0,-3 3,-4 3,-6 -5,-2 -13,5 -16,7 -2,-3 -2,-5 -4,-8 -1,1 -4,7 -5,9 -1,2 -3,7 -5,8 -2,-4 2,-19 -4,-16 -3,1 -6,6 -7,9 -1,4 -1,3 -2,3 -1,-2 0,-7 -1,-11 -1,-3 -4,-1 -6,1 -2,4 -6,12 -9,13 0,-3 0,-6 0,-9 0,-1 0,-2 0,-3 0,-2 0,-2 -1,-3 -4,-2 -7,5 -9,8 -1,2 0,2 -2,3 -1,-2 0,-5 0,-8 0,-3 1,-3 2,-6 10,-15 -1,-21 -5,-10 -2,5 -2,10 -2,16 -1,1 -3,2 -6,2 -1,-2 -1,-2 -2,-4 -6,-4 -11,5 0,6 2,6 -5,12 -9,7 -2,-2 -3,-5 -2,-8 1,-3 3,-4 3,-6 -3,0 -6,2 -8,4 -3,2 -5,5 -6,5 -1,-5 -2,-9 -2,-15 0,-6 2,-13 2,-14 -13,3 -21,17 -15,30 1,3 3,5 5,6 1,1 1,1 1,1 1,1 1,1 1,1 -2,5 -4,7 -6,14 -1,5 0,14 6,10 8,-6 9,-19 8,-31 2,-2 6,-6 9,-7 -2,3 -3,4 -2,9 1,3 3,6 6,6 8,2 12,-5 12,-12l5 -2c1,4 0,13 2,14 4,2 6,-15 10,-15 2,5 -2,13 3,15 5,0 9,-13 13,-15 2,4 -2,12 1,15 3,1 5,-5 6,-7 1,-2 3,-8 5,-8 2,4 -1,10 2,15 4,1 6,-2 8,-5 1,-2 2,-5 4,-8 2,1 3,4 2,6 -1,1 -3,4 -1,6 2,3 5,1 6,-1 2,-3 1,-6 0,-9 2,-1 7,-6 10,-6 -2,2 -4,4 -4,9 1,9 11,12 16,6 2,-3 3,-7 3,-11 1,-1 3,-3 5,-3 2,5 -1,13 2,17 3,0 3,-3 6,-8 1,-2 3,-7 5,-8 1,2 0,6 0,8 0,13 7,8 10,2z"/>
   <path class="fil20" d="M391 1109c0,16 -1,14 6,25 4,6 8,12 11,19l-22 0c2,-3 3,-4 5,-7 5,-7 5,-6 1,-12 -2,-2 -2,-4 -4,-6 -3,2 -5,6 -7,9 -1,2 -5,8 -7,9l0 -26c0,-8 1,-7 -11,-7 -4,0 -2,14 -2,22 -4,-3 -18,-22 -21,-22l-10 0 0 47 14 0 0 -20c2,2 4,4 7,7l9 10c3,3 2,2 5,3 0,0 0,0 0,0 0,0 1,1 1,1 0,0 0,0 0,0 0,0 0,0 0,1 1,1 1,5 6,5l48 0c3,0 6,-2 6,-4 2,-5 -6,-15 -9,-22 -7,-11 -14,-18 -14,-30 0,-3 2,-2 4,-2l0 -5 -20 0c-2,6 1,4 4,5zm-244 72l2 -11 2 0 -2 9 6 0 -1 2 -7 0zm24 -3l-4 0 -1 3 -3 0 6 -11 3 0 2 11 -2 0 -1 -3zm0 -1l-1 -5 -2 5 3 0zm12 4l3 -11 3 0c1,0 2,0 2,0 1,0 1,0 1,0 1,1 1,1 1,1 0,1 1,1 1,2 0,0 -1,1 -1,1 0,1 -1,1 -1,1 0,0 1,1 1,1 0,0 0,1 0,1 0,1 0,2 0,2 -1,1 -1,1 -2,1 0,1 -1,1 -2,1l-6 0zm4 -7l2 0c0,0 1,0 1,0 1,0 1,0 1,0 0,-1 0,-1 0,-1 0,0 0,-1 0,-1 0,0 0,0 -1,0 0,0 0,0 -1,0l-1 0 -1 2zm-1 5l2 0c1,0 2,0 2,0 0,0 1,0 1,-1 0,0 0,0 0,-1 0,0 0,0 0,0 -1,-1 -1,-1 -2,-1l-2 0 -1 3zm17 -3c0,0 1,-1 1,-2 0,-1 0,-1 1,-2 0,-1 1,-1 2,-2 1,0 1,0 2,0 2,0 3,0 4,1 1,1 1,2 1,3 0,1 0,3 -1,4 0,1 -1,1 -2,2 -1,1 -2,1 -3,1 -1,0 -2,0 -3,-1 0,0 -1,-1 -1,-1 0,-1 -1,-2 -1,-3zm3 0c0,1 0,2 0,2 1,1 1,1 2,1 1,0 1,0 2,-1 0,0 1,-1 1,-1 1,-1 1,-2 1,-3 0,-1 0,-1 -1,-2 0,0 -1,0 -2,0 -1,0 -2,0 -2,1 -1,1 -1,2 -1,3zm19 5l-2 0 2 -11 5 0c1,0 1,0 2,0 0,0 1,1 1,1 0,1 0,1 0,2 0,1 0,1 0,2 -1,1 -2,1 -3,1 0,0 1,1 1,1 0,1 1,2 2,4l-3 0c0,-1 0,-2 -1,-3 0,-1 -1,-1 -1,-2 0,0 0,0 -1,0l-1 0 -1 5zm1 -6l2 0c1,0 2,0 2,-1 0,0 1,0 1,0 0,-1 0,-1 0,-1 0,-1 0,-1 0,-1 0,0 -1,0 -2,0l-2 0 -1 3zm23 3l-4 0 -1 3 -3 0 6 -11 3 0 2 11 -2 0 -1 -3zm0 -1l-1 -5 -2 5 3 0zm16 4l-2 0 2 -9 -3 0 0 -2 8 0 0 2 -3 0 -2 9zm13 -5c0,0 0,-1 1,-2 0,-1 0,-1 1,-2 0,-1 1,-1 2,-2 1,0 1,0 2,0 2,0 3,0 4,1 1,1 1,2 1,3 0,1 0,3 -1,4 0,1 -1,1 -2,2 -1,1 -2,1 -3,1 -1,0 -2,0 -3,-1 0,0 -1,-1 -1,-1 0,-1 -1,-2 -1,-3zm3 0c0,1 0,2 0,2 1,1 1,1 2,1 1,0 1,0 2,-1 0,0 1,-1 1,-1 1,-1 1,-2 1,-3 0,-1 0,-1 -1,-2 0,0 -1,0 -2,0 -1,0 -2,0 -2,1 -1,1 -1,2 -1,3zm19 5l-2 0 2 -11 5 0c1,0 1,0 2,0 0,0 1,1 1,1 0,1 0,1 0,2 0,1 0,1 0,2 -1,1 -2,1 -3,1 0,0 1,1 1,1 0,1 1,2 2,4l-3 0c0,-1 0,-2 -1,-3 0,-1 -1,-1 -1,-2 0,0 0,0 -1,0l-1 0 -1 5zm1 -6l2 0c1,0 2,0 2,-1 0,0 1,0 1,0 0,-1 0,-1 0,-1 0,-1 0,-1 0,-1 0,0 -1,0 -2,0l-2 0 -1 3zm16 6l2 -11 3 0 -3 11 -2 0zm13 -5c0,0 1,-1 1,-2 0,-1 0,-1 1,-2 0,-1 1,-1 2,-2 1,0 1,0 2,0 2,0 3,0 4,1 1,1 1,2 1,3 0,1 0,3 -1,4 0,1 -1,1 -2,2 -1,1 -2,1 -3,1 -1,0 -2,0 -3,-1 0,0 -1,-1 -1,-1 0,-1 -1,-2 -1,-3zm3 0c0,1 0,2 0,2 1,1 1,1 2,1 1,0 1,0 2,-1 0,0 1,-1 1,-1 1,-1 1,-2 1,-3 0,-1 0,-1 -1,-2 0,0 -1,0 -2,0 -1,0 -2,0 -2,1 -1,1 -1,2 -1,3zm17 1l2 0c0,1 0,1 1,1 0,1 1,1 1,1 1,0 2,0 2,0 0,-1 1,-1 1,-1 0,-1 -1,-1 -1,-1 0,0 -1,-1 -1,-1 -1,0 -2,-1 -2,-1 -1,0 -1,0 -1,-1 0,0 0,-1 0,-1 0,-1 0,-2 1,-2 0,-1 1,-1 2,-1 2,0 3,0 3,1 1,0 1,1 1,2l-2 0c0,0 0,-1 0,-1 -1,0 -1,-1 -2,-1 0,0 -1,1 -1,1 0,0 0,0 0,1 0,0 0,0 0,0 0,1 1,1 2,1 1,1 2,1 2,2 1,0 1,1 1,1 0,1 -1,2 -1,3 -1,1 -2,1 -4,1 0,0 -1,0 -2,-1 -1,0 -1,0 -1,-1 -1,0 -1,-1 -1,-2zm-55 -42c0,-15 18,-15 18,0 0,15 -18,15 -18,0zm-15 -1c0,12 9,25 21,25l6 0c11,0 21,-12 21,-24 0,-13 -11,-24 -24,-25 -12,0 -24,12 -24,24zm-128 1c0,-15 18,-15 18,0 0,15 -18,15 -18,0zm-16 0c0,8 4,15 10,20 7,5 20,6 27,1 7,-4 12,-13 12,-23 0,-11 -13,-23 -25,-23 -12,1 -24,12 -24,25zm-33 -16l0 -17 0 -2 -17 0 0 2 0 58 17 0 0 -24 14 0 0 45 18 0 0 -81 0 0c-6,0 -12,0 -18,0l0 9c0,4 0,7 0,10l-14 0zm97 40l0 -37c6,0 8,2 8,7 0,5 -3,8 -6,9 4,9 10,14 15,22l16 0 4 -20c0,0 0,0 0,-1l1 -1c1,4 3,8 5,12 2,4 5,8 10,8 1,-2 6,-16 8,-19l3 21 16 0c-2,-8 -2,-14 -3,-22 -1,-7 -2,-16 -2,-24l-18 0c-1,4 -3,7 -5,13l-1 0c-1,-5 -5,-10 -7,-12 -3,-3 -3,-2 -8,-2 -3,0 -6,0 -9,0 0,22 -4,24 -5,32 -2,-1 -3,-3 -4,-6 2,-3 10,-11 4,-21 -3,-4 -7,-5 -12,-5l-23 0 0 47c2,0 4,0 6,0 7,0 5,0 7,-1z"/>
   <rect class="fil21 str0" x="2" y="2" width="509" height="456"/>
   <rect class="fil21 str0" x="511" y="2" width="509" height="456"/>
   <rect class="fil21 str0" x="1020" y="2" width="509" height="456"/>
   <rect class="fil21 str0" x="1529" y="2" width="509" height="456"/>
   <rect class="fil21 str0" x="2" y="457" width="509" height="456"/>
   <rect class="fil21 str0" x="1020" y="457" width="509" height="456"/>
   <rect class="fil21 str0" x="1529" y="457" width="509" height="456"/>
   <rect class="fil21 str0" x="511" y="457" width="509" height="456"/>
   <rect class="fil21 str0" x="2" y="913" width="509" height="456"/>
   <rect class="fil21 str0" x="511" y="913" width="509" height="456"/>
   <rect class="fil21 str0" x="1020" y="913" width="509" height="456"/>
   <rect class="fil21 str0" x="1529" y="913" width="509" height="456"/>
  </g>
 </g>
</svg>
