<?xml version="1.0" encoding="UTF-8"?>
<!DOCTYPE svg PUBLIC "-//W3C//DTD SVG 1.0//EN" "http://www.w3.org/TR/2001/REC-SVG-20010904/DTD/svg10.dtd">
<!-- Creator: CorelDRAW X8 -->
<svg xmlns="http://www.w3.org/2000/svg" xml:space="preserve" width="2040px" height="1370px" version="1.0" style="shape-rendering:geometricPrecision; text-rendering:geometricPrecision; image-rendering:optimizeQuality; fill-rule:evenodd; clip-rule:evenodd"
viewBox="0 0 2040 1370"
 xmlns:xlink="http://www.w3.org/1999/xlink">
 <defs>
  <style type="text/css">
   <![CDATA[
    .str0 {stroke:#E6E6E6;stroke-width:3.5441}
    .fil22 {fill:none}
    .fil7 {fill:black}
    .fil16 {fill:#005494}
    .fil8 {fill:#0069B2}
    .fil14 {fill:#0071BB}
    .fil15 {fill:#007CC2}
    .fil0 {fill:#0087BE}
    .fil6 {fill:#009996}
    .fil25 {fill:#009EE0}
    .fil17 {fill:#010101}
    .fil1 {fill:#060709}
    .fil2 {fill:#07080A}
    .fil9 {fill:#09487C}
    .fil3 {fill:#0C7BC0}
    .fil10 {fill:#104A7D}
    .fil5 {fill:#2CBDCC}
    .fil12 {fill:#809CD1}
    .fil4 {fill:#A3C5E8}
    .fil11 {fill:#F03B43}
    .fil21 {fill:#004A90;fill-rule:nonzero}
    .fil13 {fill:#104A7D;fill-rule:nonzero}
    .fil24 {fill:#CE1041;fill-rule:nonzero}
    .fil23 {fill:#FEBE10;fill-rule:nonzero}
    .fil20 {fill:#DA8B02;fill-rule:nonzero}
    .fil19 {fill:#E23E28;fill-rule:nonzero}
    .fil18 {fill:#00839B;fill-rule:nonzero}
   ]]>
  </style>
      <clipPath id="id0">
       <path d="M745 254l25 0 0 24 -25 0 0 -24zm0 0z"/>
      </clipPath>
      <clipPath id="id1">
       <path d="M1644 1062l280 0 0 157 -280 0 0 -157zm0 0z"/>
      </clipPath>
 </defs>
 <g id="Capa_x0020_1">
  <metadata id="CorelCorpID_0Corel-Layer"/>
  <g id="_2485899792320">
   <g>
    <path class="fil0" d="M224 196l32 -33c3,2 5,5 7,8 3,3 6,5 8,8l16 17c-1,2 -28,29 -31,33 -4,-2 -5,-6 -8,-9 -5,-4 -22,-21 -24,-24zm42 -44l5 -5 46 49c-2,4 -7,8 -11,12l-11 12c-4,4 -21,23 -24,25l-5 -5c2,-4 39,-39 41,-44 -4,-4 -6,-8 -10,-11 -2,-2 -3,-4 -5,-6 -6,-6 -7,-6 -16,-16l-10 -11zm-47 61c7,5 10,10 15,16l16 16c12,13 11,11 21,11 7,0 9,1 13,-3 3,-3 5,-5 8,-8l31 -33c3,-3 13,-13 15,-16 -6,-6 -10,-12 -16,-17l-31 -32c-12,-13 -8,-11 -20,-11 -8,0 -9,-1 -13,3 -8,9 -16,16 -23,24l-16 16c-5,6 -10,12 -15,17l15 17z"/>
    <path class="fil0" d="M173 196c3,6 22,23 29,30 3,4 25,30 30,30l18 0c-2,-3 -25,-26 -29,-30 -5,-5 -9,-10 -14,-15 -4,-5 -10,-10 -14,-15 2,-3 4,-5 7,-8 2,-2 5,-4 7,-7 5,-5 9,-10 14,-15 3,-3 5,-4 8,-7l21 -23c-5,0 -12,0 -17,0 -5,0 -5,1 -10,7l-25 26c-3,3 -6,6 -9,9 -5,5 -11,13 -16,18z"/>
    <path class="fil1" d="M205 293c2,1 2,1 3,3 1,2 1,2 2,4l13 23 12 -1c1,-4 5,-10 8,-15 2,-3 6,-13 9,-14l1 3c1,5 -1,21 1,27l12 -1 1 -39 -25 0 -13 25c-5,-4 -10,-23 -15,-25l-23 0 0 40 13 0 1 -30z"/>
    <path class="fil1" d="M318 293c1,3 6,18 -4,19 -6,1 -23,2 -27,-1 -2,-2 -5,-18 4,-19 7,-1 21,-1 27,1zm-46 16c1,9 3,13 12,14 8,0 17,0 26,0 23,0 25,-3 23,-28 -1,-9 -3,-12 -12,-13 -8,-1 -18,-1 -26,0 -23,0 -25,3 -23,27z"/>
    <path class="fil1" d="M352 293c3,1 2,0 4,3l15 19c8,10 2,8 30,8l0 -40 -14 0 0 29c-3,-1 -2,-1 -4,-4 -4,-4 -19,-25 -21,-25l-24 0 0 40 14 0 0 -30z"/>
    <path class="fil1" d="M157 292c12,0 15,-1 15,12 0,11 -9,9 -18,9 -11,0 -17,1 -17,-10 0,-13 4,-11 20,-11zm28 20c1,-5 1,-18 -1,-23 -2,-7 -10,-7 -19,-7 -8,-1 -17,-1 -26,0 -9,0 -13,1 -15,10 -1,5 -1,19 1,24 2,7 11,7 19,7 8,0 18,0 26,0 9,-1 14,-2 15,-11z"/>
    <polygon class="fil1" points="404,293 424,293 424,323 438,322 438,293 458,293 458,283 404,283 "/>
    <polygon class="fil1" points="55,323 101,323 101,312 70,312 70,283 55,282 "/>
    <polygon class="fil2" points="105,323 119,322 119,283 104,283 "/>
   </g>
   <g>
    <path class="fil3" d="M1183 233c0,-16 6,-29 12,-39 4,-7 10,-13 15,-18 1,-1 2,-2 3,-3 18,-17 49,-32 78,-37 -12,-1 -37,7 -47,11 -22,7 -39,18 -55,33 -40,37 -38,91 12,122 22,13 52,21 82,21 38,0 69,-8 100,-26 3,-1 4,-1 5,-3 -3,1 -6,3 -9,4 -49,23 -112,25 -158,-4 -17,-10 -38,-31 -38,-61zm38 10l52 0c1,-1 3,-5 5,-7 1,-3 3,-5 4,-8l24 -39c1,-2 4,-6 5,-8 -1,-2 -3,-5 -5,-7l-10 -16c-1,-2 -3,-6 -5,-7 -2,1 -15,19 -17,22l-44 59c-2,2 -8,10 -9,11zm13 14c0,0 0,-1 0,-1l-1 -1c0,-1 2,-1 -6,-1l-6 28 7 0c1,-5 3,-18 6,-21 2,-2 5,-4 6,-1 2,2 -2,18 -3,22l7 0c2,-5 3,-17 7,-22 1,-1 4,-3 6,0 1,2 -3,18 -4,22l8 0c0,-6 4,-17 4,-23 0,-9 -13,-6 -16,-1 0,-1 -1,-1 -1,-1 0,0 0,-2 -2,-3 -3,-2 -9,-1 -12,3zm149 -2c-3,1 -3,0 -3,-1 0,0 0,-1 2,0 1,0 0,0 1,1zm-4 4c2,0 1,0 1,-3 4,1 1,3 4,3l-1 -3c1,-1 1,-1 1,-3 -2,-1 -2,-1 -5,0l0 6zm7 -1c-3,6 -11,2 -9,-4 3,-6 12,-2 9,4zm-6 -8c-8,2 -4,14 3,12 7,-2 5,-14 -3,-12zm-45 0l8 0 1 -7 -7 0 -2 7zm-6 32l7 0c1,-3 5,-25 6,-28l-7 0 -6 28zm12 0l9 0c0,-2 5,-7 6,-8 1,2 3,7 5,8l7 0 -7 -14 12 -14c-2,0 -3,0 -5,0 -3,0 -3,-1 -5,1 -2,2 -3,5 -5,6l-4 -7 -8 0c1,2 4,9 6,11 1,4 -1,4 -6,10 -1,1 -1,2 -3,3 -1,1 -1,2 -2,4zm-64 -17c0,-3 2,-6 6,-6 4,-1 5,3 5,6l-11 0zm16 9l-6 -1c-2,2 -3,5 -7,4 -3,-1 -4,-3 -4,-7l18 0c1,-8 0,-16 -8,-17 -18,-3 -23,24 -10,28 8,3 16,-1 17,-7zm17 -15c9,-4 10,13 3,17 -5,2 -8,-2 -8,-6 0,-4 2,-9 5,-11zm13 -15l-3 13c-4,-6 -17,-7 -21,8 -5,16 9,21 16,14l1 3 6 0 8 -39c-2,0 -5,0 -7,1z"/>
    <path class="fil4" d="M1314 181l35 56 38 0c0,-1 -5,-8 -6,-10l-22 -30c-1,-2 -26,-39 -28,-41l-12 19c-2,2 -4,4 -5,6z"/>
   </g>
   <path class="fil5" d="M1714 256c2,0 4,0 5,0 1,0 2,0 2,0 1,0 1,0 1,-1 1,-3 1,-37 1,-44 0,-4 -2,-7 -6,-8 -2,-1 -5,-1 -7,-1 -4,0 -4,0 -6,2 -6,5 -16,17 -23,20 -11,5 -24,4 -34,-3 -2,-2 -14,-13 -15,-14 -3,-3 -6,-5 -11,-5 -11,0 -11,-1 -11,4 0,6 0,40 0,43 1,4 4,7 8,7 8,0 7,1 7,-7 0,-4 -1,-11 1,-14 2,-3 5,-5 10,-3 8,2 17,14 25,19 3,2 7,2 11,0 4,-3 8,-7 12,-10 4,-3 7,-8 13,-9 4,-2 8,0 10,3 2,3 1,9 1,13 0,7 6,8 6,8zm161 1c12,0 21,-7 23,-18 1,-7 0,-5 -8,-5 -8,0 -6,4 -9,7 -6,7 -20,-3 -21,-14 -1,-5 1,-9 5,-10 2,-1 5,-1 7,0 4,1 7,6 11,2l6 -6c1,-1 0,-2 -1,-2 -1,-1 -3,-3 -4,-4 -10,-6 -15,-5 -28,-5 -13,0 -11,-1 -11,5 0,5 0,11 0,16 0,10 2,17 8,24 5,4 12,10 22,10zm58 -8l1 0c3,1 19,9 22,7 1,-1 1,-1 1,-2 0,-2 0,-5 0,-7 -2,-6 -7,-7 -11,-9 -4,-2 -9,-6 -5,-11 3,-2 13,-13 15,-14 1,-2 2,-6 1,-8 -2,-3 -4,-3 -8,-3 -5,1 -9,6 -12,8 -1,2 -18,19 -19,19 0,-4 0,-18 0,-21 -2,-8 -14,-6 -14,-5 -1,1 -1,52 0,53 1,1 7,0 8,-1 3,-1 5,-3 6,-5 2,-1 3,-3 7,-3 2,0 4,0 6,1l2 1c0,0 0,0 0,0zm-146 7c2,0 3,0 6,0 2,-1 3,-2 4,-3 3,-3 4,-6 4,-11 0,-5 0,-9 0,-14 0,-5 -1,-9 2,-11 4,-2 9,-2 13,-1 13,4 10,17 -4,14 -1,-1 -4,-2 -5,-2 -1,1 -1,7 -1,8 1,3 2,4 4,5 2,2 16,13 18,14 3,1 5,1 8,1 9,0 9,1 9,-3 0,-2 0,-2 -1,-3 0,0 0,0 0,0 0,0 0,0 0,0 -2,-1 -6,-4 -8,-5 -1,-1 -6,-5 -6,-5 5,-4 10,-7 10,-16 -1,-12 -17,-21 -29,-22 -2,0 -23,0 -24,1 -1,0 -1,1 -1,3l0 44c0,2 0,4 1,6zm-59 -26c1,6 2,9 6,14 2,3 6,7 10,9 6,3 10,3 17,3 6,0 14,1 20,0 1,-3 1,-9 -2,-12 -4,-4 -18,0 -25,-2 -4,-1 -7,-4 -9,-6 -4,-6 -6,-16 2,-19 4,-2 8,-1 11,1 3,1 7,5 8,7 -3,0 -10,0 -14,0 -1,0 -3,-1 -4,0 -1,3 2,7 3,8 4,5 11,3 18,3 1,0 3,0 5,0 2,0 3,0 5,0 0,0 0,-1 0,0 0,0 1,-2 2,-4 1,-4 -1,-10 -3,-13 -2,-5 -7,-9 -11,-11 -4,-4 -10,-6 -17,-6 -3,0 -21,0 -22,1 -1,1 -1,4 -1,6 0,6 0,16 1,21z"/>
   <g>
    <path class="fil6" d="M142 748c-15,-3 -24,-14 -26,-29l0 -2 64 0 0 3c0,4 -2,10 -5,14 -4,7 -12,12 -20,14 -3,1 -11,1 -13,0l0 0z"/>
    <path class="fil7" d="M339 719c-6,-1 -10,-3 -14,-6 -4,-3 -6,-9 -6,-14l0 -3 12 0 1 3c1,4 2,6 5,8 2,1 2,1 6,1 7,0 12,-4 11,-10 -1,-3 -4,-5 -12,-7 -6,-2 -9,-3 -13,-6 -4,-2 -6,-6 -8,-9 -1,-3 -1,-9 1,-13 2,-5 9,-10 16,-11 4,-1 11,-1 15,0 7,3 12,9 13,17l1 2 -7 0c-7,0 -6,0 -7,-3 -1,-4 -3,-6 -8,-6 -9,-2 -14,7 -9,13 2,1 3,2 12,5 11,3 16,6 18,11 2,2 2,3 2,8 0,5 0,6 -2,8 -3,7 -10,11 -21,12 -2,0 -5,0 -6,0l0 0zm-69 -24c-6,-13 -10,-23 -10,-23 -1,0 -1,8 -1,22l0 23 -7 0 -7 -1 0 -32 0 -32 10 0c7,0 11,0 11,0 0,1 3,8 7,17 3,8 6,16 6,15 1,0 4,-7 7,-16l6 -16 11 0 11 0 0 65 -14 0 0 -23c0,-12 -1,-22 -1,-22 0,0 -4,9 -9,20 -5,11 -9,22 -10,23l-1 2 -9 -22z"/>
    <path class="fil6" d="M111 716c-7,-1 -13,-4 -18,-9 -7,-7 -10,-15 -9,-25 0,-8 3,-14 8,-20 6,-6 12,-9 20,-10l4 0 0 2c0,6 3,13 7,19 4,5 11,9 18,11l3 0 -2 1c-7,1 -15,6 -20,12 -4,5 -6,10 -6,16 -1,4 -1,4 -5,3l0 0zm70 -1c0,-3 -2,-8 -4,-13 -2,-5 -6,-9 -11,-13 -4,-2 -10,-4 -13,-4 -2,0 -2,0 1,-1 3,-1 9,-3 12,-5 7,-4 13,-14 14,-23l1 -4 2 0c5,0 13,3 18,8 9,7 14,20 11,32 -4,13 -14,22 -27,24 -2,0 -4,1 -4,1 0,0 0,-1 0,-2l0 0z"/>
    <path class="fil7" d="M374 684l0 -32 13 0c16,0 19,0 26,4 6,3 9,7 12,12 5,9 6,22 1,31 -3,6 -9,12 -15,14 -1,1 -4,2 -6,2 -3,1 -5,1 -17,2l-14 0 0 -33zm27 20c4,-1 7,-3 9,-6 3,-3 4,-6 5,-13 0,-6 -1,-9 -3,-13 -4,-6 -10,-8 -20,-8l-4 0 0 41 5 0c3,0 6,-1 8,-1z"/>
    <path class="fil6" d="M116 649c1,-8 5,-15 12,-21 3,-2 9,-5 12,-6 4,-1 11,-1 14,0 9,2 18,8 22,17 3,4 4,9 4,11l0 2 -64 0 0 -3z"/>
   </g>
   <path class="fil8" d="M693 636c2,-1 4,-2 5,-3l16 -7c7,-3 13,-7 20,-10 7,-3 14,-6 21,-9 1,-1 9,-5 10,-5l31 14c7,3 14,7 21,10 7,3 14,6 21,9 1,1 1,1 1,3 5,25 9,51 13,77 1,2 1,2 0,3l-23 29c-5,6 -11,13 -16,19 -2,3 -2,3 -4,3 -1,0 -3,0 -4,0l-83 0c-1,0 -1,-1 -2,-1l-15 -18c-1,-1 -2,-2 -3,-3l-22 -27c-1,-1 -2,-2 -2,-3 1,-7 3,-14 4,-21l7 -40c1,-6 3,-15 4,-20zm126 64c4,-7 9,-15 12,-22 3,-5 3,-3 3,-10l-28 0 0 7c3,0 18,-1 20,0 -1,1 -2,3 -3,4 -3,5 -5,10 -8,15 -3,4 -5,10 -8,14 -1,2 -1,5 -1,7l28 0 0 -6 -20 0 5 -9zm-68 -25l17 0 0 -7 -24 1 0 46 24 0 0 -6 -17 0 0 -15 17 0 0 -6c-2,0 -14,0 -17,0l0 -13zm30 40c0,-1 0,-38 0,-40 2,-1 9,-1 11,0 3,1 4,4 4,7 0,8 -7,9 -15,9 1,1 12,19 14,21l1 3c1,0 0,0 1,0l8 0 -13 -19c5,-1 7,-2 9,-4 5,-6 6,-24 -12,-24 -3,0 -14,0 -16,0l0 47 8 0zm-76 -26c0,-1 0,-8 0,-9 4,10 6,25 10,35l6 0 10 -35 0 35 7 0 0 -47 -10 0 -10 36 -7 -27c-1,-2 -2,-6 -3,-9l-9 0 0 47 6 0 0 -26zm110 89c3,-4 7,-9 10,-13 5,-6 11,-14 16,-19l16 -20c1,-1 2,-2 3,-3 0,-1 1,-1 1,-2 1,0 1,-1 1,-2 0,-3 -1,-7 -2,-10 -3,-20 -7,-41 -10,-61l-3 -18c0,0 -1,0 -2,-1 -5,-2 -11,-5 -16,-7 -5,-3 -11,-5 -16,-8 -5,-2 -11,-5 -16,-7 -6,-3 -11,-6 -17,-8 -4,-2 -9,-4 -14,-6 -1,-1 -1,-1 -2,-1 -11,5 -21,11 -32,15 -5,3 -11,6 -16,8l-24 11c-2,1 -3,2 -4,2 -3,1 -3,1 -3,3 -5,29 -11,57 -16,86 0,3 -1,3 0,4 1,1 2,2 3,3l25 30c0,1 1,2 2,3 4,4 8,9 11,13l7 8c0,0 2,0 3,0 31,0 63,0 95,0z"/>
   <g>
    <path class="fil9" d="M1158 718c-2,-13 17,-14 19,-3 2,12 -17,15 -19,3zm-37 0c-1,-13 18,-14 19,-3 1,6 -3,10 -8,11 -5,0 -10,-4 -11,-8zm-12 -42c11,-4 19,13 7,18 -11,4 -19,-12 -7,-18zm74 0c11,-4 18,13 7,18 -12,5 -19,-13 -7,-18zm-4 19l-7 11c-4,-1 -7,-1 -11,1 -1,1 -2,2 -3,4 -4,6 2,4 -16,4 -1,-8 -6,-11 -16,-9l-7 -11c2,-3 5,-5 5,-10 0,-5 -3,-7 -4,-10 2,-4 4,-7 6,-10 10,0 14,-1 16,-10l14 0c2,4 3,13 17,9l6 12c-7,6 -6,13 0,19zm-13 -50c12,-2 14,16 3,18 -12,2 -16,-16 -3,-18zm-36 0c11,-2 14,16 3,18 -13,2 -16,-16 -3,-18zm44 18c13,-9 -1,-27 -13,-19 -5,4 -4,8 -6,9l-13 0c-1,-5 -2,-7 -6,-9 -14,-8 -23,14 -12,19 -2,4 -5,8 -6,12 -5,-1 -8,-2 -12,1 -8,5 -7,23 11,20l7 11c-2,3 -5,5 -5,11 2,12 21,15 23,-1 16,0 13,0 15,3 1,2 1,4 5,6 3,2 8,2 12,0 11,-6 0,-20 0,-20 3,-2 6,-8 7,-10 24,4 19,-28 0,-21 -2,-2 -6,-9 -7,-12z"/>
    <path class="fil10" d="M1213 665l5 20 5 0 7 -20 0 20 6 0 -1 -27 -8 0 -6 18c-5,-21 -4,-18 -13,-18l-2 27 6 0 1 -20z"/>
    <path class="fil10" d="M1402 685c0,-6 -2,-14 4,-15 3,3 2,10 2,15l6 0 0 -14 5 0 0 14 7 0c0,-4 0,-13 -1,-17 -3,-4 -9,-4 -12,0l-6 -3c-3,0 -4,1 -5,2 -2,-2 -2,-1 -6,-1l0 19 6 0z"/>
    <path class="fil10" d="M1341 685c0,-5 -1,-11 1,-15l5 1 0 14 6 0c0,-11 2,-25 -12,-18l0 -10 -7 0 0 28 7 0z"/>
    <path class="fil10" d="M1317 671l0 -8c10,-3 9,10 0,8zm0 14c0,-9 -2,-8 5,-10 5,0 8,-3 8,-7 1,-11 -10,-10 -19,-9l0 26 6 0z"/>
    <path class="fil11" d="M1146 676c-12,5 -5,23 7,18 11,-5 4,-22 -7,-18z"/>
    <path class="fil12" d="M1109 676c-12,6 -4,22 7,18 12,-5 4,-22 -7,-18z"/>
    <path class="fil12" d="M1183 676c-12,5 -5,23 7,18 11,-5 4,-22 -7,-18z"/>
    <path class="fil12" d="M1130 645c-13,2 -10,20 3,18 11,-2 8,-20 -3,-18z"/>
    <path class="fil12" d="M1166 645c-13,2 -9,20 3,18 11,-2 9,-20 -3,-18z"/>
    <path class="fil12" d="M1121 718c1,4 6,8 11,8 5,-1 9,-5 8,-11 -1,-11 -20,-10 -19,3z"/>
    <path class="fil12" d="M1158 718c2,12 21,9 19,-3 -2,-11 -21,-10 -19,3z"/>
    <path class="fil10" d="M1248 681c-2,-3 -3,-13 4,-11 3,1 5,12 -4,11zm-7 -2c3,11 23,8 19,-7 -1,-5 -7,-8 -13,-6 -5,1 -8,7 -6,13z"/>
    <path class="fil10" d="M1436 678c1,-2 2,-2 5,-2l0 4c-3,1 -4,2 -5,-2zm-6 4c3,6 9,3 10,3l7 0c0,-13 2,-25 -16,-18l1 4c4,-1 5,-3 9,0 -2,2 -15,2 -11,11z"/>
    <path class="fil10" d="M1363 680c1,-4 2,-4 6,-4 0,5 -2,7 -6,4zm4 5c2,-1 0,-1 1,-1 4,0 -2,0 2,0l5 1c0,-6 1,-15 -3,-18 -2,-2 -14,-4 -13,3 4,1 6,-2 10,1 -2,1 -3,1 -5,2 -11,2 -8,16 3,12z"/>
    <path class="fil10" d="M1285 673c1,-5 7,-6 7,0l-7 0zm11 7c-5,1 -9,2 -11,-3l13 0c2,-15 -15,-15 -18,-6 -4,12 9,18 17,13l-1 -4z"/>
    <path class="fil10" d="M1386 685c0,-14 -1,-13 6,-14l0 -5c-4,-1 -5,0 -6,3 -1,-4 1,-3 -4,-3 -3,1 -2,-2 -2,4l0 15 6 0z"/>
    <path class="fil10" d="M1271 685c0,-15 0,-12 3,-14 3,-1 3,2 3,-6 -4,0 -5,1 -6,3 -2,-3 -1,-2 -6,-2l0 19 6 0z"/>
    <path class="fil9" d="M1146 676c11,-4 18,13 7,18 -12,5 -19,-13 -7,-18zm1 -2c-15,3 -11,26 5,22 13,-3 10,-25 -5,-22z"/>
    <path class="fil13" d="M1206 712l0 -15 6 0c1,0 2,0 2,0 1,0 2,0 2,0 1,1 1,1 2,2 0,0 0,1 0,2 0,1 0,2 -1,3 -1,1 -3,2 -5,2l-4 0 0 6 -2 0zm2 -8l4 0c2,0 3,0 3,-1 1,0 1,-1 1,-2 0,-1 0,-1 -1,-2 0,0 0,0 -1,-1 0,0 -1,0 -2,0l-4 0 0 6zm12 8l0 -15 2 0 0 5c1,-1 2,-2 4,-2 0,0 1,1 2,1 0,0 1,1 1,1 0,1 0,2 0,3l0 7 -2 0 0 -7c0,-1 0,-2 0,-2 -1,-1 -1,-1 -2,-1 0,0 -1,0 -1,1 -1,0 -1,0 -1,1 -1,0 -1,1 -1,2l0 6 -2 0zm19 -2c0,1 -1,1 -2,2 0,0 -1,0 -2,0 -1,0 -2,0 -2,-1 -1,0 -1,-1 -1,-2 0,-1 0,-1 0,-2 0,0 0,0 1,-1 0,0 1,0 1,0 1,0 1,-1 2,-1 1,0 3,0 3,0 0,-1 0,-1 0,-1 0,0 0,-1 0,-1 -1,-1 -1,-1 -2,-1 -1,0 -2,0 -2,0 -1,1 -1,1 -1,2l-2 0c0,-1 0,-2 1,-2 0,-1 1,-1 1,-1 1,0 2,-1 3,-1 1,0 2,1 2,1 1,0 1,0 1,1 1,0 1,0 1,1 0,0 0,1 0,2l0 2c0,2 0,3 0,3 0,1 0,1 1,2l-2 0c0,-1 -1,-1 -1,-2zm0 -4c0,0 -1,1 -3,1 -1,0 -1,0 -1,0 -1,0 -1,1 -1,1 0,0 0,0 0,1 0,0 0,1 0,1 0,0 1,1 2,1 0,0 1,-1 2,-1 0,0 1,-1 1,-1 0,-1 0,-1 0,-2l0 -1zm5 6l0 -11 2 0 0 1c0,0 1,-1 1,-1 0,0 1,-1 1,-1 1,0 1,1 2,1l-1 2c0,0 -1,-1 -1,-1 0,0 -1,1 -1,1 0,0 -1,0 -1,1 0,0 0,1 0,2l0 6 -2 0zm7 0l0 -11 2 0 0 1c0,0 1,-1 1,-1 1,0 1,-1 2,-1 1,0 2,1 2,1 1,0 1,1 1,1 1,-1 2,-2 4,-2 1,0 2,1 2,1 1,1 1,2 1,3l0 8 -2 0 0 -7c0,-1 0,-1 0,-2 0,0 0,0 -1,-1 0,0 0,0 -1,0 -1,0 -1,0 -2,1 0,0 0,1 0,2l0 7 -2 0 0 -7c0,-1 -1,-2 -1,-2 0,-1 -1,-1 -1,-1 -1,0 -1,0 -2,1 0,0 -1,0 -1,1 0,0 0,1 0,2l0 6 -2 0zm25 -2c-1,1 -1,1 -2,2 -1,0 -1,0 -2,0 -1,0 -2,0 -3,-1 0,0 -1,-1 -1,-2 0,-1 0,-1 1,-2 0,0 0,0 1,-1 0,0 0,0 1,0 0,0 1,-1 2,-1 1,0 2,0 3,0 0,-1 0,-1 0,-1 0,0 0,-1 -1,-1 0,-1 -1,-1 -2,-1 -1,0 -1,0 -2,0 0,1 0,1 -1,2l-2 0c1,-1 1,-2 1,-2 1,-1 1,-1 2,-1 1,0 2,-1 2,-1 1,0 2,1 3,1 0,0 1,0 1,1 0,0 1,0 1,1 0,0 0,1 0,2l0 2c0,2 0,3 0,3 0,1 0,1 0,2l-2 0c0,-1 0,-1 0,-2zm0 -4c-1,0 -2,1 -3,1 -1,0 -2,0 -2,0 0,0 0,1 -1,1 0,0 0,0 0,1 0,0 0,1 1,1 0,0 1,1 1,1 1,0 2,-1 2,-1 1,0 1,-1 2,-1 0,-1 0,-1 0,-2l0 -1zm12 2l2 0c-1,1 -1,2 -2,3 -1,1 -2,1 -3,1 -1,0 -3,-1 -4,-1 0,-1 -1,-3 -1,-5 0,-1 0,-2 1,-3 0,-1 1,-1 1,-2 1,0 2,-1 3,-1 1,0 2,1 3,1 1,1 1,2 2,3l-2 0c0,0 -1,-1 -1,-1 -1,-1 -1,-1 -2,-1 -1,0 -2,0 -2,1 -1,1 -1,2 -1,3 0,2 0,3 1,3 0,1 1,1 2,1 1,0 1,0 2,0 0,-1 1,-1 1,-2zm11 0l2 0c-1,2 -1,2 -2,3 -1,1 -2,1 -3,1 -2,0 -3,-1 -4,-2 -1,0 -1,-2 -1,-4 0,-2 0,-3 1,-4 1,-1 2,-2 4,-2 1,0 2,1 3,2 1,1 2,2 2,4 0,0 0,0 0,1l-8 0c0,1 0,2 1,2 0,1 1,1 2,1 1,0 1,0 2,0 0,0 1,-1 1,-2zm-6 -3l6 0c0,-1 0,-1 -1,-2 0,-1 -1,-1 -2,-1 -1,0 -2,0 -2,1 -1,0 -1,1 -1,2zm17 7l0 -2c-1,1 -2,2 -3,2 -1,0 -1,0 -2,0 -1,-1 -1,-1 -1,-1 -1,-1 -1,-1 -1,-2 0,0 0,-1 0,-1l0 -7 2 0 0 6c0,1 0,1 0,2 0,0 0,1 1,1 0,0 1,0 1,0 1,0 1,0 2,0 0,0 1,-1 1,-1 0,-1 0,-1 0,-2l0 -6 2 0 0 11 -2 0zm9 -2l0 2c0,0 -1,0 -1,0 -1,0 -1,0 -2,0 0,-1 0,-1 -1,-1 0,-1 0,-1 0,-2l0 -7 -1 0 0 -1 1 0 0 -3 2 -1 0 4 2 0 0 1 -2 0 0 7c0,0 0,1 0,1 0,0 0,0 1,0 0,0 0,0 0,0 0,0 1,0 1,0zm2 -11l0 -2 2 0 0 2 -2 0zm0 13l0 -11 2 0 0 11 -2 0zm12 -4l2 0c-1,1 -1,2 -2,3 -1,1 -2,1 -3,1 -1,0 -3,-1 -4,-1 -1,-1 -1,-3 -1,-5 0,-1 0,-2 1,-3 0,-1 1,-1 1,-2 1,0 2,-1 3,-1 1,0 2,1 3,1 1,1 1,2 1,3l-1 0c-1,0 -1,-1 -1,-1 -1,-1 -1,-1 -2,-1 -1,0 -2,0 -2,1 -1,1 -1,2 -1,3 0,2 0,3 1,3 0,1 1,1 2,1 1,0 1,0 2,0 0,-1 1,-1 1,-2zm10 2c0,1 -1,1 -2,2 0,0 -1,0 -2,0 -1,0 -2,0 -2,-1 -1,0 -1,-1 -1,-2 0,-1 0,-1 0,-2 0,0 0,0 1,-1 0,0 1,0 1,0 1,0 1,-1 2,-1 1,0 3,0 3,0 0,-1 0,-1 0,-1 0,0 0,-1 0,-1 -1,-1 -1,-1 -2,-1 -1,0 -2,0 -2,0 -1,1 -1,1 -1,2l-2 0c0,-1 0,-2 1,-2 0,-1 1,-1 1,-1 1,0 2,-1 3,-1 1,0 2,1 2,1 1,0 1,0 1,1 1,0 1,0 1,1 0,0 0,1 0,2l0 2c0,2 0,3 0,3 0,1 0,1 1,2l-2 0c0,-1 -1,-1 -1,-2zm0 -4c0,0 -1,1 -3,1 -1,0 -1,0 -1,0 -1,0 -1,1 -1,1 0,0 0,0 0,1 0,0 0,1 0,1 0,0 1,1 2,1 0,0 1,-1 2,-1 0,0 1,-1 1,-1 0,-1 0,-1 0,-2l0 -1zm5 6l0 -15 2 0 0 15 -2 0zm22 -6l2 1c-1,2 -1,3 -3,4 -1,1 -2,1 -4,1 -1,0 -3,0 -4,-1 -1,-1 -1,-2 -2,-3 0,-1 -1,-3 -1,-4 0,-2 1,-3 1,-4 1,-1 2,-2 3,-3 1,0 2,-1 3,-1 2,0 3,1 4,1 1,1 2,2 2,4l-1 0c-1,-1 -1,-2 -2,-2 -1,-1 -2,-1 -3,-1 -1,0 -2,0 -2,1 -1,0 -2,1 -2,2 0,1 -1,2 -1,3 0,1 1,2 1,3 0,1 1,2 2,3 1,0 1,0 2,0 1,0 2,0 3,-1 1,0 1,-1 2,-3zm3 0c0,-2 1,-3 2,-4 1,-1 2,-2 3,-2 2,0 3,1 4,2 1,1 2,2 2,4 0,1 -1,3 -1,3 0,1 -1,2 -2,2 -1,1 -2,1 -3,1 -1,0 -2,-1 -3,-1 -1,-1 -2,-3 -2,-5zm2 0c0,2 1,3 1,3 1,1 2,1 2,1 1,0 2,0 3,-1 0,0 1,-1 1,-3 0,-1 -1,-2 -1,-3 -1,-1 -2,-1 -3,-1 0,0 -1,0 -2,1 0,1 -1,2 -1,3zm11 6l0 -11 2 0 0 1c0,0 0,-1 1,-1 0,0 1,-1 2,-1 1,0 1,1 2,1 0,0 1,1 1,1 1,-1 2,-2 3,-2 1,0 2,1 3,1 1,1 1,2 1,3l0 8 -2 0 0 -7c0,-1 0,-1 0,-2 0,0 -1,0 -1,-1 0,0 -1,0 -1,0 -1,0 -1,0 -2,1 0,0 -1,1 -1,2l0 7 -2 0 0 -7c0,-1 0,-2 0,-2 0,-1 -1,-1 -2,-1 0,0 -1,0 -1,1 0,0 -1,0 -1,1 0,0 0,1 0,2l0 6 -2 0zm18 4l0 -15 1 0 0 1c1,0 1,-1 2,-1 0,0 1,-1 1,-1 1,0 2,1 3,1 1,1 1,1 2,2 0,1 0,2 0,3 0,1 0,2 0,3 -1,1 -1,2 -2,2 -1,1 -2,1 -3,1 0,0 -1,0 -1,0 -1,-1 -1,-1 -2,-1l0 5 -1 0zm1 -10c0,2 1,3 1,3 1,1 1,1 2,1 1,0 2,0 2,-1 1,0 1,-1 1,-3 0,-1 0,-2 -1,-3 0,-1 -1,-1 -2,-1 -1,0 -1,0 -2,1 0,1 -1,2 -1,3zm18 4c-1,1 -2,1 -2,2 -1,0 -2,0 -2,0 -2,0 -3,0 -3,-1 -1,0 -1,-1 -1,-2 0,-1 0,-1 0,-2 0,0 1,0 1,-1 0,0 1,0 1,0 1,0 1,-1 2,-1 2,0 3,0 3,0 0,-1 0,-1 0,-1 0,0 0,-1 0,-1 -1,-1 -1,-1 -2,-1 -1,0 -2,0 -2,0 -1,1 -1,1 -1,2l-2 0c0,-1 0,-2 1,-2 0,-1 1,-1 2,-1 0,0 1,-1 2,-1 1,0 2,1 2,1 1,0 1,0 2,1 0,0 0,0 0,1 0,0 0,1 0,2l0 2c0,2 0,3 0,3 1,1 1,1 1,2l-2 0c0,-1 0,-1 0,-2zm-1 -4c0,0 -1,1 -3,1 0,0 -1,0 -1,0 -1,0 -1,1 -1,1 0,0 0,0 0,1 0,0 0,1 0,1 1,0 1,1 2,1 1,0 1,-1 2,-1 0,0 1,-1 1,-1 0,-1 0,-1 0,-2l0 -1zm5 6l0 -11 2 0 0 1c1,-1 2,-2 3,-2 1,0 2,1 2,1 1,0 1,0 1,1 1,0 1,1 1,1 0,1 0,1 0,2l0 7 -2 0 0 -7c0,-1 0,-1 0,-2 0,0 0,0 -1,-1 0,0 -1,0 -1,0 -1,0 -1,0 -2,1 -1,0 -1,1 -1,3l0 6 -2 0zm12 4l0 -2c0,0 0,0 1,0 0,0 1,0 1,0 0,0 0,0 0,0 1,-1 1,-1 1,-2 0,0 0,0 0,0l-4 -11 2 0 2 6c1,1 1,2 1,3 0,-1 1,-2 1,-3l2 -6 2 0 -4 11c-1,1 -1,2 -1,2 0,1 -1,1 -1,2 -1,0 -1,0 -2,0 0,0 -1,0 -1,0z"/>
   </g>
   <path class="fil14" d="M151 1105l0 71 15 0 0 -58 18 0 0 58 15 0 0 -58c8,0 11,0 15,4 3,4 3,11 3,17 0,12 0,25 0,37l15 0c0,-12 0,-25 0,-38 0,-6 1,-12 -1,-17 -4,-10 -13,-16 -23,-16 -6,0 -13,0 -19,0 -13,0 -26,-1 -38,0zm246 13c4,0 16,0 20,1 5,1 9,5 9,11 0,15 0,32 0,46l15 0c0,-8 0,-16 0,-24 0,-8 1,-17 0,-24 -1,-13 -12,-23 -25,-23l-35 0 0 22c0,16 0,34 0,49l16 0 0 -58zm-158 -13l0 71 16 0 0 -58 18 0c12,1 15,17 5,22 -4,1 -13,0 -18,1l18 26c1,2 2,3 3,5 0,1 2,3 3,4l19 0 -9 -12c-1,-2 -2,-5 -4,-7l-4 -6c6,-2 12,-10 14,-17 1,-10 -3,-18 -8,-22 -7,-7 -11,-7 -23,-7 -6,0 -26,-1 -30,0zm79 38c-2,-13 8,-23 19,-24 13,-1 23,8 24,19 1,13 -9,23 -20,24 -13,1 -22,-8 -23,-19zm-16 0c0,6 2,10 4,15 1,3 3,6 6,8 4,4 7,7 14,10 24,10 53,-10 51,-38 -1,-10 -6,-20 -12,-25 -4,-3 -7,-5 -12,-8 -24,-9 -53,10 -51,38zm-172 0c-1,11 -11,21 -24,19 -11,-1 -21,-12 -19,-24 2,-11 12,-21 25,-19 11,2 20,11 18,24zm16 1c1,-6 0,-12 -2,-17 -2,-6 -7,-12 -12,-16 -6,-4 -12,-7 -20,-8 -13,-1 -25,5 -33,14 -4,6 -7,13 -8,20 -2,22 15,39 34,41 22,2 40,-15 41,-34z"/>
   <path class="fil15" d="M837 1150c-6,25 -52,24 -40,-10 4,-12 11,-19 25,-19 15,-1 20,10 17,24l-28 1c0,0 -5,14 0,16 7,2 9,-7 10,-12l16 0zm-24 -10l11 0c1,-2 5,-17 -4,-14 -5,1 -6,8 -7,14zm-138 1c11,-1 14,-3 18,-15 3,-12 5,-20 -9,-20l-9 35zm191 -12c1,0 1,-1 3,-2 2,-2 4,-5 8,-5 12,-3 13,17 1,17 -2,0 -4,-2 -6,-3 -1,-2 -1,-5 -1,-8 -3,1 -5,6 -6,8 -3,6 -8,24 -9,29l-15 0 9 -37 -5 0 1 -5 22 0 -2 6zm-101 -6l34 0c-1,2 -5,8 -6,10 -2,3 -17,26 -18,28l14 0 -1 4 -34 0c1,-1 10,-16 12,-19 1,-2 11,-17 11,-18l-14 0 2 -5zm-57 8c-2,4 -4,7 -7,9 -6,6 -17,5 -27,6 -2,3 -3,16 -5,19l-16 0c1,-8 15,-54 15,-59l-7 0 1 -4c11,-1 22,-1 33,0 10,0 16,6 16,16 0,4 -2,10 -3,13zm-16 76l25 -94c4,-13 8,-25 20,-32 14,-9 33,-4 32,11 -1,11 -17,12 -17,1 0,-6 4,-8 8,-9 0,-5 -16,-11 -21,8 -1,5 -8,28 -8,31l28 0 -12 42 -15 1c0,-6 3,-14 5,-20 0,-3 4,-16 4,-18l-11 0 -23 85c6,1 12,3 20,5 24,5 48,5 71,1 19,-3 41,-10 57,-20 2,-2 5,-3 7,-5 13,-9 24,-20 29,-35 5,-15 4,-30 -2,-43 -11,-20 -33,-36 -57,-45 -55,-20 -124,-14 -165,17 -21,16 -37,40 -28,69 3,10 9,17 15,24l6 6c9,7 21,16 32,20z"/>
   <g>
    <path class="fil16" d="M1260 1106c3,-2 5,-3 9,-4 10,-1 21,4 26,12 6,8 6,19 1,28 -1,3 -4,6 -5,7 4,-1 9,-6 11,-9 22,-29 -4,-62 -30,-58 -20,3 -17,20 -12,24zm-1 44c8,5 29,7 33,-8 1,-6 -1,-9 -3,-13 -2,1 -3,2 -5,3 -2,0 -4,1 -6,1 -26,0 -37,-26 -23,-44 1,-1 2,-2 2,-3 -4,2 -11,8 -13,12 -4,6 -6,13 -6,21 1,15 11,27 21,31zm-7 -44c0,10 6,17 12,21 3,2 8,3 13,3 7,-1 10,-3 12,-4 6,4 5,9 6,12 3,-8 1,-17 -3,-23 -3,-5 -10,-10 -19,-10 -6,0 -9,2 -14,4 -6,-6 -4,-8 -6,-11l0 0c-1,3 -1,5 -1,8z"/>
    <path class="fil17" d="M1097 1171c6,0 18,-1 21,2 2,2 2,6 0,7 -3,3 -16,3 -21,2l0 -2 0 -9zm0 15c7,0 15,1 21,0 12,-3 13,-18 -6,-19 -7,0 -14,0 -21,0l0 32 6 0 0 -13z"/>
    <path class="fil17" d="M1372 1190c-4,-13 17,-15 20,-5 3,13 -18,15 -20,5zm0 6c2,2 3,3 7,3 26,4 25,-27 0,-23 -4,0 -5,1 -7,3l-1 -12 -5 0 0 32 5 0 1 -3z"/>
    <path class="fil17" d="M1350 1187c0,5 -1,7 -5,8 -12,4 -17,-4 -6,-6 3,-1 7,-1 11,-2zm-17 -4c2,0 1,0 1,-1 3,-4 14,-4 16,-1 2,6 -9,4 -17,6 -8,2 -8,9 -2,12 7,2 14,0 19,-3 1,1 0,3 5,4 5,0 4,-2 4,-4 -4,0 -3,0 -3,-4 0,-11 1,-14 -6,-16 -8,-2 -21,-1 -22,7l5 0z"/>
    <path class="fil17" d="M1174 1185l-19 0c1,-8 17,-8 19,0zm0 7c-1,4 -6,5 -11,4 -5,-1 -8,-3 -9,-7l26 0c2,-17 -27,-18 -31,-4 -5,16 27,20 30,7l-5 0z"/>
    <path class="fil17" d="M1237 1185c2,-8 18,-8 19,0l-19 0zm19 7c-2,3 -5,5 -11,4 -5,-1 -8,-3 -8,-7l26 0c1,-16 -28,-18 -32,-4 -4,17 28,19 31,7l-6 0z"/>
    <path class="fil17" d="M1433 1185c1,-8 18,-8 19,0l-19 0zm9 -9c-14,0 -20,11 -12,20 6,6 25,5 28,-4l-5 0c-2,1 -2,2 -5,3 -4,2 -15,2 -15,-6l25 0c1,-5 -2,-8 -4,-10 -3,-3 -7,-3 -12,-3z"/>
    <path class="fil17" d="M1297 1171l24 0 0 -4 -31 0 0 32c8,1 7,1 7,-7 0,-3 0,-5 0,-7l21 -1 0 -3 -21 0 0 -10z"/>
    <path class="fil17" d="M1193 1199c0,-13 -2,-19 12,-19l0 -4c-3,0 -6,0 -8,1 -2,1 -3,3 -5,4l0 -5 -5 0 0 23 6 0z"/>
    <path class="fil17" d="M1216 1199c1,-4 -1,-11 1,-15 2,-4 6,-4 11,-5l0 -3c-7,-1 -9,2 -12,4l0 -4 -6 0 0 23 6 0z"/>
    <path class="fil17" d="M1412 1199c0,-4 -1,-12 1,-15 2,-4 6,-3 11,-5l0 -3c-6,-1 -10,2 -13,5l0 -5 -5 0 0 23 6 0z"/>
    <polygon class="fil17" points="1135,1199 1140,1199 1140,1198 1140,1176 1135,1176 1135,1178 1135,1197 "/>
    <polygon class="fil17" points="1135,1172 1140,1172 1140,1167 1135,1167 "/>
   </g>
   <g>
    <path class="fil18" d="M1699 707c0,3 0,4 1,5 1,0 2,0 2,0 1,0 1,0 1,0 0,1 0,1 -1,1 -3,0 -4,-1 -5,-1 0,0 -2,1 -4,1 -1,0 -1,0 -1,-1 0,0 0,0 0,0 1,0 2,0 2,0 1,-1 1,-2 1,-5l1 -25c0,-1 0,-1 0,-1 1,0 1,0 2,1 0,0 7,7 13,13 2,3 8,9 9,10l0 0 0 -19c0,-2 -1,-3 -2,-4 0,0 -1,0 -2,0 -1,0 -1,0 -1,0 0,-1 1,-1 1,-1 3,0 5,0 5,0 1,0 2,0 4,0 1,0 1,0 1,1 0,0 0,0 0,0 -1,0 -1,0 -2,0 -1,1 -1,1 -1,4l-1 26c0,1 0,1 0,1 -1,0 -1,0 -2,-1 -2,-2 -7,-8 -12,-12 -4,-4 -9,-10 -10,-10l0 0 1 17z"/>
    <path class="fil18" d="M1762 698c0,-10 -5,-15 -12,-15 -5,0 -10,2 -10,13 0,8 5,15 13,15 3,0 9,-1 9,-13zm-28 -1c0,-7 5,-16 17,-16 11,0 17,6 17,15 0,10 -7,17 -17,17 -12,0 -17,-9 -17,-16z"/>
    <path class="fil18" d="M1777 685c-1,-2 -2,-2 -3,-3 -1,0 -2,0 -2,0 0,0 -1,0 -1,0 0,-1 1,-1 2,-1 2,0 4,0 6,0 1,0 3,0 5,0 0,0 1,0 1,1 0,0 -1,0 -1,0 -1,0 -1,0 -2,0 0,1 0,1 0,1 0,1 0,2 1,3l7 19 0 0c2,-4 7,-18 8,-20 1,-1 1,-2 1,-2 0,0 0,-1 -1,-1 0,0 -1,0 -2,0 0,0 0,0 0,0 0,-1 0,-1 1,-1 2,0 4,0 4,0 1,0 3,0 4,0 1,0 1,0 1,1 0,0 0,0 -1,0 0,0 -1,0 -2,1 0,0 -1,1 -2,3 -2,4 -3,6 -5,12 -3,6 -4,10 -5,12 -1,3 -2,3 -2,3 -1,0 -1,0 -2,-2l-10 -26z"/>
    <path class="fil18" d="M1823 700c1,0 1,0 1,-1l-4 -10c0,0 0,0 0,0 0,0 -1,0 -1,0l-3 10c0,1 0,1 0,1l7 0zm-8 2c0,0 0,0 0,0l-3 6c0,1 0,2 0,3 0,0 0,1 1,1l1 0c1,0 1,0 1,0 0,1 -1,1 -1,1 -1,0 -3,-1 -4,-1 -1,0 -3,1 -5,1 -1,0 -1,0 -1,-1 0,0 0,0 0,0 1,0 1,0 2,0 2,0 2,-2 3,-4l11 -26c0,-1 0,-2 1,-2 0,0 0,1 1,2 1,2 7,19 10,25 2,4 3,4 4,5 0,0 1,0 1,0 1,0 1,0 1,0 0,1 0,1 -2,1 -1,0 -5,0 -8,0 -1,-1 -1,-1 -1,-1 0,0 0,0 1,0 0,0 0,-1 0,-1l-3 -9c0,0 -1,0 -1,0l-9 0z"/>
    <path class="fil18" d="M1853 697c0,0 0,0 0,0 1,1 2,1 3,1 2,0 2,0 3,-1 1,-1 2,-3 2,-6 0,-6 -3,-8 -6,-8 -1,0 -2,0 -2,0 0,1 0,1 0,1l0 13zm-5 -4c0,-6 0,-7 0,-8 -1,-2 -1,-3 -2,-3 -1,0 -1,0 -2,0 0,0 -1,0 -1,0 0,-1 1,-1 1,-1 3,0 5,0 6,0 1,0 5,0 6,0 2,0 5,1 7,2 2,1 3,3 3,6 0,3 -1,6 -5,9 4,5 6,8 9,11 2,2 4,3 4,3 1,0 1,0 2,0 0,0 0,0 0,0 0,1 0,1 -1,1l-4 0c-2,0 -3,-1 -4,-1 -2,-1 -3,-3 -6,-6 -1,-3 -3,-5 -4,-6 0,0 0,0 -1,0l-3 0c0,0 0,0 0,0l0 1c0,3 0,7 0,8 0,2 0,3 1,3 1,0 2,0 2,0 1,0 1,0 1,0 0,0 0,1 -1,1 -2,0 -5,-1 -6,-1 -1,0 -3,1 -5,1 -1,0 -1,-1 -1,-1 0,0 0,0 1,0 0,0 1,0 1,0 1,0 1,-1 1,-3 1,-1 1,-5 1,-8l0 -8z"/>
    <path class="fil18" d="M1889 684l-6 0c-2,0 -3,0 -4,1 0,1 0,1 -1,1 0,1 0,1 0,1 0,0 0,0 0,-1 0,0 0,-4 0,-4 1,-1 1,-1 1,-1 0,0 1,0 2,0 1,0 3,0 4,0l16 0c3,0 4,0 4,0 1,0 1,0 1,1 0,1 -1,4 -1,5 0,0 0,0 0,0 0,0 0,0 0,0l0 -1c-1,-1 -2,-2 -5,-2l-6 0 0 17c0,3 0,7 1,8 0,2 0,3 1,3 1,0 2,0 2,0 1,0 1,0 1,0 0,0 0,1 -1,1 -2,0 -5,-1 -6,-1 -1,0 -4,1 -5,1 -1,0 -1,-1 -1,-1 0,0 0,0 0,0 1,0 2,0 2,0 1,0 1,-1 1,-3 0,-1 0,-5 0,-8l0 -17z"/>
    <path class="fil18" d="M1919 693c0,-6 0,-7 0,-8 0,-2 0,-3 -1,-3 -1,0 -1,0 -2,0 0,0 0,0 0,0 0,-1 0,-1 1,-1 1,0 4,0 5,0 1,0 3,0 5,0 1,0 1,0 1,1 0,0 0,0 -1,0 0,0 -1,0 -1,0 -1,0 -2,1 -2,3 0,1 0,2 0,8l0 8c0,4 0,7 0,9 1,1 1,2 2,2 1,0 2,0 2,0 1,0 1,0 1,0 0,0 0,1 -1,1 -3,0 -5,-1 -6,-1 -1,0 -4,1 -6,1 0,0 0,-1 0,-1 0,0 0,0 0,0 1,0 1,0 2,0 1,0 1,-1 1,-2 0,-2 0,-5 0,-9l0 -8z"/>
    <path class="fil18" d="M1941 712c-1,0 -1,0 -1,-1 0,-3 0,-5 0,-6 0,0 0,-1 1,-1 0,0 0,1 0,1 0,0 0,1 0,2 1,3 4,4 6,4 4,0 6,-2 6,-5 0,-2 -1,-3 -4,-6l-2 -2c-5,-3 -6,-6 -6,-9 0,-5 4,-8 9,-8 3,0 5,0 6,0 0,1 0,1 0,1 0,0 0,2 0,5 0,1 0,1 0,1 -1,0 -1,0 -1,-1 0,0 0,-1 -1,-2 0,-1 -2,-2 -4,-2 -3,0 -5,1 -5,4 0,2 1,3 4,6l1 1c5,4 7,6 7,10 0,3 -1,6 -4,7 -2,2 -4,2 -6,2 -3,0 -5,0 -6,-1z"/>
    <path class="fil19" d="M1635 715c-23,-1 -30,-15 -22,-29 4,-8 11,-17 3,-25 0,0 0,0 0,0 18,7 9,20 6,26 -6,11 -2,25 13,28 1,0 1,0 0,0z"/>
    <path class="fil18" d="M1638 703l4 -48 -9 0 5 48c0,0 0,0 0,0z"/>
    <path class="fil20" d="M1649 679c5,4 15,29 -8,36 0,0 0,0 0,0 36,-4 24,-30 8,-37 0,0 0,0 0,1z"/>
   </g>
   <g>
    <g id="surface1">
     <g>
     </g>
     <g style="clip-path:url(#id0)">
      <g>
       <path class="fil21" d="M749 275c0,1 0,2 0,2l-4 0c1,0 1,-1 1,-2l5 -16c0,-2 0,-2 0,-3 0,0 -1,-1 -1,-1l7 0 6 11 2 -10c1,-1 0,-1 0,-1l4 0c-1,0 -1,0 -1,1l-6 22c0,0 -9,-17 -9,-17l-4 14z"/>
      </g>
     </g>
     <path class="fil22" d="M745 254l25 0 0 24 -25 0 0 -24zm0 0z"/>
     <path class="fil21" d="M775 263c0,-1 0,-1 -1,-1l7 -1c0,0 -2,8 -3,10 -1,3 1,3 2,3 0,0 1,0 2,-1l2 -10c0,-1 0,-1 0,-1l6 -1 -3 12c-1,2 -1,2 0,2l-5 2c-1,0 -1,-1 -1,-2 -1,1 -3,2 -5,2 -2,0 -4,-1 -3,-6 0,-1 2,-8 2,-8z"/>
     <path class="fil21" d="M799 264l-2 0 9 -7 -1 5 3 0 0 2 -4 0 -2 8c-1,3 1,3 2,3 1,0 1,0 2,-1 -1,1 -2,3 -5,3 -4,0 -5,-2 -4,-5l2 -8z"/>
     <path class="fil21" d="M824 265c-1,0 -2,0 -3,1l-2 9c0,1 0,2 0,2l-7 0c1,0 1,-1 2,-2l3 -12c0,-1 0,-1 -1,-1l7 -1 -1 3c1,-2 3,-3 4,-3 0,0 1,0 1,0l-2 7c0,-2 0,-3 -1,-3z"/>
     <path class="fil21" d="M836 257c1,-1 2,-3 3,-3 2,0 3,2 2,3 0,2 -2,3 -3,3 -1,0 -2,-1 -2,-3zm1 18c-1,1 0,2 0,2l-7 0c1,0 1,-1 1,-2l4 -12c0,-1 -1,-1 -1,-1l6 -1 -3 14z"/>
     <path class="fil21" d="M849 264l-1 0 9 -7 -2 5 4 0 -1 2 -3 0 -2 8c-1,3 1,3 1,3 1,0 2,0 2,-1 0,1 -2,3 -4,3 -4,0 -5,-2 -5,-5l2 -8z"/>
     <path class="fil21" d="M869 257c0,-1 1,-3 3,-3 1,0 2,2 2,3 -1,2 -2,3 -4,3 -1,0 -2,-1 -1,-3zm0 18c0,1 0,2 0,2l-6 0c0,0 1,-1 1,-2l3 -12c0,-1 0,-1 0,-1l6 -1 -4 14z"/>
     <path class="fil21" d="M889 269c1,-3 1,-6 -1,-6 -2,0 -3,2 -4,6 -1,5 0,6 1,6 1,0 3,-1 4,-6zm-5 8c-5,0 -6,-4 -5,-8 1,-4 5,-8 10,-8 4,0 6,3 5,8 -1,5 -5,8 -10,8z"/>
     <path class="fil21" d="M914 275c0,1 0,2 0,2l-6 0c0,0 1,-1 1,-2l2 -8c0,-1 1,-3 -1,-3 -1,0 -2,1 -2,1l-3 10c0,1 0,2 0,2l-6 0c0,0 1,-1 1,-2l3 -12c0,-1 0,-1 0,-1l6 -1 -1 2c2,-1 3,-2 5,-2 3,0 4,2 3,5l-2 9z"/>
     <path class="fil21" d="M623 221l17 -26 12 0c-1,1 -2,2 -2,3l-10 37c0,2 0,3 1,3l-13 0c2,0 2,-1 3,-3l8 -30c0,-1 1,-2 1,-2l-2 2 -23 34 -4 -34 -1 -1c0,0 0,1 0,2l-8 29c0,2 0,3 1,3l-7 0c1,0 2,-1 2,-3l10 -37c0,-1 0,-2 -1,-3l12 0 4 26z"/>
     <path class="fil21" d="M664 211c-3,0 -5,4 -7,8l10 0c1,-5 0,-8 -3,-8zm11 17c-2,5 -10,11 -18,11 -7,0 -13,-6 -10,-16 2,-8 10,-15 18,-15 7,0 12,4 9,14l-18 0c0,1 0,1 0,1 -1,5 0,11 6,11 5,0 10,-2 13,-6z"/>
     <path class="fil21" d="M682 229c0,4 1,5 3,5 2,0 3,-1 4,-2l3 -9c-2,1 -3,1 -5,2 -2,1 -4,2 -5,4zm1 -19c3,-1 6,-2 11,-2 4,0 10,1 8,10 0,1 -4,15 -4,15 -1,2 -1,3 1,3l-9 3c-1,-1 -1,-2 -1,-4 -2,2 -6,4 -10,4 -5,0 -6,-5 -5,-8 1,-3 2,-5 6,-7 4,-2 10,-3 12,-5 1,0 2,-2 2,-3 1,-2 0,-5 -3,-5 -5,0 -9,5 -11,8l3 -9z"/>
     <path class="fil21" d="M718 234c1,0 2,-1 3,-1l5 -20c-1,-1 -1,-1 -3,-1 -5,0 -8,5 -10,10 -2,10 2,12 5,12zm22 -39l-10 35c0,1 0,2 0,3l-11 7 1 -4c-2,1 -5,3 -8,3 -7,0 -11,-6 -8,-15 2,-9 11,-16 18,-16 3,0 4,0 5,1l3 -9c1,-2 -1,-2 -1,-3l11 -2z"/>
     <path class="fil21" d="M734 242l8 -31c0,-1 0,-2 -1,-2l12 -3c0,0 -1,1 -1,2l-8 31c-6,25 -21,24 -28,23 0,0 13,-4 18,-20z"/>
     <path class="fil21" d="M766 222c-4,1 -7,5 -9,13 -2,8 0,12 3,11 4,0 7,-3 9,-12 2,-6 1,-12 -3,-12zm1 -3c10,0 13,7 11,15 -3,9 -10,16 -19,16 -11,0 -12,-9 -10,-15 2,-9 9,-16 18,-16z"/>
     <path class="fil21" d="M810 229l-5 18c0,1 0,2 1,2l-12 0c1,0 2,-1 2,-2l5 -17c1,-3 0,-6 -3,-6 -3,0 -5,2 -6,3l-5 20c-1,1 0,2 1,2l-12 0c1,0 2,-1 2,-2l10 -35c0,-2 -1,-3 -2,-3l11 -3 -4 17c2,-1 6,-4 10,-4 6,0 9,3 7,10z"/>
     <path class="fil21" d="M865 220l-2 10c-1,-3 -2,-8 -5,-8 -3,0 -4,2 -5,3 0,3 2,4 4,5 3,2 6,5 5,11 -2,6 -10,9 -14,9 -3,0 -6,-1 -8,-2l2 -11c0,5 2,9 5,9 4,0 6,-2 6,-3 1,-3 -1,-3 -4,-6 -5,-3 -5,-6 -4,-9 1,-4 5,-9 13,-9 1,0 4,0 7,1z"/>
     <path class="fil21" d="M883 222c-4,1 -7,5 -9,13 -2,8 0,12 3,11 4,0 7,-3 9,-12 2,-6 1,-12 -3,-12zm1 -3c10,0 13,7 11,15 -3,9 -10,16 -19,16 -11,0 -12,-9 -10,-15 2,-9 9,-16 18,-16z"/>
     <path class="fil21" d="M926 229l-4 18c-1,1 0,2 0,2l-11 0c1,0 2,-1 2,-2l4 -16c1,-2 2,-7 -3,-7 -2,0 -4,2 -5,3l-5 20c-1,1 0,2 1,2l-12 0c1,0 2,-1 2,-2l6 -24c1,-1 0,-2 -1,-2l11 -3 -1 5c3,-2 6,-4 10,-4 5,0 8,3 6,10z"/>
     <path class="fil21" d="M841 229l-5 18c0,1 0,2 1,2l-12 0c2,0 2,-1 3,-2l4 -16c0,-2 2,-7 -3,-7 -2,0 -4,2 -6,3l-5 20c0,1 0,2 1,2l-12 0c1,0 2,-1 3,-2l6 -24c0,-1 0,-2 -1,-2l11 -3 -1 5c2,-2 6,-4 10,-4 5,0 8,3 6,10z"/>
     <path class="fil23" d="M616 277c46,0 83,-21 101,-34 -17,9 -57,23 -94,23 -21,0 -38,-9 -38,-21 0,-4 3,-9 8,-12 -12,4 -19,11 -19,20 0,13 19,24 42,24z"/>
     <path class="fil24" d="M893 193c26,3 42,12 42,25 0,2 0,5 -1,7 7,-5 12,-11 12,-17 0,-15 -22,-26 -57,-27 -36,-1 -84,9 -131,31 13,-6 81,-26 135,-19z"/>
     <path class="fil21" d="M954 224l1 -4 2 0 0 6 -1 0 0 -4 0 0 -2 4 -1 0 -1 -4 0 0 0 4 -1 0 0 -6 1 0 2 4zm-4 -3l-2 0 0 5 -1 0 0 -5 -2 0 0 -1 5 0 0 1z"/>
    </g>
   </g>
   <g id="_2485899794496">
    <g id="surface1_0">
     <g>
     </g>
     <g style="clip-path:url(#id1)">
      <g>
       <path class="fil25" d="M1683 1173l0 25c0,7 4,12 6,12 3,1 4,0 4,0l0 7c0,0 -49,1 -49,0 0,0 0,-3 0,-3 0,0 10,-6 10,-16l0 -114c0,-1 0,-5 -3,-7 -2,-2 -6,-2 -6,-2l0 -7 37 0c0,0 21,-2 34,25 12,27 1,58 -11,69 -7,7 -16,10 -22,11zm0 -13c3,0 7,-1 7,-5l0 -72c0,-4 -4,-6 -7,-5l0 82zm60 37c0,0 0,0 0,1 0,7 3,10 5,12 2,1 4,0 4,0l0 7 -47 0 0 -6c5,0 10,-3 10,-12l0 -11c0,-9 -5,-11 -10,-11l0 -7 47 0 0 7c0,0 -2,0 -4,1 -2,1 -5,5 -5,12 0,0 0,0 0,0l0 7zm-8 -60c9,0 16,7 16,15 0,9 -7,16 -16,16 -8,0 -15,-7 -15,-16 0,-8 7,-15 15,-15zm26 81l-4 0 0 -33 6 -2c0,0 5,26 22,25 16,-1 16,-18 6,-33 -9,-16 -35,-38 -40,-54 -5,-15 -2,-38 14,-49 16,-12 32,-3 35,-1 3,3 8,1 8,-1 0,-3 1,-4 3,-4 3,0 4,0 4,0l0 39 -7 0c0,0 -8,-28 -26,-26 -10,0 -12,7 -10,16 2,10 9,21 15,28 12,13 38,43 35,63 -3,20 -14,32 -31,32 -16,0 -21,-4 -24,-5 -2,-1 -5,3 -6,5zm76 -27l28 0c1,4 2,6 2,8 2,7 -6,13 -6,13l0 7 48 0 0 -9c0,0 -2,1 -6,-1 -3,-3 -6,-9 -6,-9l-34 -135 -6 0c0,0 -33,127 -36,136 -4,10 -11,11 -11,11l0 7 32 0 0 -7c0,0 -1,0 -5,-4 -4,-4 -2,-9 -2,-9l2 -8zm25 -12l-22 0 10 -40c0,0 7,22 12,40zm39 -94l0 8 -5 0 0 -21 10 0c1,0 3,0 4,1 1,0 2,1 2,2 1,1 1,2 1,4 0,2 -1,4 -3,5l4 9 -6 0 -3 -8 -4 0zm0 -9l0 5 3 0c1,0 2,0 3,0 0,0 0,0 1,-1 0,0 0,-1 0,-1 0,-1 0,-2 0,-2 -1,0 -1,-1 -1,-1 -1,0 -2,0 -3,0l-3 0zm3 -13c6,0 10,2 14,6 4,3 6,8 6,14 0,5 -2,10 -6,13 -4,4 -8,6 -14,6 -5,0 -10,-2 -14,-6 -3,-3 -5,-8 -5,-13 0,-6 2,-11 5,-14 4,-4 9,-6 14,-6zm11 9c-3,-3 -7,-4 -11,-4 -4,0 -8,1 -10,4 -3,3 -5,6 -5,11 0,4 2,7 5,10 2,3 6,5 10,5 4,0 8,-2 11,-5 2,-3 4,-6 4,-10 0,-5 -2,-8 -4,-11zm0 0z"/>
      </g>
     </g>
     <path class="fil22" d="M1644 1062l280 0 0 157 -280 0 0 -157zm0 0z"/>
    </g>
   </g>
   <rect class="fil22 str0" x="511" y="2" width="509" height="456"/>
   <rect class="fil22 str0" x="1020" y="2" width="509" height="456"/>
   <rect class="fil22 str0" x="2" y="2" width="509" height="456"/>
   <rect class="fil22 str0" x="1529" y="2" width="509" height="456"/>
   <rect class="fil22 str0" x="2" y="457" width="509" height="456"/>
   <rect class="fil22 str0" x="511" y="457" width="509" height="456"/>
   <rect class="fil22 str0" x="1020" y="457" width="509" height="456"/>
   <rect class="fil22 str0" x="2" y="913" width="509" height="456"/>
   <rect class="fil22 str0" x="511" y="913" width="509" height="456"/>
   <rect class="fil22 str0" x="1529" y="457" width="509" height="456"/>
   <rect class="fil22 str0" x="1020" y="913" width="509" height="456"/>
   <rect class="fil22 str0" x="1529" y="913" width="509" height="456"/>
  </g>
 </g>
</svg>
