<?xml version="1.0" encoding="UTF-8"?>
<!DOCTYPE svg PUBLIC "-//W3C//DTD SVG 1.0//EN" "http://www.w3.org/TR/2001/REC-SVG-20010904/DTD/svg10.dtd">
<!-- Creator: CorelDRAW X8 -->
<svg xmlns="http://www.w3.org/2000/svg" xml:space="preserve" width="2040px" height="1825px" version="1.0" style="shape-rendering:geometricPrecision; text-rendering:geometricPrecision; image-rendering:optimizeQuality; fill-rule:evenodd; clip-rule:evenodd"
viewBox="0 0 2040 1826"
 xmlns:xlink="http://www.w3.org/1999/xlink">
 <defs>
  <style type="text/css">
   <![CDATA[
    .str1 {stroke:#E6E6E6;stroke-width:3.5441}
    .str0 {stroke:#E6E6E6;stroke-width:1.18137}
    .fil22 {fill:none}
    .fil2 {fill:#FEFEFE}
    .fil1 {fill:#858789}
    .fil6 {fill:black}
    .fil21 {fill:#0053A3}
    .fil15 {fill:#026E78}
    .fil16 {fill:#056D79}
    .fil13 {fill:#26326C}
    .fil14 {fill:#E23600}
    .fil5 {fill:#EC0A8C}
    .fil18 {fill:#ED3642}
    .fil12 {fill:#F0D40E}
    .fil7 {fill:#FEFDFE}
    .fil10 {fill:#BEA56F;fill-rule:nonzero}
    .fil11 {fill:#ADB543;fill-rule:nonzero}
    .fil9 {fill:#4E4F95;fill-rule:nonzero}
    .fil8 {fill:#0075BB;fill-rule:nonzero}
    .fil4 {fill:#1248A6;fill-rule:nonzero}
    .fil23 {fill:#1A4684;fill-rule:nonzero}
    .fil17 {fill:#AB1530;fill-rule:nonzero}
    .fil20 {fill:#E3001B;fill-rule:nonzero}
    .fil19 {fill:#ED3642;fill-rule:nonzero}
    .fil0 {fill:url(#id0)}
    .fil3 {fill:url(#id1);fill-rule:nonzero}
   ]]>
  </style>
  <radialGradient id="id0" gradientUnits="userSpaceOnUse" gradientTransform="matrix(-1.01015 -1.01015 1.01016 -1.01015 283 720)" cx="256.331" cy="229.537" r="560.912" fx="256.331" fy="229.537">
   <stop offset="0" style="stop-opacity:1; stop-color:#00AFEF"/>
   <stop offset="0.101961" style="stop-opacity:1; stop-color:#316DA7"/>
   <stop offset="0.501961" style="stop-opacity:1; stop-color:#355A9C"/>
   <stop offset="0.74902" style="stop-opacity:1; stop-color:#3B4694"/>
   <stop offset="0.988235" style="stop-opacity:1; stop-color:#2F3165"/>
   <stop offset="1" style="stop-opacity:1; stop-color:#2F3165"/>
  </radialGradient>
  <linearGradient id="id1" gradientUnits="objectBoundingBox" x1="0%" y1="97.6324%" x2="108.763%" y2="2.36773%">
   <stop offset="0" style="stop-opacity:1; stop-color:#3B4694"/>
   <stop offset="0.0117647" style="stop-opacity:1; stop-color:#3B4694"/>
   <stop offset="0.188235" style="stop-opacity:1; stop-color:#3374B8"/>
   <stop offset="0.270588" style="stop-opacity:1; stop-color:#317ABE"/>
   <stop offset="0.54902" style="stop-opacity:1; stop-color:#00AFEF"/>
   <stop offset="0.701961" style="stop-opacity:1; stop-color:#D5EFFC"/>
   <stop offset="1" style="stop-opacity:1; stop-color:#00AFEF"/>
  </linearGradient>
 </defs>
 <g id="Capa_x0020_1">
  <metadata id="CorelCorpID_0Corel-Layer"/>
  <g id="_2485899786304">
   <g>
    <path class="fil0" d="M350 230c0,51 -42,93 -94,93 -51,0 -93,-42 -93,-93 0,-52 42,-94 93,-94 52,0 94,42 94,94z"/>
    <g>
     <g>
      <path class="fil1" d="M208 251c0,0 0,0 0,0 1,-1 1,-3 2,-5 2,-5 3,-11 5,-16 1,-3 2,-6 3,-8 0,-3 1,-5 2,-8 1,-3 2,-6 3,-9 0,-2 0,-3 -2,-5 1,0 1,0 1,0 8,0 17,0 25,0 4,0 7,1 10,4 2,1 3,3 4,6 0,4 -1,7 -2,10 -3,7 -8,11 -15,13 -2,1 -4,1 -7,1 -2,1 -4,1 -7,1 0,0 -1,0 -2,0 0,-1 0,-1 0,0 -1,1 -1,3 -2,4 -1,2 -1,5 -2,7 0,1 -1,3 -1,5 -1,2 -1,3 1,4 -6,0 -13,0 -19,0 1,-1 2,-2 3,-3 0,-1 0,-1 0,-1zm31 -46l0 0c-1,0 -1,0 -2,0 0,0 0,0 0,0 0,1 -1,2 -1,3 -2,7 -4,14 -7,22 0,0 0,0 1,0 3,1 7,0 9,-3 2,-1 4,-3 5,-6 1,-3 2,-7 2,-10 0,-3 -1,-5 -4,-6 -1,0 -2,0 -3,0z"/>
      <path class="fil1" d="M332 202c0,0 0,0 0,0 1,0 1,0 2,0 0,1 -1,1 -1,1 0,2 -1,4 -1,6 -1,0 -1,0 -1,1 -2,-2 -4,-4 -6,-4 -2,-1 -3,-1 -5,-2 -5,0 -8,2 -12,5 0,1 0,1 0,1 -1,0 -1,0 -1,0 -1,1 -2,3 -3,4 -3,4 -4,8 -6,13 -1,4 -2,8 -2,13 0,2 0,5 1,7 1,2 3,4 5,4 2,1 3,1 5,0 0,0 0,0 0,0 0,-1 1,-1 1,-2 1,-2 1,-5 2,-7 1,-3 2,-7 3,-10 1,-1 0,-2 0,-3 -1,-1 -1,-2 -2,-2 0,0 0,0 0,0 7,0 14,0 21,0 0,0 0,0 0,0 -2,1 -4,2 -5,4 -2,7 -4,13 -6,20 0,0 0,1 -1,1 -3,2 -7,3 -12,4 -3,0 -7,0 -10,-1 -3,0 -5,-1 -7,-2 -1,0 -1,-1 -1,-1 -5,-3 -7,-8 -7,-13 -1,-9 1,-16 5,-23 1,-2 2,-3 4,-4 0,-1 1,-2 2,-3 2,-2 5,-4 8,-5 4,-2 8,-4 13,-4 3,0 7,0 11,0 2,1 4,1 6,2z"/>
      <path class="fil1" d="M273 236c1,0 2,0 2,0 2,0 3,0 5,0 0,0 0,0 0,1 0,3 -1,6 -4,9 -1,1 -1,1 0,2 4,3 7,5 12,7 0,0 0,0 0,0 0,0 0,0 0,0 -4,0 -8,0 -12,0 -1,0 -1,0 -2,0 -1,-1 -2,-2 -4,-4 0,0 0,0 -1,0 -3,2 -6,4 -9,5 -3,0 -6,0 -8,-1 -2,0 -3,-1 -4,-3 -3,-2 -3,-5 -3,-8 0,-4 3,-7 6,-10 3,-1 5,-2 8,-3 1,0 1,0 1,-2 0,-4 1,-8 3,-12 3,-3 7,-5 12,-4 2,0 3,1 4,2 2,2 3,5 1,8 -1,3 -3,4 -5,6 -2,1 -4,2 -6,3 -1,0 -1,0 -1,1 1,4 3,7 5,10 0,0 0,0 0,0 1,-1 2,-3 2,-5 0,-1 -1,-1 -2,-2zm-6 12l0 0c0,-1 -1,-1 -1,-2 -2,-3 -4,-7 -5,-10 0,-1 0,-1 -1,-1 0,0 0,1 -1,1 -2,1 -4,3 -5,5 -2,5 0,9 5,9 3,0 6,-1 8,-2zm0 -20l0 0c1,0 1,0 1,0 2,-2 4,-4 5,-6 1,-1 2,-2 2,-3 0,-2 -1,-4 -3,-3 -1,0 -2,1 -2,2 -3,3 -3,6 -3,10z"/>
     </g>
     <g>
      <path class="fil2" d="M206 250c0,0 0,0 0,0 1,-2 2,-4 2,-5 2,-6 4,-12 5,-17 1,-3 2,-5 3,-8 1,-3 1,-5 2,-8 1,-3 2,-6 3,-9 1,-1 0,-3 -1,-4 0,0 0,0 0,0 9,0 17,0 25,0 4,0 7,1 10,3 2,1 4,4 4,6 0,4 0,7 -2,10 -3,7 -8,11 -15,13 -2,1 -4,1 -6,2 -3,0 -5,0 -7,0 -1,0 -2,0 -3,0 0,0 0,0 0,0 -1,2 -1,3 -2,5 0,2 -1,4 -2,6 0,2 -1,3 -1,5 -1,2 0,3 2,4 -7,0 -14,0 -20,0 1,-1 3,-2 3,-3 0,0 0,0 0,0zm31 -47l0 0c0,0 -1,0 -1,0 -1,0 -1,0 -1,0 0,1 0,2 -1,3 -2,7 -4,15 -7,22 0,0 0,1 1,1 4,0 7,-1 10,-3 2,-2 3,-4 4,-6 1,-4 3,-7 2,-11 0,-3 -1,-5 -3,-6 -2,0 -3,0 -4,0z"/>
      <path class="fil2" d="M331 200c0,0 0,0 0,0 0,0 1,0 1,1 0,0 0,0 -1,1 0,2 -1,3 -1,5 0,1 0,1 0,1 -2,-2 -5,-3 -7,-4 -1,-1 -3,-1 -4,-1 -5,-1 -9,1 -13,5 0,0 0,0 0,0 0,0 0,0 -1,1 -1,1 -2,2 -3,3 -2,4 -4,9 -6,13 -1,4 -2,9 -2,13 0,2 0,5 1,7 1,3 3,4 5,5 2,0 3,0 5,0 0,0 0,-1 0,-1 1,-1 1,-1 1,-2 1,-2 1,-4 2,-7 1,-3 2,-7 3,-10 1,-1 1,-2 0,-3 0,-1 -1,-1 -2,-2 0,0 0,0 0,0 7,0 14,0 21,0 0,0 0,0 0,0 -2,1 -4,2 -4,5 -2,6 -4,13 -6,19 -1,1 -1,1 -1,1 -4,2 -8,3 -12,4 -4,0 -8,0 -11,0 -3,-1 -5,-2 -7,-3 0,0 -1,0 -1,-1 -5,-3 -6,-8 -7,-13 -1,-8 1,-16 6,-23 1,-1 2,-3 3,-4 0,-1 1,-2 2,-2 2,-3 5,-5 8,-6 4,-2 8,-3 13,-4 4,0 7,0 11,1 2,0 4,1 7,1z"/>
      <path class="fil2" d="M272 234c0,0 1,0 2,0 1,0 3,0 4,0 0,0 1,0 1,1 -1,3 -2,7 -5,9 -1,1 -1,1 0,2 4,3 8,5 12,7 0,0 0,0 1,0 -1,0 -1,0 -1,0 -4,0 -8,0 -12,0 -1,0 -1,0 -1,0 -2,-1 -3,-2 -4,-3 -1,-1 -1,-1 -1,0 -3,2 -7,3 -10,4 -3,0 -5,0 -8,-1 -2,0 -3,-1 -4,-2 -3,-3 -3,-6 -3,-9 1,-4 3,-7 6,-9 3,-2 5,-3 8,-4 1,0 1,0 1,-1 0,-5 1,-9 4,-12 3,-4 7,-5 11,-5 2,1 3,1 4,2 3,2 3,6 2,8 -2,3 -4,4 -6,6 -2,1 -4,2 -6,3 -1,0 -1,0 -1,1 1,4 3,7 5,10 0,1 0,1 0,0 1,-1 2,-3 2,-5 0,0 0,-1 -1,-2zm-7 12l0 0c0,0 -1,-1 -1,-1 -2,-4 -4,-7 -5,-11 0,-1 0,-1 -1,-1 0,1 0,1 -1,1 -2,1 -4,3 -5,5 -2,5 0,9 5,10 3,0 6,-1 8,-3zm0 -20l0 0c1,0 1,0 1,0 2,-2 4,-3 6,-5 0,-2 1,-3 1,-4 1,-2 -1,-3 -3,-3 -1,1 -2,1 -2,2 -2,3 -3,7 -3,10z"/>
     </g>
    </g>
    <g>
     <path class="fil3" d="M190 228c0,-38 21,-72 54,-92 -46,7 -81,46 -81,93 0,50 38,90 87,94 -36,-20 -60,-55 -60,-95z"/>
    </g>
   </g>
   <g>
    <path class="fil0" d="M350 230c0,51 -42,93 -94,93 -51,0 -93,-42 -93,-93 0,-52 42,-94 93,-94 52,0 94,42 94,94z"/>
    <g>
     <g>
      <path class="fil1" d="M208 251c0,0 0,0 0,0 1,-1 1,-3 2,-5 2,-5 3,-11 5,-16 1,-3 2,-6 3,-8 0,-3 1,-5 2,-8 1,-3 2,-6 3,-9 0,-2 0,-3 -2,-5 1,0 1,0 1,0 8,0 17,0 25,0 4,0 7,1 10,4 2,1 3,3 4,6 0,4 -1,7 -2,10 -3,7 -8,11 -15,13 -2,1 -4,1 -7,1 -2,1 -4,1 -7,1 0,0 -1,0 -2,0 0,-1 0,-1 0,0 -1,1 -1,3 -2,4 -1,2 -1,5 -2,7 0,1 -1,3 -1,5 -1,2 -1,3 1,4 -6,0 -13,0 -19,0 1,-1 2,-2 3,-3 0,-1 0,-1 0,-1zm31 -46l0 0c-1,0 -1,0 -2,0 0,0 0,0 0,0 0,1 -1,2 -1,3 -2,7 -4,14 -7,22 0,0 0,0 1,0 3,1 7,0 9,-3 2,-1 4,-3 5,-6 1,-3 2,-7 2,-10 0,-3 -1,-5 -4,-6 -1,0 -2,0 -3,0z"/>
      <path class="fil1" d="M332 202c0,0 0,0 0,0 1,0 1,0 2,0 0,1 -1,1 -1,1 0,2 -1,4 -1,6 -1,0 -1,0 -1,1 -2,-2 -4,-4 -6,-4 -2,-1 -3,-1 -5,-2 -5,0 -8,2 -12,5 0,1 0,1 0,1 -1,0 -1,0 -1,0 -1,1 -2,3 -3,4 -3,4 -4,8 -6,13 -1,4 -2,8 -2,13 0,2 0,5 1,7 1,2 3,4 5,4 2,1 3,1 5,0 0,0 0,0 0,0 0,-1 1,-1 1,-2 1,-2 1,-5 2,-7 1,-3 2,-7 3,-10 1,-1 0,-2 0,-3 -1,-1 -1,-2 -2,-2 0,0 0,0 0,0 7,0 14,0 21,0 0,0 0,0 0,0 -2,1 -4,2 -5,4 -2,7 -4,13 -6,20 0,0 0,1 -1,1 -3,2 -7,3 -12,4 -3,0 -7,0 -10,-1 -3,0 -5,-1 -7,-2 -1,0 -1,-1 -1,-1 -5,-3 -7,-8 -7,-13 -1,-9 1,-16 5,-23 1,-2 2,-3 4,-4 0,-1 1,-2 2,-3 2,-2 5,-4 8,-5 4,-2 8,-4 13,-4 3,0 7,0 11,0 2,1 4,1 6,2z"/>
      <path class="fil1" d="M273 236c1,0 2,0 2,0 2,0 3,0 5,0 0,0 0,0 0,1 0,3 -1,6 -4,9 -1,1 -1,1 0,2 4,3 7,5 12,7 0,0 0,0 0,0 0,0 0,0 0,0 -4,0 -8,0 -12,0 -1,0 -1,0 -2,0 -1,-1 -2,-2 -4,-4 0,0 0,0 -1,0 -3,2 -6,4 -9,5 -3,0 -6,0 -8,-1 -2,0 -3,-1 -4,-3 -3,-2 -3,-5 -3,-8 0,-4 3,-7 6,-10 3,-1 5,-2 8,-3 1,0 1,0 1,-2 0,-4 1,-8 3,-12 3,-3 7,-5 12,-4 2,0 3,1 4,2 2,2 3,5 1,8 -1,3 -3,4 -5,6 -2,1 -4,2 -6,3 -1,0 -1,0 -1,1 1,4 3,7 5,10 0,0 0,0 0,0 1,-1 2,-3 2,-5 0,-1 -1,-1 -2,-2zm-6 12l0 0c0,-1 -1,-1 -1,-2 -2,-3 -4,-7 -5,-10 0,-1 0,-1 -1,-1 0,0 0,1 -1,1 -2,1 -4,3 -5,5 -2,5 0,9 5,9 3,0 6,-1 8,-2zm0 -20l0 0c1,0 1,0 1,0 2,-2 4,-4 5,-6 1,-1 2,-2 2,-3 0,-2 -1,-4 -3,-3 -1,0 -2,1 -2,2 -3,3 -3,6 -3,10z"/>
     </g>
     <g>
      <path class="fil2" d="M206 250c0,0 0,0 0,0 1,-2 2,-4 2,-5 2,-6 4,-12 5,-17 1,-3 2,-5 3,-8 1,-3 1,-5 2,-8 1,-3 2,-6 3,-9 1,-1 0,-3 -1,-4 0,0 0,0 0,0 9,0 17,0 25,0 4,0 7,1 10,3 2,1 4,4 4,6 0,4 0,7 -2,10 -3,7 -8,11 -15,13 -2,1 -4,1 -6,2 -3,0 -5,0 -7,0 -1,0 -2,0 -3,0 0,0 0,0 0,0 -1,2 -1,3 -2,5 0,2 -1,4 -2,6 0,2 -1,3 -1,5 -1,2 0,3 2,4 -7,0 -14,0 -20,0 1,-1 3,-2 3,-3 0,0 0,0 0,0zm31 -47l0 0c0,0 -1,0 -1,0 -1,0 -1,0 -1,0 0,1 0,2 -1,3 -2,7 -4,15 -7,22 0,0 0,1 1,1 4,0 7,-1 10,-3 2,-2 3,-4 4,-6 1,-4 3,-7 2,-11 0,-3 -1,-5 -3,-6 -2,0 -3,0 -4,0z"/>
      <path class="fil2" d="M331 200c0,0 0,0 0,0 0,0 1,0 1,1 0,0 0,0 -1,1 0,2 -1,3 -1,5 0,1 0,1 0,1 -2,-2 -5,-3 -7,-4 -1,-1 -3,-1 -4,-1 -5,-1 -9,1 -13,5 0,0 0,0 0,0 0,0 0,0 -1,1 -1,1 -2,2 -3,3 -2,4 -4,9 -6,13 -1,4 -2,9 -2,13 0,2 0,5 1,7 1,3 3,4 5,5 2,0 3,0 5,0 0,0 0,-1 0,-1 1,-1 1,-1 1,-2 1,-2 1,-4 2,-7 1,-3 2,-7 3,-10 1,-1 1,-2 0,-3 0,-1 -1,-1 -2,-2 0,0 0,0 0,0 7,0 14,0 21,0 0,0 0,0 0,0 -2,1 -4,2 -4,5 -2,6 -4,13 -6,19 -1,1 -1,1 -1,1 -4,2 -8,3 -12,4 -4,0 -8,0 -11,0 -3,-1 -5,-2 -7,-3 0,0 -1,0 -1,-1 -5,-3 -6,-8 -7,-13 -1,-8 1,-16 6,-23 1,-1 2,-3 3,-4 0,-1 1,-2 2,-2 2,-3 5,-5 8,-6 4,-2 8,-3 13,-4 4,0 7,0 11,1 2,0 4,1 7,1z"/>
      <path class="fil2" d="M272 234c0,0 1,0 2,0 1,0 3,0 4,0 0,0 1,0 1,1 -1,3 -2,7 -5,9 -1,1 -1,1 0,2 4,3 8,5 12,7 0,0 0,0 1,0 -1,0 -1,0 -1,0 -4,0 -8,0 -12,0 -1,0 -1,0 -1,0 -2,-1 -3,-2 -4,-3 -1,-1 -1,-1 -1,0 -3,2 -7,3 -10,4 -3,0 -5,0 -8,-1 -2,0 -3,-1 -4,-2 -3,-3 -3,-6 -3,-9 1,-4 3,-7 6,-9 3,-2 5,-3 8,-4 1,0 1,0 1,-1 0,-5 1,-9 4,-12 3,-4 7,-5 11,-5 2,1 3,1 4,2 3,2 3,6 2,8 -2,3 -4,4 -6,6 -2,1 -4,2 -6,3 -1,0 -1,0 -1,1 1,4 3,7 5,10 0,1 0,1 0,0 1,-1 2,-3 2,-5 0,0 0,-1 -1,-2zm-7 12l0 0c0,0 -1,-1 -1,-1 -2,-4 -4,-7 -5,-11 0,-1 0,-1 -1,-1 0,1 0,1 -1,1 -2,1 -4,3 -5,5 -2,5 0,9 5,10 3,0 6,-1 8,-3zm0 -20l0 0c1,0 1,0 1,0 2,-2 4,-3 6,-5 0,-2 1,-3 1,-4 1,-2 -1,-3 -3,-3 -1,1 -2,1 -2,2 -2,3 -3,7 -3,10z"/>
     </g>
    </g>
    <g>
     <path class="fil3" d="M190 228c0,-38 21,-72 54,-92 -46,7 -81,46 -81,93 0,50 38,90 87,94 -36,-20 -60,-55 -60,-95z"/>
    </g>
   </g>
   <g>
    <path class="fil4" d="M671 301l2 0 0 3c1,-1 2,-2 3,-3 1,0 2,-1 4,-1 2,0 4,1 6,3 1,2 2,4 2,6 0,2 -1,5 -2,6 -2,2 -4,3 -6,3 -2,0 -3,-1 -4,-1 -1,-1 -2,-1 -3,-2l0 8 -2 0 0 -22zm9 2c-2,0 -4,0 -5,1 -1,2 -2,3 -2,5 0,1 0,3 1,4 0,1 1,1 2,2 1,1 2,1 4,1 1,0 2,0 3,-1 1,-1 2,-1 2,-3 1,-1 1,-2 1,-3 0,-1 0,-2 -1,-3 0,-1 -1,-2 -2,-3 -1,0 -2,0 -3,0z"/>
    <path class="fil4" d="M700 303l-1 1c-1,-1 -2,-2 -3,-2 -1,0 -2,1 -2,1 0,1 -1,1 -1,2 0,0 0,1 1,1 0,1 1,1 2,2 2,1 3,2 4,2 0,1 0,2 0,3 0,1 0,2 -1,3 -1,1 -2,2 -4,2 0,0 -1,0 -2,-1 -1,0 -2,-1 -2,-2l1 -1c1,1 2,2 3,2 1,0 2,0 3,-1 0,-1 0,-1 0,-2 0,-1 0,-1 0,-2 -1,0 -1,-1 -3,-1 -1,-1 -2,-2 -3,-3 0,0 -1,-1 -1,-2 0,-1 1,-2 2,-3 0,-1 2,-2 3,-2 1,0 3,1 4,3z"/>
    <path class="fil4" d="M705 294c0,0 1,0 1,1 1,0 1,0 1,1 0,0 0,1 -1,1 0,0 -1,1 -1,1 -1,0 -1,-1 -1,-1 -1,0 -1,-1 -1,-1 0,-1 0,-1 1,-1 0,-1 0,-1 1,-1zm-1 7l2 0 0 16 -2 0 0 -16z"/>
    <path class="fil4" d="M726 304l-1 1c-2,-2 -4,-3 -6,-3 -2,0 -4,1 -5,2 -2,2 -2,3 -2,5 0,1 0,2 1,3 0,2 1,2 2,3 1,1 2,1 4,1 2,0 4,-1 6,-3l1 1c0,1 -2,2 -3,3 -1,0 -3,1 -4,1 -3,0 -5,-1 -7,-3 -2,-1 -2,-3 -2,-6 0,-1 0,-3 1,-4 1,-2 2,-3 3,-3 2,-1 3,-2 5,-2 1,0 2,1 3,1 1,0 2,1 3,1 0,1 1,1 1,2z"/>
    <path class="fil4" d="M738 300c3,0 5,1 6,3 2,2 3,4 3,6 0,2 -1,4 -3,6 -1,2 -3,3 -6,3 -2,0 -4,-1 -6,-3 -2,-2 -2,-4 -2,-6 0,-2 0,-4 2,-6 2,-2 4,-3 6,-3zm0 3c-2,0 -3,0 -4,2 -2,1 -2,2 -2,4 0,1 0,3 1,4 0,1 1,1 2,2 1,1 2,1 3,1 1,0 2,0 3,-1 1,-1 2,-1 3,-2 0,-1 0,-3 0,-4 0,-2 0,-3 -1,-4 -2,-2 -3,-2 -5,-2z"/>
    <path class="fil4" d="M757 295l0 2c0,-1 -1,-1 -2,-1 0,0 0,0 -1,0 0,1 0,1 0,1 0,0 0,1 0,2l0 2 3 0 0 2 -3 0 0 14 -2 0 0 -14 -3 0 0 -2 3 0 0 -3c0,-1 0,-2 0,-2 0,-1 1,-1 1,-1 1,-1 1,-1 2,-1 1,0 1,0 2,1z"/>
    <path class="fil4" d="M777 301l0 16 -2 0 0 -2c-1,1 -2,1 -3,2 -1,0 -3,1 -4,1 -2,0 -4,-1 -6,-3 -2,-1 -2,-4 -2,-6 0,-2 0,-4 2,-6 2,-2 4,-3 6,-3 1,0 3,1 4,1 1,1 2,2 3,3l0 -3 2 0zm-9 2c-1,0 -2,0 -3,0 -1,1 -2,2 -2,3 -1,1 -1,2 -1,3 0,1 0,2 1,3 0,2 1,2 2,3 1,1 2,1 3,1 1,0 2,0 3,-1 2,-1 2,-1 3,-2 0,-1 1,-3 1,-4 0,-2 -1,-3 -2,-5 -1,-1 -3,-1 -5,-1z"/>
    <path class="fil4" d="M781 301l2 0 0 2c0,-1 1,-1 2,-2 1,0 1,-1 2,-1 1,0 1,1 2,1l-1 2c-1,0 -1,0 -1,0 -1,0 -2,0 -2,0 -1,1 -1,2 -2,3 0,1 0,3 0,6l0 5 -2 0 0 -16z"/>
    <path class="fil4" d="M791 301l2 0 0 3c1,-1 1,-2 2,-3 1,0 2,-1 3,-1 1,0 2,1 3,1 0,0 1,1 1,1 1,1 1,1 2,2 0,-1 1,-2 2,-2 1,-1 2,-2 4,-2 1,0 2,1 3,1 1,1 1,2 2,3 0,1 0,2 0,4l0 9 -2 0 0 -9c0,-1 0,-3 0,-3 0,-1 -1,-1 -2,-2 0,0 -1,0 -2,0 -1,0 -2,0 -3,0 0,1 -1,2 -1,3 -1,1 -1,3 -1,5l0 6 -2 0 0 -8c0,-2 0,-3 0,-4 -1,-1 -1,-1 -2,-2 0,0 -1,0 -2,0 -1,0 -2,0 -3,0 -1,1 -1,2 -2,3 0,1 0,2 0,4l0 7 -2 0 0 -16z"/>
    <path class="fil4" d="M836 301l0 16 -2 0 0 -2c-1,1 -2,1 -3,2 -1,0 -2,1 -4,1 -2,0 -4,-1 -6,-3 -1,-1 -2,-4 -2,-6 0,-2 1,-4 3,-6 1,-2 3,-3 6,-3 1,0 2,1 3,1 1,1 2,2 3,3l0 -3 2 0zm-8 2c-1,0 -3,0 -4,0 -1,1 -1,2 -2,3 -1,1 -1,2 -1,3 0,1 0,2 1,3 1,2 1,2 2,3 1,1 3,1 4,1 1,0 2,0 3,-1 1,-1 2,-1 2,-2 1,-1 1,-3 1,-4 0,-2 0,-3 -2,-5 -1,-1 -3,-1 -4,-1z"/>
    <path class="fil4" d="M860 294c0,1 -1,2 -1,3 -1,1 -2,2 -3,3 -1,0 -2,0 -3,0 -1,0 -2,0 -3,0 -2,-1 -2,-2 -3,-3 -1,-1 -1,-2 -1,-3 0,-2 0,-3 1,-4 1,-1 1,-2 3,-2 1,-1 2,-1 3,-1 1,0 2,0 3,1 1,0 2,1 3,2 0,1 1,2 1,4zm-1 0c0,-1 0,-2 -1,-3 0,-1 -1,-2 -2,-2 -1,-1 -2,-1 -3,-1 -1,0 -2,0 -3,1 -1,0 -2,1 -2,2 -1,1 -1,2 -1,3 0,1 0,2 1,3 0,0 1,1 2,2 1,0 2,0 3,0 1,0 2,0 3,0 1,-1 2,-2 2,-2 1,-1 1,-2 1,-3zm-9 -4l3 0c1,0 2,0 2,0 0,0 1,0 1,1 0,0 0,0 0,1 0,0 0,1 0,1 0,0 0,0 -1,1 1,0 1,0 1,0 0,0 0,1 0,1l0 1c0,1 0,1 0,1l1 0 -2 0c0,0 0,0 0,-1l0 -1c0,0 0,0 0,0 0,-1 -1,-1 -1,-1 0,0 0,0 -1,0l-2 0 0 3 -1 0 0 -7zm1 1l0 2 2 0c1,0 1,0 1,0 1,0 1,-1 1,-1 0,0 0,-1 0,-1 -1,0 -1,0 -2,0l-2 0z"/>
    <path class="fil4" d="M732 198l2 0c0,-8 6,-14 14,-14 8,0 14,6 14,14 0,8 -6,15 -14,15l0 2c9,0 17,-8 17,-17 0,-9 -8,-16 -17,-16 -9,0 -16,7 -16,16z"/>
    <path class="fil4" d="M715 198c0,2 2,4 4,4 2,0 3,-2 3,-4 0,-14 12,-26 26,-26 15,0 26,12 26,26 0,15 -11,26 -25,26 -2,0 -4,2 -4,4 0,2 2,3 4,3 18,0 32,-14 32,-33 0,-18 -15,-33 -33,-33 -18,0 -33,15 -33,33z"/>
    <path class="fil4" d="M703 198c0,12 5,24 13,32l2 -1c-8,-8 -13,-19 -13,-31 0,-23 19,-43 43,-43 15,0 29,8 37,21l2 -1c-9,-14 -23,-22 -39,-22 -25,0 -45,20 -45,45z"/>
    <path class="fil4" d="M796 227c-10,17 -28,27 -47,27 -2,0 -3,2 -3,3 0,2 2,4 3,4 22,-1 41,-12 53,-30 1,-2 0,-4 -2,-5 -1,-1 -3,0 -4,1z"/>
    <path class="fil4" d="M686 198c0,22 11,42 30,54 1,1 4,0 4,-1 1,-2 1,-4 -1,-5 -17,-10 -27,-28 -27,-48 0,-30 25,-55 56,-55 21,0 39,11 49,29 1,1 3,2 5,1 1,-1 2,-3 1,-5 -11,-20 -32,-32 -55,-32 -34,0 -62,28 -62,62z"/>
    <path class="fil4" d="M817 167l-17 0c-6,0 -26,3 -26,30 0,2 1,3 3,3 2,0 4,-1 4,-3 0,-20 12,-23 19,-23 0,0 9,0 14,0 0,6 0,46 0,51 -5,0 -15,0 -15,0 -2,0 -3,2 -3,4 0,2 1,3 3,3l21 0 0 -65 -3 0z"/>
    <path class="fil4" d="M817 182l-11 0c-10,0 -15,6 -15,15l0 1c0,24 -19,43 -43,43l0 2c19,0 35,-11 42,-28 1,0 28,0 28,0l0 -33 -1 0zm-24 16l0 -1c0,-10 7,-12 13,-12 0,0 8,0 10,0 0,2 0,26 0,28 -2,0 -23,0 -25,0 1,-5 2,-10 2,-15z"/>
    <path class="fil4" d="M807 195c-2,0 -3,2 -3,4 0,2 1,3 3,3l10 0c2,0 3,-1 3,-3 0,-2 -1,-4 -3,-4l-10 0z"/>
    <path class="fil4" d="M745 198c0,0 0,78 0,84 -4,0 -18,0 -23,0 0,-6 0,-84 0,-84 0,-2 -1,-3 -3,-3 -2,0 -4,1 -4,3l0 91 37 0 0 -91c0,-2 -1,-3 -3,-3 -2,0 -4,1 -4,3z"/>
    <polygon class="fil4" points="732,284 734,284 734,198 732,198 "/>
   </g>
   <g>
    <path class="fil4" d="M671 301l2 0 0 3c1,-1 2,-2 3,-3 1,0 2,-1 4,-1 2,0 4,1 6,3 1,2 2,4 2,6 0,2 -1,5 -2,6 -2,2 -4,3 -6,3 -2,0 -3,-1 -4,-1 -1,-1 -2,-1 -3,-2l0 8 -2 0 0 -22zm9 2c-2,0 -4,0 -5,1 -1,2 -2,3 -2,5 0,1 0,3 1,4 0,1 1,1 2,2 1,1 2,1 4,1 1,0 2,0 3,-1 1,-1 2,-1 2,-3 1,-1 1,-2 1,-3 0,-1 0,-2 -1,-3 0,-1 -1,-2 -2,-3 -1,0 -2,0 -3,0z"/>
    <path class="fil4" d="M700 303l-1 1c-1,-1 -2,-2 -3,-2 -1,0 -2,1 -2,1 0,1 -1,1 -1,2 0,0 0,1 1,1 0,1 1,1 2,2 2,1 3,2 4,2 0,1 0,2 0,3 0,1 0,2 -1,3 -1,1 -2,2 -4,2 0,0 -1,0 -2,-1 -1,0 -2,-1 -2,-2l1 -1c1,1 2,2 3,2 1,0 2,0 3,-1 0,-1 0,-1 0,-2 0,-1 0,-1 0,-2 -1,0 -1,-1 -3,-1 -1,-1 -2,-2 -3,-3 0,0 -1,-1 -1,-2 0,-1 1,-2 2,-3 0,-1 2,-2 3,-2 1,0 3,1 4,3z"/>
    <path class="fil4" d="M705 294c0,0 1,0 1,1 1,0 1,0 1,1 0,0 0,1 -1,1 0,0 -1,1 -1,1 -1,0 -1,-1 -1,-1 -1,0 -1,-1 -1,-1 0,-1 0,-1 1,-1 0,-1 0,-1 1,-1zm-1 7l2 0 0 16 -2 0 0 -16z"/>
    <path class="fil4" d="M726 304l-1 1c-2,-2 -4,-3 -6,-3 -2,0 -4,1 -5,2 -2,2 -2,3 -2,5 0,1 0,2 1,3 0,2 1,2 2,3 1,1 2,1 4,1 2,0 4,-1 6,-3l1 1c0,1 -2,2 -3,3 -1,0 -3,1 -4,1 -3,0 -5,-1 -7,-3 -2,-1 -2,-3 -2,-6 0,-1 0,-3 1,-4 1,-2 2,-3 3,-3 2,-1 3,-2 5,-2 1,0 2,1 3,1 1,0 2,1 3,1 0,1 1,1 1,2z"/>
    <path class="fil4" d="M738 300c3,0 5,1 6,3 2,2 3,4 3,6 0,2 -1,4 -3,6 -1,2 -3,3 -6,3 -2,0 -4,-1 -6,-3 -2,-2 -2,-4 -2,-6 0,-2 0,-4 2,-6 2,-2 4,-3 6,-3zm0 3c-2,0 -3,0 -4,2 -2,1 -2,2 -2,4 0,1 0,3 1,4 0,1 1,1 2,2 1,1 2,1 3,1 1,0 2,0 3,-1 1,-1 2,-1 3,-2 0,-1 0,-3 0,-4 0,-2 0,-3 -1,-4 -2,-2 -3,-2 -5,-2z"/>
    <path class="fil4" d="M757 295l0 2c0,-1 -1,-1 -2,-1 0,0 0,0 -1,0 0,1 0,1 0,1 0,0 0,1 0,2l0 2 3 0 0 2 -3 0 0 14 -2 0 0 -14 -3 0 0 -2 3 0 0 -3c0,-1 0,-2 0,-2 0,-1 1,-1 1,-1 1,-1 1,-1 2,-1 1,0 1,0 2,1z"/>
    <path class="fil4" d="M777 301l0 16 -2 0 0 -2c-1,1 -2,1 -3,2 -1,0 -3,1 -4,1 -2,0 -4,-1 -6,-3 -2,-1 -2,-4 -2,-6 0,-2 0,-4 2,-6 2,-2 4,-3 6,-3 1,0 3,1 4,1 1,1 2,2 3,3l0 -3 2 0zm-9 2c-1,0 -2,0 -3,0 -1,1 -2,2 -2,3 -1,1 -1,2 -1,3 0,1 0,2 1,3 0,2 1,2 2,3 1,1 2,1 3,1 1,0 2,0 3,-1 2,-1 2,-1 3,-2 0,-1 1,-3 1,-4 0,-2 -1,-3 -2,-5 -1,-1 -3,-1 -5,-1z"/>
    <path class="fil4" d="M781 301l2 0 0 2c0,-1 1,-1 2,-2 1,0 1,-1 2,-1 1,0 1,1 2,1l-1 2c-1,0 -1,0 -1,0 -1,0 -2,0 -2,0 -1,1 -1,2 -2,3 0,1 0,3 0,6l0 5 -2 0 0 -16z"/>
    <path class="fil4" d="M791 301l2 0 0 3c1,-1 1,-2 2,-3 1,0 2,-1 3,-1 1,0 2,1 3,1 0,0 1,1 1,1 1,1 1,1 2,2 0,-1 1,-2 2,-2 1,-1 2,-2 4,-2 1,0 2,1 3,1 1,1 1,2 2,3 0,1 0,2 0,4l0 9 -2 0 0 -9c0,-1 0,-3 0,-3 0,-1 -1,-1 -2,-2 0,0 -1,0 -2,0 -1,0 -2,0 -3,0 0,1 -1,2 -1,3 -1,1 -1,3 -1,5l0 6 -2 0 0 -8c0,-2 0,-3 0,-4 -1,-1 -1,-1 -2,-2 0,0 -1,0 -2,0 -1,0 -2,0 -3,0 -1,1 -1,2 -2,3 0,1 0,2 0,4l0 7 -2 0 0 -16z"/>
    <path class="fil4" d="M836 301l0 16 -2 0 0 -2c-1,1 -2,1 -3,2 -1,0 -2,1 -4,1 -2,0 -4,-1 -6,-3 -1,-1 -2,-4 -2,-6 0,-2 1,-4 3,-6 1,-2 3,-3 6,-3 1,0 2,1 3,1 1,1 2,2 3,3l0 -3 2 0zm-8 2c-1,0 -3,0 -4,0 -1,1 -1,2 -2,3 -1,1 -1,2 -1,3 0,1 0,2 1,3 1,2 1,2 2,3 1,1 3,1 4,1 1,0 2,0 3,-1 1,-1 2,-1 2,-2 1,-1 1,-3 1,-4 0,-2 0,-3 -2,-5 -1,-1 -3,-1 -4,-1z"/>
    <path class="fil4" d="M860 294c0,1 -1,2 -1,3 -1,1 -2,2 -3,3 -1,0 -2,0 -3,0 -1,0 -2,0 -3,0 -2,-1 -2,-2 -3,-3 -1,-1 -1,-2 -1,-3 0,-2 0,-3 1,-4 1,-1 1,-2 3,-2 1,-1 2,-1 3,-1 1,0 2,0 3,1 1,0 2,1 3,2 0,1 1,2 1,4zm-1 0c0,-1 0,-2 -1,-3 0,-1 -1,-2 -2,-2 -1,-1 -2,-1 -3,-1 -1,0 -2,0 -3,1 -1,0 -2,1 -2,2 -1,1 -1,2 -1,3 0,1 0,2 1,3 0,0 1,1 2,2 1,0 2,0 3,0 1,0 2,0 3,0 1,-1 2,-2 2,-2 1,-1 1,-2 1,-3zm-9 -4l3 0c1,0 2,0 2,0 0,0 1,0 1,1 0,0 0,0 0,1 0,0 0,1 0,1 0,0 0,0 -1,1 1,0 1,0 1,0 0,0 0,1 0,1l0 1c0,1 0,1 0,1l1 0 -2 0c0,0 0,0 0,-1l0 -1c0,0 0,0 0,0 0,-1 -1,-1 -1,-1 0,0 0,0 -1,0l-2 0 0 3 -1 0 0 -7zm1 1l0 2 2 0c1,0 1,0 1,0 1,0 1,-1 1,-1 0,0 0,-1 0,-1 -1,0 -1,0 -2,0l-2 0z"/>
    <path class="fil4" d="M732 198l2 0c0,-8 6,-14 14,-14 8,0 14,6 14,14 0,8 -6,15 -14,15l0 2c9,0 17,-8 17,-17 0,-9 -8,-16 -17,-16 -9,0 -16,7 -16,16z"/>
    <path class="fil4" d="M715 198c0,2 2,4 4,4 2,0 3,-2 3,-4 0,-14 12,-26 26,-26 15,0 26,12 26,26 0,15 -11,26 -25,26 -2,0 -4,2 -4,4 0,2 2,3 4,3 18,0 32,-14 32,-33 0,-18 -15,-33 -33,-33 -18,0 -33,15 -33,33z"/>
    <path class="fil4" d="M703 198c0,12 5,24 13,32l2 -1c-8,-8 -13,-19 -13,-31 0,-23 19,-43 43,-43 15,0 29,8 37,21l2 -1c-9,-14 -23,-22 -39,-22 -25,0 -45,20 -45,45z"/>
    <path class="fil4" d="M796 227c-10,17 -28,27 -47,27 -2,0 -3,2 -3,3 0,2 2,4 3,4 22,-1 41,-12 53,-30 1,-2 0,-4 -2,-5 -1,-1 -3,0 -4,1z"/>
    <path class="fil4" d="M686 198c0,22 11,42 30,54 1,1 4,0 4,-1 1,-2 1,-4 -1,-5 -17,-10 -27,-28 -27,-48 0,-30 25,-55 56,-55 21,0 39,11 49,29 1,1 3,2 5,1 1,-1 2,-3 1,-5 -11,-20 -32,-32 -55,-32 -34,0 -62,28 -62,62z"/>
    <path class="fil4" d="M817 167l-17 0c-6,0 -26,3 -26,30 0,2 1,3 3,3 2,0 4,-1 4,-3 0,-20 12,-23 19,-23 0,0 9,0 14,0 0,6 0,46 0,51 -5,0 -15,0 -15,0 -2,0 -3,2 -3,4 0,2 1,3 3,3l21 0 0 -65 -3 0z"/>
    <path class="fil4" d="M817 182l-11 0c-10,0 -15,6 -15,15l0 1c0,24 -19,43 -43,43l0 2c19,0 35,-11 42,-28 1,0 28,0 28,0l0 -33 -1 0zm-24 16l0 -1c0,-10 7,-12 13,-12 0,0 8,0 10,0 0,2 0,26 0,28 -2,0 -23,0 -25,0 1,-5 2,-10 2,-15z"/>
    <path class="fil4" d="M807 195c-2,0 -3,2 -3,4 0,2 1,3 3,3l10 0c2,0 3,-1 3,-3 0,-2 -1,-4 -3,-4l-10 0z"/>
    <path class="fil4" d="M745 198c0,0 0,78 0,84 -4,0 -18,0 -23,0 0,-6 0,-84 0,-84 0,-2 -1,-3 -3,-3 -2,0 -4,1 -4,3l0 91 37 0 0 -91c0,-2 -1,-3 -3,-3 -2,0 -4,1 -4,3z"/>
    <polygon class="fil4" points="732,284 734,284 734,198 732,198 "/>
   </g>
   <g>
    <path class="fil5" d="M1111 199c1,-4 2,-13 3,-17 2,-11 0,-8 12,-8l-1 5c2,-3 7,-7 13,-6l-1 9c-9,0 -13,2 -14,10 -1,3 -3,19 -4,19l-5 1c0,0 1,15 1,22 -1,8 -2,15 -3,22 2,-2 5,-6 7,-8l30 -33c1,-1 2,-2 2,-3 -6,0 -10,-4 -11,-8 -3,-6 -1,-11 -1,-16 2,-10 4,-24 6,-33 -1,-1 2,0 -2,-1 -1,-1 -2,-1 -3,-1l-78 -17 -1 0c4,2 15,12 19,16 6,5 6,4 11,11 7,7 12,16 16,26 1,2 3,8 4,10z"/>
    <path class="fil6" d="M1353 226l0 6 6 0c1,7 -1,17 1,24 2,9 16,7 17,5l1 -3c0,-1 0,-2 0,-3 -6,0 -8,0 -8,-7 0,-4 -1,-13 0,-16l15 0c0,7 -1,19 1,24 1,3 3,5 6,6 12,2 12,-2 12,-7 -1,0 1,-1 -1,0 -6,0 -7,-2 -8,-8 0,-4 0,-11 1,-15 9,0 8,2 9,-7l-9 0 -1 -15 -10 4 0 11 -15 0 0 -15 -11 4 0 11 -6 1z"/>
    <path class="fil6" d="M1197 315l0 -15c6,0 12,0 12,7 0,7 -6,8 -12,8zm0 -35c6,0 11,0 11,7 -1,6 -6,6 -11,6l0 -13zm14 16c3,-2 6,-4 7,-9 4,-18 -22,-15 -33,-15l0 50c10,0 41,4 35,-18 -2,-7 -7,-7 -9,-8z"/>
    <path class="fil6" d="M1197 219c6,0 12,0 13,6 1,7 -4,10 -10,10l-1 0 -2 0 0 -16zm13 22c1,-2 4,-3 6,-4 6,-4 7,-15 2,-20 -6,-7 -26,-6 -33,-5l0 49 12 0 0 -20c2,1 13,18 14,20l13 0c-1,-2 -5,-8 -7,-10 -3,-3 -5,-7 -7,-10z"/>
    <path class="fil6" d="M1333 226c-3,-1 -6,-1 -10,-1 -4,0 -3,2 -5,4 -3,3 -6,8 -9,10l0 -22c0,-6 1,-6 -1,-7l-10 4 1 47 10 0c0,-3 0,-5 0,-8 0,-3 1,-4 3,-5 2,1 8,11 9,13l12 0c-1,-2 -11,-17 -14,-21 2,-3 5,-5 7,-7 2,-2 5,-6 7,-7z"/>
    <path class="fil6" d="M1358 301c2,-3 11,-11 13,-15l-12 0c-1,2 -10,13 -11,13l0 -28 -11 5 0 46 11 0c0,-10 -1,-9 3,-14 1,2 3,5 5,8l3 5c2,1 0,0 2,1l11 0c-1,-3 -8,-12 -10,-16 -1,-1 -3,-3 -4,-5z"/>
    <path class="fil7" d="M1157 182c11,-5 11,16 1,20 -12,4 -13,-16 -1,-20zm-6 30c3,-2 7,-7 9,-10 1,0 1,-1 1,-1l6 -6c0,-1 0,-1 0,-1l6 -6c2,-2 1,-1 2,-4 1,-8 -9,-14 -18,-9 -2,1 -4,3 -6,3l4 -21c-3,-1 -7,-2 -10,-2 -2,9 -4,23 -6,33 0,5 -2,10 1,16 1,4 5,8 11,8z"/>
    <path class="fil6" d="M1275 322c1,-9 -4,-27 7,-27 10,-1 4,15 6,27l10 0c1,-5 1,-28 -1,-31 -2,-4 -6,-6 -11,-6 -6,1 -9,5 -11,6l0 -5 -10 0 0 36 10 0z"/>
    <path class="fil6" d="M1234 240c-1,-11 16,-13 14,0l-14 0zm22 13c-2,0 -20,8 -22,-7l24 0c2,-5 0,-11 -1,-15 -3,-3 -6,-5 -11,-6 -10,-2 -19,3 -22,11 -5,16 6,28 24,26 8,-1 7,-2 8,-9z"/>
    <path class="fil6" d="M1435 301c0,-5 2,-9 7,-9 6,0 7,4 7,9l-14 0zm24 5c4,-26 -27,-25 -33,-11 -4,10 -1,20 5,24 8,6 15,4 25,2l1 -8c-4,2 -9,4 -14,3 -4,-1 -7,-4 -8,-9 3,0 22,1 24,-1z"/>
    <path class="fil6" d="M1235 301c1,-11 14,-13 15,0l-15 0zm22 12c-4,1 -8,4 -14,3 -4,-1 -7,-4 -7,-9l24 0c1,-4 0,-11 -2,-14 -6,-11 -26,-10 -32,2 -2,4 -2,9 -1,14 3,17 27,16 31,12 1,-1 1,-6 1,-8z"/>
    <path class="fil6" d="M1420 288c-9,-4 -24,-4 -26,6 -4,14 17,13 17,19 -2,6 -12,1 -16,0l-2 7c7,6 25,4 27,-5 3,-11 -6,-14 -13,-16 -3,-1 -5,-1 -4,-4 4,-5 11,-1 15,0l2 -7z"/>
    <path class="fil6" d="M1293 253c-21,8 -21,-14 -14,-19 4,-4 8,-2 13,-1l2 -7c-17,-4 -32,2 -30,20 0,8 5,13 11,15 4,1 12,1 16,0 1,0 1,0 2,-8z"/>
    <path class="fil6" d="M1333 287c-15,-5 -30,1 -30,17 -1,16 12,22 28,18l1 -8c-6,2 -17,5 -18,-9 -1,-16 14,-12 17,-12l2 -6z"/>
    <path class="fil5" d="M1175 184l2 1c1,-4 14,-16 16,-20l-3 -1c-4,-1 -32,-7 -35,-7l-4 21c2,0 4,-2 6,-3 9,-5 19,1 18,9z"/>
    <path class="fil6" d="M1486 295c0,-3 2,-7 2,-9 -6,-2 -10,2 -13,5l0 -5 -11 0 0 36 11 0c2,-11 -6,-29 11,-27z"/>
    <path class="fil7" d="M1111 199c1,2 1,3 2,6 0,2 1,4 1,7l5 -1c1,0 3,-16 4,-19 1,-8 5,-10 14,-10l1 -9c-6,-1 -11,3 -13,6l1 -5c-12,0 -10,-3 -12,8 -1,4 -2,13 -3,17z"/>
    <polygon class="fil6" points="1348,225 1337,226 1337,261 1348,261 "/>
    <polygon class="fil6" points="1377,322 1387,322 1387,286 1377,286 "/>
    <path class="fil5" d="M1157 182c-12,4 -11,24 1,20 10,-4 10,-25 -1,-20z"/>
    <path class="fil6" d="M1337 215c9,5 9,6 11,7l0 -12 -11 5z"/>
    <path class="fil6" d="M1376 276c2,1 4,2 6,3 1,1 2,1 3,2 1,1 1,1 2,2l0 -12 -11 5z"/>
   </g>
   <g>
    <path class="fil5" d="M1111 199c1,-4 2,-13 3,-17 2,-11 0,-8 12,-8l-1 5c2,-3 7,-7 13,-6l-1 9c-9,0 -13,2 -14,10 -1,3 -3,19 -4,19l-5 1c0,0 1,15 1,22 -1,8 -2,15 -3,22 2,-2 5,-6 7,-8l30 -33c1,-1 2,-2 2,-3 -6,0 -10,-4 -11,-8 -3,-6 -1,-11 -1,-16 2,-10 4,-24 6,-33 -1,-1 2,0 -2,-1 -1,-1 -2,-1 -3,-1l-78 -17 -1 0c4,2 15,12 19,16 6,5 6,4 11,11 7,7 12,16 16,26 1,2 3,8 4,10z"/>
    <path class="fil6" d="M1353 226l0 6 6 0c1,7 -1,17 1,24 2,9 16,7 17,5l1 -3c0,-1 0,-2 0,-3 -6,0 -8,0 -8,-7 0,-4 -1,-13 0,-16l15 0c0,7 -1,19 1,24 1,3 3,5 6,6 12,2 12,-2 12,-7 -1,0 1,-1 -1,0 -6,0 -7,-2 -8,-8 0,-4 0,-11 1,-15 9,0 8,2 9,-7l-9 0 -1 -15 -10 4 0 11 -15 0 0 -15 -11 4 0 11 -6 1z"/>
    <path class="fil6" d="M1197 315l0 -15c6,0 12,0 12,7 0,7 -6,8 -12,8zm0 -35c6,0 11,0 11,7 -1,6 -6,6 -11,6l0 -13zm14 16c3,-2 6,-4 7,-9 4,-18 -22,-15 -33,-15l0 50c10,0 41,4 35,-18 -2,-7 -7,-7 -9,-8z"/>
    <path class="fil6" d="M1197 219c6,0 12,0 13,6 1,7 -4,10 -10,10l-1 0 -2 0 0 -16zm13 22c1,-2 4,-3 6,-4 6,-4 7,-15 2,-20 -6,-7 -26,-6 -33,-5l0 49 12 0 0 -20c2,1 13,18 14,20l13 0c-1,-2 -5,-8 -7,-10 -3,-3 -5,-7 -7,-10z"/>
    <path class="fil6" d="M1333 226c-3,-1 -6,-1 -10,-1 -4,0 -3,2 -5,4 -3,3 -6,8 -9,10l0 -22c0,-6 1,-6 -1,-7l-10 4 1 47 10 0c0,-3 0,-5 0,-8 0,-3 1,-4 3,-5 2,1 8,11 9,13l12 0c-1,-2 -11,-17 -14,-21 2,-3 5,-5 7,-7 2,-2 5,-6 7,-7z"/>
    <path class="fil6" d="M1358 301c2,-3 11,-11 13,-15l-12 0c-1,2 -10,13 -11,13l0 -28 -11 5 0 46 11 0c0,-10 -1,-9 3,-14 1,2 3,5 5,8l3 5c2,1 0,0 2,1l11 0c-1,-3 -8,-12 -10,-16 -1,-1 -3,-3 -4,-5z"/>
    <path class="fil7" d="M1157 182c11,-5 11,16 1,20 -12,4 -13,-16 -1,-20zm-6 30c3,-2 7,-7 9,-10 1,0 1,-1 1,-1l6 -6c0,-1 0,-1 0,-1l6 -6c2,-2 1,-1 2,-4 1,-8 -9,-14 -18,-9 -2,1 -4,3 -6,3l4 -21c-3,-1 -7,-2 -10,-2 -2,9 -4,23 -6,33 0,5 -2,10 1,16 1,4 5,8 11,8z"/>
    <path class="fil6" d="M1275 322c1,-9 -4,-27 7,-27 10,-1 4,15 6,27l10 0c1,-5 1,-28 -1,-31 -2,-4 -6,-6 -11,-6 -6,1 -9,5 -11,6l0 -5 -10 0 0 36 10 0z"/>
    <path class="fil6" d="M1234 240c-1,-11 16,-13 14,0l-14 0zm22 13c-2,0 -20,8 -22,-7l24 0c2,-5 0,-11 -1,-15 -3,-3 -6,-5 -11,-6 -10,-2 -19,3 -22,11 -5,16 6,28 24,26 8,-1 7,-2 8,-9z"/>
    <path class="fil6" d="M1435 301c0,-5 2,-9 7,-9 6,0 7,4 7,9l-14 0zm24 5c4,-26 -27,-25 -33,-11 -4,10 -1,20 5,24 8,6 15,4 25,2l1 -8c-4,2 -9,4 -14,3 -4,-1 -7,-4 -8,-9 3,0 22,1 24,-1z"/>
    <path class="fil6" d="M1235 301c1,-11 14,-13 15,0l-15 0zm22 12c-4,1 -8,4 -14,3 -4,-1 -7,-4 -7,-9l24 0c1,-4 0,-11 -2,-14 -6,-11 -26,-10 -32,2 -2,4 -2,9 -1,14 3,17 27,16 31,12 1,-1 1,-6 1,-8z"/>
    <path class="fil6" d="M1420 288c-9,-4 -24,-4 -26,6 -4,14 17,13 17,19 -2,6 -12,1 -16,0l-2 7c7,6 25,4 27,-5 3,-11 -6,-14 -13,-16 -3,-1 -5,-1 -4,-4 4,-5 11,-1 15,0l2 -7z"/>
    <path class="fil6" d="M1293 253c-21,8 -21,-14 -14,-19 4,-4 8,-2 13,-1l2 -7c-17,-4 -32,2 -30,20 0,8 5,13 11,15 4,1 12,1 16,0 1,0 1,0 2,-8z"/>
    <path class="fil6" d="M1333 287c-15,-5 -30,1 -30,17 -1,16 12,22 28,18l1 -8c-6,2 -17,5 -18,-9 -1,-16 14,-12 17,-12l2 -6z"/>
    <path class="fil5" d="M1175 184l2 1c1,-4 14,-16 16,-20l-3 -1c-4,-1 -32,-7 -35,-7l-4 21c2,0 4,-2 6,-3 9,-5 19,1 18,9z"/>
    <path class="fil6" d="M1486 295c0,-3 2,-7 2,-9 -6,-2 -10,2 -13,5l0 -5 -11 0 0 36 11 0c2,-11 -6,-29 11,-27z"/>
    <path class="fil7" d="M1111 199c1,2 1,3 2,6 0,2 1,4 1,7l5 -1c1,0 3,-16 4,-19 1,-8 5,-10 14,-10l1 -9c-6,-1 -11,3 -13,6l1 -5c-12,0 -10,-3 -12,8 -1,4 -2,13 -3,17z"/>
    <polygon class="fil6" points="1348,225 1337,226 1337,261 1348,261 "/>
    <polygon class="fil6" points="1377,322 1387,322 1387,286 1377,286 "/>
    <path class="fil5" d="M1157 182c-12,4 -11,24 1,20 10,-4 10,-25 -1,-20z"/>
    <path class="fil6" d="M1337 215c9,5 9,6 11,7l0 -12 -11 5z"/>
    <path class="fil6" d="M1376 276c2,1 4,2 6,3 1,1 2,1 3,2 1,1 1,1 2,2l0 -12 -11 5z"/>
   </g>
   <g>
    <path class="fil8" d="M1845 209c-2,-2 -6,-3 -9,-3 -3,0 -7,1 -9,3l0 -23 -12 0 0 75 12 0 0 -39c0,-3 2,-6 6,-6 2,0 5,1 6,3 1,2 1,5 1,8l0 34 12 0 0 -35c0,-10 -2,-14 -7,-17z"/>
    <path class="fil8" d="M1764 225c-1,-16 -10,-19 -18,-19 -10,0 -17,7 -18,19 0,1 0,3 0,9 0,4 0,8 0,9 1,12 8,19 18,19 11,0 17,-7 18,-19 0,-1 1,-5 1,-9 0,-2 -1,-7 -1,-9zm-11 9c0,7 0,9 0,10 0,4 -2,8 -7,8 -5,0 -6,-4 -7,-8 0,0 0,-3 0,-10 0,-7 0,-10 0,-10 0,-4 3,-8 7,-8 5,0 7,4 7,8 0,0 0,3 0,10z"/>
    <path class="fil8" d="M1884 242c0,0 0,1 0,2 0,3 -1,8 -7,8 -4,0 -6,-4 -6,-8 -1,-1 -1,-3 -1,-7l25 0c0,0 0,-4 0,-6 0,-1 0,-3 0,-6 0,-4 -2,-10 -5,-13 -3,-4 -7,-6 -13,-6 -10,0 -16,7 -17,19 -1,1 -1,3 -1,9 0,4 1,8 1,9 0,11 7,19 17,19 11,0 17,-7 18,-20l-11 0zm-14 -15c0,-2 0,-3 0,-3 1,-5 3,-8 7,-8 6,-1 7,5 7,8 0,1 0,2 0,3l-14 0z"/>
    <path class="fil8" d="M1880 139l-192 0 -78 91 78 90 192 0 78 -90 -78 -91zm-188 9l184 0 70 82 -70 81 -184 0 -70 -81 70 -82z"/>
    <path class="fil8" d="M1721 256c0,0 -1,-18 -1,-18 -1,-8 -3,-13 -7,-16 3,-1 7,-6 7,-15 0,-15 -9,-20 -20,-20l-17 0 0 74 11 0 0 -34 7 0c3,0 7,3 8,12l1 17c0,3 1,5 1,5l11 0c0,0 -1,-2 -1,-5zm-27 -60l6 0c6,0 9,3 9,9 0,0 0,1 0,2 0,1 0,1 0,1 -1,4 -2,9 -9,9l-6 0 0 -21z"/>
    <path class="fil8" d="M1797 242c0,1 0,1 0,2 0,4 -2,8 -7,8 -4,0 -6,-4 -7,-8 0,-2 0,-4 0,-10 0,-7 0,-9 0,-10 1,-5 3,-8 7,-8 5,-1 7,4 7,8 0,0 0,1 0,3l11 0c0,-1 0,-1 0,-2 -1,-15 -10,-19 -18,-19 -10,0 -17,7 -18,19 0,1 0,3 0,9 0,4 0,8 0,9 1,12 8,19 18,19 11,0 17,-7 18,-19 0,-1 0,-1 0,-1l-11 0z"/>
   </g>
   <g>
    <path class="fil8" d="M1845 209c-2,-2 -6,-3 -9,-3 -3,0 -7,1 -9,3l0 -23 -12 0 0 75 12 0 0 -39c0,-3 2,-6 6,-6 2,0 5,1 6,3 1,2 1,5 1,8l0 34 12 0 0 -35c0,-10 -2,-14 -7,-17z"/>
    <path class="fil8" d="M1764 225c-1,-16 -10,-19 -18,-19 -10,0 -17,7 -18,19 0,1 0,3 0,9 0,4 0,8 0,9 1,12 8,19 18,19 11,0 17,-7 18,-19 0,-1 1,-5 1,-9 0,-2 -1,-7 -1,-9zm-11 9c0,7 0,9 0,10 0,4 -2,8 -7,8 -5,0 -6,-4 -7,-8 0,0 0,-3 0,-10 0,-7 0,-10 0,-10 0,-4 3,-8 7,-8 5,0 7,4 7,8 0,0 0,3 0,10z"/>
    <path class="fil8" d="M1884 242c0,0 0,1 0,2 0,3 -1,8 -7,8 -4,0 -6,-4 -6,-8 -1,-1 -1,-3 -1,-7l25 0c0,0 0,-4 0,-6 0,-1 0,-3 0,-6 0,-4 -2,-10 -5,-13 -3,-4 -7,-6 -13,-6 -10,0 -16,7 -17,19 -1,1 -1,3 -1,9 0,4 1,8 1,9 0,11 7,19 17,19 11,0 17,-7 18,-20l-11 0zm-14 -15c0,-2 0,-3 0,-3 1,-5 3,-8 7,-8 6,-1 7,5 7,8 0,1 0,2 0,3l-14 0z"/>
    <path class="fil8" d="M1880 139l-192 0 -78 91 78 90 192 0 78 -90 -78 -91zm-188 9l184 0 70 82 -70 81 -184 0 -70 -81 70 -82z"/>
    <path class="fil8" d="M1721 256c0,0 -1,-18 -1,-18 -1,-8 -3,-13 -7,-16 3,-1 7,-6 7,-15 0,-15 -9,-20 -20,-20l-17 0 0 74 11 0 0 -34 7 0c3,0 7,3 8,12l1 17c0,3 1,5 1,5l11 0c0,0 -1,-2 -1,-5zm-27 -60l6 0c6,0 9,3 9,9 0,0 0,1 0,2 0,1 0,1 0,1 -1,4 -2,9 -9,9l-6 0 0 -21z"/>
    <path class="fil8" d="M1797 242c0,1 0,1 0,2 0,4 -2,8 -7,8 -4,0 -6,-4 -7,-8 0,-2 0,-4 0,-10 0,-7 0,-9 0,-10 1,-5 3,-8 7,-8 5,-1 7,4 7,8 0,0 0,1 0,3l11 0c0,-1 0,-1 0,-2 -1,-15 -10,-19 -18,-19 -10,0 -17,7 -18,19 0,1 0,3 0,9 0,4 0,8 0,9 1,12 8,19 18,19 11,0 17,-7 18,-19 0,-1 0,-1 0,-1l-11 0z"/>
   </g>
   <g>
    <polygon class="fil9" points="877,778 883,778 883,732 877,732 "/>
    <path class="fil9" d="M804 732l3 0 2 0c26,7 24,43 -3,47l-4 0c-27,-4 -29,-40 -3,-47l3 0 2 0zm0 6l-3 1 -4 1c-14,6 -12,29 4,32l3 0 3 0c17,-3 18,-27 4,-32l-4 -1 -3 -1z"/>
    <path class="fil9" d="M663 738l-1 0 -2 0 -1 1 -1 1 -1 1 -1 1 0 1 0 2 0 1 1 1 1 1 1 1 3 1 9 4 2 1 1 1 2 2 1 2c6,18 -20,26 -28,11l-1 -3 0 -3 6 0 0 2 1 2 1 1 1 1 1 1 2 0 1 1 4 0 1 -1 2 0 1 -1c3,-4 4,-8 -1,-11l-3 -2 -3 -1 -4 -1 -3 -2 -3 -1 -1 -2 -1 -3 -1 -3 1 -3 0 -2 2 -2 1 -2 2 -2c6,-4 14,-3 19,3l2 2 1 3 0 2 -7 0 0 -1c0,-3 -3,-5 -5,-5l-2 0z"/>
    <polygon class="fil9" points="843,732 865,732 865,739 845,739 845,753 865,753 865,760 845,760 845,778 839,778 839,737 839,735 840,734 841,733 "/>
    <polygon class="fil9" points="741,743 741,778 734,778 734,737 735,735 736,733 737,732 739,732 740,732 741,733 742,733 743,734 763,768 763,732 770,732 770,774 769,776 769,777 767,778 765,779 764,779 763,778 762,778 761,777 "/>
    <path class="fil9" d="M695 765l-4 13 -8 0 17 -43 0 -1 1 -1 2 -1 1 0 1 0 2 1 1 1 0 1 17 43 -7 0 -5 -13 -18 0zm9 -24l-7 18 14 0 -7 -18z"/>
    <path class="fil10" d="M822 632l-3 -4 -2 -2 -2 -2c-9,-7 -20,-6 -30,-2l-8 2 -4 1c-11,2 -22,1 -27,-11l0 -3 -1 -3 1 -2 1 -4c3,-7 13,-11 21,-11l1 0c3,0 5,1 7,1l5 1 4 2c14,4 24,13 32,25l2 4 3 8z"/>
    <path class="fil9" d="M823 634l1 4 1 4c2,19 -5,40 -21,53l-5 4 -5 2c-17,10 -40,10 -57,0l-4 -3 -4 -3 3 1 3 1c16,2 29,-2 39,-16l3 -6 3 -5c8,-17 13,-35 34,-37l4 0 5 1z"/>
    <path class="fil11" d="M745 690l-3 2c-24,6 -36,-27 -34,-46l0 -3 2 3 3 3c11,11 21,10 34,17l1 2 1 1c5,6 4,14 -1,19l-2 1 -1 1z"/>
   </g>
   <g>
    <polygon class="fil9" points="877,778 883,778 883,732 877,732 "/>
    <path class="fil9" d="M804 732l3 0 2 0c26,7 24,43 -3,47l-4 0c-27,-4 -29,-40 -3,-47l3 0 2 0zm0 6l-3 1 -4 1c-14,6 -12,29 4,32l3 0 3 0c17,-3 18,-27 4,-32l-4 -1 -3 -1z"/>
    <path class="fil9" d="M663 738l-1 0 -2 0 -1 1 -1 1 -1 1 -1 1 0 1 0 2 0 1 1 1 1 1 1 1 3 1 9 4 2 1 1 1 2 2 1 2c6,18 -20,26 -28,11l-1 -3 0 -3 6 0 0 2 1 2 1 1 1 1 1 1 2 0 1 1 4 0 1 -1 2 0 1 -1c3,-4 4,-8 -1,-11l-3 -2 -3 -1 -4 -1 -3 -2 -3 -1 -1 -2 -1 -3 -1 -3 1 -3 0 -2 2 -2 1 -2 2 -2c6,-4 14,-3 19,3l2 2 1 3 0 2 -7 0 0 -1c0,-3 -3,-5 -5,-5l-2 0z"/>
    <polygon class="fil9" points="843,732 865,732 865,739 845,739 845,753 865,753 865,760 845,760 845,778 839,778 839,737 839,735 840,734 841,733 "/>
    <polygon class="fil9" points="741,743 741,778 734,778 734,737 735,735 736,733 737,732 739,732 740,732 741,733 742,733 743,734 763,768 763,732 770,732 770,774 769,776 769,777 767,778 765,779 764,779 763,778 762,778 761,777 "/>
    <path class="fil9" d="M695 765l-4 13 -8 0 17 -43 0 -1 1 -1 2 -1 1 0 1 0 2 1 1 1 0 1 17 43 -7 0 -5 -13 -18 0zm9 -24l-7 18 14 0 -7 -18z"/>
    <path class="fil10" d="M822 632l-3 -4 -2 -2 -2 -2c-9,-7 -20,-6 -30,-2l-8 2 -4 1c-11,2 -22,1 -27,-11l0 -3 -1 -3 1 -2 1 -4c3,-7 13,-11 21,-11l1 0c3,0 5,1 7,1l5 1 4 2c14,4 24,13 32,25l2 4 3 8z"/>
    <path class="fil9" d="M823 634l1 4 1 4c2,19 -5,40 -21,53l-5 4 -5 2c-17,10 -40,10 -57,0l-4 -3 -4 -3 3 1 3 1c16,2 29,-2 39,-16l3 -6 3 -5c8,-17 13,-35 34,-37l4 0 5 1z"/>
    <path class="fil11" d="M745 690l-3 2c-24,6 -36,-27 -34,-46l0 -3 2 3 3 3c11,11 21,10 34,17l1 2 1 1c5,6 4,14 -1,19l-2 1 -1 1z"/>
   </g>
   <g>
    <path class="fil12" d="M1281 755c-21,0 -61,-2 -77,-11l7 -10c3,-3 4,-8 7,-10l165 0c-1,0 -1,0 -1,0l-1 2c-1,1 -2,1 -3,2 -2,1 -3,2 -5,3 -9,6 -23,12 -35,15 -17,5 -37,9 -57,9zm-115 -31l21 0c-1,3 -5,6 -8,9 -3,-1 -10,-6 -13,-9zm-12 -11l41 -1c-2,5 -2,5 -7,5l-26 0 -4 0 -4 -4zm246 -8l-175 0c4,-16 19,-50 28,-63 5,-8 20,-27 30,-27 46,-1 146,29 117,90zm-201 0l-49 0c-8,-8 -8,-27 -2,-37 5,-12 14,-19 23,-26 17,-12 48,-23 74,-25l-4 5c-5,4 -8,8 -11,14 -13,19 -22,47 -31,69zm14 7l182 0 -4 5 -180 0c-2,2 -6,10 -8,13 -2,4 -6,8 -10,10 -2,-1 -4,-1 -6,-3 1,-3 6,-7 11,-15 16,-25 22,-62 40,-87 5,-6 12,-15 19,-19 2,-1 7,-1 11,-1 -4,5 -8,4 -19,19 -11,16 -18,33 -25,51 -3,7 -10,21 -11,27zm-78 -20c3,26 31,47 54,56 28,11 58,18 93,16 33,-1 62,-8 88,-21 19,-10 49,-33 44,-65 -4,-27 -31,-45 -54,-56 -51,-23 -132,-22 -181,5 -6,3 -12,7 -17,11l-14 13c-8,10 -15,23 -13,41z"/>
    <path class="fil13" d="M1350 662l7 0 0 35 -7 0 0 -35zm16 35l-6 0 13 -35c7,0 7,-1 9,5l11 30 -7 0 -3 -8 -13 0 -4 8zm-120 -14c-3,-27 30,-28 33,-7 4,26 -31,29 -33,7zm75 14l-5 0 0 -35c10,0 6,0 7,14l13 0 0 -14 7 0 0 35 -7 0 0 -15 -13 0 0 12c-1,3 0,2 -2,3zm-30 -13l0 13 -6 0 -1 -35c10,0 24,-2 26,8 3,13 -8,14 -19,14zm109 21c29,-61 -71,-91 -117,-90 -10,0 -25,19 -30,27 -9,13 -24,47 -28,63l175 0z"/>
    <path class="fil13" d="M1199 705c9,-22 18,-50 31,-69 3,-6 6,-10 11,-14l4 -5c-26,2 -57,13 -74,25 -9,7 -18,14 -23,26 -6,10 -6,29 2,37l49 0z"/>
    <path class="fil13" d="M1281 755c20,0 40,-4 57,-9 12,-3 26,-9 35,-15 2,-1 3,-2 5,-3 1,-1 2,-1 3,-2l1 -2c0,0 0,0 1,0l-165 0c-3,2 -4,7 -7,10l-7 10c16,9 56,11 77,11z"/>
    <path class="fil13" d="M1213 712c1,-6 8,-20 11,-27 7,-18 14,-35 25,-51 11,-15 15,-14 19,-19 -4,0 -9,0 -11,1 -7,4 -14,13 -19,19 -18,25 -24,62 -40,87 -5,8 -10,12 -11,15 2,2 4,2 6,3 4,-2 8,-6 10,-10 2,-3 6,-11 8,-13l180 0 4 -5 -182 0z"/>
    <path class="fil12" d="M1253 682c-2,-19 18,-19 19,-4 1,17 -17,18 -19,4zm-7 1c2,22 37,19 33,-7 -3,-21 -36,-20 -33,7z"/>
    <path class="fil12" d="M1321 697c2,-1 1,0 2,-3l0 -12 13 0 0 15 7 0 0 -35 -7 0 0 14 -13 0c-1,-14 3,-14 -7,-14l0 35 5 0z"/>
    <path class="fil12" d="M1372 683c1,-3 3,-9 4,-12l5 12 -4 0 -1 0 -4 0zm-2 6l13 0 3 8 7 0 -11 -30c-2,-6 -2,-5 -9,-5l-13 35 6 0 4 -8z"/>
    <path class="fil12" d="M1291 668c6,0 9,-1 12,4 0,7 -5,6 -12,6l0 -1 0 -9zm0 16c11,0 22,-1 19,-14 -2,-10 -16,-8 -26,-8l1 35 6 0 0 -13z"/>
    <path class="fil13" d="M1253 682c2,14 20,13 19,-4 -1,-15 -21,-15 -19,4z"/>
    <polygon class="fil12" points="1350,697 1357,697 1357,662 1350,662 "/>
    <path class="fil13" d="M1158 717l4 0 26 0c5,0 5,0 7,-5l-41 1 4 4z"/>
    <path class="fil13" d="M1166 724c3,3 10,8 13,9 3,-3 7,-6 8,-9l-21 0z"/>
    <path class="fil13" d="M1291 677l0 1c7,0 12,1 12,-6 -3,-5 -6,-4 -12,-4l0 9z"/>
    <path class="fil13" d="M1372 683l4 0 1 0 4 0 -5 -12c-1,3 -3,9 -4,12z"/>
   </g>
   <g>
    <path class="fil12" d="M1281 755c-21,0 -61,-2 -77,-11l7 -10c3,-3 4,-8 7,-10l165 0c-1,0 -1,0 -1,0l-1 2c-1,1 -2,1 -3,2 -2,1 -3,2 -5,3 -9,6 -23,12 -35,15 -17,5 -37,9 -57,9zm-115 -31l21 0c-1,3 -5,6 -8,9 -3,-1 -10,-6 -13,-9zm-12 -11l41 -1c-2,5 -2,5 -7,5l-26 0 -4 0 -4 -4zm246 -8l-175 0c4,-16 19,-50 28,-63 5,-8 20,-27 30,-27 46,-1 146,29 117,90zm-201 0l-49 0c-8,-8 -8,-27 -2,-37 5,-12 14,-19 23,-26 17,-12 48,-23 74,-25l-4 5c-5,4 -8,8 -11,14 -13,19 -22,47 -31,69zm14 7l182 0 -4 5 -180 0c-2,2 -6,10 -8,13 -2,4 -6,8 -10,10 -2,-1 -4,-1 -6,-3 1,-3 6,-7 11,-15 16,-25 22,-62 40,-87 5,-6 12,-15 19,-19 2,-1 7,-1 11,-1 -4,5 -8,4 -19,19 -11,16 -18,33 -25,51 -3,7 -10,21 -11,27zm-78 -20c3,26 31,47 54,56 28,11 58,18 93,16 33,-1 62,-8 88,-21 19,-10 49,-33 44,-65 -4,-27 -31,-45 -54,-56 -51,-23 -132,-22 -181,5 -6,3 -12,7 -17,11l-14 13c-8,10 -15,23 -13,41z"/>
    <path class="fil13" d="M1350 662l7 0 0 35 -7 0 0 -35zm16 35l-6 0 13 -35c7,0 7,-1 9,5l11 30 -7 0 -3 -8 -13 0 -4 8zm-120 -14c-3,-27 30,-28 33,-7 4,26 -31,29 -33,7zm75 14l-5 0 0 -35c10,0 6,0 7,14l13 0 0 -14 7 0 0 35 -7 0 0 -15 -13 0 0 12c-1,3 0,2 -2,3zm-30 -13l0 13 -6 0 -1 -35c10,0 24,-2 26,8 3,13 -8,14 -19,14zm109 21c29,-61 -71,-91 -117,-90 -10,0 -25,19 -30,27 -9,13 -24,47 -28,63l175 0z"/>
    <path class="fil13" d="M1199 705c9,-22 18,-50 31,-69 3,-6 6,-10 11,-14l4 -5c-26,2 -57,13 -74,25 -9,7 -18,14 -23,26 -6,10 -6,29 2,37l49 0z"/>
    <path class="fil13" d="M1281 755c20,0 40,-4 57,-9 12,-3 26,-9 35,-15 2,-1 3,-2 5,-3 1,-1 2,-1 3,-2l1 -2c0,0 0,0 1,0l-165 0c-3,2 -4,7 -7,10l-7 10c16,9 56,11 77,11z"/>
    <path class="fil13" d="M1213 712c1,-6 8,-20 11,-27 7,-18 14,-35 25,-51 11,-15 15,-14 19,-19 -4,0 -9,0 -11,1 -7,4 -14,13 -19,19 -18,25 -24,62 -40,87 -5,8 -10,12 -11,15 2,2 4,2 6,3 4,-2 8,-6 10,-10 2,-3 6,-11 8,-13l180 0 4 -5 -182 0z"/>
    <path class="fil12" d="M1253 682c-2,-19 18,-19 19,-4 1,17 -17,18 -19,4zm-7 1c2,22 37,19 33,-7 -3,-21 -36,-20 -33,7z"/>
    <path class="fil12" d="M1321 697c2,-1 1,0 2,-3l0 -12 13 0 0 15 7 0 0 -35 -7 0 0 14 -13 0c-1,-14 3,-14 -7,-14l0 35 5 0z"/>
    <path class="fil12" d="M1372 683c1,-3 3,-9 4,-12l5 12 -4 0 -1 0 -4 0zm-2 6l13 0 3 8 7 0 -11 -30c-2,-6 -2,-5 -9,-5l-13 35 6 0 4 -8z"/>
    <path class="fil12" d="M1291 668c6,0 9,-1 12,4 0,7 -5,6 -12,6l0 -1 0 -9zm0 16c11,0 22,-1 19,-14 -2,-10 -16,-8 -26,-8l1 35 6 0 0 -13z"/>
    <path class="fil13" d="M1253 682c2,14 20,13 19,-4 -1,-15 -21,-15 -19,4z"/>
    <polygon class="fil12" points="1350,697 1357,697 1357,662 1350,662 "/>
    <path class="fil13" d="M1158 717l4 0 26 0c5,0 5,0 7,-5l-41 1 4 4z"/>
    <path class="fil13" d="M1166 724c3,3 10,8 13,9 3,-3 7,-6 8,-9l-21 0z"/>
    <path class="fil13" d="M1291 677l0 1c7,0 12,1 12,-6 -3,-5 -6,-4 -12,-4l0 9z"/>
    <path class="fil13" d="M1372 683l4 0 1 0 4 0 -5 -12c-1,3 -3,9 -4,12z"/>
   </g>
   <path class="fil14" d="M1610 651c3,0 7,-2 10,-2 71,-18 185,-20 256,-12 14,1 28,3 42,5 11,2 19,4 30,7 3,1 6,2 9,2 -2,-2 -12,-7 -16,-8 -6,-3 -13,-5 -19,-7 -13,-4 -29,-7 -42,-9 -70,-11 -166,-11 -234,9 -8,2 -31,10 -36,15zm346 69c-1,-1 -7,1 -9,2 -74,18 -181,19 -255,11 -23,-2 -50,-6 -72,-12 -3,0 -7,-2 -10,-2 2,2 13,7 17,9 18,7 41,12 61,15 59,10 131,9 190,1 21,-4 62,-12 78,-24zm-301 -30l-2 0 -4 14c4,3 7,6 14,8 20,4 37,-17 24,-29 -6,-7 -24,-11 -18,-22 2,-3 9,-7 15,-5 6,3 7,8 6,15l3 0 4 -16c-5,2 -4,1 -8,0 -15,-6 -33,2 -32,16 0,6 5,9 9,12 4,2 10,6 13,8 4,5 0,12 -3,15 -4,3 -12,3 -16,0 -6,-4 -5,-8 -5,-16zm147 -16c3,0 4,0 5,1 1,4 -3,14 -4,18 -1,6 -3,12 -4,18 13,0 10,2 12,-6l5 -20c2,-4 3,-8 6,-10 3,-1 10,-2 8,6 -1,6 -7,22 -4,27 3,7 17,5 18,-6l-2 0c-1,1 -1,2 -2,4 -1,1 -6,4 -4,-6 2,-6 6,-20 5,-24 -1,-5 -6,-7 -12,-7 -6,1 -8,4 -12,7 1,-2 1,-4 0,-7 -4,1 -6,2 -12,3 -3,0 -2,0 -3,2zm-23 9c-1,6 -4,16 -7,21 -4,8 -13,8 -11,-5 1,-8 4,-15 7,-21 5,-10 14,-8 11,5zm-4 22c2,12 17,8 19,-2l-2 -1c-1,3 -2,6 -6,5 -3,-2 2,-14 3,-18 2,-6 4,-13 5,-19 -2,-1 -8,0 -10,0l-2 6c-2,-5 -2,-7 -8,-7 -19,0 -31,32 -18,41 3,2 8,3 11,2 4,-1 5,-3 7,-6l1 -1zm85 -13c2,-5 3,-9 5,-13 1,-3 7,-11 10,-6 4,5 -2,20 -15,19zm23 6l-4 0c-5,14 -21,14 -20,0 1,-4 1,-2 10,-4 23,-6 20,-27 2,-24 -16,2 -25,21 -22,33 4,11 19,12 28,4 2,-1 5,-6 6,-9zm-151 -41c7,0 5,2 1,20 -2,7 -3,13 -5,19 -2,7 -3,14 5,16 7,2 12,-4 13,-10l-2 0c-2,2 -2,6 -6,5 -2,-3 1,-10 2,-13l6 -28c2,-4 3,-10 4,-14 -5,1 -9,2 -15,3 -3,0 -3,-1 -3,2zm160 40c-4,0 -3,0 -3,4 -1,2 -1,3 -2,5 3,2 5,5 10,6 17,3 28,-11 21,-20 -1,-2 -5,-5 -8,-7 -2,-1 -8,-3 -7,-7 0,-4 5,-6 9,-5 5,1 6,4 6,9l2 0c1,-2 3,-9 3,-11 -6,2 -6,-1 -12,-2 -8,0 -18,4 -18,12 0,9 11,11 15,15 6,6 -3,17 -12,12 -4,-3 -4,-6 -4,-11zm-190 -25l-1 2c3,0 4,0 5,1 1,4 -7,22 -6,30 0,11 18,9 19,-3l-3 0c0,2 -2,7 -5,5 -3,-3 7,-31 8,-38 -2,0 -6,1 -8,2 -3,0 -7,0 -9,1zm13 -20c-8,4 -5,14 3,12 7,-3 5,-15 -3,-12z"/>
   <path class="fil14" d="M1610 651c3,0 7,-2 10,-2 71,-18 185,-20 256,-12 14,1 28,3 42,5 11,2 19,4 30,7 3,1 6,2 9,2 -2,-2 -12,-7 -16,-8 -6,-3 -13,-5 -19,-7 -13,-4 -29,-7 -42,-9 -70,-11 -166,-11 -234,9 -8,2 -31,10 -36,15zm346 69c-1,-1 -7,1 -9,2 -74,18 -181,19 -255,11 -23,-2 -50,-6 -72,-12 -3,0 -7,-2 -10,-2 2,2 13,7 17,9 18,7 41,12 61,15 59,10 131,9 190,1 21,-4 62,-12 78,-24zm-301 -30l-2 0 -4 14c4,3 7,6 14,8 20,4 37,-17 24,-29 -6,-7 -24,-11 -18,-22 2,-3 9,-7 15,-5 6,3 7,8 6,15l3 0 4 -16c-5,2 -4,1 -8,0 -15,-6 -33,2 -32,16 0,6 5,9 9,12 4,2 10,6 13,8 4,5 0,12 -3,15 -4,3 -12,3 -16,0 -6,-4 -5,-8 -5,-16zm147 -16c3,0 4,0 5,1 1,4 -3,14 -4,18 -1,6 -3,12 -4,18 13,0 10,2 12,-6l5 -20c2,-4 3,-8 6,-10 3,-1 10,-2 8,6 -1,6 -7,22 -4,27 3,7 17,5 18,-6l-2 0c-1,1 -1,2 -2,4 -1,1 -6,4 -4,-6 2,-6 6,-20 5,-24 -1,-5 -6,-7 -12,-7 -6,1 -8,4 -12,7 1,-2 1,-4 0,-7 -4,1 -6,2 -12,3 -3,0 -2,0 -3,2zm-23 9c-1,6 -4,16 -7,21 -4,8 -13,8 -11,-5 1,-8 4,-15 7,-21 5,-10 14,-8 11,5zm-4 22c2,12 17,8 19,-2l-2 -1c-1,3 -2,6 -6,5 -3,-2 2,-14 3,-18 2,-6 4,-13 5,-19 -2,-1 -8,0 -10,0l-2 6c-2,-5 -2,-7 -8,-7 -19,0 -31,32 -18,41 3,2 8,3 11,2 4,-1 5,-3 7,-6l1 -1zm85 -13c2,-5 3,-9 5,-13 1,-3 7,-11 10,-6 4,5 -2,20 -15,19zm23 6l-4 0c-5,14 -21,14 -20,0 1,-4 1,-2 10,-4 23,-6 20,-27 2,-24 -16,2 -25,21 -22,33 4,11 19,12 28,4 2,-1 5,-6 6,-9zm-151 -41c7,0 5,2 1,20 -2,7 -3,13 -5,19 -2,7 -3,14 5,16 7,2 12,-4 13,-10l-2 0c-2,2 -2,6 -6,5 -2,-3 1,-10 2,-13l6 -28c2,-4 3,-10 4,-14 -5,1 -9,2 -15,3 -3,0 -3,-1 -3,2zm160 40c-4,0 -3,0 -3,4 -1,2 -1,3 -2,5 3,2 5,5 10,6 17,3 28,-11 21,-20 -1,-2 -5,-5 -8,-7 -2,-1 -8,-3 -7,-7 0,-4 5,-6 9,-5 5,1 6,4 6,9l2 0c1,-2 3,-9 3,-11 -6,2 -6,-1 -12,-2 -8,0 -18,4 -18,12 0,9 11,11 15,15 6,6 -3,17 -12,12 -4,-3 -4,-6 -4,-11zm-190 -25l-1 2c3,0 4,0 5,1 1,4 -7,22 -6,30 0,11 18,9 19,-3l-3 0c0,2 -2,7 -5,5 -3,-3 7,-31 8,-38 -2,0 -6,1 -8,2 -3,0 -7,0 -9,1zm13 -20c-8,4 -5,14 3,12 7,-3 5,-15 -3,-12z"/>
   <g>
    <path class="fil15" d="M83 1159l0 2c0,0 0,0 0,1l1 2c2,3 6,6 9,7 1,1 5,2 6,2 0,0 3,0 4,0 3,1 7,0 10,-1 3,-1 5,-2 7,-4 1,-1 3,-3 4,-4 1,-2 1,-3 1,-5 1,-7 -2,-13 -7,-16 -1,-1 -2,-1 -3,-2 -1,0 -6,-2 -7,-2l-3 -2c-3,-1 -5,-1 -6,-3 -1,-2 -2,-8 5,-8 3,0 7,1 8,5 0,1 0,1 3,0 1,0 1,0 2,0 0,0 1,0 1,-1l3 0c0,0 1,0 3,-1 0,-1 -1,-3 -1,-3 -2,-3 -5,-6 -8,-7 -2,-1 -4,-2 -7,-2 -5,-1 -13,0 -17,3 -1,0 -1,1 -2,1 0,0 -1,1 -2,2 0,0 0,0 0,0 -1,1 -1,2 -2,3 -2,4 -1,12 2,15 0,1 0,1 1,2l1 1c1,0 2,1 3,2 1,0 1,0 2,0 0,1 1,1 1,1l7 2c2,1 5,2 7,4 1,1 2,2 2,4 0,2 0,2 -1,4 -2,5 -11,3 -14,-1 0,0 0,-1 -1,-1 0,-1 0,-2 0,-2 -1,-1 -2,0 -3,0l-5 1c0,0 0,0 -1,0 -1,1 -1,1 -2,1 0,0 -1,0 -1,0z"/>
    <path class="fil15" d="M233 1135c8,0 10,7 10,14 0,3 0,8 -1,10 -2,3 -2,4 -4,5 -2,1 -6,1 -8,0 -1,-1 -2,-2 -2,-3 -2,-3 -2,-7 -2,-10 0,-3 0,-8 1,-10 1,-2 1,-3 2,-4 1,-1 3,-2 4,-2zm22 19c0,-2 0,-9 0,-11 -1,-4 -2,-6 -5,-9 -1,-2 -4,-5 -6,-5 0,-1 0,-1 -1,-1 -2,-1 -7,-2 -10,-2l-5 1 -2 1c-1,0 -2,1 -2,1 -1,0 -1,1 -2,1 0,0 -1,1 -1,1 -2,1 -3,3 -4,5 -1,1 -2,4 -3,6 0,2 0,2 0,3 -1,2 -1,5 -1,7 1,1 0,1 1,2 0,1 0,2 0,3 0,1 1,3 1,4 1,1 1,3 2,4 1,1 1,1 3,3 1,2 1,1 3,2 1,2 5,3 8,3 1,0 3,1 5,0 2,0 3,0 5,0 1,-1 2,-1 4,-2 0,0 2,-2 3,-2 0,-1 1,-1 1,-2 1,0 1,-1 2,-1 1,-3 3,-7 4,-10 0,-1 0,-1 0,-2z"/>
    <path class="fil15" d="M332 1152c1,0 3,0 4,0 1,0 1,0 1,1 0,3 0,5 0,7 1,4 1,4 -2,4 -3,1 -7,1 -9,-1 -2,-2 -3,-4 -2,-6 0,-2 2,-3 3,-4 1,0 3,-1 4,-1 0,0 1,0 1,0zm16 18c1,-1 1,-14 1,-16 0,-2 0,-10 0,-12 -1,-3 0,-1 -1,-4 0,-2 -1,-5 -2,-6 -1,-1 -1,-2 -2,-2 -3,-2 -5,-3 -9,-3l-6 0c-3,0 -6,0 -8,2 -4,2 -6,6 -7,10 0,1 0,1 1,1l10 0c2,0 0,-2 3,-5 2,-1 5,-1 7,0 1,1 2,3 2,5 0,1 1,3 0,3 -1,1 -2,1 -3,1l-8 0c-6,2 -11,4 -13,11 0,2 0,3 -1,5 0,1 1,1 1,2 0,1 0,1 0,2 0,0 0,0 0,0 1,1 2,3 3,4 1,2 1,1 2,2 0,0 1,1 1,1 3,2 4,1 5,2 1,0 4,0 4,0 7,1 15,-1 20,-3z"/>
    <path class="fil15" d="M383 1172c0,-1 0,-18 0,-21 0,-3 0,-7 0,-10 0,-2 -1,-2 2,-3 4,-1 9,-1 10,4 1,4 0,15 0,20 0,2 0,3 0,5 0,1 0,4 1,5 0,0 8,0 9,0 3,0 2,0 2,-3l0 -28c0,-1 0,-3 0,-4 -1,-3 -2,-5 -4,-6 -1,-2 -3,-3 -6,-4 -2,-1 -5,-1 -8,0 -4,0 -8,1 -11,2 -2,1 -4,2 -5,3 -3,1 -2,0 -2,5l0 33c0,2 0,2 2,2 2,0 3,0 5,0 1,0 4,0 5,0z"/>
    <path class="fil15" d="M173 1172c0,0 6,0 7,0 4,0 4,1 4,-1 0,-1 0,-1 0,-2 0,-3 0,-29 0,-29 1,-1 2,-1 3,-2 0,0 0,0 1,0 1,0 1,0 2,0 4,-1 7,1 7,6 0,2 0,5 0,7 0,6 0,13 0,19 0,3 -1,2 9,2 0,0 3,0 3,0 0,-1 0,-25 0,-26 0,-5 0,-8 -2,-13 -1,-1 -2,-3 -3,-4 -2,-1 -2,-1 -4,-2 -1,0 -6,-1 -8,-1 -1,1 -2,1 -3,1 -1,0 -1,0 -2,0 0,0 -1,0 -1,0l-3 1c-2,1 -6,2 -8,3 -3,2 -3,1 -3,5l0 29c0,1 0,3 0,4 0,1 0,3 1,3z"/>
    <path class="fil15" d="M268 1159c-1,0 -6,1 -7,1 0,0 -3,1 -3,1 -1,0 0,3 0,3 1,2 3,4 4,5 2,2 3,2 5,3 2,1 5,1 7,1 2,1 3,0 4,0l4 -1c2,0 3,-1 5,-3 1,0 2,-1 3,-2l1 -2c1,-1 2,-5 2,-7 -1,-3 -1,-4 -3,-6 -1,-2 -1,-2 -3,-3 0,-1 -1,-1 -1,-1 -3,-2 -7,-3 -10,-5 -2,0 -3,-1 -4,-2 0,0 0,0 0,0 -1,-2 -1,-5 2,-6 1,0 2,0 3,1 4,0 4,3 4,4 1,0 5,-1 6,-1 0,0 1,0 1,0 1,0 1,-1 1,-1 1,0 1,0 2,0 1,0 1,0 0,-3 -1,-3 -3,-4 -4,-6 -1,0 -2,-1 -3,-1 -2,-1 -2,-1 -4,-1 -3,-1 -5,-1 -8,0 -3,0 -5,1 -8,3 0,0 -1,0 -1,0 -2,2 -3,4 -4,6 0,2 0,5 0,7 0,1 1,3 2,4 1,2 3,3 5,4 1,1 2,1 3,1 2,1 4,2 5,2l3 2c1,1 3,2 3,4 0,1 0,2 -1,3 0,0 -1,1 -2,1 -1,1 -2,1 -3,0 -1,0 -2,0 -3,-1 -3,-1 -3,-4 -3,-4z"/>
    <path class="fil16" d="M155 1145c-1,0 -9,0 -11,0 -1,0 -2,0 -2,-1 0,0 0,-3 0,-3 1,-2 1,-3 3,-5 0,0 2,-1 3,-1 2,0 3,1 5,1 2,2 3,7 2,9zm-1 -17c0,0 1,0 1,0l1 0c0,0 1,0 1,0l2 1c0,0 0,0 0,0l2 2c1,0 1,0 1,1 0,0 -1,0 0,0l1 2c0,0 0,0 0,0l1 0c0,0 0,0 0,1 0,0 0,0 -1,0l0 1c1,0 1,0 2,1 0,0 -1,0 0,0 0,1 0,1 0,1 0,0 0,0 1,0 0,1 0,2 0,3l0 0c1,1 1,1 1,2 0,0 0,1 0,1 0,0 0,0 0,1l0 6c0,1 1,1 0,2 -1,0 0,-1 -1,0 -2,0 -13,0 -15,0 -2,0 -4,0 -6,-1 0,0 0,0 0,0 1,0 1,0 1,0l-1 0c0,0 0,0 0,0 -1,1 -1,1 -2,1 0,0 0,-1 -1,-1 -1,1 1,1 -2,1 0,-1 0,0 0,-1 0,1 -1,1 -1,1 0,0 0,0 0,0 0,0 0,0 0,0 -1,0 0,0 -1,0 0,0 0,0 0,0l0 0c0,0 0,0 0,0 0,0 0,0 0,0 -1,0 0,0 -1,0 0,0 0,0 0,0l-3 0 0 3 5 0c1,0 1,0 1,-1l1 0c0,0 0,0 0,1 0,0 0,0 0,0 0,1 0,2 1,3 0,1 0,0 0,1 -1,0 -1,1 -2,1 0,0 0,0 0,0 0,0 0,0 0,0l0 -1 -3 0c0,0 -1,0 -1,0 -1,0 -2,0 -2,0 0,-2 0,-1 3,-1 1,0 2,0 3,0 0,-1 0,0 1,-1 0,0 0,0 0,0l0 0c-1,-1 -1,0 -1,-1 0,0 0,0 0,-1l-6 0c0,1 0,1 0,1 -1,0 0,0 -1,0 0,0 0,-1 0,-1 0,-1 0,-2 0,-3 0,0 0,-3 0,-4 0,-1 0,-2 0,-4 0,0 0,0 0,0 0,0 0,-1 0,-1 0,-1 0,-1 1,-2 0,0 0,0 0,0 0,0 0,1 0,0 -1,0 0,0 -1,0 0,1 0,0 0,1 -1,0 -1,0 -1,0 -1,-1 -1,-1 -1,-2 0,0 0,0 0,-1 1,-1 1,-1 1,-2l1 -2c1,-2 2,-3 3,-4 0,0 1,0 1,0l0 -1c0,0 0,0 0,0 0,0 1,0 1,0 0,1 0,1 0,1 -1,1 0,-1 0,0 0,0 0,0 0,1 0,0 0,0 0,0 0,1 0,1 0,2 2,0 1,0 2,-1 0,-1 0,0 1,-1 0,0 0,0 1,0 0,0 0,0 0,0l0 0c-1,-1 -1,-1 -1,-1 0,0 0,0 -1,0 0,1 0,0 0,1 0,0 0,-1 0,-1 0,0 -1,0 -1,0l0 0c0,0 0,0 0,-1l1 0c0,0 0,0 0,-1 0,0 0,0 0,0l0 0c0,0 0,0 0,0 0,-1 0,0 0,-1 0,0 1,0 1,0l0 1c1,0 1,0 1,0 0,0 0,0 0,0l1 0c0,0 0,-1 0,0 1,0 0,0 1,0 1,0 0,0 1,0 0,0 1,0 1,0l1 0c0,0 1,0 1,0l1 0c0,0 1,0 1,0l1 0 0 1c0,0 0,0 0,0l1 0c0,0 0,0 1,0 0,1 1,1 0,1 0,1 0,0 0,0 0,1 0,1 -1,1 -1,1 -2,0 -2,0l0 0c0,0 0,0 0,0l0 1c-1,0 -2,1 -3,0 0,0 0,0 0,0 0,-1 0,0 1,-1 0,0 0,0 1,0l-1 -2c0,0 0,0 0,0l-1 0c0,0 0,0 0,0 0,0 0,0 0,1 0,0 0,0 0,0 -1,0 0,0 0,0l-1 1c0,1 0,1 0,1 0,0 -1,0 -1,0 0,1 0,0 0,0 0,1 0,0 0,1 0,0 0,0 0,0 -1,0 -1,0 -1,0 0,0 0,0 0,1 0,0 0,0 0,1l-1 0c0,0 0,0 0,1 -1,0 0,1 -1,1 0,1 0,0 0,1 0,0 0,1 -1,1 0,1 0,2 0,4l0 1c0,0 1,0 0,0 0,0 0,0 0,1 1,0 2,0 2,1 2,0 1,0 2,0l0 -1c-1,0 0,0 -1,0 0,0 -1,0 -1,0 0,-1 0,-1 0,-1l0 -1c1,0 1,0 1,0l11 0c1,0 1,0 1,0 -1,0 -6,0 -7,0 -2,0 -6,0 -8,0 1,-1 0,-2 0,-2l1 -1c0,-1 0,-1 0,-1 0,1 -1,2 -1,4 1,0 1,0 1,0 0,0 0,0 1,0 1,0 9,0 11,0 2,0 2,0 2,-2l0 -4c0,0 0,0 0,-1l1 -2c0,0 0,0 0,0 0,0 0,0 0,0l1 0c0,0 0,0 0,0 0,1 0,2 0,2 -1,0 0,1 -1,0 0,1 1,1 0,1 0,0 0,0 0,0 0,0 0,1 0,1l0 2c1,0 1,0 1,0 0,0 0,0 0,0 0,0 0,0 0,0l0 0c1,0 1,0 1,0l0 1c0,0 0,0 0,0 0,-2 0,-1 -1,-1l0 -1c0,0 0,0 0,0 1,-1 1,-1 1,-2 0,0 0,-1 0,-1 0,0 1,-1 1,-1 1,0 1,0 1,1 0,0 0,1 0,1l0 0c0,1 0,0 0,1 0,1 0,0 0,0 1,0 1,1 2,1 0,-1 0,-1 0,-1l0 -1c0,-1 0,0 -1,-1 0,0 0,-1 0,-1l0 0c0,0 0,0 0,0 0,0 0,0 0,0 0,-1 0,-1 0,-1l0 0c-1,0 -1,-1 -1,-1l1 0c0,0 0,0 0,0 0,0 0,0 1,0l-1 -1c0,-1 0,-1 -1,-1 0,0 0,0 -1,0l0 1c0,0 0,1 0,1 0,0 0,1 -1,1 0,0 0,0 -1,-1 0,0 1,0 1,0 -1,0 0,0 -1,0l0 0c-1,0 -1,-1 -1,-1 0,0 0,0 1,0l1 -1c-1,0 -1,0 -2,0 0,-1 0,0 0,-1l0 0c0,0 0,0 0,0 0,0 0,0 0,0l0 -1c-1,0 -1,0 -1,0 0,0 0,0 0,0 -2,0 -2,0 -3,0 0,-1 1,-1 0,-1 1,0 0,0 0,0 0,0 0,0 0,1 -1,0 -1,0 -1,0 -1,-1 -1,-1 -1,-1 0,-1 0,-1 1,-1 0,0 0,0 0,-1 0,0 0,0 0,0 1,0 0,0 0,0 1,0 1,0 1,0 0,1 0,0 0,1l1 0c0,-1 0,0 0,-1zm2 31c-1,1 -1,3 -3,5 -3,2 -8,0 -10,-4 -1,-1 -2,-5 -1,-7 1,0 2,0 3,0l10 0c2,0 12,0 13,0 0,-1 0,-8 0,-10 -1,-4 -3,-8 -6,-11 0,-1 0,-1 -1,-2 -2,-1 -3,-2 -5,-2 -2,-1 -1,-1 -2,-1 -1,0 -2,0 -3,0 -3,-1 -7,0 -9,1 -1,0 -2,1 -3,1 0,0 -1,0 -1,1 -4,2 -6,7 -7,11 -1,2 -2,6 -2,7 0,2 0,4 0,6 1,1 1,1 1,2 0,1 0,2 0,3 0,0 1,3 1,4 1,0 1,1 1,2 1,0 2,2 2,3 2,1 3,3 5,4l2 0c2,1 4,1 7,1 3,0 3,0 5,0 2,0 6,-2 7,-2 3,-2 5,-4 6,-7 0,-1 1,-4 1,-5 0,0 -2,0 -3,0 -1,0 -7,0 -8,0z"/>
    <path class="fil15" d="M162 1132c0,-1 0,-1 -1,-1l-2 -2c0,0 0,0 0,0l-2 -1c0,0 -1,0 -1,0l-1 0c0,0 -1,0 -1,0 0,1 0,0 0,1l-1 0c0,-1 0,0 0,-1 0,0 0,0 -1,0 0,0 1,0 0,0 0,0 0,0 0,0 0,1 0,1 0,1 -1,0 -1,0 -1,1 0,0 0,0 1,1 0,0 0,0 1,0 0,-1 0,-1 0,-1 0,0 1,0 0,0 1,0 0,0 0,1 1,0 1,0 3,0 0,0 0,0 0,0 0,0 0,0 1,0l0 1c0,0 0,0 0,0 0,0 0,0 0,0l0 0c0,1 0,0 0,1 1,0 1,0 2,0l-1 1c-1,0 -1,0 -1,0 0,0 0,1 1,1l0 0c1,0 0,0 1,0 0,0 -1,0 -1,0 1,1 1,1 1,1 1,0 1,-1 1,-1 0,0 0,-1 0,-1l0 -1c1,0 1,0 1,0 1,0 1,0 1,1l1 1c-1,0 -1,0 -1,0 0,0 0,0 0,0l-1 0c0,0 0,1 1,1l0 0c0,0 0,0 0,1 0,0 0,0 0,0 0,0 0,0 0,0l0 0c0,0 0,1 0,1 1,1 1,0 1,1l0 1c0,0 0,0 0,1 -1,0 -1,-1 -2,-1 0,0 0,1 0,0 0,-1 0,0 0,-1l0 0c0,0 0,-1 0,-1 0,-1 0,-1 -1,-1 0,0 -1,1 -1,1 0,0 0,1 0,1 0,1 0,1 -1,2 0,0 0,0 0,0l0 1c1,0 1,-1 1,1 0,0 0,0 0,0l0 -1c0,0 0,0 -1,0l0 0c0,0 0,0 0,0 0,0 0,0 0,0 0,0 0,0 -1,0l0 -2c0,0 0,-1 0,-1 0,0 0,0 0,0 1,0 0,0 0,-1 1,1 0,0 1,0 0,0 0,-1 0,-2 0,0 0,0 0,0l-1 0c0,0 0,0 0,0 0,0 0,0 0,0l-1 2c0,1 0,1 0,1l0 4c0,2 0,2 -2,2 -2,0 -10,0 -11,0 -1,0 -1,0 -1,0 0,0 0,0 -1,0 0,-2 1,-3 1,-4 0,0 0,0 0,1l-1 1c0,0 1,1 0,2 2,0 6,0 8,0 1,0 6,0 7,0 0,0 0,0 -1,0l-11 0c0,0 0,0 -1,0l0 1c0,0 0,0 0,1 0,0 1,0 1,0 1,0 0,0 1,0l0 1c-1,0 0,0 -2,0 0,-1 -1,-1 -2,-1 0,-1 0,-1 0,-1 1,0 0,0 0,0l0 -1c0,-2 0,-3 0,-4 1,0 1,-1 1,-1 0,-1 0,0 0,-1 1,0 0,-1 1,-1 0,-1 0,-1 0,-1l1 0c0,-1 0,-1 0,-1 0,-1 0,-1 0,-1 0,0 0,0 1,0 0,0 0,0 0,0 0,-1 0,0 0,-1 0,0 0,1 0,0 0,0 1,0 1,0 0,0 0,0 0,-1l1 -1c0,0 -1,0 0,0 0,0 0,0 0,0 0,-1 0,-1 0,-1 0,0 0,0 0,0l1 0c0,0 0,0 0,0l1 2c-1,0 -1,0 -1,0 -1,1 -1,0 -1,1 0,0 0,0 0,0 1,1 2,0 3,0l0 -1c0,0 0,0 0,0l0 0c0,0 1,1 2,0 1,0 1,0 1,-1 0,0 0,1 0,0 1,0 0,0 0,-1 -1,0 -1,0 -1,0l-1 0c0,0 0,0 0,0l0 -1 -1 0c0,0 -1,0 -1,0l-1 0c0,0 -1,0 -1,0l-1 0c0,0 -1,0 -1,0 -1,0 0,0 -1,0 -1,0 0,0 -1,0 0,-1 0,0 0,0l-1 0c0,0 0,0 0,0 0,0 0,0 -1,0l0 -1c0,0 -1,0 -1,0 0,1 0,0 0,1 0,0 0,0 0,0l0 0c0,0 0,0 0,0 0,1 0,1 0,1l-1 0c0,1 0,1 0,1l0 0c0,0 1,0 1,0 0,0 0,1 0,1 0,-1 0,0 0,-1 1,0 1,0 1,0 0,0 0,0 1,1l0 0c0,0 0,0 0,0 -1,0 -1,0 -1,0 -1,1 -1,0 -1,1 -1,1 0,1 -2,1 0,-1 0,-1 0,-2 0,0 0,0 0,0 0,-1 0,-1 0,-1 0,-1 -1,1 0,0 0,0 0,0 0,-1 0,0 -1,0 -1,0 0,0 0,0 0,0l0 1c0,0 -1,0 -1,0 -1,1 -2,2 -3,4l-1 2c0,1 0,1 -1,2 0,1 0,1 0,1 0,1 0,1 1,2 0,0 0,0 1,0 0,-1 0,0 0,-1 1,0 0,0 1,0 0,1 0,0 0,0 0,0 0,0 0,0 -1,1 -1,1 -1,2 0,0 0,1 0,1 0,0 0,0 0,0 0,2 0,3 0,4 0,1 0,4 0,4 0,1 0,2 0,3 0,0 0,1 0,1 1,0 0,0 1,0 0,0 0,0 0,-1l6 0c0,1 0,1 0,1 0,1 0,0 1,1l0 0c0,0 0,0 0,0 -1,1 -1,0 -1,1 -1,0 -2,0 -3,0 -3,0 -3,-1 -3,1 0,0 1,0 2,0 0,0 1,0 1,0l3 0 0 1c0,0 0,0 0,0 0,0 0,0 0,0 1,0 1,-1 2,-1 0,-1 0,0 0,-1 -1,-1 -1,-2 -1,-3 0,0 0,0 0,0 0,-1 0,-1 0,-1l-1 0c0,1 0,1 -1,1l-5 0 0 -3 3 0c0,0 0,0 0,0 1,0 0,0 1,0 0,0 0,0 0,0 0,0 0,0 0,0l0 0c0,0 0,0 0,0 1,0 0,0 1,0 0,0 0,0 0,0 0,0 0,0 0,0 0,0 1,0 1,-1 0,1 0,0 0,1 3,0 1,0 2,-1 1,0 1,1 1,1 1,0 1,0 2,-1 0,0 0,0 0,0l1 0c0,0 0,0 -1,0 0,0 0,0 0,0 2,1 4,1 6,1 2,0 13,0 15,0 1,-1 0,0 1,0 1,-1 0,-1 0,-2l0 -6c0,-1 0,-1 0,-1 0,0 0,-1 0,-1 0,-1 0,-1 -1,-2l0 0c0,-1 0,-2 0,-3 -1,0 -1,0 -1,0 0,0 0,0 0,-1 -1,0 0,0 0,0 -1,-1 -1,-1 -2,-1l0 -1c1,0 1,0 1,0 0,-1 0,-1 0,-1l-1 0c0,0 0,0 0,0l-1 -2c-1,0 0,0 0,0z"/>
    <path class="fil15" d="M365 1172c1,-1 1,-1 1,-3l0 -38c0,-4 1,-3 -5,-3 -8,0 -7,-1 -7,1l0 42c0,0 0,1 0,1 0,0 10,0 11,0z"/>
    <path class="fil15" d="M297 1128c0,2 0,44 0,44 1,0 1,0 2,0l8 0c1,0 1,0 2,0 0,-1 0,-36 0,-43 0,-2 -1,-1 -2,-1l-9 0c0,0 -1,0 -1,0z"/>
    <path class="fil15" d="M420 1161c-2,0 -2,0 -2,-2 0,0 1,0 1,0 1,0 4,-1 3,1 0,1 -1,1 -2,1zm10 1l0 1c0,1 -1,1 -1,1 0,0 0,1 0,1 0,0 0,1 -1,2 0,1 -1,2 -1,3 -1,1 -2,1 -3,2 -2,1 -4,1 -6,0 -3,0 -5,-3 -6,-5 -1,-2 -1,-3 -1,-4 0,-3 1,-6 2,-7 3,-3 7,-5 10,-3 2,1 4,2 5,5 0,0 1,2 1,3 1,0 0,0 1,0 0,1 0,1 0,1zm-12 6c1,-1 0,-3 0,-4 0,-1 1,-1 1,-1 1,0 1,1 1,1 0,0 0,1 1,1 0,0 0,0 0,0 0,1 0,1 1,2 0,1 1,1 2,1 0,1 0,1 0,1 -1,0 -1,0 -1,1 -2,0 -2,0 -3,0 -2,0 -3,-1 -4,-2 -1,0 -1,0 -1,0 -1,-2 -2,-4 -2,-6 0,-2 1,-4 2,-5 1,-1 1,0 1,-1 1,0 1,0 1,-1 2,-1 4,0 6,1 1,0 2,1 2,1 3,4 2,10 0,11l-1 -1c0,-1 0,-1 -1,-1 -2,-5 1,-2 2,-5 0,-1 0,-3 -1,-3 -1,-1 -2,-1 -3,-1 -1,0 -4,0 -5,0 0,1 0,8 0,10 0,0 0,1 1,1 0,0 1,0 1,0z"/>
    <path class="fil15" d="M300 1108c0,0 -1,1 -2,1 -3,2 -2,9 2,11 2,0 3,1 5,0 2,0 3,-1 4,-3 1,-3 0,-7 -3,-9 -1,0 -4,0 -6,0z"/>
    <path class="fil15" d="M357 1108c-1,0 -3,1 -3,3 -1,1 -1,3 -1,5 2,4 5,5 9,4 2,0 3,-1 3,-3 1,0 1,-1 1,-2 0,-1 0,-2 0,-3 0,-1 0,-1 -1,-2 0,-1 -1,-1 -2,-2 0,0 -1,0 -2,0 -1,0 -3,0 -4,0z"/>
   </g>
   <g>
    <path class="fil15" d="M83 1159l0 2c0,0 0,0 0,1l1 2c2,3 6,6 9,7 1,1 5,2 6,2 0,0 3,0 4,0 3,1 7,0 10,-1 3,-1 5,-2 7,-4 1,-1 3,-3 4,-4 1,-2 1,-3 1,-5 1,-7 -2,-13 -7,-16 -1,-1 -2,-1 -3,-2 -1,0 -6,-2 -7,-2l-3 -2c-3,-1 -5,-1 -6,-3 -1,-2 -2,-8 5,-8 3,0 7,1 8,5 0,1 0,1 3,0 1,0 1,0 2,0 0,0 1,0 1,-1l3 0c0,0 1,0 3,-1 0,-1 -1,-3 -1,-3 -2,-3 -5,-6 -8,-7 -2,-1 -4,-2 -7,-2 -5,-1 -13,0 -17,3 -1,0 -1,1 -2,1 0,0 -1,1 -2,2 0,0 0,0 0,0 -1,1 -1,2 -2,3 -2,4 -1,12 2,15 0,1 0,1 1,2l1 1c1,0 2,1 3,2 1,0 1,0 2,0 0,1 1,1 1,1l7 2c2,1 5,2 7,4 1,1 2,2 2,4 0,2 0,2 -1,4 -2,5 -11,3 -14,-1 0,0 0,-1 -1,-1 0,-1 0,-2 0,-2 -1,-1 -2,0 -3,0l-5 1c0,0 0,0 -1,0 -1,1 -1,1 -2,1 0,0 -1,0 -1,0z"/>
    <path class="fil15" d="M233 1135c8,0 10,7 10,14 0,3 0,8 -1,10 -2,3 -2,4 -4,5 -2,1 -6,1 -8,0 -1,-1 -2,-2 -2,-3 -2,-3 -2,-7 -2,-10 0,-3 0,-8 1,-10 1,-2 1,-3 2,-4 1,-1 3,-2 4,-2zm22 19c0,-2 0,-9 0,-11 -1,-4 -2,-6 -5,-9 -1,-2 -4,-5 -6,-5 0,-1 0,-1 -1,-1 -2,-1 -7,-2 -10,-2l-5 1 -2 1c-1,0 -2,1 -2,1 -1,0 -1,1 -2,1 0,0 -1,1 -1,1 -2,1 -3,3 -4,5 -1,1 -2,4 -3,6 0,2 0,2 0,3 -1,2 -1,5 -1,7 1,1 0,1 1,2 0,1 0,2 0,3 0,1 1,3 1,4 1,1 1,3 2,4 1,1 1,1 3,3 1,2 1,1 3,2 1,2 5,3 8,3 1,0 3,1 5,0 2,0 3,0 5,0 1,-1 2,-1 4,-2 0,0 2,-2 3,-2 0,-1 1,-1 1,-2 1,0 1,-1 2,-1 1,-3 3,-7 4,-10 0,-1 0,-1 0,-2z"/>
    <path class="fil15" d="M332 1152c1,0 3,0 4,0 1,0 1,0 1,1 0,3 0,5 0,7 1,4 1,4 -2,4 -3,1 -7,1 -9,-1 -2,-2 -3,-4 -2,-6 0,-2 2,-3 3,-4 1,0 3,-1 4,-1 0,0 1,0 1,0zm16 18c1,-1 1,-14 1,-16 0,-2 0,-10 0,-12 -1,-3 0,-1 -1,-4 0,-2 -1,-5 -2,-6 -1,-1 -1,-2 -2,-2 -3,-2 -5,-3 -9,-3l-6 0c-3,0 -6,0 -8,2 -4,2 -6,6 -7,10 0,1 0,1 1,1l10 0c2,0 0,-2 3,-5 2,-1 5,-1 7,0 1,1 2,3 2,5 0,1 1,3 0,3 -1,1 -2,1 -3,1l-8 0c-6,2 -11,4 -13,11 0,2 0,3 -1,5 0,1 1,1 1,2 0,1 0,1 0,2 0,0 0,0 0,0 1,1 2,3 3,4 1,2 1,1 2,2 0,0 1,1 1,1 3,2 4,1 5,2 1,0 4,0 4,0 7,1 15,-1 20,-3z"/>
    <path class="fil15" d="M383 1172c0,-1 0,-18 0,-21 0,-3 0,-7 0,-10 0,-2 -1,-2 2,-3 4,-1 9,-1 10,4 1,4 0,15 0,20 0,2 0,3 0,5 0,1 0,4 1,5 0,0 8,0 9,0 3,0 2,0 2,-3l0 -28c0,-1 0,-3 0,-4 -1,-3 -2,-5 -4,-6 -1,-2 -3,-3 -6,-4 -2,-1 -5,-1 -8,0 -4,0 -8,1 -11,2 -2,1 -4,2 -5,3 -3,1 -2,0 -2,5l0 33c0,2 0,2 2,2 2,0 3,0 5,0 1,0 4,0 5,0z"/>
    <path class="fil15" d="M173 1172c0,0 6,0 7,0 4,0 4,1 4,-1 0,-1 0,-1 0,-2 0,-3 0,-29 0,-29 1,-1 2,-1 3,-2 0,0 0,0 1,0 1,0 1,0 2,0 4,-1 7,1 7,6 0,2 0,5 0,7 0,6 0,13 0,19 0,3 -1,2 9,2 0,0 3,0 3,0 0,-1 0,-25 0,-26 0,-5 0,-8 -2,-13 -1,-1 -2,-3 -3,-4 -2,-1 -2,-1 -4,-2 -1,0 -6,-1 -8,-1 -1,1 -2,1 -3,1 -1,0 -1,0 -2,0 0,0 -1,0 -1,0l-3 1c-2,1 -6,2 -8,3 -3,2 -3,1 -3,5l0 29c0,1 0,3 0,4 0,1 0,3 1,3z"/>
    <path class="fil15" d="M268 1159c-1,0 -6,1 -7,1 0,0 -3,1 -3,1 -1,0 0,3 0,3 1,2 3,4 4,5 2,2 3,2 5,3 2,1 5,1 7,1 2,1 3,0 4,0l4 -1c2,0 3,-1 5,-3 1,0 2,-1 3,-2l1 -2c1,-1 2,-5 2,-7 -1,-3 -1,-4 -3,-6 -1,-2 -1,-2 -3,-3 0,-1 -1,-1 -1,-1 -3,-2 -7,-3 -10,-5 -2,0 -3,-1 -4,-2 0,0 0,0 0,0 -1,-2 -1,-5 2,-6 1,0 2,0 3,1 4,0 4,3 4,4 1,0 5,-1 6,-1 0,0 1,0 1,0 1,0 1,-1 1,-1 1,0 1,0 2,0 1,0 1,0 0,-3 -1,-3 -3,-4 -4,-6 -1,0 -2,-1 -3,-1 -2,-1 -2,-1 -4,-1 -3,-1 -5,-1 -8,0 -3,0 -5,1 -8,3 0,0 -1,0 -1,0 -2,2 -3,4 -4,6 0,2 0,5 0,7 0,1 1,3 2,4 1,2 3,3 5,4 1,1 2,1 3,1 2,1 4,2 5,2l3 2c1,1 3,2 3,4 0,1 0,2 -1,3 0,0 -1,1 -2,1 -1,1 -2,1 -3,0 -1,0 -2,0 -3,-1 -3,-1 -3,-4 -3,-4z"/>
    <path class="fil16" d="M155 1145c-1,0 -9,0 -11,0 -1,0 -2,0 -2,-1 0,0 0,-3 0,-3 1,-2 1,-3 3,-5 0,0 2,-1 3,-1 2,0 3,1 5,1 2,2 3,7 2,9zm-1 -17c0,0 1,0 1,0l1 0c0,0 1,0 1,0l2 1c0,0 0,0 0,0l2 2c1,0 1,0 1,1 0,0 -1,0 0,0l1 2c0,0 0,0 0,0l1 0c0,0 0,0 0,1 0,0 0,0 -1,0l0 1c1,0 1,0 2,1 0,0 -1,0 0,0 0,1 0,1 0,1 0,0 0,0 1,0 0,1 0,2 0,3l0 0c1,1 1,1 1,2 0,0 0,1 0,1 0,0 0,0 0,1l0 6c0,1 1,1 0,2 -1,0 0,-1 -1,0 -2,0 -13,0 -15,0 -2,0 -4,0 -6,-1 0,0 0,0 0,0 1,0 1,0 1,0l-1 0c0,0 0,0 0,0 -1,1 -1,1 -2,1 0,0 0,-1 -1,-1 -1,1 1,1 -2,1 0,-1 0,0 0,-1 0,1 -1,1 -1,1 0,0 0,0 0,0 0,0 0,0 0,0 -1,0 0,0 -1,0 0,0 0,0 0,0l0 0c0,0 0,0 0,0 0,0 0,0 0,0 -1,0 0,0 -1,0 0,0 0,0 0,0l-3 0 0 3 5 0c1,0 1,0 1,-1l1 0c0,0 0,0 0,1 0,0 0,0 0,0 0,1 0,2 1,3 0,1 0,0 0,1 -1,0 -1,1 -2,1 0,0 0,0 0,0 0,0 0,0 0,0l0 -1 -3 0c0,0 -1,0 -1,0 -1,0 -2,0 -2,0 0,-2 0,-1 3,-1 1,0 2,0 3,0 0,-1 0,0 1,-1 0,0 0,0 0,0l0 0c-1,-1 -1,0 -1,-1 0,0 0,0 0,-1l-6 0c0,1 0,1 0,1 -1,0 0,0 -1,0 0,0 0,-1 0,-1 0,-1 0,-2 0,-3 0,0 0,-3 0,-4 0,-1 0,-2 0,-4 0,0 0,0 0,0 0,0 0,-1 0,-1 0,-1 0,-1 1,-2 0,0 0,0 0,0 0,0 0,1 0,0 -1,0 0,0 -1,0 0,1 0,0 0,1 -1,0 -1,0 -1,0 -1,-1 -1,-1 -1,-2 0,0 0,0 0,-1 1,-1 1,-1 1,-2l1 -2c1,-2 2,-3 3,-4 0,0 1,0 1,0l0 -1c0,0 0,0 0,0 0,0 1,0 1,0 0,1 0,1 0,1 -1,1 0,-1 0,0 0,0 0,0 0,1 0,0 0,0 0,0 0,1 0,1 0,2 2,0 1,0 2,-1 0,-1 0,0 1,-1 0,0 0,0 1,0 0,0 0,0 0,0l0 0c-1,-1 -1,-1 -1,-1 0,0 0,0 -1,0 0,1 0,0 0,1 0,0 0,-1 0,-1 0,0 -1,0 -1,0l0 0c0,0 0,0 0,-1l1 0c0,0 0,0 0,-1 0,0 0,0 0,0l0 0c0,0 0,0 0,0 0,-1 0,0 0,-1 0,0 1,0 1,0l0 1c1,0 1,0 1,0 0,0 0,0 0,0l1 0c0,0 0,-1 0,0 1,0 0,0 1,0 1,0 0,0 1,0 0,0 1,0 1,0l1 0c0,0 1,0 1,0l1 0c0,0 1,0 1,0l1 0 0 1c0,0 0,0 0,0l1 0c0,0 0,0 1,0 0,1 1,1 0,1 0,1 0,0 0,0 0,1 0,1 -1,1 -1,1 -2,0 -2,0l0 0c0,0 0,0 0,0l0 1c-1,0 -2,1 -3,0 0,0 0,0 0,0 0,-1 0,0 1,-1 0,0 0,0 1,0l-1 -2c0,0 0,0 0,0l-1 0c0,0 0,0 0,0 0,0 0,0 0,1 0,0 0,0 0,0 -1,0 0,0 0,0l-1 1c0,1 0,1 0,1 0,0 -1,0 -1,0 0,1 0,0 0,0 0,1 0,0 0,1 0,0 0,0 0,0 -1,0 -1,0 -1,0 0,0 0,0 0,1 0,0 0,0 0,1l-1 0c0,0 0,0 0,1 -1,0 0,1 -1,1 0,1 0,0 0,1 0,0 0,1 -1,1 0,1 0,2 0,4l0 1c0,0 1,0 0,0 0,0 0,0 0,1 1,0 2,0 2,1 2,0 1,0 2,0l0 -1c-1,0 0,0 -1,0 0,0 -1,0 -1,0 0,-1 0,-1 0,-1l0 -1c1,0 1,0 1,0l11 0c1,0 1,0 1,0 -1,0 -6,0 -7,0 -2,0 -6,0 -8,0 1,-1 0,-2 0,-2l1 -1c0,-1 0,-1 0,-1 0,1 -1,2 -1,4 1,0 1,0 1,0 0,0 0,0 1,0 1,0 9,0 11,0 2,0 2,0 2,-2l0 -4c0,0 0,0 0,-1l1 -2c0,0 0,0 0,0 0,0 0,0 0,0l1 0c0,0 0,0 0,0 0,1 0,2 0,2 -1,0 0,1 -1,0 0,1 1,1 0,1 0,0 0,0 0,0 0,0 0,1 0,1l0 2c1,0 1,0 1,0 0,0 0,0 0,0 0,0 0,0 0,0l0 0c1,0 1,0 1,0l0 1c0,0 0,0 0,0 0,-2 0,-1 -1,-1l0 -1c0,0 0,0 0,0 1,-1 1,-1 1,-2 0,0 0,-1 0,-1 0,0 1,-1 1,-1 1,0 1,0 1,1 0,0 0,1 0,1l0 0c0,1 0,0 0,1 0,1 0,0 0,0 1,0 1,1 2,1 0,-1 0,-1 0,-1l0 -1c0,-1 0,0 -1,-1 0,0 0,-1 0,-1l0 0c0,0 0,0 0,0 0,0 0,0 0,0 0,-1 0,-1 0,-1l0 0c-1,0 -1,-1 -1,-1l1 0c0,0 0,0 0,0 0,0 0,0 1,0l-1 -1c0,-1 0,-1 -1,-1 0,0 0,0 -1,0l0 1c0,0 0,1 0,1 0,0 0,1 -1,1 0,0 0,0 -1,-1 0,0 1,0 1,0 -1,0 0,0 -1,0l0 0c-1,0 -1,-1 -1,-1 0,0 0,0 1,0l1 -1c-1,0 -1,0 -2,0 0,-1 0,0 0,-1l0 0c0,0 0,0 0,0 0,0 0,0 0,0l0 -1c-1,0 -1,0 -1,0 0,0 0,0 0,0 -2,0 -2,0 -3,0 0,-1 1,-1 0,-1 1,0 0,0 0,0 0,0 0,0 0,1 -1,0 -1,0 -1,0 -1,-1 -1,-1 -1,-1 0,-1 0,-1 1,-1 0,0 0,0 0,-1 0,0 0,0 0,0 1,0 0,0 0,0 1,0 1,0 1,0 0,1 0,0 0,1l1 0c0,-1 0,0 0,-1zm2 31c-1,1 -1,3 -3,5 -3,2 -8,0 -10,-4 -1,-1 -2,-5 -1,-7 1,0 2,0 3,0l10 0c2,0 12,0 13,0 0,-1 0,-8 0,-10 -1,-4 -3,-8 -6,-11 0,-1 0,-1 -1,-2 -2,-1 -3,-2 -5,-2 -2,-1 -1,-1 -2,-1 -1,0 -2,0 -3,0 -3,-1 -7,0 -9,1 -1,0 -2,1 -3,1 0,0 -1,0 -1,1 -4,2 -6,7 -7,11 -1,2 -2,6 -2,7 0,2 0,4 0,6 1,1 1,1 1,2 0,1 0,2 0,3 0,0 1,3 1,4 1,0 1,1 1,2 1,0 2,2 2,3 2,1 3,3 5,4l2 0c2,1 4,1 7,1 3,0 3,0 5,0 2,0 6,-2 7,-2 3,-2 5,-4 6,-7 0,-1 1,-4 1,-5 0,0 -2,0 -3,0 -1,0 -7,0 -8,0z"/>
    <path class="fil15" d="M162 1132c0,-1 0,-1 -1,-1l-2 -2c0,0 0,0 0,0l-2 -1c0,0 -1,0 -1,0l-1 0c0,0 -1,0 -1,0 0,1 0,0 0,1l-1 0c0,-1 0,0 0,-1 0,0 0,0 -1,0 0,0 1,0 0,0 0,0 0,0 0,0 0,1 0,1 0,1 -1,0 -1,0 -1,1 0,0 0,0 1,1 0,0 0,0 1,0 0,-1 0,-1 0,-1 0,0 1,0 0,0 1,0 0,0 0,1 1,0 1,0 3,0 0,0 0,0 0,0 0,0 0,0 1,0l0 1c0,0 0,0 0,0 0,0 0,0 0,0l0 0c0,1 0,0 0,1 1,0 1,0 2,0l-1 1c-1,0 -1,0 -1,0 0,0 0,1 1,1l0 0c1,0 0,0 1,0 0,0 -1,0 -1,0 1,1 1,1 1,1 1,0 1,-1 1,-1 0,0 0,-1 0,-1l0 -1c1,0 1,0 1,0 1,0 1,0 1,1l1 1c-1,0 -1,0 -1,0 0,0 0,0 0,0l-1 0c0,0 0,1 1,1l0 0c0,0 0,0 0,1 0,0 0,0 0,0 0,0 0,0 0,0l0 0c0,0 0,1 0,1 1,1 1,0 1,1l0 1c0,0 0,0 0,1 -1,0 -1,-1 -2,-1 0,0 0,1 0,0 0,-1 0,0 0,-1l0 0c0,0 0,-1 0,-1 0,-1 0,-1 -1,-1 0,0 -1,1 -1,1 0,0 0,1 0,1 0,1 0,1 -1,2 0,0 0,0 0,0l0 1c1,0 1,-1 1,1 0,0 0,0 0,0l0 -1c0,0 0,0 -1,0l0 0c0,0 0,0 0,0 0,0 0,0 0,0 0,0 0,0 -1,0l0 -2c0,0 0,-1 0,-1 0,0 0,0 0,0 1,0 0,0 0,-1 1,1 0,0 1,0 0,0 0,-1 0,-2 0,0 0,0 0,0l-1 0c0,0 0,0 0,0 0,0 0,0 0,0l-1 2c0,1 0,1 0,1l0 4c0,2 0,2 -2,2 -2,0 -10,0 -11,0 -1,0 -1,0 -1,0 0,0 0,0 -1,0 0,-2 1,-3 1,-4 0,0 0,0 0,1l-1 1c0,0 1,1 0,2 2,0 6,0 8,0 1,0 6,0 7,0 0,0 0,0 -1,0l-11 0c0,0 0,0 -1,0l0 1c0,0 0,0 0,1 0,0 1,0 1,0 1,0 0,0 1,0l0 1c-1,0 0,0 -2,0 0,-1 -1,-1 -2,-1 0,-1 0,-1 0,-1 1,0 0,0 0,0l0 -1c0,-2 0,-3 0,-4 1,0 1,-1 1,-1 0,-1 0,0 0,-1 1,0 0,-1 1,-1 0,-1 0,-1 0,-1l1 0c0,-1 0,-1 0,-1 0,-1 0,-1 0,-1 0,0 0,0 1,0 0,0 0,0 0,0 0,-1 0,0 0,-1 0,0 0,1 0,0 0,0 1,0 1,0 0,0 0,0 0,-1l1 -1c0,0 -1,0 0,0 0,0 0,0 0,0 0,-1 0,-1 0,-1 0,0 0,0 0,0l1 0c0,0 0,0 0,0l1 2c-1,0 -1,0 -1,0 -1,1 -1,0 -1,1 0,0 0,0 0,0 1,1 2,0 3,0l0 -1c0,0 0,0 0,0l0 0c0,0 1,1 2,0 1,0 1,0 1,-1 0,0 0,1 0,0 1,0 0,0 0,-1 -1,0 -1,0 -1,0l-1 0c0,0 0,0 0,0l0 -1 -1 0c0,0 -1,0 -1,0l-1 0c0,0 -1,0 -1,0l-1 0c0,0 -1,0 -1,0 -1,0 0,0 -1,0 -1,0 0,0 -1,0 0,-1 0,0 0,0l-1 0c0,0 0,0 0,0 0,0 0,0 -1,0l0 -1c0,0 -1,0 -1,0 0,1 0,0 0,1 0,0 0,0 0,0l0 0c0,0 0,0 0,0 0,1 0,1 0,1l-1 0c0,1 0,1 0,1l0 0c0,0 1,0 1,0 0,0 0,1 0,1 0,-1 0,0 0,-1 1,0 1,0 1,0 0,0 0,0 1,1l0 0c0,0 0,0 0,0 -1,0 -1,0 -1,0 -1,1 -1,0 -1,1 -1,1 0,1 -2,1 0,-1 0,-1 0,-2 0,0 0,0 0,0 0,-1 0,-1 0,-1 0,-1 -1,1 0,0 0,0 0,0 0,-1 0,0 -1,0 -1,0 0,0 0,0 0,0l0 1c0,0 -1,0 -1,0 -1,1 -2,2 -3,4l-1 2c0,1 0,1 -1,2 0,1 0,1 0,1 0,1 0,1 1,2 0,0 0,0 1,0 0,-1 0,0 0,-1 1,0 0,0 1,0 0,1 0,0 0,0 0,0 0,0 0,0 -1,1 -1,1 -1,2 0,0 0,1 0,1 0,0 0,0 0,0 0,2 0,3 0,4 0,1 0,4 0,4 0,1 0,2 0,3 0,0 0,1 0,1 1,0 0,0 1,0 0,0 0,0 0,-1l6 0c0,1 0,1 0,1 0,1 0,0 1,1l0 0c0,0 0,0 0,0 -1,1 -1,0 -1,1 -1,0 -2,0 -3,0 -3,0 -3,-1 -3,1 0,0 1,0 2,0 0,0 1,0 1,0l3 0 0 1c0,0 0,0 0,0 0,0 0,0 0,0 1,0 1,-1 2,-1 0,-1 0,0 0,-1 -1,-1 -1,-2 -1,-3 0,0 0,0 0,0 0,-1 0,-1 0,-1l-1 0c0,1 0,1 -1,1l-5 0 0 -3 3 0c0,0 0,0 0,0 1,0 0,0 1,0 0,0 0,0 0,0 0,0 0,0 0,0l0 0c0,0 0,0 0,0 1,0 0,0 1,0 0,0 0,0 0,0 0,0 0,0 0,0 0,0 1,0 1,-1 0,1 0,0 0,1 3,0 1,0 2,-1 1,0 1,1 1,1 1,0 1,0 2,-1 0,0 0,0 0,0l1 0c0,0 0,0 -1,0 0,0 0,0 0,0 2,1 4,1 6,1 2,0 13,0 15,0 1,-1 0,0 1,0 1,-1 0,-1 0,-2l0 -6c0,-1 0,-1 0,-1 0,0 0,-1 0,-1 0,-1 0,-1 -1,-2l0 0c0,-1 0,-2 0,-3 -1,0 -1,0 -1,0 0,0 0,0 0,-1 -1,0 0,0 0,0 -1,-1 -1,-1 -2,-1l0 -1c1,0 1,0 1,0 0,-1 0,-1 0,-1l-1 0c0,0 0,0 0,0l-1 -2c-1,0 0,0 0,0z"/>
    <path class="fil15" d="M365 1172c1,-1 1,-1 1,-3l0 -38c0,-4 1,-3 -5,-3 -8,0 -7,-1 -7,1l0 42c0,0 0,1 0,1 0,0 10,0 11,0z"/>
    <path class="fil15" d="M297 1128c0,2 0,44 0,44 1,0 1,0 2,0l8 0c1,0 1,0 2,0 0,-1 0,-36 0,-43 0,-2 -1,-1 -2,-1l-9 0c0,0 -1,0 -1,0z"/>
    <path class="fil15" d="M420 1161c-2,0 -2,0 -2,-2 0,0 1,0 1,0 1,0 4,-1 3,1 0,1 -1,1 -2,1zm10 1l0 1c0,1 -1,1 -1,1 0,0 0,1 0,1 0,0 0,1 -1,2 0,1 -1,2 -1,3 -1,1 -2,1 -3,2 -2,1 -4,1 -6,0 -3,0 -5,-3 -6,-5 -1,-2 -1,-3 -1,-4 0,-3 1,-6 2,-7 3,-3 7,-5 10,-3 2,1 4,2 5,5 0,0 1,2 1,3 1,0 0,0 1,0 0,1 0,1 0,1zm-12 6c1,-1 0,-3 0,-4 0,-1 1,-1 1,-1 1,0 1,1 1,1 0,0 0,1 1,1 0,0 0,0 0,0 0,1 0,1 1,2 0,1 1,1 2,1 0,1 0,1 0,1 -1,0 -1,0 -1,1 -2,0 -2,0 -3,0 -2,0 -3,-1 -4,-2 -1,0 -1,0 -1,0 -1,-2 -2,-4 -2,-6 0,-2 1,-4 2,-5 1,-1 1,0 1,-1 1,0 1,0 1,-1 2,-1 4,0 6,1 1,0 2,1 2,1 3,4 2,10 0,11l-1 -1c0,-1 0,-1 -1,-1 -2,-5 1,-2 2,-5 0,-1 0,-3 -1,-3 -1,-1 -2,-1 -3,-1 -1,0 -4,0 -5,0 0,1 0,8 0,10 0,0 0,1 1,1 0,0 1,0 1,0z"/>
    <path class="fil15" d="M300 1108c0,0 -1,1 -2,1 -3,2 -2,9 2,11 2,0 3,1 5,0 2,0 3,-1 4,-3 1,-3 0,-7 -3,-9 -1,0 -4,0 -6,0z"/>
    <path class="fil15" d="M357 1108c-1,0 -3,1 -3,3 -1,1 -1,3 -1,5 2,4 5,5 9,4 2,0 3,-1 3,-3 1,0 1,-1 1,-2 0,-1 0,-2 0,-3 0,-1 0,-1 -1,-2 0,-1 -1,-1 -2,-2 0,0 -1,0 -2,0 -1,0 -3,0 -4,0z"/>
   </g>
   <path class="fil17" d="M835 1047l-138 0 0 139 138 0 0 -139zm-51 21c2,0 3,-1 3,-2 0,-1 -1,-2 -3,-2 -1,0 -2,1 -2,2 0,1 1,2 2,2zm-82 148c-2,0 -4,0 -6,-3l0 5c2,1 3,2 6,2 4,0 7,-2 7,-6 0,-8 -9,-7 -9,-10 0,-2 1,-2 3,-2 1,0 3,0 5,2l0 -5c-2,-1 -4,-1 -6,-1 -4,0 -6,2 -6,6 0,8 9,7 9,10 0,2 -1,2 -3,2zm-5 18l137 0 0 -4 -137 0 0 4zm129 -36l-8 0 0 22 7 0c7,0 10,-5 10,-11 0,-6 -3,-11 -9,-11zm-1 18l0 0 -3 0 0 -14 3 0c4,0 6,3 6,7 0,3 -2,7 -6,7zm-11 0l-8 0 0 -5 8 0 0 -4 -8 0 0 -5 8 0 0 -4 -13 0 0 22 13 0 0 -4zm-17 -18l-5 0 0 22 5 0 0 -22zm-7 22c-2,-6 -3,-9 -5,-10 2,-1 3,-3 3,-6 0,-3 -2,-6 -5,-6l-8 0 0 22 4 0 0 -9 1 0c3,0 3,4 5,9l5 0zm-9 -13l0 0 -2 0 0 -5 2 0c2,0 3,1 3,3 0,1 -1,2 -3,2zm-18 4l8 0 0 -4 -8 0 0 -5 8 0 0 -4 -12 0 0 22 4 0 0 -9zm-16 9c3,0 7,-1 8,-3l0 -9 -7 0 0 4 2 0 0 3c-1,1 -1,1 -2,1 -4,0 -7,-3 -7,-7 0,-3 2,-7 7,-7 2,0 4,1 7,2l0 -4c-2,-1 -5,-2 -7,-2 -7,0 -11,4 -11,11 0,7 4,11 10,11zm-13 -18l0 -4 -13 0 0 22 13 0 0 -4 -9 0 0 -5 9 0 0 -4 -9 0 0 -5 9 0zm-17 18l0 -22 -5 0 0 22 5 0zm55 -89c0,0 7,8 2,18 0,0 -5,8 -16,7 0,0 -7,0 -17,-11 0,0 3,12 15,17 0,0 10,4 21,-1 0,0 13,-5 15,-19 0,0 3,-14 -8,-24l39 0c0,0 1,21 -16,39l0 0c0,0 -14,18 -41,18 0,0 -29,2 -48,-27 0,0 -8,-10 -9,-30l51 0c0,0 4,3 12,13zm12 -13l-24 0c-5,-4 -13,-12 -13,-12 -7,-8 -10,-14 -10,-14 -4,-9 1,-20 1,-20 7,-13 24,-14 24,-14 23,-2 33,9 33,9 -1,2 -4,5 -4,5 -6,4 -10,2 -10,2 -3,0 -7,-2 -9,-3 0,0 0,-1 0,-1 -2,-1 -4,-1 -4,-1 -8,-1 -12,4 -12,4 -9,9 1,19 1,19 7,10 27,26 27,26z"/>
   <path class="fil17" d="M835 1047l-138 0 0 139 138 0 0 -139zm-51 21c2,0 3,-1 3,-2 0,-1 -1,-2 -3,-2 -1,0 -2,1 -2,2 0,1 1,2 2,2zm-82 148c-2,0 -4,0 -6,-3l0 5c2,1 3,2 6,2 4,0 7,-2 7,-6 0,-8 -9,-7 -9,-10 0,-2 1,-2 3,-2 1,0 3,0 5,2l0 -5c-2,-1 -4,-1 -6,-1 -4,0 -6,2 -6,6 0,8 9,7 9,10 0,2 -1,2 -3,2zm-5 18l137 0 0 -4 -137 0 0 4zm129 -36l-8 0 0 22 7 0c7,0 10,-5 10,-11 0,-6 -3,-11 -9,-11zm-1 18l0 0 -3 0 0 -14 3 0c4,0 6,3 6,7 0,3 -2,7 -6,7zm-11 0l-8 0 0 -5 8 0 0 -4 -8 0 0 -5 8 0 0 -4 -13 0 0 22 13 0 0 -4zm-17 -18l-5 0 0 22 5 0 0 -22zm-7 22c-2,-6 -3,-9 -5,-10 2,-1 3,-3 3,-6 0,-3 -2,-6 -5,-6l-8 0 0 22 4 0 0 -9 1 0c3,0 3,4 5,9l5 0zm-9 -13l0 0 -2 0 0 -5 2 0c2,0 3,1 3,3 0,1 -1,2 -3,2zm-18 4l8 0 0 -4 -8 0 0 -5 8 0 0 -4 -12 0 0 22 4 0 0 -9zm-16 9c3,0 7,-1 8,-3l0 -9 -7 0 0 4 2 0 0 3c-1,1 -1,1 -2,1 -4,0 -7,-3 -7,-7 0,-3 2,-7 7,-7 2,0 4,1 7,2l0 -4c-2,-1 -5,-2 -7,-2 -7,0 -11,4 -11,11 0,7 4,11 10,11zm-13 -18l0 -4 -13 0 0 22 13 0 0 -4 -9 0 0 -5 9 0 0 -4 -9 0 0 -5 9 0zm-17 18l0 -22 -5 0 0 22 5 0zm55 -89c0,0 7,8 2,18 0,0 -5,8 -16,7 0,0 -7,0 -17,-11 0,0 3,12 15,17 0,0 10,4 21,-1 0,0 13,-5 15,-19 0,0 3,-14 -8,-24l39 0c0,0 1,21 -16,39l0 0c0,0 -14,18 -41,18 0,0 -29,2 -48,-27 0,0 -8,-10 -9,-30l51 0c0,0 4,3 12,13zm12 -13l-24 0c-5,-4 -13,-12 -13,-12 -7,-8 -10,-14 -10,-14 -4,-9 1,-20 1,-20 7,-13 24,-14 24,-14 23,-2 33,9 33,9 -1,2 -4,5 -4,5 -6,4 -10,2 -10,2 -3,0 -7,-2 -9,-3 0,0 0,-1 0,-1 -2,-1 -4,-1 -4,-1 -8,-1 -12,4 -12,4 -9,9 1,19 1,19 7,10 27,26 27,26z"/>
   <g>
    <path class="fil18" d="M1335 1140c-1,-11 8,-21 18,-21 12,0 20,9 19,21l-37 0zm-34 0c0,-5 0,-15 0,-20 0,-7 4,-6 12,-6l0 -11c-31,-2 -22,13 -24,37l-9 0 0 10 9 0 0 32 12 0 0 -32 21 0c1,17 11,30 27,32 19,1 32,-8 34,-24l-11 0c-3,16 -37,22 -38,-9l50 0c2,-24 -11,-44 -36,-40 -12,2 -18,8 -22,17 -1,3 -2,5 -2,8 -2,7 1,6 -23,6z"/>
    <path class="fil18" d="M1206 1146c0,12 0,17 -7,22 -24,15 -36,-12 -18,-17 1,-1 24,-5 25,-5zm-32 -13c2,-8 4,-12 14,-13 8,-1 16,1 17,8 4,17 -19,7 -35,16 -13,7 -13,25 -2,35 5,3 15,4 22,3 9,-2 11,-6 16,-11 3,5 1,13 16,11 0,-11 0,-8 -4,-10 -3,-27 6,-52 -12,-60 -8,-4 -20,-3 -29,0 -9,3 -14,9 -14,21l11 0z"/>
    <path class="fil18" d="M1101 1157c-1,9 4,16 9,20 5,4 14,6 22,5 16,0 31,-12 25,-30 -4,-13 -30,-11 -38,-18 -5,-3 -5,-14 9,-14 18,0 12,9 17,11l11 0c-2,-28 -42,-27 -51,-10 -4,7 -3,16 2,21 12,12 38,7 38,18 1,9 -9,11 -17,11 -10,-1 -13,-5 -15,-14l-12 0z"/>
    <path class="fil18" d="M1236 1182c3,-19 -7,-56 15,-57 22,-2 11,30 14,57l12 0c1,-9 1,-50 -2,-57 -6,-13 -27,-14 -36,-7l-4 4 0 -7c-3,0 -8,1 -11,1l0 66 12 0z"/>
    <path class="fil18" d="M1401 1181c2,-34 -9,-60 21,-60l0 -13c-12,0 -16,6 -22,13l0 -10 -11 0 0 70 12 0z"/>
    <path class="fil19" d="M1439 1099c1,0 3,0 4,1 2,1 3,2 4,3 1,2 1,3 1,5 0,2 0,3 -1,5 -1,1 -2,2 -4,3 -1,1 -3,1 -4,1 -2,0 -3,0 -5,-1 -1,-1 -2,-2 -3,-3 -1,-2 -1,-3 -1,-5 0,-2 0,-3 1,-5 1,-1 2,-2 3,-3 2,-1 3,-1 5,-1zm0 2c-1,0 -3,0 -4,1 -1,0 -2,1 -2,2 -1,1 -1,3 -1,4 0,1 0,3 1,4 0,1 1,2 2,2 1,1 3,1 4,1 1,0 2,0 4,-1 1,0 2,-1 2,-2 1,-1 1,-3 1,-4 0,-1 0,-3 -1,-4 0,-1 -1,-2 -2,-2 -2,-1 -3,-1 -4,-1zm-4 12l0 -10 2 0c2,0 3,0 3,0 0,0 1,0 1,1 1,0 1,0 1,1 0,0 1,0 1,1 0,1 -1,1 -1,2 -1,0 -1,1 -2,1 0,0 1,0 1,0 0,0 0,0 0,1 0,0 1,0 1,1l1 2 -2 0 -1 -2c-1,-1 -1,-1 -1,-2 -1,0 -1,0 -2,0l0 0 0 4 -2 0zm2 -6l1 0c1,0 1,0 2,0 0,0 0,0 0,0 0,0 1,-1 1,-1 0,0 -1,0 -1,-1 0,0 0,0 0,0 -1,0 -1,0 -2,0l-1 0 0 2z"/>
   </g>
   <g>
    <path class="fil18" d="M1335 1140c-1,-11 8,-21 18,-21 12,0 20,9 19,21l-37 0zm-34 0c0,-5 0,-15 0,-20 0,-7 4,-6 12,-6l0 -11c-31,-2 -22,13 -24,37l-9 0 0 10 9 0 0 32 12 0 0 -32 21 0c1,17 11,30 27,32 19,1 32,-8 34,-24l-11 0c-3,16 -37,22 -38,-9l50 0c2,-24 -11,-44 -36,-40 -12,2 -18,8 -22,17 -1,3 -2,5 -2,8 -2,7 1,6 -23,6z"/>
    <path class="fil18" d="M1206 1146c0,12 0,17 -7,22 -24,15 -36,-12 -18,-17 1,-1 24,-5 25,-5zm-32 -13c2,-8 4,-12 14,-13 8,-1 16,1 17,8 4,17 -19,7 -35,16 -13,7 -13,25 -2,35 5,3 15,4 22,3 9,-2 11,-6 16,-11 3,5 1,13 16,11 0,-11 0,-8 -4,-10 -3,-27 6,-52 -12,-60 -8,-4 -20,-3 -29,0 -9,3 -14,9 -14,21l11 0z"/>
    <path class="fil18" d="M1101 1157c-1,9 4,16 9,20 5,4 14,6 22,5 16,0 31,-12 25,-30 -4,-13 -30,-11 -38,-18 -5,-3 -5,-14 9,-14 18,0 12,9 17,11l11 0c-2,-28 -42,-27 -51,-10 -4,7 -3,16 2,21 12,12 38,7 38,18 1,9 -9,11 -17,11 -10,-1 -13,-5 -15,-14l-12 0z"/>
    <path class="fil18" d="M1236 1182c3,-19 -7,-56 15,-57 22,-2 11,30 14,57l12 0c1,-9 1,-50 -2,-57 -6,-13 -27,-14 -36,-7l-4 4 0 -7c-3,0 -8,1 -11,1l0 66 12 0z"/>
    <path class="fil18" d="M1401 1181c2,-34 -9,-60 21,-60l0 -13c-12,0 -16,6 -22,13l0 -10 -11 0 0 70 12 0z"/>
    <path class="fil19" d="M1439 1099c1,0 3,0 4,1 2,1 3,2 4,3 1,2 1,3 1,5 0,2 0,3 -1,5 -1,1 -2,2 -4,3 -1,1 -3,1 -4,1 -2,0 -3,0 -5,-1 -1,-1 -2,-2 -3,-3 -1,-2 -1,-3 -1,-5 0,-2 0,-3 1,-5 1,-1 2,-2 3,-3 2,-1 3,-1 5,-1zm0 2c-1,0 -3,0 -4,1 -1,0 -2,1 -2,2 -1,1 -1,3 -1,4 0,1 0,3 1,4 0,1 1,2 2,2 1,1 3,1 4,1 1,0 2,0 4,-1 1,0 2,-1 2,-2 1,-1 1,-3 1,-4 0,-1 0,-3 -1,-4 0,-1 -1,-2 -2,-2 -2,-1 -3,-1 -4,-1zm-4 12l0 -10 2 0c2,0 3,0 3,0 0,0 1,0 1,1 1,0 1,0 1,1 0,0 1,0 1,1 0,1 -1,1 -1,2 -1,0 -1,1 -2,1 0,0 1,0 1,0 0,0 0,0 0,1 0,0 1,0 1,1l1 2 -2 0 -1 -2c-1,-1 -1,-1 -1,-2 -1,0 -1,0 -2,0l0 0 0 4 -2 0zm2 -6l1 0c1,0 1,0 2,0 0,0 0,0 0,0 0,0 1,-1 1,-1 0,0 -1,0 -1,-1 0,0 0,0 0,0 -1,0 -1,0 -2,0l-1 0 0 2z"/>
   </g>
   <path class="fil20" d="M1783 1082c-113,0 -173,81 -173,81l25 16c0,0 3,-7 10,-18 0,3 0,5 0,5 4,34 37,33 37,33l203 0c0,0 33,1 38,-33 0,0 0,-2 0,-4 7,10 10,17 10,17l24 -16c0,0 -61,-81 -174,-81zm108 84c0,0 -2,1 -3,0 -1,-1 0,-2 0,-2l9 -20 -9 0 -1 3c-6,-5 -16,-2 -22,4 -4,4 -6,9 -7,12 -1,1 -2,2 -5,3 0,0 -2,1 -3,0 -1,-1 0,-3 0,-3l17 -33 -10 0 -8 17c-6,-5 -16,-3 -22,4 -2,1 -3,3 -4,4l0 0c0,0 0,0 0,1 0,0 0,0 0,1 -6,8 -12,10 -12,10 -13,4 -15,-3 -15,-3 15,-5 21,-12 20,-17 0,-5 -7,-5 -7,-5 -11,-1 -21,7 -24,15 0,2 0,5 0,7 -5,2 -7,3 -7,3 -4,1 -4,-1 -5,-2 0,-1 -2,-11 -2,-11l16 -10 -10 0 -12 7c-2,1 -1,-1 -1,-1l9 -20 -9 0 -16 32c-2,1 -5,3 -8,4 0,0 -2,1 -3,0 -1,-1 0,-3 0,-3l9 -19 -9 0 -2 3c-5,-5 -15,-3 -22,4 -6,7 -8,15 -3,20 3,3 9,2 15,-1 0,0 1,-2 2,0 1,1 4,5 12,2 2,-1 4,-2 6,-3l-2 4 9 0 5 -10 4 -3c0,0 1,0 2,2 0,0 2,8 3,9 0,1 2,3 8,1 5,-1 10,-3 13,-4 2,3 6,5 13,5 10,0 17,-5 21,-8 0,2 1,4 2,6 3,3 10,2 15,-1 0,0 2,-2 2,0 1,1 4,5 12,2 3,-2 6,-3 7,-4 0,1 1,2 2,3 3,3 10,2 15,-1 0,0 2,-2 2,0 1,1 4,5 12,2 7,-3 9,-6 9,-6l-1 -3c-1,0 -3,2 -7,3zm-162 -5l0 0c-3,4 -8,7 -10,5 -2,-2 -2,-7 2,-11 3,-5 7,-7 10,-6 2,2 2,7 -2,12zm67 -4l0 0c0,0 2,-7 8,-9 0,0 2,-1 3,0 0,0 2,1 0,4 -1,2 -5,6 -9,8 0,0 -4,1 -2,-3zm47 4l0 0c-4,4 -8,7 -11,5 -2,-2 -1,-7 2,-11 3,-5 8,-7 10,-6 3,2 2,7 -1,12zm38 0l0 0c-4,4 -8,7 -11,5 -2,-2 -1,-7 2,-11 3,-5 8,-7 10,-5 3,1 2,6 -1,11zm-157 -24l3 -7 -43 0 -3 7 16 0 -17 36 11 0 18 -36 15 0zm194 28c0,0 -5,26 -33,26l-203 0c-29,0 -33,-26 -33,-26 -1,-7 1,-11 3,-15 20,-27 61,-63 131,-63 71,0 112,37 132,64 3,3 4,8 3,14z"/>
   <path class="fil20" d="M1783 1082c-113,0 -173,81 -173,81l25 16c0,0 3,-7 10,-18 0,3 0,5 0,5 4,34 37,33 37,33l203 0c0,0 33,1 38,-33 0,0 0,-2 0,-4 7,10 10,17 10,17l24 -16c0,0 -61,-81 -174,-81zm108 84c0,0 -2,1 -3,0 -1,-1 0,-2 0,-2l9 -20 -9 0 -1 3c-6,-5 -16,-2 -22,4 -4,4 -6,9 -7,12 -1,1 -2,2 -5,3 0,0 -2,1 -3,0 -1,-1 0,-3 0,-3l17 -33 -10 0 -8 17c-6,-5 -16,-3 -22,4 -2,1 -3,3 -4,4l0 0c0,0 0,0 0,1 0,0 0,0 0,1 -6,8 -12,10 -12,10 -13,4 -15,-3 -15,-3 15,-5 21,-12 20,-17 0,-5 -7,-5 -7,-5 -11,-1 -21,7 -24,15 0,2 0,5 0,7 -5,2 -7,3 -7,3 -4,1 -4,-1 -5,-2 0,-1 -2,-11 -2,-11l16 -10 -10 0 -12 7c-2,1 -1,-1 -1,-1l9 -20 -9 0 -16 32c-2,1 -5,3 -8,4 0,0 -2,1 -3,0 -1,-1 0,-3 0,-3l9 -19 -9 0 -2 3c-5,-5 -15,-3 -22,4 -6,7 -8,15 -3,20 3,3 9,2 15,-1 0,0 1,-2 2,0 1,1 4,5 12,2 2,-1 4,-2 6,-3l-2 4 9 0 5 -10 4 -3c0,0 1,0 2,2 0,0 2,8 3,9 0,1 2,3 8,1 5,-1 10,-3 13,-4 2,3 6,5 13,5 10,0 17,-5 21,-8 0,2 1,4 2,6 3,3 10,2 15,-1 0,0 2,-2 2,0 1,1 4,5 12,2 3,-2 6,-3 7,-4 0,1 1,2 2,3 3,3 10,2 15,-1 0,0 2,-2 2,0 1,1 4,5 12,2 7,-3 9,-6 9,-6l-1 -3c-1,0 -3,2 -7,3zm-162 -5l0 0c-3,4 -8,7 -10,5 -2,-2 -2,-7 2,-11 3,-5 7,-7 10,-6 2,2 2,7 -2,12zm67 -4l0 0c0,0 2,-7 8,-9 0,0 2,-1 3,0 0,0 2,1 0,4 -1,2 -5,6 -9,8 0,0 -4,1 -2,-3zm47 4l0 0c-4,4 -8,7 -11,5 -2,-2 -1,-7 2,-11 3,-5 8,-7 10,-6 3,2 2,7 -1,12zm38 0l0 0c-4,4 -8,7 -11,5 -2,-2 -1,-7 2,-11 3,-5 8,-7 10,-5 3,1 2,6 -1,11zm-157 -24l3 -7 -43 0 -3 7 16 0 -17 36 11 0 18 -36 15 0zm194 28c0,0 -5,26 -33,26l-203 0c-29,0 -33,-26 -33,-26 -1,-7 1,-11 3,-15 20,-27 61,-63 131,-63 71,0 112,37 132,64 3,3 4,8 3,14z"/>
   <path class="fil21" d="M163 1581c0,0 1,-6 1,-8 1,-2 2,-5 3,-7 3,-11 10,-23 18,-32l4 -5c1,-1 2,-1 3,-2 7,-6 11,-10 20,-15 15,-8 28,-9 29,-10l-78 0 0 79zm155 10l10 0 0 10 -10 0 0 -10zm-74 -13l-1 0c0,-1 -5,-1 -6,-1 -1,0 -5,0 -6,1l0 37c1,0 22,0 25,0l0 75 1 0 0 -75 9 0 0 -37 -9 0 0 -76 -1 0 0 76 -3 0 0 23 -10 0 1 -23zm61 36c0,1 0,1 1,1 5,0 33,0 35,0l0 -37 -23 0 0 -21 -14 0 1 57zm-20 -23c2,0 14,0 16,0l-1 -13 -29 0c0,1 0,36 0,37l30 0 0 -14c-3,0 -13,0 -16,0l0 -10zm-14 99l79 0 0 -79c0,1 0,2 0,2 -4,19 -13,37 -27,50l-3 4c-1,0 -1,1 -2,1 -2,2 -3,3 -5,5 -8,5 -17,10 -26,13 -3,1 -5,2 -8,2 -1,1 -7,2 -8,2zm-108 0l78 0c-1,-1 -15,-2 -29,-10 -2,-1 -4,-2 -6,-4 -3,-1 -4,-2 -6,-4 -2,-1 -7,-5 -8,-6 -1,-1 -1,-1 -2,-2l-2 -2c-1,-1 -1,-1 -1,-1l-5 -6c-7,-9 -12,-17 -16,-28 0,-3 -1,-5 -2,-8 0,-1 -1,-7 -1,-8l0 79zm187 -109l0 -79 -79 0c1,1 4,1 4,1 15,3 29,10 40,19l6 5c1,0 1,1 2,2 7,7 12,14 17,23 2,4 4,9 6,13 1,3 2,5 2,8l2 8z"/>
   <path class="fil21" d="M163 1581c0,0 1,-6 1,-8 1,-2 2,-5 3,-7 3,-11 10,-23 18,-32l4 -5c1,-1 2,-1 3,-2 7,-6 11,-10 20,-15 15,-8 28,-9 29,-10l-78 0 0 79zm155 10l10 0 0 10 -10 0 0 -10zm-74 -13l-1 0c0,-1 -5,-1 -6,-1 -1,0 -5,0 -6,1l0 37c1,0 22,0 25,0l0 75 1 0 0 -75 9 0 0 -37 -9 0 0 -76 -1 0 0 76 -3 0 0 23 -10 0 1 -23zm61 36c0,1 0,1 1,1 5,0 33,0 35,0l0 -37 -23 0 0 -21 -14 0 1 57zm-20 -23c2,0 14,0 16,0l-1 -13 -29 0c0,1 0,36 0,37l30 0 0 -14c-3,0 -13,0 -16,0l0 -10zm-14 99l79 0 0 -79c0,1 0,2 0,2 -4,19 -13,37 -27,50l-3 4c-1,0 -1,1 -2,1 -2,2 -3,3 -5,5 -8,5 -17,10 -26,13 -3,1 -5,2 -8,2 -1,1 -7,2 -8,2zm-108 0l78 0c-1,-1 -15,-2 -29,-10 -2,-1 -4,-2 -6,-4 -3,-1 -4,-2 -6,-4 -2,-1 -7,-5 -8,-6 -1,-1 -1,-1 -2,-2l-2 -2c-1,-1 -1,-1 -1,-1l-5 -6c-7,-9 -12,-17 -16,-28 0,-3 -1,-5 -2,-8 0,-1 -1,-7 -1,-8l0 79zm187 -109l0 -79 -79 0c1,1 4,1 4,1 15,3 29,10 40,19l6 5c1,0 1,1 2,2 7,7 12,14 17,23 2,4 4,9 6,13 1,3 2,5 2,8l2 8z"/>
   <rect class="fil22 str0" x="2" y="2" width="509" height="456"/>
   <rect class="fil22 str0" x="511" y="2" width="509" height="456"/>
   <rect class="fil22 str0" x="511" y="2" width="509" height="456"/>
   <rect class="fil22 str0" x="1529" y="2" width="509" height="456"/>
   <rect class="fil22 str0" x="2" y="457" width="509" height="456"/>
   <rect class="fil22 str0" x="1020" y="2" width="509" height="456"/>
   <rect class="fil22 str0" x="1020" y="2" width="509" height="456"/>
   <rect class="fil22 str0" x="511" y="457" width="509" height="456"/>
   <rect class="fil22 str0" x="1020" y="457" width="509" height="456"/>
   <rect class="fil22 str0" x="1529" y="457" width="509" height="456"/>
   <rect class="fil22 str0" x="2" y="913" width="509" height="456"/>
   <rect class="fil22 str0" x="1020" y="913" width="509" height="456"/>
   <rect class="fil22 str0" x="1529" y="913" width="509" height="456"/>
   <rect class="fil22 str0" x="511" y="913" width="509" height="456"/>
   <rect class="fil22 str0" x="2" y="1368" width="509" height="456"/>
   <rect class="fil22 str1" x="2" y="2" width="509" height="456"/>
   <rect class="fil22 str1" x="1529" y="2" width="509" height="456"/>
   <rect class="fil22 str1" x="2" y="457" width="509" height="456"/>
   <rect class="fil22 str1" x="511" y="457" width="509" height="456"/>
   <rect class="fil22 str1" x="1020" y="457" width="509" height="456"/>
   <rect class="fil22 str1" x="1529" y="457" width="509" height="456"/>
   <rect class="fil22 str1" x="2" y="913" width="509" height="456"/>
   <rect class="fil22 str1" x="1020" y="913" width="509" height="456"/>
   <rect class="fil22 str1" x="1529" y="913" width="509" height="456"/>
   <rect class="fil22 str1" x="511" y="913" width="509" height="456"/>
   <rect class="fil22 str1" x="2" y="1368" width="509" height="456"/>
   <g>
    <path id="path64136" class="fil23" d="M83 708l27 -47 26 47 -53 0 0 0zm27 -45l-25 44 50 0 -25 -44 0 0zm2 42c-4,0 -9,0 -13,-1l-6 -11 1 0c1,2 2,3 3,5 3,4 7,5 12,5 4,0 9,-1 9,-6 0,-4 -3,-5 -6,-6 -2,-1 -4,-1 -6,-2 -3,-1 -5,-3 -5,-6 0,-4 3,-8 7,-8 4,0 7,1 7,1l6 9 -1 0c-1,-2 -3,-4 -5,-6 -2,-1 -4,-2 -6,-2 -3,0 -5,1 -5,4 0,3 4,3 7,4l4 1c5,1 10,3 10,10 0,7 -7,9 -13,9l0 0zm66 4c-7,0 -13,-2 -18,-5l5 -12c4,2 7,4 11,4 2,0 4,0 4,-2 0,-2 -2,-2 -4,-3 -5,-1 -14,-3 -14,-14 0,-11 9,-15 19,-15 5,0 11,2 15,4l-5 12c0,0 -4,-4 -8,-4 -3,0 -4,1 -4,2 0,2 2,3 3,3 6,2 14,3 14,14 0,12 -8,16 -18,16l0 0zm49 -1l-2 -6 -12 0 -1 6 -17 0 16 -45 18 0 14 45 -16 0 0 0zm-8 -31l-4 14 8 0 -4 -14 0 0zm55 31l-14 -22 0 22 -15 0 0 -45 15 0 14 22 0 -22 15 0 0 45 -15 0 0 0zm37 0l-5 0 -12 0 0 -45 12 0 5 0c14,0 25,5 25,22 0,17 -10,23 -25,23l0 0zm1 -32l-2 0 0 18 2 0c5,0 8,-2 8,-8 0,-6 -2,-10 -8,-10l0 0zm50 33c-13,0 -24,-9 -24,-24 0,-14 10,-23 24,-23 14,0 25,9 25,23 0,14 -9,24 -25,24l0 0zm1 -32c-6,0 -9,3 -9,8 0,6 4,9 9,9 5,0 8,-3 8,-9 0,-5 -3,-8 -8,-8l0 0zm48 17l17 0 0 14 -43 0 19 -32 -15 0 0 -13 41 0 -19 31z"/>
   </g>
   <g>
    <path id="path64136_0" class="fil23" d="M83 708l27 -47 26 47 -53 0 0 0zm27 -45l-25 44 50 0 -25 -44 0 0zm2 42c-4,0 -9,0 -13,-1l-6 -11 1 0c1,2 2,3 3,5 3,4 7,5 12,5 4,0 9,-1 9,-6 0,-4 -3,-5 -6,-6 -2,-1 -4,-1 -6,-2 -3,-1 -5,-3 -5,-6 0,-4 3,-8 7,-8 4,0 7,1 7,1l6 9 -1 0c-1,-2 -3,-4 -5,-6 -2,-1 -4,-2 -6,-2 -3,0 -5,1 -5,4 0,3 4,3 7,4l4 1c5,1 10,3 10,10 0,7 -7,9 -13,9l0 0zm66 4c-7,0 -13,-2 -18,-5l5 -12c4,2 7,4 11,4 2,0 4,0 4,-2 0,-2 -2,-2 -4,-3 -5,-1 -14,-3 -14,-14 0,-11 9,-15 19,-15 5,0 11,2 15,4l-5 12c0,0 -4,-4 -8,-4 -3,0 -4,1 -4,2 0,2 2,3 3,3 6,2 14,3 14,14 0,12 -8,16 -18,16l0 0zm49 -1l-2 -6 -12 0 -1 6 -17 0 16 -45 18 0 14 45 -16 0 0 0zm-8 -31l-4 14 8 0 -4 -14 0 0zm55 31l-14 -22 0 22 -15 0 0 -45 15 0 14 22 0 -22 15 0 0 45 -15 0 0 0zm37 0l-5 0 -12 0 0 -45 12 0 5 0c14,0 25,5 25,22 0,17 -10,23 -25,23l0 0zm1 -32l-2 0 0 18 2 0c5,0 8,-2 8,-8 0,-6 -2,-10 -8,-10l0 0zm50 33c-13,0 -24,-9 -24,-24 0,-14 10,-23 24,-23 14,0 25,9 25,23 0,14 -9,24 -25,24l0 0zm1 -32c-6,0 -9,3 -9,8 0,6 4,9 9,9 5,0 8,-3 8,-9 0,-5 -3,-8 -8,-8l0 0zm48 17l17 0 0 14 -43 0 19 -32 -15 0 0 -13 41 0 -19 31z"/>
   </g>
  </g>
 </g>
</svg>
