<?xml version="1.0" encoding="UTF-8"?>
<!DOCTYPE svg PUBLIC "-//W3C//DTD SVG 1.0//EN" "http://www.w3.org/TR/2001/REC-SVG-20010904/DTD/svg10.dtd">
<!-- Creator: CorelDRAW X8 -->
<svg xmlns="http://www.w3.org/2000/svg" xml:space="preserve" width="2040px" height="1370px" version="1.0" style="shape-rendering:geometricPrecision; text-rendering:geometricPrecision; image-rendering:optimizeQuality; fill-rule:evenodd; clip-rule:evenodd"
viewBox="0 0 2040 1370"
 xmlns:xlink="http://www.w3.org/1999/xlink">
 <defs>
  <style type="text/css">
   <![CDATA[
    .str0 {stroke:#E6E6E6;stroke-width:3.5441}
    .fil1 {fill:none}
    .fil3 {fill:black}
    .fil10 {fill:#005494}
    .fil12 {fill:#008752}
    .fil11 {fill:#010101}
    .fil2 {fill:#133D54}
    .fil4 {fill:#133E53}
    .fil5 {fill:#1880C3}
    .fil0 {fill:#265499}
    .fil7 {fill:#2A2927}
    .fil9 {fill:#2C2B29}
    .fil6 {fill:#332B66}
    .fil8 {fill:#DE2127}
    .fil13 {fill:#0077BD;fill-rule:nonzero}
    .fil14 {fill:#0075BB;fill-rule:nonzero}
   ]]>
  </style>
 </defs>
 <g id="Capa_x0020_1">
  <metadata id="CorelCorpID_0Corel-Layer"/>
  <g id="_2486009412832">
   <path class="fil0" d="M1615 700l41 0 0 -6 -30 0 1 -8 26 0 0 -6 -26 0 -1 -6 29 0 0 -6 -40 0 0 32zm372 -27l7 15 -13 0 6 -15zm-17 29l5 0c5,-13 2,-10 21,-10l5 10 6 0c-2,-6 -11,-22 -15,-30 0,-1 -1,-2 -1,-2 -1,-2 -4,-3 -5,-2 -3,0 -16,33 -16,34zm-112 -29l6 15 -12 0 6 -15zm-18 29l5 0c2,-3 3,-8 6,-10l14 0c3,2 3,5 4,7 2,5 3,4 8,3l-16 -34 -5 0c-2,1 -15,30 -16,34zm-68 -30l11 0c5,0 9,1 8,7 0,5 -5,5 -10,5l-9 0 0 -12zm-5 28l0 2 5 0 0 -13c8,-2 19,2 24,-6 5,-10 -3,-15 -13,-15l-16 0 0 32zm37 0l0 2 5 0 0 -16 21 0 0 16 5 0 0 -34 -5 0 0 14 -21 0 0 -14 -5 0 0 32zm-94 -3l0 3 37 0 0 -6 -26 0 0 -25 -11 -1 0 29zm-45 0l0 3 37 0c0,-8 4,-6 -26,-6l0 -26 -11 0 0 29zm222 -25c4,0 8,0 12,0 12,0 11,10 2,11 -4,0 -10,0 -14,0l0 -11zm-6 30l6 1 0 -16c13,0 11,0 19,11 2,2 3,3 4,4l6 0c-2,-4 -9,-13 -13,-15 4,-2 7,-2 9,-6 3,-4 0,-9 -2,-11 -4,-3 -24,-3 -29,-2l0 34zm-320 -18c0,21 41,21 45,6 -2,-1 -7,-2 -10,-2 -5,10 -23,9 -24,-3 -1,-7 3,-10 9,-11 7,-1 11,0 15,4l10 -1c0,0 0,-1 0,-1 -2,-11 -45,-14 -45,8zm360 16l0 2 6 0 0 -28c3,5 12,27 15,28 6,2 6,-4 11,-13 3,-5 5,-10 7,-14l0 27 6 0 0 -34 -8 0c-2,5 -4,9 -7,14 -2,5 -4,10 -7,14 -4,-5 -11,-27 -14,-28l-9 0 0 32z"/>
   <rect class="fil1 str0" x="2" y="2" width="509" height="456"/>
   <rect class="fil1 str0" x="511" y="2" width="509" height="456"/>
   <rect class="fil1 str0" x="1020" y="2" width="509" height="456"/>
   <rect class="fil1 str0" x="1529" y="2" width="509" height="456"/>
   <rect class="fil1 str0" x="2" y="457" width="509" height="456"/>
   <rect class="fil1 str0" x="511" y="457" width="509" height="456"/>
   <rect class="fil1 str0" x="1529" y="457" width="509" height="456"/>
   <rect class="fil1 str0" x="2" y="913" width="509" height="456"/>
   <rect class="fil1 str0" x="1020" y="457" width="509" height="456"/>
   <g>
    <path class="fil2" d="M240 189c0,-14 16,-21 27,-12 10,9 4,28 -9,28 -6,0 -10,-1 -14,-5 -2,-3 -4,-7 -4,-11zm15 -34l4 0c19,0 38,19 39,34l-14 0c-3,39 -55,34 -55,0l-15 0c1,-2 1,-5 2,-7 4,-11 12,-19 22,-23 7,-4 11,-4 17,-4z"/>
    <path class="fil3" d="M243 297l-9 0 0 -19c6,0 7,-1 11,0 1,4 4,19 -2,19zm-16 -36l-1 38c0,2 -1,4 9,4 15,0 19,1 19,-18 0,-16 -8,-14 -20,-14 0,-15 0,-10 -7,-10z"/>
    <path class="fil3" d="M117 293c0,-1 0,0 0,-2 5,-2 6,-1 12,-1l0 7c-3,0 -12,3 -12,-4zm-5 -21c0,7 -3,6 15,6 2,3 2,2 2,7 -8,0 -20,-2 -20,8 0,12 9,10 18,10 12,0 9,-1 9,-21 0,-14 -15,-11 -24,-10z"/>
    <path class="fil3" d="M201 295c0,-6 1,-5 12,-5l0 7c-1,0 -12,2 -12,-2zm-5 -21c0,5 1,4 7,4 5,0 6,0 9,0l1 7c-17,0 -19,-1 -19,12 0,8 13,6 18,6 4,0 5,-1 8,-1 0,-7 0,-13 0,-20 1,-12 -8,-11 -19,-11 -2,0 -5,0 -5,3z"/>
    <path class="fil3" d="M300 293c0,-4 5,-3 11,-3l0 7c-10,1 0,1 -11,0 0,-2 0,-2 0,-4zm-5 -21c0,6 -1,6 6,6 11,0 10,-1 10,7 -12,0 -19,-2 -19,10 0,10 9,8 18,8 3,0 6,0 9,-1 0,-7 0,-13 0,-20 0,-12 -7,-11 -19,-11 -3,0 -3,0 -5,1z"/>
    <path class="fil3" d="M142 274l0 27c0,3 2,2 7,2l0 -26c3,1 8,1 12,1 4,8 -2,25 3,25l6 0 0 -23c0,-11 -12,-9 -21,-9 -3,0 -7,0 -7,3z"/>
    <path class="fil3" d="M393 299l-11 0 0 -23c12,0 17,-2 17,11 0,6 -1,12 -6,12zm-15 -38l0 42c10,1 24,4 25,-8 2,-24 -3,-23 -21,-23 0,-11 2,-13 -4,-11z"/>
    <path class="fil4" d="M274 221l0 16c6,-1 13,-8 17,-13 6,-8 8,-15 8,-26 -9,0 -6,0 -9,7 -4,7 -9,12 -16,16z"/>
    <path class="fil2" d="M238 237l0 -16c-8,-4 -17,-14 -18,-23l-7 0c0,13 7,27 15,33 2,2 7,5 10,6z"/>
    <path class="fil3" d="M177 264l0 7c-4,0 -4,0 -4,4 0,2 1,2 4,2 0,26 -2,26 13,26 3,0 3,-6 0,-6l-5 0 0 -20 6 0 0 -6 -6 0c0,-12 1,-11 -4,-10 -2,0 -4,0 -4,3z"/>
    <path class="fil3" d="M83 282c0,22 0,21 20,21 4,0 4,-1 4,-4 0,-4 -6,-2 -10,-2 -8,0 -7,-3 -7,-13 0,-6 1,-6 7,-6 7,0 10,1 10,-4 0,-4 -8,-3 -14,-3 -7,0 -10,5 -10,11z"/>
    <path class="fil3" d="M352 291c5,-2 8,-1 14,-1 0,11 2,9 -11,9 -5,0 -5,-5 -3,-8zm-3 -16c7,4 17,-5 17,11 -17,0 -20,-1 -20,11 0,3 2,5 4,6 4,1 21,2 21,-3 0,-23 2,-28 -16,-28 -6,0 -6,1 -6,3z"/>
    <path class="fil3" d="M408 278c0,12 9,9 15,14 4,2 2,3 2,7 -9,2 -18,-2 -18,2 0,3 3,2 6,3 3,0 17,2 17,-6 0,-11 0,-7 -14,-14 -5,-2 -4,-8 2,-8l11 0 0 -4c-5,0 -21,-3 -21,6z"/>
    <path class="fil3" d="M259 278l0 23c0,3 2,2 7,2 0,-31 -1,-25 8,-25 5,0 3,-2 3,-6 -5,-2 -18,-3 -18,6z"/>
    <path class="fil3" d="M281 303c10,0 7,5 7,-30 0,-3 -2,-2 -7,-2l0 32z"/>
    <path class="fil3" d="M336 263l0 40 5 0 0 -43c-2,1 -5,0 -5,3z"/>
    <path class="fil2" d="M249 189c0,8 14,10 14,-1 0,-9 -14,-8 -14,1z"/>
    <path class="fil3" d="M283 267l5 -1c1,-5 1,-7 -5,-7 -4,0 -4,8 0,8z"/>
   </g>
   <g>
    <path class="fil5" d="M730 212l0 26c0,5 10,5 10,0l0 -26 17 0c4,0 5,0 8,0l0 27c0,3 9,5 9,-1l0 -26 25 0 0 26c0,6 9,4 9,0l0 -26c0,-13 -21,-10 -29,-10 -6,0 -4,3 -10,3 -3,0 -3,-3 -9,-3 -10,0 -18,-2 -25,3 -1,1 -5,6 -5,7z"/>
    <path class="fil5" d="M828 212l38 0 0 6 -38 0 0 -6zm-10 1c0,20 -3,19 8,26 6,4 17,5 23,2l0 -7c-7,2 -21,1 -21,-8l44 0c3,0 2,-5 2,-13 0,-4 -2,-6 -4,-7 -2,-2 -6,-4 -8,-4l-29 0c-6,0 -15,7 -15,11z"/>
    <path class="fil5" d="M647 228c0,-2 2,-7 6,-7l36 0 0 13 -36 0c-3,0 -6,-3 -6,-6zm22 -24l0 5c5,0 8,1 12,1 5,0 8,0 8,5 -4,-2 -28,-1 -34,-1 -22,0 -20,29 -3,29l33 0c7,0 13,-7 13,-15 0,-17 3,-21 -7,-24 -8,-3 -12,-2 -20,-2 -1,0 -2,0 -2,2z"/>
    <path class="fil5" d="M909 216c-4,-2 -20,-14 -23,-14 -1,0 -1,0 -3,0 -3,6 4,9 13,15 1,1 1,1 2,2 2,1 2,1 4,2l-20 14c-3,4 1,9 6,6l7 -5c3,-2 4,-3 7,-5 2,-1 6,-4 7,-5l18 13c2,1 6,4 7,4 4,0 7,-5 0,-10 -2,-1 -4,-2 -6,-4 -2,-1 -10,-6 -12,-8 3,-1 9,-6 11,-8 3,-1 11,-6 10,-9 -1,-1 -1,-3 -4,-3 -3,0 -21,14 -24,15z"/>
    <path class="fil5" d="M620 195l0 7c-4,0 -8,-1 -8,4 0,5 6,4 8,4l0 28c0,5 8,5 8,-1l0 -27c5,0 14,1 16,-1 3,-2 2,-7 -1,-7l-15 0c0,-6 1,-10 -5,-10 -2,0 -3,1 -3,3z"/>
    <path class="fil5" d="M594 196l0 41c0,6 8,6 8,1l0 -43c0,-4 -8,-5 -8,1z"/>
    <path class="fil5" d="M710 195l0 43c0,5 8,5 8,-1l0 -41c0,-6 -8,-5 -8,-1z"/>
    <path class="fil6" d="M851 267l3 0 0 -8c2,0 5,7 6,8 3,0 3,-1 5,-4 1,-2 1,-3 3,-5l0 9 2 0 0 -13c0,0 -1,0 -2,0 -2,1 -1,1 -3,4 -1,3 -3,4 -3,6 -2,-1 -4,-5 -6,-7 -1,-3 0,-3 -5,-3l0 13z"/>
    <path class="fil6" d="M790 256l9 0 0 3 -9 0 0 -3zm-3 10l3 0 0 -6c2,1 3,2 5,4 2,1 2,2 6,2 -2,-3 -5,-3 -6,-6 6,0 6,1 6,-4 0,-3 -6,-2 -14,-2l0 12z"/>
    <path class="fil6" d="M656 267c4,0 3,1 3,-6l10 0 0 6 3 0 0 -13 -3 0 0 6 -10 0 0 -6 -3 0 0 13z"/>
    <path class="fil6" d="M728 257l1 0c0,1 2,3 2,4l-5 0c0,-1 2,-3 2,-4zm-8 10c3,0 1,1 3,-1 2,-3 -1,-3 8,-3 2,0 2,1 3,3 1,1 1,1 3,1 0,-1 -6,-13 -8,-13 -4,0 -5,5 -8,10 -1,1 -1,2 -1,3z"/>
    <path class="fil6" d="M929 256c2,1 3,4 4,5l-6 0c1,-2 2,-2 2,-5zm-8 11c3,0 2,1 3,-1 2,-3 0,-3 9,-3 4,0 0,4 6,4l-6 -10c-1,-2 0,-3 -4,-3 -2,0 -3,3 -4,6 -1,2 -4,5 -4,7z"/>
    <path class="fil6" d="M600 260l-5 0 0 -4 6 0c2,0 2,1 3,1 -1,2 -2,3 -4,3zm-8 6c0,2 1,1 3,1l0 -5c18,0 10,-8 6,-8l-9 0 0 12z"/>
   </g>
   <g>
    <path class="fil7" d="M1211 269c1,0 0,0 1,0 0,0 0,0 1,0l92 0c10,0 21,-1 31,0 1,0 1,0 1,0 0,1 -1,0 0,0l0 0c0,0 0,0 0,0 1,2 1,25 0,27 -10,0 -21,0 -31,0l-79 0c-5,0 -11,1 -16,0 -3,0 -26,0 -31,0 -5,0 -28,0 -31,0 0,4 0,25 1,27 0,0 3,0 3,0 30,0 244,0 245,0 1,0 1,0 1,-2 0,0 0,-1 0,-1 0,-3 0,-22 0,-23 0,0 0,0 0,-1 0,-1 -55,0 -62,0l1 -27 61 0c0,-3 0,-19 0,-24 0,-1 0,-2 0,-2l0 -1c-1,-1 -249,-1 -249,0l-1 27 62 0z"/>
    <path class="fil7" d="M1361 221c1,-4 0,-37 0,-45 1,0 1,1 2,2 0,1 1,2 1,3l13 28c1,1 1,2 2,3 1,2 3,8 4,8 1,1 11,1 12,1 5,0 5,0 5,-2 -1,-18 0,-39 0,-57 0,-8 0,-17 0,-25l-17 0 0 45c0,0 0,0 -1,0l-4 -8c0,-1 -1,-2 -1,-3 -3,-6 -5,-11 -8,-17 0,-1 -1,-2 -1,-3 -1,-1 -1,-2 -2,-3 -1,-3 -4,-8 -5,-11 -3,0 -14,0 -17,0 0,7 0,15 0,21l0 53c0,1 0,9 1,10 1,0 14,0 16,0z"/>
    <path class="fil8" d="M1211 296c5,1 11,0 16,0l79 0c10,0 21,0 31,0 1,-2 1,-25 0,-27 0,0 0,0 0,0l0 0c-1,0 0,1 0,0 0,0 0,0 -1,0 -10,-1 -21,0 -31,0l-92 0c-1,0 -1,0 -1,0 -1,0 0,0 -1,0 0,1 0,24 0,27z"/>
    <path class="fil7" d="M1262 158c0,-2 0,-2 3,-2 5,0 10,0 12,6 2,4 3,9 3,15 0,7 0,14 -3,20 -2,5 -6,5 -12,5 -3,0 -3,0 -3,-3l0 -41zm-17 63c7,0 16,0 24,0 7,0 4,0 10,-2 6,-1 8,-3 11,-7 4,-5 3,-7 5,-11 1,-1 1,-3 1,-5 2,-3 1,-3 1,-6 1,-3 1,-19 0,-23 0,0 0,-1 0,-2 -1,-6 -4,-15 -8,-20 -5,-7 -11,-8 -21,-8 -7,0 -16,0 -23,0 -1,3 0,17 0,21 0,5 -1,60 0,63z"/>
    <path class="fil7" d="M1182 160c0,7 2,13 6,18 1,1 5,4 6,4 8,5 20,5 21,14 0,2 0,4 -1,6 -1,1 -2,3 -4,3 -3,2 -8,0 -10,-2 -5,-8 -1,-12 -5,-11 -1,0 -1,0 -2,0 -2,0 -3,0 -4,0 -3,1 -6,1 -9,1 0,1 0,5 0,6l4 11c4,9 12,12 23,12 6,0 10,-1 15,-4 1,-1 1,-1 2,-2 3,-3 5,-5 6,-10 2,-5 2,-7 2,-12 0,-8 -2,-16 -8,-21 -2,-2 -7,-5 -10,-6 -2,-1 -12,-4 -13,-5 -3,-2 -3,-11 4,-11 3,0 5,1 6,3l1 3c1,1 1,1 1,2 0,0 0,1 0,1 1,2 1,2 5,2l12 -1c1,-3 -1,-8 -1,-11 -2,-4 -4,-8 -8,-11 -3,-2 -10,-3 -15,-3 -9,0 -16,2 -20,10 -3,4 -4,8 -4,14z"/>
    <path class="fil9" d="M1311 221c2,0 7,0 10,0 8,0 8,0 8,-3l0 -81 -14 0c-4,0 -5,-1 -5,2 1,11 0,79 1,82z"/>
    <path class="fil7" d="M1167 220l0 -62c0,-6 1,-14 0,-21l-18 0c0,8 0,18 0,26l0 50c0,8 0,8 2,8 1,0 2,0 3,0l13 -1z"/>
   </g>
   <g>
    <path class="fil10" d="M1770 197c3,-2 4,-3 9,-3 9,-2 19,3 24,10 5,8 6,18 1,27 -1,2 -4,6 -5,7 4,-1 9,-6 11,-9 21,-27 -5,-58 -29,-55 -18,3 -16,19 -11,23zm-1 41c7,5 27,7 31,-7 1,-6 -1,-9 -3,-12 -1,0 -3,1 -5,2 -2,1 -3,1 -5,1 -25,1 -35,-24 -22,-41 1,-1 2,-2 2,-3 -4,1 -10,8 -12,12 -4,5 -6,11 -5,19 0,14 10,25 19,29zm-7 -41c0,10 6,16 11,20 4,2 8,3 13,2 7,0 9,-3 12,-4 5,5 4,9 5,12 3,-8 1,-16 -2,-22 -4,-5 -10,-9 -19,-9 -6,0 -9,2 -13,4 -5,-6 -4,-8 -5,-10l-1 -1c0,3 -1,5 -1,8z"/>
    <path class="fil11" d="M1616 258c5,0 17,-1 20,2 2,2 2,5 0,7 -4,3 -15,2 -20,2l0 -2 0 -9zm0 15c6,-1 14,0 19,-1 12,-3 13,-17 -5,-17 -7,0 -13,0 -20,0l0 30 6 0 0 -12z"/>
    <path class="fil11" d="M1875 276c-3,-12 17,-14 20,-4 3,12 -17,13 -20,4zm0 6c3,2 4,2 8,3 24,3 23,-26 -1,-22 -4,0 -4,1 -7,3l0 -11 -5 0 0 30 5 0 0 -3z"/>
    <path class="fil11" d="M1855 274c0,4 -1,6 -5,7 -11,4 -16,-4 -6,-6 4,0 7,-1 11,-1zm-16 -4c1,-1 0,0 1,-2 3,-3 13,-3 15,0 2,5 -9,3 -16,5 -8,2 -8,9 -2,11 6,2 14,1 18,-2 1,1 0,3 4,3 6,0 5,-1 5,-3 -4,0 -4,0 -4,-4 0,-10 1,-13 -5,-15 -8,-1 -20,-1 -21,7l5 0z"/>
    <path class="fil11" d="M1689 272l-19 0c1,-8 17,-8 19,0zm-1 6c-1,3 -5,4 -10,4 -4,-1 -8,-3 -8,-7l24 0c2,-15 -26,-16 -29,-4 -5,16 26,19 29,7l-6 0z"/>
    <path class="fil11" d="M1748 272c2,-8 17,-8 18,0l-18 0zm19 6c-3,3 -5,4 -11,4 -5,-1 -8,-2 -8,-7l24 0c2,-15 -26,-16 -29,-4 -5,16 26,19 29,7l-5 0z"/>
    <path class="fil11" d="M1933 272c1,-8 17,-8 18,0l-18 0zm9 -9c-13,0 -19,11 -11,18 6,6 23,6 26,-3l-5 0c-2,1 -1,2 -4,3 -4,2 -15,2 -15,-6l24 0c1,-4 -2,-8 -4,-9 -3,-3 -6,-3 -11,-3z"/>
    <path class="fil11" d="M1805 258l23 0 0 -3 -30 0 1 30c7,0 6,1 6,-7 0,-2 0,-5 0,-7l20 0 0 -3 -21 0 1 -10z"/>
    <path class="fil11" d="M1706 285c0,-12 -1,-18 12,-19l0 -3c-3,0 -5,0 -8,1 -2,1 -3,3 -4,3l0 -4 -5 0 0 22 5 0z"/>
    <path class="fil11" d="M1728 285c1,-4 -1,-10 1,-14 2,-4 6,-4 11,-5l0 -3c-7,-1 -9,2 -12,4l0 -4 -5 0 0 22 5 0z"/>
    <path class="fil11" d="M1913 285c0,-4 0,-11 1,-14 3,-4 6,-4 11,-5l0 -3c-6,-1 -9,1 -12,4l0 -4 -5 0 0 22 5 0z"/>
    <polygon class="fil11" points="1651,285 1657,285 1657,284 1657,263 1651,263 1651,265 1651,283 "/>
    <polygon class="fil11" points="1651,259 1657,259 1657,255 1651,255 "/>
   </g>
   <g>
    <path class="fil12" d="M763 595l4 0 0 70 3 0 0 -6 4 0 0 6 2 0 0 -6 4 0 0 6 3 0 0 -6 4 0 0 6 3 0 0 -6 4 0 0 6 2 0 0 -6 4 0 0 6 3 0 0 -6 4 0 0 6 2 0 0 -6 4 0c-3,-4 -4,-4 -4,-10l0 -43 4 3 0 56 3 0 0 -54c1,0 3,1 4,2l0 52 2 0 0 -49c1,0 4,2 4,3 1,2 0,43 0,46l3 0 0 -43c3,2 4,4 4,8l0 35 3 0 0 -35c2,1 4,3 4,6 0,5 0,23 0,29l2 0 0 -26 2 3c1,0 1,1 1,2 2,3 2,3 2,6 0,5 0,10 0,15l2 0 0 -13c9,17 8,49 0,66 0,-2 0,-5 0,-8 0,-4 1,-5 -2,-6 -1,2 0,12 0,15 0,4 -1,6 -3,9 0,1 0,1 0,2 -1,1 -1,0 -2,1 0,-6 0,-12 0,-18 0,-2 1,-8 0,-8 -3,-2 -2,4 -2,5 0,4 1,23 -1,26 0,1 -2,4 -3,5l0 -37c-4,0 -3,1 -3,5l0 30c0,4 0,7 -4,9l0 -35c0,-7 2,-9 -2,-9l0 47c-2,1 -3,2 -4,3 -1,-10 1,-44 -1,-50l-2 0 0 53 -4 2 0 -55c-3,0 -2,0 -2,2l0 55c-2,1 -3,2 -5,2l0 -59c-3,0 -2,2 -2,6l0 55 -4 2 0 -62 -3 0 0 63 -4 1 0 -51c0,-11 2,-14 -2,-14l0 66 -4 1c0,-8 0,-63 -1,-67l-2 0 0 68 -4 1 0 -69 -2 0c-1,4 0,61 0,70l-5 0 0 -70c-2,0 -2,0 -2,2 -1,22 2,47 0,68l-4 1 0 -71 -2 0 -1 71 -4 0 0 -71c-2,0 -2,0 -2,3l0 68 -4 -1c0,-8 1,-66 0,-70l-2 0c-1,4 -1,61 -1,70l-4 -1c0,-8 1,-65 0,-69l-2 0c-1,5 0,59 0,69l-4 -1 -1 -68c-3,0 -2,3 -2,7l0 61 -4 -1 0 -60c0,-6 2,-7 -2,-7l0 65 -3 0 0 -61c0,-5 0,-4 -4,-4l-1 62c-1,0 -2,0 -3,-2 0,-2 0,-40 0,-47 0,-10 2,-13 -2,-13l-1 59c-1,0 -2,-1 -4,-2 0,-8 1,-53 0,-57l-2 0c-1,4 0,48 0,55l-4 -3c-2,-10 2,-44 0,-52 -3,0 -2,1 -2,4 0,12 0,37 0,46 -2,0 -4,-2 -5,-4l0 -41c0,-4 1,-4 -1,-5 -1,1 -1,0 -1,2 -1,6 0,35 0,42 -3,-2 -4,-4 -4,-8l0 -36c-4,0 -3,2 -3,8l0 29c0,-1 0,0 -1,-1 -1,-2 -3,-3 -3,-6 0,-9 1,-18 0,-28 0,-2 0,-2 -2,-2l0 27c-2,-1 -3,-3 -3,-4 -2,-3 -1,-4 -1,-7 0,-4 0,-13 -1,-16l-2 0c0,3 0,11 0,14 -4,-6 -6,-24 -7,-33 0,-10 2,-19 5,-29 1,-1 1,-2 2,-3l0 12 2 0c0,-5 0,-10 0,-15 0,-6 2,-7 5,-11l0 26 2 0c0,-6 0,-13 0,-20 0,-7 -1,-11 4,-16l0 36 3 0 0 -36c0,-4 1,-5 4,-7l0 43 2 0 0 -41c0,-5 0,-6 4,-8l0 49 3 0 0 -52c1,0 2,-1 4,-2l0 54 2 0 0 -56 4 -2 0 58 3 0 0 -60 4 -2 0 62 4 0 0 -50c0,-12 -1,-14 3,-14l0 64 2 0 0 -66 4 -1 0 67 2 0 0 -67 5 -1 0 68 2 0 0 -69 4 0 0 69 3 0 0 -70 4 0 0 70 2 0 0 -70zm7 0l4 0c1,12 0,40 0,53 0,2 -2,5 -3,6l-1 1 0 -60zm37 55c-3,-3 -4,-6 -4,-9 0,-10 -1,-31 0,-38l4 2 0 45zm-24 -31c0,0 0,0 1,2 0,1 0,2 0,2 0,4 0,11 -1,13l0 -17zm-12 38c0,-1 10,-16 12,-18 2,-3 2,-3 2,-6 0,-3 0,-5 0,-8 0,-10 -1,-6 -3,-12l13 0c1,4 0,10 0,15 0,8 -1,6 3,12 2,3 11,16 11,17l-38 0zm29 -17c-5,-5 -3,-10 -3,-19 0,-7 -1,-13 -1,-20l4 1 0 38zm-10 -42l4 2 0 11 -4 0 0 -13zm-7 -1l4 1 0 13 -4 0 0 -14zm-7 -1l4 0 0 15c0,1 0,1 0,2 1,3 0,21 0,25 0,3 -2,6 -4,7l0 -49zm83 91l0 -5c0,-1 0,-7 -1,-10 0,-3 -1,-6 -1,-9 -4,-17 -13,-32 -24,-43 -6,-7 -16,-14 -26,-19 -21,-11 -41,-12 -64,-7 -9,2 -21,6 -35,16 -28,22 -44,62 -33,99 3,13 9,25 17,35 3,4 9,10 13,13 2,1 3,2 5,4 28,20 63,23 94,9 9,-3 15,-8 22,-13 5,-4 13,-13 16,-18 19,-29 15,-46 17,-52z"/>
    <path class="fil12" d="M732 675c0,-1 0,-1 0,-3l-4 0 0 26 4 0c1,-7 -3,-21 6,-23 8,-1 5,12 5,23l5 0c1,-7 -3,-22 6,-23 8,-1 4,12 5,23l5 0c0,-4 0,-20 -1,-22 -1,-3 -4,-5 -8,-5 -4,0 -5,2 -8,4 -2,-2 -2,-4 -7,-4 -4,0 -6,2 -8,4z"/>
    <path class="fil12" d="M841 685c0,5 0,7 -3,9 -3,2 -7,2 -9,0 -6,-6 9,-8 12,-9zm-17 -6l4 1c2,-8 11,-6 13,-2 2,7 -7,3 -14,6 -5,3 -6,10 -1,13 2,2 5,2 8,2 4,-1 5,-2 7,-4 2,4 0,3 6,3 -2,-8 -1,-2 -1,-13 0,-5 0,-10 -3,-12 -3,-3 -17,-5 -19,6z"/>
    <path class="fil12" d="M703 682c0,-9 14,-9 14,0l-14 0zm19 8l-5 0c-1,2 -1,2 -3,4 -1,1 -3,1 -5,1 -4,-1 -6,-4 -7,-9l20 0c0,-8 -2,-13 -9,-15 -9,-1 -14,4 -15,11 -4,23 24,20 24,8z"/>
    <path class="fil12" d="M774 682c0,-9 14,-10 14,0l-14 0zm19 8l-4 0c-3,2 -3,6 -9,5 -4,-1 -6,-4 -7,-9l20 0c0,-8 -3,-13 -10,-15 -17,-2 -19,23 -6,27 7,3 16,-1 16,-8z"/>
    <path class="fil12" d="M805 684c-1,3 -7,10 -9,14 6,0 5,1 8,-4 1,-2 3,-4 4,-6 2,3 5,8 7,10l5 0c-1,-2 -3,-4 -4,-6 -2,-3 -4,-5 -5,-7 1,-3 7,-10 9,-13l-5 0c-2,1 -5,7 -7,9 -2,-3 -5,-9 -7,-9l-5 0c2,1 3,4 5,6 1,2 3,4 4,6z"/>
    <path class="fil12" d="M686 675l0 -3 -4 0 0 26 5 0c0,-7 -3,-26 8,-21 1,-1 1,-3 2,-4 -2,-1 -4,-2 -6,-2 -3,1 -3,3 -5,4z"/>
   </g>
   <g>
    <path class="fil3" d="M1295 709l12 0c0,0 0,0 0,-1l0 -32 42 0 0 33 12 0 0 -74 -12 0 0 31 -42 0 0 -31 -12 0 0 74z"/>
    <path class="fil3" d="M1217 672c0,6 1,11 4,15 2,5 9,13 14,15 7,4 13,7 23,7 8,0 14,-2 20,-5 1,0 0,0 1,0l0 -12c-1,0 -1,1 -2,1 -2,1 -5,3 -7,4 -8,2 -16,2 -23,0 -4,-1 -7,-3 -9,-5 -4,-3 -5,-4 -7,-7 -1,-2 -1,-3 -2,-5 -2,-5 -2,-11 0,-16 2,-7 6,-11 13,-15 6,-4 14,-5 22,-4 3,1 8,2 11,4 1,1 3,2 4,2l0 -11c-9,-5 -21,-6 -31,-4 -3,0 -4,1 -7,2 -9,3 -16,10 -20,18 -2,4 -4,10 -4,16z"/>
    <path class="fil3" d="M1137 709c1,-1 1,-1 1,-2l36 -72 -13 0 -10 20c0,1 0,1 0,2l-13 27c-1,0 0,0 -1,0l-7 -15c0,-1 -1,-1 -1,-2l-15 -32 -13 0c0,1 10,20 11,23l11 23c1,1 2,3 3,4l10 21c0,1 1,2 1,3z"/>
    <path class="fil3" d="M1404 678l0 31 12 0 0 -31c0,-1 1,-3 1,-3l13 -16c1,-1 1,-2 2,-3 1,-1 1,-1 2,-2l2 -3c2,-2 8,-10 10,-13 1,-1 2,-2 2,-3l-13 0c0,1 -5,7 -6,8 -1,1 -1,1 -1,2l-18 23 -6 -8c-1,-1 -1,-2 -2,-2l-11 -15c-1,-1 -2,-3 -3,-4 0,-1 -1,-1 -2,-2 0,-1 -1,-1 -1,-2l-13 0 32 41c0,1 0,1 0,2z"/>
    <path class="fil3" d="M1190 708c0,1 0,1 1,1l11 0 0 -74 -12 0 0 73z"/>
    <path class="fil3" d="M1318 722c2,0 4,0 5,2 2,2 2,6 0,8 -4,4 -9,1 -10,-2 -2,-4 2,-8 5,-8zm-7 5c0,3 1,6 4,7 6,4 16,-3 10,-11 -5,-5 -14,-2 -14,4z"/>
    <path class="fil3" d="M1220 734c-3,0 -6,-3 -6,-4 0,-4 -1,-4 2,-7 3,-2 10,-1 10,5 0,2 -2,4 -2,4 -1,1 -3,2 -4,2zm-8 -6c0,4 3,7 6,7 3,0 5,0 7,-2 3,-3 3,-8 0,-11 -5,-4 -13,-1 -13,6z"/>
    <path class="fil3" d="M1191 734l-2 0 0 -6c2,0 3,0 4,1 0,0 1,0 1,2 0,2 -1,3 -3,3zm-2 -7l0 -5c2,0 5,1 4,3 0,1 -1,1 -1,2 -1,0 -2,0 -3,0zm-2 8c4,0 9,1 9,-4 0,-2 -1,-3 -2,-3 3,-5 -1,-7 -4,-7l-3 0 0 14z"/>
    <path class="fil3" d="M1164 724c1,1 2,4 3,6l-5 0c1,-1 2,-5 2,-6zm-6 11l2 0c1,-1 1,-2 2,-4l6 0c0,1 1,3 1,4l2 0c0,-1 -1,-2 -1,-4 -1,0 -1,-1 -1,-2l-4 -9c-1,0 -1,0 -1,2l-6 13z"/>
    <path class="fil3" d="M1244 728l-1 0 0 -6c7,0 5,6 1,6zm-2 7l1 0 0 -6c1,0 1,0 1,0l2 3c1,1 1,2 2,3l2 0 -2 -3c0,0 0,-1 -1,-1 0,-1 -1,-1 -1,-2 5,-1 5,-8 -2,-8l-2 0 0 14z"/>
    <path class="fil3" d="M1270 724c1,1 2,4 3,6l-5 0c1,-1 2,-5 2,-6zm-6 11l2 0c1,-1 1,-3 2,-4l6 0c0,1 1,3 1,4l2 0c-1,-2 -2,-5 -3,-7l-3 -8c-1,0 -1,0 -2,3l-5 12z"/>
    <path class="fil3" d="M1365 728l-1 0 0 -6c5,0 4,4 3,5 0,0 -1,1 -2,1zm-3 7l2 0 0 -6c1,0 1,2 2,3 1,1 2,2 2,3l3 0c-1,-1 -1,0 -1,-1l-4 -5c4,0 6,-8 -2,-8l-2 0 0 14z"/>
    <polygon class="fil3" points="1387,735 1395,735 1395,734 1388,734 1388,728 1394,728 1394,727 1388,727 1388,722 1395,722 1395,721 1387,721 "/>
    <path class="fil3" d="M1409 724c0,2 1,3 3,4 3,1 4,1 4,3 0,3 -4,4 -5,2 -1,-2 0,-2 -2,-1 0,1 1,3 3,3l2 0c3,0 5,-4 3,-6 -1,-3 -8,-3 -5,-6 1,-2 3,-1 4,0 1,0 1,0 1,0 -1,-3 -1,-3 -4,-3 -2,0 -4,2 -4,4z"/>
    <path class="fil3" d="M1342 735l3 0 0 -14c0,0 0,0 -1,0l-2 0 0 14z"/>
    <polygon class="fil3" points="1289,722 1293,722 1293,735 1295,735 1295,722 1298,722 1298,721 1289,721 "/>
    <polygon class="fil3" points="1137,735 1143,735 1143,734 1139,734 1139,721 1137,721 "/>
   </g>
   <g>
    <path class="fil13" d="M379 1106l-2 0 -17 33 -16 -33 -3 0 -4 36c-1,3 -1,5 -2,6l4 0c0,-1 0,-4 1,-7l3 -21 14 28 2 0 15 -28 2 21c1,2 1,5 0,7l10 0c-1,-2 -2,-3 -2,-6l-5 -36z"/>
    <path class="fil13" d="M170 1106c-14,0 -24,9 -24,22 0,12 10,21 24,21 13,0 24,-9 24,-21 0,-13 -11,-22 -24,-22zm0 40c-9,0 -16,-8 -17,-18 0,-11 6,-19 16,-19 9,0 17,8 17,19 0,10 -6,18 -16,18z"/>
    <path class="fil13" d="M421 1148l9 0 0 0c-2,-2 -3,-4 -5,-7l-14 -35 -2 0 -15 36c-2,3 -3,5 -4,6l4 0 6 -14 15 0 6 14zm-20 -17l7 -14 6 14 -13 0z"/>
    <path class="fil13" d="M105 1124c3,-2 6,-4 6,-8 0,-4 -2,-7 -6,-8 -2,-1 -6,-1 -10,-1 -7,0 -12,0 -12,0 1,1 1,3 1,5 0,5 0,26 0,31 0,3 0,4 -1,5 0,0 2,0 13,0 4,0 9,-1 12,-2 3,-2 6,-5 6,-10 0,-7 -5,-11 -9,-12zm-14 -15c1,0 2,0 3,0 1,0 3,0 4,1 3,0 6,3 6,6 0,4 -3,6 -6,6 0,0 -2,0 -3,0 -1,0 -3,0 -4,0l0 -13zm8 36c0,0 -3,0 -3,0 -1,0 -4,0 -5,0l0 -20c1,0 3,0 4,0 1,0 3,0 4,1 4,1 7,4 7,10 0,5 -2,8 -7,9z"/>
    <path class="fil13" d="M264 1145l0 -20 15 0 1 -3 -16 0 0 -13c0,0 11,0 12,0 2,0 4,1 7,2l-2 -4 -25 0c1,1 1,3 1,5 0,5 0,26 0,31 0,3 0,4 -1,5l27 0 2 -4c-2,1 -5,1 -8,1 -1,0 -13,0 -13,0z"/>
    <path class="fil13" d="M229 1107c-3,0 -7,0 -8,0 -1,0 -17,0 -17,0 1,1 1,3 1,5 0,5 0,26 0,31 0,3 0,4 -1,5 0,0 14,0 16,0 2,0 5,0 7,0 12,-2 19,-10 19,-20 0,-11 -7,-18 -17,-21zm-5 38c-1,0 -3,0 -5,0 -3,0 -5,0 -7,0l0 -35c2,0 5,-1 6,-1 2,0 6,1 9,2 6,2 11,8 11,17 0,9 -4,16 -14,17z"/>
    <path class="fil13" d="M135 1107l-9 0c1,1 1,3 1,5 0,5 0,26 0,31 0,3 0,4 -1,5l9 0c-1,-1 -1,-3 -1,-5 0,-5 0,-26 0,-31 0,-3 0,-4 1,-5z"/>
    <path class="fil13" d="M311 1129c6,-1 12,-4 12,-11 0,-7 -4,-9 -9,-11 -4,-1 -8,0 -11,0 -1,0 -9,0 -9,0 1,1 1,3 1,5 0,5 0,26 0,31 0,3 0,4 -1,5l10 0c-1,-1 -2,-3 -2,-5l0 -34c2,0 5,0 7,1 6,1 7,5 7,8 0,5 -3,10 -11,9l-1 0c7,11 13,18 18,21l10 0c-7,-5 -15,-12 -21,-19z"/>
    <polygon class="fil13" points="85,1171 90,1171 90,1173 83,1173 83,1161 85,1161 "/>
    <path class="fil13" d="M95 1173l-2 0 5 -12 1 0 5 12 -2 0 -2 -3 -4 0 -1 3zm3 -8l-1 4 3 0 -2 -4z"/>
    <path class="fil13" d="M108 1161l4 0c3,1 4,2 4,3 0,2 -1,2 -2,3 2,0 3,1 3,2 0,2 -2,4 -4,4l-5 0 0 -12zm7 8c0,-1 -1,-1 -3,-1l-2 0 0 3 2 0c2,0 3,0 3,-2zm-3 -3c1,0 2,0 2,-2 0,0 -1,-1 -2,-1l-1 0 -1 3 2 0z"/>
    <path class="fil13" d="M134 1167c0,4 -3,6 -6,6 -4,0 -6,-2 -6,-6 0,-3 2,-6 6,-6 4,0 6,3 6,6zm-10 0c0,3 1,5 4,5 2,0 4,-2 4,-5 0,-2 -2,-4 -4,-4 -3,0 -4,2 -4,4z"/>
    <path class="fil13" d="M146 1173l-3 -5 -2 0 0 5 -2 0 0 -11 4 0c3,0 4,1 4,2 0,2 -1,3 -2,3l4 6 -3 0zm-3 -7c1,0 2,-1 2,-1 0,-1 -1,-2 -2,-2l-2 0 0 3 2 0z"/>
    <path class="fil13" d="M154 1173l-2 0 5 -11 1 0 5 11 -3 0 -1 -3 -4 0 -1 3zm3 -8l-2 4 4 0 -2 -4z"/>
    <polygon class="fil13" points="164,1162 174,1162 174,1163 170,1163 170,1173 168,1173 168,1163 164,1163 "/>
    <path class="fil13" d="M190 1167c0,4 -3,6 -7,6 -3,0 -6,-2 -6,-6 0,-3 3,-6 6,-6 4,0 7,3 7,6zm-11 0c0,3 2,5 4,5 3,0 5,-2 5,-5 0,-2 -2,-4 -5,-4 -2,0 -4,2 -4,4z"/>
    <polygon class="fil13" points="195,1173 195,1162 197,1162 197,1173 "/>
    <path class="fil13" d="M210 1173l-4 -5 -1 0 0 5 -2 0 0 -11 3 0c3,0 5,1 5,2 0,2 -2,3 -3,3l4 6 -2 0zm-4 -7c2,0 3,-1 3,-1 0,-1 -1,-2 -3,-2l-1 0 0 3 1 0z"/>
    <polygon class="fil13" points="224,1173 217,1173 217,1162 224,1162 224,1163 219,1163 219,1166 223,1166 223,1168 219,1168 219,1171 224,1171 "/>
    <path class="fil13" d="M237 1162l4 0c4,0 6,2 6,5 0,3 -3,6 -7,6l-3 0 0 -11zm4 9c2,0 4,-1 4,-4 0,-3 -2,-4 -4,-4l-2 0 0 8 2 0z"/>
    <polygon class="fil13" points="260,1173 252,1173 252,1162 260,1162 260,1163 255,1163 255,1166 258,1166 258,1168 255,1168 255,1171 260,1171 "/>
    <path class="fil13" d="M272 1173l-4 -5 -1 0 0 5 -2 0 0 -11 3 0c3,0 5,1 5,3 0,1 -2,2 -3,2l4 6 -2 0zm-4 -7c2,0 3,0 3,-1 0,-1 -1,-2 -3,-2l-1 0 0 3 1 0z"/>
    <polygon class="fil13" points="291,1173 289,1173 289,1165 285,1173 284,1173 280,1165 280,1173 278,1173 279,1162 281,1162 285,1170 289,1162 291,1162 "/>
    <path class="fil13" d="M297 1173l-2 0 5 -11 2 0 4 11 -2 0 -1 -3 -5 0 -1 3zm4 -8l-2 4 3 0 -1 -4z"/>
    <polygon class="fil13" points="308,1162 318,1162 318,1163 314,1163 314,1173 312,1173 312,1163 308,1163 "/>
    <path class="fil13" d="M334 1167c0,4 -3,6 -7,6 -3,0 -6,-2 -6,-6 0,-3 3,-6 6,-6 4,0 7,3 7,6zm-11 0c0,3 2,5 4,5 3,0 4,-2 4,-5 0,-2 -1,-4 -4,-4 -2,0 -4,2 -4,4z"/>
    <polygon class="fil13" points="341,1171 345,1171 345,1173 339,1173 339,1162 341,1162 "/>
    <path class="fil13" d="M361 1167c0,4 -3,6 -6,6 -4,0 -6,-2 -6,-6 0,-3 2,-6 6,-6 4,0 6,3 6,6zm-10 0c0,3 2,5 4,5 2,0 4,-2 4,-5 0,-2 -2,-4 -4,-4 -2,0 -4,2 -4,4z"/>
    <path class="fil13" d="M373 1173c-4,0 -7,-2 -7,-6 0,-3 3,-6 7,-6 2,0 3,1 4,1l-1 2c0,-1 -2,-1 -3,-1 -3,0 -5,2 -5,4 0,3 2,5 5,5 1,0 2,0 2,-1l0 -3 2 0 0 4c0,1 -2,1 -4,1z"/>
    <polygon class="fil13" points="382,1173 382,1162 384,1162 384,1173 "/>
    <path class="fil13" d="M402 1174l-1 1 -7 -2c-3,-1 -5,-3 -5,-6 0,-3 3,-5 7,-5 4,0 6,2 6,5 0,3 -2,5 -4,6l4 1zm-10 -7c0,3 1,5 4,5 2,0 4,-2 4,-5 0,-2 -2,-4 -4,-4 -3,0 -4,2 -4,4z"/>
    <path class="fil13" d="M417 1169c0,2 -1,4 -5,4 -3,0 -5,-1 -5,-4l0 -7 2 0 0 7c0,2 1,3 3,3 2,0 3,-2 3,-3l0 -7 2 0 0 7z"/>
    <polygon class="fil13" points="430,1173 423,1173 423,1162 430,1162 430,1163 425,1163 425,1166 428,1166 428,1168 425,1168 425,1172 430,1172 "/>
   </g>
   <g>
    <path class="fil14" d="M318 664c-2,-2 -6,-3 -9,-2 -4,0 -7,1 -10,3l0 -23 -11 0 0 74 11 0 0 -39c0,-2 3,-5 7,-5 2,-1 4,0 6,2 1,2 1,5 1,8l0 34 11 0 0 -34c0,-10 -1,-14 -6,-18z"/>
    <path class="fil14" d="M237 681c-2,-16 -11,-19 -18,-19 -11,0 -17,6 -18,19 0,1 0,3 -1,9 0,4 1,8 1,8 0,12 7,19 18,19 10,0 17,-7 18,-19 0,0 0,-4 0,-8 0,-2 0,-8 0,-9zm-11 9c0,7 0,9 0,10 -1,4 -2,8 -7,8 -5,0 -7,-5 -7,-9 0,0 0,-2 0,-9 0,-8 0,-11 0,-11 0,-4 2,-8 7,-8 4,0 7,4 7,8 0,0 0,3 0,11z"/>
    <path class="fil14" d="M357 698c0,0 0,1 0,2 0,2 -1,8 -7,8 -5,0 -6,-4 -7,-9 0,-1 0,-2 0,-7l25 0c0,0 0,-3 0,-6 0,-1 0,-2 0,-5 -1,-5 -2,-10 -5,-14 -3,-3 -8,-5 -13,-5 -10,0 -17,6 -18,19 0,1 0,3 0,9 0,4 0,8 0,8 1,12 8,19 18,19 10,0 17,-7 18,-19l-11 0zm-14 -15c0,-3 0,-3 0,-4 0,-4 2,-8 7,-8 5,0 7,5 7,8 0,2 0,3 0,4l-14 0z"/>
    <path class="fil14" d="M353 595l-193 0 -78 90 78 90 193 0 77 -89 -77 -91zm-188 9l183 0 70 82 -70 81 -183 0 -71 -81 71 -82z"/>
    <path class="fil14" d="M194 712c0,0 -1,-19 -1,-19 -1,-8 -3,-13 -7,-15 3,-2 7,-6 7,-16 0,-14 -9,-19 -20,-20l-17 0 0 74 11 0 0 -34 6 0c4,0 8,4 8,12l2 18c0,2 0,4 0,4l11 0c0,0 0,-2 0,-4zm-27 -60l5 0c6,0 9,3 9,9 0,0 1,0 1,1 0,1 0,2 -1,2 0,3 -1,9 -8,9l-6 0 0 -21z"/>
    <path class="fil14" d="M270 697c0,1 0,2 0,2 -1,5 -2,9 -7,9 -5,0 -7,-5 -7,-8 0,-2 0,-4 0,-10 0,-8 0,-10 0,-11 0,-4 2,-8 7,-8 5,0 7,4 7,8 0,0 0,1 0,3l11 0c0,0 0,-1 0,-1 -1,-16 -11,-19 -18,-19 -11,0 -17,6 -18,19 0,1 0,3 -1,9 0,4 1,8 1,8 1,12 7,19 18,19 11,0 17,-6 18,-19 0,0 0,0 0,-1l-11 0z"/>
   </g>
  </g>
 </g>
</svg>
