<?xml version="1.0" encoding="UTF-8"?>
<!DOCTYPE svg PUBLIC "-//W3C//DTD SVG 1.0//EN" "http://www.w3.org/TR/2001/REC-SVG-20010904/DTD/svg10.dtd">
<!-- Creator: CorelDRAW X8 -->
<svg xmlns="http://www.w3.org/2000/svg" xml:space="preserve" width="2036px" height="911px" version="1.0" style="shape-rendering:geometricPrecision; text-rendering:geometricPrecision; image-rendering:optimizeQuality; fill-rule:evenodd; clip-rule:evenodd"
viewBox="0 0 2036 911"
 xmlns:xlink="http://www.w3.org/1999/xlink">
 <defs>
  <style type="text/css">
   <![CDATA[
    .str1 {stroke:#E6E6E6;stroke-width:3.54331}
    .str0 {stroke:#E6E6E6;stroke-width:1.1811}
    .fil12 {fill:none}
    .fil9 {fill:#007CC2}
    .fil7 {fill:#0C7BC0}
    .fil5 {fill:#1D1C1D}
    .fil14 {fill:#205C34}
    .fil6 {fill:#21374C}
    .fil3 {fill:#222021}
    .fil4 {fill:#222121}
    .fil2 {fill:#232122}
    .fil1 {fill:#242223}
    .fil13 {fill:#3FBA69}
    .fil0 {fill:#528ABE}
    .fil8 {fill:#A3C5E8}
    .fil11 {fill:#0075BB;fill-rule:nonzero}
    .fil10 {fill:#1248A6;fill-rule:nonzero}
    .fil17 {fill:#DA8B02;fill-rule:nonzero}
    .fil16 {fill:#E23E28;fill-rule:nonzero}
    .fil15 {fill:#00839B;fill-rule:nonzero}
   ]]>
  </style>
 </defs>
 <g id="Capa_x0020_1">
  <metadata id="CorelCorpID_0Corel-Layer"/>
  <g id="_2486061257056">
   <g>
    <path class="fil0" d="M1125 213c8,-2 14,4 15,9 4,16 -20,22 -24,6 -2,-7 3,-13 9,-15zm-10 -22c0,1 -1,0 1,1 9,0 19,7 22,12 -2,0 -2,-2 -6,-4 -17,-8 -38,7 -32,30 2,5 5,9 8,11 6,4 9,4 17,4 13,0 26,0 39,0 0,-11 0,-21 0,-32 0,-14 1,-17 -7,-25 -5,-4 -10,-6 -15,-8 -4,-2 -4,-1 -6,0l-21 11z"/>
    <path class="fil1" d="M1206 245l4 0 1 -27c1,1 3,10 4,13 2,5 4,9 5,14 5,0 4,1 6,-6 1,-3 2,-5 3,-7 1,-5 3,-10 5,-14l0 27 4 0c0,-9 0,-24 0,-33l-6 0 -10 28 -7 -22c-3,-8 0,-6 -9,-6l0 33z"/>
    <path class="fil1" d="M1309 215l10 0c10,0 8,7 6,9 -2,3 -11,2 -16,2l0 -1 0 -10zm-4 29l0 1 4 0 0 -15c9,0 9,0 14,6 2,3 3,6 5,9l6 0c-1,-2 -4,-6 -5,-8 -1,-2 -3,-4 -5,-6 -1,0 -1,0 -2,-1 1,-1 10,-2 9,-11 -1,-6 -6,-7 -12,-7l-14 0 0 32z"/>
    <path class="fil1" d="M1374 245l4 0 0 -26c2,1 17,24 18,26l4 0c1,-8 0,-24 0,-33l-4 0 0 25 -2 -3c-2,-3 -14,-22 -16,-22l-4 0 0 33z"/>
    <path class="fil1" d="M1177 226l0 -11c6,0 18,-2 18,6 0,7 -11,5 -18,5zm-4 19l4 0 0 -15c4,0 8,0 10,2 1,0 3,2 4,4 2,3 4,6 6,9l5 0 -8 -12c-1,-2 -2,-2 -3,-3 11,-2 9,-12 6,-16 -2,-2 -6,-2 -11,-2 -3,0 -9,-1 -13,0l0 33z"/>
    <path class="fil1" d="M1438 241l0 -13 -15 0 0 4 10 0 0 6c-1,4 -23,9 -22,-11 1,-15 20,-15 22,-5 1,0 3,-1 4,-1 -3,-14 -28,-14 -30,5 -1,4 0,8 2,12 3,6 12,9 19,7 6,-1 7,-3 10,-4z"/>
    <path class="fil1" d="M1351 215c7,-1 12,4 13,11 2,20 -21,20 -23,5 0,-9 3,-15 10,-16zm0 -4c-10,1 -15,9 -14,19 2,22 34,21 32,-4 -1,-9 -8,-16 -18,-15z"/>
    <path class="fil1" d="M1248 234l-4 0c-1,12 18,16 25,7 2,-4 1,-9 -1,-11 -4,-5 -17,-4 -19,-9 -1,-7 15,-9 16,0l4 0c0,-8 -9,-11 -17,-9 -9,2 -10,12 -2,16 4,2 20,3 15,10 -2,3 -6,4 -11,3 -4,-1 -5,-3 -6,-7z"/>
    <polygon class="fil1" points="1274,216 1285,216 1285,245 1289,245 1289,216 1300,216 1300,212 1274,212 "/>
    <path class="fil2" d="M1257 273c2,0 1,0 2,-5 1,-2 2,-4 4,-3 1,2 -1,6 -1,8 3,0 1,0 3,-5 0,-1 0,-3 2,-3 1,0 0,0 1,0 1,0 0,0 1,0 0,2 -1,6 -2,8 3,0 2,1 3,-4 0,-2 1,-4 0,-5 -2,-1 -4,0 -5,1 -1,-2 -4,-2 -5,0 0,-1 1,-1 -1,-1 -1,1 -2,7 -2,9z"/>
    <path class="fil3" d="M1216 273c2,0 1,0 2,-5 1,-2 2,-3 4,-3 1,2 -1,6 -1,8 3,0 1,0 3,-5 0,-2 1,-4 4,-3 0,2 -1,6 -1,8 2,0 1,0 2,-2 0,-3 2,-7 -1,-7 -2,-1 -3,0 -4,1l-1 -1c-2,-1 -3,-1 -3,1l-1 -1c0,0 1,0 -1,0l-2 9z"/>
    <path class="fil2" d="M1204 269l-1 -1c-2,6 -9,5 -7,-2 0,-2 1,-4 3,-4 1,-1 2,-1 3,0 2,2 0,2 3,2 0,-1 0,0 0,-1 0,-2 -3,-4 -7,-3 -2,1 -4,4 -4,6 -1,10 10,8 10,3z"/>
    <path class="fil2" d="M1415 266c4,-4 4,4 1,6 -2,1 -4,-2 -2,-5 0,-1 0,-1 1,-1zm4 -1c-1,-1 -2,-2 -5,-1 -1,1 -2,2 -2,4 -1,4 2,7 5,4 0,0 1,3 2,0l2 -12c-2,0 -1,-1 -2,5z"/>
    <path class="fil2" d="M1235 265c4,-2 3,5 1,7 -4,2 -4,-5 -1,-7zm-5 12c3,0 1,-1 3,-5 2,3 5,0 6,-3 1,-4 -2,-8 -5,-4 -2,-3 -2,2 -3,5 0,2 -1,4 -1,7z"/>
    <path class="fil2" d="M1297 270c-2,4 -6,2 -4,-3 1,-4 6,-2 4,3zm1 -5c-7,-7 -10,12 -2,8 1,-1 0,-1 1,0 2,1 -3,-1 0,0 1,0 1,-1 1,-3l2 -10c-2,0 -1,0 -2,5z"/>
    <path class="fil2" d="M1389 270c2,-1 3,-1 5,-1 0,1 -1,2 -2,3 -2,0 -3,0 -3,-2zm-1 -4c4,1 1,0 4,-1 2,-1 2,0 2,2 -2,1 -6,0 -7,3 0,4 4,4 6,2 1,1 0,1 2,1 0,-3 2,-7 0,-9 -2,-2 -6,0 -7,2z"/>
    <path class="fil2" d="M1274 268c1,-3 4,-5 5,0l-5 0zm6 2c-3,0 -2,1 -4,2 -2,0 -3,-1 -3,-3 3,0 5,0 7,0 2,-6 -6,-8 -8,-2 -2,7 7,8 8,3z"/>
    <path class="fil2" d="M1213 265c1,5 -2,9 -5,6 -1,-1 0,-4 0,-5 1,-1 3,-1 5,-1zm-4 -1c-5,2 -4,11 3,9 4,-2 4,-12 -3,-9z"/>
    <path class="fil2" d="M1303 271c-1,-1 -1,-3 0,-5 1,-1 3,-2 4,-1 2,2 1,8 -4,6zm1 -7c-3,1 -4,3 -3,6 0,3 3,4 6,3 4,-2 3,-12 -3,-9z"/>
    <path class="fil2" d="M1340 265c2,5 -2,9 -4,6 -1,-1 -1,-3 0,-5 1,-1 3,-1 4,-1zm-3 -1c-5,2 -4,12 2,9 5,-2 5,-12 -2,-9z"/>
    <path class="fil2" d="M1251 265c4,-1 4,6 1,7 -4,1 -5,-6 -1,-7zm-1 -1c-5,2 -4,11 2,9 5,-2 5,-12 -2,-9z"/>
    <path class="fil4" d="M1407 272c1,1 -1,1 1,1 1,-1 2,-8 2,-9 -2,0 -1,0 -2,5 -1,2 -2,3 -4,3 -1,-3 0,-6 1,-8 -3,0 -2,0 -2,2 -1,1 -1,3 -1,4 -1,5 3,4 5,2z"/>
    <path class="fil2" d="M1384 271c0,1 -1,1 -3,1 -2,-1 1,-2 -2,-2 -2,3 5,4 6,2 3,-3 -3,-4 -4,-6 1,-1 1,-2 3,-1 2,1 -1,2 3,1 -1,-3 -6,-3 -7,-1 -2,3 3,3 4,6z"/>
    <path class="fil4" d="M1343 273c2,0 2,0 2,-1 1,-4 1,-8 5,-7 1,2 0,6 -1,8 3,0 2,-1 3,-4 0,-2 1,-4 -1,-5 -2,-1 -3,0 -4,1 -1,-1 1,-1 -2,-1l-2 9z"/>
    <path class="fil1" d="M1312 265c-1,6 5,2 4,7 -4,1 -3,-2 -5,-2 0,0 -1,0 0,2 1,2 5,2 6,0 2,-1 1,-3 0,-4 -2,-1 -3,0 -4,-2 1,-1 2,-2 3,-1 2,1 -1,2 3,2 -1,-4 -4,-4 -7,-2z"/>
    <path class="fil2" d="M1369 272c1,1 -1,1 2,1l2 -9c-3,0 -2,0 -3,5 -1,2 -2,3 -4,3 -1,-3 1,-6 1,-8 -2,0 -2,0 -2,2 -1,1 -1,3 -1,4 0,4 3,4 5,2z"/>
    <path class="fil2" d="M1332 270c-3,-1 -1,3 -5,2 -1,-3 -1,-7 3,-7 2,1 0,2 3,2 0,-5 -7,-5 -8,1 -1,8 7,6 7,2z"/>
    <path class="fil2" d="M1359 264c0,0 0,0 0,1l1 0c0,1 0,1 -1,3 0,2 -1,3 0,5 1,0 2,1 3,0 0,-1 -1,-1 -2,-2 1,-8 2,-5 3,-7 0,0 0,0 0,0 0,0 0,0 0,0 0,0 0,0 0,0 -1,0 0,0 -1,-1l1 -3c-3,1 -2,2 -3,3 -1,1 0,0 -1,1z"/>
    <path class="fil2" d="M1282 264c0,0 0,0 0,1 0,0 0,0 0,0 2,2 -1,4 0,8 1,0 2,1 3,0 0,-1 0,-1 -1,-2 1,-9 1,-5 3,-7 -1,-1 -1,0 -2,-1l1 -3c-1,1 -2,1 -2,2 -1,3 -1,1 -2,2z"/>
    <path class="fil3" d="M1397 273c2,0 2,0 2,-2 0,-1 1,-2 1,-4 0,-2 1,-5 1,-7 -2,0 -1,0 -3,6 0,2 -1,5 -1,7z"/>
    <path class="fil4" d="M1241 273c2,0 1,-1 2,-5 2,-5 4,-1 4,-4 -1,-1 -2,0 -3,1 0,0 0,0 0,0l0 -1c0,0 0,-1 -1,0 -1,0 -2,8 -2,9z"/>
    <path class="fil3" d="M1286 273c3,0 2,-1 3,-4 0,-1 1,-4 1,-5 -2,0 -2,-1 -2,1 0,0 0,2 -1,3 0,1 0,3 -1,5z"/>
    <path class="fil5" d="M1443 217l0 -2c1,0 2,0 2,1 0,0 -1,1 -2,1zm-1 3c0,-1 1,0 1,0 0,0 0,-2 0,-3 0,0 1,0 1,0 0,1 1,2 1,2 0,0 1,0 1,0 -1,-1 -1,-1 -1,-2 1,0 1,-2 -1,-2 0,-1 -1,-1 -2,-1l0 6z"/>
    <path class="fil3" d="M1289 262c2,0 1,0 2,-2l-2 0c0,2 0,1 0,2z"/>
    <path class="fil6" d="M1116 192c-2,-1 -1,0 -1,-1 -1,0 -1,0 -1,1l2 0z"/>
   </g>
   <g>
    <path class="fil7" d="M163 686c0,-15 5,-28 12,-39 4,-7 9,-13 15,-18 1,-1 2,-2 3,-3 18,-16 49,-31 78,-37 -12,0 -37,8 -47,11 -22,8 -39,19 -55,33 -40,38 -38,92 12,123 22,13 52,21 82,21 38,0 69,-8 100,-26 3,-2 4,-2 5,-3 -3,1 -6,3 -9,4 -49,22 -112,24 -158,-4 -17,-11 -38,-31 -38,-62zm38 11l52 0c1,-2 3,-5 5,-8 1,-2 3,-5 4,-7l24 -39c1,-2 4,-6 5,-8 -1,-3 -3,-5 -5,-8l-10 -15c-1,-2 -3,-6 -5,-8 -2,1 -15,20 -18,23l-43 58c-2,2 -8,11 -9,12zm13 13c0,0 0,0 0,0l-1 -1c0,-2 2,-2 -6,-2l-6 28 7 0c1,-4 3,-17 6,-21 2,-1 5,-3 6,-1 2,2 -2,18 -3,22l7 0c2,-5 3,-17 6,-21 2,-1 5,-3 7,-1 1,2 -3,19 -4,22l8 0c0,-6 4,-17 4,-22 0,-9 -13,-7 -16,-2 -1,0 -1,0 -1,0 0,0 0,-2 -2,-3 -3,-2 -9,-1 -12,2zm149 -2c-3,2 -3,0 -3,0 0,0 0,-1 2,-1 1,1 0,1 1,1zm-4 5c2,0 1,0 1,-3 4,1 1,3 4,3l-1 -3c1,-1 1,-1 1,-3 -2,-1 -2,-1 -5,-1l0 7zm7 -2c-3,6 -11,2 -9,-4 3,-5 12,-1 9,4zm-6 -8c-8,3 -4,14 3,12 7,-2 5,-14 -3,-12zm-45 1l8 0 1 -7 -7 0 -2 7zm-6 31l7 0c1,-2 5,-24 6,-28l-7 0 -6 28zm11 0l10 0c0,-1 5,-6 6,-7 1,2 3,6 4,7l7 0 -6 -13 12 -14c-2,-1 -4,-1 -5,-1 -4,0 -3,0 -5,2 -2,2 -3,4 -5,6l-4 -8 -8 0c0,3 4,9 6,12 1,3 -1,4 -6,9 -1,2 -1,2 -3,4 -1,1 -2,2 -3,3zm-63 -16c0,-4 2,-7 6,-7 4,0 5,3 5,7l-11 0zm16 9l-6 -1c-2,2 -3,4 -7,3 -3,0 -4,-3 -4,-6l18 0c1,-9 0,-16 -8,-17 -18,-3 -23,23 -10,28 8,3 16,-1 17,-7zm17 -15c9,-5 10,13 3,17 -5,2 -8,-2 -8,-7 0,-4 2,-8 5,-10zm13 -16l-3 14c-4,-6 -17,-7 -21,8 -5,16 9,21 16,14l1 2 6 0 8 -38c-2,0 -5,-1 -7,0z"/>
    <path class="fil8" d="M294 635l35 56 38 0c0,-2 -5,-8 -6,-10l-22 -31c-1,-1 -26,-39 -29,-40l-11 19c-2,1 -4,4 -5,6z"/>
   </g>
   <path class="fil9" d="M1853 237c-6,25 -52,25 -40,-10 4,-11 11,-18 25,-19 15,-1 20,11 17,25l-28 0c0,0 -5,14 0,16 7,3 9,-7 10,-12l16 0zm-24 -10l11 0c1,-2 5,-16 -4,-14 -4,1 -6,8 -7,14zm-137 1c10,0 13,-3 17,-15 3,-11 5,-20 -9,-19l-8 34zm190 -11c1,-1 2,-2 3,-3 2,-2 4,-4 8,-5 12,-3 13,17 1,17 -2,0 -4,-2 -6,-3 -1,-2 -1,-5 -1,-7 -3,0 -4,5 -6,7 -2,6 -8,24 -8,30l-16 0 10 -38 -6 0 1 -5 22 0 -2 7zm-101 -7l34 0c-1,2 -5,8 -6,10 -2,3 -17,27 -18,28l14 0 -1 5 -34 0c1,-2 10,-16 12,-19 1,-3 11,-18 11,-19l-13 0 1 -5zm-57 8c-1,5 -4,7 -7,10 -6,5 -17,4 -27,5 -2,3 -3,17 -5,20l-16 0c1,-8 15,-55 15,-59l-7 0 1 -5c11,-1 22,-1 33,0 10,0 16,6 16,16 0,4 -2,10 -3,13zm-16 76l25 -94c4,-12 8,-25 20,-32 14,-8 33,-4 32,11 0,11 -17,13 -17,1 0,-6 4,-8 8,-9 0,-5 -16,-11 -21,8 -1,5 -7,29 -8,31l28 0 -12 43 -15 0c1,-6 3,-14 5,-19 0,-4 4,-17 4,-19l-11 0 -23 85c6,1 12,4 20,5 24,5 48,5 71,1 19,-3 41,-10 57,-20 2,-1 5,-3 7,-5 13,-9 24,-20 29,-35 5,-15 4,-30 -2,-42 -11,-21 -33,-37 -57,-46 -55,-20 -124,-13 -165,17 -21,16 -37,40 -28,69 3,10 9,17 15,24l6 7c9,7 21,15 32,19z"/>
   <g>
    <path class="fil10" d="M160 299l2 0 0 3c1,-1 2,-2 3,-2 1,-1 2,-1 4,-1 2,0 4,1 6,2 1,2 2,4 2,6 0,3 -1,5 -2,6 -2,2 -4,3 -6,3 -1,0 -3,0 -4,-1 -1,0 -2,-1 -3,-2l0 9 -2 0 0 -23zm9 2c-2,0 -4,0 -5,2 -1,1 -2,3 -2,4 0,2 0,3 1,4 1,1 1,2 2,2 1,1 3,1 4,1 1,0 2,0 3,-1 1,0 2,-1 2,-2 1,-1 1,-2 1,-4 0,-1 0,-2 -1,-3 0,-1 -1,-2 -2,-2 -1,-1 -2,-1 -3,-1z"/>
    <path class="fil10" d="M190 301l-2 1c-1,-1 -2,-1 -3,-1 -1,0 -1,0 -2,0 0,1 -1,1 -1,2 0,1 1,1 1,1 0,1 1,2 2,2 2,1 3,2 4,3 0,0 1,1 1,2 0,2 -1,3 -2,4 -1,1 -2,1 -3,1 -1,0 -2,0 -3,-1 -1,0 -2,-1 -2,-1l1 -2c1,1 2,2 3,2 1,0 2,0 3,-1 0,0 1,-1 1,-2 0,0 -1,-1 -1,-1 0,-1 -1,-1 -3,-2 -1,-1 -2,-2 -3,-2 0,-1 -1,-2 -1,-3 0,-1 1,-2 2,-3 1,-1 2,-1 3,-1 1,0 3,0 5,2z"/>
    <path class="fil10" d="M194 292c1,0 1,1 1,1 1,0 1,1 1,1 0,1 0,1 -1,1 0,1 0,1 -1,1 0,0 -1,0 -1,-1 -1,0 -1,0 -1,-1 0,0 0,-1 1,-1 0,0 1,-1 1,-1zm-1 7l2 0 0 17 -2 0 0 -17z"/>
    <path class="fil10" d="M215 303l-1 1c-2,-2 -4,-3 -6,-3 -2,0 -4,0 -5,2 -2,1 -2,2 -2,4 0,2 0,3 1,4 0,1 1,2 2,2 1,1 2,1 4,1 2,0 4,-1 6,-3l1 1c0,1 -1,2 -3,3 -1,1 -3,1 -4,1 -3,0 -5,-1 -7,-2 -1,-2 -2,-4 -2,-6 0,-2 0,-4 1,-5 1,-1 2,-2 3,-3 2,-1 3,-1 5,-1 1,0 2,0 3,0 1,1 2,1 3,2 0,0 1,1 1,2z"/>
    <path class="fil10" d="M227 299c3,0 5,1 6,2 2,2 3,4 3,6 0,3 -1,5 -3,6 -1,2 -3,3 -6,3 -2,0 -4,-1 -6,-3 -2,-1 -2,-3 -2,-6 0,-2 0,-4 2,-6 2,-1 4,-2 6,-2zm0 2c-2,0 -3,0 -4,2 -2,1 -2,3 -2,4 0,2 0,3 1,4 0,1 1,2 2,2 1,1 2,1 3,1 1,0 2,0 3,-1 1,0 2,-1 3,-2 0,-1 1,-2 1,-4 0,-1 -1,-3 -2,-4 -2,-2 -3,-2 -5,-2z"/>
    <path class="fil10" d="M246 293l0 2c0,0 -1,-1 -2,-1 0,0 0,0 -1,1 0,0 0,0 0,0 0,0 0,1 0,2l0 2 3 0 0 2 -3 0 0 15 -2 0 0 -15 -2 0 0 -2 2 0 0 -2c0,-2 0,-2 0,-3 0,0 1,-1 1,-1 1,0 1,-1 2,-1 1,0 1,1 2,1z"/>
    <path class="fil10" d="M266 299l0 17 -2 0 0 -3c-1,1 -2,2 -3,2 -1,1 -3,1 -4,1 -2,0 -4,-1 -6,-3 -2,-1 -2,-3 -2,-6 0,-2 0,-4 2,-6 2,-1 4,-2 6,-2 1,0 3,0 4,1 1,0 2,1 3,2l0 -3 2 0zm-9 2c-1,0 -2,0 -3,1 -1,0 -2,1 -2,2 -1,1 -1,2 -1,3 0,2 0,3 1,4 0,1 1,2 2,2 1,1 2,1 3,1 1,0 3,0 4,-1 1,0 1,-1 2,-2 0,-1 1,-2 1,-4 0,-1 -1,-3 -2,-4 -1,-2 -3,-2 -5,-2z"/>
    <path class="fil10" d="M270 299l2 0 0 3c1,-1 1,-2 2,-3 1,0 1,0 2,0 1,0 1,0 2,0l-1 2c0,0 -1,0 -1,0 -1,0 -2,0 -2,1 -1,0 -1,1 -2,2 0,1 0,3 0,6l0 6 -2 0 0 -17z"/>
    <path class="fil10" d="M280 299l2 0 0 3c1,-1 1,-2 2,-2 1,-1 2,-1 4,-1 0,0 1,0 2,0 0,1 1,1 2,1 0,1 0,2 1,3 0,-2 1,-3 2,-3 1,-1 3,-1 4,-1 1,0 2,0 3,1 1,0 1,1 2,2 0,1 0,3 0,5l0 9 -2 0 0 -9c0,-2 0,-3 0,-4 0,-1 -1,-1 -1,-2 -1,0 -2,0 -3,0 -1,0 -2,0 -2,1 -1,0 -2,1 -2,2 -1,1 -1,3 -1,5l0 7 -2 0 0 -9c0,-2 0,-3 0,-4 -1,-1 -1,-1 -2,-2 0,0 -1,0 -2,0 -1,0 -2,0 -3,1 0,0 -1,1 -2,2 0,1 0,3 0,5l0 7 -2 0 0 -17z"/>
    <path class="fil10" d="M325 299l0 17 -2 0 0 -3c-1,1 -2,2 -3,2 -1,1 -2,1 -4,1 -2,0 -4,-1 -5,-3 -2,-1 -3,-3 -3,-6 0,-2 1,-4 3,-6 1,-1 3,-2 6,-2 1,0 2,0 3,1 1,0 2,1 3,2l0 -3 2 0zm-8 2c-1,0 -3,0 -4,1 -1,0 -1,1 -2,2 0,1 -1,2 -1,3 0,2 1,3 1,4 1,1 1,2 2,2 1,1 3,1 4,1 1,0 2,0 3,-1 1,0 2,-1 2,-2 1,-1 1,-2 1,-4 0,-1 0,-3 -2,-4 -1,-2 -2,-2 -4,-2z"/>
    <path class="fil10" d="M349 292c0,1 0,2 -1,3 -1,1 -2,2 -3,3 -1,0 -2,1 -3,1 -1,0 -2,-1 -3,-1 -1,-1 -2,-2 -3,-3 -1,-1 -1,-2 -1,-3 0,-1 0,-2 1,-4 1,-1 2,-1 3,-2 1,-1 2,-1 3,-1 1,0 2,0 3,1 1,1 2,1 3,2 1,2 1,3 1,4zm-1 0c0,-1 0,-2 -1,-3 0,-1 -1,-2 -2,-2 -1,-1 -2,-1 -3,-1 -1,0 -2,0 -3,1 -1,0 -2,1 -2,2 -1,1 -1,2 -1,3 0,1 0,2 1,3 0,1 1,1 2,2 1,0 2,1 3,1 1,0 2,-1 3,-1 1,-1 2,-1 2,-2 1,-1 1,-2 1,-3zm-9 -4l3 0c1,0 2,0 2,0 0,0 1,1 1,1 0,0 0,1 0,1 0,0 0,1 0,1 0,0 0,1 -1,1 1,0 1,0 1,0 0,1 0,1 0,2l0 0c0,1 0,1 0,2l1 0 -2 0c0,-1 0,-1 0,-1l0 -1c0,-1 0,-1 0,-1 0,0 0,0 -1,0 0,0 0,-1 -1,-1l-2 0 0 4 -1 0 0 -8zm1 1l0 2 2 0c1,0 1,0 2,0 0,0 0,0 0,-1 0,0 0,0 0,-1 -1,0 -1,0 -2,0l-2 0z"/>
    <path class="fil10" d="M221 197l2 0c0,-8 6,-15 14,-15 8,0 14,7 14,15 0,7 -6,14 -14,14l0 2c9,0 17,-7 17,-16 0,-10 -8,-17 -17,-17 -9,0 -16,7 -16,17z"/>
    <path class="fil10" d="M204 197c0,1 2,3 4,3 2,0 3,-2 3,-3 0,-15 12,-26 26,-26 15,0 26,11 26,26 0,14 -11,26 -25,26 -2,0 -3,1 -3,3 0,2 1,3 3,3 18,0 32,-14 32,-32 0,-19 -15,-33 -33,-33 -18,0 -33,14 -33,33z"/>
    <path class="fil10" d="M192 197c0,12 5,23 13,31l2 -1c-8,-8 -13,-19 -13,-30 0,-24 20,-43 43,-43 15,0 29,7 37,20l2 -1c-9,-14 -23,-22 -39,-22 -25,0 -45,21 -45,46z"/>
    <path class="fil10" d="M285 225c-10,17 -28,27 -47,27 -2,0 -3,2 -3,4 0,2 2,3 3,3 22,0 41,-12 53,-30 1,-2 0,-4 -1,-5 -2,-1 -4,0 -5,1z"/>
    <path class="fil10" d="M175 197c0,22 11,42 30,53 1,1 4,1 5,-1 1,-2 0,-4 -2,-5 -16,-10 -27,-28 -27,-47 0,-31 25,-56 56,-56 21,0 39,11 49,29 1,2 3,2 5,1 1,-1 2,-3 1,-4 -11,-20 -32,-33 -55,-33 -34,0 -62,28 -62,63z"/>
    <path class="fil10" d="M306 166l-17 0c-6,0 -26,2 -26,29 0,2 1,4 3,4 2,0 4,-2 4,-4 0,-19 12,-22 19,-22 0,0 9,0 14,0 0,5 0,45 0,51 -5,0 -15,0 -15,0 -2,0 -3,1 -3,3 0,2 1,3 3,3l21 0 0 -64 -3 0z"/>
    <path class="fil10" d="M306 181l-11 0c-10,0 -15,5 -15,14l0 2c0,23 -19,43 -43,43l0 2c19,0 35,-12 42,-29 1,0 28,0 28,0l0 -32 -1 0zm-24 16l0 -2c0,-10 7,-12 13,-12 0,0 8,0 10,0 0,2 0,26 0,28 -2,0 -23,0 -25,0 1,-4 2,-9 2,-14z"/>
    <path class="fil10" d="M296 194c-2,0 -3,1 -3,3 0,2 1,4 3,4l10 0c2,0 4,-2 4,-4 0,-2 -2,-3 -4,-3l-10 0z"/>
    <path class="fil10" d="M234 196c0,0 0,78 0,84 -4,0 -18,0 -23,0 0,-6 0,-83 0,-83 0,-2 -1,-4 -3,-4 -2,0 -4,2 -4,4l0 90 37 0 0 -91c0,-2 -1,-3 -3,-3 -2,0 -4,1 -4,3z"/>
    <polygon class="fil10" points="221,282 223,282 223,197 221,197 "/>
   </g>
   <g>
    <path class="fil11" d="M825 207c-2,-2 -6,-3 -9,-3 -4,0 -7,1 -10,3l0 -22 -11 0 0 74 11 0 0 -39c0,-3 3,-6 7,-6 2,0 4,1 6,3 1,2 1,5 1,8l0 34 11 0 0 -35c0,-10 -1,-13 -6,-17z"/>
    <path class="fil11" d="M744 224c-2,-16 -11,-20 -18,-20 -11,0 -17,7 -18,20 0,1 0,2 0,8 0,5 0,8 0,9 1,12 7,19 18,19 11,0 17,-7 18,-19 0,-1 0,-4 0,-9 0,-2 0,-7 0,-8zm-11 8c0,8 0,10 0,10 -1,4 -2,9 -7,9 -5,0 -7,-5 -7,-9 0,0 0,-2 0,-10 0,-7 0,-10 0,-10 0,-4 2,-8 7,-8 5,0 7,4 7,8 0,0 0,3 0,10z"/>
    <path class="fil11" d="M864 241c0,0 0,0 0,1 0,3 -1,9 -7,9 -5,0 -6,-5 -7,-9 0,-1 0,-2 0,-7l25 0c0,0 0,-4 0,-6 0,-1 0,-2 0,-5 0,-5 -2,-10 -5,-14 -3,-4 -8,-6 -13,-6 -10,0 -16,7 -18,20 0,1 0,2 0,8 0,5 0,8 0,9 1,12 8,19 18,19 10,0 17,-7 18,-19l-11 0zm-14 -15c0,-3 0,-3 0,-4 1,-5 3,-8 7,-8 6,0 7,5 7,8 0,2 0,3 0,4l-14 0z"/>
    <path class="fil11" d="M860 137l-192 0 -79 91 79 90 192 0 77 -90 -77 -91zm-188 10l183 0 70 82 -70 81 -183 0 -70 -82 70 -81z"/>
    <path class="fil11" d="M701 254c0,0 -1,-18 -1,-18 -1,-8 -3,-13 -7,-15 3,-2 7,-7 7,-16 0,-15 -9,-20 -20,-20l-17 0 0 74 11 0 0 -34 6 0c4,0 8,3 9,12l1 17c0,3 0,5 0,5l12 0c0,0 -1,-2 -1,-5zm-27 -59l6 0c5,0 8,3 9,8 0,1 0,1 0,2 0,1 0,1 0,2 -1,3 -2,9 -9,9l-6 0 0 -21z"/>
    <path class="fil11" d="M777 240c0,1 0,2 0,2 0,4 -2,9 -7,9 -5,0 -7,-5 -7,-9 0,-2 0,-3 0,-10 0,-7 0,-9 0,-10 1,-5 2,-8 7,-8 5,0 7,4 7,8 0,0 0,1 0,3l11 0c0,-1 0,-1 0,-2 -1,-15 -11,-19 -18,-19 -10,0 -17,7 -18,20 0,1 0,2 0,8 0,5 0,8 0,9 1,12 7,19 18,19 11,0 17,-7 18,-19 0,0 0,-1 0,-1l-11 0z"/>
   </g>
   <rect class="fil12 str0" x="509" width="509" height="455"/>
   <rect class="fil12 str0" x="509" y="455" width="509" height="455"/>
   <g>
    <rect class="fil12 str1" width="509" height="455"/>
    <rect class="fil12 str1" x="1018" width="509" height="455"/>
    <rect class="fil12 str1" x="1527" width="509" height="455"/>
    <rect class="fil12 str1" y="455" width="509" height="455"/>
    <rect class="fil12 str1" x="1018" y="455" width="509" height="455"/>
   </g>
   <g>
    <path class="fil13" d="M590 657l0 3c1,2 0,15 2,16 2,2 63,6 71,6 24,1 51,3 76,3l-2 -3c-1,0 -1,-1 -2,-2 -10,-11 -13,-25 -7,-40 13,-34 59,-33 72,0 4,12 2,26 -5,36 -2,4 -6,8 -7,9 33,0 78,-3 112,-5 6,-1 32,-2 36,-4 0,-3 0,-13 1,-16l0 -3c-9,1 -19,2 -28,3 -29,2 -56,4 -85,5 1,-11 1,-19 -2,-29 -3,-8 -7,-16 -12,-21 -21,-22 -35,-18 -43,-21l-7 0c-4,2 -13,1 -25,7 -14,8 -25,20 -30,35 -3,10 -3,18 -2,29 -28,-1 -57,-3 -85,-5 -9,-1 -19,-2 -28,-3z"/>
    <path class="fil13" d="M590 770l0 2 2 0c4,-2 73,-6 83,-6 74,-4 146,-3 219,2 6,1 39,3 42,4l1 0 0 -3c-1,-3 -1,-12 -1,-16 -3,-1 -17,-2 -21,-2 -7,-1 -14,-1 -21,-2 -68,-5 -151,-6 -219,-2 -7,0 -78,4 -84,6 0,4 0,14 -1,17z"/>
    <path class="fil13" d="M775 736l9 0 0 -24 15 24 7 0 0 -42 -8 -1 0 24c-3,-3 -5,-8 -8,-12 -2,-3 -5,-8 -7,-12l-8 0 0 43z"/>
    <path class="fil13" d="M704 736l9 0 0 -24 15 24 7 0 1 -42 -9 -1 0 24c-1,-1 -14,-22 -14,-23l-9 -1 0 43z"/>
    <path class="fil13" d="M640 701c6,-1 12,0 12,6 0,6 -7,7 -12,6l0 -12zm-9 35l9 0 0 -15 6 0 6 15 11 0 -8 -17c6,-4 9,-15 3,-21 -3,-3 -6,-4 -11,-4 -5,-1 -11,-1 -16,0l0 42z"/>
    <path class="fil13" d="M590 712l0 5c1,2 1,13 12,18 8,4 17,1 23,-4l0 -20 -16 0 0 8 7 0 0 9c-18,7 -21,-21 -10,-27 2,-1 5,-1 7,0 4,1 4,2 6,3 1,-1 4,-5 5,-7 -3,-1 -5,-3 -10,-4 -4,-1 -9,0 -12,1 -4,2 -6,4 -8,7 -1,1 -2,3 -2,5 -1,1 -1,4 -2,6z"/>
    <polygon class="fil13" points="840,736 849,736 849,718 862,718 862,736 871,736 871,693 862,693 862,710 849,710 849,694 840,693 "/>
    <path class="fil13" d="M891 708l5 12 -9 0 4 -12zm-18 28l9 0 2 -6c0,-2 0,-2 1,-2l13 0 3 8 10 0 -15 -42 -9 -1 -14 43z"/>
    <polygon class="fil13" points="743,736 770,736 770,728 752,728 752,718 767,718 767,710 752,710 752,701 769,701 769,694 743,693 "/>
    <path class="fil13" d="M697 705l-9 0c0,11 3,24 -6,24 -10,0 -7,-13 -7,-24l-9 0c0,5 -1,18 1,22 5,13 23,12 29,0 2,-4 2,-17 1,-22z"/>
    <polygon class="fil13" points="809,701 818,701 818,736 828,736 828,701 837,701 837,693 809,693 "/>
    <polygon class="fil13" points="913,736 935,736 935,728 922,728 922,693 913,693 "/>
    <polygon class="fil13" points="688,701 697,701 697,693 688,693 "/>
    <polygon class="fil13" points="675,701 675,693 666,693 666,701 "/>
    <polygon class="fil14" points="675,701 666,701 666,693 666,701 "/>
   </g>
   <g>
    <path class="fil15" d="M1188 705c0,3 0,4 1,5 1,0 2,0 2,0 1,0 1,0 1,0 0,1 0,1 -1,1 -3,0 -4,0 -5,0 -1,0 -2,0 -5,0 0,0 -1,0 -1,-1 0,0 1,0 1,0 1,0 1,0 2,0 1,-1 1,-2 1,-5l1 -25c0,-1 0,-1 0,-1 1,0 1,0 2,1 0,1 6,7 13,13 2,3 8,9 9,10l0 0 -1 -19c0,-2 0,-3 -1,-4 -1,0 -2,0 -2,0 -1,0 -1,0 -1,0 0,0 1,-1 1,-1 2,0 4,1 5,1 1,0 2,-1 4,-1 1,0 1,1 1,1 0,0 0,0 -1,0 0,0 0,0 -1,0 -1,1 -1,2 -1,4l-1 26c0,1 0,1 0,1 -1,0 -1,0 -2,-1 -2,-2 -8,-8 -12,-12 -4,-4 -9,-9 -10,-10l0 0 1 17z"/>
    <path class="fil15" d="M1251 696c0,-9 -5,-15 -12,-15 -5,0 -10,3 -10,13 0,8 5,15 12,15 3,0 10,-1 10,-13zm-28 -1c0,-7 5,-16 17,-16 10,0 17,6 17,15 0,10 -7,17 -17,17 -12,0 -17,-9 -17,-16z"/>
    <path class="fil15" d="M1266 684c-1,-3 -2,-3 -4,-4 0,0 -1,0 -1,0 -1,0 -1,0 -1,0 0,0 1,-1 1,-1 3,0 5,1 6,1 1,0 3,-1 5,-1 1,0 1,1 1,1 0,0 0,0 0,0 -1,0 -1,0 -2,1 0,0 0,0 0,0 0,1 0,2 1,4l7 18 0 0c2,-4 7,-18 8,-20 0,-1 0,-1 0,-2 0,0 0,0 0,-1 -1,0 -1,0 -2,0 0,0 0,0 0,0 0,0 0,-1 1,-1 2,0 4,1 4,1 1,0 3,-1 4,-1 1,0 1,1 1,1 0,0 0,0 -1,0 0,0 -1,0 -2,1 0,0 -1,1 -2,3 -2,4 -3,7 -5,12 -3,6 -5,10 -6,12 -1,3 -1,3 -1,3 -1,0 -1,0 -2,-2l-10 -25z"/>
    <path class="fil15" d="M1312 698c0,0 0,0 0,0l-3 -11c0,0 0,0 -1,0 0,0 0,0 0,0l-4 11c0,0 0,0 1,0l7 0zm-8 2c0,0 -1,0 -1,0l-2 6c0,1 0,2 0,3 0,0 0,1 1,1l1 0c0,0 0,0 0,0 0,1 0,1 0,1 -2,0 -3,0 -5,0 0,0 -2,0 -5,0 0,0 0,0 0,-1 0,0 0,0 0,0 1,0 1,0 1,0 2,0 3,-2 4,-4l10 -26c1,-1 1,-1 2,-1 0,0 0,0 1,1 1,2 7,19 10,25 1,4 3,5 3,5 1,0 2,0 2,0 1,0 1,0 1,0 0,1 -1,1 -2,1 -2,0 -5,0 -8,0 -1,0 -1,0 -1,-1 0,0 0,0 0,0 1,0 1,-1 1,-1l-4 -9c0,0 0,0 0,0l-9 0z"/>
    <path class="fil15" d="M1341 695c0,0 0,0 1,0 1,1 2,1 3,1 1,0 2,0 3,-1 1,-1 2,-3 2,-6 0,-6 -4,-8 -6,-8 -1,0 -2,0 -2,1 -1,0 -1,0 -1,0l0 13zm-5 -4c0,-6 0,-7 0,-8 0,-2 0,-2 -1,-3 -1,0 -1,0 -2,0 0,0 -1,0 -1,0 0,0 1,-1 1,-1 2,0 5,1 6,1 1,0 4,-1 6,-1 2,0 5,1 7,2 1,1 3,3 3,6 0,3 -1,6 -5,9 3,5 6,8 9,11 2,2 4,3 4,3 1,0 1,0 1,0 1,0 1,0 1,0 0,1 0,1 -1,1l-4 0c-2,0 -3,0 -4,-1 -2,-1 -4,-3 -6,-6 -2,-2 -3,-5 -4,-6 0,0 0,0 -1,0l-3 0c-1,0 -1,0 -1,0l0 1c0,4 0,7 1,9 0,1 0,2 1,2 1,0 2,0 2,0 1,0 1,0 1,0 0,1 -1,1 -1,1 -3,0 -6,0 -6,0 -1,0 -4,0 -5,0 -1,0 -1,0 -1,-1 0,0 0,0 1,0 0,0 1,0 1,0 1,0 1,-1 1,-2 0,-2 0,-5 0,-9l0 -8z"/>
    <path class="fil15" d="M1378 682l-6 0c-2,0 -3,0 -4,1 0,1 -1,1 -1,2 0,0 0,0 0,0 0,0 -1,0 -1,-1 0,0 1,-4 1,-4 0,-1 1,-1 1,-1 0,0 1,0 2,0 1,1 2,1 4,1l16 0c3,0 4,-1 4,-1 0,0 0,0 0,1 0,1 0,4 0,5 0,0 0,1 0,1 0,0 -1,-1 -1,-1l0 -1c0,-1 -1,-2 -5,-2l-5 0 0 17c0,4 0,7 0,9 1,1 1,2 2,2 1,0 2,0 2,0 1,0 1,0 1,0 0,1 0,1 -1,1 -3,0 -5,0 -6,0 -1,0 -4,0 -6,0 0,0 0,0 0,-1 0,0 0,0 0,0 1,0 1,0 2,0 1,0 1,-1 1,-2 0,-2 0,-5 0,-9l0 -17z"/>
    <path class="fil15" d="M1408 691c0,-6 0,-7 0,-8 0,-2 -1,-2 -1,-3 -1,0 -1,0 -2,0 0,0 -1,0 -1,0 0,0 1,-1 1,-1 2,0 5,1 6,1 1,0 3,-1 5,-1 0,0 1,1 1,1 0,0 -1,0 -1,0 0,0 -1,0 -1,0 -1,1 -2,1 -2,3 0,1 0,2 0,8l0 8c0,4 0,7 0,9 0,1 1,2 2,2 1,0 1,0 2,0 0,0 1,0 1,0 0,1 -1,1 -1,1 -3,0 -5,0 -7,0 0,0 -3,0 -5,0 0,0 -1,0 -1,-1 0,0 1,0 1,0 1,0 1,0 2,0 0,0 1,-1 1,-2 0,-2 0,-5 0,-9l0 -8z"/>
    <path class="fil15" d="M1429 710c0,0 0,0 0,-1 0,-2 0,-5 0,-6 0,0 0,-1 0,-1 1,0 1,1 1,1 0,1 0,1 0,2 1,3 4,4 6,4 4,0 6,-2 6,-4 0,-2 -1,-4 -4,-7l-2 -1c-5,-4 -6,-7 -6,-10 0,-5 3,-8 9,-8 3,0 5,0 6,1 0,0 0,0 0,0 0,1 0,2 0,5 0,1 0,1 0,1 -1,0 -1,0 -1,0 0,-1 0,-2 -1,-3 -1,-1 -2,-2 -4,-2 -3,0 -5,2 -5,4 0,2 1,3 4,6l1 1c5,4 7,6 7,10 0,3 -1,6 -4,8 -2,1 -4,1 -6,1 -3,0 -5,0 -7,-1z"/>
    <path class="fil16" d="M1124 713c-23,-1 -30,-14 -22,-29 4,-8 10,-17 3,-25 0,0 0,0 0,0 17,7 8,21 6,26 -6,11 -3,25 13,28 1,0 1,0 0,0z"/>
    <path class="fil15" d="M1127 701l4 -48 -9 0 5 48c0,0 0,0 0,0z"/>
    <path class="fil17" d="M1138 677c5,4 15,29 -8,36 0,0 0,0 0,0 36,-4 24,-30 8,-37 0,0 -1,1 0,1z"/>
   </g>
  </g>
 </g>
</svg>
