<?xml version="1.0" encoding="UTF-8"?>
<!DOCTYPE svg PUBLIC "-//W3C//DTD SVG 1.0//EN" "http://www.w3.org/TR/2001/REC-SVG-20010904/DTD/svg10.dtd">
<!-- Creator: CorelDRAW X8 -->
<svg xmlns="http://www.w3.org/2000/svg" xml:space="preserve" width="2036px" height="2277px" version="1.0" style="shape-rendering:geometricPrecision; text-rendering:geometricPrecision; image-rendering:optimizeQuality; fill-rule:evenodd; clip-rule:evenodd"
viewBox="0 0 2036 2277"
 xmlns:xlink="http://www.w3.org/1999/xlink">
 <defs>
  <style type="text/css">
   <![CDATA[
    .str0 {stroke:#E6E6E6;stroke-width:3.54331}
    .fil0 {fill:none}
    .fil9 {fill:black}
    .fil42 {fill:#004290}
    .fil23 {fill:#005CBD}
    .fil22 {fill:#005CBE}
    .fil25 {fill:#005DBF}
    .fil10 {fill:#0079C2}
    .fil40 {fill:#008FB7}
    .fil28 {fill:#0856A5}
    .fil60 {fill:#0A64AC}
    .fil50 {fill:#121212}
    .fil45 {fill:#131313}
    .fil57 {fill:#14973C}
    .fil46 {fill:#161616}
    .fil41 {fill:#191813}
    .fil44 {fill:#191919}
    .fil54 {fill:#1B286E}
    .fil53 {fill:#1C2A6C}
    .fil17 {fill:#212972}
    .fil16 {fill:#212974}
    .fil12 {fill:#231F20}
    .fil5 {fill:#25336D}
    .fil8 {fill:#26336D}
    .fil56 {fill:#26529C}
    .fil55 {fill:#26539D}
    .fil14 {fill:#265BA7}
    .fil7 {fill:#27346D}
    .fil59 {fill:#2B2827}
    .fil13 {fill:#2C5CA4}
    .fil27 {fill:#2CA8E1}
    .fil31 {fill:#2D3091}
    .fil32 {fill:#2E3192}
    .fil33 {fill:#31318A}
    .fil36 {fill:#325A90}
    .fil38 {fill:#335B90}
    .fil34 {fill:#34348C}
    .fil58 {fill:#558EC7}
    .fil29 {fill:#75828A}
    .fil49 {fill:#D8232A}
    .fil43 {fill:#D92128}
    .fil48 {fill:#D92229}
    .fil47 {fill:#D9242B}
    .fil4 {fill:#D9D9D9}
    .fil51 {fill:#DA282E}
    .fil6 {fill:#DADADA}
    .fil61 {fill:#E30240}
    .fil1 {fill:#E41F17}
    .fil11 {fill:#EC1C24}
    .fil37 {fill:#F8B601}
    .fil35 {fill:#FAC126}
    .fil18 {fill:#FEFEFF}
    .fil20 {fill:#FF2B1B}
    .fil24 {fill:#FFFDFD}
    .fil21 {fill:#FFFEFE}
    .fil2 {fill:black;fill-rule:nonzero}
    .fil26 {fill:#005CBE;fill-rule:nonzero}
    .fil52 {fill:#161616;fill-rule:nonzero}
    .fil19 {fill:#212974;fill-rule:nonzero}
    .fil15 {fill:#2C5CA4;fill-rule:nonzero}
    .fil39 {fill:#325A90;fill-rule:nonzero}
    .fil3 {fill:#B31917;fill-rule:nonzero}
    .fil30 {fill:#F8972D;fill-rule:nonzero}
   ]]>
  </style>
 </defs>
 <g id="Capa_x0020_1">
  <metadata id="CorelCorpID_0Corel-Layer"/>
  <g id="_2486009410176">
   <rect class="fil0 str0" y="1366" width="509" height="455"/>
   <rect class="fil0 str0" x="509" y="1366" width="509" height="455"/>
   <rect class="fil0 str0" x="1018" y="1366" width="509" height="455"/>
   <rect class="fil0 str0" x="1527" y="1366" width="509" height="455"/>
   <rect class="fil0 str0" y="1822" width="509" height="455"/>
   <rect class="fil0 str0" x="1018" y="1822" width="509" height="455"/>
   <rect class="fil0 str0" x="1527" y="1822" width="509" height="455"/>
   <rect class="fil0 str0" x="509" y="1822" width="509" height="455"/>
   <rect class="fil0 str0" width="509" height="455"/>
   <rect class="fil0 str0" x="509" width="509" height="455"/>
   <rect class="fil0 str0" x="1018" width="509" height="455"/>
   <rect class="fil0 str0" x="1527" width="509" height="455"/>
   <rect class="fil0 str0" y="455" width="509" height="455"/>
   <rect class="fil0 str0" x="509" y="455" width="509" height="455"/>
   <rect class="fil0 str0" x="1527" y="455" width="509" height="455"/>
   <rect class="fil0 str0" y="911" width="509" height="455"/>
   <rect class="fil0 str0" x="509" y="911" width="509" height="455"/>
   <rect class="fil0 str0" x="1527" y="911" width="509" height="455"/>
   <rect class="fil0 str0" x="1018" y="911" width="509" height="455"/>
   <rect class="fil0 str0" x="1018" y="455" width="509" height="455"/>
   <g>
    <g>
     <path class="fil1" d="M692 248c9,0 28,1 35,-1 21,-7 40,-8 61,0 8,2 26,1 36,1 -1,-3 -2,-3 -6,-6 -24,-16 -58,-23 -88,-15 -3,1 -5,2 -8,3 3,-5 6,-11 9,-16l24 -41c2,-3 0,-3 4,-4l26 47c5,9 6,4 19,11 3,1 6,3 10,4l-35 -60c-2,-4 -4,-8 -7,-12 -2,-4 -13,-22 -13,-25 -4,1 -6,8 -9,13 -3,5 -6,9 -9,14l-41 72c-3,5 -6,10 -8,15z"/>
     <path class="fil1" d="M658 268c0,5 2,10 3,14l-8 0c1,-3 1,-5 2,-7 1,-4 1,-5 3,-7zm82 0c0,7 0,11 9,14 14,5 10,2 10,10 -5,1 -11,1 -16,-1 -1,2 -2,6 -3,8l-9 -42c-18,0 -14,-2 -17,8 -2,8 -3,14 -5,22 0,-1 0,-1 0,-1l-5 -25c-1,-5 0,-4 -16,-4 -2,6 -3,12 -5,19 -1,3 -1,5 -2,9 -1,6 -1,7 -3,9 -1,-3 -5,-14 -7,-18l-7 -19 -14 0c0,3 -2,7 -3,11l-9 22c-1,3 -4,8 -4,11l12 0c1,-4 2,-5 3,-9l15 0c4,13 1,9 25,9 0,-5 3,-15 4,-22 1,-3 1,-5 3,-6l5 22c1,8 -1,6 13,6 3,0 3,-3 3,-6 1,-4 5,-21 7,-23 0,8 3,21 4,29 5,0 8,0 12,0 2,0 33,8 33,-14 0,-16 -21,-11 -21,-18 0,-7 15,-2 16,-2 2,-2 3,-6 4,-8 -14,-8 -32,-2 -32,9z"/>
     <path class="fil1" d="M794 268c1,5 3,10 4,14l-8 0c0,-3 1,-5 1,-7l3 -7zm-24 33l12 0c2,-2 3,-7 4,-9l15 0c1,4 3,5 3,9l32 0 0 -20 -21 0 0 11 -14 -35 -14 0c-1,3 -3,7 -4,10l-9 23c-1,4 -2,8 -4,11z"/>
     <path class="fil1" d="M839 259c0,11 -1,18 3,18l36 0c4,0 3,-7 3,-18 0,-2 -1,-3 -3,-3l-36 0c-2,0 -3,1 -3,3z"/>
     <polygon class="fil1" points="839,301 881,301 881,281 839,281 "/>
     <path class="fil1" d="M815 259c0,23 -5,18 19,18 4,0 2,-7 2,-18 0,-5 -7,-3 -19,-3 -2,0 -2,1 -2,3z"/>
    </g>
    <path class="fil2" d="M635 321l10 0 0 -3 -7 0 0 -11 -3 0 0 14zm29 0l4 0 -6 -14 -2 0 -6 14 4 0 1 -3 4 0 1 3zm-2 -6l-2 0 1 -2 1 2zm16 6l6 0c1,0 3,0 4,-1 0,-1 1,-2 1,-4 0,-1 -1,-2 -1,-3l0 0c-1,0 -1,0 -1,0 0,-1 0,-1 0,-2 0,-1 0,-2 -1,-3 -1,0 -2,-1 -3,-1l-5 0 0 14zm3 -3l0 -3 3 0c1,0 2,1 2,1 0,1 -1,2 -2,2l-3 0zm0 -6l0 -1 2 0c0,0 1,0 1,0 0,0 -1,1 -1,1l-2 0zm25 -5c-4,0 -8,3 -8,7 0,4 4,7 8,7 4,0 7,-3 7,-7 0,-4 -3,-7 -7,-7zm0 11c-2,0 -4,-2 -4,-4 0,-2 2,-4 4,-4 2,0 4,2 4,4 0,2 -2,4 -4,4zm25 -4c1,0 1,-2 1,-3 0,-1 0,-2 -1,-3 0,0 -1,-1 -2,-1l-6 0 0 14 4 0 0 -6 0 0 5 6 4 0 -5 -7zm-4 -4l2 0c0,0 0,1 0,1 0,0 0,1 0,1l-2 0 0 -2zm27 11l4 0 -5 -14 -3 0 -6 14 4 0 1 -3 4 0 1 3zm-2 -6l-1 0 0 -2 1 2zm17 6l3 0 0 -10 4 0 0 -4 -10 0 0 4 3 0 0 10zm23 -14c-4,0 -7,3 -7,7 0,4 3,7 7,7 4,0 7,-3 7,-7 0,-4 -3,-7 -7,-7zm0 11c-2,0 -4,-2 -4,-4 0,-2 2,-4 4,-4 2,0 4,2 4,4 0,2 -2,4 -4,4zm25 -4c1,0 1,-2 1,-3 0,-1 0,-2 -1,-3 0,0 -1,-1 -2,-1l-6 0 0 14 4 0 0 -6 0 0 5 6 4 0 -5 -7zm-4 -4l2 0c0,0 0,1 0,1 0,0 0,1 0,1l-2 0 0 -2zm19 11l3 0 0 -14 -3 0 0 14zm22 -14c-4,0 -8,3 -8,7 0,4 4,7 8,7 4,0 7,-3 7,-7 0,-4 -3,-7 -7,-7zm0 11c-2,0 -4,-2 -4,-4 0,-2 2,-4 4,-4 2,0 4,2 4,4 0,2 -2,4 -4,4zm22 3c1,0 2,0 3,0 1,-1 1,-1 2,-2 0,0 1,-1 1,-2 0,-2 -1,-3 -3,-4l0 0c0,0 -2,0 -2,-1 0,0 -1,0 -1,0 -1,0 -2,0 -2,-1 0,0 1,0 1,0 0,-1 1,-1 1,-1 1,0 1,1 3,2l2 -3c-2,-1 -3,-2 -4,-2 0,0 -1,0 -1,0 -1,0 -2,0 -2,1l0 0c-1,0 -2,0 -2,1 -1,1 -1,1 -1,2 0,2 1,3 2,4 1,0 3,1 3,1 1,0 2,0 2,1 0,0 0,1 -1,1 0,0 0,0 -1,0 0,0 0,0 0,0 -1,0 -2,-1 -3,-2l-2 3c1,1 3,2 4,2 0,0 1,0 1,0z"/>
    <path class="fil3" d="M889 256c1,0 1,0 2,0 1,1 1,1 2,2 0,0 0,1 0,2 0,0 0,1 0,2 -1,0 -1,1 -2,1 -1,1 -1,1 -2,1 -1,0 -1,0 -2,-1 -1,0 -1,-1 -2,-1 0,-1 0,-2 0,-2 0,-1 0,-2 0,-2 1,-1 1,-1 2,-2 1,0 1,0 2,0zm0 0c-1,0 -1,1 -2,1 0,0 -1,1 -1,1 0,1 0,1 0,2 0,0 0,1 0,1 0,1 1,1 1,2 1,0 1,0 2,0 1,0 1,0 2,0 0,-1 1,-1 1,-2 0,0 0,-1 0,-1 0,-1 0,-1 0,-2 0,0 -1,-1 -1,-1 -1,0 -1,-1 -2,-1zm-2 6l0 -4 1 0c1,0 1,0 1,0 1,0 1,0 1,0 0,0 0,0 0,0 1,0 1,1 1,1 0,0 0,0 -1,1 0,0 0,0 -1,0 1,0 1,0 1,0 0,0 0,0 0,1 0,0 0,0 0,0l1 1 -1 0 -1 -1c0,0 0,-1 0,-1 0,0 -1,0 -1,0l0 0 0 2 -1 0zm1 -3l0 0c1,0 1,0 1,0 0,0 1,0 1,0 0,0 0,0 0,0 0,0 0,0 0,0 0,-1 -1,-1 -1,-1 0,0 0,0 -1,0l0 0 0 1z"/>
   </g>
   <g>
    <path class="fil4" d="M292 258l3 0 0 12 -3 0 0 -12zm11 0c8,-1 9,11 2,12 -4,1 -7,-1 -7,-5 -1,-4 1,-6 5,-7zm-29 0c9,-1 10,11 2,12 -8,1 -9,-11 -2,-12zm12 2c1,-1 2,-2 4,-2 0,1 0,2 0,3 -4,0 -3,4 -3,9l-3 0 0 -12 2 0 0 2zm26 7c1,1 2,1 3,1 1,0 2,0 2,-2 -1,0 -2,-1 -3,-1 -4,-1 -3,-5 -1,-6 2,-1 5,-1 6,0l0 2c-1,-1 -2,-1 -4,-1 -1,1 -1,2 0,2 2,1 3,1 4,3 2,5 -4,7 -8,4l1 -2zm-19 -14c3,0 3,3 1,4 -2,0 -3,-3 -1,-4zm-90 -47l7 0c0,7 -1,28 1,32 1,4 5,6 10,6l10 0 0 5c-6,0 -16,1 -21,-1 -5,-3 -7,-8 -7,-15l0 -18 0 -9zm-38 0c0,8 0,17 0,25 0,4 0,8 2,10 3,4 14,5 19,0 2,-2 2,-6 2,-10 0,-9 0,-17 0,-25l7 0 0 6 8 2 0 8 -8 -3c0,6 0,18 -1,22 -3,5 -8,8 -13,9l-2 0c0,0 0,0 0,0 2,1 4,1 6,2 1,0 4,1 5,1l-1 1 3 0 1 0c1,1 12,4 13,4 0,0 -1,0 -1,0 -1,0 -1,0 -1,0 3,0 3,0 5,1 0,-1 3,1 4,1l0 -7 3 0 0 7c1,-1 3,-3 6,-2 2,1 3,3 3,5 1,0 1,0 2,0 0,0 0,0 0,0 0,0 0,0 0,0 0,0 0,0 0,0l0 -1c2,-6 13,-6 12,3l2 1 0 -8 3 0 0 2c1,-1 1,-1 2,-2 2,0 2,1 2,3 -4,0 -4,2 -4,6 1,0 3,0 4,0l1 0c0,0 0,1 0,1 -1,-5 3,-5 7,-6 -1,-3 -4,-2 -6,-1l0 -2c1,-1 6,-2 8,1 1,2 0,7 1,10l-3 0c0,0 0,0 0,0 2,1 -1,0 1,0 0,0 0,0 0,0 3,0 2,0 2,-1l4 1c-1,-3 -1,-5 -1,-9l-2 0 0 -3 2 0 0 -2 3 -1 0 3 3 0 0 3 -3 0c0,6 -1,7 3,7l0 2 -3 0c0,1 1,1 2,0 1,0 5,1 6,1 3,1 5,1 8,1 17,2 52,5 68,1 2,-1 4,-2 6,-3 2,-2 2,-4 3,-7 0,-2 6,-28 6,-29 -1,-1 -1,0 -1,1 -3,3 -12,5 -15,5l4 9 -8 0c-1,-1 -2,-7 -3,-8 -1,0 -5,0 -6,0 -1,0 -16,0 -17,0 0,0 -1,1 -1,2l-2 6 -8 0 4 -9 -8 0c0,2 0,3 0,5 1,2 1,2 1,4l-7 0c-1,-2 -1,-5 -1,-8l-1 -2c0,0 0,0 0,0 0,-1 0,-1 0,-1 0,1 0,1 0,1l-20 -3 0 13 -7 0 0 -14 -20 -3 0 -7 20 3 0 -22c5,0 11,0 17,0 5,0 11,0 15,2 3,2 5,7 4,13 -1,4 -4,7 -9,8 1,1 1,0 1,1 1,0 2,1 3,2l1 1c1,0 0,0 1,0l11 0c1,0 1,0 1,1l12 -28 9 0c0,0 0,-1 -1,-1 -5,0 -4,1 -9,-1 -11,-3 -21,-6 -32,-9 -2,0 -3,0 -4,1l-21 9c-1,0 -3,1 -4,2l0 -1c0,0 0,0 0,0l0 5 -15 0 0 38 -7 0c0,-3 0,-6 0,-9l0 -28c0,0 0,0 -1,-1 1,2 1,4 0,6l-10 4 10 2c1,1 1,6 0,8 -5,-2 -10,-3 -15,-4 -2,0 -13,-3 -15,-3l0 -8c2,1 11,4 13,3 2,-1 17,-7 17,-8l-14 0 0 -5 28 0 14 -7c2,0 14,-5 14,-6 -1,0 -20,-4 -22,-4 -27,-5 -71,-11 -97,-8 -7,1 -19,4 -12,11 7,7 22,13 32,16 1,1 3,1 4,2l0 7c-6,-2 -11,-4 -17,-6 -1,-1 -4,-2 -5,-3 0,0 0,-1 0,-1l0 -1z"/>
    <path class="fil5" d="M212 176l9 1c1,-1 7,-7 8,-8l25 -25c1,0 6,6 7,7 3,2 5,5 8,7 4,5 9,10 14,15l18 17c1,1 1,2 2,2 1,1 12,4 14,4l-63 -62c-1,1 -8,8 -10,10l-22 22c0,0 -10,10 -10,10z"/>
    <path class="fil5" d="M275 211c4,0 10,0 14,0 5,1 8,2 8,7 0,3 -1,4 -2,6 -2,1 -4,1 -6,1 -4,0 -10,0 -14,0l0 -14zm-7 17l0 7 0 14 7 0 0 -13 0 -5c4,0 9,0 13,1 2,0 4,1 5,2 1,0 2,3 2,4 0,0 0,0 0,1 0,0 0,0 0,0l1 2c0,3 0,6 1,8l7 0c0,-2 0,-2 -1,-4 0,-2 0,-3 0,-5 -1,-3 -1,-5 -3,-7l-1 -1c-1,-1 -2,-2 -3,-2 0,-1 0,0 -1,-1 5,-1 8,-4 9,-8 1,-6 -1,-11 -4,-13 -4,-2 -10,-2 -15,-2 -6,0 -12,0 -17,0l0 22z"/>
    <path class="fil5" d="M209 276c0,0 0,0 0,0l34 34c3,3 9,9 11,11 1,0 5,-4 6,-5 2,-2 3,-3 5,-5l31 -32 -9 -1 -32 33c-1,0 -2,-1 -3,-2 -1,-1 -1,-1 -2,-2 -2,-2 -3,-3 -5,-4 -3,-4 -6,-6 -9,-9 -5,-6 -13,-13 -17,-18l-10 0z"/>
    <path class="fil5" d="M321 232c1,-1 8,-20 9,-21l7 21 -16 0zm-8 2l-2 6 -4 9 8 0 2 -6c0,-1 1,-2 1,-2 0,-1 1,-2 1,-3l21 0c0,1 1,2 1,3 1,1 2,7 3,8l8 0 -4 -9c0,-1 -2,-5 -2,-6 -1,-1 -1,-1 -1,-2l-5 -11c0,-2 -4,-11 -5,-13l-1 -2 -9 0 -12 28z"/>
    <path class="fil5" d="M159 242c1,0 1,2 3,4 6,5 14,3 17,4 0,0 0,0 0,0l2 0c5,-1 10,-4 13,-9 1,-4 1,-16 1,-22l0 -7 0 -6 -7 0c0,8 0,16 0,25 0,4 0,8 -2,10 -5,5 -16,4 -19,0 -2,-2 -2,-6 -2,-10 0,-8 0,-17 0,-25l-6 0 -1 0c-1,1 0,25 0,28 0,3 0,5 1,8z"/>
    <path class="fil5" d="M240 211l0 0c1,1 1,1 1,1l0 28c0,3 0,6 0,9l7 0 0 -38 15 0 0 -5 -9 0 -28 0 0 5 14 0z"/>
    <path class="fil6" d="M159 242c-1,-3 -1,-5 -1,-8 0,-3 -1,-27 0,-28l1 0c0,-1 -3,-2 -4,-3 -2,-1 -6,-4 -7,-7 -1,-2 0,-1 -1,-2 0,1 0,1 0,1 0,0 0,0 0,0 0,0 0,0 0,0l-1 14c-1,5 -1,10 -1,15 0,6 -1,7 4,11 4,4 9,6 10,7z"/>
    <path class="fil5" d="M203 215l0 18c0,7 2,12 7,15 5,2 15,1 21,1l0 -5 -10 0c-5,0 -9,-2 -10,-6 -2,-4 -1,-25 -1,-32l-7 0 0 9z"/>
    <path class="fil6" d="M346 234l0 -1c4,0 10,-1 14,-3 6,-3 2,-7 -1,-10 -3,-3 -7,-4 -11,-7 -2,-1 -10,-4 -13,-5 1,2 5,11 5,13l5 11c0,1 0,1 1,2z"/>
    <path class="fil4" d="M275 225c4,0 10,0 14,0 2,0 4,0 6,-1 1,-2 2,-3 2,-6 0,-5 -3,-6 -8,-7 -4,0 -10,0 -14,0l0 14z"/>
    <path class="fil4" d="M321 232l16 0 -7 -21c-1,1 -8,20 -9,21z"/>
    <path class="fil5" d="M216 264c0,-5 6,-5 6,0 0,5 -6,5 -6,1l0 -1zm-3 -4l0 10 3 0 0 -1c1,0 1,1 3,1 4,1 7,-3 6,-7 0,-2 -1,-4 -3,-5 -3,-1 -5,1 -6,2l0 -7 -3 0 0 7z"/>
    <path class="fil5" d="M303 260c4,-1 5,7 1,8 -4,1 -5,-6 -1,-8zm0 -2c-4,1 -6,3 -5,7 0,4 3,6 7,5 7,-1 6,-13 -2,-12z"/>
    <path class="fil5" d="M235 266c0,1 -1,2 -3,2 -1,0 -2,-1 -2,-3 -1,-1 0,-5 3,-5 3,0 3,5 2,6zm-8 -3c0,2 -1,3 1,5 1,1 2,2 4,2 3,1 6,-1 7,-5 1,-9 -10,-9 -12,-3l0 1c0,0 0,0 0,0 0,0 0,0 0,0 0,0 0,0 0,0z"/>
    <path class="fil5" d="M274 260c5,-1 5,7 2,8 -4,1 -5,-6 -2,-8zm0 -2c-7,1 -6,13 2,12 8,-1 7,-13 -2,-12z"/>
    <path class="fil5" d="M256 264c0,2 0,3 -1,4 -3,2 -6,-4 1,-4zm-7 4c1,2 3,3 5,2 1,0 1,-1 2,-1l0 1 3 0c-1,-3 0,-8 -1,-10 -2,-3 -7,-2 -8,-1l0 2c2,-1 5,-2 6,1 -4,1 -8,1 -7,6z"/>
    <path class="fil5" d="M207 264c1,5 -3,4 -3,4 -2,-2 0,-4 3,-4zm2 -5c-2,-1 -2,-1 -5,-1l-3 1 1 2c2,-1 5,-2 5,1 -3,0 -7,1 -7,5 0,2 2,3 3,3 2,1 3,0 4,-1 0,0 0,0 0,0l1 1 2 0c0,-2 0,-4 0,-7 0,-4 -1,-3 -1,-4z"/>
    <path class="fil5" d="M193 268c-1,-1 -1,0 -1,-2l0 -12 -3 0 0 16 10 0 0 -2 -6 0z"/>
    <path class="fil5" d="M263 270c1,0 1,0 2,0l3 0 0 -2c-4,0 -3,-1 -3,-7l3 0 0 -3 -3 0 0 -3 -3 1 0 2 -2 0 0 3 2 0c0,4 0,6 1,9z"/>
    <path class="fil5" d="M312 267l-1 2c4,3 10,1 8,-4 -1,-2 -2,-2 -4,-3 -1,0 -1,-1 0,-2 2,0 3,0 4,1l0 -2c-1,-1 -4,-1 -6,0 -2,1 -3,5 1,6 1,0 2,1 3,1 0,2 -1,2 -2,2 -1,0 -2,0 -3,-1z"/>
    <path class="fil5" d="M241 266l0 4 3 0 0 -3c0,-4 0,-6 4,-6 0,-2 0,-3 -2,-3 -1,1 -1,1 -2,2l0 -2 -3 0 0 8z"/>
    <path class="fil5" d="M286 260l0 -2 -2 0 0 12 3 0c0,-5 -1,-9 3,-9 0,-1 0,-2 0,-3 -2,0 -3,1 -4,2z"/>
    <path class="fil7" d="M339 187c3,0 6,2 7,5 1,8 -11,9 -12,2 -1,-4 2,-6 5,-7zm-1 -1c-9,2 -5,16 3,14 9,-3 6,-16 -3,-14z"/>
    <path class="fil4" d="M274 260c-3,2 -2,9 2,8 3,-1 3,-9 -2,-8z"/>
    <path class="fil4" d="M303 260c-4,2 -3,9 1,8 4,-1 3,-9 -1,-8z"/>
    <polygon class="fil5" points="292,270 295,270 295,258 292,258 "/>
    <path class="fil8" d="M340 192l-2 0 0 -1c1,0 2,0 3,0l0 1c0,0 -1,0 -1,0zm-3 4l1 0 0 -2c2,0 3,1 3,2l2 0c-1,-1 -1,-2 -2,-3 1,0 1,0 1,-1 2,-3 -3,-3 -5,-3l0 7z"/>
    <path class="fil4" d="M230 265l0 -1 5 1 0 1c1,-1 1,-6 -2,-6 -3,0 -4,4 -3,5z"/>
    <path class="fil4" d="M256 264c-7,0 -4,6 -1,4 1,-1 1,-2 1,-4z"/>
    <path class="fil5" d="M293 253c-2,1 -1,4 1,4 2,-1 2,-4 -1,-4z"/>
    <polygon class="fil9" points="231,204 231,204 231,204 "/>
   </g>
   <path class="fil10" d="M1247 207l5 0c6,0 12,2 17,6 4,3 6,8 7,12 1,5 -1,10 -4,14 -3,4 -8,7 -14,8 -6,2 -12,2 -18,0 -5,-1 -10,-4 -14,-8 -3,-4 -4,-9 -4,-14 1,-5 4,-9 8,-12 4,-4 11,-6 17,-6zm0 10c-2,1 -4,1 -5,3 -2,1 -3,4 -3,6 0,2 0,5 1,7 1,2 3,4 5,4 3,2 7,1 10,0 1,-1 3,-3 4,-4 0,-3 1,-5 0,-7 0,-3 -1,-5 -3,-6 -2,-3 -6,-3 -9,-3zm-111 -9c5,0 11,0 16,0 7,14 13,27 20,40 -6,0 -12,0 -18,0 -1,-2 -1,-4 -2,-6 -6,0 -11,0 -17,0 0,2 -1,4 -2,6 -6,0 -11,0 -17,0 7,-13 13,-26 20,-40zm8 14c-2,4 -3,8 -5,12 3,0 6,0 10,0 -2,-4 -3,-8 -5,-12zm30 -14c9,0 17,0 26,0 4,0 7,1 10,2 4,1 8,3 9,7 2,3 2,7 1,10 -1,3 -4,5 -6,6 -4,2 -9,3 -14,3 -3,0 -6,0 -10,0 0,4 0,8 0,12 -5,0 -11,0 -16,0 0,-13 0,-26 0,-40zm16 11c0,2 0,5 0,7 3,0 5,0 8,0 2,0 4,0 5,-1 2,-1 2,-4 1,-5 -2,-1 -4,-1 -5,-1 -3,0 -6,0 -9,0zm86 -11c15,0 31,0 46,0 0,4 0,7 0,11 -5,0 -10,0 -15,0 0,10 0,19 0,29 -5,0 -11,0 -16,0 0,-10 0,-19 0,-29 -5,0 -10,0 -15,0 0,-4 0,-7 0,-11zm48 0c15,0 29,0 44,0 0,4 0,7 0,11 -9,0 -18,0 -27,0 0,1 0,3 0,4 8,0 16,0 25,0 0,4 0,7 0,10 -9,0 -17,0 -25,0 0,2 0,3 0,5 9,0 19,0 28,0 0,3 0,7 0,10 -15,0 -30,0 -45,0 0,-13 0,-26 0,-40zm49 0c7,1 13,0 20,1 2,3 5,7 8,10 2,-3 5,-7 7,-10 6,-1 13,-1 19,0 -6,6 -12,12 -17,18 6,7 12,14 19,21 -7,0 -13,0 -20,0 0,0 0,0 -1,0 -3,-4 -5,-8 -8,-12 -3,4 -6,8 -9,12 0,0 -1,0 -1,0 -6,0 -13,0 -19,0 7,-7 13,-14 20,-21 -6,-6 -12,-12 -18,-19z"/>
   <g>
    <path class="fil11" d="M1855 238l-3 0c-1,6 -9,19 -13,24 -4,5 -9,10 -14,14 -6,4 -10,7 -17,9 -7,2 -5,2 -12,4 -10,2 -18,2 -28,0l-9 -3c-7,-2 -14,-6 -20,-10 -6,-4 -12,-10 -16,-15 -5,-8 -6,-10 -9,-18 -1,-1 -2,-4 -2,-6l62 0 0 -103 -66 0 0 160 147 0 0 -56z"/>
    <path class="fil11" d="M1852 238l3 0 0 -104 -65 0 0 103c7,0 59,-1 62,1z"/>
    <path class="fil12" d="M1822 321l2 0c0,-2 1,-7 1,-9 1,2 1,2 2,4 1,2 2,4 3,5 1,-1 3,-5 4,-7 1,-2 0,-2 1,-2l1 7c0,2 0,2 1,2 2,0 1,-3 1,-7 0,-2 -1,-7 -2,-8 0,1 -5,10 -6,11 0,-2 -1,-2 -1,-3 -1,-1 -1,-2 -2,-3 -1,-2 -2,-4 -3,-5 0,5 -2,12 -2,15z"/>
    <path class="fil12" d="M1773 320c-3,0 -3,0 -5,-1 -3,-5 -1,-11 3,-11 4,0 6,1 6,6 0,3 -2,6 -4,6zm-9 -7c0,3 0,4 2,6 5,4 13,3 13,-7 0,-3 -3,-6 -6,-6 -3,0 -4,0 -7,2 -1,2 -2,3 -2,5z"/>
    <path class="fil12" d="M1748 308c0,2 -1,11 0,13 1,0 0,0 1,0 1,-2 1,-7 1,-10 2,2 5,6 7,8 1,0 1,1 2,1 1,1 0,1 1,1l0 -14c-3,0 -2,3 -2,9 -2,-1 -3,-3 -5,-5 -1,-1 -3,-4 -5,-5 0,1 0,1 0,2z"/>
    <path class="fil12" d="M1812 313c-1,0 -1,-3 -1,-5 2,0 5,-1 5,2 0,2 -2,3 -4,3zm-3 7c0,1 1,1 2,1l0 -7 5 6c2,2 1,1 4,1 -1,-2 -3,-4 -5,-7 2,-1 3,-1 3,-3 1,-2 0,-4 -2,-4l-7 0 0 13z"/>
    <path class="fil12" d="M1799 310l1 0c0,3 1,2 1,4l-4 0c1,-1 2,-2 2,-4zm-6 11c3,0 3,-3 3,-5l6 0c2,4 0,5 4,5 0,-2 -3,-9 -4,-11 -2,-4 -1,-3 -3,-4 0,2 -1,3 -1,4 -2,3 -5,9 -5,11z"/>
    <path class="fil12" d="M1847 310l0 0c1,2 2,3 2,4l-4 0c1,-2 1,-1 2,-4zm-6 11c2,0 2,1 3,-2 1,-4 0,-3 5,-3 2,0 1,5 4,5 2,0 0,-4 -2,-7l-2 -6c-1,-1 -1,-1 -2,-2 0,2 -1,3 -1,4 -1,2 -5,10 -5,11z"/>
    <path class="fil12" d="M1732 313c0,3 0,4 1,6 3,3 7,3 10,2 1,-1 1,-1 1,-3 -3,1 -1,2 -5,2 -7,0 -6,-12 0,-12 2,0 3,1 4,2 1,-1 1,-1 1,-2 -2,-3 -12,-2 -12,5z"/>
    <path class="fil12" d="M1722 319c0,1 0,1 0,2 1,0 3,0 4,0 3,0 3,1 3,-1l-5 0 0 -6 5 0c-1,-2 0,-1 -3,-1 -2,0 -3,0 -2,-5l5 0 0 -1 -7 0 0 12z"/>
    <path class="fil12" d="M1783 319c0,1 0,1 1,2l1 0c1,-3 1,-3 1,-7l4 0 0 -1 -4 0 0 -5 5 0 0 -1 -8 0 0 12z"/>
    <path class="fil12" d="M1708 308l4 0 0 12c0,1 0,1 1,1 2,0 1,-1 1,-6 0,-7 -1,-7 4,-7l0 -1 -10 0 0 1z"/>
   </g>
   <g>
    <path class="fil13" d="M353 702l8 0 6 -30 1 30 8 0 12 -29 -5 29 7 0 8 -37 -11 0 -13 29 -1 -29c-4,-1 -8,0 -12,0l-8 37z"/>
    <path class="fil14" d="M332 671c4,0 11,-1 14,2 2,4 0,7 -3,8 -3,1 -10,0 -13,0l2 -10zm-14 31l8 0 3 -14c4,0 10,-1 13,1 1,5 -2,8 -1,13l8 0c-2,-9 5,-14 -2,-17 3,-3 5,-3 7,-7 6,-16 -18,-14 -28,-13l-8 37z"/>
    <path class="fil13" d="M246 702l8 0 4 -16 14 0 -3 16 8 0 8 -37 -8 0 -3 14 -15 0 3 -14 -7 0c-2,2 -8,33 -9,37z"/>
    <path class="fil13" d="M83 700c12,1 26,0 37,-4l-1 -6c-9,0 -18,4 -28,3 2,-10 12,-30 15,-39l3 -7 -6 -3c-8,18 -16,37 -22,56l2 0z"/>
    <path class="fil13" d="M168 674c2,2 2,12 2,14l-9 0 7 -14zm-4 -6c0,2 -7,14 -9,17 -2,4 -9,14 -10,17l8 0 5 -7 13 0 1 7 9 0 -5 -37c-2,0 -6,0 -8,0 -2,0 -1,0 -2,1l-2 2z"/>
    <path class="fil14" d="M303 674l2 14 -10 0 8 -14zm-23 28l8 0 4 -7c19,0 12,-1 15,7 2,1 5,0 8,0l-5 -37 -10 0c-2,5 -7,13 -10,18 -2,3 -3,6 -5,10 -2,2 -5,7 -5,9z"/>
    <path class="fil13" d="M409 688c0,-2 6,-13 8,-14l1 14 -9 0zm-16 14l8 0 4 -7c19,0 12,-1 15,7 2,1 5,0 8,0l-5 -37 -9 0c-4,8 -20,33 -21,37z"/>
    <path class="fil14" d="M108 669l-8 11c2,2 3,4 6,4 7,-8 13,-20 15,-21 1,7 10,35 13,40l7 -2c-2,-7 -11,-27 -13,-38 -1,-4 -2,-10 -3,-14l-6 -1c-2,7 -7,14 -11,21z"/>
    <path class="fil14" d="M228 671c5,0 8,0 12,2 2,10 -5,9 -14,9l2 -11zm-7 -4c0,5 -6,28 -7,35 2,0 7,0 8,0l2 -13c11,0 16,1 21,-6 2,-3 4,-7 3,-11 0,-4 -3,-5 -6,-7l-19 0 -2 2z"/>
    <polygon class="fil14" points="184,702 210,702 212,696 193,696 199,665 192,665 "/>
    <circle class="fil14" cx="85" cy="710" r="4"/>
    <circle class="fil14" cx="97" cy="710" r="4"/>
    <circle class="fil14" cx="110" cy="710" r="4"/>
    <circle class="fil14" cx="122" cy="710" r="4"/>
    <circle class="fil14" cx="135" cy="710" r="4"/>
    <path class="fil15" d="M137 644c1,0 2,0 3,1 1,0 1,1 2,2 0,1 1,2 1,3 0,1 -1,2 -1,3 -1,1 -1,2 -2,2 -1,1 -2,1 -3,1 -1,0 -2,0 -3,-1 -1,0 -2,-1 -2,-2 -1,-1 -1,-2 -1,-3 0,-1 0,-2 1,-3 0,-1 1,-2 2,-2 1,-1 2,-1 3,-1zm0 1c-1,0 -2,1 -3,1 0,0 -1,1 -1,2 -1,0 -1,1 -1,2 0,1 0,2 1,3 0,0 1,1 1,1 1,1 2,1 3,1 1,0 1,0 2,-1 1,0 2,-1 2,-1 0,-1 1,-2 1,-3 0,-1 -1,-2 -1,-2 -1,-1 -1,-2 -2,-2 -1,0 -1,-1 -2,-1zm-3 8l0 -6 1 0c2,0 2,0 2,0 1,0 1,0 1,0 1,0 1,1 1,1 0,0 0,0 0,1 0,0 0,1 0,1 -1,0 -1,0 -2,1 1,0 1,0 1,0 0,0 0,0 0,0 0,0 1,1 1,1l1 1 -2 0 -1 -1c0,0 0,-1 0,-1 -1,0 -1,0 -1,0l-1 0 0 2 -1 0zm1 -3l1 0c1,0 1,0 1,0 0,0 1,-1 1,-1 0,0 0,0 0,0 0,0 0,0 0,-1 0,0 -1,0 -1,0 0,0 0,0 -1,0l-1 0 0 2z"/>
    <path class="fil15" d="M321 722l0 -13 3 0 0 11 6 0 0 2 -9 0zm13 -7l-3 0c1,-1 1,-2 2,-2 0,0 1,-1 2,-1 2,0 2,1 3,1 0,0 1,0 1,1 0,0 0,1 0,2l0 3c0,1 0,1 0,2 1,0 1,0 1,1l-3 0c0,0 0,-1 0,-1 0,0 0,0 0,0 0,0 -1,1 -1,1 -1,0 -1,0 -2,0 -1,0 -1,0 -2,-1 0,0 -1,-1 -1,-2 0,0 0,-1 1,-1 0,0 0,-1 1,-1 0,0 1,0 2,-1 1,0 2,0 2,0l0 0c0,-1 0,-1 0,-1 -1,-1 -1,-1 -2,-1 0,0 0,0 -1,1 0,0 0,0 0,0zm3 2c0,1 -1,1 -2,1 0,0 -1,0 -1,0 0,0 0,1 0,1 0,0 0,1 0,1 0,0 1,0 1,0 0,0 1,0 1,0 1,0 1,-1 1,-1 0,0 0,-1 0,-1l0 -1zm4 5l0 -13 3 0 0 5c1,-1 1,-2 3,-2 1,0 2,1 2,2 1,0 1,2 1,3 0,2 0,3 -1,4 0,1 -1,1 -2,1 -1,0 -2,0 -2,0 -1,-1 -1,-1 -1,-2l0 2 -3 0zm3 -5c0,1 0,2 0,2 1,1 1,1 2,1 0,0 1,0 1,-1 1,0 1,-1 1,-2 0,-1 0,-2 -1,-2 0,-1 -1,-1 -1,-1 -1,0 -1,0 -2,1 0,0 0,1 0,2zm8 0c0,-1 0,-2 0,-2 1,-1 1,-2 2,-2 1,0 1,-1 2,-1 2,0 3,1 4,2 1,1 1,2 1,3 0,2 0,3 -1,4 -1,1 -2,1 -4,1 -1,0 -1,0 -2,-1 -1,0 -1,0 -2,-1 0,-1 0,-2 0,-3zm2 0c0,1 0,2 1,2 0,1 1,1 1,1 1,0 1,0 2,-1 0,0 1,-1 1,-2 0,-1 -1,-1 -1,-2 -1,0 -1,-1 -2,-1 0,0 -1,1 -1,1 -1,1 -1,1 -1,2zm11 5l-2 0 0 -9 2 0 0 1c0,-1 1,-1 1,-1 0,-1 1,-1 1,-1 1,0 1,1 2,1l-1 2c-1,0 -1,0 -1,0 -1,0 -1,0 -1,0 0,0 -1,0 -1,1 0,0 0,1 0,3l0 3zm6 -7l-2 0c0,-1 1,-2 1,-2 1,0 2,-1 3,-1 1,0 2,1 2,1 1,0 1,0 2,1 0,0 0,1 0,2l0 3c0,1 0,1 0,2 0,0 0,0 0,1l-2 0c0,0 0,-1 0,-1 0,0 0,0 0,0 -1,0 -1,1 -2,1 0,0 -1,0 -1,0 -1,0 -2,0 -2,-1 -1,0 -1,-1 -1,-2 0,0 0,-1 0,-1 0,0 1,-1 1,-1 1,0 1,0 2,-1 1,0 2,0 3,0l0 0c0,-1 -1,-1 -1,-1 0,-1 -1,-1 -1,-1 -1,0 -1,0 -1,1 0,0 -1,0 -1,0zm4 2c-1,1 -1,1 -2,1 -1,0 -1,0 -1,0 -1,0 -1,1 -1,1 0,0 0,1 1,1 0,0 0,0 1,0 0,0 0,0 1,0 0,0 0,-1 0,-1 0,0 1,-1 1,-1l0 -1zm8 -4l0 2 -1 0 0 3c0,1 0,1 0,2 0,0 0,0 0,0 0,0 0,0 0,0 1,0 1,0 1,0l0 2c0,0 -1,0 -1,0 -1,0 -1,0 -2,0 0,0 0,-1 0,-1 -1,0 -1,0 -1,-1 0,0 0,-1 0,-1l0 -4 -1 0 0 -2 1 0 0 -2 3 -2 0 4 1 0zm1 4c0,-1 0,-2 1,-2 0,-1 1,-2 1,-2 1,0 2,-1 3,-1 1,0 2,1 3,2 1,1 2,2 2,3 0,2 -1,3 -2,4 -1,1 -2,1 -3,1 -1,0 -2,0 -2,-1 -1,0 -2,0 -2,-1 -1,-1 -1,-2 -1,-3zm3 0c0,1 0,2 0,2 1,1 1,1 2,1 1,0 1,0 2,-1 0,0 0,-1 0,-2 0,-1 0,-1 0,-2 -1,0 -1,-1 -2,-1 -1,0 -1,1 -2,1 0,1 0,1 0,2zm11 5l-3 0 0 -9 3 0 0 1c0,-1 0,-1 1,-1 0,-1 0,-1 1,-1 0,0 1,1 1,1l-1 2c0,0 0,0 -1,0 0,0 0,0 -1,0 0,0 0,0 0,1 0,0 0,1 0,3l0 3zm4 -11l0 -2 2 0 0 2 -2 0zm0 11l0 -9 2 0 0 9 -2 0zm4 -5c0,-1 0,-2 1,-2 0,-1 1,-2 1,-2 1,0 2,-1 3,-1 1,0 2,1 3,2 1,1 2,2 2,3 0,2 -1,3 -2,4 -1,1 -2,1 -3,1 -1,0 -2,0 -2,-1 -1,0 -2,0 -2,-1 -1,-1 -1,-2 -1,-3zm3 0c0,1 0,2 0,2 1,1 1,1 2,1 1,0 1,0 2,-1 0,0 0,-1 0,-2 0,-1 0,-1 0,-2 -1,0 -1,-1 -2,-1 -1,0 -1,1 -2,1 0,1 0,1 0,2zm7 2l3 0c0,0 0,1 1,1 0,0 0,0 1,0 1,0 1,0 1,0 1,0 1,0 1,-1 0,0 0,0 -1,0 0,0 0,0 0,0 -2,-1 -4,-1 -4,-2 -1,0 -1,-1 -1,-2 0,-1 0,-1 1,-2 0,0 1,-1 3,-1 1,0 2,1 3,1 0,0 1,1 1,2l-3 0c0,0 0,0 0,-1 0,0 -1,0 -1,0 -1,0 -1,0 -2,0 0,1 0,1 0,1 0,0 0,0 0,0 1,1 1,1 3,1 1,0 2,1 2,1 1,1 1,1 1,2 0,1 0,2 -1,2 -1,1 -2,1 -3,1 -1,0 -2,0 -3,-1 -1,0 -1,-1 -2,-2z"/>
   </g>
   <g>
    <path class="fil16" d="M729 658c3,1 19,7 21,8 -2,5 -7,23 -11,27 -5,3 -25,2 -18,-16 2,-4 6,-16 8,-19zm33 -2c3,1 19,6 21,8 -1,6 -4,13 -6,19 -3,8 -7,12 -16,8 -17,-6 -3,-22 1,-35zm-56 -20l21 7c-1,6 -4,14 -6,20 -3,7 -7,12 -16,8 -15,-6 -5,-18 1,-35zm47 24l-21 -8c1,-5 5,-14 6,-19 3,-8 8,-12 17,-9 15,7 3,20 -2,36zm33 -2l-21 -8c1,-4 5,-15 7,-19 2,-7 6,-12 16,-9 16,6 3,20 -2,36zm-55 -21c-3,0 -20,-6 -22,-8 3,-8 7,-23 11,-26 4,-3 8,-2 12,-1 16,6 1,24 -1,35zm-5 -44c-24,9 -39,33 -38,60 2,28 28,54 59,53 47,0 77,-53 46,-95 -15,-19 -45,-27 -67,-18z"/>
    <path class="fil17" d="M635 765l0 8c2,1 4,4 9,2 5,-2 4,-12 5,-20 1,-6 0,-9 3,-11 2,1 1,2 3,7 6,21 6,31 13,16l8 -17c1,-2 2,-6 5,-5 4,2 -5,26 1,30 5,3 6,-4 6,-8 1,-4 1,-9 1,-14 1,-5 3,-25 1,-28 -2,-2 -7,-4 -10,-1l-10 21c-1,2 -1,4 -2,6 -1,2 -2,4 -4,5 -2,-1 -1,-2 -2,-4l-5 -16c-2,-6 -3,-16 -12,-14 -8,2 -7,11 -7,20l-2 18c0,2 0,5 -1,5z"/>
    <path class="fil17" d="M721 754c0,6 1,11 -4,13 -11,5 -16,-9 -5,-15 2,-2 10,-5 9,2zm1 -20l0 7c-6,3 -13,3 -19,6 -13,6 -14,26 2,29 11,2 16,-6 18,-7 3,2 3,7 9,6 3,-3 3,-19 3,-25 1,-8 4,-21 -2,-25 -4,-2 -49,-3 -22,5 7,2 7,1 11,4z"/>
    <path class="fil17" d="M797 744c-2,0 -2,0 -2,-3 -1,-9 13,-12 15,-3 1,8 -4,6 -13,6zm-3 33l15 0c0,-2 1,-2 0,-5 -4,-2 -11,0 -15,-4 -3,-3 -3,-11 0,-15 11,-4 31,7 29,-13 -1,-13 -13,-17 -24,-15 -17,3 -18,11 -19,24 0,7 -3,18 6,24 3,2 7,3 8,4z"/>
    <path class="fil17" d="M780 725c-4,-1 -5,4 -7,7 -9,21 -10,27 -16,9 -2,-7 -3,-19 -12,-16 -10,3 -3,16 -1,21 2,7 6,14 8,21 2,3 3,8 6,9 5,2 6,-3 8,-7 3,-7 5,-14 8,-22 2,-6 8,-18 6,-22z"/>
    <path class="fil17" d="M829 777l3 0c1,0 1,-1 1,-1 0,1 0,0 0,0 5,-5 4,-9 5,-20 2,-10 0,-17 8,-19 4,-1 8,0 11,-1 3,-2 6,-6 2,-9 -6,-5 -15,5 -19,6 -3,1 -6,-7 -9,-7 -5,0 2,-1 -2,0 -3,1 -3,23 -3,27 -1,22 -4,18 3,24z"/>
    <path class="fil18" d="M762 656c-4,13 -18,29 -1,35 9,4 13,0 16,-8 2,-6 5,-13 6,-19 -2,-2 -18,-7 -21,-8z"/>
    <path class="fil18" d="M729 658c-2,3 -6,15 -8,19 -7,18 13,19 18,16 4,-4 9,-22 11,-27 -2,-1 -18,-7 -21,-8z"/>
    <path class="fil18" d="M706 636c-6,17 -16,29 -1,35 9,4 13,-1 16,-8 2,-6 5,-14 6,-20l-21 -7z"/>
    <path class="fil18" d="M731 637c2,-11 17,-29 1,-35 -4,-1 -8,-2 -12,1 -4,3 -8,18 -11,26 2,2 19,8 22,8z"/>
    <path class="fil18" d="M786 658c5,-16 18,-30 2,-36 -10,-3 -14,2 -16,9 -2,4 -6,15 -7,19l21 8z"/>
    <path class="fil18" d="M753 660c5,-16 17,-29 2,-36 -9,-3 -14,1 -17,9 -1,5 -5,14 -6,19l21 8z"/>
    <path class="fil19" d="M882 705c1,0 3,0 5,1 1,1 3,2 4,4 1,2 1,3 1,5 0,2 0,4 -1,5 -1,2 -3,3 -4,4 -2,1 -4,2 -5,2 -2,0 -4,-1 -6,-2 -1,-1 -2,-2 -3,-4 -1,-1 -2,-3 -2,-5 0,-2 1,-3 2,-5 1,-2 2,-3 3,-4 2,-1 4,-1 6,-1zm0 2c-2,0 -3,0 -4,1 -2,1 -3,2 -4,3 0,1 -1,3 -1,4 0,2 1,3 1,4 1,2 2,3 3,3 2,1 3,2 5,2 1,0 2,-1 4,-2 1,0 2,-1 3,-3 1,-1 1,-2 1,-4 0,-1 0,-3 -1,-4 -1,-1 -2,-2 -3,-3 -2,-1 -3,-1 -4,-1zm-5 14l0 -11 2 0c2,0 3,0 4,0 0,0 1,0 1,0 1,0 1,1 1,1 1,1 1,1 1,2 0,1 0,1 -1,2 0,0 -1,1 -2,1 0,0 0,0 1,0 0,0 0,1 0,1 0,0 1,1 1,1l2 3 -3 0 -1 -2c-1,-1 -1,-2 -2,-2 0,-1 -1,-1 -1,-1l-1 0 0 5 -2 0zm2 -7l1 0c1,0 2,0 2,0 1,0 1,0 1,0 0,0 0,-1 0,-1 0,0 0,-1 0,-1 0,0 0,0 -1,0 0,-1 -1,-1 -2,-1l-1 0 0 3z"/>
   </g>
   <g>
    <path class="fil20" d="M1249 736c3,3 5,7 12,8 5,1 11,0 15,-2 12,-5 16,-10 24,-15 -4,9 -44,38 -51,9zm68 -32c2,-2 -1,-1 2,-2 -1,5 -7,10 -13,6 -3,-4 7,-17 4,-22l-2 -2 12 -2 -6 24c1,-1 1,-1 3,-2zm48 4c3,-8 -7,-10 -8,-18 -1,-11 13,-6 18,-8l-2 9c-1,-1 0,0 -1,-1l-2 -4c-2,-2 -4,-2 -6,-1 -1,5 1,5 4,8 2,3 4,6 3,10 -2,10 -12,5 -18,7 0,-3 0,-7 1,-10l2 4c2,3 4,5 9,4zm-29 -25l-3 10c3,-3 8,-13 15,-10 4,5 -3,16 -4,22 4,-1 2,-2 6,-3 -2,3 -7,10 -12,7 -3,-5 4,-15 3,-21 -7,0 -12,17 -13,21l-7 0c0,-3 2,-9 3,-13 4,-13 3,-8 0,-12l12 -1zm-20 -13c5,-3 9,5 4,7 -5,2 -9,-5 -4,-7zm-9 -1c-2,11 -9,26 -10,37 6,-1 1,-4 5,-4 -2,5 -6,10 -12,7 -2,-8 7,-27 8,-36l-3 -2 12 -2zm-16 0c-2,11 -10,26 -11,37 5,-1 3,-3 6,-4 -2,4 -7,10 -13,7 -1,-7 8,-28 9,-36l-3 -2 12 -2zm23 -34c10,-3 15,6 12,15 -3,7 -8,13 -15,15 -21,5 -16,-25 3,-30zm-22 20c-8,16 -39,14 -35,-12 2,-9 8,-16 15,-19 3,-3 8,-4 13,-4 9,0 5,3 15,0 -1,3 -2,5 -2,8 -1,5 -1,4 -3,6 -1,-4 -1,-7 -4,-10 -14,-11 -33,28 -19,36 9,6 16,-5 20,-5zm-48 3c-3,-9 3,-30 7,-37 2,-4 6,-9 10,-11 5,-3 12,-2 15,2 -24,-5 -28,29 -32,46zm136 21l0 -2c-11,0 -21,-1 -26,6 -5,-5 -3,-5 -12,-6 -7,0 -9,1 -16,2 3,-14 -4,-10 -2,-17 1,-2 6,-5 7,-14 1,-7 -1,-13 -5,-16 -6,-4 -10,-2 -17,-1 -8,-7 -5,-5 -3,-16 -2,0 -4,0 -6,0 -3,0 -4,1 -6,1 -2,0 -25,-21 -43,-11 -12,7 -13,28 -15,45 -1,9 -4,34 1,41 2,3 7,5 11,3 8,-3 0,-17 9,-20 10,-2 9,4 14,8 2,1 3,1 4,3 -15,1 -3,11 -11,31 -4,9 -13,15 -24,18 2,23 23,27 43,17 14,-7 28,-22 35,-37 9,0 14,2 17,-2 3,2 7,4 11,1 4,1 -4,-2 1,1 1,1 -1,0 1,1 3,0 8,-1 13,0 6,0 11,-3 13,-6 4,-5 2,-9 2,-11 1,-4 0,1 2,-3 1,-4 1,-13 2,-16z"/>
    <path class="fil21" d="M1292 655c-4,0 -11,11 -20,5 -14,-8 5,-47 19,-36 3,3 3,6 4,10 2,-2 2,-1 3,-6 0,-3 1,-5 2,-8 -10,3 -6,0 -15,0 -5,0 -10,1 -13,4 -7,3 -13,10 -15,19 -4,26 27,28 35,12z"/>
    <path class="fil22" d="M1224 670c-2,-19 -11,-51 3,-61 7,-4 11,-3 19,-2 -9,-9 -30,-12 -34,14 -2,14 4,34 10,46l1 2c0,0 0,1 0,1 0,0 1,0 1,0z"/>
    <path class="fil23" d="M1219 678c-7,-13 -31,-37 -23,-52 3,-5 9,-9 16,-11 -1,-1 -4,-1 -6,-1 -7,1 -13,3 -17,7 -5,6 -2,18 1,25 5,12 19,26 29,32z"/>
    <path class="fil21" d="M1318 637c3,6 -5,30 -11,26 -4,-2 0,-13 1,-16 2,-5 4,-12 10,-10zm-4 -2c-19,5 -24,35 -3,30 7,-2 12,-8 15,-15 3,-9 -2,-18 -12,-15z"/>
    <path class="fil21" d="M1324 684c3,4 4,-1 0,12 -1,4 -3,10 -3,13l7 0c1,-4 6,-21 13,-21 1,6 -6,16 -3,21 5,3 10,-4 12,-7 -4,1 -2,2 -6,3 1,-6 8,-17 4,-22 -7,-3 -12,7 -15,10l3 -10 -12 1z"/>
    <path class="fil22" d="M1217 688c-12,-9 -51,-24 -37,-45 2,-3 4,-4 6,-6 -9,1 -26,14 -9,32 5,5 10,8 18,12 4,2 16,6 22,7z"/>
    <path class="fil23" d="M1165 678l0 6c6,9 10,12 21,14 8,1 24,2 30,-2 -12,-1 -38,0 -45,-14 -3,-7 1,-11 2,-16 -5,3 -5,6 -8,12z"/>
    <path class="fil21" d="M1279 671l3 2c-1,8 -10,29 -9,36 6,3 11,-3 13,-7 -3,1 -1,3 -6,4 1,-11 9,-26 11,-37l-12 2z"/>
    <path class="fil21" d="M1295 671l3 2c-1,9 -10,28 -8,36 6,3 10,-2 12,-7 -4,0 1,3 -5,4 1,-11 8,-26 10,-37l-12 2z"/>
    <path class="fil21" d="M1365 708c-5,1 -7,-1 -9,-4l-2 -4c-1,3 -1,7 -1,10 6,-2 16,3 18,-7 1,-4 -1,-7 -3,-10 -3,-3 -5,-3 -4,-8 2,-1 4,-1 6,1l2 4c1,1 0,0 1,1l2 -9c-5,2 -19,-3 -18,8 1,8 11,10 8,18z"/>
    <path class="fil22" d="M1219 703c-9,3 -40,17 -46,0 0,-2 0,-2 -1,-3l-1 -5c-4,16 2,24 19,22 10,-2 25,-8 29,-14z"/>
    <path class="fil22" d="M1221 711c-5,13 -31,39 -48,23 1,4 6,8 13,9 6,1 13,-2 18,-5 8,-5 14,-13 17,-23 1,-3 0,-2 0,-3 0,0 0,-1 0,-1z"/>
    <path class="fil22" d="M1212 746c-3,3 -7,9 -12,11 -2,1 -6,1 -9,1 -3,-1 -6,-2 -8,-4 12,0 19,-6 23,-13 -12,8 -28,18 -34,-5 -2,9 7,15 10,20 1,2 3,3 5,4 9,4 23,0 25,-14z"/>
    <path class="fil20" d="M1318 637c-6,-2 -8,5 -10,10 -1,3 -5,14 -1,16 6,4 14,-20 11,-26z"/>
    <path class="fil21" d="M1308 684l2 2c3,5 -7,18 -4,22 6,4 12,-1 13,-6 -3,1 0,0 -2,2 -2,1 -2,1 -3,2l6 -24 -12 2z"/>
    <path class="fil24" d="M1244 658c4,-17 8,-51 32,-46 -3,-4 -10,-5 -15,-2 -4,2 -8,7 -10,11 -4,7 -10,28 -7,37z"/>
    <path class="fil22" d="M1221 711c1,-1 0,0 1,-2 -5,4 -32,32 -41,12 0,0 -1,-1 -1,-1 0,-1 0,-1 0,-1l-1 -1c-1,14 8,19 21,13 9,-4 15,-12 21,-20z"/>
    <path class="fil24" d="M1249 736c7,29 47,0 51,-9 -8,5 -12,10 -24,15 -4,2 -10,3 -15,2 -7,-1 -9,-5 -12,-8z"/>
    <path class="fil22" d="M1204 765l5 0c5,-2 7,-1 9,-7l1 2c6,8 14,3 16,0 -12,3 -13,0 -17,-10 -4,10 -6,15 -19,12 1,2 2,2 5,3z"/>
    <path class="fil22" d="M1226 738c-1,5 -3,8 0,13 1,3 5,7 8,8 -2,-3 -6,-7 -6,-14 1,-6 5,-8 9,-10 -8,0 -9,-1 -17,-2 1,2 4,4 6,5z"/>
    <path class="fil21" d="M1316 670c-5,2 -1,9 4,7 5,-2 1,-10 -4,-7z"/>
    <path class="fil25" d="M1260 680c0,1 -1,-1 -1,2 1,3 0,0 1,2 5,2 5,-6 0,-4z"/>
    <path class="fil26" d="M1321 730c1,0 2,0 3,1 1,0 2,1 3,2 0,1 1,2 1,4 0,1 -1,2 -1,3 -1,1 -2,2 -3,3 -1,0 -2,0 -3,0 -2,0 -3,0 -4,0 -1,-1 -2,-2 -2,-3 -1,-1 -1,-2 -1,-3 0,-2 0,-3 1,-4 0,-1 1,-2 2,-2 1,-1 2,-1 4,-1zm0 1c-1,0 -2,0 -3,1 -1,0 -2,1 -2,2 -1,1 -1,2 -1,3 0,1 0,1 1,2 0,1 1,2 2,2 1,1 2,1 3,1 1,0 1,0 2,-1 1,0 2,-1 2,-2 1,-1 1,-1 1,-2 0,-1 0,-2 -1,-3 0,-1 -1,-2 -2,-2 -1,-1 -1,-1 -2,-1zm-4 9l0 -7 2 0c1,0 2,0 2,0 1,0 1,0 1,0 1,0 1,1 1,1 0,0 0,1 0,1 0,1 0,1 0,1 0,1 -1,1 -2,1 1,0 1,0 1,0 0,0 0,1 0,1 1,0 1,0 1,1l1 1 -2 0 -1 -1c0,-1 0,-1 -1,-1 0,-1 0,-1 -1,-1l0 0 0 3 -2 0zm2 -4l1 0c0,0 1,0 1,0 0,0 1,0 1,0 0,-1 0,-1 0,-1 0,0 0,0 0,0 0,-1 -1,-1 -1,-1 0,0 -1,0 -1,0l-1 0 0 2z"/>
   </g>
   <g>
    <path class="fil27" d="M1657 728l1 1c3,1 23,-1 30,-1 2,-1 7,-1 10,-1 1,1 2,2 3,4l3 6 -11 1c-4,0 -8,0 -12,1 -3,0 -8,0 -11,1 -4,0 -8,0 -11,1l-1 0c0,3 0,2 1,4 5,1 14,-1 22,-1 7,0 14,-1 24,-1 0,14 -2,19 -11,28 -3,3 -7,4 -8,6 6,0 13,-6 16,-9 10,-7 15,-22 10,-35 -4,-10 -17,-28 -24,-38 -8,-12 -19,-28 -18,-43 -5,0 -5,-5 -3,-6 1,-1 2,-1 5,-1 0,-3 3,-8 5,-10 -2,0 -1,0 -2,-1 -2,-1 -2,-4 0,-5 3,-2 9,0 14,-3 4,-3 13,-6 18,-7 3,-1 11,-3 14,-3l0 -2c-30,0 -59,8 -60,40 -1,6 2,15 4,20 2,3 3,6 4,9l7 12c6,9 12,18 18,26l-30 3c-4,0 -7,-1 -7,4z"/>
    <path class="fil28" d="M1675 634c4,1 13,-1 18,-1 5,-1 13,-1 18,-1 0,-1 26,-3 27,-2 1,1 -1,6 -1,8 -2,5 -4,3 -11,4l-41 3c-6,0 -13,0 -18,1 0,5 -1,5 4,5l12 -1c6,0 16,-1 22,-1 6,0 19,-2 25,-2 -1,2 -3,4 -5,6 -6,4 -9,7 -18,13l-18 13c-1,1 -5,4 -6,5 1,3 4,5 5,8 1,0 17,-13 20,-15 13,-8 31,-22 36,-35 5,-11 2,-22 -2,-30 -5,-8 -11,-12 -19,-16 -7,-3 -14,-6 -21,-7 -2,0 -8,0 -5,3 1,1 5,2 7,2 13,4 33,15 33,30 -2,0 -5,0 -8,1 -2,0 -6,0 -8,0l-17 2c-3,0 -6,0 -9,0l-17 2c-4,0 -4,1 -3,5z"/>
    <path class="fil29" d="M1723 689l0 2c0,15 33,8 33,21 0,8 -19,11 -28,4 -2,-1 -2,-2 -3,-3 -2,1 -3,2 -4,4 8,13 41,10 41,-5 0,-15 -20,-13 -30,-17 -5,-2 -9,-11 12,-11 2,0 5,1 7,2 2,0 4,2 4,4 2,0 4,-2 6,-2 -7,-9 -11,-9 -23,-9 -7,0 -15,3 -15,10z"/>
    <path class="fil29" d="M1764 706c0,6 1,11 5,15 10,8 24,1 29,1l-1 -5c-5,0 -6,3 -17,3 -10,0 -15,-14 -8,-20 8,-8 20,-3 20,5l-21 0 0 5 27 0c0,-11 -6,-19 -15,-19l-3 0c-9,0 -16,7 -16,15z"/>
    <path class="fil28" d="M1659 745c-2,0 -1,0 -1,-1 -1,-1 0,-1 0,-2 0,-1 0,0 0,-1l1 0c1,-2 -1,-1 2,-1 0,-3 -1,-4 -1,-10 -3,0 -1,1 -2,-1l-1 -1c-2,-2 0,-5 5,-5 2,-11 13,-18 16,-23 -1,-2 -4,-5 -4,-8 -2,1 -3,3 -5,4 -1,1 -2,2 -4,4l-6 9c-9,15 -10,34 2,48 1,1 3,3 4,3 3,0 -1,-5 -2,-11 -2,-6 -2,-1 -4,-4z"/>
    <path class="fil29" d="M1861 692l1 5c2,0 16,-5 16,6l0 12c0,5 -19,8 -19,0 0,-5 8,-7 12,-7 5,-1 5,1 5,-6 -7,0 -22,3 -22,13 0,11 15,12 25,7 1,3 4,3 8,3 -1,-4 -4,-2 -4,-9 0,-4 0,-8 0,-12 0,-17 -13,-12 -22,-12z"/>
    <path class="fil29" d="M1836 694l0 -2 -5 0 0 33 5 0 0 -25c2,0 3,-2 5,-2 4,-2 11,-3 12,2 2,-1 2,-2 4,-4 -5,-4 -3,-5 -11,-5 -4,0 -8,2 -10,3z"/>
    <path class="fil29" d="M1808 694l0 -2 -5 0 0 33 5 0 0 -23c0,-3 7,-6 11,-6 3,0 4,2 6,4l3 -4c-5,-4 -3,-5 -11,-5 -4,0 -7,2 -9,3z"/>
    <polygon class="fil29" points="1891,725 1896,725 1896,680 1891,680 "/>
    <path class="fil28" d="M1683 675c11,0 8,-25 -3,-19 -3,2 -4,6 -4,9 0,5 2,10 7,10z"/>
    <path class="fil28" d="M1778 675c0,3 0,2 -3,2 -2,0 -1,1 -2,0 0,-2 1,-2 5,-2zm-16 4l9 0 0 -1c2,1 1,2 5,1l5 0c0,-2 0,0 -1,-2 0,-1 0,-3 0,-4 0,-5 -5,-4 -7,-3l0 2c2,0 2,-1 3,-1 1,0 1,1 2,1 -6,2 -7,1 -7,5l-7 0 0 -10 -2 0 0 12z"/>
    <path class="fil29" d="M1904 719c3,2 0,1 3,3 -5,2 -3,1 -3,-3zm-2 -4l0 6c-2,-1 -2,-4 0,-6zm2 1l2 0 0 2 -2 0 0 -2zm-2 -1c4,-5 11,3 6,6 -1,-1 -1,-1 -1,-2 0,-2 1,0 0,-4l-5 0zm-3 3c0,9 12,8 12,1 0,-3 -1,-7 -6,-7 -3,0 -6,3 -6,6z"/>
    <path class="fil28" d="M1788 677l-4 0 0 -5c3,-1 3,-1 6,0 0,2 1,5 -2,5zm-6 2c8,0 10,1 10,-5 0,-5 -4,-5 -8,-4l0 -3 -2 0 0 12z"/>
    <path class="fil28" d="M1871 672c0,5 6,1 8,4 -1,1 0,1 -3,1 -2,0 -3,0 -4,-1l-2 2c3,2 11,4 11,-3 0,-1 -2,-2 -3,-2 -2,0 -3,0 -4,-1 7,-1 3,1 6,1 6,-2 -9,-7 -9,-1z"/>
    <path class="fil28" d="M1820 675c0,3 0,2 -3,2 -2,0 0,1 -1,0 0,-2 0,-2 4,-2zm-4 -3c2,-1 2,-2 4,0 -7,2 -7,2 -6,7 2,0 2,1 5,0l5 0c-1,-2 -1,0 -1,-2 -1,-5 1,-8 -6,-8 -2,0 -1,1 -1,3z"/>
    <path class="fil28" d="M1801 677c-3,1 -2,1 -5,0l-1 -3c0,-4 9,-3 6,3zm-8 -3c0,7 11,7 11,0 0,-7 -11,-6 -11,0z"/>
    <path class="fil28" d="M1862 674c0,-3 6,-4 6,1 0,3 -6,4 -6,-1zm-2 0c0,6 2,5 6,5 6,0 6,-10 -1,-10 -3,0 -5,2 -5,5z"/>
    <path class="fil28" d="M1835 677c-3,-1 -2,1 -5,0 -3,0 -2,-2 -2,-5l6 0 0 -2 -6 0 0 -3 -2 0 0 3 -3 0 0 2 3 0 0 6c3,2 8,3 9,-1z"/>
    <path class="fil28" d="M1847 670l0 9 2 0 0 -7c2,0 2,-1 3,0 2,0 0,1 3,0 0,-4 -5,-2 -8,-2z"/>
    <path class="fil28" d="M1805 670l0 9 3 0c0,-5 -1,-8 2,-8 2,1 1,2 3,1 0,-4 -4,-2 -8,-2z"/>
    <path class="fil28" d="M1842 677c-4,1 -6,0 -5,-5 4,-2 8,0 5,5zm-7 0l0 0z"/>
    <polygon class="fil28" points="1856,679 1858,679 1858,670 1856,670 "/>
   </g>
   <path class="fil30" d="M214 1176l-17 0 0 -90 17 0 0 90zm180 -74c0,4 -4,8 -8,8 -4,0 -8,-4 -8,-8 0,-4 4,-8 8,-8 4,0 8,4 8,8zm-54 45l0 18c0,0 2,11 14,11l12 0c0,0 11,-1 11,-12l0 -16c0,0 0,-6 -10,-11l-9 -7c0,0 -2,-2 -2,-6l0 -6c0,0 -1,-4 3,-4 3,0 3,4 3,4l0 13 15 0 0 -17c0,0 -1,-11 -13,-11l-11 0c0,0 -12,0 -12,11l0 17c0,0 0,4 8,10l9 5c0,0 4,2 4,9l0 8c0,0 0,3 -3,3 0,0 -3,0 -3,-3l0 -16 -16 0zm-60 -4c0,0 -6,3 -6,5 0,2 0,16 0,16 0,1 1,2 3,2 1,0 3,-1 3,-2l0 -21zm-6 -11l-15 0 0 -17c0,0 0,-12 18,-12 18,0 18,13 18,13l0 60 -14 0 0 -3c0,0 -5,5 -10,4 0,0 -13,0 -13,-9l0 -19c0,0 0,-5 7,-10l15 -9 0 -12c0,0 0,-4 -3,-4 -3,0 -3,3 -3,5l0 13zm47 -15c0,-1 -2,-3 -3,-3 -2,0 -3,2 -3,3l0 47c0,1 1,2 3,2 1,0 3,-1 3,-2l0 -47zm-9 -14l0 4c4,-5 10,-5 10,-5 12,0 14,11 14,11l0 54c0,4 -2,10 -10,10 -7,0 -11,-2 -11,-2l0 16 -16 0 0 -88 13 0zm-176 14c0,-1 -1,-3 -2,-3 -2,0 -3,2 -3,3l0 47c0,1 1,2 3,2 1,0 2,-1 2,-2l0 -47zm16 -14l0 74c0,0 2,14 -13,14l-21 0 0 -10 14 0c4,-1 4,-4 5,-7 0,0 -3,3 -10,3 0,0 -12,-1 -12,-10l0 -55c0,0 1,-9 11,-9 9,-1 10,4 10,4l3 -4 13 0zm26 16c0,0 0,-4 -3,-5 -4,0 -3,4 -3,4l0 16 6 0 0 -15zm15 26l-21 0 0 17c0,0 -1,3 3,4 3,0 3,-5 3,-5l0 -13 15 0 0 15c0,0 2,14 -18,14 0,0 -18,0 -18,-13l0 -49c0,0 1,-13 18,-13 0,0 18,0 18,13l0 30zm61 -10l-15 0 0 -17c0,0 0,-4 -3,-4 -3,0 -3,1 -3,4l0 45c0,0 0,3 3,3 2,0 3,-3 3,-3l0 -18 15 0 0 19c0,0 -1,13 -18,13 -17,0 -19,-12 -19,-12l0 -49c0,0 0,-13 19,-13 18,0 18,12 18,12l0 20z"/>
   <g>
    <path class="fil31" d="M700 1166l0 0c-1,2 -1,2 -1,3 13,0 21,-1 32,-6 4,-2 7,-5 10,-8 4,-4 5,-7 8,-12l0 25 27 0 0 -41c1,1 3,4 4,5l18 26c1,2 2,3 3,5 1,2 3,4 4,5l25 0c0,-4 0,-79 0,-81l-28 0 0 39c0,0 0,0 0,-1l-10 -14c-1,-2 -3,-3 -4,-5 -4,1 -21,3 -27,3 -8,1 -6,0 -10,5l-32 44c-1,-1 -6,-5 -8,-6l-5 7c-1,2 -5,6 -6,7z"/>
    <path class="fil31" d="M624 1086c-6,2 -8,1 -14,5 -5,3 -8,6 -10,12 -3,13 9,21 15,26 4,2 16,10 18,13 2,3 2,5 -1,7 -6,2 -12,0 -17,-2 -3,-1 -5,-2 -7,-3 -2,-1 -5,-3 -7,-4l0 22c11,5 25,8 38,6 10,-2 20,-7 24,-16 0,-1 0,-3 1,-5l1 2c0,0 1,1 1,1 7,11 17,14 18,15l2 0c0,-2 1,-5 1,-7 2,-11 3,-6 -4,-22 -1,-3 0,-3 -4,-5 -4,-2 -16,-7 -19,-8l0 10c-1,-1 -1,-1 -2,-2l-4 -4c-8,-6 -14,-11 -22,-16 -1,-1 -6,-5 -2,-7 10,-4 27,5 30,5l0 -18c-11,-5 -23,-7 -36,-5z"/>
    <path class="fil31" d="M877 1167c1,0 8,2 15,2 13,0 29,-4 34,-17 2,-5 1,-9 0,-14 -4,-10 -26,-22 -27,-24 -2,-1 -7,-5 -7,-7 -1,-3 7,-4 10,-3 4,0 8,1 11,2 2,1 3,2 5,2 2,1 4,2 5,2l0 -19c-11,-6 -30,-7 -43,-3 -6,3 -12,7 -15,11 -4,6 -2,15 2,20l6 6c3,2 5,4 8,6 5,4 11,7 15,11 3,3 1,6 -2,8 -12,3 -25,-7 -30,-9l0 21c2,2 12,5 13,5z"/>
    <path class="fil31" d="M662 1113l81 -10c-1,-3 -5,-7 -7,-8 -3,-3 -7,-5 -10,-6 -17,-6 -37,-5 -51,6 -5,4 -12,11 -13,18z"/>
    <path class="fil32" d="M835 1085c0,15 -1,13 3,26 0,2 1,5 2,7l19 0c1,-2 1,-5 2,-7 0,-3 1,-5 2,-8 1,-3 1,-14 0,-18l-28 0z"/>
    <path class="fil31" d="M698 1152c0,0 0,-1 1,-1 0,0 0,0 0,0 1,-1 1,0 1,-1 1,-1 6,-6 8,-8l14 -12c3,-3 20,-18 21,-20l-58 11c1,1 12,6 14,6l-1 25z"/>
    <path class="fil31" d="M749 1102l28 -4c1,3 7,7 11,8l-13 -19 -26 0 0 15z"/>
    <path class="fil33" d="M734 1180c0,0 0,0 0,2 0,1 0,1 0,2 0,1 0,3 0,4 0,4 0,3 1,4 1,0 0,-1 0,-1 1,-1 -1,-9 3,-10 4,-1 4,2 4,4 0,5 0,7 1,7 2,-1 0,-7 2,-10 1,-2 5,-2 5,1 1,3 0,6 1,9l1 0c0,-3 0,-9 -1,-11 0,-1 -2,-2 -4,-1 -2,0 -3,1 -3,2 -1,-1 -2,-3 -4,-3 -2,0 -3,1 -4,3 -1,-2 1,-2 -2,-2z"/>
    <path class="fil33" d="M704 1186c-1,-6 9,-7 9,-1 0,3 -1,5 -4,5 -3,1 -5,-1 -5,-4zm9 -4c-2,-2 -4,-4 -7,-2 -6,2 -5,10 0,11 3,2 5,0 7,-1 1,1 -1,1 1,2 1,0 1,-1 1,-2l0 -15 -2 0 0 7z"/>
    <path class="fil33" d="M858 1187c-1,-7 9,-8 10,-2 1,6 -9,7 -10,2zm10 -5c-7,-5 -11,0 -11,4 0,2 2,5 4,5 3,2 5,0 7,-1 0,1 -1,1 1,2 1,0 0,-1 0,-2l0 -15 -1 0 0 7z"/>
    <path class="fil33" d="M681 1189l-1 -1c-1,0 -2,1 -3,2 -5,2 -11,-1 -10,-7 0,-3 2,-5 4,-6 5,-1 7,1 9,2 0,0 0,0 1,0 -2,-6 -16,-5 -16,5 0,4 3,7 6,8 3,0 8,0 10,-3z"/>
    <path class="fil33" d="M824 1187c-1,-7 9,-8 10,-2 1,6 -9,7 -10,2zm0 3c1,1 2,1 3,2 2,0 2,0 4,0l0 -1c0,0 0,0 1,0 0,0 0,0 0,0 1,-1 1,-1 2,-1 0,1 -1,1 0,1 1,1 1,0 1,0 0,0 0,-3 0,-4 0,-1 1,-6 0,-7 -2,0 -1,-1 -2,1l0 1c-2,-5 -11,-3 -11,4 0,2 2,3 2,4z"/>
    <path class="fil33" d="M719 1187c-1,-7 9,-8 10,-2 0,3 -1,5 -4,5 -3,1 -5,-1 -6,-3zm0 3l1 0c0,0 0,0 0,1 1,0 1,0 1,0 2,1 4,1 5,0 1,0 1,0 1,0 0,0 1,0 1,0 1,-1 0,0 0,-1 1,0 0,0 1,0 0,1 0,1 0,2l1 0c1,-1 1,-10 0,-12l0 0c-2,0 -1,0 -1,2 -2,-3 -7,-3 -9,-1 -4,3 -2,6 -1,9z"/>
    <path class="fil33" d="M760 1181c6,-2 8,7 3,9 -6,2 -9,-7 -3,-9zm3 11l3 -1c0,-2 1,-2 2,-4 0,-6 -5,-9 -10,-7 -5,3 -4,13 5,12z"/>
    <path class="fil33" d="M686 1192c1,0 2,0 3,0 1,0 2,0 3,0 1,-2 2,-2 2,-6l1 -5c-1,-2 0,-1 -2,-1 0,0 0,-1 0,1l0 4c0,2 0,4 -2,5 -1,1 -3,1 -4,0 -2,-1 -2,-2 -2,-5 0,-1 0,-4 1,-5l-2 0 0 0c0,2 0,5 0,7 0,3 1,3 2,5z"/>
    <path class="fil33" d="M852 1191l1 -1c0,0 0,0 0,0 1,-4 1,-6 1,-10 -2,0 -2,0 -2,1l0 6c0,2 -1,3 -3,3 -6,1 -4,-5 -4,-9 0,0 0,0 -1,-1 0,-1 1,0 0,0l-1 0c0,7 -1,14 9,11z"/>
    <path class="fil33" d="M794 1188c0,2 1,3 3,4 4,0 6,-1 7,-4 0,-1 1,-7 0,-8l-1 0c0,4 1,11 -4,10 -5,0 -4,-5 -4,-9 0,0 0,0 0,-1 0,0 0,0 0,0l-1 0 0 8z"/>
    <path class="fil33" d="M770 1191l2 1c5,0 5,-4 4,-5 -1,-2 -5,-2 -4,-5 0,-1 1,-1 2,-1 2,1 1,1 3,0 -1,-2 -4,-2 -6,-1 -1,1 -1,4 0,5 2,1 5,2 4,4 0,3 -3,1 -5,0l0 2z"/>
    <path class="fil33" d="M813 1190c0,1 0,1 1,1 4,3 8,-2 5,-5 -1,-1 -4,-2 -4,-4 0,-3 5,1 5,-1 0,-1 -4,-2 -6,-1 -1,2 -1,4 1,5 1,1 5,2 3,5 0,0 -2,1 -3,0 -1,0 0,-1 -2,0z"/>
    <path class="fil33" d="M787 1190c0,2 1,2 2,1l0 -4c0,-2 0,-4 0,-6 1,0 3,1 2,-1 0,-1 0,0 -1,0 -1,-1 -1,1 -1,-5l-1 0c-1,1 -1,3 -1,5 -1,0 0,0 -1,0 -1,0 0,-1 -1,0 1,2 2,0 2,2l0 8z"/>
    <polygon class="fil34" points="838,1192 840,1191 840,1175 838,1175 "/>
    <path class="fil33" d="M698 1189c0,1 0,2 0,3 2,-1 1,0 1,-1l0 -10c0,-2 1,-1 -1,-1 0,0 0,-1 0,1l0 8z"/>
    <path class="fil33" d="M697 1177c1,1 2,1 3,0 0,-2 -1,-2 -3,-2l0 2z"/>
   </g>
   <g>
    <path class="fil35" d="M1336 1083c-20,3 -41,14 -50,24 -20,23 5,33 30,30 20,-2 36,-10 50,-24 15,-14 8,-34 -30,-30z"/>
    <path class="fil36" d="M1187 1102l-35 0 -1 13 20 0c-6,14 -31,12 -33,-7 -2,-14 10,-22 22,-19 6,1 6,3 10,6 4,-1 9,-4 12,-7 -5,-12 -26,-18 -42,-11 -32,16 -17,69 23,61 13,-4 28,-18 24,-36z"/>
    <path class="fil36" d="M1195 1138l37 0 0 -14c-4,0 -8,0 -12,0 -6,0 -8,1 -8,-5 -1,-11 6,-3 20,-6l0 -14c-14,-3 -20,4 -20,-6 0,-9 7,-2 20,-5l0 -14c-5,-1 -32,-1 -36,0l-1 64z"/>
    <path class="fil37" d="M1399 1101c-7,-1 -14,-3 -22,-3 -3,7 -1,9 -6,15 -4,5 -7,7 -11,11 19,1 30,-2 43,0 -2,10 -28,10 -37,10 -6,0 -19,-3 -22,-1 9,8 70,7 74,-16 4,-17 -26,-27 -43,-26 1,5 0,3 4,4 5,1 15,1 20,6z"/>
    <path class="fil36" d="M1240 1138l36 0c1,-4 1,-9 0,-14l-19 0c-2,-13 3,-40 -1,-49 -4,-2 -11,-1 -16,-1l0 64z"/>
    <path class="fil36" d="M1300 1191c2,-10 -5,-32 10,-31 7,1 7,7 7,13 0,20 -2,18 7,18 0,-7 0,-15 1,-22 0,-8 4,-10 13,-8 5,6 3,19 3,30 8,0 8,1 8,-8 0,-12 3,-31 -16,-30 -6,1 -7,4 -11,7 -4,-8 -13,-9 -21,-3 -3,-3 -1,-4 -7,-2 -2,3 -2,32 0,36l6 0z"/>
    <path class="fil36" d="M1147 1160c17,-5 22,20 7,24 -17,4 -23,-19 -7,-24zm-8 26c6,3 9,8 20,4 6,-2 11,-9 11,-17 2,-20 -21,-28 -31,-15 -3,-4 -2,-4 -8,-3 0,9 0,19 0,28 0,22 -2,21 7,20 1,-5 0,-11 1,-17z"/>
    <path class="fil36" d="M1228 1174c-3,-17 22,-20 24,-5 3,18 -22,20 -24,5zm24 -16c-12,-12 -33,-3 -32,15 1,9 5,14 12,17 13,4 17,-3 20,-4 0,6 -1,6 7,5 2,-4 1,-31 0,-37l-6 0 -1 4z"/>
    <path class="fil36" d="M1374 1159c16,-3 21,22 5,25 -17,3 -22,-21 -5,-25zm14 -1c-13,-12 -31,-4 -31,13 -1,18 17,25 31,15 2,3 -1,6 8,5 0,-8 1,-31 -1,-37 -6,0 -5,0 -7,4z"/>
    <path class="fil36" d="M1185 1191c4,-10 -6,-34 13,-30 8,1 7,8 7,16 0,10 -3,14 6,14 3,-6 2,-27 -1,-32 -8,-12 -23,-2 -24,-2l-1 -16 -6 0 -1 45c0,6 2,5 7,5z"/>
    <path class="fil38" d="M1275 1157c-1,-1 -4,-6 -7,-2 -1,2 -1,9 -1,12 0,4 -1,22 1,23 1,2 4,2 5,1 3,-1 2,-1 2,-4 0,-4 0,-9 0,-13 0,-12 1,-11 10,-14l0 -6c-5,-1 -6,1 -10,3z"/>
    <path class="fil39" d="M1411 1148c2,0 4,0 6,1 2,1 3,3 4,4 1,2 1,4 1,6 0,2 0,4 -1,5 -1,2 -2,3 -4,4 -2,1 -4,2 -6,2 -1,0 -3,-1 -5,-2 -2,-1 -3,-2 -4,-4 -1,-1 -1,-3 -1,-5 0,-2 0,-4 1,-6 1,-1 2,-3 4,-4 2,-1 4,-1 5,-1zm0 2c-1,0 -2,1 -4,1 -1,1 -2,2 -3,3 -1,2 -1,3 -1,5 0,1 0,3 1,4 1,2 2,3 3,3 1,1 3,2 4,2 2,0 3,-1 5,-2 1,0 2,-1 3,-3 1,-1 1,-3 1,-4 0,-2 0,-3 -1,-5 -1,-1 -2,-2 -3,-3 -2,0 -3,-1 -5,-1zm-4 15l0 -12 2 0c2,0 3,0 4,0 0,0 1,0 1,1 1,0 1,0 1,1 1,0 1,1 1,1 0,1 0,2 -1,3 0,0 -1,1 -2,1 0,0 0,0 1,0 0,0 0,1 0,1 0,0 1,1 1,1l2 3 -3 0 -1 -2c-1,-1 -1,-2 -2,-3 0,0 -1,0 -1,0l-1 0 0 5 -2 0zm2 -7l1 0c1,0 2,0 2,0 1,0 1,0 1,-1 0,0 0,0 0,0 0,-1 0,-1 0,-1 0,-1 0,-1 -1,-1 0,0 -1,0 -2,0l-1 0 0 3z"/>
   </g>
   <g>
    <path class="fil40" d="M1631 1132l0 14c0,17 6,45 12,56 4,-3 24,-18 26,-18 0,-3 -3,-7 -5,-15 -5,-27 2,-60 10,-86 1,-2 2,-6 2,-8 -2,2 -5,3 -8,5 -2,1 -5,3 -8,4l-24 15 -1 2c0,1 0,2 0,2 -2,10 -4,19 -4,29z"/>
    <path class="fil40" d="M1702 1141c0,20 4,36 10,54 1,3 2,5 3,7l19 -13c1,-1 2,-2 3,-3 1,-1 2,-2 3,-2l-4 -22c-1,-4 -1,-8 -1,-12 -1,-2 0,-4 -1,-6 0,-10 0,-14 1,-25 1,-10 5,-27 9,-37 1,-2 3,-5 3,-7 -3,1 -38,23 -38,23 -1,2 -4,15 -4,17 -2,8 -3,17 -3,26z"/>
    <path class="fil40" d="M1667 1142c0,12 1,24 4,36 0,1 0,4 1,5 1,2 -1,0 4,2 6,3 12,6 18,9 3,1 6,2 9,4 1,1 7,4 9,4 0,-2 -6,-11 -10,-24 -5,-18 -5,-42 -2,-61 4,-23 7,-17 -2,-25 -1,-1 -1,-2 -2,-3 -2,-1 -2,-2 -4,-3 -4,-3 -7,-9 -12,-11 0,2 -2,5 -2,7 -7,20 -11,38 -11,60z"/>
    <path class="fil41" d="M1777 1132c-1,-1 -3,-3 -3,-5l-7 -11c-1,-1 -2,-1 -2,-3 -1,-1 -1,-2 -3,-2l-14 0 0 45 14 -1 0 -20c1,0 3,4 4,5l10 14c2,3 2,2 14,2l0 -45 -14 0c0,2 1,2 1,5l0 16z"/>
    <path class="fil41" d="M1915 1145c-4,0 -4,-5 -4,-8 0,-7 9,-7 9,1 0,3 -1,7 -5,7zm-4 9c4,0 5,0 9,-3l0 7c-3,1 -7,3 -8,-2l-13 0c1,16 33,12 33,2l0 -35 -11 0 0 3c-1,-1 -1,-2 -3,-2 -9,-4 -21,0 -21,14 0,4 1,8 3,11 2,2 7,5 11,5z"/>
    <path class="fil41" d="M1878 1149l-4 -1c-1,-5 0,-4 6,-5 2,-1 1,-1 3,-1 0,3 -2,7 -5,7zm-16 -15l12 0c0,-3 2,-4 4,-4 2,0 4,1 4,2 0,1 0,1 0,1 1,4 -6,1 -13,4 -10,2 -9,6 -9,12 0,2 2,4 3,5 3,3 12,2 15,1 3,-1 4,-2 6,-3l0 4 13 0c-1,-2 -1,-2 -2,-5 -1,-12 4,-22 -4,-27 -6,-3 -28,-6 -29,10z"/>
    <path class="fil41" d="M1811 1131c7,0 7,17 0,17 -8,0 -7,-17 0,-17zm-19 7c0,23 25,20 31,16 11,-8 7,-32 -10,-32l-3 0c-10,0 -18,7 -18,16z"/>
    <path class="fil41" d="M1845 1140c-1,-1 -2,-5 -3,-7 0,-3 -1,-7 -2,-9l-13 0c0,2 7,21 8,24 3,9 0,7 16,7 2,0 2,-3 4,-7 0,-3 1,-5 2,-8 1,-3 2,-5 3,-8 1,-3 2,-6 3,-9l-13 0 -5 17z"/>
   </g>
   <path class="fil42" d="M267 1530c3,0 10,3 12,5 11,5 22,18 24,31l-36 0 0 -36zm49 101c1,0 2,0 3,1 1,0 1,1 2,2 0,1 1,1 1,2 0,1 -1,2 -1,3 -1,1 -1,1 -2,2 -1,0 -2,1 -3,1 -1,0 -1,-1 -2,-1 -1,-1 -2,-1 -2,-2 -1,-1 -1,-2 -1,-3 0,-1 0,-1 1,-2 0,-1 1,-2 2,-2 1,-1 1,-1 2,-1zm0 1c0,0 -1,0 -2,1 0,0 -1,1 -1,1 -1,1 -1,2 -1,2 0,1 0,2 1,2 0,1 1,2 1,2 1,0 2,1 2,1 1,0 2,-1 2,-1 1,0 2,-1 2,-2 0,0 1,-1 1,-2 0,0 -1,-1 -1,-2 0,0 -1,-1 -2,-1 0,-1 -1,-1 -2,-1zm-2 7l0 -5 1 0c1,0 2,0 2,0 0,0 1,0 1,0 0,0 0,0 0,0 0,1 1,1 1,1 0,1 -1,1 -1,1 0,0 -1,1 -1,1 0,0 0,0 0,0 1,0 1,0 1,0 0,0 0,1 0,1l1 1 -2 0 0 -1c0,0 -1,-1 -1,-1 0,0 0,0 -1,0l0 0 0 2 -1 0zm1 -3l1 0c0,0 1,0 1,0 0,0 0,0 0,0 0,0 0,-1 0,-1 0,0 0,0 0,0 0,0 0,0 0,0 0,-1 -1,-1 -1,-1l-1 0 0 2zm-82 19c1,1 4,8 5,10l-3 0 -4 0 -2 0 4 -10zm-8 20c1,-2 1,-4 3,-6l11 0 3 6 6 0 -11 -25 -7 0 -11 25 6 0zm43 -20l4 10 -8 0 4 -10zm-6 14l12 0 3 6 6 0 -12 -25 -6 0 -11 25 5 0 3 -6zm-69 -15c7,0 14,-1 14,4 0,4 -8,3 -14,3l0 -7zm15 9c3,-2 5,-2 4,-7 0,-4 -2,-5 -5,-6 -2,0 -17,0 -20,0l0 25 6 0 0 -10c2,0 10,0 11,1 3,1 2,6 3,9 1,0 4,0 6,0 -2,-5 0,-11 -5,-12zm85 -8c1,1 9,19 9,20l5 0c1,-2 8,-18 9,-20l0 20 5 0 0 -25 -8 0c-2,4 -7,17 -9,19l-8 -19 -8 0 0 25 5 0 0 -20zm-88 -89c3,-9 9,-19 14,-24 4,-4 14,-10 23,-12l0 36 -37 0zm46 -53c-16,1 -29,6 -38,13 -28,21 -33,61 -14,89 2,3 9,12 12,13 -7,-16 -12,-24 -11,-44l42 0 0 57 9 0 0 -128zm47 115c16,-14 31,-42 19,-73 -2,-7 -5,-12 -9,-17 -10,-14 -31,-26 -50,-25l0 128 9 0 0 -57 42 0c0,9 -1,17 -3,25 -3,10 -8,17 -8,19z"/>
   <g>
    <path class="fil43" d="M646 1544l0 0c-8,0 -15,3 -23,5 -3,1 -6,3 -9,5l-5 3c-3,2 -10,9 -12,12 -1,2 -3,4 -3,6 -2,6 -4,9 -4,17 0,10 2,15 6,23 0,2 3,7 5,7l1 2c1,2 2,1 3,3 1,0 2,1 2,2 1,0 2,0 3,1l7 4c5,3 5,3 11,5 1,0 0,0 1,1 2,1 10,2 10,3 4,1 12,1 17,1l0 -26c-4,0 -7,0 -11,0 -2,-1 -1,-1 -4,-2 -3,0 -2,-1 -4,-1 -8,-2 -20,-11 -25,-19 -1,-3 -1,-4 -1,-5 -5,-13 3,-28 14,-37 4,-4 16,-10 21,-10z"/>
    <path class="fil43" d="M750 1603c-2,4 -9,8 -13,10 -2,1 -2,1 -2,1 15,0 33,-15 34,-30 0,-7 -1,-10 -4,-16 0,-2 -2,-5 -3,-6 -1,0 -1,-1 -1,-1 -1,-1 -1,-1 -1,-1l-2 -2c-3,-3 -2,-1 -3,-3 -1,0 -2,-1 -3,-1 -9,-6 -20,-8 -30,-8l1 14c23,1 45,18 27,43z"/>
    <path class="fil44" d="M643 1592l2 0 10 0 2 0 0 1 0 9 -14 0 0 -9 0 -1zm14 -7l-21 0 0 24 28 0 0 -65 -7 0 0 41z"/>
    <path class="fil45" d="M709 1593c0,-1 -1,-1 1,-1l14 0 0 17 6 0 0 -24 -21 0 0 -41 -7 0 0 65 7 0 0 -16z"/>
    <path class="fil45" d="M677 1544c0,2 0,1 1,2 1,1 1,2 2,2l0 11 -10 24 25 0 -8 -22c0,-1 -1,-1 -1,-2 0,0 0,-1 0,-3 0,-3 0,-9 0,-12l-9 0z"/>
    <path class="fil46" d="M669 1587c0,6 0,17 1,22l26 0 0 -6 -20 0 0 -11 20 0c0,-2 0,-4 0,-7 -8,0 -19,0 -27,0l0 2z"/>
    <path class="fil47" d="M738 1627c1,0 1,0 2,1l0 3c-1,0 -1,1 -3,1l1 -5zm8 1l4 0 0 14 5 0 0 -14 4 0 0 -4c-5,-1 -8,-1 -13,-1l0 3c-2,-2 -4,-3 -15,-3l0 19 6 0 1 -6c0,0 3,6 3,6l6 0c0,-1 -1,-2 -2,-3 0,-1 0,-1 -1,-2 -1,-2 -1,-2 -1,-3 1,-1 3,-1 3,-6z"/>
    <path class="fil46" d="M850 1629l0 -6 -7 0c-1,1 -3,18 -3,20l6 0 1 -9 2 9 4 0 2 -10 2 10 6 0 -2 -20 -8 0 -1 6 -2 0z"/>
    <path class="fil48" d="M721 1628c0,1 0,1 0,1 0,0 0,0 0,1 1,2 1,6 0,7 -1,1 0,0 -1,1 -1,0 -1,0 -2,0l0 -1c-1,-1 -1,-5 -1,-6 1,-2 1,-3 4,-3zm-9 12c5,4 12,2 14,0 4,-4 3,-10 1,-13l-1 -2c-3,-2 -8,-2 -11,-1 -3,2 -2,1 -4,4 -2,2 -1,9 1,12z"/>
    <path class="fil47" d="M708 1631l-9 0 0 4 3 0c0,1 0,1 -1,1 0,2 1,0 0,1l0 0c-1,1 -1,1 -2,1 0,0 -1,0 -1,-1 -1,0 -1,-1 -1,-1 -1,-4 0,-6 2,-8 1,-1 2,0 2,1l1 0c2,0 3,0 6,-1 0,-2 -2,-2 -3,-3 -3,-2 -7,-2 -10,-1 0,0 0,0 0,0 -2,1 -3,2 -4,4 -1,1 -1,4 -1,6 0,2 0,4 2,5 3,4 9,4 12,3 1,-1 1,-1 2,-2 2,-1 3,-6 2,-9z"/>
    <polygon class="fil45" points="816,1635 819,1635 819,1643 826,1643 826,1623 825,1623 819,1623 819,1630 816,1630 816,1623 810,1623 810,1642 810,1643 816,1643 "/>
    <path class="fil43" d="M666 1638l0 -10c1,0 2,1 3,2 0,1 1,4 0,6 -1,1 -2,2 -3,2zm-7 -15c0,4 0,16 0,20 9,0 16,0 17,-9 0,-2 -1,-6 -2,-7 -4,-4 -9,-5 -15,-4z"/>
    <path class="fil44" d="M896 1631l0 5 -2 0 2 -5zm-9 12l6 0 0 -2 5 0 0 2 6 0 -5 -20 -7 0c-1,3 -5,17 -5,20z"/>
    <polygon class="fil46" points="828,1625 828,1643 839,1643 839,1638 834,1638 834,1635 839,1635 839,1630 834,1630 834,1628 839,1628 839,1623 828,1623 "/>
    <path class="fil49" d="M766 1642c2,0 5,1 8,0 1,0 2,-1 3,-2 0,0 1,-1 1,-2 1,-3 -1,-5 -2,-6 -2,-2 -4,-1 -4,-4 4,-1 5,1 6,1l0 -5c-2,0 -7,-2 -10,0 -4,4 -3,8 0,9 4,2 3,3 3,5 -4,0 -4,-1 -6,-2l1 6z"/>
    <polygon class="fil43" points="684,1630 683,1628 689,1628 689,1623 678,1623 678,1642 689,1642 689,1638 683,1638 683,1635 688,1635 689,1635 689,1630 "/>
    <path class="fil44" d="M807 1638c-2,0 -3,1 -5,0 -3,-2 -3,-8 -1,-9l1 -1c3,-1 2,1 5,1 0,-7 0,-3 0,-6 -2,1 -6,-1 -11,3 -2,1 -3,5 -3,8 0,3 2,7 5,8 1,0 3,1 5,1 2,0 3,0 4,-1l0 -4z"/>
    <path class="fil46" d="M885 1638c-1,1 -7,2 -7,-5 0,-4 4,-4 8,-4l-1 -5 -5 0c-6,1 -9,6 -9,11 1,8 8,8 14,8l0 -5z"/>
    <polygon class="fil46" points="907,1643 917,1643 917,1638 912,1638 912,1624 907,1624 "/>
    <path class="fil46" d="M783 1644l3 -6c1,-1 7,-16 7,-16l-5 0 -8 20c-1,1 -1,1 -2,2l5 0z"/>
    <path class="fil50" d="M864 1625c0,6 0,13 0,18l6 0 0 -20 -6 0 0 2z"/>
    <polygon class="fil51" points="760,1633 764,1632 764,1624 760,1624 "/>
    <path class="fil52" d="M927 1603c2,0 3,1 5,2 1,1 3,2 4,3 1,2 1,4 1,5 0,2 0,4 -1,5 -1,2 -2,3 -4,4 -2,1 -3,1 -5,1 -2,0 -4,0 -5,-1 -2,-1 -3,-2 -4,-4 -1,-1 -1,-3 -1,-5 0,-1 0,-3 1,-5 1,-1 2,-2 4,-3 2,-1 3,-2 5,-2zm0 2c-1,0 -3,1 -4,1 -1,1 -2,2 -3,3 -1,2 -1,3 -1,4 0,2 0,3 1,4 1,2 2,3 3,3 1,1 3,2 4,2 1,0 3,-1 4,-2 1,0 2,-1 3,-3 1,-1 1,-2 1,-4 0,-1 0,-2 -1,-4 -1,-1 -2,-2 -3,-3 -1,0 -3,-1 -4,-1zm-5 14l0 -11 3 0c2,0 3,0 3,0 1,0 1,0 2,1 0,0 0,0 1,1 0,0 0,1 0,1 0,1 0,2 -1,2 0,1 -1,1 -2,1 0,0 1,0 1,1 0,0 0,0 1,0 0,0 0,1 0,2l2 2 -3 0 -1 -2c-1,-1 -1,-2 -1,-2 -1,0 -1,-1 -2,-1l0 0 0 5 -3 0zm3 -6l0 0c2,0 2,0 3,0 0,-1 0,-1 0,-1 1,0 1,0 1,-1 0,0 0,0 -1,-1 0,0 0,0 0,0 -1,0 -1,0 -3,0l0 0 0 3z"/>
   </g>
   <g>
    <path class="fil53" d="M1374 1625l-208 0c-12,0 -15,-5 -10,-15 2,-4 9,-14 12,-18l41 -51c13,-18 21,-15 34,-15l132 -1c13,0 12,12 12,19l0 64c0,7 3,17 -13,17zm-206 3l204 0c5,0 10,0 13,-2 3,-2 5,-5 5,-10l0 -79c0,-9 -7,-16 -15,-16l-131 1c-12,0 -20,-2 -31,8 -3,3 -46,59 -50,64 -5,6 -11,12 -13,20 -2,11 7,14 18,14z"/>
    <path class="fil53" d="M1173 1610c3,2 1,2 4,2 1,-3 20,-25 23,-28l17 -22c2,-2 4,-5 7,-6 0,8 -2,34 -1,40 0,2 1,4 2,4 2,0 7,-7 10,-11 2,-1 3,-3 5,-5l13 -17c3,-3 6,-7 9,-10 0,12 -1,28 0,40 0,3 0,3 3,3l1 -46c0,-2 -1,-2 -1,-3 -4,0 -4,2 -6,4l-33 39c1,-15 1,-30 1,-45 -4,-1 -2,-1 -7,6 -3,2 -5,5 -7,7l-26 32c-4,5 -11,12 -14,16z"/>
    <path class="fil54" d="M1129 1666l5 0 1 -12c1,2 1,3 1,4 0,1 1,3 1,5 1,3 0,3 7,3l3 -15c0,13 -1,15 4,15 2,0 2,-1 2,-2l0 -21c0,-2 -2,-2 -6,-2 -3,0 -3,3 -4,8 -1,3 -2,7 -2,10l-1 -2c0,-1 0,-1 -1,-3 -3,-15 -1,-13 -10,-13l0 25z"/>
    <path class="fil53" d="M1272 1600c3,-1 7,-7 10,-10l18 -22c2,-2 7,-9 9,-11l0 42 4 0 0 -46c0,-8 -11,7 -13,9l-26 32c-3,3 -4,2 -2,6z"/>
    <path class="fil53" d="M1323 1592l0 -41 -4 0 0 45c0,2 1,2 2,2 3,0 9,-9 11,-11l30 -37 -2 -2 -37 44z"/>
    <path class="fil54" d="M1166 1648c0,0 0,0 0,0 0,1 1,1 1,1l2 7 -6 0c1,-2 3,-6 3,-8zm-11 18l5 0c1,-2 2,-3 2,-5l9 0c0,3 1,2 1,5l6 0c-1,-3 -8,-22 -9,-25l-6 0c0,3 -1,4 -2,6l-6 19z"/>
    <path class="fil54" d="M1185 1666l5 0 4 -12c1,-3 4,-9 4,-13l-6 0 -4 17c-1,-1 -1,0 -1,-2l-4 -15 -6 0c0,6 6,18 8,25z"/>
    <path class="fil54" d="M1267 1666c5,0 3,-2 3,-7 0,-13 7,-8 7,-5l0 12 3 0c0,-8 -1,-15 5,-15 4,0 3,7 3,15l3 0c0,-15 2,-18 -8,-18 -1,0 -2,1 -3,2 -2,-3 -3,-2 -7,-2 -2,0 -2,1 -3,2l0 -2 -3 0 0 18z"/>
    <path class="fil54" d="M1219 1666c6,0 5,1 5,-11l10 0 0 -4 -10 0 0 -6 12 0 0 -4 -17 0 0 25z"/>
    <path class="fil54" d="M1298 1661c0,-3 4,-3 7,-4 0,2 0,4 -1,5 0,0 0,1 -1,1 -2,1 -6,1 -5,-2zm-3 -7c6,-1 0,-3 8,-3 1,0 2,0 2,2 0,4 -7,0 -10,5 -3,3 0,9 4,9 4,0 4,-3 7,-2 3,1 1,2 5,1l-1 -3c-1,-3 -1,-1 -1,-6 0,-7 -2,-11 -9,-9 -4,0 -5,2 -5,6z"/>
    <path class="fil54" d="M1408 1663c-3,0 -5,0 -5,-2 0,-4 6,-3 8,-4 0,3 0,6 -3,6zm8 1l0 1c0,0 0,0 0,0 0,1 0,2 -4,0 -1,0 2,0 -1,-1 -6,5 -11,2 -11,-3 0,-6 6,-6 11,-7 0,-5 -6,-5 -7,0l-4 0c1,-9 13,-9 15,-2 1,4 -1,5 1,11 0,0 0,0 0,1z"/>
    <path class="fil54" d="M1247 1662c-2,1 -7,2 -7,-1 0,-4 5,-3 8,-4 0,2 0,4 -1,5zm-10 -8l4 0c0,-5 4,-3 7,-3l0 3c-2,1 -6,1 -7,2 -9,3 -4,15 7,8 3,2 2,3 6,2 -1,-6 -3,0 -2,-8 0,-4 0,-7 -2,-9 -3,-2 -12,-3 -13,5z"/>
    <polygon class="fil53" points="1367,1597 1371,1597 1371,1549 1367,1549 "/>
    <path class="fil54" d="M1336 1651l1 0c3,0 4,1 5,4l-9 0c0,-2 1,-4 3,-4zm-7 5c0,15 14,11 16,6 0,-2 1,-1 -1,-2 -2,-3 -1,3 -8,3 -2,0 -3,-3 -3,-5l12 0c0,-16 -16,-12 -16,-2z"/>
    <path class="fil54" d="M1348 1661c0,3 3,6 6,6 2,0 4,-2 4,-2l2 0c1,1 1,1 3,1l0 -18 -4 0c0,6 0,8 0,11 0,4 -7,6 -7,1 -1,-4 0,-7 0,-12l-4 0 0 13z"/>
    <path class="fil54" d="M1382 1656c0,14 16,13 16,3l-3 0c-1,6 -9,6 -9,-3 0,-7 8,-7 9,-2l3 0c-1,-10 -16,-9 -16,2z"/>
    <path class="fil54" d="M1312 1655c0,5 0,12 8,12 5,0 7,-4 8,-8 -2,0 -3,0 -3,0 -1,2 -3,6 -7,4 -3,-2 -4,-10 0,-12 2,-1 6,0 6,3 0,0 1,0 4,0 -3,-11 -16,-7 -16,1z"/>
    <polygon class="fil54" points="1200,1666 1206,1666 1206,1641 1200,1641 "/>
    <path class="fil54" d="M1367 1645l0 3 -2 0 0 3 2 0c0,16 -1,15 7,15l0 -3 -3 0 0 -12 3 0 0 -3 -3 0c0,-5 0,-5 -2,-5 -1,1 -2,0 -2,2z"/>
    <path class="fil54" d="M1255 1650c0,16 -1,16 4,16 0,-11 -1,-15 6,-15l0 -3c-5,0 -3,0 -6,2l0 -2c-2,0 -4,0 -4,2z"/>
    <polygon class="fil54" points="1376,1666 1380,1666 1380,1648 1376,1648 "/>
    <path class="fil54" d="M1335 1646c3,0 6,-3 7,-6 -4,0 -6,0 -7,6z"/>
    <path class="fil54" d="M1376 1643c0,3 1,3 3,3 1,-2 1,-2 1,-5l-4 0 0 2z"/>
   </g>
   <g>
    <path class="fil55" d="M1704 1681c1,-1 2,-1 3,-3 0,0 1,-2 2,-3 1,-2 2,-5 3,-8 1,-3 5,-13 7,-14 1,3 10,25 12,27l2 1 -13 0 2 -1c1,-1 1,-1 0,-3 -1,-5 -1,-4 -11,-4 -1,3 -2,4 -2,7 2,0 2,0 4,1l-9 0zm138 -12c-2,-3 -4,-6 -6,-8 -1,-3 -2,-5 -4,-6 -2,-2 -1,0 -2,-2l14 0c-1,2 -1,1 -3,2 0,2 3,5 5,8 1,-1 6,-5 5,-8 -1,-1 -1,0 -2,-1 -1,-1 0,1 -1,-1 3,0 8,0 10,1 -3,1 -1,-1 -6,5 -2,2 -3,4 -5,6 1,2 4,7 5,8 2,2 2,3 3,5 2,2 2,1 4,3 -3,1 -10,0 -13,0 1,-2 2,-2 2,-2 0,-2 -4,-7 -5,-9 -2,2 -4,4 -5,6 -2,3 -2,3 0,4l-8 1 2 -1c3,-2 9,-10 10,-11zm-42 -15c1,-1 10,-1 11,-1 4,0 8,0 12,0l-1 8c-2,-4 -1,-6 -12,-6l0 11c4,0 6,-2 6,-6 0,0 0,0 0,0 1,1 1,5 1,7 0,2 0,6 -1,7 -2,-3 0,-6 -6,-6l1 11c10,3 12,-5 13,-7 1,1 0,3 0,4 0,2 0,3 0,5l-24 0c1,-1 2,0 3,-1 1,-2 1,-19 1,-22 0,-5 -1,-3 -4,-4zm-30 0l0 0c1,0 1,-1 1,-1 2,0 12,0 13,1l-4 1c0,3 -1,22 1,24 1,2 7,1 9,-1 3,-1 2,-5 4,-7 1,2 0,8 0,10l-25 0c2,-1 0,0 2,0 1,-1 1,-1 2,-2 1,-1 0,-2 0,-3 0,-3 0,-6 0,-9 0,-15 1,-11 -3,-13zm-33 0c2,-1 18,-1 21,1 3,1 4,3 4,7 -1,4 -3,4 -6,6l7 10c1,2 0,1 2,2l1 1c-9,0 -8,1 -11,-3 0,-1 -1,-2 -2,-3 -3,-4 -3,-6 -5,-6 -1,0 -1,0 -1,0l0 3c0,11 1,6 4,9l-14 0c4,-3 4,3 4,-14 0,-16 0,-11 -4,-13zm44 -125c2,1 3,5 5,7 8,13 63,105 65,109l-140 0 70 -116zm-80 117l-16 0 0 42 192 0 0 -42 -16 0c-2,-2 -3,-5 -5,-8 -2,-2 -3,-5 -5,-8l-50 -82c-1,-2 -18,-31 -20,-33 -6,8 -14,24 -20,33l-60 98z"/>
    <path class="fil55" d="M1700 1643c2,-2 4,-5 5,-8l75 -123c-16,-1 -33,5 -45,12 -12,7 -22,17 -30,28 -7,12 -13,26 -14,43 -1,13 0,26 5,38 0,2 1,4 2,5l2 5c0,0 0,0 0,0 0,0 0,0 0,0z"/>
    <path class="fil55" d="M1861 1643l2 -2c2,-4 5,-14 7,-18 5,-24 0,-51 -13,-70 -2,-3 -4,-6 -6,-9l-11 -10c-5,-4 -6,-6 -13,-9 -12,-8 -27,-13 -45,-13 3,4 62,102 70,114 1,3 9,15 9,17z"/>
    <path class="fil55" d="M1679 1597l0 12c1,3 3,26 9,35l10 0c-1,-2 -4,-7 -4,-10 -5,-12 -7,-25 -6,-38 4,-46 42,-87 93,-87 38,0 64,21 77,42 16,23 21,55 11,83 -1,3 -4,9 -5,10l10 0c7,-11 10,-32 9,-47 -1,-25 -13,-52 -31,-68 -26,-24 -60,-35 -96,-26 -39,10 -68,42 -76,81 0,4 0,10 -1,13z"/>
    <path class="fil55" d="M1781 1566c0,0 0,0 1,1 1,2 9,25 9,25l-20 0 10 -26zm-29 52l9 0 7 -19 26 0 7 19 9 0c0,-2 -22,-56 -24,-62l-9 0 -25 62z"/>
    <path class="fil56" d="M1858 1524c-3,-17 22,-20 24,-5 3,16 -21,20 -24,5zm26 0l0 -5c0,-1 0,0 0,-1 -3,-6 -6,-11 -15,-11 -17,2 -17,27 0,28 4,1 8,-1 10,-3 5,-4 4,-6 5,-8z"/>
    <path class="fil55" d="M1867 1515c3,0 5,0 7,0 2,6 -2,5 -7,5l0 -5zm8 6c2,-2 3,-5 0,-7 -2,-2 -7,-1 -10,-1 0,3 0,6 0,9l0 6c0,2 -1,1 1,1 2,0 1,-2 1,-7l7 1 1 6 3 0c-2,-3 -1,-5 -3,-8z"/>
    <path class="fil55" d="M1747 1667c5,0 8,-1 8,-6 0,-5 -3,-6 -8,-6l0 12z"/>
    <path class="fil55" d="M1712 1672l2 0 4 0 2 0c-1,-3 -3,-8 -4,-10l-4 10z"/>
   </g>
   <path class="fil57" d="M278 1956l-9 0c-3,1 -4,-1 -13,3l-62 28c-9,3 -17,7 -25,11l0 86 12 6 0 -86 72 -34c5,-2 10,-5 16,-6 13,-2 27,4 26,17 7,-1 10,-3 18,-1 12,2 23,10 15,21 -3,4 -6,5 -12,8 -19,9 -37,18 -55,27l-1 57c5,-1 30,-14 35,-15l0 31c2,0 21,-10 24,-11l18 -9c2,-1 5,-2 6,-4 0,-25 1,-50 1,-75 0,-16 2,-23 -9,-31 -8,-6 -18,-7 -30,-7 -4,-9 -7,-12 -18,-15 -2,0 -7,-1 -9,-1zm-81 163c1,1 1,1 2,1 1,0 0,-1 1,1l-1 21c0,0 -1,0 -1,0 0,0 0,0 0,0 0,0 0,0 0,0l-1 0c1,1 14,1 15,0 -1,-1 -1,0 -3,-1l0 -21 3 -1c-1,-1 -6,0 -8,0 -1,0 -2,0 -4,0l-3 0c0,0 0,0 0,0zm31 -121c2,1 6,3 9,4 2,1 13,-5 16,-7 3,-1 7,-3 9,-5 0,-3 -5,-5 -8,-4 -4,0 -25,11 -26,12zm31 16c3,1 7,4 9,4 3,1 15,-7 18,-8 2,-1 8,-4 9,-6 0,-3 -6,-4 -9,-4l-26 13c-1,1 0,0 -1,1zm29 105l3 1 0 21c-1,2 0,0 -2,1 0,0 0,-1 -1,1l26 0 0 -7c-2,0 -1,3 -5,5 -2,1 -6,1 -9,1l0 -11c8,-2 8,4 9,4 0,-2 1,-7 0,-9 -2,2 0,5 -9,4l0 -10c4,0 9,-1 11,3 1,1 1,1 2,2l0 -6 -24 0c-1,0 -1,0 -1,0zm41 1c5,0 7,0 7,6 0,4 -3,4 -7,5l0 -11zm-12 -1c2,1 3,0 3,2l0 20 -3 1c2,1 13,1 15,0 -1,0 -3,0 -3,-1l0 -10c4,1 9,0 13,-1 3,-2 3,-7 0,-9 -3,-2 -8,-2 -12,-2l-12 0c-1,0 0,0 -1,0zm-90 24l3 0c-1,0 -1,0 -1,0l-1 -1c-4,-2 -4,-5 -4,-11 0,-6 0,-12 6,-12 6,0 6,7 6,12 0,3 0,9 -3,10l-3 2 3 0c7,-2 14,-5 12,-14 0,-7 -8,-11 -15,-11 -19,1 -21,23 -3,25zm-50 -13c5,0 8,1 8,6 0,6 -3,6 -8,6l0 -12zm0 -10c4,-1 7,0 7,5 0,4 -3,5 -7,5l0 -10zm-13 0l4 0c0,29 1,20 -3,23 6,0 21,0 25,-2 3,-1 6,-4 3,-7 -1,-3 -5,-3 -9,-4 15,-4 7,-10 3,-11 -4,0 -18,0 -23,0l0 1zm84 -1c2,1 1,0 3,1l0 19c0,2 0,2 -1,2 -1,1 1,0 -1,1 -1,1 -1,0 -1,1l7 0c-3,-3 -3,2 -3,-9 0,-4 0,-8 0,-12 1,2 7,15 9,18 1,3 2,4 4,0 0,0 1,-1 1,-2 1,-2 2,-4 3,-6 1,-3 3,-8 5,-11l0 20c0,1 0,0 -2,1 0,0 -1,0 -1,0 0,1 0,1 0,1l15 0 -2 -1c-2,-1 0,0 -1,-1l0 -21c0,0 0,0 0,0 0,0 1,0 1,0l2 -1c-1,0 -12,0 -12,0 -2,1 -5,12 -7,14 -3,-4 -5,-10 -7,-14 -3,0 -10,-1 -12,0zm-26 -38c1,2 11,7 13,7l0 -58c0,-1 -11,-6 -12,-6l-1 57zm19 9c1,2 11,7 13,7l0 -59c-2,-1 -11,-5 -13,-5l0 57zm-55 2l13 6 0 -86c-3,-1 -9,-5 -13,-5l0 85zm18 8c1,1 11,6 13,6l0 -85c-2,-1 -11,-6 -12,-6l-1 85z"/>
   <g>
    <path class="fil58" d="M583 2064l0 -22c0,-4 1,-5 0,-9 0,-8 1,-11 4,-16 5,-8 12,-12 25,-12l58 0c16,0 29,12 29,23l0 40c0,7 -4,14 -9,18 -5,5 -11,7 -21,7l-58 0c-17,0 -28,-11 -28,-29zm-6 -36l0 43c0,9 7,18 12,22 11,8 26,7 42,7 4,0 9,0 13,0 5,0 8,-1 13,-1 15,0 30,3 41,-12 4,-5 7,-12 7,-20l0 -35c0,-17 -13,-33 -28,-33l-71 0c-6,0 -16,5 -20,9l-6 8c-1,4 -3,8 -3,12z"/>
    <path class="fil58" d="M611 2052l4 0c0,1 -1,2 -1,4 -2,-1 -2,-3 -3,-4zm13 -6c2,-4 3,-7 5,-11 1,-3 3,-8 4,-11 10,0 21,0 32,0 5,0 10,0 14,2 4,2 4,7 2,11 -2,3 -5,6 -8,7 -4,2 -11,2 -16,2 -11,0 -22,0 -33,0zm-9 -23c4,1 7,1 11,1 0,4 -2,7 -4,11 -1,3 -3,8 -4,11 -8,0 -15,-2 -15,5 0,4 6,9 8,12 -1,2 -2,4 -3,6 -4,8 -10,3 -14,5 -2,1 -2,6 1,6 12,0 14,1 17,-5 1,-1 3,-5 3,-7 3,2 9,12 11,12l38 0c3,0 2,-5 1,-6 -4,0 -33,0 -36,-1 -3,-1 -6,-6 -7,-8 -2,-1 -3,-2 -4,-4l4 -9c14,0 29,0 43,0 7,0 12,-2 16,-5 9,-8 11,-20 2,-26 -4,-3 -8,-3 -15,-3l-49 0c-4,0 -4,1 -4,5z"/>
    <path class="fil59" d="M872 2045l-5 0 0 -14 3 0c5,0 9,1 9,7 0,5 -3,7 -7,7zm-15 30l10 0 0 -23c13,0 11,2 12,16 0,3 0,3 0,7l12 0c0,-3 -1,-3 -2,-6 -1,-5 1,-18 -6,-20 1,-2 6,-3 6,-12 0,-17 -14,-14 -32,-14l0 52z"/>
    <path class="fil59" d="M730 2045l-5 0 0 -14c12,0 12,2 12,9 0,4 -3,5 -7,5zm20 30l0 -1c-5,-4 -2,-14 -4,-21 -2,-4 -3,-3 -4,-5 4,-2 5,-4 5,-10 0,-6 0,-9 -4,-12 -5,-4 -18,-3 -28,-3l0 52 10 0 0 -23c18,0 9,6 13,23l12 0z"/>
    <path class="fil59" d="M768 2035c0,6 3,13 3,19l-7 0 4 -18c0,0 0,0 0,-1zm-18 39l0 1 11 0c0,-5 2,-9 2,-13l10 0c0,1 2,9 2,11 1,3 3,2 12,2 -2,-9 -4,-17 -6,-26 -1,-4 -2,-8 -3,-12 -1,-4 -3,-10 -3,-14l-14 0c0,4 -7,33 -8,39 0,1 -2,11 -3,12z"/>
    <polygon class="fil59" points="896,2075 923,2075 923,2066 906,2066 906,2052 921,2052 921,2044 906,2044 906,2032 922,2032 922,2023 896,2023 "/>
    <polygon class="fil59" points="824,2075 850,2075 850,2066 834,2066 834,2052 849,2052 849,2044 834,2044 834,2032 850,2032 850,2023 824,2023 "/>
    <path class="fil59" d="M796 2054l0 21 10 0c0,-26 -2,-16 7,-36 1,-3 2,-5 3,-8 1,-2 3,-5 3,-8l-10 0c-2,3 -7,17 -7,19l-1 -2c-1,-1 -1,-1 -1,-3l-6 -14 -11 0 10 23c1,1 3,6 3,8z"/>
    <path class="fil59" d="M948 2032c0,5 -4,10 -9,10 -15,0 -9,-23 3,-18 3,2 6,4 6,8zm-20 0c0,17 22,14 22,3l0 -5c0,-11 -22,-12 -22,2z"/>
    <path class="fil59" d="M937 2032l0 -4 2 0c2,0 2,1 3,2 -2,2 -2,2 -5,2zm-3 7l3 0 0 -5c4,0 5,1 5,5l2 0c0,-3 1,-5 -2,-5 3,-3 2,-3 2,-7 -5,-1 -5,0 -10,0l0 12z"/>
   </g>
   <g>
    <path class="fil60" d="M1427 2066l0 0zm1 -2l-1 2 1 -2zm-50 0l0 0c0,0 0,0 0,0zm-1 -3l1 2 -1 -2zm51 3c0,-6 2,-11 2,-19 -6,0 -9,2 -14,2 3,3 6,6 5,14 0,8 -6,8 -7,12 2,-1 1,-1 5,-1 -3,6 -8,6 -15,6 -8,0 -13,0 -16,-5l4 0c-3,-4 -11,-15 -10,-20 1,-2 1,-3 2,-4 3,-2 2,0 3,-3 -5,0 -6,0 -10,-1 -2,8 0,9 0,16 -2,-2 -2,-4 -2,-7 -1,-4 0,-7 0,-11 2,-1 3,-2 5,-3 -5,-8 -5,-11 -13,-11l0 55c0,8 4,8 12,8 62,-1 55,5 55,-21l0 -55c0,-8 -2,-9 -10,-9l-47 0c-11,0 -10,5 -10,18 4,-2 4,-6 8,-7 2,4 -1,5 8,12 3,2 3,2 6,5 8,9 17,0 39,6 2,1 2,1 4,2 0,5 0,15 -2,19 -1,2 -1,1 -2,2z"/>
    <path class="fil60" d="M1111 2025l1 -2c2,-2 4,-4 7,-4l237 0c5,0 6,3 7,5 0,0 0,0 0,0 0,0 0,1 0,1 0,0 1,0 1,0 0,-8 2,-18 -7,-18l-239 0c-5,0 -7,3 -7,6l0 12z"/>
    <path class="fil60" d="M1354 2081l-235 0c-3,0 -5,-2 -7,-4 0,0 0,-1 0,-1l-1 -2 0 12c0,3 2,6 6,6l241 0c8,0 6,-13 6,-26 0,-11 0,-22 0,-33l-1 0c0,9 0,19 0,28 0,11 2,20 -9,20z"/>
    <path class="fil60" d="M1132 2044l10 0 0 7 -10 0 0 -7zm0 -14l7 0c2,0 3,0 3,2l0 5 -10 0 0 -7zm-10 31l25 0c6,0 4,-17 3,-18 0,-2 0,-1 -2,-2l0 -1c4,-2 3,-6 3,-15 0,-4 -2,-5 -6,-5l-23 0 0 41z"/>
    <path class="fil60" d="M1286 2040l7 0 0 12 -7 0 0 -12zm-9 -3c0,25 -2,24 13,24 2,0 2,-1 3,-2l0 7 -8 0 0 8c19,0 16,4 16,-43 -6,0 -3,0 -8,1l-3 0c-5,-1 -13,-3 -13,5z"/>
    <path class="fil60" d="M1339 2040l8 0 0 12 -8 0 0 -12zm-8 -5c0,27 -2,26 11,26 3,0 4,-2 6,-3 1,3 3,3 9,3 0,-7 0,-5 -1,-9 0,-1 0,-1 0,-1 -1,-3 -1,-16 -1,-20l-20 0c-2,0 -4,2 -4,4z"/>
    <path class="fil60" d="M1257 2040l8 0 0 12 -8 0 0 -12zm-8 -3c0,26 -2,24 12,24 2,0 3,-2 5,-3 2,3 1,3 9,3 0,-4 0,-5 -1,-8 -2,-7 -1,-13 -1,-22l-17 0c-5,0 -7,2 -7,6z"/>
    <path class="fil60" d="M1227 2061l5 0c4,0 1,0 3,0l11 0 0 -30 -10 0 0 20 -6 0c0,-7 1,-14 -2,-19l-9 -1c0,16 2,3 1,18 0,6 1,12 7,12z"/>
    <path class="fil60" d="M1186 2061l5 0c6,0 -1,0 7,0l7 0 0 -30 -10 0 0 20 -6 0c0,-20 1,-20 -11,-20 0,3 -1,7 0,9 1,1 2,-1 2,8 0,7 -1,13 6,13z"/>
    <path class="fil60" d="M1305 2035c0,14 -2,12 15,12 0,6 1,5 -15,5l0 9c19,0 27,3 23,-15 -5,-1 -11,0 -15,-1 0,-6 -1,-5 13,-5l0 -9c-11,0 -21,-2 -21,4z"/>
    <path class="fil60" d="M1154 2040c0,8 -1,13 -1,21l10 0 0 -21 5 0 0 6 8 0c0,-19 1,-14 -12,-14l-10 -1 0 9z"/>
    <polygon class="fil60" points="1208,2061 1217,2061 1217,2020 1208,2020 "/>
    <path class="fil60" d="M1399 2045l-15 0c5,0 7,1 12,1 9,0 24,1 30,-2 -2,-3 -9,-4 -13,-4 -6,0 -12,0 -18,0 2,3 3,2 4,5z"/>
    <path class="fil60" d="M1383 2045c-1,-2 0,-1 -3,-2 2,2 1,1 3,2z"/>
   </g>
   <path class="fil61" d="M1920 2017c0,17 -1,15 6,25 4,7 8,13 12,20l-23 0c2,-3 3,-4 5,-7 5,-8 5,-6 1,-13 -2,-2 -2,-4 -4,-5 -3,1 -5,6 -7,9 -2,2 -6,8 -7,9l0 -27c0,-8 1,-7 -12,-7 -4,0 -2,14 -2,23 -4,-3 -18,-23 -21,-23l-11 0 0 48 14 0 0 -20c3,2 5,4 7,7l10 11c4,3 2,1 5,2 0,0 0,0 0,1 1,0 1,0 1,0 0,0 0,0 0,0 0,1 1,1 1,1 1,2 0,5 6,5l49 0c3,0 6,-1 6,-4 2,-5 -6,-15 -10,-22 -6,-12 -13,-19 -13,-31 0,-3 1,-2 4,-3l0 -5 -21 0c-2,7 1,5 4,6zm-251 74l2 -12 2 0 -2 10 6 0 0 2 -8 0zm25 -3l-4 0 -2 3 -2 0 6 -12 3 0 2 12 -3 0 0 -3zm0 -2l-1 -4 -2 4 3 0zm13 5l2 -12 4 0c0,0 1,1 1,1 1,0 1,0 2,0 0,0 0,1 1,1 0,0 0,1 0,1 0,1 0,1 -1,2 0,0 0,1 -1,1 0,0 1,0 1,1 1,0 1,1 1,1 0,1 -1,1 -1,2 0,1 -1,1 -1,1 -1,0 -2,1 -3,1l-5 0zm3 -7l2 0c1,0 1,0 2,0 0,0 0,0 0,-1 1,0 1,0 1,-1 0,0 0,0 -1,0 0,0 0,-1 0,-1 0,0 -1,0 -1,0l-2 0 -1 3zm-1 5l2 0c1,0 2,0 2,0 1,0 1,-1 1,-1 0,0 0,0 0,-1 0,0 0,0 0,-1 0,0 -1,0 -1,0l-3 0 -1 3zm18 -3c0,0 0,-1 0,-2 1,-1 1,-2 2,-2 0,-1 1,-2 2,-2 0,-1 1,-1 2,-1 2,0 3,1 4,2 1,0 1,2 1,3 0,1 0,2 -1,3 0,2 -1,2 -2,3 -1,1 -2,1 -3,1 -1,0 -2,0 -3,-1 -1,0 -1,-1 -1,-2 -1,0 -1,-1 -1,-2zm2 0c0,1 1,2 1,2 1,1 1,1 2,1 1,0 1,0 2,-1 0,0 1,-1 1,-2 0,0 1,-1 1,-2 0,-1 -1,-2 -1,-2 -1,-1 -1,-1 -2,-1 -1,0 -2,1 -3,2 0,1 -1,2 -1,3zm20 5l-2 0 2 -12 5 0c1,0 2,1 2,1 1,0 1,0 2,1 0,0 0,1 0,1 0,1 0,2 -1,3 0,0 -1,1 -2,1 0,0 0,1 0,1 1,1 1,2 2,4l-2 0c-1,-1 -1,-2 -2,-3 0,-1 0,-2 -1,-2 0,0 0,0 -1,0l-1 0 -1 5zm2 -7l1 0c1,0 2,0 2,0 1,0 1,0 1,-1 1,0 1,0 1,-1 0,0 0,0 -1,0 0,-1 0,-1 -1,-1l-3 0 0 3zm23 4l-4 0 -2 3 -2 0 6 -12 3 0 2 12 -2 0 -1 -3zm0 -2l-1 -4 -2 4 3 0zm16 5l-2 0 2 -10 -3 0 0 -2 9 0 0 2 -4 0 -2 10zm14 -5c0,0 0,-1 0,-2 1,-1 1,-2 2,-2 0,-1 1,-2 2,-2 0,-1 1,-1 2,-1 2,0 3,1 4,2 1,0 1,2 1,3 0,1 0,2 -1,3 0,2 -1,2 -2,3 -1,1 -2,1 -3,1 -1,0 -2,0 -3,-1 -1,0 -1,-1 -1,-2 -1,0 -1,-1 -1,-2zm2 0c0,1 1,2 1,2 1,1 1,1 2,1 1,0 1,0 2,-1 0,0 1,-1 1,-2 1,0 1,-1 1,-2 0,-1 0,-2 -1,-2 0,-1 -1,-1 -2,-1 -1,0 -2,1 -2,2 -1,1 -2,2 -2,3zm21 5l-3 0 3 -12 5 0c0,0 1,1 2,1 0,0 0,0 1,1 0,0 0,1 0,1 0,1 0,2 -1,3 0,0 -1,1 -2,1 0,0 0,1 1,1 0,1 1,2 1,4l-2 0c0,-1 -1,-2 -1,-3 -1,-1 -1,-2 -1,-2 -1,0 -1,0 -2,0l0 0 -1 5zm1 -7l1 0c1,0 2,0 3,0 0,0 0,0 0,-1 1,0 1,0 1,-1 0,0 0,0 -1,0 0,-1 0,-1 -1,-1l-3 0 0 3zm16 7l2 -12 3 0 -3 12 -2 0zm14 -5c0,0 0,-1 0,-2 0,-1 1,-2 1,-2 1,-1 1,-2 2,-2 1,-1 2,-1 3,-1 1,0 2,1 3,2 1,0 2,2 2,3 0,1 -1,2 -1,3 -1,2 -2,2 -3,3 0,1 -2,1 -3,1 -1,0 -2,0 -2,-1 -1,0 -2,-1 -2,-2 0,0 0,-1 0,-2zm2 0c0,1 0,2 1,2 0,1 1,1 2,1 0,0 1,0 1,-1 1,0 1,-1 2,-2 0,0 0,-1 0,-2 0,-1 0,-2 0,-2 -1,-1 -2,-1 -2,-1 -1,0 -2,1 -3,2 -1,1 -1,2 -1,3zm18 1l2 0c0,1 0,1 1,1 0,1 1,1 1,1 1,0 2,0 2,0 0,-1 1,-1 1,-1 0,-1 -1,-1 -1,-1 0,0 -1,-1 -1,-1 -1,0 -2,-1 -2,-1 -1,0 -1,-1 -1,-1 0,0 -1,-1 -1,-1 0,-1 1,-2 1,-3 1,0 2,-1 3,-1 2,0 3,1 3,1 1,1 2,2 2,3l-3 0c0,-1 0,-1 0,-1 -1,-1 -1,-1 -2,-1 0,0 -1,0 -1,0 0,1 0,1 0,1 0,1 0,1 0,1 0,0 1,1 2,1 1,1 2,1 2,1 1,1 1,1 1,2 0,1 -1,2 -1,3 -1,0 -2,1 -4,1 -1,0 -1,0 -2,-1 -1,0 -1,0 -2,-1 0,-1 0,-1 0,-2zm-57 -43c0,-16 19,-16 19,0 0,15 -19,15 -19,0zm-16 -1c0,12 10,25 22,25l6 0c12,0 22,-12 22,-24 0,-14 -11,-25 -24,-26 -13,0 -26,12 -26,25zm-131 1c0,-16 18,-16 18,0 0,15 -18,15 -18,0zm-16 0c0,7 4,15 10,20 7,5 20,6 28,1 7,-4 12,-13 12,-23 0,-12 -13,-24 -25,-24 -13,1 -25,12 -25,26zm-34 -17l0 -17 0 -2 -18 0 0 1 0 60 18 0 0 -24 14 -1 0 47 18 0 0 -83 0 0c-6,0 -12,0 -18,0l0 9c0,4 0,7 0,10l-14 0zm100 41l0 -37c5,0 8,1 8,7 0,5 -3,7 -6,9 4,9 10,14 15,22l16 0 5 -20c0,0 0,-1 0,-1l0 -2c1,5 4,9 6,13 2,4 5,8 10,8 1,-2 6,-17 8,-19l4 21 15 0c-1,-8 -1,-14 -2,-22 -1,-8 -2,-17 -2,-25l-18 0c-2,5 -4,7 -6,13l-1 0c-1,-5 -5,-10 -8,-12 -2,-3 -2,-2 -7,-2 -3,0 -7,0 -10,0 0,23 -4,24 -4,33 -2,-1 -3,-4 -5,-6 2,-3 11,-12 4,-22 -3,-4 -7,-5 -12,-5l-24 0 0 48c2,0 5,0 7,0 6,0 5,1 7,-1z"/>
  </g>
 </g>
</svg>
