<?xml version="1.0" encoding="UTF-8"?>
<!DOCTYPE svg PUBLIC "-//W3C//DTD SVG 1.0//EN" "http://www.w3.org/TR/2001/REC-SVG-20010904/DTD/svg10.dtd">
<!-- Creator: CorelDRAW X8 -->
<svg xmlns="http://www.w3.org/2000/svg" xml:space="preserve" width="2036px" height="1366px" version="1.0" style="shape-rendering:geometricPrecision; text-rendering:geometricPrecision; image-rendering:optimizeQuality; fill-rule:evenodd; clip-rule:evenodd"
viewBox="0 0 2036 1366"
 xmlns:xlink="http://www.w3.org/1999/xlink">
 <defs>
  <style type="text/css">
   <![CDATA[
    .str0 {stroke:#E6E6E6;stroke-width:3.54331}
    .fil0 {fill:none}
    .fil5 {fill:#001285}
    .fil6 {fill:#00135C}
    .fil31 {fill:#008D60}
    .fil32 {fill:#008E61}
    .fil23 {fill:#013272}
    .fil25 {fill:#01336D}
    .fil13 {fill:#016AB4}
    .fil20 {fill:#0274BA}
    .fil21 {fill:#173B8C}
    .fil19 {fill:#2E2F78}
    .fil18 {fill:#313280}
    .fil12 {fill:#348CC7}
    .fil1 {fill:#73BB20}
    .fil14 {fill:gray}
    .fil2 {fill:#A47B36}
    .fil3 {fill:#A57D39}
    .fil16 {fill:#B0DEEF}
    .fil4 {fill:#CE0000}
    .fil33 {fill:#D6201C}
    .fil22 {fill:#F27123}
    .fil30 {fill:#F97509}
    .fil28 {fill:#FA7205}
    .fil27 {fill:#FB7303}
    .fil29 {fill:#FC7404}
    .fil7 {fill:#FF2C1D}
    .fil10 {fill:#FF817A}
    .fil11 {fill:#FFD9D6}
    .fil9 {fill:#FFDEDD}
    .fil8 {fill:#FFFEFE}
    .fil15 {fill:white}
    .fil24 {fill:white}
    .fil17 {fill:gray;fill-rule:nonzero}
    .fil26 {fill:white;fill-rule:nonzero}
   ]]>
  </style>
 </defs>
 <g id="Capa_x0020_1">
  <metadata id="CorelCorpID_0Corel-Layer"/>
  <g id="_2485752857360">
   <rect class="fil0 str0" width="509" height="455"/>
   <rect class="fil0 str0" x="509" width="509" height="455"/>
   <rect class="fil0 str0" x="1018" width="509" height="455"/>
   <rect class="fil0 str0" x="1527" width="509" height="455"/>
   <rect class="fil0 str0" y="455" width="509" height="455"/>
   <rect class="fil0 str0" x="1527" y="455" width="509" height="455"/>
   <rect class="fil0 str0" y="911" width="509" height="455"/>
   <rect class="fil0 str0" x="509" y="911" width="509" height="455"/>
   <rect class="fil0 str0" x="1018" y="455" width="509" height="455"/>
   <rect class="fil0 str0" x="509" y="455" width="509" height="455"/>
   <g>
    <path class="fil1" d="M298 212c22,-7 33,26 12,34 -23,8 -35,-25 -12,-34zm-48 0c22,-7 31,26 11,34 -22,8 -35,-26 -11,-34zm146 0c23,-7 31,27 11,34 -23,7 -34,-27 -11,-34zm-243 0c23,-7 30,29 10,34 -11,3 -21,-4 -23,-13 -2,-10 5,-19 13,-21zm36 13c4,-18 28,-19 35,0l-35 0zm1 -62l-8 1 -1 16c5,2 3,-1 4,4l-5 1 -3 26c-5,0 -4,-5 -14,-7 -36,-7 -42,49 -6,50 15,1 19,-8 25,-16l2 2c2,4 2,5 6,8 4,3 7,5 12,6 12,2 22,-4 25,-11 0,0 0,0 -1,-1l-4 -3c-5,3 -8,10 -20,7 -6,-1 -12,-7 -12,-13l39 0c6,9 4,13 14,18 10,6 16,3 26,0 -1,11 -1,24 -9,30 -9,7 -21,3 -24,-6l-9 0c4,15 26,24 40,11 11,-11 7,-27 12,-49 3,4 5,12 16,16 10,4 15,1 23,-3l2 4c8,0 6,0 7,-4 0,-4 0,-11 2,-17l40 0c0,6 -7,12 -12,13 -11,3 -14,-3 -19,-7l-6 3c3,7 12,14 24,12 15,-2 17,-12 21,-16 5,7 6,11 15,15 8,3 16,1 23,-3l1 2c2,2 2,2 7,2 1,-9 6,-39 5,-45 -4,0 -5,0 -7,1l-2 2c-5,-6 -16,-11 -27,-6 -10,4 -12,8 -16,19l-41 1c4,-16 23,-20 32,-7l7 -3c-4,-7 -11,-13 -23,-12 -10,0 -15,7 -20,12 0,-4 0,-5 -2,-7 -4,0 -3,-1 -6,2l-2 1c-2,-7 -16,-10 -25,-7 -12,3 -13,11 -17,16 -3,-7 -4,-9 -9,-12 -10,-7 -22,-7 -31,0 -8,7 -4,7 -9,12 -3,-8 -10,-15 -20,-17 -16,-2 -19,8 -26,11l6 -52z"/>
    <path class="fil2" d="M148 289c1,-28 -27,-30 -25,-62 2,-25 25,-34 42,-41l5 -2c-56,4 -77,41 -43,76 5,5 20,18 21,29z"/>
    <path class="fil2" d="M118 173c-13,4 -15,29 -1,25 12,-4 14,-29 1,-25z"/>
    <path class="fil2" d="M106 232c-1,-24 6,-37 -25,-57 2,2 6,8 8,11 3,4 5,9 7,15 3,10 5,22 10,31z"/>
    <path class="fil3" d="M136 253c5,8 23,16 34,5 -18,3 -20,1 -34,-5z"/>
   </g>
   <g>
    <path class="fil4" d="M930 219c-26,-24 -131,-32 -173,-34 -11,-1 -59,-4 -66,-3 -1,2 0,2 2,2l15 1c6,0 13,0 19,1 12,1 25,2 37,3 35,2 106,10 136,25 6,3 22,11 17,22 -16,31 -211,33 -247,33l-60 1c-3,-1 -18,-1 -20,0 1,2 3,1 5,1l44 1c66,1 231,4 284,-23 15,-7 19,-18 7,-30z"/>
    <path class="fil5" d="M608 240l-4 -1 0 -11c6,0 16,-1 16,6 0,6 -7,6 -12,6zm95 -13l0 -10c0,0 1,0 1,0l18 30 18 0c0,-4 0,-42 0,-44l-12 0c-1,2 -1,17 -1,21 0,1 0,3 0,5 0,0 1,2 0,2 0,3 1,2 -1,2 0,-2 -7,-13 -9,-15 -1,-3 -3,-5 -4,-8 -2,-2 -4,-6 -5,-7l-17 0c-1,2 -1,41 -1,44l13 0 0 -20zm-58 -20c-5,3 -6,11 -2,16 4,4 10,5 16,7 11,3 8,9 2,10 -8,1 -16,-2 -19,-2l-1 7c0,2 0,1 1,1 3,3 21,3 28,1 11,-4 13,-14 9,-20 -6,-7 -18,-6 -23,-10 -1,-1 -2,-4 0,-5 5,-4 17,0 21,0l1 -8c-8,-3 -28,-3 -31,2l-2 1zm-41 14l0 -10c19,-3 20,12 0,10zm19 3c2,-1 4,-1 6,-3 5,-3 6,-13 -4,-17 -6,-2 -27,-2 -35,-1 0,2 0,41 0,44 9,1 31,1 37,-2 4,-2 8,-5 7,-12 -2,-8 -9,-6 -11,-9z"/>
    <path class="fil6" d="M761 237c8,-4 5,4 6,11l2 0c1,-3 1,-10 0,-12 -2,-4 -6,-2 -9,0 -5,-4 -5,-1 -8,-1 -1,0 1,-1 -2,-1 0,2 -1,11 0,13 0,1 0,0 0,1l2 0 0 -10c1,-1 2,-2 4,-2 4,1 1,10 2,11 1,1 0,1 2,1 1,0 0,0 1,-1 0,-1 -1,-7 0,-10zm53 -7c-3,0 -2,-1 -3,1 1,1 -1,1 3,1l0 -2zm-2 4c-1,3 -1,11 -1,14l2 0c1,-2 1,-11 0,-14l-1 0zm43 -5c-3,0 -2,1 -2,4 0,3 0,13 1,15l1 0c1,-2 0,-7 0,-10l0 -9c0,0 0,0 0,0zm-25 16c-3,1 -8,3 -8,-4 0,-3 1,-4 3,-5 2,-1 4,1 6,1 0,-2 0,-2 -2,-3 -2,0 -4,0 -5,0 -2,1 -4,3 -4,6 -1,7 5,10 10,7l0 -2zm-52 -6c0,-4 7,-5 7,1l-7 -1zm9 6c-4,1 -9,3 -9,-4l9 0c2,-8 -10,-10 -11,-2 -1,4 0,7 3,8 1,1 3,1 5,1 2,0 3,-1 3,-3zm51 -3c2,-1 2,-1 6,-1l0 4c-3,1 -7,3 -6,-3zm5 5c0,0 0,0 0,0 1,0 1,1 3,1 1,-3 1,-10 0,-12 -2,-3 -7,-2 -10,-2l0 3c3,-1 7,-3 8,1 -2,2 -11,0 -9,7 2,5 8,2 8,2zm-41 -10c0,2 1,7 -1,8 -1,1 -4,2 -6,-1 -2,-4 1,-10 7,-7zm0 -2c-3,-1 -6,-2 -8,1 -1,1 -2,4 -1,7 1,8 8,4 8,4 3,0 -1,1 3,1 1,-3 0,-7 0,-11 0,-7 1,-8 -1,-8 -2,2 -1,1 -1,1l0 5z"/>
   </g>
   <g>
    <path class="fil7" d="M1378 187c-3,5 -7,2 -6,-1 0,-3 6,-5 6,1zm-173 84l4 -15c7,-1 15,-3 21,-5 7,-1 14,-3 22,-4 14,-4 28,-7 42,-10 9,-2 70,-14 78,-19 2,-1 3,-1 3,-3 -4,-2 -9,1 -12,2 -5,2 -8,3 -10,-2 -4,2 -9,12 -17,5 -2,1 -4,4 -8,5 -16,4 0,-22 -2,-26 -9,0 -11,23 -15,29l-9 2c1,-6 8,-23 8,-28 -8,-1 -11,20 -15,29l-9 2 6 -20c-3,1 -2,0 -3,4 -1,1 -1,3 -2,5 -1,3 -4,7 -6,9 -2,2 -4,4 -8,5 -6,3 -7,1 -11,-1 -2,2 -4,4 -7,5 -6,3 -5,0 -9,-1 -2,4 -8,7 -12,5 -1,-1 -1,-2 -2,-4 -3,2 -7,10 -14,7 -10,-5 6,-42 22,-35 1,-2 1,-2 4,-2 2,-1 4,-1 6,-2 -1,9 -12,29 -6,28 2,0 3,-1 3,-3l7 -21c1,-5 3,-9 4,-14 1,-3 1,-3 4,-5 3,0 5,-1 7,-2 -1,9 -14,38 -12,42 3,1 5,-1 5,-4 2,-8 3,-12 8,-20 6,-8 23,-16 20,0 6,-1 4,-1 7,-11l9 0c1,1 0,0 1,1 1,-2 3,-4 6,-5 4,-1 6,1 7,4 2,-2 4,-5 7,-6 4,-2 8,-2 9,3 1,6 -6,16 -6,22 9,1 1,-4 11,-20 2,-3 5,-6 8,-8 4,-3 7,-4 11,-2 2,-3 5,-3 11,-4 -2,5 -3,10 -5,15 -2,7 -6,13 0,12 4,-1 10,-4 15,-2 5,3 3,10 0,13 -6,4 -20,7 -28,10l-89 24c-5,1 -56,16 -59,16zm12 -53l5 -2c-3,5 -5,1 -7,9 -3,9 -9,27 -12,35 -13,26 -35,24 -36,14 -2,-19 33,-43 34,-45l11 -36c-3,3 -8,6 -10,11 -4,6 -4,9 -3,18 -15,2 -11,-14 1,-25 4,-4 18,-15 29,-15l-12 36zm189 -12c2,-16 -10,-27 -19,-32 -33,-23 -94,-25 -134,-21 -36,3 -57,5 -83,22 -20,13 -36,37 -30,73 9,63 84,63 144,46 26,-8 51,-19 72,-32 17,-11 47,-32 50,-56z"/>
    <path class="fil8" d="M1225 240c-2,-7 7,-26 13,-25l0 2c0,0 0,2 0,2 -1,1 -1,2 -1,4 -1,2 -2,4 -3,7 -1,4 -4,11 -9,10zm47 -10c-2,-7 7,-25 12,-25 3,3 -1,4 -2,7 0,4 3,1 0,8 -2,4 -5,11 -10,10zm74 -16c-3,-5 6,-26 13,-24 0,1 -4,27 -13,24zm-141 57c3,0 54,-15 59,-16l89 -24c8,-3 22,-6 28,-10 3,-3 5,-10 0,-13 -5,-2 -11,1 -15,2 -6,1 -2,-5 0,-12 2,-5 3,-10 5,-15 -6,1 -9,1 -11,4 -4,-2 -7,-1 -11,2 -3,2 -6,5 -8,8 -10,16 -2,21 -11,20 0,-6 7,-16 6,-22 -1,-5 -5,-5 -9,-3 -3,1 -5,4 -7,6 -1,-3 -3,-5 -7,-4 -3,1 -5,3 -6,5 -1,-1 0,0 -1,-1l-9 0c-3,10 -1,10 -7,11 3,-16 -14,-8 -20,0 -5,8 -6,12 -8,20 0,3 -2,5 -5,4 -2,-4 11,-33 12,-42 -2,1 -4,2 -7,2 -3,2 -3,2 -4,5 -1,5 -3,9 -4,14l-7 21c0,2 -1,3 -3,3 -6,1 5,-19 6,-28 -2,1 -4,1 -6,2 -3,0 -3,0 -4,2 -16,-7 -32,30 -22,35 7,3 11,-5 14,-7 1,2 1,3 2,4 4,2 10,-1 12,-5 4,1 3,4 9,1 3,-1 5,-3 7,-5 4,2 5,4 11,1 4,-1 6,-3 8,-5 2,-2 5,-6 6,-9 1,-2 1,-4 2,-5 1,-4 0,-3 3,-4l-6 20 9 -2c4,-9 7,-30 15,-29 0,5 -7,22 -8,28l9 -2c4,-6 6,-29 15,-29 2,4 -14,30 2,26 4,-1 6,-4 8,-5 8,7 13,-3 17,-5 2,5 5,4 10,2 3,-1 8,-4 12,-2 0,2 -1,2 -3,3 -8,5 -69,17 -78,19 -14,3 -28,6 -42,10 -8,1 -15,3 -22,4 -6,2 -14,4 -21,5l-4 15z"/>
    <path class="fil8" d="M1176 274c-2,-5 -1,-8 2,-12 2,-4 4,-7 6,-10l15 -17c-1,7 -9,30 -13,35 -4,4 -6,6 -10,4zm53 -92c-11,0 -25,11 -29,15 -12,11 -16,27 -1,25 -1,-9 -1,-12 3,-18 2,-5 7,-8 10,-11l-11 36c-1,2 -36,26 -34,45 1,10 23,12 36,-14 3,-8 9,-26 12,-35 2,-8 4,-4 7,-9l-5 2 12 -36z"/>
    <path class="fil7" d="M1176 274c4,2 6,0 10,-4 4,-5 12,-28 13,-35l-15 17c-2,3 -4,6 -6,10 -3,4 -4,7 -2,12z"/>
    <path class="fil7" d="M1346 214c9,3 13,-23 13,-24 -7,-2 -16,19 -13,24z"/>
    <path class="fil7" d="M1225 240c5,1 8,-6 9,-10 1,-3 2,-5 3,-7 0,-2 0,-3 1,-4 0,0 0,-2 0,-2l0 -2c-6,-1 -15,18 -13,25z"/>
    <path class="fil7" d="M1272 230c5,1 8,-6 10,-10 3,-7 0,-4 0,-8 1,-3 5,-4 2,-7 -5,0 -14,18 -12,25z"/>
    <path class="fil9" d="M1372 186c2,-2 1,-1 3,-2 2,1 1,1 3,2 -1,1 -2,2 -3,3 -1,-1 -2,-1 -3,-3zm6 1c0,-6 -6,-4 -6,-1 -1,3 3,6 6,1z"/>
    <path class="fil10" d="M1374 187c0,-4 -1,-1 1,-2 2,1 1,-2 2,2 -1,0 -1,0 -1,0l-1 0c0,0 0,0 -1,0 0,0 0,0 0,0 0,0 0,0 0,0zm1 2c1,-1 2,-2 3,-3 -2,-1 -1,-1 -3,-2 -2,1 -1,0 -3,2 1,2 2,2 3,3z"/>
    <path class="fil11" d="M1377 187c-1,-4 0,-1 -2,-2 -2,1 -1,-2 -1,2 0,0 0,0 0,0 0,0 0,0 0,0 1,0 1,0 1,0l1 0c0,0 0,0 1,0z"/>
   </g>
   <g>
    <path class="fil12" d="M268 661c1,2 2,4 3,6 0,2 1,6 1,7l-1 7c0,2 -1,5 -2,7l15 0c0,-3 -1,-12 0,-14l5 0 0 31 -5 0 0 -15 -16 0 0 15 -5 0 0 -8c-1,2 0,1 -2,3 -3,2 -5,4 -9,5 1,3 2,7 4,10 0,1 1,2 2,3 1,2 2,3 3,4 11,2 25,-5 30,-17 9,-20 -3,-36 -12,-52 -1,-1 -2,-3 -3,-5 -1,1 -3,4 -4,6 -1,3 -3,5 -4,7z"/>
    <path class="fil12" d="M235 707c6,0 13,0 17,-2 0,-4 -1,-10 1,-15 -5,1 -6,0 -11,1l0 14 -5 0 0 -31c4,0 9,-1 13,0 5,1 6,3 8,5l10 -18c0,-3 -9,-19 -12,-22 0,-1 0,-1 -1,-1 -1,5 -22,32 -24,48 -1,8 1,15 4,21z"/>
    <path class="fil13" d="M358 677l0 28 2 0 0 -25c2,2 1,0 2,3 1,1 1,2 2,3 1,2 9,18 10,19 2,-2 11,-22 14,-26l0 26 5 0 0 -31 -5 0c-1,3 -5,8 -6,12l-5 9c0,1 -1,2 -2,3 -3,-8 -10,-20 -12,-24l-5 0 0 3z"/>
    <path class="fil14" d="M196 689c0,-3 0,-11 1,-13 2,0 5,-1 7,0 2,1 4,3 3,6 0,6 -5,7 -11,7zm-5 -12l0 28 5 0 0 -15c4,0 4,-1 9,6 1,2 1,3 3,5 1,1 2,3 3,4l6 0 -11 -15c0,0 10,-3 7,-11 -3,-6 -15,-6 -22,-5l0 3z"/>
    <path class="fil13" d="M334 676c3,0 11,-1 11,6 -1,7 -7,7 -12,7l1 -13zm-6 29l5 0 0 -15c4,0 4,-1 9,6l6 9 6 0c-1,-3 -10,-13 -11,-15 2,-2 4,-1 6,-5 2,-3 1,-6 -1,-8 -3,-4 -14,-4 -20,-3l0 31z"/>
    <path class="fil15" d="M269 688c-1,0 0,0 -1,-1l0 -13 -5 0 0 23 0 8 5 0 0 -15 16 0 0 15 5 0 0 -31 -5 0c-1,2 0,11 0,14l-15 0z"/>
    <path class="fil16" d="M255 638c1,0 1,0 1,1 3,3 12,19 12,22l0 0c1,-2 3,-4 4,-7 1,-2 3,-5 4,-6 -1,-1 -3,-4 -4,-6 -2,-3 -8,-15 -9,-19l-8 15z"/>
    <path class="fil13" d="M258 679c0,2 1,4 0,7 -1,2 -3,3 -5,4 -2,5 -1,11 -1,15l0 0c4,-1 6,-3 9,-5 2,-2 1,-1 2,-3l0 -23 5 0 0 13c1,1 0,1 1,1 1,-2 2,-5 2,-7l1 -7c0,-1 -1,-5 -1,-7 -1,-2 -2,-4 -3,-6l0 0 -10 18z"/>
    <path class="fil15" d="M242 676c16,-2 13,18 0,12l0 -12zm11 14c2,-1 4,-2 5,-4 1,-3 0,-5 0,-7 -2,-2 -3,-4 -8,-5 -4,-1 -9,0 -13,0l0 31 5 0 0 -14c5,-1 6,0 11,-1z"/>
    <path class="fil14" d="M108 697l-2 1c0,3 3,6 6,7 4,2 15,1 16,-7 1,-7 -6,-9 -12,-12 -14,-8 2,-16 7,-7 1,1 1,1 1,1 0,0 0,1 0,1 0,0 0,0 0,0 1,0 1,0 1,0l2 -1c-3,-11 -20,-9 -21,1 0,10 21,10 17,19 -1,3 -5,4 -8,3 -5,-1 -4,-3 -7,-6z"/>
    <path class="fil13" d="M302 692c0,-1 2,-4 3,-6 0,-1 1,-2 1,-3l2 -3 5 12 -11 0zm-9 13l3 0 5 -11 12 0c2,1 1,1 2,3 1,1 1,2 1,3 1,1 2,3 3,5l5 0c-1,-3 -11,-23 -13,-28 -3,-8 -3,-3 -6,3l-12 25z"/>
    <path class="fil13" d="M406 692c0,-1 2,-4 2,-6l3 -5c0,-1 0,-1 0,-1l6 12 -11 0zm-9 13l3 0c1,-2 4,-10 5,-11l13 0c1,2 4,9 5,11l5 0c-1,-2 -3,-5 -4,-8 -1,-3 -2,-6 -3,-8l-7 -14c0,-2 0,-2 -1,-2 -2,0 -2,3 -3,3 -2,6 -12,25 -13,29z"/>
    <path class="fil14" d="M164 677l0 28 18 0c3,0 3,0 3,-1 0,-2 -2,-1 -3,-1 -2,0 -3,0 -4,0 -3,0 -6,0 -9,0l0 -14 11 0c0,-3 -1,-2 -11,-2l0 -11 16 0 0 -2c-1,-1 -19,0 -21,0l0 3z"/>
    <path class="fil14" d="M81 677l0 28 21 0c0,0 0,0 0,0 0,0 1,0 1,0l0 -2 -17 0 0 -14c2,0 4,0 6,0 3,0 4,0 5,-1l0 -1c-1,-1 -9,0 -11,0l0 -11 14 0c3,0 3,0 3,-2 -1,0 0,0 -1,0 -1,0 -1,0 -2,0l-19 0 0 3z"/>
    <path class="fil16" d="M235 707c1,2 3,4 4,6 2,2 3,2 6,4 4,3 10,5 16,5 -1,-1 -2,-2 -3,-4 -1,-1 -2,-2 -2,-3 -2,-3 -3,-7 -4,-10l0 0c-4,2 -11,2 -17,2z"/>
    <path class="fil14" d="M131 674c0,2 0,2 6,2 2,0 4,0 5,0l0 29 5 0 0 -29 12 0 0 -2 -27 0c-1,0 -1,0 -1,0z"/>
    <path class="fil14" d="M221 677c0,9 0,19 0,28 2,0 3,0 4,0 1,0 1,0 1,0 0,0 0,0 0,0 0,-8 0,-23 0,-31l-5 0 0 3z"/>
    <path class="fil12" d="M242 688c13,6 16,-14 0,-12l0 12z"/>
    <path class="fil17" d="M82 734l0 9 -1 0 0 -9 1 0zm6 0l1 0 4 7 0 -7 1 0 0 9 -1 0 -4 -6 0 6 -1 0 0 -9zm11 0l1 0 4 7 0 -7 1 0 0 9 -1 0 -4 -6 0 6 -1 0 0 -9zm16 0c1,0 2,1 3,2 1,0 1,1 1,3 0,1 0,2 -1,3 -1,1 -2,1 -3,1 -1,0 -2,0 -3,-1 -1,-1 -1,-2 -1,-3 0,-2 0,-3 1,-3 1,-1 2,-2 3,-2zm0 1c-1,0 -2,1 -2,1 -1,1 -1,2 -1,3 0,1 0,1 1,2 0,1 1,1 2,1 1,0 2,0 2,-1 1,-1 1,-1 1,-2 0,-1 0,-2 -1,-3 0,0 -1,-1 -2,-1zm12 8l-3 -9 1 0 3 7 2 -7 1 0 -3 9 -1 0zm12 -4l0 -2 -1 2 1 0zm0 -5l3 9 -1 0 -1 -3 -2 0 -2 3 -1 0 3 -9 1 0zm8 0l1 0 4 7 0 -7 1 0 0 9 -1 0 -4 -6 0 6 -1 0 0 -9zm13 1l0 7c1,0 1,0 2,-1 1,-1 1,-1 1,-2 0,-1 0,-2 -1,-3 -1,0 -1,-1 -2,-1zm-1 -1c2,0 3,1 4,2 1,0 1,1 1,3 0,1 0,2 -1,3 -1,1 -2,1 -4,1l0 0 0 -9 0 0zm15 0c1,0 2,1 3,2 1,0 1,1 1,3 0,1 0,2 -1,3 -1,1 -2,1 -3,1 -2,0 -3,0 -4,-1 0,-1 -1,-2 -1,-3 0,-2 1,-3 1,-3 1,-1 2,-2 4,-2zm0 1c-1,0 -2,1 -3,1 0,1 -1,2 -1,3 0,1 1,1 1,2 1,1 2,1 3,1 1,0 1,0 2,-1 1,-1 1,-1 1,-2 0,-1 0,-2 -1,-3 -1,0 -1,-1 -2,-1z"/>
    <path class="fil17" d="M192 739c0,-1 -1,-1 -1,-1 0,-1 -1,-1 -1,-2 0,0 1,-1 1,-1 0,-1 1,-1 1,-1 1,0 1,0 2,1 0,0 0,0 0,1l-1 0c0,0 0,0 0,0 0,-1 0,-1 -1,-1 0,0 0,0 0,1 0,0 -1,0 -1,0 0,1 1,1 1,1 0,0 0,0 1,0 0,1 1,1 1,1 1,1 1,2 1,2 0,1 0,2 -1,2 0,1 -1,1 -2,1 0,0 -1,0 -2,-1 0,0 0,-1 0,-1l1 -1c0,1 0,1 0,2 1,0 1,0 1,0 1,0 1,0 2,0 0,-1 0,-1 0,-2 0,0 0,0 0,-1 -1,0 -1,0 -2,0zm12 -5c1,0 2,1 3,2 1,0 1,1 1,3 0,1 0,2 -1,3 -1,1 -2,1 -3,1 -1,0 -2,0 -3,-1 -1,-1 -1,-2 -1,-3 0,-2 0,-3 1,-3 1,-1 2,-2 3,-2zm0 1c-1,0 -2,1 -2,1 -1,1 -1,2 -1,3 0,1 0,1 1,2 0,1 1,1 2,1 1,0 2,0 2,-1 1,-1 1,-1 1,-2 0,-1 0,-2 -1,-3 0,0 -1,-1 -2,-1zm9 8l0 -9 2 0 0 8 3 0 0 1 -5 0zm14 -9l1 0 0 6c0,1 0,2 -1,2 0,1 -1,1 -2,1 -1,0 -1,0 -2,-1 0,0 -1,-1 -1,-2l0 -6 1 0 0 6c0,1 1,1 1,1 0,1 1,1 1,1 1,0 1,0 2,-1 0,0 0,0 0,-1l0 -6zm13 7l1 1c-1,1 -2,1 -3,1 -2,0 -3,0 -3,-1 -1,-1 -2,-2 -2,-3 0,-2 1,-3 2,-3 0,-1 1,-2 3,-2 1,0 2,1 3,2l-1 0c-1,0 -1,-1 -2,-1 -1,0 -2,1 -3,1 0,1 -1,2 -1,3 0,1 1,1 1,2 1,1 2,1 3,1 1,0 1,0 2,-1zm7 -7l0 9 -1 0 0 -9 1 0zm10 0c1,0 2,1 3,2 1,0 1,1 1,3 0,1 0,2 -1,3 -1,1 -2,1 -3,1 -2,0 -3,0 -4,-1 0,-1 -1,-2 -1,-3 0,-2 1,-3 1,-3 1,-1 2,-2 4,-2zm0 1c-1,0 -2,1 -3,1 0,1 -1,2 -1,3 0,1 1,1 1,2 1,1 2,1 3,1 1,0 1,0 2,-1 1,-1 1,-1 1,-2 0,-1 0,-2 -1,-3 -1,0 -1,-1 -2,-1zm9 -1l1 0 4 7 0 -7 1 0 0 9 -1 0 -4 -6 0 6 -1 0 0 -9zm16 0l0 1 -4 0 0 3 4 0 0 1 -4 0 0 3 4 0 0 1 -5 0 0 -9 5 0zm7 5c-1,-1 -1,-1 -2,-1 0,-1 0,-1 0,-2 0,0 0,-1 0,-1 1,-1 1,-1 2,-1 0,0 1,0 1,1 0,0 1,0 1,1l-1 0c0,0 0,0 -1,0 0,-1 0,-1 0,-1 0,0 -1,0 -1,1 0,0 0,0 0,0 0,1 0,1 0,1 0,0 1,0 1,0 1,1 1,1 2,1 0,1 1,2 1,2 0,1 -1,2 -1,2 -1,1 -1,1 -2,1 -1,0 -2,0 -2,-1 -1,0 -1,-1 -1,-1l1 -1c0,1 0,1 1,2 0,0 0,0 1,0 0,0 1,0 1,0 0,-1 0,-1 0,-2 0,0 0,0 0,-1 0,0 -1,0 -1,0z"/>
    <path class="fil17" d="M305 740l0 3 -1 0 0 -9 3 0c1,1 1,1 2,1 0,1 0,2 0,2 0,1 0,2 0,2 -1,1 -2,1 -2,1l-2 0zm0 -4l0 3 2 0c0,0 0,0 1,0 0,-1 0,-1 0,-2 0,0 0,-1 0,-1 -1,0 -1,0 -1,0l-2 0zm12 3l0 -2 -1 2 1 0zm0 -5l3 9 -1 0 -1 -3 -2 0 -2 3 -1 0 3 -9 1 0zm9 2l0 3 1 0c1,0 1,0 2,0 0,-1 0,-1 0,-2 0,0 0,-1 0,-1 -1,0 -1,0 -2,0l-1 0zm1 4l-1 0 0 3 -1 0 0 -9 3 0c0,1 1,1 1,1 1,1 1,2 1,2 0,1 0,2 -1,2 0,1 0,1 0,1l1 3 -1 0 -2 -3zm12 -1l-1 -2 0 2 1 0zm0 -5l3 9 -1 0 -1 -3 -3 0 -1 3 -1 0 3 -9 1 0z"/>
    <path class="fil17" d="M354 743l0 -9 1 0 0 8 3 0 0 1 -4 0zm13 -4l-1 -2 -1 2 2 0zm-1 -5l3 9 -1 0 -1 -3 -2 0 -1 3 -2 0 4 -9 0 0z"/>
    <path class="fil17" d="M383 739c0,-1 -1,-1 -1,-1 0,-1 -1,-1 -1,-2 0,0 1,-1 1,-1 0,-1 1,-1 1,-1 1,0 1,0 2,1 0,0 0,0 0,1l-1 0c0,0 0,0 0,0 0,-1 0,-1 -1,-1 0,0 0,0 0,1 0,0 0,0 0,0 0,1 0,1 0,1 0,0 0,0 1,0 0,1 1,1 1,1 1,1 1,2 1,2 0,1 0,2 -1,2 0,1 -1,1 -2,1 0,0 -1,0 -1,-1 -1,0 -1,-1 -1,-1l1 -1c0,1 0,1 0,2 1,0 1,0 1,0 1,0 1,0 2,0 0,-1 0,-1 0,-2 0,0 0,0 0,-1 -1,0 -1,0 -2,0zm12 0l-1 -2 -1 2 2 0zm-1 -5l3 9 -1 0 -1 -3 -2 0 -1 3 -2 0 4 -9 0 0zm8 9l0 -9 1 0 0 8 3 0 0 1 -4 0zm14 -9l1 0 0 6c0,1 0,2 -1,2 0,1 -1,1 -2,1 -1,0 -1,0 -2,-1 -1,0 -1,-1 -1,-2l0 -6 1 0 0 6c0,1 0,1 1,1 0,1 1,1 1,1 1,0 1,0 1,-1 1,0 1,0 1,-1l0 -6zm8 1l0 7c0,0 1,0 2,-1 0,-1 1,-1 1,-2 0,-1 -1,-2 -1,-3 -1,0 -2,-1 -2,-1zm-1 -1c2,0 3,1 4,2 0,0 1,1 1,3 0,1 -1,2 -1,3 -1,1 -2,1 -4,1l-1 0 0 -9 1 0z"/>
   </g>
   <g>
    <path class="fil18" d="M763 731l0 -18c-8,11 -29,10 -45,10 -19,0 -37,0 -56,0 -19,0 -34,2 -49,-7 -10,-5 -21,-19 -23,-33 -1,16 10,33 18,39 13,10 23,13 44,13 21,0 99,4 111,-4z"/>
    <path class="fil18" d="M764 653c7,-12 29,-11 45,-11 19,0 37,0 56,0 18,0 36,-1 50,7 9,6 20,19 22,34 1,-19 -11,-34 -21,-42 -14,-11 -29,-11 -51,-11 -21,0 -41,0 -62,0 -35,0 -43,-4 -39,23z"/>
    <path class="fil18" d="M751 674c0,-6 0,-6 6,-6 8,0 17,-1 16,8 0,2 -1,4 -2,5 -3,3 -11,3 -19,2l-1 -9zm-5 29c8,2 5,-7 5,-14 11,0 14,9 19,12 1,2 3,2 6,2 -2,-4 -6,-11 -10,-14 3,0 7,-1 10,-4 1,0 8,-18 -6,-22 -2,0 -5,0 -8,-1 -10,0 -17,-1 -17,8l1 33z"/>
    <path class="fil18" d="M879 684c0,-10 0,-17 11,-17 10,0 10,7 10,17l-21 0zm-7 19c3,0 7,0 7,0l0 -13 21 0 1 13 6 0 -1 -29c0,-7 -7,-12 -16,-12 -12,0 -17,6 -17,17l-1 24z"/>
    <path class="fil19" d="M709 697c0,-1 -1,-2 -1,-3 -1,-7 -1,-17 0,-23 1,-3 0,-3 4,-3 11,-2 19,2 19,15 0,12 -7,16 -18,15 -2,0 -3,-1 -4,-1zm-1 -34c-7,2 -7,4 -7,12l0 21c0,5 4,7 12,7 29,1 28,-22 23,-31 -5,-8 -17,-12 -28,-9z"/>
    <path class="fil18" d="M801 668c20,-6 24,24 10,29 -11,4 -18,-2 -20,-10 -2,-10 1,-16 10,-19zm-1 -6c-25,6 -20,47 11,41 24,-5 19,-47 -11,-41z"/>
    <path class="fil18" d="M858 696c-1,1 -2,2 -4,2 -9,1 -13,-3 -18,-5 -2,-1 -4,0 -4,2 1,9 36,14 34,-3 -1,-9 -9,-11 -17,-13 -13,-4 -13,-12 -1,-12 8,0 7,3 11,5 6,3 7,-1 5,-5 -4,-5 -16,-6 -23,-4 -10,3 -11,13 -3,18 4,3 10,4 16,6 4,1 7,3 4,9z"/>
    <path class="fil19" d="M692 697c-4,-1 -11,2 -20,0l0 -12c4,0 14,0 14,0 4,-1 3,-5 1,-5 -2,-1 -6,-1 -15,-1l0 -11 19 0c2,0 3,-5 -1,-5 -5,0 -14,-1 -18,0 -5,0 -7,2 -7,6 -1,5 -1,24 0,28 0,3 1,5 4,6 5,0 20,0 23,0 3,0 3,-5 0,-6z"/>
    <path class="fil18" d="M657 693c-6,-2 -6,7 -20,5 -7,-1 -10,-7 -10,-15 0,-9 3,-14 10,-15 7,-2 11,0 13,2 7,4 9,1 5,-3 -7,-8 -35,-9 -35,16 0,29 40,22 37,10z"/>
   </g>
   <path class="fil20" d="M1670 253c1,5 4,21 5,25l3 0 3 -12c1,-6 3,-14 5,-21 1,-7 4,-17 5,-24 0,-1 1,-7 2,-7 1,1 1,13 1,16 0,2 0,5 1,7 0,2 0,6 0,9 0,5 1,27 1,31 2,1 3,0 6,0 2,0 3,0 5,1l-1 -12c0,-4 0,-9 0,-13 -1,-4 -1,-9 -1,-12 0,-5 -1,-9 -1,-13 0,-7 -1,-17 -1,-25 0,-4 -1,-8 -1,-12 0,-3 0,-11 -1,-12 -1,-1 1,0 -3,0 -1,0 -2,0 -3,0 -1,5 -2,11 -3,17 -1,1 -1,2 -1,4l-8 33c0,1 0,3 -1,4 0,3 -1,7 -2,8 -1,-3 -8,-30 -8,-33 -1,-2 -1,-5 -2,-7l-3 -17c-1,-4 -2,-4 -2,-9 0,0 -6,0 -7,0 -1,10 0,25 -2,37 0,4 0,8 -1,12 0,8 0,17 -1,24l-2 25c5,0 4,1 6,1l1 -31c0,-5 0,-10 1,-15l0 -11c0,0 0,-1 0,-1l1 -2c0,0 0,0 0,0 0,0 0,-1 1,1l3 16c1,3 2,6 3,9 0,3 1,6 2,9zm85 -74c-1,6 1,17 1,24l0 51c0,2 -1,2 -1,4l0 20c2,0 4,-1 6,-1 2,0 4,1 6,1 0,-4 -1,-26 -1,-32l0 -36c0,-7 1,-26 1,-31 -1,0 -4,0 -6,1 -2,0 -4,-1 -6,-1zm97 86c-1,1 -11,2 -13,2l0 -36c5,-1 12,1 15,1l0 -12c-5,-1 -11,1 -15,0l0 -30 6 0c9,0 10,4 9,-5 0,-5 1,-6 -1,-6l-5 0c-6,0 -10,0 -16,0 -1,0 -2,0 -2,0 -1,0 -1,-1 -1,0 -1,1 0,10 0,12 0,3 0,8 0,12 0,10 0,39 0,49 0,4 0,9 0,13 0,4 -1,9 0,13 3,-1 8,-1 12,-1 2,0 12,1 13,0 0,0 0,0 0,0l0 -7c0,-1 0,-2 0,-3 0,-2 0,-2 -2,-2zm-220 -26c-1,1 -4,0 -6,0 -8,0 -5,1 -3,-14 0,-1 1,-2 1,-3 0,-3 2,-13 3,-15 0,1 1,7 2,8 1,5 1,11 2,16 1,2 2,7 1,8zm-6 -59c0,1 -1,9 -2,11 -1,4 -1,9 -2,14l-1 7c-1,3 -2,12 -3,16 -1,2 -1,5 -1,6l-9 41 0 3c2,0 2,-1 3,-1 2,0 2,1 3,1l1 -2c0,0 0,0 0,0l0 -1c1,-7 2,-16 4,-22 0,-2 0,-4 0,-4 3,-1 13,-1 15,0 1,4 4,27 5,29 2,0 4,-1 6,-1 2,0 4,1 6,1 0,-2 -1,-5 -2,-6 0,-2 0,-4 -1,-6l-12 -63c0,-4 -1,-9 -2,-13l-2 -13 -5 0c-1,1 -1,2 -1,3zm247 7c2,0 4,1 6,1 4,4 4,13 4,19 0,4 -1,10 -2,13 -1,3 -4,7 -9,6 0,-4 0,-37 1,-39zm-9 -8l-2 0c-1,1 0,10 0,11l1 38c0,8 0,17 0,25 0,4 -1,9 -1,12 0,3 0,10 0,13 2,0 3,-1 5,-1 2,0 4,1 6,1l0 -43c0,-1 -1,0 0,-1l4 11c0,1 1,3 1,5l5 16c1,3 2,10 3,12 2,0 4,-1 6,-1 2,0 3,1 6,1 -1,-3 -2,-5 -2,-7 0,0 0,-1 -1,-1 0,-3 1,-1 0,-2 0,-1 0,-1 0,-1l-2 -5c0,-1 0,-1 -1,-2l-4 -15c-1,-3 -5,-15 -5,-16 0,0 0,0 0,0l4 -3c7,-7 7,-22 6,-32 0,-3 -1,-6 -3,-8 0,-1 -1,-2 -1,-3 -1,0 -1,-1 -2,-2 -1,0 -2,-1 -3,-1 -6,-3 -13,0 -20,-1zm-138 90c-1,-4 -1,-37 0,-39 2,-1 4,0 5,1 7,6 7,32 1,38 -2,1 -5,1 -6,0zm0 -47c-1,-7 0,-28 0,-35 5,0 7,2 9,5 1,3 1,9 1,13 -1,8 -1,17 -10,17zm-11 -24c0,10 1,67 0,72 -1,10 0,7 6,7 7,0 14,2 19,-3 1,-1 2,-2 3,-3 2,-3 3,-10 4,-14 1,-6 0,-22 -6,-28 -3,-4 -7,-3 -9,-4 2,-2 5,1 11,-7 5,-8 7,-39 -12,-39 -6,0 -6,0 -13,0 -3,0 -4,-3 -3,9 0,3 0,7 0,10zm94 34c0,1 0,5 0,6 0,2 0,4 0,7 -1,7 -4,18 -10,22 -2,2 -2,2 -5,2 -2,1 -3,1 -5,0 -2,0 -1,0 -1,-5 0,-5 0,-9 0,-13l0 -62c0,-2 0,-1 2,-1 4,-1 7,-1 10,2 5,3 7,10 8,17 1,6 2,20 1,25zm-32 -48c0,1 0,87 0,89l0 5c3,0 18,0 22,-1 13,-3 17,-16 20,-27 0,-1 0,-3 0,-5l1 -17c0,-14 -1,-29 -7,-40 -8,-14 -21,-8 -34,-9 -2,0 -2,-1 -2,5zm136 -3c-1,-2 -1,-2 -7,-2 0,8 0,17 -1,25 0,2 0,4 0,6 0,2 -1,4 -1,6 0,2 0,5 0,7 0,2 -1,4 -1,6 0,5 1,2 0,7 -1,3 -2,23 -2,29l-1 13c1,0 1,-1 3,-1 3,0 3,2 3,-3l0 -12c0,-6 1,-26 1,-32 1,-4 0,-12 2,-15 0,1 1,7 2,9l4 17c0,2 1,6 2,9l6 28c3,0 3,0 3,-3l5 -19c0,-1 0,-1 0,-1 1,-1 0,-1 1,-2 0,-1 0,0 0,-2 0,-2 0,-3 1,-4 1,-5 2,-12 4,-17l3 -12c0,-3 0,-3 1,-4 1,2 1,6 1,8 0,3 0,5 0,8l2 47c0,1 -1,1 1,1 1,0 1,0 1,-1 4,0 7,1 9,1 0,-2 -1,-21 -2,-25l-1 -22c-1,-5 -2,-37 -2,-46 -1,-4 0,-6 -2,-6 -3,0 -5,0 -5,0l-4 17c0,3 -1,5 -2,8l-8 37c-1,3 0,3 -2,3 -1,-3 -1,-5 -1,-8 -1,-2 -2,-5 -2,-8 -1,-1 -1,-1 -1,-2l-5 -21c-1,-4 -2,-9 -3,-12 0,-3 -2,-11 -2,-12z"/>
   <g>
    <path class="fil21" d="M1285 688c9,0 23,-2 23,11 0,12 -13,12 -23,11l0 -22zm0 -31c9,0 21,-1 21,10 0,10 -12,9 -21,9l0 -19zm-23 0l8 0 0 66c9,0 18,0 26,0 32,-1 33,-29 19,-39 -1,-1 -3,-2 -4,-3 1,0 2,-1 3,-1 7,-5 9,-15 6,-23 -4,-9 -13,-12 -25,-12l-33 0 0 12z"/>
    <path class="fil21" d="M1355 710l0 -53c10,0 18,0 24,5 5,5 9,12 9,22 0,10 -4,16 -9,21 -6,5 -14,5 -24,5zm-23 -53l8 0 0 66 20 0c24,0 43,-14 43,-38 0,-18 -8,-30 -21,-36 -14,-6 -33,-4 -50,-4l0 12z"/>
    <path class="fil21" d="M1159 692c2,1 7,3 9,4 2,1 1,3 4,8 3,4 9,11 16,10 -8,-5 -4,-14 3,-14 4,0 7,3 8,6 1,4 -2,7 -4,8 6,1 13,-6 15,-10 4,-5 2,-7 4,-8 3,-1 7,-3 10,-4 0,12 -8,24 -19,29 -21,10 -45,-4 -46,-29zm81 -19c-5,1 -46,20 -49,20 -1,0 -43,-18 -48,-20 -3,4 -1,19 1,25 4,12 13,23 25,29 6,3 14,5 22,5 30,0 55,-26 49,-59z"/>
    <path class="fil22" d="M1170 638c1,2 16,25 17,26 1,-2 4,-27 4,-30 -7,-1 -16,2 -21,4z"/>
    <path class="fil22" d="M1195 664c2,-1 17,-25 17,-26 -4,-2 -13,-5 -20,-4l3 30z"/>
    <path class="fil22" d="M1204 667c1,0 25,-14 26,-15 -2,-3 -12,-12 -17,-13l-9 28z"/>
    <path class="fil22" d="M1153 652c0,1 24,15 26,15l-10 -28c-4,1 -15,10 -16,13z"/>
    <path class="fil22" d="M1143 672l29 2c-1,-2 -8,-9 -10,-10 -1,-2 -9,-10 -10,-11 -3,3 -8,14 -9,19z"/>
    <path class="fil22" d="M1210 674l29 -2c0,-5 -5,-16 -9,-19 -1,1 -19,20 -20,21z"/>
   </g>
   <g>
    <path class="fil23" d="M1748 703c1,-3 7,-16 9,-21 3,-8 5,-14 8,-21l19 0c0,3 -3,8 -4,11 -2,4 -2,7 -4,11 -3,7 -5,14 -8,20l-20 0zm164 -40c6,-2 10,-8 24,-7l-2 17c-4,-1 -7,-6 -14,-4 -18,5 -18,27 -24,34l-20 0 17 -45 20 0 -1 5zm-67 40c-5,0 -6,0 -10,-2 -7,-5 -4,-11 -1,-18 3,-10 1,-11 7,-19 5,-6 12,-7 20,-5 5,1 7,2 9,2l1 -3 17 0c-1,4 -15,41 -16,45l-27 0zm-44 2c-23,2 -30,-11 -19,-30 1,-2 2,-3 3,-5 4,-7 14,-13 24,-12 6,1 7,2 10,4l2 -4 17 0c0,2 -7,25 -9,28 -5,14 -8,25 -19,35 -9,10 -32,7 -41,1 2,-4 3,-11 5,-15 4,1 5,6 14,6 7,0 11,-3 13,-8zm-33 -47c-5,-16 17,-14 20,-11 2,2 0,9 -5,11 -3,1 -12,1 -15,0zm-27 3c1,-1 5,-13 6,-15l19 0 -22 57 -9 0c-12,0 -29,3 -34,-8 -3,-7 0,-18 3,-23 3,-5 8,-12 15,-14 11,-3 15,1 22,3zm-86 -15c4,0 51,0 57,0 0,2 -2,9 -3,11l-41 0 -5 11 38 0 -4 11 -38 0c-1,3 -5,11 -5,13l42 0 -4 11c-3,1 -52,0 -60,0l23 -57zm278 85c2,-3 7,-18 8,-23 3,-7 5,-16 8,-24 2,-5 15,-46 16,-47 0,-2 -1,-2 -4,-2l-160 0c-55,0 -111,0 -166,0 -8,23 -19,49 -28,72 -1,4 -3,8 -4,12 -1,2 -5,10 -5,12l335 0z"/>
    <path class="fil24" d="M1806 695c-4,0 -8,-3 -9,-5 -5,-4 1,-15 7,-18 3,-1 8,-1 11,1 1,2 -7,19 -9,22zm-5 10c-2,5 -6,8 -13,8 -9,0 -10,-5 -14,-6 -2,4 -3,11 -5,15 9,6 32,9 41,-1 11,-10 14,-21 19,-35 2,-3 9,-26 9,-28l-17 0 -2 4c-3,-2 -4,-3 -10,-4 -10,-1 -20,5 -24,12 -1,2 -2,3 -3,5 -11,19 -4,32 19,30z"/>
    <path class="fil24" d="M1632 703c8,0 57,1 60,0l4 -11 -42 0c0,-2 4,-10 5,-13l38 0 4 -11 -38 0 5 -11 41 0c1,-2 3,-9 3,-11 -6,0 -53,0 -57,0l-23 57z"/>
    <path class="fil24" d="M1727 669c7,-3 10,2 8,9 -1,5 -5,11 -9,13 -7,2 -12,-3 -9,-10 2,-5 5,-11 10,-12zm14 -8c-7,-2 -11,-6 -22,-3 -7,2 -12,9 -15,14 -3,5 -6,16 -3,23 5,11 22,8 34,8l9 0 22 -57 -19 0c-1,2 -5,14 -6,15z"/>
    <path class="fil24" d="M1858 694c-16,0 -11,-18 -3,-23 4,-3 8,-2 12,-1 0,4 -7,19 -9,24zm-13 9l27 0c1,-4 15,-41 16,-45l-17 0 -1 3c-2,0 -4,-1 -9,-2 -8,-2 -15,-1 -20,5 -6,8 -4,9 -7,19 -3,7 -6,13 1,18 4,2 5,2 10,2z"/>
    <path class="fil24" d="M1912 663l1 -5 -20 0 -17 45 20 0c6,-7 6,-29 24,-34 7,-2 10,3 14,4l2 -17c-14,-1 -18,5 -24,7z"/>
    <path class="fil24" d="M1748 703l20 0c3,-6 5,-13 8,-20 2,-4 2,-7 4,-11 1,-3 4,-8 4,-11l-19 0c-3,7 -5,13 -8,21 -2,5 -8,18 -9,21z"/>
    <path class="fil25" d="M1727 669c-5,1 -8,7 -10,12 -3,7 2,12 9,10 4,-2 8,-8 9,-13 2,-7 -1,-12 -8,-9z"/>
    <path class="fil23" d="M1806 695c2,-3 10,-20 9,-22 -3,-2 -8,-2 -11,-1 -6,3 -12,14 -7,18 1,2 5,5 9,5z"/>
    <path class="fil25" d="M1858 694c2,-5 9,-20 9,-24 -4,-1 -8,-2 -12,1 -8,5 -13,23 3,23z"/>
    <path class="fil24" d="M1768 658c3,1 12,1 15,0 5,-2 7,-9 5,-11 -3,-3 -25,-5 -20,11z"/>
    <path class="fil26" d="M1836 711l-1 2c-1,-1 -1,-1 -2,-1 0,0 0,0 0,0 -1,0 -1,0 -1,0 0,1 0,1 1,1 0,0 0,0 0,0l1 1c1,0 1,0 2,1 0,0 0,1 0,1 0,1 0,1 -1,2 0,0 -1,1 -2,1 -1,0 -2,-1 -3,-2l1 -1c1,0 1,0 1,1 1,0 1,0 1,0 0,0 1,0 1,0 0,0 0,-1 0,-1 0,0 0,0 -1,-1l-1 0c-1,-1 -2,-2 -2,-3 0,0 1,-1 1,-1 1,-1 1,-1 2,-1 1,0 1,0 2,0 0,1 0,1 1,1zm3 5c0,0 0,0 0,1 1,0 1,0 1,1 0,0 0,0 -1,0 0,1 0,1 0,1 -1,0 -1,0 -1,-1 -1,0 -1,0 -1,0 0,-1 0,-1 1,-1 0,-1 0,-1 1,-1zm9 -6l2 0 0 9 -2 0 0 -1c-1,0 -1,0 -2,0 0,1 0,1 -1,1 -1,0 -2,-1 -3,-2 0,0 -1,-1 -1,-3 0,-1 1,-2 1,-3 1,-1 2,-1 3,-1 1,0 1,0 1,0 1,0 1,1 2,1l0 -1zm-3 2c0,0 -1,0 -1,1 -1,0 -1,1 -1,1 0,1 0,2 1,2 0,1 1,1 1,1 1,0 2,0 2,-1 1,0 1,-1 1,-2 0,0 0,-1 -1,-1 0,-1 -1,-1 -2,-1zm8 4c0,0 0,0 1,1 0,0 0,0 0,1 0,0 0,0 0,0 -1,1 -1,1 -1,1 -1,0 -1,0 -1,-1 0,0 0,0 0,0 0,-1 0,-1 0,-1 0,-1 0,-1 1,-1zm13 -9l2 0 0 12 -2 0 0 -1c0,0 -1,0 -1,0 0,1 -1,1 -1,1 -1,0 -2,-1 -3,-2 -1,0 -1,-1 -1,-3 0,-1 0,-2 1,-3 1,-1 2,-1 3,-1 0,0 1,0 1,0 0,0 1,1 1,1l0 -4zm-2 5c-1,0 -1,0 -2,1 0,0 0,1 0,1 0,1 0,2 0,2 1,1 1,1 2,1 1,0 1,0 2,-1 0,0 0,-1 0,-2 0,0 0,-1 0,-1 -1,-1 -1,-1 -2,-1zm14 3l-6 0c0,1 0,1 1,1 0,1 1,1 1,1 1,0 2,0 2,-1l2 1c-1,1 -1,1 -2,1 0,1 -1,1 -2,1 -1,0 -2,-1 -3,-2 -1,0 -1,-1 -1,-3 0,-1 0,-2 1,-3 1,-1 2,-1 3,-1 1,0 2,0 3,1 1,1 1,2 1,4l0 0zm-2 -2c0,0 0,0 0,-1 -1,0 -1,0 -2,0 0,0 -1,0 -1,0 -1,0 -1,1 -1,1l4 0zm16 -1l-1 1c-1,0 -1,-1 -1,-1 -1,0 -1,0 -1,0 -1,0 -2,0 -2,1 -1,0 -1,1 -1,1 0,1 0,2 1,2 0,1 1,1 2,1 0,0 1,-1 2,-1l1 1c-1,1 -2,2 -3,2 -2,0 -3,-1 -4,-2 -1,0 -1,-1 -1,-3 0,0 0,-1 1,-2 0,0 0,-1 1,-1 1,-1 2,-1 3,-1 0,0 1,0 2,1 0,0 1,0 1,1zm3 4c1,0 1,0 1,1 0,0 0,0 0,1 0,0 0,0 0,0 0,1 0,1 -1,1 0,0 0,0 -1,-1 0,0 0,0 0,0 0,-1 0,-1 0,-1 1,-1 1,-1 1,-1zm2 -6l2 0 3 5 2 -5 2 0 -4 9 -1 0 -4 -9zm11 6c0,0 0,0 1,1 0,0 0,0 0,1 0,0 0,0 0,0 -1,1 -1,1 -1,1 0,0 -1,0 -1,-1 0,0 0,0 0,0 0,-1 0,-1 0,-1 0,-1 1,-1 1,-1z"/>
   </g>
   <g>
    <path class="fil27" d="M263 1150c-2,1 -6,4 -8,1 -3,-4 0,-7 3,-8 1,1 4,5 5,7zm-5 -17c0,-1 1,-2 2,-2 4,0 3,4 0,5 -1,-1 -2,-2 -2,-3zm6 7c2,-2 5,-3 4,-8 0,-8 -12,-9 -16,-3 -2,5 1,7 2,10 -7,4 -8,11 -4,16 7,7 16,-1 17,-1 1,1 4,6 7,3 2,-3 -2,-5 -3,-8 1,-1 3,-2 3,-4 1,-2 0,-3 -2,-4 -3,-1 -3,3 -5,4l-3 -5z"/>
    <path class="fil27" d="M180 1157c2,-1 1,-3 1,-9 0,-2 0,-5 0,-7 1,-2 3,-2 4,-2 2,1 1,0 1,1 3,2 1,12 1,15 1,3 4,3 6,2 1,-2 1,-5 1,-7 0,-6 1,-16 -8,-17 -3,0 -4,1 -6,3 -5,-2 -4,-5 -12,-1 -8,-6 -6,7 -6,9 0,3 0,6 0,9 0,3 1,4 3,5 2,0 2,0 3,-2 2,-4 0,-10 1,-16 4,-3 6,0 6,5 0,3 0,5 0,7 0,2 0,3 0,3 1,3 2,3 5,2z"/>
    <path class="fil27" d="M336 1139c7,-2 8,12 2,13 -6,2 -8,-11 -2,-13zm12 11c1,-3 1,-7 -2,-12 -1,-2 -3,-4 -5,-4 -5,-1 -6,0 -9,2 -4,-3 -6,-3 -6,4 0,5 0,10 0,15 0,3 -2,11 2,12 5,1 4,-7 4,-11 3,1 4,2 8,2 4,-1 6,-4 8,-8z"/>
    <path class="fil27" d="M403 1155c1,2 2,3 4,3 1,-1 2,-1 2,-2 1,-4 3,-8 4,-12 0,2 3,13 5,13 4,2 4,-2 5,-4 1,-4 4,-10 5,-15 0,-3 -1,-5 -3,-4 -3,0 -5,9 -6,13 -2,-3 -2,-13 -6,-13 -3,0 -3,3 -4,5 -1,3 -2,5 -2,8 -3,-5 -2,-12 -6,-13 -3,-1 -4,2 -3,5 1,6 4,11 5,16z"/>
    <path class="fil28" d="M225 1125c-1,3 -1,12 -1,17 0,3 0,5 0,8 0,4 -1,6 2,7 2,1 2,1 4,0 3,-4 -1,-13 2,-17 1,-1 4,-2 6,0 2,3 -1,14 2,17 2,2 5,1 5,-2 1,-5 1,-9 0,-13 -1,-5 -2,-8 -7,-8 -4,-1 -5,0 -7,1 -1,-3 2,-15 -6,-10z"/>
    <path class="fil27" d="M357 1145c0,-4 2,-7 5,-6 4,1 3,5 3,8 0,2 0,9 1,10 4,3 6,-1 6,-4 0,-6 1,-14 -3,-17 -4,-5 -10,-2 -12,-1 0,-6 1,-11 -3,-12 -3,0 -3,4 -3,6l0 23c0,9 6,6 6,2l0 -9z"/>
    <path class="fil28" d="M381 1143c0,-5 9,-5 9,0l-9 0zm0 5c3,0 11,0 14,0 4,-1 1,-8 0,-10 -4,-6 -13,-7 -18,0 -5,6 -3,15 3,18 5,4 19,1 16,-6 -4,-1 -5,2 -9,2 -3,1 -6,-1 -6,-4z"/>
    <path class="fil28" d="M307 1143c0,-5 9,-6 10,0l-10 0zm-3 -6c0,0 0,0 -1,1 -4,5 -3,14 2,18 7,5 22,0 17,-6 -4,-1 -5,2 -8,2 -4,1 -6,-1 -7,-4l13 0c8,0 1,-15 -9,-15 -2,1 -5,2 -7,4z"/>
    <path class="fil27" d="M284 1134l-1 1c-1,-1 -1,-1 -4,-1 -2,3 -2,1 -2,5 0,9 -2,20 5,18 3,-1 2,-9 2,-13 0,-6 6,-6 7,-3 2,3 0,12 1,15 1,2 4,2 5,1 2,-2 1,-5 1,-7 0,-11 1,-19 -14,-16z"/>
    <path class="fil28" d="M146 1140c4,-5 13,6 13,-1 0,-5 -9,-6 -13,-5 -4,1 -9,6 -5,11 3,3 13,3 12,6 -2,2 -5,2 -7,1 -2,-1 -2,-3 -4,-3 -2,0 -2,1 -3,3 -1,5 13,8 19,3 3,-2 4,-9 -7,-12 -2,-1 -4,0 -5,-3z"/>
    <path class="fil27" d="M112 1142c-8,3 3,27 11,24 8,-2 -3,-27 -11,-24z"/>
    <path class="fil27" d="M211 1134c-2,0 -4,0 -4,2 -1,3 1,3 3,4 2,5 -1,13 2,16 5,4 12,0 5,-4l0 -12c3,-1 5,0 5,-3 0,-3 -2,-3 -5,-3 0,-3 1,-7 -3,-8 -4,0 -3,4 -3,8z"/>
    <path class="fil27" d="M85 1127c-12,3 8,13 18,10 2,-1 4,-3 2,-5 -2,-4 -14,-7 -20,-5z"/>
    <path class="fil29" d="M198 1140c0,3 0,14 1,16 1,2 4,2 5,0 1,-1 1,-5 1,-8 0,-4 1,-13 -2,-14 -4,-1 -12,1 -5,6z"/>
    <path class="fil27" d="M85 1152c-3,4 0,4 3,3 4,-1 7,-3 10,-5 2,-1 6,-4 7,-7 1,-2 1,-3 -1,-3 -5,0 -10,3 -13,6 -3,2 -5,3 -6,6z"/>
    <path class="fil27" d="M110 1132c6,0 12,-16 9,-22 -4,-1 -6,5 -8,8 -1,4 -3,10 -1,14z"/>
    <path class="fil28" d="M117 1133c4,4 17,0 15,-4 -1,-3 -15,-2 -15,4z"/>
    <path class="fil30" d="M200 1125c-2,1 -3,2 -1,5 0,1 3,2 5,1 3,-3 0,-9 -4,-6z"/>
   </g>
   <g>
    <path class="fil31" d="M847 1144c0,1 6,18 7,21 0,1 1,3 1,3l10 0c1,0 8,-23 9,-24l0 24 10 0 0 -32c0,-3 -1,-4 -3,-4 -4,0 -9,0 -13,0l-8 23c0,-1 -1,-3 -1,-3l-5 -14c-1,-2 -1,-4 -2,-6 -4,0 -9,0 -13,0 -2,0 -2,2 -2,4l0 32 10 0 0 -24z"/>
    <path class="fil31" d="M902 1156c-1,-2 -1,-9 -1,-11 1,-4 3,-4 7,-5 3,0 7,0 10,0 9,0 8,4 8,9 0,7 1,10 -6,10 -4,0 -8,0 -11,0 -3,0 -7,0 -7,-3zm2 13l20 0c1,-1 3,-1 4,-1 3,-1 6,-3 8,-6 1,-4 1,-13 1,-17 0,-6 -1,-10 -6,-12 -5,-3 -12,-2 -17,-2 -6,0 -12,-1 -17,1 -6,3 -6,7 -6,13 0,4 -1,13 1,17 2,6 10,6 12,7z"/>
    <path class="fil32" d="M702 1140l30 0 0 -8 -37 0c-2,0 -3,1 -3,3l0 29c0,3 1,4 4,4l36 0 0 -9 -30 0 0 -6 30 0 0 -7 -30 0 0 -6z"/>
    <path class="fil31" d="M749 1140c4,0 8,0 12,0 8,0 9,-1 9,3 0,3 -1,4 -3,4 -5,0 -13,0 -18,0l0 -7zm22 15c3,0 4,-1 6,-2 1,-1 2,-3 2,-4 2,-4 2,-8 0,-12 -2,-4 -4,-5 -8,-5l-27 0c-3,0 -5,0 -5,2 0,1 0,31 0,34l10 0 0 -13 9 0c1,0 1,0 1,1 3,3 6,6 8,9 2,3 2,3 4,3 3,0 8,0 11,0 0,-1 -10,-13 -11,-13z"/>
    <path class="fil33" d="M643 1132c1,-1 3,-2 4,-2 2,-1 3,-2 4,-2 17,-9 29,-12 49,-16 3,-1 7,-1 10,-2 2,0 11,-1 11,-2 0,0 -4,0 -4,0 -23,0 -47,4 -68,10 -13,3 -27,8 -38,13 -6,3 -14,6 -19,10 -1,0 -1,0 -2,1 12,0 24,0 35,0 2,0 2,0 3,-1 2,-1 4,-2 5,-3 2,-1 3,-2 5,-3 2,-1 3,-2 5,-3z"/>
    <path class="fil31" d="M802 1169l12 0c1,-1 14,1 15,-11 1,-2 1,-23 1,-26l-11 0c0,6 0,13 0,19 0,3 0,6 -3,7 -3,2 -14,1 -17,0 -3,-1 -3,-3 -3,-7 0,-6 0,-13 0,-19l-11 0c0,3 0,24 1,27 1,11 14,9 16,10z"/>
    <path class="fil31" d="M643 1132l0 10 17 0 0 26 11 0c1,-1 1,-25 1,-26l16 0 0 -10 -45 0z"/>
   </g>
  </g>
 </g>
</svg>
