<?xml version="1.0" encoding="UTF-8"?>
<!DOCTYPE svg PUBLIC "-//W3C//DTD SVG 1.0//EN" "http://www.w3.org/TR/2001/REC-SVG-20010904/DTD/svg10.dtd">
<!-- Creator: CorelDRAW X8 -->
<svg xmlns="http://www.w3.org/2000/svg" xml:space="preserve" width="2036px" height="1366px" version="1.0" style="shape-rendering:geometricPrecision; text-rendering:geometricPrecision; image-rendering:optimizeQuality; fill-rule:evenodd; clip-rule:evenodd"
viewBox="0 0 2036 1366"
 xmlns:xlink="http://www.w3.org/1999/xlink">
 <defs>
  <style type="text/css">
   <![CDATA[
    .str0 {stroke:#E6E6E6;stroke-width:3.54331}
    .fil2 {fill:none}
    .fil14 {fill:#FEFEFE}
    .fil13 {fill:#858789}
    .fil20 {fill:#004B8D}
    .fil8 {fill:#0056B8}
    .fil10 {fill:#00BBFF}
    .fil5 {fill:#0176BF}
    .fil7 {fill:#102A83}
    .fil11 {fill:#10374E}
    .fil6 {fill:#474F50}
    .fil9 {fill:#89D329}
    .fil17 {fill:black;fill-rule:nonzero}
    .fil1 {fill:#004A90;fill-rule:nonzero}
    .fil18 {fill:#004B8D;fill-rule:nonzero}
    .fil16 {fill:#0E99D6;fill-rule:nonzero}
    .fil0 {fill:#959291;fill-rule:nonzero}
    .fil4 {fill:#CE1041;fill-rule:nonzero}
    .fil19 {fill:#ED2327;fill-rule:nonzero}
    .fil3 {fill:#FEBE10;fill-rule:nonzero}
    .fil12 {fill:url(#id1)}
    .fil15 {fill:url(#id2);fill-rule:nonzero}
   ]]>
  </style>
      <clipPath id="id0">
       <path d="M745 250l22 0 0 22 -22 0 0 -22zm0 0z"/>
      </clipPath>
  <radialGradient id="id1" gradientUnits="userSpaceOnUse" gradientTransform="matrix(-1.01015 -1.01015 1.01015 -1.01015 1868 2658)" cx="1272.5" cy="683" r="560.787" fx="1272.5" fy="683">
   <stop offset="0" style="stop-opacity:1; stop-color:#00AFEF"/>
   <stop offset="0.101961" style="stop-opacity:1; stop-color:#316DA7"/>
   <stop offset="0.501961" style="stop-opacity:1; stop-color:#355A9C"/>
   <stop offset="0.74902" style="stop-opacity:1; stop-color:#3B4694"/>
   <stop offset="0.988235" style="stop-opacity:1; stop-color:#2F3165"/>
   <stop offset="1" style="stop-opacity:1; stop-color:#2F3165"/>
  </radialGradient>
  <linearGradient id="id2" gradientUnits="userSpaceOnUse" x1="1171.1" y1="771.785" x2="1273.61" y2="594.217">
   <stop offset="0" style="stop-opacity:1; stop-color:#3B4694"/>
   <stop offset="0.0117647" style="stop-opacity:1; stop-color:#3B4694"/>
   <stop offset="0.188235" style="stop-opacity:1; stop-color:#3374B8"/>
   <stop offset="0.270588" style="stop-opacity:1; stop-color:#317ABE"/>
   <stop offset="0.54902" style="stop-opacity:1; stop-color:#00AFEF"/>
   <stop offset="0.701961" style="stop-opacity:1; stop-color:#D5EFFC"/>
   <stop offset="1" style="stop-opacity:1; stop-color:#00AFEF"/>
  </linearGradient>
 </defs>
 <g id="Capa_x0020_1">
  <metadata id="CorelCorpID_0Corel-Layer"/>
  <g id="_2486059120944">
   <g>
    <path class="fil0" d="M387 209c0,-2 -1,-3 -3,-3l-4 0c-2,0 -3,1 -3,3l0 45c0,2 1,3 3,3l4 0c2,0 3,-1 3,-3l0 -45z"/>
    <path class="fil0" d="M393 210l0 2c0,1 0,2 1,2l30 0c2,0 3,-1 3,-3l0 -3c0,-2 -1,-3 -3,-3 0,0 -29,3 -30,3 -1,0 -1,1 -1,2z"/>
    <path class="fil0" d="M368 257c-7,0 -12,-5 -12,-12l0 -18 -2 0c-1,0 -2,-1 -2,-2l0 -3c0,-1 1,-2 2,-2l2 0 0 -11c0,-2 1,-3 3,-3l4 0c2,0 3,1 3,3l0 11 7 0c1,0 2,1 2,2l0 3c0,1 -1,2 -2,2l-7 0 0 17c0,3 2,6 6,6l0 0c2,0 3,1 3,2l0 3c0,1 -1,2 -3,2l-4 0 0 0z"/>
    <path class="fil0" d="M298 227c5,0 9,3 9,7l-17 0c0,-4 4,-7 8,-7l0 -8c-12,0 -18,9 -18,19 0,11 7,20 18,20 8,0 16,-4 18,-11 0,-1 -1,-2 -2,-2l-6 0c-1,0 -2,0 -2,1 -2,2 -4,4 -8,4 -5,0 -8,-4 -8,-9l24 0c2,0 3,-1 3,-3 0,-10 -6,-19 -19,-19l0 8z"/>
    <path class="fil0" d="M409 227c5,0 8,3 9,7l-18 0c1,-4 5,-7 9,-7l0 -8c-12,0 -19,9 -19,19 0,11 8,20 19,20 8,0 16,-4 18,-11 0,-1 -1,-2 -2,-2l-6 0c-1,0 -2,0 -2,1 -2,2 -4,4 -8,4 -5,0 -8,-4 -9,-9l25 0c2,0 3,-1 3,-3 0,-10 -6,-19 -19,-19l0 8z"/>
    <path class="fil0" d="M348 207l-79 0c-1,0 -3,1 -3,3l0 31c0,0 -17,-31 -18,-33 0,-1 -2,-2 -5,-2l-6 0c-2,0 -3,1 -3,3l0 45c0,2 1,3 3,3l4 0c2,0 3,-1 3,-3l0 -32c0,0 17,31 18,33 1,1 3,2 5,2l6 0c2,0 3,-1 3,-3l0 -40 72 0c1,0 2,-1 2,-2l0 -3c0,-2 -1,-2 -2,-2z"/>
    <path class="fil0" d="M335 226c4,0 6,1 7,4 1,1 1,1 3,1l4 0c1,0 2,-1 2,-2 0,-5 -6,-10 -16,-10 -9,0 -16,4 -16,12 0,5 5,8 10,10 3,0 7,1 9,2 2,1 4,1 4,3 0,3 -3,4 -6,4 -4,0 -7,-1 -8,-4 0,-1 -1,-1 -3,-1l-5 0c0,0 -1,1 -1,2l0 0c0,6 7,11 17,11 6,0 16,-3 16,-12 0,-6 -3,-9 -9,-11 -3,0 -8,-2 -9,-2 -2,-1 -4,-1 -4,-3 0,-3 2,-4 5,-4z"/>
    <path class="fil0" d="M161 193c1,0 2,1 2,1 0,1 -1,2 -2,2 -1,0 -2,-1 -2,-2 0,0 1,-1 2,-1z"/>
    <path class="fil0" d="M140 191c1,0 1,0 1,1 0,1 0,1 -1,1 -1,0 -2,0 -2,-1 0,-1 1,-1 2,-1z"/>
    <path class="fil0" d="M124 226l-1 -1c2,-2 4,-4 4,-6 1,-1 3,-1 2,0 0,2 -3,5 -5,7z"/>
    <path class="fil0" d="M111 194c-4,1 -4,5 -2,7 3,2 7,0 7,-4 4,0 6,-3 6,-6 1,-2 1,-5 -1,-6 -2,-1 -4,-1 -5,2 -3,0 -7,2 -5,7l-2 -1c-2,-4 1,-9 6,-8 1,-2 4,-4 8,-2 3,2 3,6 0,9 2,4 -1,7 -6,7 0,5 -5,6 -8,3 -2,-1 -3,-3 -3,-5 -1,-1 -1,-3 -2,-4 -2,-2 -4,-2 -4,-2 0,-4 -4,-7 -8,-5 -2,-2 -4,-2 -5,0 -1,1 -1,3 1,5 0,3 3,6 7,5 0,2 2,4 4,4l0 1c-2,0 -3,1 -5,2 -4,0 -8,2 -7,6 -4,0 -4,4 -3,5 2,2 5,2 6,-1 3,1 6,-1 7,-4 3,0 4,-1 5,-4l1 0c0,3 -1,6 -5,6 0,3 -4,5 -7,4 -2,3 -5,4 -8,1 -3,-2 -2,-7 2,-8 0,-4 2,-7 8,-6 0,0 0,-2 2,-2 -1,0 -2,-1 -2,-2 -4,1 -7,-3 -7,-6 -3,-2 -3,-6 -1,-8 1,-2 4,-2 7,0 5,-3 10,0 10,6 3,0 5,2 5,5 0,-1 1,-2 2,-2l2 1z"/>
    <path class="fil0" d="M118 188l1 0c-1,3 -4,7 -6,9l-1 -1c1,-3 5,-7 6,-8z"/>
    <path class="fil0" d="M96 205l0 1c-2,2 -5,4 -7,5l-1 -1c2,-1 6,-4 8,-5z"/>
    <path class="fil0" d="M100 196l-1 1c-2,-2 -7,-6 -8,-8l1 -1c2,1 7,6 8,8z"/>
    <path class="fil0" d="M96 237c0,2 0,3 1,5 1,0 3,4 5,6 -3,0 -8,2 -11,3 -1,0 -2,1 -2,1 -1,1 -1,2 -1,4 -1,1 0,2 0,3 0,1 0,5 1,7 2,2 3,3 4,4 0,0 1,0 2,0 3,0 5,1 6,2 0,1 1,1 2,1 2,0 4,-1 7,-2 0,0 1,-1 3,-2 1,-1 9,-7 12,-9 2,1 5,2 7,2 1,0 1,0 2,0 1,0 2,0 3,-1 3,0 6,-1 7,-1 3,0 10,1 11,1 2,0 5,-1 6,-1 1,0 5,-1 8,-3 3,-1 10,-6 11,-7 0,0 1,-1 1,-1 0,0 0,-1 0,-1 0,0 0,-4 0,-4 0,0 2,-2 3,-3 0,0 0,0 0,0 -1,-1 -1,-4 -1,-7l-1 0c-1,3 -2,6 -3,8 -2,1 -7,2 -9,4l1 0c2,-1 3,-1 5,-1 2,0 3,0 3,1 0,0 -1,1 -1,1 0,0 0,1 0,1 -3,2 -5,5 -8,6 -2,1 -4,2 -8,3 0,0 -2,1 -3,1 -1,0 -7,0 -11,0 -3,0 -11,0 -13,1 -1,0 -1,1 -3,1 -2,0 -5,-2 -7,-2 0,0 -1,0 -1,0 -2,1 -5,5 -6,4 -1,2 -5,3 -6,5 0,-1 1,-7 1,-8 0,-1 0,-1 0,-1 -1,-2 -5,-4 -7,-4 -1,0 -1,0 -1,-1l-4 -1 -3 1 4 1 -5 3c1,0 6,-1 6,-2 1,0 1,0 2,0 0,1 2,1 3,1 1,1 2,2 3,3 0,0 0,0 0,2 0,1 0,2 -1,3 0,2 -1,4 -1,4 -1,1 -2,2 -2,2 -1,0 -2,1 -4,1 -1,0 -1,0 -2,-1 -1,-2 -4,-3 -7,-3 -2,-1 -4,-5 -4,-8 0,-2 1,-5 1,-6 3,-1 10,-3 13,-4 0,0 2,-1 4,-1 4,0 8,4 11,6 0,-1 1,-2 3,-2 3,0 5,3 6,6l1 -1c0,-2 -1,-4 -2,-5 -1,-1 -3,-2 -5,-2 0,0 -1,1 -2,1 -2,0 -3,-1 -5,-3 -1,-1 -4,-2 -7,-2 -1,0 -2,0 -3,0 -2,0 -2,-1 -3,-2 -1,0 -2,-2 -3,-2 0,-1 -1,-2 -1,-3l-2 -2z"/>
    <path class="fil0" d="M98 239c1,1 1,1 2,2 0,0 1,1 2,1 1,1 2,1 3,2 1,0 3,0 4,0 2,0 4,0 6,1 1,0 1,1 2,2 1,0 5,0 7,0 5,0 9,0 12,-1l-1 -1c-2,0 -8,1 -10,1 -4,0 -8,-1 -8,-3 0,-1 2,-2 4,-2 2,0 6,1 6,1 1,1 1,1 2,0l1 0c-2,-1 -8,-3 -10,-3 -1,0 -2,0 -3,1 0,1 -3,2 -6,2 -2,0 -5,-1 -6,-1 -1,0 -3,-1 -4,-2 -2,-2 -3,-3 -4,-5 -1,0 -1,-1 -1,-1 0,-1 0,-1 0,-1 1,0 1,0 1,1 2,2 5,3 8,4 1,0 1,0 2,0 1,0 3,-1 3,-1l-1 -2c0,0 -1,0 -1,0 -5,0 -10,-2 -11,-5 0,-1 0,-1 0,-1 0,-1 0,-1 0,-2 0,1 1,1 2,1 1,1 4,3 5,3 1,0 2,-1 3,-1 1,-1 2,-1 3,-1 4,0 7,2 10,3l3 -1c-3,-2 -10,-5 -13,-5 -2,0 -4,2 -6,2 -1,0 -6,-2 -6,-4 0,-2 3,-3 8,-3 -1,1 -2,2 -2,4l1 0c8,-11 16,-19 23,-23 3,-2 3,-3 4,-5 2,-4 4,-7 8,-7 1,0 3,1 4,2l2 0 -2 2 2 1c-3,1 -8,5 -10,10 -4,0 -5,3 -6,5 -1,2 -3,3 -4,4l-16 10 3 1 13 -10c3,-2 4,-3 5,-4 1,-3 3,-5 6,-5 1,0 2,1 3,2l3 1 -3 1 2 2c-6,2 -10,6 -12,15l2 0c0,-3 1,-5 3,-8 3,0 7,0 11,0 10,0 18,1 22,2l-1 -3c-5,0 -12,-1 -21,-1 -3,0 -6,0 -10,0 2,-2 5,-4 10,-5l-3 -2 3 -2 -5 -2c0,0 -1,-1 -3,-1 2,-5 7,-8 12,-10l-4 -1 4 -2 -5 -2c-2,-1 -3,-2 -5,-2 -5,0 -8,4 -10,8 -1,2 -1,3 -3,4 -4,3 -9,7 -14,12 -2,-2 -7,-7 -9,-10 0,0 -1,2 -1,2 1,0 7,6 9,9 0,0 0,0 0,1 -3,0 -9,1 -11,0l-1 2c1,0 7,0 10,-1 -1,1 -2,2 -2,3 -8,1 -13,3 -13,6 0,0 0,1 0,1 0,1 -1,2 -1,2 -1,1 -1,1 -1,1 0,1 2,2 2,3 0,0 -1,1 -1,1 -1,1 -1,1 -1,2l3 4 2 2z"/>
    <path class="fil0" d="M195 212c0,1 -1,1 -1,2l-1 -2c4,-5 15,-8 22,-9l0 -3c-1,1 -2,1 -3,1 -1,1 -2,1 -3,1 -1,0 -2,-1 -2,-1 -1,-1 0,-3 3,-5l-3 -2c-1,2 -3,5 -5,6 -1,2 -3,2 -4,1 -1,0 -1,0 -2,-2 1,-2 2,-5 3,-7l-3 0c0,3 -1,5 -3,8 -2,2 -4,4 -6,6l-2 -2c2,-1 5,-3 6,-5 2,-3 4,-6 4,-9l7 0c-1,2 -3,5 -3,7 -1,1 -1,2 0,3 1,0 2,-1 3,-2 2,-2 4,-6 5,-7l6 5c-3,1 -5,3 -5,4 1,0 2,0 4,0 2,-1 3,-1 4,-2l0 7c-2,0 -7,1 -11,2 1,2 4,2 6,2l-1 7c-5,-2 -9,-4 -15,-4l2 -1c4,0 9,1 11,2l1 -2c-3,0 -5,-2 -7,-3 -1,1 -3,2 -5,3l-2 1z"/>
    <path class="fil0" d="M172 232l2 -4c-2,-2 -4,-5 -6,-8l-1 -3c-4,-6 -3,-10 -5,-13 -1,-2 -9,-1 -10,0l2 -4 -4 0 3 -4c1,-1 1,-1 1,-3 1,-2 3,-6 9,-6 6,0 8,5 11,7 4,3 8,7 11,10l2 2c2,2 4,4 6,6l1 2c8,11 17,33 22,43 0,1 0,2 1,3 -3,-2 -6,-4 -10,-6l-2 -1c-1,-1 -2,-2 -3,-3l-2 -2c-1,-1 -3,-2 -4,-3l4 23c0,2 2,1 3,0 0,-1 1,-1 0,-3l-3 -17 2 2 3 14c1,1 1,2 3,2 1,0 1,-1 1,-2l-4 -11 2 1 4 11c1,2 0,3 -2,3 -1,0 -3,-1 -4,0 -1,0 -2,2 -3,3 -1,1 -3,1 -3,-1l-5 -26c-2,-3 -5,-5 -8,-8 -1,-1 -2,-1 -3,-2l-1 0c-1,-1 -1,-1 -2,-1 -1,2 -2,3 -3,4 -1,1 -2,1 -3,1 0,0 0,0 -1,0 0,0 0,-1 -1,-1 0,-1 -1,-1 -1,-2 -1,-1 -2,-3 -3,-5 -1,-1 -1,-3 -2,-3 0,0 0,0 0,0 -1,0 -1,2 -1,2l-2 0c1,-1 1,-3 1,-3 0,-1 0,-2 -1,-2 -1,0 -1,1 -2,3l-1 1c0,-3 1,-6 3,-6 2,0 3,2 4,3 1,2 4,6 5,7l1 1c1,1 1,2 1,2 1,1 1,1 2,0 0,0 1,-1 2,-2 1,-1 2,-2 2,-2 1,0 2,1 4,2 -6,-8 -12,-16 -14,-22 -1,-3 1,-4 2,-1 2,7 10,18 15,24 7,7 19,18 26,22 -1,-2 -2,-6 -4,-9 -9,-5 -19,-15 -23,-23l2 0c4,7 14,17 19,19 -5,-11 -12,-25 -17,-31 -7,-7 -14,-13 -17,-16 -4,-3 -5,-7 -10,-7 -4,0 -6,3 -7,6 0,0 0,1 -1,1l-2 3 4 -1 -2 3c0,0 7,-1 9,2 2,3 1,7 5,14 1,3 6,9 7,10l-3 6 -1 -1z"/>
    <path class="fil0" d="M108 233l-1 -1c1,0 2,-1 3,-2 1,0 1,0 2,0 1,0 2,1 3,1 1,1 3,2 4,2 1,0 1,0 2,0 1,0 2,0 3,0 0,0 0,0 1,-1 0,-1 1,-1 3,-2 1,0 2,-1 4,-1 1,0 3,1 3,1 0,0 -1,1 -1,1 -1,0 -4,0 -5,1 -1,0 -2,1 -2,2 0,1 2,1 3,2 1,0 2,0 3,0 1,0 3,0 5,-1 2,0 4,-1 5,-1l1 2c-3,1 -5,1 -8,2 -1,0 -3,0 -4,0 -2,0 -4,-1 -6,-1 -2,-1 -3,-2 -4,-2 -1,0 -3,1 -4,1 -1,1 -2,2 -4,3 -1,0 -2,0 -4,0 -1,0 -2,0 -2,0l2 -1c0,0 1,0 1,0 0,0 0,0 1,0 1,-1 1,-1 2,-1 1,-1 1,-1 1,-1 1,-1 1,-1 0,-2 0,0 -1,-1 -1,-1 -1,-1 -1,-1 -3,-1 -1,0 -2,0 -3,1z"/>
    <path class="fil0" d="M136 234c0,0 -1,-1 -1,-1 0,-1 1,-2 2,-2 2,-1 4,-2 6,-2 1,0 2,0 3,0 1,0 2,0 3,0 1,0 2,0 2,0 1,0 2,0 2,0 2,0 4,-1 6,-1l0 2c-2,1 -5,2 -8,2 -1,0 -2,0 -4,0 -2,0 -4,-1 -5,-1 -1,0 -4,1 -6,3z"/>
    <path class="fil0" d="M134 243l-2 -1c3,-1 8,-3 10,-3 2,-1 5,-1 6,-1 0,1 2,3 3,3 1,0 2,-1 3,-1 1,-1 2,-1 3,-1 1,-1 3,-2 5,-2 0,-1 2,-2 2,-2l2 1c-1,2 -1,3 -2,5 0,0 -1,1 -1,1 0,1 -1,2 -2,2 -2,1 -3,2 -5,3 -1,1 -2,1 -3,2l-1 -1c2,-1 4,-3 6,-4 0,-1 1,-1 2,-2 0,0 0,0 1,-1 0,0 1,-2 1,-3 -1,1 -3,2 -4,3 -2,0 -4,2 -5,2 -1,1 -2,1 -3,1 -1,0 -2,-1 -2,-2 -1,-1 -2,-1 -4,-1 -3,-1 -7,1 -10,2z"/>
    <path class="fil0" d="M148 236c0,0 0,-1 -1,-2 0,0 1,0 1,0 1,0 3,0 4,0 4,0 5,-1 6,-2 1,0 1,-1 4,-1 2,0 4,1 5,1l-1 2c0,-1 -2,-1 -3,-1 -1,0 -2,0 -2,0 -1,1 -1,1 -2,2 0,0 -1,1 -2,1 -1,0 -2,1 -4,1 -3,0 -4,-1 -5,-1z"/>
    <path class="fil0" d="M127 250l1 -1c2,1 4,1 5,1 1,0 2,0 2,0 1,0 6,-3 8,-4 1,0 2,0 2,0 1,0 1,0 1,0 1,1 5,6 5,7 3,-1 6,-3 8,-4 2,-2 4,-5 5,-6 1,-1 2,-2 2,-2 2,-1 7,-1 9,-1l-1 2c-4,0 -6,1 -7,1 0,1 -1,1 -2,2 -1,2 -2,4 -3,4 1,1 2,2 4,2 4,0 6,-2 7,-3l1 0c-1,1 -2,2 -3,3 -1,1 -3,2 -4,2 -1,0 -5,-1 -6,-1 -4,1 -10,3 -12,4 0,0 0,0 -1,0 -1,0 -4,0 -6,0 -1,0 -2,0 -3,0l-2 -2c2,1 3,1 4,1 3,0 5,-1 6,-1 1,0 1,-1 1,-1 -1,-1 -1,-2 -2,-3 0,0 -1,-1 -2,-1 0,0 0,-1 -2,0 -1,0 -4,2 -6,3 -1,0 -1,1 -3,0 -1,0 -5,-1 -6,-2z"/>
    <path class="fil0" d="M137 207c1,0 1,1 1,2 0,0 0,1 -1,1 -1,0 -1,-1 -1,-1 0,-1 0,-2 1,-2z"/>
   </g>
   <g>
    <g id="surface1">
     <g>
     </g>
     <g style="clip-path:url(#id0)">
      <g>
       <path class="fil1" d="M748 269c0,1 0,1 1,2l-4 0c1,-1 1,-1 1,-2l4 -15c1,-1 1,-1 0,-2 0,-1 0,-1 -1,-2l7 0 5 11 2 -9c1,-1 1,-1 0,-2l4 0c-1,1 -1,1 -1,2l-6 20c0,0 -8,-16 -8,-16l-4 13z"/>
      </g>
     </g>
     <path class="fil2" d="M745 250l22 0 0 22 -22 0 0 -22zm0 0z"/>
     <path class="fil1" d="M772 258c0,-1 0,-1 0,-1l5 -1c0,0 -2,7 -2,9 -1,3 0,3 1,3 1,0 2,0 2,-1l2 -9c1,-1 0,-1 0,-1l6 -1 -3 11c-1,1 -1,2 0,2l-5 2c0,0 0,-1 0,-2 -1,1 -3,2 -5,2 -2,0 -4,-1 -3,-6 1,-1 2,-7 2,-7z"/>
     <path class="fil1" d="M794 259l-2 0 8 -6 -1 4 3 0 0 2 -3 0 -2 7c-1,3 1,3 1,3 1,0 1,0 2,-1 -1,1 -2,3 -4,3 -4,0 -5,-2 -4,-5l2 -7z"/>
     <path class="fil1" d="M816 260c-1,0 -1,0 -2,0l-2 9c0,1 0,1 0,2l-6 0c1,-1 1,-1 1,-2l3 -11c0,-1 0,-1 -1,-1l6 -1 0 3c1,-2 2,-3 3,-3 1,0 1,0 1,0l-1 6c0,-1 -1,-2 -2,-2z"/>
     <path class="fil1" d="M828 253c0,-2 1,-3 3,-3 1,0 2,1 1,3 0,1 -2,2 -3,2 -1,0 -2,-1 -1,-2zm0 16c0,1 0,1 0,2l-6 0c1,-1 1,-1 1,-2l3 -11c1,-1 0,-1 0,-1l6 -1 -4 13z"/>
     <path class="fil1" d="M840 259l-2 0 8 -6 -1 4 3 0 0 2 -4 0 -1 7c-1,3 1,3 1,3 1,0 1,0 2,-1 -1,1 -2,3 -4,3 -4,0 -5,-2 -4,-5l2 -7z"/>
     <path class="fil1" d="M857 253c0,-2 2,-3 3,-3 1,0 2,1 2,3 -1,1 -2,2 -3,2 -2,0 -2,-1 -2,-2zm0 16c0,1 0,1 1,2l-6 0c0,-1 1,-1 1,-2l3 -11c0,-1 -1,-1 -1,-1l6 -1 -4 13z"/>
     <path class="fil1" d="M875 263c1,-3 1,-5 0,-5 -2,0 -3,2 -4,6 -1,4 0,5 1,5 1,0 2,-1 3,-6zm-4 8c-5,0 -5,-4 -5,-7 1,-4 5,-8 9,-8 5,0 6,3 5,7 -1,5 -5,8 -9,8z"/>
     <path class="fil1" d="M898 269c0,1 0,1 0,2l-6 0c1,-1 1,-1 2,-2l1 -7c1,-1 1,-3 -1,-3 0,0 -1,1 -2,1l-2 9c0,1 0,1 0,2l-6 0c1,-1 1,-1 1,-2l3 -11c1,-1 0,-1 0,-1l5 -1 0 2c1,-1 3,-2 4,-2 3,0 4,2 3,5l-2 8z"/>
     <path class="fil1" d="M635 220l15 -23 11 0c-1,0 -2,1 -2,2l-9 34c-1,1 0,2 0,2l-11 0c1,0 2,-1 2,-2l8 -28c0,-1 0,-1 0,-1l-1 1 -21 31 -4 -30 0 -2c0,0 0,1 -1,2l-7 27c0,1 0,2 1,2l-7 0c2,0 2,-1 3,-2l9 -34c0,-1 -1,-2 -1,-2l11 0 4 23z"/>
     <path class="fil1" d="M672 211c-3,0 -5,3 -7,7l9 0c1,-4 0,-7 -2,-7zm10 16c-2,4 -10,9 -17,9 -7,0 -11,-5 -9,-14 2,-8 9,-14 17,-14 6,0 10,4 8,13l-17 0c0,0 0,1 0,1 -1,4 0,10 5,10 6,0 10,-2 13,-5z"/>
     <path class="fil1" d="M688 228c-1,2 1,3 3,3 1,0 3,0 4,-1l2 -9c-2,1 -3,1 -5,2 -2,1 -3,2 -4,5zm1 -18c2,-1 6,-2 10,-2 3,0 9,1 7,9 0,1 -4,14 -4,14 0,2 -1,2 1,3l-7 2c-1,-1 -2,-1 -2,-3 -2,1 -5,3 -8,3 -5,0 -6,-4 -5,-7 0,-2 2,-5 5,-7 3,-1 9,-2 11,-4 1,0 1,-1 1,-2 1,-3 0,-5 -2,-5 -4,0 -8,4 -10,7l3 -8z"/>
     <path class="fil1" d="M720 232c1,0 2,-1 3,-1l5 -18c-1,-1 -1,-2 -3,-2 -4,0 -8,6 -9,10 -2,9 2,11 4,11zm20 -36l-9 32c0,1 0,2 1,3l-11 6 1 -4c-1,1 -4,3 -7,3 -6,0 -10,-5 -7,-14 2,-8 9,-14 16,-14 3,0 4,0 5,1l2 -8c1,-2 0,-2 -1,-3l10 -2z"/>
     <path class="fil1" d="M735 239l7 -28c1,-1 0,-2 -1,-2l11 -3c0,0 0,1 -1,2l-7 29c-6,22 -19,21 -25,20 0,0 12,-3 16,-18z"/>
     <path class="fil1" d="M764 221c-3,0 -6,5 -8,11 -2,7 0,11 3,11 3,0 6,-3 8,-11 1,-6 1,-11 -3,-11zm1 -3c9,0 12,6 10,14 -2,8 -9,14 -17,14 -10,0 -11,-8 -10,-14 2,-7 9,-14 17,-14z"/>
     <path class="fil1" d="M804 227l-5 16c0,1 0,2 1,3l-11 0c1,-1 2,-2 3,-3l3 -15c1,-2 1,-5 -2,-5 -2,0 -4,1 -5,2l-5 18c0,1 0,2 1,3l-11 0c1,-1 2,-2 2,-3l9 -32c0,-2 -1,-2 -2,-2l10 -3 -3 16c1,-2 5,-4 9,-4 5,0 7,3 6,9z"/>
     <path class="fil1" d="M854 219l-2 9c-1,-3 -2,-7 -5,-7 -2,0 -4,1 -4,3 -1,2 1,3 3,4 3,2 6,4 5,10 -2,6 -9,8 -13,8 -3,0 -5,-1 -7,-2l2 -9c0,4 1,8 5,8 3,0 5,-2 5,-4 0,-2 -1,-2 -4,-5 -4,-3 -4,-5 -4,-8 1,-4 5,-8 12,-8 2,0 4,0 7,1z"/>
     <path class="fil1" d="M870 221c-3,0 -6,5 -8,11 -2,7 0,11 3,11 3,0 6,-3 8,-11 1,-6 1,-11 -3,-11zm1 -3c9,0 12,6 10,14 -2,8 -9,14 -17,14 -10,0 -11,-8 -10,-14 2,-7 9,-14 17,-14z"/>
     <path class="fil1" d="M909 227l-4 16c0,1 0,2 1,3l-11 0c1,-1 2,-2 2,-3l4 -14c1,-2 2,-6 -3,-6 -1,0 -3,1 -4,2l-5 18c0,1 0,2 1,3l-11 0c1,-1 2,-2 2,-3l6 -21c0,-2 0,-2 -1,-3l10 -2 -1 5c2,-2 5,-4 9,-4 4,0 7,3 5,9z"/>
     <path class="fil1" d="M832 227l-4 16c-1,1 0,2 0,3l-10 0c1,-1 2,-2 2,-3l4 -14c0,-2 1,-6 -3,-6 -2,0 -4,1 -5,2l-5 18c0,1 0,2 1,3l-10 0c1,-1 1,-2 2,-3l5 -21c1,-2 0,-2 -1,-3l10 -2 -1 5c3,-2 6,-4 9,-4 5,0 7,3 6,9z"/>
     <path class="fil3" d="M628 270c42,0 75,-19 91,-30 -15,7 -51,21 -84,21 -20,0 -35,-9 -35,-19 0,-4 2,-8 7,-12 -10,4 -17,11 -17,19 0,12 17,21 38,21z"/>
     <path class="fil4" d="M879 194c24,3 39,12 39,23 0,2 -1,4 -2,6 7,-4 11,-9 11,-15 0,-14 -20,-24 -52,-25 -32,-1 -76,9 -118,29 11,-5 73,-24 122,-18z"/>
     <path class="fil1" d="M934 223l2 -4 1 0 0 5 -1 0 0 -4 0 0 -1 4 -1 0 -2 -4 0 0 0 4 0 0 0 -5 1 0 1 4zm-3 -3l-2 0 0 4 -1 0 0 -4 -1 0 0 -1 4 0 0 1z"/>
    </g>
   </g>
   <g id="_2486059100944">
    <path class="fil5" d="M692 695c9,1 19,0 28,0 15,0 14,1 24,-5l0 25 39 0 1 -24 4 2c6,3 11,2 19,2 7,0 22,0 28,1 -4,9 -18,23 -27,28 -31,20 -66,17 -96,-5 -4,-3 -4,-4 -7,-7 -5,-5 -10,-10 -13,-17zm-1 -34l0 31c-4,-3 -6,-11 -7,-16 -5,-18 -3,-48 6,-58 4,3 41,37 26,43 -3,1 -20,0 -25,0zm146 -43c2,1 1,0 3,3 4,9 7,25 7,35 -1,10 -5,33 -11,38l0 -33c-8,0 -22,2 -28,-2 -2,-15 17,-29 29,-41zm-128 8c16,1 21,-3 29,6 5,5 11,14 14,21l0 -53 23 0 -1 53c2,-2 5,-8 7,-11 3,-4 4,-6 8,-10 4,-3 4,-6 11,-6 6,0 12,0 18,0 -1,1 -4,4 -6,5 -5,6 -12,12 -14,22 -3,20 16,16 30,17l1 17c-7,1 -31,1 -36,-1 -3,-1 -9,-5 -10,-7 -5,-5 -6,-8 -8,-10l0 38 -23 0 0 -38c-4,5 -10,14 -18,17 -6,2 -28,1 -36,1l0 -18c13,1 34,4 30,-16 -1,-7 -4,-11 -7,-15 -7,-10 -8,-7 -12,-12zm-19 -10c20,-41 77,-59 119,-31 10,6 25,21 28,32 -11,0 -22,0 -33,0 -7,0 -9,-1 -13,3 -2,2 -7,7 -8,8l0 -38 -39 0 0 37c-12,-9 -6,-10 -22,-10 -9,0 -23,0 -32,-1zm158 3c-1,-1 -8,-14 -13,-20 -4,-6 -10,-12 -16,-16 -6,-5 -13,-9 -21,-12 -12,-6 -16,-5 -23,-7l-2 0c0,-1 0,0 -1,-1 -7,3 -28,-3 -58,15 -33,22 -49,64 -37,104 19,60 93,81 142,44 12,-9 24,-23 31,-43 11,-35 -2,-56 -2,-64z"/>
    <path class="fil6" d="M661 792c0,-2 0,-8 1,-11 0,-2 -1,-6 3,-7 5,0 4,4 4,8 0,1 -1,9 -1,10l8 0c1,-2 1,-8 1,-10 0,-4 0,-7 4,-8 4,0 3,4 3,8 0,3 -1,6 -1,10l9 0c0,-4 0,-7 1,-10 0,-4 1,-7 -1,-10 -3,-4 -9,-4 -12,-2 -2,1 -2,2 -3,3 -1,-1 -1,-1 -1,-2 -1,0 -1,-1 -2,-1 -1,-1 -3,-1 -4,-1 -3,0 -5,1 -7,2 0,1 0,1 -1,1l0 -2 -8 0 -2 22 9 0zm-17 -26l8 0 1 -6c-3,0 -5,0 -7,0 -1,0 -1,0 -1,1l-1 5zm162 15c0,0 3,-6 3,-7l-10 0c-1,1 -4,6 -4,7l11 0zm-154 -11l-8 0 -2 22 8 0 2 -22zm110 0c-2,0 -3,0 -5,0 -1,1 -1,2 -3,3 0,-4 1,-4 -1,-3l-7 0 0 0c0,5 -1,12 -1,17 0,1 0,4 0,5l8 0c1,-2 1,-4 1,-5 0,-8 -1,-11 7,-10l1 -7zm129 0c-2,0 -3,0 -4,0 -2,1 -2,2 -3,3 -1,-4 0,-3 -3,-3 -2,0 -4,0 -6,0l0 1c0,4 0,7 0,11 -1,1 -1,9 -1,10l8 0c1,-2 1,-8 1,-10 1,-6 4,-5 8,-5l0 -7zm-119 -10l-8 0 -3 32 8 0 3 -32zm78 0l-8 0 -2 32 0 0 8 0 0 0 2 -32zm-229 0l-9 0 -3 32 10 0 2 -32zm9 14c1,-1 1,-2 2,-2l3 -4c1,-2 7,-8 7,-8l-11 0 -11 14 10 18 11 0c0,-1 -8,-14 -9,-16 -1,-1 -1,-2 -2,-2zm235 7c0,3 -1,6 -4,7 -4,0 -4,-4 -2,-6 2,-1 3,-1 6,-1zm-5 -5c0,-2 1,-4 3,-3 3,0 2,3 2,5 -1,0 -16,-2 -15,8 0,6 8,7 12,4 1,0 1,0 2,-1 0,1 0,2 0,2l1 1 7 0c0,-5 1,-8 1,-13 0,-2 0,-4 0,-6 -3,-5 -10,-5 -15,-4 -4,1 -6,3 -6,7l8 0zm-131 2c0,-1 1,-5 4,-5 1,0 2,1 3,2 0,0 1,2 1,3l-8 0zm15 4c0,0 0,0 0,-1 1,-3 0,-6 -1,-8 -2,-2 -4,-4 -8,-4 -7,-1 -13,3 -14,9 -1,3 -1,7 1,9 1,3 3,4 7,5 3,0 7,0 10,-1 2,-1 4,-3 5,-6l-8 0c0,0 0,0 0,0 -1,4 -9,4 -7,-3l15 0zm28 -12c0,1 1,2 1,4l6 17c1,1 1,1 0,2 0,1 -2,4 -2,6 -1,1 -2,3 -2,4l8 0 15 -33 -7 0 -6 13 -4 -13 -9 0zm129 -10l-8 0 -2 32 8 0 1 -12 7 12 10 0c0,-1 -3,-6 -4,-7 0,-1 -4,-6 -4,-6l5 -6c1,-1 3,-3 4,-4l-10 0 -8 10 1 -19zm-195 14c4,-1 5,3 5,6 0,4 -1,7 -4,7 -4,1 -5,-3 -5,-6 1,-3 1,-6 4,-7zm-2 -14l-8 0 -3 32 9 0 0 -3c1,0 1,1 2,2 2,1 5,1 8,1 3,-1 5,-4 6,-7 3,-7 0,-16 -7,-16 -2,0 -4,0 -5,1 -1,1 -2,1 -2,2 -1,1 0,0 -1,1l1 -13zm126 21c0,1 0,2 -1,3 -1,2 -4,2 -7,2 -3,-2 -3,-6 -3,-10 0,-5 1,-8 4,-9 1,-1 3,-2 5,-1 2,0 3,2 3,4l9 0c0,-10 -10,-12 -18,-11 -7,2 -11,8 -12,16 -1,10 3,16 12,17 4,0 9,0 12,-2 3,-2 5,-5 5,-9l-9 0z"/>
   </g>
   <g id="_2486059099504">
    <path class="fil7" d="M1841 620c1,5 9,13 11,13 2,0 2,-8 2,-13 0,-4 1,-6 -1,-7 -3,6 -10,7 -12,7zm0 -3c6,0 12,-5 12,-9 0,-2 -1,-4 -3,-4 0,0 0,1 0,2 0,3 -5,7 -10,7 -2,0 -3,1 -3,2 0,1 2,2 4,2zm-1 -7c-1,0 -2,0 -3,-1 0,-1 0,-3 -1,-3 1,0 2,0 3,0 2,0 5,-2 7,-2 1,0 2,1 2,2 0,2 -6,4 -8,4zm-132 47c2,0 1,-13 5,-13 0,0 1,1 1,2 0,3 -2,7 -2,9 0,1 1,2 1,2 2,0 4,-14 6,-14 1,0 2,1 2,2 0,3 -4,11 -4,13 0,0 0,1 0,1 2,0 5,-7 6,-10 0,-2 1,-2 2,-2 0,0 1,0 1,2 0,3 -3,10 -6,15 -2,4 -5,10 -5,13 0,2 0,3 3,5 -4,0 -6,0 -7,-3 -6,12 12,11 5,22 -1,-2 -10,-4 -10,-16 0,-10 9,-16 9,-20 0,-1 0,-1 -1,-2 -2,-2 -2,-3 -3,-3 -1,0 -3,3 -1,5 0,1 0,1 0,2 0,1 -2,6 -4,6 -2,0 -3,-5 -3,-12 0,-6 1,-13 3,-13 1,0 1,0 1,1 0,1 0,2 0,5 0,2 0,3 1,3zm90 -58c1,0 1,2 2,3 0,1 0,1 0,1 1,0 2,-3 3,-3 1,0 4,3 9,3 7,0 14,-5 14,-13 0,-9 -6,-14 -15,-14 -4,0 -6,2 -8,2 -1,0 -2,-2 -3,-2 0,0 -1,0 -1,1 0,1 0,3 0,3 -2,0 -7,-4 -7,-3 0,2 3,6 3,7 0,1 -3,2 -3,3 0,1 4,1 4,3 0,2 -4,3 -4,4 0,1 4,0 4,2 0,1 -3,5 -3,6 0,0 0,0 0,0 1,0 4,-3 5,-3zm-76 87c0,-1 1,-2 2,-2 2,-1 3,0 3,2 0,1 -1,2 -2,2 -1,0 -2,-1 -3,-2zm-6 2c0,2 2,3 4,3 1,0 2,0 2,0 1,1 2,3 4,2 2,0 4,-2 4,-4 0,0 0,-1 -1,-1l1 0c2,-1 3,-2 3,-4 0,-3 -2,-4 -4,-4 -1,0 -1,0 -2,1 0,-2 -2,-3 -4,-3 -2,0 -4,2 -3,4 0,1 0,1 0,1l-1 0c-2,1 -3,2 -3,5zm132 -109c0,1 0,2 1,2 1,0 2,-1 2,-2 0,0 -1,-1 -2,-1 -1,0 -1,1 -1,1zm-33 56c0,2 1,3 2,3 1,0 3,-1 3,-3 0,-1 -2,-2 -3,-2 -1,0 -2,1 -2,2zm0 8c0,1 1,3 3,3 1,0 2,-2 2,-3 0,-2 -1,-3 -2,-3 -2,0 -3,1 -3,3zm-9 5c0,2 2,4 4,4 3,0 4,-2 4,-4 0,-2 -1,-4 -4,-4 -2,0 -4,2 -4,4zm2 -8c0,1 2,2 3,2 1,0 2,-1 2,-2 0,-2 -1,-3 -2,-3 -1,0 -3,1 -3,3zm-7 4c0,2 1,3 2,3 1,0 2,-1 2,-3 0,-1 -1,-2 -2,-2 -1,0 -2,1 -2,2zm6 -14c0,3 2,4 4,4 2,0 3,-1 3,-4 0,-2 -1,-3 -3,-3 -2,0 -4,1 -4,3zm4 -7c0,1 1,2 2,2 2,0 3,-1 3,-2 0,-1 -1,-2 -3,-2 -1,0 -2,1 -2,2zm-10 6c0,1 1,2 2,2 1,0 2,-1 2,-2 0,-1 -1,-2 -2,-2 -1,0 -2,1 -2,2zm-1 8c0,2 2,3 4,3 2,0 3,-1 3,-3 0,-2 -1,-4 -3,-4 -2,0 -4,2 -4,4zm-7 3c0,2 1,4 3,4 2,0 4,-2 4,-4 0,-1 -2,-3 -4,-3 -2,0 -3,2 -3,3zm2 -8c0,1 1,2 2,2 1,0 3,-1 3,-2 0,-1 -2,-2 -3,-2 -1,0 -2,1 -2,2zm-8 87c0,1 1,2 2,2 2,0 3,-1 3,-2 0,-1 -1,-2 -3,-2 -1,0 -2,1 -2,2zm-64 -98c0,1 1,3 3,3 1,0 2,-2 2,-3 0,-1 -1,-2 -2,-2 -2,0 -3,1 -3,2zm-3 -5c0,1 1,2 3,2 1,0 2,-1 2,-2 0,-1 -1,-2 -2,-2 -2,0 -3,1 -3,2zm3 58c2,0 4,-2 4,-6l0 -6c0,-2 1,-5 2,-7 0,1 0,2 0,3 0,5 3,8 3,13 0,2 -1,3 -2,3 -2,0 -1,-1 -2,-1 0,0 0,1 0,1 0,2 1,4 3,4 2,0 4,-2 4,-5 0,-5 -4,-11 -4,-16 0,-3 0,-5 1,-6 0,12 10,20 10,25 0,1 -1,2 -2,2 -1,0 -2,-1 -2,-2 0,0 0,0 0,0 -1,0 -2,1 -2,3 0,2 2,4 5,4 3,0 5,-3 5,-5 0,-7 -12,-16 -12,-26 0,-2 0,-5 1,-7 -7,5 -10,12 -10,18 0,5 0,7 -3,7 -1,0 -1,-1 -2,-1 0,0 0,1 0,2 0,2 1,3 3,3zm102 -59c3,0 5,-1 5,-2 0,0 -1,0 -1,0 -1,0 -3,0 -6,-1 -2,0 -4,-1 -5,-1 0,0 0,0 0,0 0,2 3,4 7,4zm-13 -8c1,0 4,1 9,-1 0,-1 1,-1 1,-1 2,0 2,3 4,3 1,0 3,-2 4,-2 2,0 5,6 5,9 0,3 -5,4 -10,4 -8,0 -13,-6 -13,-11 0,0 0,0 0,-1zm-88 89c-2,1 -5,4 -5,9 0,5 6,14 16,14 9,0 11,-6 11,-10 0,-9 -5,-15 -12,-15 -4,0 -8,3 -8,7 0,4 3,10 10,10 3,0 5,-2 5,-5 0,-3 -2,-6 -6,-6 -1,0 -1,0 -1,1 0,2 2,3 4,3 1,0 1,0 1,0 0,0 0,1 0,1 0,1 -1,2 -3,2 -3,0 -6,-2 -6,-6 0,-2 2,-4 5,-4 5,0 8,5 8,10 0,4 -2,6 -7,6 -9,0 -14,-8 -12,-17zm-6 -64c-1,0 -4,2 -4,5 0,2 2,4 4,4 1,0 2,-1 2,-1 -2,-2 -2,-3 -2,-5 0,-1 0,-2 0,-3zm-14 1c0,0 0,0 0,1 0,3 1,4 3,4 2,0 3,-1 5,-3 -1,0 -2,0 -2,0 -3,0 -5,0 -6,-2zm-2 5c0,5 1,7 3,7 2,0 5,-2 8,-4 -2,0 -4,1 -6,1 -2,0 -4,-1 -5,-4zm90 93c2,0 2,0 3,0 1,0 1,0 1,1 0,1 -3,2 -8,2 -3,0 -5,-1 -5,-3 -3,2 -8,4 -12,4 -12,0 -15,-6 -19,-7 -3,-2 -8,1 -14,-6 1,0 2,0 3,0 6,0 8,-2 8,-7 0,0 0,-1 0,-1 2,0 6,3 7,8 0,1 2,1 4,1 2,0 5,-1 5,-4 7,-1 12,-5 13,-10 2,1 5,3 6,4 1,0 2,0 4,0 1,0 4,0 6,1 0,-1 0,-2 2,-2 1,0 1,2 1,3 1,1 2,1 2,2 0,1 -1,2 -1,2 -1,0 -1,0 -1,0 -1,0 -1,9 -6,9 -4,0 -7,-3 -9,-7 0,-1 -1,-2 -2,-2 -1,0 -1,0 -3,1 -3,4 -8,7 -15,7 -2,0 -3,0 -4,0 0,0 0,0 0,0 0,0 2,2 7,2 10,0 12,-6 14,-6 0,0 1,0 2,1 2,6 7,7 10,7l1 0zm-34 -119c4,0 6,4 6,7 0,2 -1,4 -2,4 0,0 0,-1 0,-2 0,-2 -1,-2 -1,-2 -1,0 -2,2 -2,4 0,2 0,3 1,3 1,0 1,0 2,0 0,2 -2,5 -5,5 -5,0 -7,-6 -8,-10 -3,3 -6,6 -11,6 -5,0 -7,-4 -7,-7 0,-1 0,-4 1,-4 2,0 1,5 3,5 1,0 2,0 3,-2 1,-2 1,-3 1,-4 0,-1 -1,-2 -2,-2 -1,0 -2,0 -2,1 1,-5 4,-7 8,-7 5,0 7,4 7,9 0,1 0,1 0,2 2,-3 5,-6 8,-6zm-15 -35c0,0 -2,-1 -4,-1 -4,0 -3,3 -6,3 -3,0 -3,-3 -6,-3 -3,0 -5,1 -5,1 0,1 3,0 3,2 0,2 -6,3 -6,4 0,1 0,1 1,1 1,0 3,-1 5,-1 0,0 1,0 1,1 0,2 -3,4 -3,6 0,0 0,0 1,0 1,0 3,-3 5,-3 3,0 1,7 3,7 1,0 1,-7 3,-7 2,0 4,5 5,5 0,0 1,-1 1,-1 0,-1 -2,-4 -2,-5 0,-1 1,-2 2,-2 1,0 3,1 4,1 0,0 1,0 1,-1 0,-1 -6,-3 -6,-4 0,-2 3,-2 3,-3zm84 116c-1,0 -8,9 -12,9 -1,0 -2,-2 -2,-3 0,-1 0,-2 2,-2 10,-2 8,-10 17,-10 5,0 10,3 10,11 0,8 -11,17 -13,17 -1,0 -3,-2 -3,-3 0,0 1,-1 2,-1 5,-3 9,-8 9,-11 0,0 -1,-1 -1,-1 -1,0 -6,10 -10,10 -4,0 -7,-3 -7,-4 0,-3 9,-7 9,-10 0,-2 0,-2 -1,-2zm7 -3c-1,0 -2,0 -2,2 0,2 1,3 2,3 1,0 1,1 2,1 2,0 3,-1 3,-2 0,-2 -3,-4 -5,-4zm-77 -107c0,1 4,3 5,3 1,0 2,-1 2,-2 0,-2 -1,-2 -3,-2 -1,0 -4,0 -4,1zm6 12c0,-4 -9,-10 -9,-13 0,0 0,0 0,0 0,-2 8,-4 8,-5 0,-1 -1,-1 -2,-1 -5,0 -13,2 -13,4 0,2 7,7 7,9 0,1 -1,1 -1,1 -2,0 -7,-2 -9,-2 -1,0 -1,0 -1,1 0,3 3,9 3,10 0,0 0,1 0,1 -1,0 -6,-6 -8,-6 0,0 0,0 0,2l0 2c0,1 -1,2 -1,2 -2,0 -2,-4 -4,-4 -1,0 -2,7 -3,7 -2,0 0,-8 -2,-8 -2,0 -4,6 -5,6 -1,0 -1,-1 -1,-1 0,-2 1,-5 1,-7 0,0 0,-1 -1,-1 -2,0 -6,3 -7,3 0,0 -1,0 -1,0 0,-2 7,-6 7,-8 0,-2 -9,-1 -9,-3 0,-2 6,-4 6,-6 0,-2 -7,-2 -10,-2 -4,0 -6,0 -6,1 0,2 8,2 8,3 0,2 -8,5 -8,7 0,2 12,0 12,2 0,2 -10,11 -10,14 0,0 0,1 1,1 3,0 11,-6 13,-6 1,0 1,1 1,2 0,1 -1,4 -1,5 0,2 1,3 2,3 2,0 4,-4 5,-4 2,0 1,11 4,11 2,0 3,-12 5,-12 2,0 3,3 4,3 2,0 1,-6 3,-6 2,0 8,8 11,8 1,0 1,-1 1,-2 0,-3 -5,-10 -5,-12 0,-1 1,-1 1,-1 3,0 9,3 12,3 2,0 2,-1 2,-1zm81 68c1,-3 2,-5 4,-9 -2,-1 -7,-3 -7,-6 0,-4 5,-7 6,-7 0,0 1,0 1,1 0,2 -1,5 -1,7 0,2 1,3 2,3 1,0 3,-3 3,-7 0,-6 -5,-8 -7,-8 -1,0 -4,3 -11,3 -13,0 -16,-13 -16,-18 0,-1 0,-1 0,-1 1,0 2,2 6,2 2,0 4,-1 7,-1 7,0 10,5 15,12 2,1 8,4 8,11 0,7 -7,11 -8,18 2,-1 4,-5 7,-5 1,0 2,1 2,3 0,2 -2,6 -4,8 0,0 0,0 0,0 0,-2 -1,-4 -3,-4 -3,0 -4,3 -5,5 -2,-6 -4,-11 -9,-14 -4,-4 -11,-2 -11,-8 0,-2 1,-4 1,-6 0,-1 0,-1 0,-2 5,2 3,6 7,10 2,3 8,5 11,15 0,0 1,-1 1,-1 0,-9 -12,-18 -13,-21 7,1 8,2 11,11 1,2 3,6 3,9zm-127 -48c0,-1 0,-3 0,-4 0,-3 -1,-7 -5,-7 -2,0 -4,2 -4,4 0,5 5,7 9,7zm-5 14c-2,0 -4,-2 -4,-4 0,-1 1,-3 1,-3 1,0 1,0 1,1 0,3 2,4 4,5 0,0 0,0 0,0 0,1 -1,1 -2,1zm7 -5c0,1 -1,2 -2,2 -2,0 -3,-3 -3,-5 0,-1 0,-1 1,-1 1,0 1,0 1,0 1,0 1,1 1,2 1,1 2,1 2,2zm-2 -6c-1,0 -1,0 -1,0 -2,0 -5,0 -7,1 -6,4 -5,9 -6,11 0,0 0,0 0,0 0,1 1,1 1,1 1,0 1,0 1,0 2,0 3,1 6,1 1,0 3,0 5,-1 4,-2 6,-8 6,-9 0,-1 -1,0 -2,-2 -1,-1 0,-1 -1,-2 0,0 -1,0 -2,0zm6 9c-1,2 -3,4 -3,7 0,3 2,6 5,6 3,0 5,-3 5,-5 0,-4 -4,-7 -7,-8zm-13 -11c0,0 -1,1 -3,1 -3,0 -5,-2 -5,-4 0,-2 1,-4 3,-5 0,0 0,1 0,1 0,3 2,6 5,7zm106 34c0,-1 1,-2 2,-2 1,0 2,1 2,2 0,2 -1,3 -2,3 -1,0 -2,-1 -2,-3zm1 68c0,0 1,0 1,1 0,2 -1,3 -3,5 -1,1 -3,2 -6,2 0,-2 0,-3 0,-5 0,0 0,0 0,-1l1 0c5,0 7,-2 7,-2zm1 -6c0,0 0,-1 0,-1l0 -2c0,-1 -2,-2 -6,-2 -4,0 -7,1 -7,2l0 3c0,1 3,2 6,2 3,0 5,0 7,-2zm3 1c-2,1 -6,4 -11,4 -4,0 -5,-1 -6,-1 0,0 -1,0 -1,1 -2,2 -4,5 -4,8 0,3 2,5 6,5 11,0 19,-7 19,-13 0,-3 -2,-4 -3,-4zm2 -50c0,2 0,3 2,3 1,0 2,-1 2,-4 0,-2 0,-4 0,-5 0,0 0,0 0,0 1,0 2,2 3,2 1,0 2,-2 3,-2 0,0 0,1 0,1 0,0 -1,2 -1,3 0,1 3,1 3,2 0,0 -3,0 -5,1 -2,1 -3,2 -3,3 0,1 1,1 3,1 4,0 7,-2 8,-2 0,0 0,0 0,1 0,0 -2,2 -2,3 0,1 4,2 4,3 0,0 -1,0 -1,0 -1,0 -2,0 -3,0 0,0 0,0 -1,0 0,1 1,4 0,4 -1,0 -3,-7 -8,-7 0,0 -1,0 -1,1 0,3 3,5 5,7 1,0 2,1 2,1 0,1 -3,0 -3,1 0,2 0,3 0,4 0,0 0,1 0,1 -1,0 -3,-4 -4,-4 0,0 -2,2 -2,2 -1,0 -1,0 -1,0 0,-1 2,-4 2,-7 0,-2 0,-5 -1,-5 -2,0 -3,2 -4,5 -1,1 0,6 -1,6 -1,0 -1,-3 -2,-3 -1,0 -3,1 -4,1 0,0 0,0 0,0 0,-1 2,-3 2,-3 0,-1 -4,-1 -4,-2 0,-1 2,-1 3,-1 3,-1 7,-3 7,-6 0,-3 -3,-5 -5,-6 -1,-1 -2,-2 -2,-2 0,-1 1,-1 2,-1 0,0 1,0 1,0 0,-1 0,-2 0,-3 0,0 0,-1 1,-1 0,0 2,3 2,3 1,0 3,-2 3,-2 1,0 1,0 1,0 0,3 -1,5 -1,7zm-28 -17c0,5 7,2 7,9 0,0 0,2 0,3 0,1 0,2 1,2 1,0 1,0 1,-1 0,-1 0,-3 0,-3 0,-2 1,-3 2,-3 2,0 4,3 7,3 0,3 -8,2 -8,6 0,3 2,3 3,3 2,0 2,0 2,-1 0,-1 0,-1 0,-2 0,0 0,0 0,0 2,0 8,5 8,6 0,1 -7,3 -9,3 0,0 0,-1 0,-1 0,0 1,-2 1,-2 0,-1 -1,-1 -4,-1 -1,0 -2,0 -2,1 0,1 3,3 3,5 0,1 -1,2 -3,2 -1,0 -4,-2 -4,-4 0,-1 2,-3 2,-4 0,0 0,-1 -1,-1 -2,0 -3,6 -10,7 1,-1 2,-3 2,-5 0,-1 0,-2 0,-4 0,-2 1,-2 2,-2 2,0 3,3 4,3 1,0 2,-1 2,-2 0,-5 -9,-4 -9,-10 0,-2 1,-4 3,-7zm11 38c0,1 0,2 1,2 1,0 2,-1 2,-2 0,-1 -1,-3 -2,-3 -1,0 -1,1 -1,2 0,0 0,1 0,1zm-3 -7c6,1 9,5 9,10 0,3 -2,6 -5,6 -3,0 -5,-3 -5,-6 0,-2 2,-5 2,-7 0,-1 -1,-2 -1,-3zm-8 10c0,0 1,1 1,1 0,1 -1,2 -1,3 0,2 1,3 3,3 1,0 3,-1 3,-3 0,-2 -3,-4 -6,-4zm19 -4c1,0 1,1 1,2 0,1 -1,3 -1,5 0,2 1,3 4,3 2,0 4,-2 4,-4 0,-3 -3,-6 -8,-6zm-18 -3c3,0 4,1 4,2 0,1 -2,1 -3,1 -1,0 -1,0 -2,0 -2,0 -3,1 -4,2 1,0 2,0 2,2 0,3 -10,0 -10,9 0,5 5,10 12,10 4,0 7,-1 7,-3 0,-1 -2,0 -2,-1 0,-1 0,-1 0,-2 0,0 0,-1 0,-1 -1,0 -3,2 -8,2 -3,0 -6,-2 -6,-4 0,-1 0,-1 1,-1 0,0 1,0 1,0 0,0 0,0 0,-1 0,-1 0,-2 1,-2 2,0 4,4 12,4 3,0 8,-1 10,-3 0,7 -5,15 -16,15 -11,0 -17,-8 -17,-17 0,-9 7,-17 18,-17 2,0 4,1 4,2 0,2 -3,1 -4,3zm-43 -61c0,-1 0,-1 0,-1 -1,0 -1,1 -2,2 0,2 0,3 1,3 1,0 1,-2 1,-4zm-8 3c1,0 2,-1 3,-3 0,-1 0,-1 0,-2 0,-1 0,-3 -1,-3 -1,0 -2,5 -2,6 0,1 0,2 0,2zm10 5c1,0 3,-6 3,-9 0,-1 0,-2 0,-2 -2,0 -4,6 -4,9 0,1 1,2 1,2zm-14 -3c2,0 4,-11 4,-13 0,-1 0,-1 -1,-1 -2,0 -4,10 -4,13 0,0 0,1 1,1zm6 4c-3,0 -3,3 -3,9 -2,-4 -5,-8 -8,-8 -3,0 -4,2 -4,4 0,1 0,2 0,2 1,-1 2,-1 3,-1 2,0 5,2 7,5 -2,-1 -4,-1 -6,-1 -1,0 -2,0 -3,0 -2,1 -4,4 -4,7 0,1 0,2 0,2 2,-4 8,-6 11,-6 1,0 1,0 2,0 -2,2 -2,4 -3,6 0,1 0,1 -1,1 0,2 2,5 2,7 0,0 0,1 -1,1 0,2 3,4 3,6 0,0 0,1 0,1 0,1 3,3 3,4 1,1 1,1 1,1 1,0 3,-1 3,-2 0,-1 0,-1 -1,-1 -1,-1 -1,-3 -2,-4 0,0 -1,0 -1,-1 0,-1 0,-3 -1,-5 -1,0 -1,0 -1,-2 0,-1 1,-4 1,-5 -1,0 -1,0 -1,-1 0,-2 2,-3 2,-5 3,2 4,5 4,7 0,1 0,2 0,3 2,-1 6,-3 6,-7 0,-2 -1,-4 -8,-5 2,-1 5,-1 7,-1 4,0 6,1 7,4 0,-2 1,-3 1,-4 0,-3 -2,-5 -5,-5 -4,0 -7,2 -11,4 2,-3 3,-5 5,-5 0,0 0,0 1,0 -1,-2 -4,-5 -5,-5zm-38 -37c0,1 -4,5 -6,5 0,0 -1,0 -1,-1 0,-1 1,-3 2,-3 0,-1 2,-1 3,-1 1,0 2,0 2,0zm138 80c2,0 5,3 5,8 0,5 -2,10 -6,14 0,-8 -10,-6 -10,-12 0,-2 2,-4 4,-4 2,0 3,1 4,2 -1,-1 -2,-3 -2,-4 0,-2 2,-4 5,-4zm-44 -61c-1,-1 -3,-1 -3,-1 -3,0 -5,2 -5,4 0,-1 -1,-2 -1,-2 0,-3 2,-6 7,-6 3,0 5,2 5,2 1,0 2,-1 2,-1 1,0 1,1 1,2 0,2 -1,6 -4,8 -1,-1 -2,-2 -3,-3 0,0 -1,-1 -1,-1 0,-1 1,-1 2,-2zm-9 5c1,1 3,2 4,2 1,0 2,-1 2,-1 1,0 1,1 1,1 0,1 -1,2 -1,2 0,1 1,1 2,1 3,0 7,-2 7,-8 1,1 1,3 1,4 0,7 -4,9 -9,9 -3,0 -4,-1 -4,-1 -1,0 -1,2 -2,2 -2,0 -3,-3 -3,-6 0,-2 1,-4 2,-5zm-41 -18c0,2 7,13 8,13 2,0 3,-3 3,-4 0,-1 -1,-1 -1,-2 -1,-1 -8,-7 -10,-7 0,0 0,0 0,0zm85 -5c0,-4 -10,-5 -10,-6 0,0 6,-2 8,-2 -4,-6 -10,-5 -10,-6 0,-1 4,-2 9,-2 3,0 7,1 7,4 0,1 -1,3 -1,5 0,2 0,3 2,3 2,0 2,-2 2,-4 0,-2 0,-3 0,-4 0,-3 2,-4 4,-4 2,0 3,1 5,1 -1,1 -2,2 -2,3 0,3 2,4 2,9 0,10 -9,13 -20,13 -2,0 -6,0 -9,-1 0,0 0,0 0,0 0,-1 4,-1 4,-5 0,-2 -1,-3 -1,-3 0,-1 1,-1 1,-1 1,0 3,3 6,3 1,0 3,0 3,-3zm10 -5c0,5 -4,9 -11,10 1,0 2,0 2,0 8,0 11,-4 11,-7 0,-1 -1,-3 -2,-3zm-6 47c0,-1 -3,-1 -3,-5 0,0 0,-1 -1,-1 -1,0 0,3 -1,3 -3,0 -4,-5 -5,-5 0,0 -1,0 -1,1 0,0 1,1 1,1 0,1 -1,2 -1,2 -2,0 -3,-4 -5,-4 0,0 0,0 0,0 0,1 1,2 1,3 0,1 -4,1 -4,2 0,0 1,1 1,1 2,0 3,-1 4,-1 1,0 2,0 2,1 0,1 -2,2 -2,3 0,0 0,0 0,0 2,0 5,-3 7,-3 0,0 1,1 1,1 0,1 -2,2 -2,3 0,1 0,1 1,1 1,0 2,-3 4,-3 1,0 2,0 3,0 0,0 0,0 0,0zm-42 -45c0,-1 -2,-2 -2,-3 0,0 0,0 0,0 1,0 2,0 3,0 0,0 1,-3 1,-3 1,0 1,3 2,3 1,0 2,-1 3,-1 0,0 0,0 0,1 0,0 -2,2 -2,2 0,1 4,1 4,2 0,0 -4,0 -4,1 0,0 2,2 2,2 0,0 0,0 -1,0 0,0 -2,0 -2,0 -1,0 -2,2 -3,2 0,0 0,0 0,0l0 -3c0,0 0,0 0,0 -1,0 -3,0 -3,0 0,0 0,0 0,-1 0,0 2,-2 2,-2zm12 11c-5,0 -7,-2 -7,-3 0,0 0,-1 0,-1 2,0 5,2 6,2 0,0 0,0 0,0 0,-1 -1,-3 -1,-4 0,0 0,0 1,0 1,0 3,0 5,0 0,0 0,0 0,0 0,-2 -4,-4 -4,-5 0,-1 5,-2 5,-3 0,-1 -6,0 -6,-1 0,-1 1,-3 1,-3 0,0 0,-1 -1,-1 0,0 -3,2 -4,2 -1,0 -2,-1 -2,-1 0,-2 3,-3 6,-3 6,0 10,4 10,11 0,8 -6,10 -9,10zm-40 102c0,1 -1,2 -1,2 -1,-1 -3,-2 -3,-2 -7,0 -4,9 -11,9 -2,0 -3,0 -4,0 0,0 0,0 0,0 0,2 2,6 8,6 6,0 12,-4 12,-9 0,0 0,-1 -1,-2 1,0 1,-1 2,-1 1,0 1,1 2,1 1,0 2,0 2,-1 0,-1 -1,-2 -1,-2 0,0 0,-1 0,-2 0,-1 0,-2 -1,-2 -1,0 -1,1 -2,1 0,-1 0,-2 -2,-2 0,0 -1,1 -1,2 0,1 1,1 1,2zm-16 3c-2,0 -5,-2 -5,-3 0,-1 1,-2 2,-2 1,0 4,2 4,4 0,0 0,1 -1,1zm-17 -14c5,2 7,4 8,7 0,3 1,5 2,7 1,1 4,3 7,3 2,0 4,-1 4,-3 0,-2 -3,-7 -7,-7 -1,0 -1,0 -2,0 -1,0 -1,0 -2,0 -1,-1 -1,-6 -3,-8 -2,-3 -4,-4 -7,-4 -2,0 -4,1 -4,3 0,1 0,1 4,2zm30 -7c0,-2 -6,-3 -6,-7 0,-1 1,-2 2,-4 1,3 2,5 5,6 5,2 6,4 6,8 0,5 -4,12 -14,12 -7,0 -13,-7 -13,-13 0,-2 1,-3 2,-3 0,0 1,0 2,1 2,3 5,3 9,3 4,0 7,-1 7,-3zm0 4c-2,1 -3,1 -3,3 0,1 0,2 0,3 0,0 0,1 1,1 2,0 5,-4 5,-7 0,-1 0,-1 -1,-1 0,0 -1,1 -2,1zm-19 -29c0,-4 9,-6 9,-11 0,-1 0,-2 -1,-3 3,2 6,5 6,7 0,4 -4,6 -4,8 0,3 4,4 4,8 0,3 -4,6 -4,10 0,3 2,5 5,6 -1,0 -2,0 -3,0 -6,0 -12,-5 -12,-10 0,-3 1,-6 3,-8 2,2 3,3 5,3 0,0 1,-1 1,-2 0,-2 -9,-4 -9,-8zm0 0z"/>
    <path class="fil7" d="M1762 785c2,0 5,-1 7,-4 -1,-3 -2,-9 -2,-11 -1,-11 3,-21 8,-21 3,0 6,3 6,8 1,13 -3,19 -6,24 1,2 4,5 7,5 1,0 2,-1 3,-1 -1,-1 -1,-2 -1,-3 0,-8 5,-15 10,-15 3,0 5,5 5,8 0,3 -3,6 -7,9 0,1 2,1 3,1 6,0 10,-7 12,-14 1,-2 1,-3 3,-3 3,0 4,17 8,17 2,0 4,-4 4,-7 0,-2 -1,-2 -1,-5 0,-4 2,-7 4,-7 2,0 2,2 2,3 0,8 -5,21 -12,21 -6,0 -6,-10 -8,-10 -2,0 -5,10 -16,10 -2,0 -4,-1 -5,-3 -3,2 -5,3 -8,3 -4,0 -5,-4 -7,-4 -2,0 -4,4 -11,4 -5,0 -6,-7 -8,-7 -2,0 -4,7 -7,7 -5,0 -6,-12 -10,-12 -3,0 -13,12 -16,12 -1,0 -2,-1 -2,-2 0,-2 2,-6 2,-8 1,-3 2,-7 3,-8 0,-1 1,-2 2,-2 1,0 1,1 1,2 1,2 1,5 2,5 2,0 7,-10 10,-10 4,0 4,16 9,16 2,0 3,-2 4,-5 0,-4 1,-10 5,-10 2,0 3,6 1,10 0,6 4,7 6,7zm83 -10c0,-3 -2,-7 -6,-7 -5,0 -10,5 -10,13 0,7 4,9 9,9 7,0 11,-6 14,-11 1,3 2,11 4,11 1,0 2,-1 4,-4 3,-7 6,-16 11,-16 1,0 0,3 4,3 2,0 4,-1 4,-3 0,-3 -3,-5 -6,-5 -11,0 -13,16 -15,16 -3,0 -2,-12 -4,-12 -1,0 -2,2 -3,3 -1,5 -5,14 -11,14 -2,0 -4,-1 -4,-2 0,-2 9,-2 9,-9zm-67 -15c-1,-3 -1,-5 -3,-4 -2,0 -3,7 -3,14 0,5 1,5 2,5 1,0 4,-8 4,-15zm-19 -7c0,-1 -1,-3 -3,-3 -2,0 -4,3 -4,5 0,2 1,4 3,4 3,0 5,-3 4,-6zm35 23c0,-2 -1,-3 -2,-3 -1,0 -3,1 -3,4 0,3 1,4 1,5 3,-1 4,-4 4,-6zm44 -4c2,0 3,3 2,5 0,1 -2,3 -6,4 0,-2 -1,-9 4,-9zm-154 2c0,-4 1,-9 3,-15 1,-4 1,-5 5,-6 2,0 2,2 1,5 -1,7 -2,10 -1,18 0,8 4,11 8,11 6,0 9,-5 10,-12 1,-6 0,-9 -1,-11 0,-1 -1,-3 -1,-4 -1,-5 1,-7 3,-7 2,-1 3,0 4,3 1,3 1,8 0,14 0,10 -5,21 -16,20 -10,0 -14,-6 -15,-16zm0 0z"/>
   </g>
   <path class="fil8" d="M216 1142c11,-1 15,2 15,12 -1,9 -6,13 -15,12l0 -24zm-53 68l7 0 1 -1c1,-1 0,0 1,-2 -7,0 -7,-1 -9,3zm211 -22c-3,0 -3,0 -3,-2 3,0 3,-1 3,2zm2 0c0,-1 0,-1 0,-2 -1,-2 -5,-1 -6,-1 0,2 -1,6 0,7 2,0 1,0 1,-3l3 0c0,3 -1,3 2,3l0 -4zm-13 3l0 -4c0,1 1,5 2,5 2,-1 0,-1 2,-4 0,3 0,4 2,4 0,-1 0,-5 0,-7l-3 0c0,1 0,3 -1,5 0,-2 0,-3 -1,-4 0,-2 0,-1 -3,-1 0,1 0,2 0,4 0,4 1,3 1,3 1,-1 1,0 1,-1zm2 -12c12,-5 20,14 7,20 -11,4 -20,-15 -7,-20zm2 -2c-6,1 -10,6 -9,13 1,15 24,13 22,-3 -1,-6 -6,-11 -13,-10zm-27 55c3,0 15,0 18,-1l0 -5 -10 0 0 -14 -8 0 0 20zm-94 -15l-1 15 9 0 0 -15 6 0 0 -5 -21 0 0 5 7 0zm-101 9c-3,1 -5,1 -8,0l1 5c5,2 13,1 15,-2 2,-5 -2,-7 -5,-9 -2,-1 -2,-1 -2,-3 2,-1 5,0 7,1 0,-1 0,-2 -1,-3l0 -3c-16,-3 -16,6 -12,10 2,1 4,2 5,4zm20 -8c0,-1 -1,-1 2,-1l8 0 0 -5 -19 0 0 20 19 0 0 -6c-2,0 -4,0 -6,0 -5,1 -5,1 -5,-1 0,-2 4,0 9,-1l0 -5c-2,0 -3,0 -4,0 -1,0 -3,0 -3,0 -2,0 -1,1 -1,-1zm124 -110c-13,4 -7,22 6,19 4,-1 8,-6 7,-12 -2,-5 -7,-9 -13,-7zm-49 0c-13,4 -7,22 5,19 5,-1 9,-6 7,-12 -1,-5 -6,-9 -12,-7zm13 -63c-5,1 -9,6 -8,12 1,5 6,9 12,8 13,-3 9,-23 -4,-20zm12 21c-13,4 -8,23 5,19 4,-1 9,-6 7,-12 -1,-5 -6,-9 -12,-7zm-11 20c-14,3 -9,23 4,20 5,-1 9,-6 8,-12 -1,-5 -6,-9 -12,-8zm11 22c-13,4 -8,22 5,19 4,-1 9,-6 7,-12 -1,-5 -6,-9 -12,-7zm13 -63c-14,3 -9,23 4,20 5,-2 9,-7 8,-13 -2,-4 -6,-8 -12,-7zm-38 21c-13,4 -7,24 6,19 12,-4 6,-23 -6,-19zm49 0c-13,4 -7,23 6,19 12,-4 7,-23 -6,-19zm14 20c-14,3 -9,23 4,20 13,-3 9,-22 -4,-20zm-73 0c-14,3 -10,22 3,20 13,-2 9,-22 -3,-20zm49 0c-14,3 -10,22 3,20 13,-2 9,-22 -3,-20zm-49 132l1 4 -3 0 2 -4zm-4 9l7 0 2 5 9 0c-2,-4 -4,-7 -5,-11 -5,-10 -2,-9 -14,-9l-10 20 9 0 2 -5zm50 -1c-7,2 -4,-8 -5,-14l-8 0c0,14 -2,20 10,20 10,0 12,-2 12,-9l0 -11 -8 0c0,4 0,10 -1,14zm-62 -14l-8 0 0 11c-1,-2 -4,-10 -7,-11l-9 0 0 20 8 0 0 -11c1,1 5,9 6,11l10 0 0 -9 0 -11zm111 6l2 4 -4 0 2 -4zm-4 -6c-2,0 -8,15 -11,19l-3 -7c1,-2 6,-4 3,-9 -2,-4 -14,-3 -21,-3 1,10 1,10 0,20l8 0 0 -15c3,0 4,0 6,1 0,3 -2,3 -5,3l4 11 17 0 2 -5 7 0 2 5 9 0 -9 -20 -9 0zm-61 -13c2,0 4,-1 6,-1 3,0 5,1 7,1l0 -62 -13 1 0 61zm75 0c6,0 8,-1 14,0l0 -62 -14 0 0 62zm-49 -3c10,5 22,5 31,-1 7,-6 11,-18 3,-27 -5,-6 -21,-10 -23,-16 -3,-11 13,-15 18,-6 3,4 1,2 3,3 0,-1 0,0 1,-1 0,-1 0,-1 0,-1 0,-1 1,-2 1,-3 0,-1 1,-3 1,-4 -6,-3 -8,-5 -17,-4 -6,0 -12,3 -14,7 -7,10 -5,22 7,29 5,2 11,4 14,8 4,5 1,12 -4,14 -7,2 -13,-1 -15,-5 -1,-2 -3,-8 -4,-2 -1,3 -2,7 -2,9zm-96 0l0 -25c-6,0 -8,0 -14,0l0 21c-21,9 -36,-8 -31,-31 2,-10 7,-17 16,-19 8,-3 16,0 22,6 2,2 1,2 3,2l2 -9c-2,-3 -12,-5 -18,-5 -7,-1 -15,0 -21,3 -11,4 -19,13 -20,28 -1,29 27,36 51,31 3,0 7,-2 10,-2zm13 3c2,0 4,-1 6,-1 3,0 5,1 7,1l0 -29c2,1 2,1 3,3l15 26c6,0 10,0 16,0l-19 -31c1,-1 4,-1 7,-3 2,-1 4,-4 5,-6 3,-6 2,-13 -2,-17 -3,-4 -9,-5 -16,-5 -7,0 -15,0 -22,0l0 62z"/>
   <rect class="fil2 str0" width="509" height="455"/>
   <rect class="fil2 str0" x="509" width="509" height="455"/>
   <rect class="fil2 str0" x="1018" width="509" height="455"/>
   <rect class="fil2 str0" x="1527" width="509" height="455"/>
   <rect class="fil2 str0" y="455" width="509" height="455"/>
   <rect class="fil2 str0" x="509" y="455" width="509" height="455"/>
   <rect class="fil2 str0" x="1527" y="455" width="509" height="455"/>
   <rect class="fil2 str0" y="911" width="509" height="455"/>
   <rect class="fil2 str0" x="1018" y="455" width="509" height="455"/>
   <g id="_2486059081136">
    <path class="fil9" d="M161 680c0,0 2,12 3,16 3,10 7,18 12,27 3,4 9,12 13,16 8,7 19,15 30,19 4,2 10,4 15,5 -1,-1 0,0 -1,-1 0,0 -1,0 -1,0 -1,0 -1,0 -2,-1 -1,0 -2,0 -4,-1 -7,-3 -13,-6 -19,-10 -8,-6 -15,-13 -20,-21 -19,-27 -20,-65 0,-93 4,-5 5,-7 9,-11 1,-1 2,-1 3,-2 1,-2 7,-6 9,-7 13,-10 28,-15 45,-15 8,0 13,1 19,2 8,0 23,7 29,10 4,3 8,5 12,8 2,2 8,7 10,9l9 11c2,3 5,8 7,12 3,7 6,14 7,22 1,2 1,7 2,8 1,-18 -6,-39 -16,-53 -4,-6 -5,-6 -8,-10l-6 -6c-3,-2 -6,-5 -9,-8 -32,-22 -74,-23 -106,-1 -3,2 -5,4 -7,5l-6 6c-13,11 -29,36 -29,64z"/>
    <path class="fil10" d="M234 763c-5,-1 -11,-3 -15,-5 -11,-4 -22,-12 -30,-19 -4,-4 -10,-12 -13,-16 -5,-9 -9,-17 -12,-27 -1,-4 -3,-16 -3,-16 -1,4 1,17 2,21 3,16 10,30 20,42 4,5 9,10 14,14 15,12 34,19 56,20 22,0 45,-8 61,-21l9 -9c7,-7 12,-15 17,-25 6,-13 8,-24 8,-39 -1,-1 -1,-6 -2,-8 -1,-8 -4,-15 -7,-22 -2,-4 -5,-9 -7,-12l-9 -11c-2,-2 -8,-7 -10,-9 -4,-3 -8,-5 -12,-8 -6,-3 -21,-10 -29,-10 2,0 6,1 8,2 3,1 6,2 8,3 7,3 14,7 19,12l3 2c1,1 2,2 3,3 10,10 18,25 22,40 13,55 -35,108 -93,99 -2,0 -6,-1 -8,-1z"/>
    <path class="fil11" d="M186 690l0 -5c3,0 5,0 8,0 3,0 6,-1 6,2 0,3 -3,3 -6,3 -2,0 -5,0 -8,0zm0 -15c3,0 5,0 8,0 2,0 5,0 5,2 0,3 -3,3 -5,3 -3,0 -5,0 -8,0l0 -5zm18 7c3,-5 1,-11 -5,-12 -2,-1 -15,0 -19,0l0 26c4,0 18,0 21,-1 2,-1 4,-2 5,-5 1,-4 -1,-6 -2,-8z"/>
    <path class="fil11" d="M249 623c3,0 6,0 8,0 3,0 6,-1 6,2 0,3 -4,3 -6,2 -3,0 -5,1 -8,0l0 -4zm0 -10c3,0 5,0 8,0 1,0 5,-1 5,2 0,3 -3,2 -5,2 -3,0 -5,0 -8,0l0 -4zm-6 20c3,0 19,0 21,0 5,-2 7,-9 3,-13 1,-3 2,-4 1,-8 -1,-2 -3,-4 -5,-5 -2,0 -17,0 -20,0l0 26z"/>
    <polygon class="fil11" points="249,707 267,707 267,701 243,701 243,727 267,727 267,722 249,722 249,717 266,717 266,711 249,711 "/>
    <polygon class="fil11" points="281,675 298,675 298,670 274,670 275,696 298,696 298,690 281,690 281,685 297,686 297,680 281,680 "/>
    <path class="fil11" d="M249 739c3,0 5,0 8,0 2,0 5,0 5,2 0,3 -3,3 -5,3 -3,0 -5,0 -8,0l0 -5zm14 10c1,-1 1,-1 2,-1 5,-4 4,-11 -1,-13 -2,-2 -6,-2 -10,-2 -3,0 -7,0 -11,0l0 26 6 0 0 -10c8,0 7,-1 10,4 6,8 3,6 12,6 -1,-1 -1,-1 -2,-2 -1,-1 -1,-2 -2,-3 -1,-1 -1,-2 -2,-3 0,0 -1,-1 -2,-2z"/>
    <path class="fil11" d="M313 675c5,0 11,-1 11,3 0,2 -2,2 -5,2 -2,0 -4,0 -7,0l1 -5zm11 10c3,0 5,-3 6,-6 0,-3 -2,-6 -3,-8 -3,-2 -6,-1 -10,-1 -3,0 -7,0 -11,0l0 26 6 0 0 -10 5 0c1,2 6,7 7,10l8 0c-1,-1 -1,-2 -2,-3 -1,-2 -5,-6 -6,-8z"/>
    <path class="fil11" d="M255 645l4 9 -9 0 5 -9zm-16 19l7 0c3,-6 -3,-4 16,-4l2 4 7 0 -13 -26 -6 0 -13 26z"/>
    <path class="fil11" d="M225 677l5 9 -9 0 4 -9zm-7 14l15 0c0,1 1,4 2,5l6 0c-1,-5 -4,-9 -6,-13l-6 -13 -6 0c-3,5 -10,19 -13,26l6 0 2 -5z"/>
    <path class="fil11" d="M252 696l6 0c0,-10 -2,-8 5,-15 1,-2 2,-4 4,-6l4 -5c-7,0 -7,-1 -9,1l-7 10c-1,0 -6,-7 -7,-8 0,-1 -1,-3 -2,-3l-7 0 12 16c1,1 1,8 1,10z"/>
   </g>
   <g id="_2486059131184">
    <path class="fil12" d="M1366 683c0,52 -42,94 -93,94 -52,0 -94,-42 -94,-94 0,-52 42,-94 94,-94 51,0 93,42 93,94z"/>
    <g>
     <g>
      <path class="fil13" d="M1224 705c0,0 0,0 0,0 1,-2 2,-4 2,-5 2,-6 4,-11 5,-17 1,-3 2,-5 3,-8 1,-2 1,-5 2,-7 1,-3 2,-7 3,-10 1,-1 0,-3 -1,-4 0,0 0,0 0,0 9,0 17,0 25,0 4,0 7,1 10,3 2,2 4,4 4,7 0,3 0,6 -2,9 -3,7 -8,11 -15,13 -2,1 -4,2 -6,2 -3,0 -5,0 -7,0 -1,0 -2,0 -3,0 0,0 0,0 0,0 -1,2 -1,3 -2,5 0,2 -1,4 -2,6 0,2 -1,3 -1,5 -1,2 0,3 2,5 -7,0 -14,0 -20,0 1,-1 3,-3 3,-4 0,0 0,0 0,0zm31 -47l0 0c0,0 -1,0 -1,0 -1,0 -1,0 -1,1 0,1 0,1 -1,2 -2,8 -4,15 -7,22 0,1 0,1 1,1 4,0 7,-1 10,-3 2,-2 3,-4 4,-6 1,-4 3,-7 2,-11 0,-3 -1,-5 -3,-5 -2,-1 -3,-1 -4,-1z"/>
      <path class="fil13" d="M1349 655c0,0 0,0 0,0 0,0 1,0 1,1 0,0 0,1 -1,1 0,2 -1,4 -1,6 0,0 0,0 0,0 -3,-2 -5,-3 -7,-4 -1,-1 -3,-1 -4,-1 -5,0 -9,2 -13,5 0,0 0,0 0,0 0,0 0,1 -1,1 -1,1 -2,2 -3,4 -2,4 -4,8 -6,12 -1,5 -2,9 -2,13 0,3 0,5 1,8 1,2 3,3 5,4 2,0 3,0 5,0 0,0 0,0 0,-1 1,0 1,-1 1,-2 1,-2 1,-4 2,-6 1,-4 2,-7 3,-11 1,-1 1,-2 0,-3 0,-1 -1,-1 -2,-2 0,0 0,0 0,0 7,0 14,0 21,0 0,0 0,0 0,0 -2,1 -4,3 -4,5 -2,6 -4,13 -6,19 -1,1 -1,1 -1,1 -4,2 -8,3 -13,4 -3,0 -7,0 -10,0 -3,-1 -5,-2 -7,-3 0,0 -1,0 -1,0 -5,-4 -6,-9 -7,-14 -1,-8 1,-16 6,-23 1,-1 2,-3 3,-4 0,-1 1,-1 2,-2 2,-2 5,-4 8,-6 4,-2 8,-3 13,-4 4,0 7,0 11,1 2,0 4,1 7,1z"/>
      <path class="fil13" d="M1290 689c0,0 1,0 2,0 1,0 2,0 4,0 0,0 1,1 1,1 -1,4 -2,7 -5,9 -1,1 -1,1 0,2 4,3 8,6 12,7 0,0 0,0 1,1 -1,0 -1,0 -1,0 -4,0 -8,0 -12,0 -1,0 -1,0 -2,-1 -1,-1 -2,-2 -3,-3 -1,0 -1,0 -1,0 -3,2 -7,3 -10,4 -3,1 -5,0 -8,0 -2,-1 -3,-2 -4,-3 -3,-3 -3,-5 -3,-9 1,-4 3,-7 6,-9 3,-2 5,-3 8,-4 1,0 1,0 1,-1 0,-4 1,-9 4,-12 3,-4 7,-5 11,-4 2,0 3,0 4,2 3,2 3,5 1,8 -1,2 -3,4 -5,5 -2,1 -4,2 -6,3 -1,0 -1,0 -1,1 1,4 3,7 5,11 0,0 0,0 0,0 1,-2 2,-4 2,-5 0,-1 0,-1 -1,-3zm-7 13l0 0c0,-1 -1,-2 -1,-2 -2,-4 -4,-7 -5,-11 0,0 0,-1 -1,0 0,0 0,0 -1,0 -2,2 -4,3 -5,6 -2,4 0,9 5,9 3,0 6,-1 8,-2zm0 -20l0 0c1,-1 1,-1 1,-1 2,-1 4,-3 6,-5 0,-1 1,-3 1,-4 0,-2 -1,-3 -3,-2 -1,0 -2,1 -2,1 -2,3 -3,7 -3,11z"/>
     </g>
     <g>
      <path class="fil14" d="M1223 703c0,0 0,0 0,0 0,-2 1,-3 1,-5 2,-6 4,-11 5,-17 1,-2 2,-5 3,-8 1,-2 2,-5 2,-7 1,-3 2,-6 3,-9 1,-2 1,-4 -1,-5 0,0 0,0 1,0 8,0 16,0 24,0 4,0 7,1 10,3 2,2 4,4 4,7 1,3 0,6 -2,9 -2,7 -8,12 -15,14 -2,0 -4,1 -6,1 -2,0 -5,0 -7,0 -1,0 -2,0 -2,0 -1,0 -1,0 -1,0 0,2 -1,3 -1,5 -1,2 -2,4 -2,7 -1,1 -1,3 -2,4 -1,2 0,4 2,5 -7,0 -13,0 -20,0 2,-1 3,-2 4,-4 0,0 0,0 0,0zm30 -47l0 0c0,0 -1,0 -1,0 0,0 -1,1 -1,1 0,1 0,2 -1,3 -2,7 -4,14 -6,21 -1,1 -1,1 0,1 4,1 7,-1 10,-3 2,-1 3,-4 4,-6 2,-3 3,-7 3,-11 0,-2 -2,-5 -4,-5 -1,-1 -3,-1 -4,-1z"/>
      <path class="fil14" d="M1347 654c0,0 0,0 0,0 0,0 1,0 1,0 0,0 0,1 0,1 -1,2 -2,4 -2,6 0,0 0,0 0,0 -2,-1 -4,-3 -7,-4 -1,0 -3,-1 -4,-1 -5,0 -9,2 -12,5 -1,0 -1,0 -1,1 0,0 0,0 0,0 -2,1 -3,3 -3,4 -3,4 -5,8 -6,13 -2,4 -3,8 -3,12 0,3 0,5 1,8 1,2 3,3 6,4 1,0 3,0 4,0 0,0 1,0 1,0 0,-1 0,-2 0,-2 1,-3 2,-5 2,-7 1,-4 2,-7 4,-11 0,-1 0,-2 -1,-2 0,-1 -1,-2 -2,-2 0,0 0,0 0,0 7,0 14,0 21,0 0,0 0,0 0,0 -2,0 -3,2 -4,4 -2,7 -4,13 -6,19 0,1 -1,1 -1,2 -4,1 -8,3 -12,3 -4,1 -7,1 -11,0 -2,0 -5,-1 -7,-3 0,0 -1,0 -1,0 -4,-3 -6,-8 -7,-14 0,-8 2,-15 6,-23 1,-1 2,-2 3,-4 1,0 1,-1 2,-2 2,-2 5,-4 8,-6 4,-2 9,-3 13,-3 4,-1 8,0 11,0 2,1 5,1 7,2z"/>
      <path class="fil14" d="M1288 688c1,0 1,0 2,0 1,0 3,0 4,0 1,0 1,0 1,0 -1,4 -2,7 -5,10 0,1 0,1 0,1 4,3 8,6 12,8 0,0 1,0 1,0 0,0 -1,0 -1,0 -4,0 -8,0 -12,0 0,0 -1,0 -1,-1 -2,0 -3,-2 -4,-3 -1,0 -1,0 -1,0 -3,2 -6,4 -10,4 -3,1 -5,1 -8,0 -1,-1 -3,-2 -4,-3 -2,-2 -3,-5 -3,-8 1,-5 3,-8 7,-10 2,-1 5,-2 7,-3 2,-1 1,-1 1,-2 0,-4 1,-8 4,-12 3,-3 7,-5 11,-4 2,0 3,1 5,2 2,2 2,5 1,8 -2,2 -4,4 -6,5 -2,1 -4,2 -6,3 0,0 -1,1 -1,1 1,4 3,8 5,11 0,0 0,0 1,0 1,-2 1,-3 1,-5 0,-1 0,-1 -1,-2zm-7 12l0 0c0,-1 0,-1 -1,-2 -2,-3 -4,-7 -5,-11 0,0 0,0 0,0 -1,0 -1,0 -1,1 -3,1 -5,2 -6,5 -2,4 1,9 6,9 2,0 5,-1 7,-2zm1 -20l0 0c0,0 0,0 0,-1 3,-1 4,-3 6,-5 1,-1 1,-2 1,-4 1,-2 -1,-3 -2,-2 -2,0 -2,1 -3,2 -2,3 -3,6 -2,10z"/>
     </g>
    </g>
    <g>
     <path class="fil15" d="M1206 681c0,-38 21,-71 54,-91 -46,6 -81,45 -81,93 0,49 38,90 87,93 -36,-19 -60,-55 -60,-95z"/>
    </g>
   </g>
   <g id="_2486059128752">
    <path class="fil16" d="M1182 150l149 0 0 0c4,0 8,3 8,8l0 80 0 1c0,4 -4,7 -8,7l-117 0c-4,0 -8,-3 -8,-8l0 -32c0,-4 4,-8 8,-8l101 0 0 -24 -109 0c-13,0 -24,11 -24,24l0 49c0,13 11,23 24,23l133 0c13,0 24,-11 24,-24l0 -96c0,-13 -11,-24 -24,-24l-157 0 0 24zm0 0z"/>
    <path class="fil17" d="M1202 313l8 0 -4 -12 0 0 -4 12zm11 -20l9 27c1,3 2,4 4,4l2 0 0 4 -20 0 0 -4 2 0c2,0 3,0 3,-1 0,-1 0,-1 0,-2l-1 -4 -11 0 -1 2c0,2 -1,3 -1,4 0,1 2,1 4,1l1 0 0 4 -15 0 0 -4 1 0c2,0 3,-1 4,-4l9 -27 10 0zm0 0z"/>
    <path class="fil17" d="M1240 316c0,5 1,9 4,9 3,0 4,-4 4,-9 0,-5 -1,-9 -4,-9 -3,0 -4,4 -4,9zm-9 -16c0,-2 -1,-2 -2,-2l-3 0 0 -5 14 0 0 14c1,-3 4,-4 6,-4 8,0 11,6 11,13 0,7 -3,13 -11,13 -3,0 -6,-1 -8,-4l-1 3 -6 0 0 -28zm0 0z"/>
    <path class="fil17" d="M1269 316c0,5 1,9 4,9 3,0 4,-4 4,-9 0,-5 -1,-9 -4,-9 -3,0 -4,4 -4,9zm-9 -16c0,-2 0,-2 -2,-2l-2 0 0 -5 13 0 0 14c2,-3 4,-4 7,-4 8,0 11,6 11,13 0,7 -3,13 -11,13 -3,0 -6,-1 -8,-4l-2 3 -6 0 0 -28zm0 0z"/>
    <path class="fil17" d="M1299 316c0,6 1,9 4,9 3,0 4,-3 4,-9 0,-6 -1,-9 -4,-9 -3,0 -4,3 -4,9zm17 0c0,8 -5,13 -13,13 -8,0 -14,-5 -14,-13 0,-8 6,-13 14,-13 8,0 13,5 13,13z"/>
    <path class="fil17" d="M1354 316l0 5c0,2 -1,3 -3,3 -1,0 -1,0 -1,-2l0 -14 6 0 0 -4 -6 0 0 -10 -6 0c0,4 -1,10 -7,10l-8 0 0 -10 -5 0c0,4 -2,10 -7,10l0 4 3 0 0 13c0,5 3,8 9,8l0 0c6,0 9,-3 9,-8l0 -5 -4 0 0 5c0,2 -1,3 -3,3 -1,0 -2,0 -2,-2l0 -14 12 0 0 13c0,5 3,8 8,8l1 0c6,0 8,-3 8,-8l0 -5 -4 0zm0 0z"/>
   </g>
   <g id="_2486059118960">
    <path class="fil18" d="M1675 178c-2,0 -33,7 -47,41 0,0 -14,36 21,54 0,0 21,13 46,-6 0,0 19,-11 13,-42 0,0 -3,-15 -15,-22 0,0 -10,-5 -7,6 0,0 7,9 8,17 0,0 4,22 -22,27 0,0 -24,0 -25,-25 0,0 -1,-16 24,-29 0,0 10,-4 13,-12 0,0 2,-11 -9,-9z"/>
    <path class="fil19" d="M1659 230c0,-7 5,-12 12,-12 7,0 12,5 12,12 0,7 -5,12 -12,12 -7,0 -12,-5 -12,-12z"/>
    <path class="fil20" d="M1759 237c0,6 -6,10 -13,10 -5,0 -7,-3 -7,-7 0,-6 5,-7 8,-7 9,-1 11,-2 12,-3l0 7zm-19 -14c0,-4 2,-8 9,-8 7,0 10,2 10,6 0,4 -2,5 -4,5l-11 2c-11,1 -12,9 -12,13 0,7 5,11 12,11 8,0 13,-3 15,-6 1,3 1,6 8,6 1,0 2,0 3,-1l0 -5c0,0 -1,1 -2,1 -1,0 -2,-1 -2,-3l0 -24c0,-10 -12,-11 -15,-11 -11,0 -17,4 -17,14l6 0z"/>
    <path class="fil18" d="M1808 222c0,-2 -1,-13 -16,-13 -8,0 -16,4 -16,13 0,6 4,9 10,10l8 2c6,2 8,3 8,6 0,4 -5,6 -9,6 -10,0 -11,-5 -11,-8l-7 0c0,5 1,14 18,14 9,0 16,-5 16,-13 0,-6 -3,-9 -12,-11l-7 -2c-5,-1 -7,-2 -7,-5 0,-5 6,-6 8,-6 9,0 10,4 10,7l7 0z"/>
    <path class="fil20" d="M1816 262l7 0 0 -15 0 0c2,3 6,5 11,5 14,0 20,-13 20,-23 0,-11 -8,-20 -19,-20 -7,0 -10,5 -12,7l0 0 0 -6 -7 0 0 52zm7 -29c0,-7 1,-18 11,-18 11,0 13,10 13,16 0,9 -5,15 -13,15 -4,0 -11,-2 -11,-13z"/>
    <path class="fil20" d="M1866 227c0,-6 5,-12 11,-12 9,0 11,6 12,12l-23 0zm23 11c-1,3 -5,8 -11,8 -8,0 -12,-5 -12,-13l30 0c0,-15 -6,-24 -18,-24 -13,0 -19,10 -19,23 0,12 6,20 18,20 7,0 9,-1 11,-2 5,-4 7,-10 7,-12l-6 0z"/>
    <path class="fil18" d="M1938 223c0,-11 -8,-14 -15,-14 -7,0 -11,5 -12,7l0 0 0 -6 -7 0 0 41 7 0 0 -22c0,-11 7,-14 11,-14 7,0 9,4 9,11l0 25 7 0 0 -28z"/>
   </g>
  </g>
 </g>
</svg>
