<?xml version="1.0" encoding="UTF-8"?>
<!DOCTYPE svg PUBLIC "-//W3C//DTD SVG 1.0//EN" "http://www.w3.org/TR/2001/REC-SVG-20010904/DTD/svg10.dtd">
<!-- Creator: CorelDRAW 2020 (64-Bit) -->
<svg xmlns="http://www.w3.org/2000/svg" xml:space="preserve" width="100%" height="100%" version="1.0" style="shape-rendering:geometricPrecision; text-rendering:geometricPrecision; image-rendering:optimizeQuality; fill-rule:evenodd; clip-rule:evenodd"
viewBox="0 0 5525.33 2485.05"
 xmlns:xlink="http://www.w3.org/1999/xlink"
 xmlns:xodm="http://www.corel.com/coreldraw/odm/2003">
 <defs>
  <style type="text/css">
   <![CDATA[
    .str0 {stroke:#E6E6E6;stroke-width:10;stroke-miterlimit:22.9256}
    .fil12 {fill:none}
    .fil9 {fill:#007CC2}
    .fil7 {fill:#0C7BC0}
    .fil5 {fill:#1D1C1D}
    .fil14 {fill:#205C34}
    .fil6 {fill:#21374C}
    .fil3 {fill:#222021}
    .fil4 {fill:#222121}
    .fil2 {fill:#232122}
    .fil1 {fill:#242223}
    .fil13 {fill:#3FBA69}
    .fil0 {fill:#528ABE}
    .fil8 {fill:#A3C5E8}
    .fil11 {fill:#0075BB;fill-rule:nonzero}
    .fil10 {fill:#1248A6;fill-rule:nonzero}
    .fil17 {fill:#DA8B02;fill-rule:nonzero}
    .fil16 {fill:#E23E28;fill-rule:nonzero}
    .fil15 {fill:#00839B;fill-rule:nonzero}
   ]]>
  </style>
 </defs>
 <g id="Capa_x0020_1">
  <metadata id="CorelCorpID_0Corel-Layer"/>
  <g id="_2649474736">
   <g>
    <path class="fil0" d="M3053.06 582.96c20.42,-5.66 36.78,8.75 40.45,24.08 10.29,42.91 -53.7,58.03 -64.52,15.96 -5.36,-20.83 8.38,-35.69 24.07,-40.04zm-28.19 -59.97c1.48,1.63 -1.03,0.14 1.92,2.02 25.22,-0.08 53.42,18.31 60.67,32.2 -4.13,-0.27 -6.14,-4.89 -15.66,-9.3 -47.02,-21.76 -104.43,17.99 -86.12,80.41 4.01,13.65 12.82,24.28 22.01,30.26 15.23,9.93 23.49,9.1 44.08,9.12 35.15,0.05 70.52,0.01 105.65,0.48 0,-28.66 0,-57.33 0,-85.99 0,-37.27 2.67,-46.42 -19.15,-67.52 -12.07,-11.67 -25.04,-17.48 -41.04,-23.6 -8.28,-3.18 -8.19,-1.16 -15.19,2.59l-57.17 29.33z"/>
    <path class="fil1" d="M3272.58 668.17l11.55 0.15 0.09 -73.85c3.41,4.45 10.62,29.03 13.2,36.57 4.35,12.71 8.41,24.97 12.74,37.52 13.44,0 10.05,2.64 16.93,-17.23 2.24,-6.49 4.26,-12.45 6.59,-19.06 4.27,-12.07 8.33,-26.38 13.2,-37.67l0.29 73.96 11.44 0c0.88,-24.77 0.11,-63.96 0.11,-90.25l-16.35 0 -26.08 76.44 -19.52 -58.18c-7.25,-21.64 -0.97,-18.31 -24.19,-18.14l0 89.74z"/>
    <path class="fil1" d="M3551.07 588.39l26.08 0c27.51,0 22.84,18.78 18.1,24.26 -7.19,8.31 -31.83,5.42 -44,5.43l-0.2 -3.59 0.02 -26.1zm-12.08 76.45l0.1 3.72 11.89 -0.15 0.07 -39.89c23.43,0 25.1,-1.08 36.61,15.34 5.41,7.72 10.68,16.96 15.69,24.7l14.86 0c-2.1,-5.47 -10.31,-16.66 -13.85,-22.37 -2.97,-4.78 -7.68,-10.99 -12.04,-14.6 -2.37,-1.97 -2.97,-1.82 -5.2,-3.8 3.1,-1.83 27.38,-4.6 23.75,-29.04 -2.56,-17.23 -15.82,-20.44 -33.72,-20.44l-38.18 0 0.02 86.53z"/>
    <path class="fil1" d="M3727.65 668.17l11.5 0.11 0.07 -69.12c3.41,2.7 44.41,64.56 47.04,69.33l12.38 0.08c0.98,-22.59 0.15,-65.55 0.14,-90.26l-11.52 0.14 0 69.61 -6.31 -8.39c-5.2,-7.81 -38.64,-60.69 -42.3,-61.36l-11.01 0.17 0.01 89.69z"/>
    <path class="fil1" d="M3194.4 618.07l-0.22 -29.68c16.41,0 47.85,-5.41 47.72,14.7 -0.14,19.8 -30.9,14.98 -47.5,14.98zm-12.2 50.21l11.88 0.19 0.12 -39.95c9.67,0 20.21,-1.11 27.05,3.66 2.76,1.93 6.96,7.74 9.4,11.49 5.22,8.06 11.32,16.7 15.85,24.86l14.94 -0.13 -21.27 -32.34c-3.9,-5 -5.73,-4.53 -10.22,-8.66 31.16,-5.3 26.74,-32.29 17.94,-41.81 -5.82,-6.29 -17.7,-7.26 -28.91,-7.29 -10.57,-0.02 -26.89,-0.93 -36.78,0.3l0 89.68z"/>
    <path class="fil1" d="M3899.19 656.4l0.05 -33.94 -38.36 0.06 0.15 10.7 26.39 0.09 -0.03 16.33c-3.75,9.66 -62.58,24.02 -59.14,-30.21 2.64,-41.52 53.44,-40.83 58.35,-12.91 3.99,-0.73 8.24,-1.75 10.96,-3.43 -7.56,-37.43 -76.1,-38.37 -81.56,14.7 -1.13,10.99 0.97,22.22 5.48,30.74 9.74,18.38 32.55,24.67 52.25,20.25 14.99,-3.37 18.62,-9.17 25.46,-12.38z"/>
    <path class="fil1" d="M3664.02 587.7c20.57,-3.64 33.83,11.14 35.74,29.63 5.59,54.01 -57.23,55.18 -60.95,12.39 -1.94,-22.31 5.91,-38.61 25.21,-42.02zm0.52 -10.72c-25.62,2.55 -40.37,23.66 -38.2,51.8 4.55,58.94 92.01,54.86 85.84,-11.47 -2.3,-24.73 -20.48,-43.03 -47.64,-40.33z"/>
    <path class="fil1" d="M3384.91 638.56l-10.76 0.93c-2.31,32.41 50.61,41.2 67.46,17.11 6.47,-9.25 4.53,-22.18 -1.85,-29.17 -11.75,-12.85 -47.24,-10.59 -50.45,-23.72 -4.65,-19.05 38.94,-25.63 41.96,0.94l11.54 -0.87c-0.22,-21.93 -23.54,-31.19 -45.37,-25.61 -24.09,6.16 -26.94,32.97 -7.59,43.1 11.27,5.9 56.09,8.81 42.18,29.58 -5.12,7.64 -17.67,10.15 -28.89,7.49 -12.09,-2.86 -14.76,-7.99 -18.23,-19.78z"/>
    <polygon class="fil1" points="3455.15,589.05 3484.69,589.12 3484.85,668.56 3496.83,668.41 3496.91,589.05 3526.71,589.03 3526.71,578.42 3455.19,578.31 "/>
    <path class="fil2" d="M3408.8 744.61c7.34,-0.16 3.3,0.38 7.02,-13.09 1.42,-5.15 4.53,-10.25 10.86,-8.4 1.38,6.03 -2.41,14.94 -3.07,21.49 7.2,-0.19 3.32,0.69 7.08,-13.41 0.96,-3.58 2.22,-7.4 6.15,-8.32 2.18,-0.52 0.74,-0.34 2.43,-0.15 2.68,0.3 1.49,0.26 2.38,0.77 1.11,4.86 -2.59,15.11 -3.17,21.08 5.8,-0.07 3.8,1.48 6.65,-11.34 1.43,-6.41 3.1,-10.75 -1.11,-13.46 -5.05,-3.02 -9.66,1.2 -12.38,2.96 -2.84,-6.78 -9.64,-4.33 -13.45,-0.25 -0.74,-3.81 1.78,-3.16 -3.5,-3.27 -2.58,3.22 -5.27,20.08 -5.89,25.39z"/>
    <path class="fil3" d="M3297.82 744.42c7.05,0.38 3.84,0.21 7.19,-12.58 1.61,-6.16 3.76,-9.92 10.9,-9.02 1.31,5.55 -2.31,15.19 -3.09,21.8 6.95,-0.15 3.52,0.93 7.03,-13.12 1.42,-5.65 4.12,-10.19 10.98,-8.45 1.07,5.22 -2.33,15.54 -3.15,21.2 5.52,0.88 4.52,-0.05 5.65,-5.91 1.57,-8.19 5.81,-18.45 -2.27,-19.58 -5.01,-0.7 -7.18,1.7 -9.25,4.06l-3.63 -3.76c-4.73,-0.57 -7.56,-0.74 -9.6,3.02l-0.91 -1.27c-1.8,-1.5 1.05,-1.8 -4.14,-1.43l-5.71 25.04z"/>
    <path class="fil2" d="M3267.76 732.91l-4.55 -0.77c-3.84,13.56 -22.85,12.28 -19.44,-6.38 1.08,-5.92 4.95,-10.79 9.78,-12.17 3.28,-0.93 6.16,-0.79 8.55,1.23 4.93,4.17 -0.09,5.31 6.28,5.44 1.11,-1.76 0.63,0.5 0.68,-2.18 0.14,-6.08 -8.53,-10.74 -17.49,-8.34 -7.03,1.87 -11.81,9.19 -12.79,16.85 -3.29,25.7 26.81,21.71 28.98,6.32z"/>
    <path class="fil2" d="M3838 724.1c9.77,-8.32 10.31,12.1 3.68,16.28 -6.35,4.01 -11.09,-4.05 -7.41,-12.22 1.61,-3.58 1.84,-2.45 3.73,-4.06zm10.25 -1.85c-2.18,-1.37 -5.61,-6.08 -12.58,-2.19 -3.21,1.78 -5.57,5.52 -6.56,9.64 -2.89,12.05 6.27,20.84 14.24,12.31 0.01,0.02 2.2,6.51 5.02,0.23l6.49 -32.62c-4.94,0.09 -4.3,-2.04 -6.61,12.63z"/>
    <path class="fil2" d="M3350.08 723.6c11.03,-6.84 9.65,12.96 3.3,16.82 -9.74,5.9 -11.34,-11.82 -3.3,-16.82zm-13.75 30.6c9.16,-0.25 2.44,-1.77 7.52,-12.88 7.19,8.39 16.11,1.1 18.24,-6.55 3.27,-11.74 -5.29,-22.14 -13.88,-12.95 -5.54,-8.52 -6.33,5.61 -8.1,13.84 -1.34,6.23 -2.66,12.21 -3.78,18.54z"/>
    <path class="fil2" d="M3518.26 735.14c-4.64,11.44 -15.81,6.28 -11.49,-5.76 4.31,-12.03 16.74,-7.16 11.49,5.76zm2.47 -12.65c-19.56,-17.78 -27.9,32.36 -6.29,21.05 2.99,-1.57 1.2,-1.42 3.05,-0.23 6.57,4.24 -6.19,-1.37 1.7,1.28 2.33,-0.14 2.12,-1.93 3.16,-7.22l5.47 -27.75c-7.43,0.17 -3.1,0.81 -7.09,12.87z"/>
    <path class="fil2" d="M3768.14 734.97c4.12,-2.19 7.25,-2.21 12.93,-2.76 -0.98,4.9 -1.9,7.67 -6.03,8.93 -5.88,1.8 -7.67,-0.67 -6.9,-6.17zm-2.28 -8.35c9.63,0.4 1.6,-2.07 9.07,-3.99 5.37,-1.39 7.55,0.84 7.09,5.67 -7.03,2.96 -17.39,-0.66 -18.64,7.94 -1.51,10.29 10.38,9.83 15.34,5.8 2.77,2.59 0.32,2.43 5.74,2.55 -0.52,-7.71 4.52,-19.4 0.48,-23.4 -5.77,-5.69 -17.01,-2.06 -19.08,5.43z"/>
    <path class="fil2" d="M3455.6 729.52c2.55,-8.06 12.69,-11.66 13.75,0.06l-13.75 -0.06zm16.11 6.67c-7.6,-0.39 -3.68,3.55 -10.11,4.97 -5.37,1.18 -6.83,-3.48 -7.01,-8.11 5.63,0 13.71,0.97 18.29,-0.57 4.85,-14.65 -16.39,-20.4 -21.85,-3.7 -6.06,18.53 17.36,21.31 20.68,7.41z"/>
    <path class="fil2" d="M3289.72 723.34c4.01,12 -5.18,23.17 -11.7,16.45 -3.45,-3.55 -1.52,-10.6 0.45,-13.56 2.89,-4.33 6.81,-4.22 11.25,-2.89zm-9.03 -3.77c-14.09,5.4 -11.7,31.51 6.21,24.64 12.62,-4.85 11.95,-31.6 -6.21,-24.64z"/>
    <path class="fil2" d="M3534.09 740.25c-1.36,-4.25 -1.92,-9.72 0.9,-14.05 2.05,-3.15 7.08,-5.72 10.72,-2.45 4.72,4.22 1.72,21.3 -11.62,16.5zm3.24 -20.6c-6.77,2.64 -9.58,9.05 -8.95,16.47 0.67,7.83 8.13,11.24 15.81,7.87 12.55,-5.51 10.62,-31.17 -6.86,-24.34z"/>
    <path class="fil2" d="M3635.54 723.32c4.15,11.8 -5.29,23.14 -11.79,16.57 -2.99,-3.01 -1.76,-10.44 0.52,-13.7 2.96,-4.22 6.84,-4.19 11.27,-2.87zm-9.01 -3.73c-14.56,5.26 -11.03,32.59 6.89,24.33 11.6,-5.35 11.41,-30.95 -6.89,-24.33z"/>
    <path class="fil2" d="M3394.13 722.65c10.46,-3.69 9.42,15.37 1.68,18.34 -11.25,4.32 -12.14,-14.64 -1.68,-18.34zm-2.58 -3.24c-13.5,5.19 -12.45,30.82 5.61,24.9 14.19,-4.65 11.65,-31.56 -5.61,-24.9z"/>
    <path class="fil4" d="M3816.63 740.94c1.57,3.79 -1.98,3.57 3.73,3.49 1.79,-2.85 5.2,-20.99 5.54,-25.25 -6.98,0.1 -3.26,-0.1 -7.14,13.48 -1.81,6.34 -4.39,9.65 -11.71,8.16 -1.23,-6.17 2.48,-14.61 2.87,-21.65 -5.75,0.1 -4.44,0.6 -5.52,6.63 -0.63,3.47 -1.97,7.97 -2.27,11.33 -1.01,11.52 10.05,8.62 14.5,3.81z"/>
    <path class="fil2" d="M3754.94 737.99c-1.3,2.8 -3.88,4.73 -8.1,3.25 -6.79,-2.38 0.77,-5.74 -7.24,-5.4 -4,9.23 13.25,12.19 18.21,6.08 7.47,-9.2 -8.07,-11.62 -11.21,-16.28 1.02,-2.67 2.67,-4.42 6.65,-3.19 7.01,2.18 -0.78,5.63 7.97,4.02 -1.49,-10.2 -14.59,-9.44 -17.69,-4.43 -6.15,9.94 8.99,9.68 11.41,15.95z"/>
    <path class="fil4" d="M3643.74 744.36c5.05,0.42 4.35,0.86 5.41,-3.72 2.01,-8.71 1.78,-19.47 13.61,-17.83 1.53,5.09 -2.09,15.51 -2.92,21.77 6.41,-0.06 5.13,-3.63 6.57,-10.53 1.35,-6.49 3.37,-10.27 -1.51,-14.6 -6.3,-2.17 -8.27,0.22 -11.73,3.3 -1.62,-3.89 2.22,-3.36 -3.92,-3.58l-5.51 25.19z"/>
    <path class="fil1" d="M3559.1 722.4c-2.2,15.42 13.22,6.51 11.68,17.96 -12.59,4.62 -7.82,-4.09 -14.53,-4.62 -0.05,0.07 -3.06,1.15 0.21,5.74 3.29,4.61 13.78,4.7 17.29,0.69 3.29,-3.76 2.03,-8.48 -1.45,-10.72 -4.08,-2.63 -7.49,-2.01 -9.52,-5.81 0.87,-2.78 3.11,-4.71 6.93,-3.05 6.42,2.77 -1.26,4.4 7.68,4.2 -1.26,-9.98 -9.98,-9.93 -18.29,-4.39z"/>
    <path class="fil2" d="M3713.98 740.88c1.57,3.8 -2.22,3.77 3.77,3.48l5.7 -25.03c-7.52,-0.25 -3.68,0.38 -7.3,13.25 -1.82,6.46 -4.68,9.57 -11.84,8.35 -1.4,-6.75 2.63,-14.48 2.9,-21.74 -5.63,0.12 -4.47,0.6 -5.53,6.56 -0.6,3.39 -2.01,8.1 -2.24,11.36 -0.76,10.66 9.42,9.24 14.54,3.77z"/>
    <path class="fil2" d="M3613.66 735.68c-8.63,-0.97 -2.55,7.7 -13.92,5.24 -3.23,-7.33 -1.58,-19.42 8.76,-18.18 5.14,3.59 -0.23,4.69 6.62,4.46 1.87,-12.04 -18.9,-12.61 -21.31,4.55 -2.77,19.68 19.85,14.53 19.85,3.93z"/>
    <path class="fil2" d="M3685.99 720.89c0.11,0.22 0.44,0.21 0.51,0.53l1.38 1.47c1.45,2.15 0.63,2.92 -0.61,8.36 -1.07,4.67 -2.27,8.38 -1.17,12.7 3.42,0.98 4.71,2.04 7.87,-0.26 -0.13,-3.39 -0.96,-1.64 -3.75,-3.8 2.78,-22.41 4.71,-14.18 7.94,-19 -0.12,-0.2 -0.41,-0.68 -0.48,-0.52 -0.08,0.17 -0.39,-0.4 -0.5,-0.49 -0.11,-0.09 -0.39,-0.35 -0.52,-0.45 -1.02,-0.8 -0.36,0.28 -2.11,-1.39l1.45 -7.64c-6.92,2.51 -3.81,4.23 -6.67,7.76 -2.23,2.76 -0.54,-1.16 -3.34,2.73z"/>
    <path class="fil2" d="M3477.9 720.89c0.12,0.22 0.44,0.21 0.51,0.53 0.07,0.31 0.4,0.4 0.49,0.51 4.68,5.42 -3.5,11.98 -0.93,22.06 3.33,0.89 4.73,1.96 7.85,-0.3 -0.08,-3.37 -0.86,-1.62 -3.75,-3.8 2.92,-24.25 4.62,-13.92 7.95,-19 -1.77,-3.24 -0.4,0.18 -3.72,-2.97l1.67 -7.48c-3.1,1.08 -3.8,1.02 -5.22,4.38 -3.31,7.87 -1.65,1.7 -4.85,6.07z"/>
    <path class="fil3" d="M3789.54 744.62c5.16,-0.15 4.52,0.07 5.65,-6.18 0.59,-3.27 1.23,-6.21 1.91,-9.46 1.2,-5.66 3.36,-13.83 3.73,-19.38 -5.99,0.1 -4.12,-0.59 -7.52,15.69 -1.24,5.9 -3.08,13.26 -3.77,19.33z"/>
    <path class="fil4" d="M3365.56 744.37c7.74,0.63 3.13,-2.1 7.4,-13.95 4.39,-12.2 8.95,-3.16 11.01,-10.48 -4.58,-3.47 -7.55,0.58 -9.13,3.1 -0.09,-0.21 -0.09,-0.79 -0.11,-0.66l-0.71 -2.32c0,-0.01 0.74,-2.36 -2.38,-0.54 -2.49,1.45 -5.58,21.62 -6.08,24.85z"/>
    <path class="fil3" d="M3489.69 744.62c6.55,-0.16 5.23,-3.85 6.55,-10.66 0.84,-4.32 2.58,-10.63 2.74,-14.7 -4.46,-0.12 -3.8,-0.94 -5.03,3.09 -0.45,1.5 -1.01,5.34 -1.36,7.15 -0.95,4.98 -2.29,10.06 -2.9,15.12z"/>
    <path class="fil5" d="M3912.62 591.96l0.12 -4.57c4.31,-0.12 5.69,0.25 5.75,2.27 0.04,1.52 -1,2.27 -5.87,2.3zm-2.24 7.72c0.96,-0.5 2.35,-0.27 2.35,-0.27 0,0 0.09,-3.66 0.03,-5.47 2.3,-0.07 3.27,-0.27 3.27,-0.27 1.83,1.02 2.74,5.17 3.54,5.46 0.74,0.27 1.62,-0.12 2.42,0.01 -1.43,-4.05 -2.51,-5.13 -3.3,-5.76 3.83,-1.81 3.08,-6.35 -0.78,-7.35 -2.03,-0.52 -4.59,-0.6 -7.65,-0.29l0.12 13.94z"/>
    <path class="fil3" d="M3497.34 714.72c4.12,-0.59 3.42,0.24 3.68,-5.1l-4.19 0.19c-0.96,4.4 -0.67,3.16 0.51,4.91z"/>
    <path class="fil6" d="M3026.79 525.01c-2.95,-1.88 -0.44,-0.39 -1.92,-2.02 -1.84,-0.23 -1.42,-0.61 -1.13,1.25l3.05 0.77z"/>
   </g>
   <g>
    <path class="fil7" d="M450.12 1871.39c0,-42.03 15.29,-77.44 33.31,-105.73 11.66,-18.3 25.32,-34.5 40.12,-48.35 3.03,-2.84 5.11,-5.58 8.31,-8.55 48.49,-45.07 133.1,-85.58 210.22,-99.52 -30.67,-1.1 -99.52,19.41 -126.93,29.3 -58.05,20.95 -104.97,50.19 -147.23,89.48 -109.33,101.64 -103.53,248.6 32.02,331.44 58.89,35.99 138.96,57.74 221.9,57.74 101.63,0 185.61,-21.93 270.62,-70.1 7.85,-4.45 10.74,-4.88 12.91,-9.63 -7.83,3.03 -16.71,8.44 -24.75,12.07 -133,60.03 -302.53,65.7 -427.45,-10.81 -46.88,-28.71 -103.05,-85.03 -103.05,-167.34zm104.38 29.27l139.35 -0.01c4.37,-4.96 9.55,-14.97 13.15,-20.7 4.63,-7.38 8.3,-13.39 12.9,-20.89l64.35 -104.74c3.28,-5.23 11.17,-16.94 13.07,-22.09 -3.21,-6.54 -8.97,-14.28 -13.17,-20.72l-27.43 -41.48c-3.99,-6.12 -9.38,-15.77 -14.07,-20.49 -4.29,2.89 -40.68,53.13 -47.06,61.64l-118.15 157.59c-4.04,5.4 -22.21,28.33 -22.94,31.89zm33.77 36.07c-0.19,-0.29 -0.33,-1.16 -0.37,-0.97l-0.83 -3.76c-0.98,-3.83 4.01,-3.29 -18.14,-3.1l-15.43 75.52 20.13 0.02c1.89,-12.86 7.24,-47.86 15.9,-57.26 3.34,-3.62 11.65,-8.86 16.32,-2.56 5.48,6.01 -7.34,49.18 -8.66,59.61l19.3 0.15c5.86,-13.76 6.14,-46.25 16.86,-57.62 3.05,-3.24 12.3,-8.53 16.64,-1.94 4.74,5.11 -7.94,49.55 -9.36,59.64l19.94 -0.08c2.36,-16.4 11.71,-45.7 11.41,-60.08 -0.52,-25.46 -33.51,-18.64 -43.78,-5.34 -0.2,-0.23 -0.46,-0.95 -0.53,-0.75 -0.22,0.56 -1.96,-4.71 -5.52,-7.49 -8.52,-6.66 -25.65,-4.37 -33.88,6.01zm402.77 -5.52c-7.22,4.77 -5.74,0.22 -6.23,-1.3 0.29,-0.23 -1.64,-2.22 3.55,-1.42 4.6,0.72 1.8,0.84 2.68,2.72zm-10.02 11.38c5.52,0.31 3.79,1.37 3.79,-6.51 9.41,1.99 1.38,7.25 11.08,6.65l-3.74 -7.23c3.23,-2.02 3.06,-3.41 2.57,-8.14 -4.53,-2.47 -6.27,-2.45 -13.21,-1.79l-0.49 17.02zm19.44 -3.58c-7.67,16.97 -30.18,5.53 -23.75,-10.45 6.19,-15.38 30.67,-4.86 23.75,10.45zm-15.19 -20.96c-23.19,6.03 -12.65,37.77 7.82,32.11 18.44,-5.1 12.98,-37.52 -7.82,-32.11zm-122.06 0.53l20.14 0.04 3.41 -18.24 -19.26 -0.2 -4.29 18.4zm-17.5 85.84l19.19 -0.03c3.06,-6.1 14.79,-65.78 15.82,-75.63l-19.54 0.01 -15.47 75.65zm31.43 0.04l24.54 -0.04c1.97,-3.6 13.66,-17.88 18.19,-20.5 1.51,5.18 6.74,17.63 11.35,20.54l19.12 -0.13 -18.27 -36.92 33.79 -38.32c-5.02,-0.53 -10.14,-0.36 -15.2,-0.4 -8.59,-0.07 -7.25,-0.99 -11.8,3.67 -5.94,6.08 -9.4,12.58 -15.44,16.8l-10.61 -20.31 -20.91 -0.11c1.55,6.02 11.55,24.22 15.47,31.7 4.47,8.51 -1.27,9.36 -15.13,25.39 -3.02,3.49 -3.47,4.59 -7.22,8.41 -3.11,3.16 -5.09,5.5 -7.88,10.22zm-172.82 -44.08c1.82,-10.2 6.25,-17.92 16.36,-18.56 11.17,-0.7 14.16,8.18 14.49,18.56l-30.85 0zm44.58 24.15l-16.62 -3.46c-4.62,5.02 -8.74,12.13 -19.39,10 -7.62,-1.52 -11.05,-8.67 -10.67,-18.07l49.69 0c3.16,-22.8 -1.15,-42.31 -22.37,-45.56 -49.38,-7.56 -61.85,63.48 -27.03,76.4 20.79,7.72 42.38,-4.35 46.39,-19.31zm46.23 -40.33c23.52,-12.77 27.2,34.78 6.69,44.93 -12.84,6.34 -21.07,-4.82 -20.55,-17.61 0.44,-10.88 4.38,-22.18 13.86,-27.32zm34.12 -42.9l-7.92 36.92c-10.82,-16.03 -46.83,-19.82 -57.82,21.74 -11.53,43.58 26.03,57.42 44.26,37.73l2.5 6.77 16.91 -0.04 22.08 -104.13c-6.45,-0.23 -15.33,-1.12 -20.01,1.01z"/>
    <path class="fil8" d="M806.61 1732.23l93.25 152.18 104.44 0.23c-2.08,-5.06 -14.58,-21.66 -18.51,-27.52l-57.83 -82.62c-2.91,-4.29 -71.72,-105.74 -77.98,-109.23l-32.22 49.77c-3.33,5 -8.67,12.06 -11.15,17.19z"/>
   </g>
   <path class="fil9" d="M5025.36 647.96c-15.68,66.48 -141.48,65.32 -109.14,-28.35 10.6,-30.7 28.73,-49.87 67.34,-51.64 40.22,-1.86 55.87,28.87 45.72,67.16l-74.02 0.21c-1.16,1.78 -15.56,38.89 -0.55,44.41 17.69,6.49 24.23,-18.94 27.02,-32l43.63 0.21zm-66.72 -27.71l29.83 0.48c3.61,-6.14 15.34,-45.35 -8.59,-39.06 -13.46,3.52 -17.14,23.12 -21.24,38.58zm-371.44 1.56c28.71,-0.27 37.35,-6.51 46.46,-39.65 8.63,-31.39 13.28,-55.23 -22.25,-52.69l-24.21 92.34zm516.46 -30.1c3.42,-1.87 3.59,-3.8 6.39,-6.78 5.52,-5.86 12.02,-12.25 22.06,-14.21 34.02,-6.68 35.7,47.2 4.8,46.16 -7.71,-0.27 -13.16,-4.43 -16.21,-8.42 -4.3,-5.6 -4.1,-11.79 -3.6,-19.78 -7.8,1.83 -12.52,13.97 -15.86,20.65 -7.56,15.2 -21.25,65.04 -23.75,79.93l-43.03 -0.08 26.76 -102.38 -15.62 -0.12 3.29 -13.26 59.16 0.1 -4.39 18.19zm-274.38 -18.28l92.27 -0.04c-1.67,5.24 -12.64,21.16 -16.14,26.61 -5.42,8.48 -46.79,72.76 -47.6,75.93l37.37 0.02 -3.26 13.32 -91.76 -0.25c1.97,-5.04 26.53,-43.24 31.63,-51.28 4.35,-6.86 29.76,-46.71 31.18,-51l-37.42 -0.09 3.73 -13.22zm-153.69 22.39c-4.43,11.98 -10.17,19.35 -18.35,25.56 -18.45,14.01 -47.01,12.6 -73.08,13.97 -5.79,9.72 -10.1,45.76 -15.63,53.92l-43.02 -0.1c2.93,-21.55 42.03,-147.72 41.59,-159.9l-18.71 -0.06 3.34 -13.17c28.6,-0.71 59.48,-0.61 88.11,-0.07 26.73,0.5 44.31,16.92 43.89,44.08 -0.17,10.99 -4.65,26.34 -8.14,35.77zm-44.55 205.96l69.7 -254.09c9.32,-34.51 20.4,-67.53 52.51,-87.14 37.9,-23.15 89.56,-10.35 87.5,29.09 -1.61,30.58 -46.27,34.16 -46.4,2.05 -0.07,-15.93 10.19,-21.29 22.11,-24.43 -0.64,-11.92 -42.83,-27.77 -56.36,23.49 -3.11,11.8 -21.25,76.36 -21.49,82.58l73.59 0.05 -30.43 115.64 -42.72 0.3c2.6,-15.62 9.26,-35.96 13.51,-51.74 2.44,-9.06 13.02,-44.42 12.93,-50.77l-30.62 -0.02 -62.4 231.24c15.36,3.15 32.74,9.38 54.92,13.8 63.13,12.57 128.86,12.24 191.83,2.75 50.74,-7.65 111.6,-28.06 153.72,-54.32 7.13,-4.45 13.96,-8.83 20.59,-13.62 33.96,-24.49 63.29,-55.62 77.96,-95.91 14.14,-38.89 9.91,-80.27 -7.23,-114.58 -27.45,-54.94 -87.1,-98.55 -154.31,-123.08 -148.03,-54.03 -334.52,-36.33 -445.44,46.75 -58.16,43.56 -100.21,108.65 -75.39,186.95 8.28,26.08 22.55,45.82 38.86,64.69l17.9 17.27c22.71,18.93 55.67,42.62 85.16,53.05z"/>
   <g>
    <path class="fil10" d="M438.89 815.2l5.74 0 0 8.18c2.26,-3.11 4.86,-5.44 7.8,-7 2.94,-1.55 6.22,-2.33 9.84,-2.33 6.32,0 11.72,2.27 16.21,6.82 4.49,4.55 6.74,10.03 6.74,16.43 0,6.54 -2.23,12.09 -6.68,16.65 -4.44,4.57 -9.82,6.85 -16.11,6.85 -3.54,0 -6.79,-0.73 -9.76,-2.2 -2.97,-1.48 -5.65,-3.67 -8.04,-6.59l0 23.85 -5.74 0 0 -60.66zm22.93 4.44c-4.92,0 -9.06,1.72 -12.43,5.17 -3.36,3.45 -5.05,7.73 -5.05,12.86 0,3.37 0.75,6.39 2.25,9.08 1.5,2.68 3.65,4.81 6.45,6.39 2.79,1.57 5.75,2.36 8.86,2.36 3.06,0 5.93,-0.8 8.62,-2.38 2.69,-1.59 4.83,-3.81 6.43,-6.66 1.59,-2.85 2.39,-5.83 2.39,-8.95 0,-3.15 -0.79,-6.13 -2.38,-8.95 -1.57,-2.82 -3.71,-5.02 -6.38,-6.58 -2.68,-1.56 -5.6,-2.34 -8.76,-2.34z"/>
    <path class="fil10" d="M518.41 820l-3.69 3.8c-3.07,-2.97 -6.08,-4.45 -9.02,-4.45 -1.87,0 -3.47,0.62 -4.8,1.85 -1.33,1.24 -2,2.67 -2,4.31 0,1.46 0.55,2.84 1.64,4.15 1.09,1.34 3.39,2.92 6.9,4.73 4.27,2.22 7.18,4.34 8.71,6.38 1.51,2.07 2.26,4.39 2.26,6.97 0,3.65 -1.29,6.74 -3.86,9.27 -2.57,2.53 -5.79,3.79 -9.65,3.79 -2.57,0 -5.02,-0.55 -7.37,-1.65 -2.33,-1.12 -4.27,-2.64 -5.8,-4.59l3.6 -4.09c2.93,3.35 6.04,5.03 9.33,5.03 2.3,0 4.25,-0.75 5.87,-2.22 1.62,-1.48 2.43,-3.22 2.43,-5.23 0,-1.65 -0.54,-3.1 -1.61,-4.4 -1.07,-1.25 -3.47,-2.84 -7.22,-4.76 -4.03,-2.08 -6.77,-4.13 -8.22,-6.14 -1.45,-2.02 -2.17,-4.32 -2.17,-6.91 0,-3.39 1.16,-6.2 3.47,-8.43 2.32,-2.24 5.24,-3.36 8.78,-3.36 4.11,0 8.25,1.98 12.42,5.95z"/>
    <path class="fil10" d="M530.68 796.84c1.35,0 2.5,0.46 3.46,1.39 0.96,0.93 1.44,2.05 1.44,3.36 0,1.29 -0.48,2.39 -1.44,3.33 -0.96,0.92 -2.11,1.38 -3.46,1.38 -1.33,0 -2.47,-0.46 -3.42,-1.38 -0.96,-0.94 -1.44,-2.04 -1.44,-3.33 0,-1.31 0.48,-2.43 1.44,-3.36 0.95,-0.93 2.09,-1.39 3.42,-1.39zm-2.85 18.36l5.74 0 0 44.45 -5.74 0 0 -44.45z"/>
    <path class="fil10" d="M588.49 824.28l-4.55 2.82c-3.91,-5.17 -9.26,-7.75 -16.03,-7.75 -5.42,0 -9.92,1.75 -13.5,5.24 -3.58,3.49 -5.36,7.73 -5.36,12.71 0,3.24 0.82,6.3 2.46,9.16 1.65,2.86 3.91,5.08 6.78,6.66 2.87,1.59 6.09,2.38 9.66,2.38 6.52,0 11.86,-2.59 15.99,-7.75l4.55 2.99c-2.13,3.19 -5,5.66 -8.58,7.42 -3.59,1.76 -7.68,2.64 -12.26,2.64 -7.04,0 -12.89,-2.23 -17.53,-6.7 -4.63,-4.47 -6.95,-9.91 -6.95,-16.31 0,-4.3 1.08,-8.3 3.25,-11.99 2.17,-3.69 5.15,-6.58 8.95,-8.64 3.79,-2.08 8.03,-3.11 12.73,-3.11 2.95,0 5.79,0.44 8.53,1.32 2.75,0.89 5.07,2.05 6.98,3.47 1.91,1.42 3.54,3.23 4.88,5.44z"/>
    <path class="fil10" d="M620.46 814.05c6.83,0 12.48,2.48 16.97,7.44 4.07,4.52 6.11,9.87 6.11,16.06 0,6.21 -2.16,11.64 -6.46,16.29 -4.31,4.64 -9.85,6.96 -16.62,6.96 -6.79,0 -12.34,-2.32 -16.64,-6.96 -4.31,-4.65 -6.46,-10.08 -6.46,-16.29 0,-6.16 2.03,-11.5 6.11,-16.02 4.48,-4.99 10.15,-7.48 16.99,-7.48zm-0.01 5.59c-4.71,0 -8.76,1.77 -12.14,5.3 -3.38,3.52 -5.07,7.79 -5.07,12.79 0,3.23 0.77,6.24 2.31,9.03 1.54,2.79 3.63,4.94 6.25,6.46 2.62,1.51 5.5,2.28 8.65,2.28 3.14,0 6.02,-0.77 8.64,-2.28 2.63,-1.52 4.71,-3.67 6.25,-6.46 1.54,-2.79 2.32,-5.8 2.32,-9.03 0,-5 -1.7,-9.27 -5.1,-12.79 -3.39,-3.53 -7.43,-5.3 -12.11,-5.3z"/>
    <path class="fil10" d="M672.57 797.98l0 5.52c-2.08,-0.91 -3.85,-1.36 -5.32,-1.36 -1.1,0 -2.01,0.23 -2.74,0.68 -0.73,0.46 -1.18,0.98 -1.37,1.58 -0.19,0.59 -0.28,2.16 -0.28,4.73l-0.01 6.07 9.29 0 0 5.01 -9.3 0 -0.02 39.44 -5.74 0 0 -39.44 -5.88 0 0 -5.01 5.88 0 0 -6.97c0,-3.2 0.29,-5.48 0.87,-6.85 0.58,-1.36 1.57,-2.45 2.96,-3.3 1.39,-0.82 3.07,-1.24 5.05,-1.24 1.84,0 4.04,0.38 6.61,1.14z"/>
    <path class="fil10" d="M724.97 815.2l0 44.45 -5.74 0 0 -7.64c-2.4,2.91 -5.1,5.11 -8.08,6.58 -2.99,1.48 -6.26,2.21 -9.81,2.21 -6.3,0 -11.68,-2.28 -16.15,-6.85 -4.46,-4.56 -6.69,-10.11 -6.69,-16.65 0,-6.4 2.25,-11.88 6.75,-16.43 4.51,-4.55 9.93,-6.82 16.26,-6.82 3.65,0 6.96,0.78 9.92,2.33 2.97,1.56 5.56,3.89 7.8,7l0 -8.18 5.74 0zm-23 4.44c-3.18,0 -6.11,0.78 -8.8,2.34 -2.68,1.56 -4.82,3.76 -6.4,6.58 -1.6,2.82 -2.39,5.8 -2.39,8.95 0,3.12 0.8,6.1 2.4,8.95 1.6,2.85 3.75,5.07 6.46,6.66 2.7,1.58 5.59,2.38 8.69,2.38 3.12,0 6.08,-0.79 8.88,-2.36 2.79,-1.58 4.95,-3.71 6.45,-6.39 1.51,-2.69 2.26,-5.71 2.26,-9.08 0,-5.13 -1.69,-9.41 -5.07,-12.86 -3.38,-3.45 -7.54,-5.17 -12.48,-5.17z"/>
    <path class="fil10" d="M735.72 815.2l5.74 0 0 6.5c1.76,-2.57 3.61,-4.48 5.56,-5.75 1.95,-1.26 3.99,-1.9 6.11,-1.9 1.59,0 3.29,0.5 5.11,1.51l-2.99 4.86c-1.21,-0.52 -2.23,-0.78 -3.05,-0.78 -1.93,0 -3.79,0.78 -5.58,2.35 -1.79,1.57 -3.15,3.99 -4.09,7.29 -0.72,2.53 -1.07,7.65 -1.07,15.35l0 15.02 -5.74 0 0 -44.45z"/>
    <path class="fil10" d="M762.78 815.2l5.74 0 0 7.68c1.99,-2.83 4.04,-4.91 6.15,-6.22 2.9,-1.74 5.95,-2.61 9.15,-2.61 2.16,0 4.21,0.42 6.15,1.26 1.94,0.85 3.53,1.97 4.76,3.38 1.23,1.41 2.3,3.42 3.2,6.03 1.9,-3.49 4.28,-6.14 7.13,-7.96 2.85,-1.81 5.91,-2.71 9.2,-2.71 3.07,0 5.78,0.78 8.13,2.33 2.34,1.55 4.09,3.72 5.23,6.5 1.13,2.78 1.71,6.94 1.71,12.5l0 24.27 -5.74 0 0 -24.25c0,-4.76 -0.34,-8.03 -1.02,-9.82 -0.68,-1.78 -1.85,-3.22 -3.49,-4.31 -1.65,-1.08 -3.62,-1.63 -5.91,-1.63 -2.77,0 -5.31,0.82 -7.61,2.45 -2.3,1.63 -3.98,3.82 -5.04,6.53 -1.07,2.73 -1.6,7.27 -1.6,13.64l0 17.39 -5.73 0 0 -22.73c0,-5.37 -0.34,-9 -1.01,-10.92 -0.67,-1.92 -1.84,-3.46 -3.5,-4.62 -1.67,-1.15 -3.65,-1.74 -5.94,-1.74 -2.66,0 -5.13,0.8 -7.44,2.4 -2.31,1.58 -4.02,3.72 -5.12,6.42 -1.11,2.7 -1.66,6.82 -1.66,12.37l0 18.82 -5.74 0 0 -44.45z"/>
    <path class="fil10" d="M885.95 815.2l0 44.45 -5.73 0 0 -7.64c-2.41,2.91 -5.1,5.11 -8.09,6.58 -2.99,1.48 -6.26,2.21 -9.8,2.21 -6.31,0 -11.69,-2.28 -16.15,-6.85 -4.47,-4.56 -6.7,-10.11 -6.7,-16.65 0,-6.4 2.25,-11.88 6.76,-16.43 4.5,-4.55 9.92,-6.82 16.25,-6.82 3.65,0 6.96,0.78 9.93,2.33 2.96,1.56 5.56,3.89 7.8,7l0 -8.18 5.73 0zm-22.99 4.44c-3.18,0 -6.11,0.78 -8.8,2.34 -2.69,1.56 -4.83,3.76 -6.41,6.58 -1.59,2.82 -2.39,5.8 -2.39,8.95 0,3.12 0.81,6.1 2.4,8.95 1.61,2.85 3.76,5.07 6.46,6.66 2.7,1.58 5.6,2.38 8.7,2.38 3.11,0 6.07,-0.79 8.87,-2.36 2.8,-1.58 4.95,-3.71 6.45,-6.39 1.51,-2.69 2.26,-5.71 2.26,-9.08 0,-5.13 -1.69,-9.41 -5.07,-12.86 -3.38,-3.45 -7.54,-5.17 -12.47,-5.17z"/>
    <path class="fil10" d="M949.95 795.39c0,3.32 -0.83,6.41 -2.48,9.26 -1.65,2.85 -3.91,5.11 -6.78,6.77 -2.87,1.67 -5.95,2.5 -9.23,2.5 -3.28,0 -6.36,-0.82 -9.24,-2.48 -2.87,-1.66 -5.14,-3.92 -6.79,-6.78 -1.66,-2.85 -2.49,-5.91 -2.49,-9.18 0,-3.29 0.83,-6.39 2.49,-9.28 1.65,-2.89 3.91,-5.16 6.78,-6.81 2.87,-1.65 5.95,-2.47 9.25,-2.47 3.29,0 6.37,0.82 9.22,2.47 2.85,1.64 5.1,3.89 6.77,6.79 1.66,2.89 2.5,5.95 2.5,9.21zm-2.59 0.03c0,-2.81 -0.71,-5.46 -2.14,-7.93 -1.43,-2.49 -3.36,-4.43 -5.81,-5.86 -2.45,-1.42 -5.08,-2.13 -7.91,-2.13 -2.84,0 -5.5,0.71 -7.99,2.13 -2.48,1.43 -4.44,3.37 -5.86,5.86 -1.41,2.47 -2.12,5.13 -2.12,7.98 0,2.83 0.71,5.47 2.12,7.92 1.42,2.46 3.38,4.39 5.87,5.82 2.5,1.42 5.16,2.13 7.98,2.13 2.81,0 5.45,-0.72 7.91,-2.14 2.46,-1.44 4.41,-3.37 5.82,-5.82 1.43,-2.44 2.13,-5.1 2.13,-7.96zm-23.59 -10.68l8.83 0c2.06,0 3.55,0.2 4.45,0.62 0.91,0.41 1.65,1.09 2.22,2.02 0.56,0.93 0.85,2.03 0.85,3.28 0,1.08 -0.17,2 -0.52,2.78 -0.31,0.58 -0.99,1.21 -2.05,1.9 0.96,0.47 1.6,1.01 1.94,1.62 0.32,0.62 0.49,1.68 0.49,3.18l0 2.38c0,1.12 0.24,2.06 0.73,2.81l0.34 0.56 -3.87 0c-0.2,-0.87 -0.35,-1.91 -0.43,-3.11l-0.14 -2.6c-0.06,-0.95 -0.22,-1.62 -0.45,-2.01 -0.25,-0.39 -0.59,-0.67 -1.03,-0.84 -0.44,-0.17 -1.32,-0.26 -2.64,-0.26l-5.28 0 0 8.82 -3.44 0 0 -21.15zm3.44 3.08l0 6.24 5.14 0c1.56,0 2.62,-0.18 3.17,-0.54 0.83,-0.51 1.23,-1.38 1.23,-2.61 0,-1.06 -0.29,-1.84 -0.88,-2.34 -0.58,-0.5 -1.69,-0.75 -3.31,-0.75l-5.35 0z"/>
    <path class="fil10" d="M602.99 537.21l5.97 0c0,-21.31 17.34,-38.65 38.64,-38.65 21.31,0 38.65,17.34 38.65,38.65 0,21.3 -17.34,38.64 -38.65,38.64l0 5.97c24.6,0 44.62,-20.02 44.62,-44.61 0,-24.6 -20.02,-44.62 -44.62,-44.62 -24.59,0 -44.61,20.02 -44.61,44.62z"/>
    <path class="fil10" d="M558.79 537.21c0,5.06 4.11,9.17 9.18,9.17 5.07,0 9.18,-4.11 9.18,-9.17 0,-38.85 31.6,-70.46 70.45,-70.46 38.85,0 70.46,31.61 70.46,70.46 0,39.5 -30.13,70.45 -68.59,70.45 -5.07,0 -9.18,4.11 -9.18,9.18 0,5.07 4.11,9.18 9.18,9.18 48.75,0 86.94,-39.01 86.94,-88.81 0,-48.98 -39.84,-88.82 -88.81,-88.82 -48.97,0 -88.81,39.84 -88.81,88.82z"/>
    <path class="fil10" d="M525.17 537.21c0,32.7 12.74,63.45 35.86,86.57l4.22 -4.22c-22,-21.99 -34.11,-51.24 -34.11,-82.35 0,-64.23 52.24,-116.47 116.46,-116.47 40.64,0 77.69,20.65 99.1,55.25l5.08 -3.14c-22.51,-36.36 -61.46,-58.08 -104.18,-58.08 -67.5,0 -122.43,54.93 -122.43,122.44z"/>
    <path class="fil10" d="M776.72 615.54c-27.03,44.48 -74.19,71.63 -126.16,72.63 -5.06,0.1 -9.09,4.29 -9,9.36 0.1,5.06 4.29,9.1 9.36,9 58.28,-1.13 111.17,-31.57 141.49,-81.45 2.64,-4.33 1.26,-9.99 -3.07,-12.61 -4.34,-2.64 -9.99,-1.26 -12.62,3.07z"/>
    <path class="fil10" d="M478.25 537.21c0,59.8 30.58,114.01 81.8,144.98 4.34,2.63 9.99,1.23 12.6,-3.1 2.63,-4.34 1.24,-9.98 -3.09,-12.6 -45.68,-27.63 -72.95,-75.96 -72.95,-129.28 0,-83.27 67.73,-151 150.99,-151 55.28,0 106.1,30.17 132.62,78.72 2.44,4.45 8.01,6.09 12.46,3.66 4.45,-2.43 6.09,-8.01 3.65,-12.46 -29.74,-54.45 -86.73,-88.28 -148.73,-88.28 -93.38,0 -169.35,75.98 -169.35,169.36z"/>
    <path class="fil10" d="M834.02 453.83l-46.15 0c-16.59,0 -70.72,5.78 -70.72,80.21 0,5.07 4.11,9.18 9.18,9.18 5.07,0 9.18,-4.11 9.18,-9.18 0,-53.82 32.8,-61.86 52.36,-61.86 0,0 25.19,0 36.97,0 0,15.26 0,122.93 0,138.19 -12,0 -38.78,0 -38.78,0 -5.08,0 -9.18,4.11 -9.18,9.18 0,5.07 4.1,9.18 9.18,9.18l57.14 0 0 -174.9 -9.18 0z"/>
    <path class="fil10" d="M833.11 494.34l-28.7 0c-26.04,0 -40.39,14.12 -40.39,39.75l0.05 3.16c0,64.17 -52.25,116.42 -116.47,116.42l0 5.97c51.42,0 95.35,-31.95 113.46,-76.95 1.8,0 75.04,0 75.04,0l0 -88.35 -2.99 0zm-63.07 42.87l-0.05 -3.17c0,-27.87 18.72,-33.73 34.42,-33.73 0,0 20.93,0 25.72,0 0,5.33 0,71.07 0,76.41 -5.27,0 -62.29,0 -67.21,0 4.28,-12.47 7.12,-25.61 7.12,-39.51z"/>
    <path class="fil10" d="M806.94 529.59c-5.07,0 -9.18,4.11 -9.18,9.18 0,5.06 4.11,9.17 9.18,9.17l27.36 0c5.07,0 9.18,-4.11 9.18,-9.17 0,-5.07 -4.11,-9.18 -9.18,-9.18l-27.36 0z"/>
    <path class="fil10" d="M639.77 536.46c0,0 0,210.02 0,226.98 -12.59,0 -50.04,0 -62.62,0 0,-16.95 0,-226.23 0,-226.23 0,-5.08 -4.11,-9.18 -9.18,-9.18 -5.07,0 -9.18,4.1 -9.18,9.18l0 244.59 99.33 0 0 -245.34c0,-5.07 -4.1,-9.18 -9.17,-9.18 -5.07,0 -9.18,4.11 -9.18,9.18z"/>
    <polygon class="fil10" points="602.99,769.33 608.96,769.33 608.96,537.21 602.99,537.21 "/>
   </g>
   <g>
    <path class="fil11" d="M2239.6 565.02c-5.93,-4.39 -15.2,-7.08 -24.23,-6.93 -9.78,0.12 -19.16,3.27 -25.66,8.45l0 -61.78 -30.59 0 0 201.49 30.59 0 0 -105.15c0,-7.33 6.15,-15.39 17.56,-15.9 5.04,-0.2 12.1,1.97 15.65,7.3 3.8,5.66 3.57,13.15 3.57,21.38l-0.03 92.37 30.56 0 0 -93.56c0,-27.57 -3.59,-37.4 -17.42,-47.67z"/>
    <path class="fil11" d="M2020.5 610.42c-4.33,-43.07 -28.79,-52.3 -48.86,-52.3 -28.44,0 -45.78,18.08 -48.9,52.25 -0.23,2.73 -0.69,7.75 -0.84,23.82 -0.11,11.73 0.64,21.36 0.79,23.78 1.98,31.9 20.26,51.55 48.95,51.55 28.68,0 46.95,-20.01 48.94,-51.56 0.13,-2.27 0.79,-12.04 0.79,-23.77 0,-5.29 -0.47,-19.71 -0.87,-23.77zm-29.57 23.77c0,19.74 -0.62,25.28 -0.78,27 -1.04,10.93 -5.71,22.53 -18.45,22.53 -12.73,0 -17.91,-12.38 -18.45,-23.07 -0.01,-0.06 -0.79,-6.72 -0.79,-26.46 0,-19.74 0.78,-27.97 0.79,-28.04 0.16,-11.12 5.92,-22.25 18.45,-22.25 12.54,0 18.3,11.13 18.44,22.15 0.01,0.17 0.79,8.4 0.79,28.14z"/>
    <path class="fil11" d="M2345.78 656.42c0,0 0.06,2.25 -0.26,4.99 -0.84,7.12 -3.68,22.31 -18.57,22.31 -12.67,0 -17.51,-11.54 -18.36,-23 -0.19,-3.27 -0.78,-6.89 -0.75,-19.28l68.16 0c0,0 0.11,-10.14 -0.07,-16.24 -0.1,-2.39 -0.23,-6.39 -0.8,-14.8 -0.92,-12.91 -5.76,-27.04 -13.14,-36.15 -8.58,-10.58 -20.68,-16.13 -35.04,-16.13 -27.52,0 -44.73,17.89 -48.12,52.27 -0.28,3.06 -0.81,7.35 -0.81,23.8 0,11.73 0.65,21.52 0.78,23.78 1.87,31.37 20.41,51.55 48.15,51.55 27.72,0 46.26,-19.65 48.18,-53.1l-29.35 0zm-37.73 -40.35c0.21,-6.68 0.21,-8.07 0.35,-10.02 0.88,-12.07 6.25,-22.05 18.62,-22.15 14.69,-0.11 18.11,14.26 18.63,22.22 0.29,4.18 0.59,6.98 0.56,9.95l-38.16 0z"/>
    <path class="fil11" d="M2334.02 377.25l-520.8 0 -211.32 245.39 211.34 243.82 520.76 0 210.6 -243.01 -210.58 -246.2zm-508.8 24.68l496.79 0 189.96 222.23 -189.92 219.19 -496.84 0 -190.69 -219.94 190.7 -221.48z"/>
    <path class="fil11" d="M1903.78 693.8c0,0.01 -3.16,-49.48 -3.16,-49.48 -1.36,-22.14 -7.12,-35.15 -18.56,-41.84 8.27,-4.97 18.95,-17.28 18.87,-42.97 -0.16,-39.11 -24.44,-52.83 -53.05,-53.15l-46.71 0 0 199.89 30.17 0 0.02 -91.43 16.79 0c9.71,0 20.67,8.49 22.32,32.33l3.15 46.81c0.24,6.63 1.5,12.31 1.5,12.31l30.19 0c0,0 -1.3,-5.49 -1.53,-12.47zm-72.42 -161.67l14.46 0c15.73,0 24.26,8.35 24.65,23.23 0.03,1.1 0.17,2.35 0.17,4.68 0,2.7 -0.05,3.63 -0.17,4.7 -0.86,8.83 -4.75,24.29 -23.17,24.29l-15.94 0 0 -56.9z"/>
    <path class="fil11" d="M2109.79 655.04c-0.12,2.22 -0.25,4.22 -0.37,5.61 -0.87,11.18 -4.81,23.07 -18.46,23.07 -12.73,0 -17.77,-12.89 -18.7,-22.36 -0.55,-5.74 -0.42,-10.2 -0.54,-27.17 -0.13,-19.74 0.51,-24.81 0.78,-28.04 1.08,-12.47 5.93,-22.15 18.46,-22.25 12.88,-0.08 18.31,11.13 18.46,22.15 0,0.1 0.25,2.77 0.47,8.62l30.22 0c-0.08,-2.01 -0.17,-3.7 -0.25,-4.69 -3.44,-41.76 -28.88,-51.86 -48.95,-51.86 -28.44,0 -45.77,18.08 -48.9,52.25 -0.24,2.73 -0.68,7.75 -0.83,23.82 -0.11,11.73 0.64,21.36 0.79,23.78 1.96,31.9 20.25,51.46 48.94,51.55 29.72,0.1 46.1,-18.01 48.95,-51.56 0.1,-1.24 0.27,-2.06 0.17,-2.92l-30.24 0z"/>
   </g>
   <rect class="fil12 str0" x="5" y="4.99" width="1378.83" height="1233.71"/>
   <rect class="fil12 str0" x="1383.83" y="4.99" width="1378.83" height="1233.71"/>
   <rect class="fil12 str0" x="2762.67" y="4.99" width="1378.83" height="1233.71"/>
   <rect class="fil12 str0" x="4141.5" y="4.99" width="1378.83" height="1233.71"/>
   <rect class="fil12 str0" x="9.04" y="1246.33" width="1378.83" height="1233.71"/>
   <rect class="fil12 str0" x="1387.88" y="1246.33" width="1378.83" height="1233.71"/>
   <rect class="fil12 str0" x="2766.71" y="1246.33" width="1378.83" height="1233.71"/>
   <g>
    <path class="fil13" d="M1607.4 1793.1l0 7.45c2.49,6.36 0.36,40.24 4.24,43.75 5.69,4.16 171.92,14.39 193.21,15.55 66.43,3.63 138.55,8.12 204.94,7.11l-4.91 -5.77c-2.36,-2.21 -3.06,-3.11 -5.07,-5.58 -25.74,-31.73 -35.32,-70.07 -19.63,-110.37 35.21,-90.46 161.51,-88.82 194.9,1.72 11.92,32.33 7.41,69.86 -11.9,98.03 -7.23,10.55 -17.2,19.11 -19.08,21.98 89.32,0.35 211.5,-6.34 303.23,-13.54 15.91,-1.24 87.26,-5.41 96.9,-9.12 0.48,-10.06 0.09,-36.36 2.97,-43.73l0 -7.5c-24.63,1.18 -50.89,4.79 -75.77,6.72 -77.47,6 -152.43,11.43 -230.54,13.4 3.67,-30.01 3.57,-51.06 -5.65,-78.78 -7.15,-21.5 -19.23,-41.89 -31.82,-55.03 -57.34,-59.77 -95.18,-48.86 -115.44,-57.1l-21.36 0c-10.12,4.12 -35.17,1.99 -67.52,19.35 -37.51,20.13 -66.66,52.6 -80.04,93.67 -8.97,27.54 -8.94,48.19 -5.34,77.89 -75.58,-2.04 -155.81,-7.15 -231.4,-13.46 -24.25,-2.02 -50.93,-5.68 -74.92,-6.64z"/>
    <path class="fil13" d="M1607.4 2096.97l0 7.12 4.51 0c11.85,-5.18 199.37,-16.01 226.43,-17.39 199.92,-10.18 393.84,-7.09 593.19,7.1 15.32,1.09 105.03,7.2 111.98,10.29l3.69 0 0 -8.13c-3,-7.62 -2.32,-33.25 -3.02,-43.64 -8.8,-2.94 -44.52,-4.73 -56.27,-5.74 -18.61,-1.6 -37.38,-2.98 -56.09,-4.43 -184.6,-14.31 -409.82,-17.2 -593.64,-7.05 -18.31,1.02 -213.2,12.32 -227.75,17.23 -0.7,10.12 -0.27,37.45 -3.03,44.64z"/>
    <path class="fil13" d="M2107.98 2005.72l23.82 -0.04 0.03 -65.35 40.35 65.25 21.55 0.14 -0.01 -114.53 -23.77 -0.23 -0.05 63.13c-6.66,-8.1 -13.66,-21.71 -19.56,-31.29 -5.53,-8.97 -15.36,-23.29 -18.93,-31.85l-23.39 0.04 -0.04 114.73z"/>
    <path class="fil13" d="M1916.07 2005.82l23.94 -0.06 -0.03 -65.4 40.62 65.5 20.78 -0.16 0.46 -114.11 -23.8 -0.69 -0.04 63.04c-2.34,-1.78 -36.19,-57.72 -38.49,-62.88l-23.4 -0.11 -0.04 114.87z"/>
    <path class="fil13" d="M1742.18 1911.41c15.47,-2.4 33.21,-0.01 33.04,16.61 -0.19,17.17 -17.66,18.48 -33,16.39l-0.04 -33zm-24.16 94.22l24.21 0.15 -0.02 -40.64 16.3 -0.43 18.08 40.65 28.29 0.4 -22.81 -46.84c18.38,-8.93 25.57,-38.1 8.57,-55.9 -7.36,-7.7 -15.47,-11.51 -29.73,-11.96 -13.61,-0.43 -29.25,-0.41 -42.86,0.02l-0.03 114.55z"/>
    <path class="fil13" d="M1607.4 1940.1l0 13.97c3,6.67 3.22,36.95 31.62,49.42 22.07,9.69 47.95,2.48 62.59,-10.03l0.3 -54.14 -43.64 0.08 0.12 20.66 19.11 0.06 0.02 23.46c-49.21,18.83 -57.13,-55.39 -27.58,-71.29 6.55,-3.52 13.57,-3.48 21.01,-1.31 8.56,2.5 9.85,5.93 15.33,8.64 2.87,-3.59 11.41,-13.68 13.02,-18.13 -8.88,-4.16 -12.31,-9.12 -26.35,-11.67 -11.27,-2.05 -24.29,-1.13 -34.01,3.11 -9.25,4.04 -16.09,9.64 -21.3,18 -2.23,3.58 -4.47,7.87 -6.17,12.84 -1.74,5.1 -2.11,12 -4.07,16.33z"/>
    <polygon class="fil13" points="2283.72,2005.82 2308.16,2005.73 2308.16,1958.11 2343.39,1958.02 2343.59,2005.72 2368.03,2005.78 2368,1890.95 2343.61,1890.99 2343.58,1936.6 2308.1,1936.89 2308.14,1891.09 2283.76,1890.96 "/>
    <path class="fil13" d="M2424.02 1929.39l11.15 34.08 -23.3 -0.35 12.15 -33.73zm-51.13 76.29l24.97 0.08 5.32 -17.15c1.78,-4.8 0.2,-3.15 3.64,-5.01l35.94 0.02 6.95 21.93 26.81 0.23 -40.07 -114.63 -23.4 -0.1 -40.16 114.63z"/>
    <polygon class="fil13" points="2021.03,2005.78 2093.97,2005.76 2093.95,1984.84 2045.76,1984.68 2045.47,1958.18 2086.23,1957.94 2086.27,1936.85 2045.9,1936.9 2045.52,1912.14 2092.89,1911.99 2092.82,1891.08 2021.06,1890.97 "/>
    <path class="fil13" d="M1897.75 1922.14l-24.12 -0.02c-1.87,30.53 7.11,63.76 -17.6,64.47 -26.33,0.75 -17.17,-33.25 -18.94,-64.46l-24.44 0.12c-0.42,14.64 -1.64,49.31 2.79,60.63 13.36,34.21 63.76,32.64 78.95,0.13 5.19,-11.14 4.15,-46.7 3.36,-60.87z"/>
    <polygon class="fil13" points="2200.95,1912.18 2226.03,1912.21 2226,2005.63 2251.56,2005.8 2251.57,1912.37 2276.73,1912.23 2276.65,1890.93 2200.87,1890.98 "/>
    <polygon class="fil13" points="2481.68,2005.69 2543.19,2005.78 2543.18,1984.37 2506.44,1984.42 2506.09,1890.93 2481.71,1891 "/>
    <polygon class="fil13" points="1873.4,1912.07 1897.99,1912.01 1897.91,1891 1873.46,1890.97 "/>
    <polygon class="fil13" points="1837.3,1911.49 1837.26,1890.98 1813.07,1890.91 1812.94,1911.67 "/>
    <polygon class="fil14" points="1837.3,1911.49 1812.94,1911.67 1813.07,1890.91 1812.58,1912 "/>
   </g>
   <g>
    <path class="fil15" d="M3226.17 1922.51c0.22,8.72 1.68,11.64 3.91,12.42 1.91,0.67 4.04,0.77 5.82,0.77 1.23,0 1.9,0.23 1.9,0.92 0,0.89 -1,1.1 -2.56,1.1 -7.29,0 -11.76,-0.32 -13.89,-0.32 -1.01,0 -6.26,0.32 -12.08,0.32 -1.46,0 -2.47,-0.1 -2.47,-1.1 0,-0.69 0.67,-0.92 1.79,-0.92 1.45,0 3.47,-0.1 5.04,-0.53 2.91,-0.9 3.36,-4.16 3.46,-13.89l1.01 -66.28c0,-2.22 0.34,-3.8 1.47,-3.8 1.23,0 2.23,1.46 4.13,3.48 1.35,1.45 18.36,19.69 34.71,35.92 7.61,7.61 22.72,23.74 24.61,25.53l0.57 0 -1.12 -50.25c-0.12,-6.83 -1.12,-8.97 -3.81,-10.08 -1.67,-0.67 -4.36,-0.67 -5.93,-0.67 -1.34,0 -1.78,-0.35 -1.78,-1.02 0,-0.9 1.22,-0.99 2.9,-0.99 5.83,0 11.19,0.33 13.54,0.33 1.24,0 5.49,-0.33 10.98,-0.33 1.45,0 2.57,0.09 2.57,0.99 0,0.67 -0.67,1.02 -2.02,1.02 -1.11,0 -2.01,0 -3.35,0.33 -3.14,0.9 -4.03,3.25 -4.15,9.5l-1.22 70.64c0,2.47 -0.45,3.48 -1.46,3.48 -1.23,0 -2.58,-1.24 -3.81,-2.46 -7.05,-6.74 -21.38,-21.38 -33.01,-32.92 -12.21,-12.1 -24.63,-26.08 -26.64,-28.21l-0.35 0 1.24 47.02z"/>
    <path class="fil15" d="M3398 1897.55c0,-25.08 -14.44,-40.64 -32.8,-40.64 -12.88,0 -27.54,7.16 -27.54,35.04 0,23.29 12.87,41.74 34.37,41.74 7.84,0 25.97,-3.81 25.97,-36.14zm-75.78 -2.14c0,-19.14 12.64,-43.86 46.23,-43.86 27.86,0 45.21,16.22 45.21,41.87 0,25.62 -17.91,45.87 -46.34,45.87 -32.12,0 -45.1,-24.05 -45.1,-43.88z"/>
    <path class="fil15" d="M3437.3 1864.07c-2.57,-6.15 -4.47,-7.37 -8.5,-8.5 -1.68,-0.44 -3.47,-0.44 -4.37,-0.44 -1,0 -1.34,-0.35 -1.34,-1.02 0,-0.9 1.23,-0.99 2.91,-0.99 5.94,0 12.32,0.33 16.24,0.33 2.79,0 8.17,-0.33 13.76,-0.33 1.35,0 2.57,0.22 2.57,0.99 0,0.79 -0.66,1.02 -1.67,1.02 -1.79,0 -3.47,0.1 -4.37,0.78 -0.78,0.56 -1.12,1.34 -1.12,2.34 0,1.45 1.01,4.59 2.57,8.63l19.26 50.83 0.45 0c4.81,-12.33 19.36,-48.37 22.04,-55.75 0.56,-1.46 1.01,-3.14 1.01,-4.15 0,-0.9 -0.45,-1.8 -1.45,-2.13 -1.34,-0.45 -3.02,-0.55 -4.48,-0.55 -1,0 -1.9,-0.13 -1.9,-0.91 0,-0.88 1.01,-1.1 3.13,-1.1 5.59,0 10.31,0.33 11.75,0.33 1.91,0 7.17,-0.33 10.52,-0.33 1.47,0 2.36,0.22 2.36,0.99 0,0.79 -0.69,1.02 -1.79,1.02 -1.12,0 -3.47,0 -5.5,1.34 -1.45,1 -3.12,2.9 -6.15,10.06 -4.36,10.53 -7.38,16.57 -13.42,30.35 -7.18,16.35 -12.43,28.54 -14.89,34.13 -2.91,6.5 -3.58,8.28 -5.15,8.28 -1.45,0 -2.13,-1.57 -4.25,-6.83l-28.22 -68.39z"/>
    <path class="fil15" d="M3563.71 1902.91c0.57,0 0.68,-0.33 0.57,-0.65l-10.09 -27.66c-0.11,-0.45 -0.21,-1.01 -0.55,-1.01 -0.34,0 -0.56,0.56 -0.69,1.01l-10.27 27.54c-0.11,0.44 0,0.77 0.43,0.77l20.6 0zm-22.84 5.61c-0.56,0 -0.77,0.23 -0.98,0.89l-6.07 16.01c-1.11,2.79 -1.68,5.48 -1.68,6.83 0,2.02 1.01,3.45 4.48,3.45l1.68 0c1.33,0 1.68,0.23 1.68,0.92 0,0.89 -0.67,1.1 -1.9,1.1 -3.58,0 -8.39,-0.32 -11.87,-0.32 -1.23,0 -7.39,0.32 -13.21,0.32 -1.45,0 -2.13,-0.21 -2.13,-1.1 0,-0.69 0.46,-0.92 1.34,-0.92 1.03,0 2.58,-0.1 3.48,-0.2 5.14,-0.69 7.29,-4.49 9.52,-10.08l28.09 -70.29c1.36,-3.25 2.02,-4.49 3.13,-4.49 1.02,0 1.67,1.01 2.8,3.58 2.7,6.17 20.61,51.84 27.75,68.85 4.27,10.06 7.51,11.64 9.88,12.2 1.67,0.33 3.34,0.43 4.68,0.43 0.91,0 1.47,0.13 1.47,0.92 0,0.89 -1.02,1.1 -5.15,1.1 -4.04,0 -12.22,0 -21.17,-0.21 -2,-0.11 -3.35,-0.11 -3.35,-0.89 0,-0.69 0.45,-0.92 1.57,-1.02 0.78,-0.22 1.57,-1.23 1,-2.57l-8.96 -23.72c-0.22,-0.56 -0.54,-0.79 -1.1,-0.79l-24.98 0z"/>
    <path class="fil15" d="M3642.61 1894.41c0,1.23 0.21,1.68 0.99,2.01 2.35,0.79 5.71,1.13 8.51,1.13 4.46,0 5.93,-0.46 7.95,-1.91 3.36,-2.46 6.59,-7.61 6.59,-16.79 0,-15.9 -10.51,-20.47 -17.12,-20.47 -2.8,0 -4.81,0.09 -5.93,0.44 -0.78,0.23 -0.99,0.67 -0.99,1.57l0 34.02zm-13.21 -8.85c0,-17 0,-20.14 -0.25,-23.72 -0.23,-3.8 -1.11,-5.6 -4.81,-6.38 -0.89,-0.23 -2.79,-0.33 -4.36,-0.33 -1.23,0 -1.91,-0.23 -1.91,-1.02 0,-0.77 0.81,-0.99 2.47,-0.99 5.93,0 12.98,0.33 15.34,0.33 3.8,0 12.3,-0.33 15.78,-0.33 7.04,0 14.55,0.66 20.6,4.8 3.13,2.14 7.61,7.84 7.61,15.35 0,8.27 -3.47,15.88 -14.78,25.05 9.97,12.55 17.69,22.51 24.29,29.45 6.27,6.5 10.86,7.27 12.54,7.61 1.23,0.22 2.23,0.32 3.14,0.32 0.88,0 1.33,0.35 1.33,0.92 0,0.89 -0.79,1.1 -2.12,1.1l-10.63 0c-6.27,0 -9.06,-0.55 -11.99,-2.12 -4.81,-2.57 -9.05,-7.83 -15.33,-16.45 -4.49,-6.16 -9.61,-13.77 -11.08,-15.45 -0.57,-0.67 -1.22,-0.79 -2.02,-0.79l-9.73 -0.21c-0.56,0 -0.88,0.21 -0.88,0.88l0 1.58c0,10.41 0,19.24 0.54,23.96 0.34,3.24 1.01,5.69 4.36,6.15 1.7,0.23 4.15,0.43 5.48,0.43 0.9,0 1.35,0.35 1.35,0.92 0,0.78 -0.77,1.1 -2.23,1.1 -6.5,0 -14.78,-0.32 -16.47,-0.32 -2.12,0 -9.17,0.32 -13.64,0.32 -1.46,0 -2.25,-0.32 -2.25,-1.1 0,-0.57 0.45,-0.92 1.8,-0.92 1.68,0 3.02,-0.2 4.03,-0.43 2.24,-0.46 2.79,-2.91 3.25,-6.15 0.57,-4.72 0.57,-13.55 0.57,-23.86l0 -19.7z"/>
    <path class="fil15" d="M3742.26 1859.37l-16.69 0.45c-6.51,0.24 -9.17,0.79 -10.86,3.25 -1.13,1.68 -1.67,3.02 -1.9,3.91 -0.23,0.9 -0.57,1.35 -1.23,1.35 -0.8,0 -1.02,-0.56 -1.02,-1.8 0,-1.78 2.14,-11.96 2.36,-12.86 0.34,-1.45 0.66,-2.12 1.34,-2.12 0.89,0 2.01,1.11 4.8,1.34 3.26,0.32 7.52,0.56 11.22,0.56l44.3 0c7.18,0 9.86,-1.12 10.76,-1.12 0.79,0 0.9,0.66 0.9,2.35 0,2.35 -0.33,10.07 -0.33,12.99 -0.1,1.11 -0.35,1.77 -1,1.77 -0.92,0 -1.13,-0.55 -1.26,-2.23l-0.1 -1.23c-0.23,-2.91 -3.25,-6.04 -13.22,-6.28l-14.09 -0.33 0 45.89c0,10.31 0,19.14 0.57,23.96 0.33,3.14 1,5.59 4.35,6.05 1.57,0.23 4.03,0.43 5.72,0.43 1.22,0 1.78,0.35 1.78,0.92 0,0.78 -0.9,1.1 -2.13,1.1 -7.39,0 -14.43,-0.32 -17.57,-0.32 -2.56,0 -9.62,0.32 -14.11,0.32 -1.45,0 -2.23,-0.32 -2.23,-1.1 0,-0.57 0.45,-0.92 1.79,-0.92 1.69,0 3.04,-0.2 4.03,-0.43 2.24,-0.46 2.91,-2.91 3.26,-6.15 0.56,-4.72 0.56,-13.55 0.56,-23.86l0 -45.89z"/>
    <path class="fil15" d="M3823.18 1885.56c0,-17 0,-20.14 -0.23,-23.72 -0.23,-3.8 -1.34,-5.71 -3.81,-6.27 -1.23,-0.34 -2.7,-0.44 -4.03,-0.44 -1.12,0 -1.78,-0.23 -1.78,-1.12 0,-0.67 0.89,-0.89 2.68,-0.89 4.25,0 11.29,0.33 14.55,0.33 2.8,0 9.4,-0.33 13.66,-0.33 1.45,0 2.35,0.22 2.35,0.89 0,0.89 -0.67,1.12 -1.81,1.12 -1.1,0 -2,0.1 -3.34,0.33 -3.03,0.55 -3.91,2.46 -4.14,6.38 -0.24,3.58 -0.24,6.72 -0.24,23.72l0 19.7c0,10.87 0,19.7 0.47,24.52 0.34,3.02 1.12,5.03 4.47,5.49 1.56,0.23 4.02,0.43 5.71,0.43 1.22,0 1.78,0.35 1.78,0.92 0,0.78 -0.89,1.1 -2.12,1.1 -7.39,0 -14.44,-0.32 -17.46,-0.32 -2.59,0 -9.63,0.32 -14.1,0.32 -1.46,0 -2.24,-0.32 -2.24,-1.1 0,-0.57 0.44,-0.92 1.78,-0.92 1.69,0 3.03,-0.2 4.03,-0.43 2.25,-0.46 2.93,-2.35 3.25,-5.59 0.57,-4.72 0.57,-13.55 0.57,-24.42l0 -19.7z"/>
    <path class="fil15" d="M3881.35 1936.38c-1.78,-0.78 -2.11,-1.34 -2.11,-3.79 0,-6.15 0.45,-12.88 0.56,-14.68 0.11,-1.68 0.44,-2.9 1.33,-2.9 1.01,0 1.12,1.02 1.12,1.89 0,1.47 0.44,3.81 1.01,5.73 2.47,8.27 9.06,11.29 16.01,11.29 10.07,0 14.99,-6.82 14.99,-12.76 0,-5.49 -1.68,-10.75 -10.96,-17.9l-5.15 -4.04c-12.33,-9.62 -16.56,-17.45 -16.56,-26.52 0,-12.31 10.29,-21.15 25.85,-21.15 7.27,0 11.97,1.11 14.87,1.9 1.02,0.22 1.58,0.56 1.58,1.33 0,1.46 -0.44,4.71 -0.44,13.45 0,2.45 -0.33,3.35 -1.25,3.35 -0.77,0 -1.1,-0.68 -1.1,-2.02 0,-1 -0.57,-4.48 -2.91,-7.39 -1.68,-2.11 -4.94,-5.47 -12.22,-5.47 -8.28,0 -13.31,4.81 -13.31,11.53 0,5.13 2.57,9.05 11.87,16.12l3.12 2.34c13.45,10.4 18.38,17.9 18.38,28.55 0,6.48 -2.47,14.21 -10.55,19.47 -5.58,3.59 -11.83,4.58 -17.79,4.58 -6.49,0 -11.5,-0.78 -16.34,-2.91z"/>
    <path class="fil16" d="M3054.53 1945.15c-62.1,-4.76 -80.99,-40.48 -60.18,-80.67 11.2,-21.65 28.32,-44.95 7.92,-66.47 -0.56,-0.71 -0.09,-1.16 0.76,-0.78 46.46,18.53 22.29,55.92 14.36,71.4 -15.64,30.54 -5.67,67.63 37.14,75.6 0.94,0.2 0.87,1 0,0.92z"/>
    <path class="fil15" d="M3062.83 1911.09l10.5 -129.83 -24.63 -0.03 13.26 129.86c0.06,0.83 0.8,0.8 0.87,0z"/>
    <path class="fil17" d="M3090.94 1845.73c15.34,12.06 40.35,79.14 -20.71,98.48 -0.99,0.25 -0.91,1 0.01,0.91 97.12,-12.15 63.75,-81.83 21.52,-100.21 -1.13,-0.54 -1.66,0.17 -0.82,0.82z"/>
   </g>
  </g>
 </g>
</svg>
