<?xml version="1.0" encoding="UTF-8"?>
<!DOCTYPE svg PUBLIC "-//W3C//DTD SVG 1.0//EN" "http://www.w3.org/TR/2001/REC-SVG-20010904/DTD/svg10.dtd">
<!-- Creator: CorelDRAW X8 -->
<svg xmlns="http://www.w3.org/2000/svg" xml:space="preserve" width="1527px" height="400px" version="1.0" style="shape-rendering:geometricPrecision; text-rendering:geometricPrecision; image-rendering:optimizeQuality; fill-rule:evenodd; clip-rule:evenodd"
viewBox="0 0 763 200"
 xmlns:xlink="http://www.w3.org/1999/xlink">
 <defs>
  <style type="text/css">
   <![CDATA[
    .fil0 {fill:#959291;fill-rule:nonzero}
   ]]>
  </style>
 </defs>
 <g id="Capa_x0020_1">
  <metadata id="CorelCorpID_0Corel-Layer"/>
  <g id="_2486002991008">
   <path class="fil0" d="M674 59c0,-4 -3,-6 -7,-6l-9 0c-4,0 -7,2 -7,6l0 100c0,4 3,7 7,7l9 0c4,0 7,-3 7,-7l0 -100z"/>
   <path class="fil0" d="M686 62l0 4c0,2 2,4 4,4l66 0c3,0 5,-2 5,-5l0 -9c0,-3 -2,-5 -5,-5 0,0 -64,6 -66,7 -3,0 -4,2 -4,4z"/>
   <path class="fil0" d="M632 166c-16,0 -26,-13 -26,-27l0 -40 -5 0c-3,0 -5,-2 -5,-4l0 -7c0,-2 2,-5 5,-5l5 0 0 -24c0,-4 2,-6 6,-6l9 0c4,0 7,2 7,6l0 24 14 0c3,0 5,3 5,5l0 7c0,2 -2,4 -5,4l-14 0 0 37c0,8 4,13 12,13l1 0c3,0 5,2 5,4l0 8c0,2 -2,5 -5,5l-9 0 0 0z"/>
   <path class="fil0" d="M478 98c10,0 19,7 19,16l-38 0c1,-9 9,-16 19,-16l0 -17c-26,0 -41,20 -41,42 0,24 16,44 41,44 18,0 35,-9 39,-24 0,-2 -1,-5 -4,-5l-13 0c-2,0 -4,1 -5,3 -4,5 -9,8 -17,8 -11,0 -18,-9 -19,-18l54 -1c5,0 7,-2 7,-7 0,-21 -13,-42 -42,-42l0 17z"/>
   <path class="fil0" d="M722 98c10,0 18,7 19,16l-38 0c1,-9 9,-16 19,-16l0 -17c-27,0 -42,20 -42,42 0,24 16,44 42,44 18,0 35,-9 38,-24 1,-2 -1,-5 -3,-5l-13 0c-2,0 -4,1 -5,3 -4,5 -9,8 -17,8 -11,0 -19,-9 -19,-18l53 -1c5,0 7,-2 7,-7 0,-21 -12,-42 -41,-42l0 17z"/>
   <path class="fil0" d="M588 54l-174 0c-4,0 -7,3 -7,7l1 68c0,0 -38,-68 -39,-71 -2,-3 -6,-6 -12,-6l-14 0c-4,0 -7,3 -7,7l0 99c0,4 3,8 7,8l9 0c4,0 7,-4 7,-8l0 -69c0,0 37,68 39,70 2,4 6,7 11,7l13 0c4,0 7,-4 7,-8l0 -87 159 0c2,0 4,-3 4,-5l0 -7c0,-3 -2,-5 -4,-5z"/>
   <path class="fil0" d="M560 97c7,0 13,3 15,7 1,3 3,3 5,3l11 0c1,0 3,-1 3,-4 0,-12 -14,-22 -34,-22 -22,0 -35,10 -35,26 0,12 9,19 21,22 6,1 15,4 19,5 5,1 9,3 9,7 0,6 -6,9 -14,9 -7,0 -14,-4 -16,-9 -1,-3 -4,-3 -7,-3l-10 0c-2,0 -4,2 -4,4l0 1c0,12 15,24 37,24 15,0 37,-6 37,-27 0,-12 -8,-20 -21,-23 -5,-1 -17,-4 -20,-5 -5,-1 -9,-3 -9,-7 0,-6 5,-8 13,-8z"/>
   <path class="fil0" d="M176 24c2,0 3,1 3,3 0,2 -1,4 -3,4 -2,0 -3,-2 -3,-4 0,-2 1,-3 3,-3z"/>
   <path class="fil0" d="M129 19c2,0 3,1 3,3 0,1 -1,3 -3,3 -1,0 -3,-2 -3,-3 0,-2 2,-3 3,-3z"/>
   <path class="fil0" d="M94 96l-1 -2c4,-3 8,-9 9,-13 0,-3 5,-2 4,1 -1,5 -6,10 -12,14z"/>
   <path class="fil0" d="M65 26c-7,3 -9,10 -3,15 6,5 16,1 15,-8 8,1 14,-8 12,-14 4,-3 4,-10 0,-12 -5,-3 -9,-2 -12,3 -8,0 -15,6 -12,16l-4 -2c-4,-9 4,-19 14,-17 2,-5 9,-10 17,-5 7,4 8,14 1,19 3,9 -3,17 -13,16 -1,12 -12,13 -20,7 -4,-3 -5,-7 -6,-11 -1,-3 -1,-6 -5,-10 -2,-3 -7,-3 -7,-3 0,-8 -8,-16 -18,-12 -4,-3 -8,-4 -11,0 -2,2 -3,8 3,11 -1,8 5,13 14,12 0,4 5,8 9,9l0 2c-4,-1 -7,1 -10,5 -10,-1 -17,4 -17,11 -7,2 -9,9 -4,13 4,4 10,3 12,-2 7,1 14,-4 14,-10 7,0 10,-3 11,-9l3 0c0,7 -3,13 -11,13 0,8 -8,12 -15,9 -4,7 -12,9 -18,3 -7,-6 -4,-16 4,-19 0,-8 6,-15 17,-12 0,0 2,-4 6,-4 -3,-1 -5,-3 -5,-5 -9,2 -16,-6 -14,-14 -8,-4 -8,-12 -4,-16 4,-5 11,-6 17,-1 10,-6 21,1 20,13 8,-1 12,5 11,12 1,-3 3,-4 5,-5l4 2z"/>
   <path class="fil0" d="M82 12l2 1c-3,7 -9,15 -14,19l-2 -2c3,-6 11,-15 14,-18z"/>
   <path class="fil0" d="M33 50l1 2c-5,4 -12,10 -16,12l-2 -2c4,-4 12,-10 17,-12z"/>
   <path class="fil0" d="M43 30l-2 2c-6,-4 -17,-13 -19,-17l1 -1c6,2 16,11 20,16z"/>
   <path class="fil0" d="M32 122c1,3 0,6 3,10 1,1 7,8 11,12 -6,2 -16,6 -24,7 -2,1 -4,2 -5,3 -1,1 -2,4 -3,8 0,2 0,5 0,7 0,3 1,10 4,15 3,6 6,8 9,9 0,0 2,0 4,0 6,0 10,3 12,6 1,1 3,1 5,1 5,0 10,-2 15,-3 1,-1 4,-3 7,-6 3,-2 19,-16 27,-19 3,2 10,4 16,4 1,0 2,0 3,0 2,0 5,-1 8,-2 6,-1 13,-2 15,-2 5,0 21,0 25,0 4,0 9,0 11,0 4,-1 11,-3 18,-6 7,-4 22,-14 24,-16 1,-1 3,-2 3,-3 1,-1 1,-1 1,-1 0,-1 0,-11 0,-11 0,0 3,-4 5,-5 0,0 0,0 0,0 -1,-2 -2,-9 -1,-15l-4 -2c0,8 -3,15 -6,19 -5,1 -15,4 -19,8l2 1c4,-2 7,-3 12,-3 3,0 5,1 5,2 0,0 -1,2 -1,3 0,0 -1,1 -1,2 -5,5 -11,10 -18,14 -4,2 -9,4 -16,6 -2,1 -5,1 -7,2 -2,0 -16,0 -24,0 -8,0 -24,1 -29,2 -2,1 -3,2 -6,2 -5,0 -12,-3 -16,-5 0,0 -2,1 -3,2 -3,1 -10,10 -14,7 -2,4 -10,8 -13,12 1,-2 4,-16 4,-19 0,0 0,-1 0,-1 -3,-5 -11,-8 -16,-9 -2,-1 -2,-1 -3,-1l-8 -2 -7 2 8 2 -10 6c2,0 13,-3 14,-4 0,0 2,0 3,0 2,1 6,2 8,3 2,0 4,3 5,4 0,1 0,2 0,5 1,2 0,4 0,6 -1,5 -4,9 -5,11 -1,2 -2,2 -3,3 -3,1 -5,2 -8,2 -2,0 -4,0 -5,-2 -2,-3 -9,-7 -17,-6 -4,-2 -8,-11 -8,-18 0,-4 2,-10 3,-13 7,-1 21,-7 28,-10 2,0 6,-1 9,-1 10,0 19,8 24,13 1,-1 3,-3 8,-3 6,0 10,6 12,12l3 -3c0,-3 -2,-7 -5,-10 -2,-2 -6,-4 -10,-4 -2,0 -4,0 -5,0 -5,0 -7,-2 -10,-4 -4,-3 -11,-6 -16,-6 -3,0 -5,1 -7,1 -4,0 -6,-2 -7,-4 -1,-1 -5,-4 -6,-6 -1,-1 -2,-4 -2,-6l-6 -3z"/>
   <path class="fil0" d="M38 125c1,2 2,3 3,4 2,1 3,2 5,3 2,1 5,3 7,3 3,1 6,1 8,1 4,0 9,0 13,1 2,2 2,4 4,5 4,1 12,2 17,2 10,0 20,-2 26,-3l-3 -3c-4,0 -16,2 -22,2 -8,0 -16,-2 -16,-5 0,-2 3,-6 7,-6 6,0 13,3 15,4 1,0 2,0 3,0l2 -2c-3,-2 -17,-6 -22,-6 -2,0 -4,0 -5,2 -2,2 -7,4 -15,4 -4,0 -10,0 -11,-1 -3,-1 -7,-4 -10,-6 -4,-2 -7,-6 -10,-9 0,-1 -1,-2 -1,-4 0,0 0,-1 1,-2 0,1 1,2 2,3 4,4 10,7 17,8 1,0 3,0 5,0 2,0 5,-1 6,-2l-2 -3c-1,0 -3,0 -4,0 -9,0 -20,-6 -23,-13 0,-1 -1,-1 0,-2 0,0 0,-2 0,-3 1,1 2,2 4,3 3,2 9,5 11,6 3,-1 5,-2 7,-3 2,-1 5,-2 8,-2 6,0 14,3 21,7l5 -2c-6,-4 -20,-11 -28,-11 -4,0 -9,4 -12,4 -3,0 -14,-6 -14,-10 0,-3 7,-5 18,-7 -2,3 -4,6 -6,9l3 2c18,-25 36,-42 51,-52 6,-3 7,-6 9,-10 5,-9 9,-17 17,-17 4,0 7,2 9,5l5 2 -5 3 5 3c-7,2 -18,9 -22,20 -8,1 -12,7 -14,13 -2,3 -5,5 -9,8l-33 23 4 0 31 -20c6,-4 9,-7 10,-10 3,-6 6,-10 12,-10 3,0 6,1 9,4l5 1 -6 4 5 3c-14,4 -23,14 -28,34l4 0c2,-6 4,-12 7,-17 8,0 16,0 25,0 21,0 39,1 49,3l-4 -6c-10,-1 -25,-2 -45,-2 -7,0 -14,0 -21,0 4,-5 11,-9 21,-12l-7 -3 7 -5 -10 -4c-2,-1 -4,-3 -7,-4 3,-10 15,-16 26,-20l-8 -3 8 -5 -12 -3c-3,-4 -6,-6 -11,-6 -11,0 -16,10 -20,19 -3,4 -4,6 -8,8 -9,6 -20,15 -30,26 -5,-4 -17,-16 -20,-22 -1,1 -2,5 -2,5 1,1 14,14 19,20 0,0 -1,0 -1,1 -5,1 -19,2 -23,2l-3 4c4,0 17,-2 23,-2 -2,2 -4,4 -5,6 -18,2 -29,6 -29,12 0,1 0,2 0,3 0,3 -1,4 -3,5 -1,1 -1,2 0,2 0,1 3,5 3,6 0,1 -1,2 -2,3 -1,1 -1,2 -1,3l5 11 6 3z"/>
   <path class="fil0" d="M251 66c-1,2 -2,3 -3,4l-2 -4c9,-12 33,-18 48,-19l0 -7c-2,1 -4,2 -6,2 -2,1 -5,1 -7,1 -2,0 -3,-1 -4,-2 -2,-3 0,-7 6,-11l-5 -4c-4,5 -8,11 -11,14 -4,3 -8,5 -11,2 -1,-1 -2,-1 -2,-5 0,-4 3,-11 6,-16l-6 0c-1,7 -4,13 -7,17 -4,6 -9,11 -14,14l-3 -3c4,-3 9,-6 12,-12 4,-6 8,-14 8,-20l17 1c-3,3 -7,10 -8,15 -1,3 -1,5 0,5 2,2 5,0 8,-4 4,-4 9,-11 11,-14l12 10c-6,3 -11,7 -10,8 1,2 5,2 9,0 3,0 6,-2 9,-3l0 16c-6,0 -16,1 -26,4 2,3 9,5 13,5l-2 14c-11,-5 -19,-7 -32,-8l5 -3c9,0 19,3 24,5l1 -5c-5,0 -11,-3 -14,-6 -4,1 -8,3 -11,6l-5 3z"/>
   <path class="fil0" d="M200 109l4 -8c-4,-5 -8,-11 -12,-18l-4 -6c-8,-15 -5,-22 -9,-28 -3,-6 -20,-2 -23,-2l5 -8 -10 1 8 -10c1,-1 2,-2 3,-6 1,-5 5,-13 18,-13 15,0 19,11 25,16 7,6 17,14 25,22l3 3c4,4 9,9 13,14l2 4c18,25 39,73 48,95 1,2 2,4 3,6 -7,-4 -14,-8 -21,-13l-4 -3c-3,-2 -6,-4 -8,-6l-5 -3c-2,-2 -5,-4 -7,-7l8 50c1,3 3,3 5,0 2,-2 3,-3 2,-7l-8 -36 5 3 7 31c1,3 2,4 6,4 3,0 4,-1 3,-3l-8 -26 4 3 8 23c2,6 0,7 -4,7 -3,0 -7,-1 -9,0 -2,2 -4,5 -7,8 -3,3 -6,2 -7,-3l-10 -57c-6,-6 -12,-12 -17,-18 -2,-1 -5,-2 -7,-3l-4 -2c-1,0 -2,-1 -2,-1 -3,3 -6,7 -9,9 -1,2 -2,3 -4,3 -1,0 -2,0 -3,-1 -1,0 -2,-1 -3,-3 0,-1 -1,-2 -2,-4 -2,-3 -4,-7 -6,-10 -2,-4 -4,-6 -4,-7 0,0 -1,-1 -1,-1 -1,1 -2,4 -2,6l-4 -1c1,-2 2,-5 2,-7 0,-1 -1,-3 -2,-3 -2,0 -4,2 -4,5l-4 2c0,-6 2,-12 8,-12 4,0 7,4 9,7 2,3 9,12 10,14l3 4c1,2 2,3 2,4 1,1 2,1 3,0 1,-1 3,-2 5,-5 2,-1 4,-4 4,-5 2,1 6,3 9,4 -13,-16 -25,-35 -31,-48 -2,-5 3,-7 5,-2 5,15 22,40 34,54 14,15 40,38 57,47 -2,-5 -6,-12 -9,-20 -21,-11 -42,-32 -51,-51l4 1c9,16 31,37 43,43 -11,-25 -26,-56 -38,-69 -15,-17 -31,-30 -38,-36 -8,-7 -11,-15 -22,-15 -9,0 -13,6 -15,13 -1,1 -1,2 -2,3l-4 5 9 -1 -5 7c0,0 14,-3 19,4 6,7 2,16 11,31 4,7 13,20 16,23l-6 13 -3 -4z"/>
   <path class="fil0" d="M60 111l-2 -1c1,-1 4,-3 6,-4 1,0 3,0 4,0 2,0 4,1 6,2 3,1 7,3 10,3 1,0 2,0 3,0 3,0 5,1 7,1 1,0 1,0 2,-1 2,-2 4,-4 6,-5 3,-1 7,-2 10,-2 3,0 6,1 8,1 0,0 -3,3 -3,3 -3,0 -9,0 -13,2 -2,1 -3,2 -3,4 0,2 3,3 7,4 2,1 4,1 6,1 2,0 6,-1 11,-2 5,-1 10,-2 11,-3l2 4c-6,2 -12,4 -17,5 -3,0 -6,1 -9,1 -4,0 -9,-2 -13,-4 -3,-2 -6,-3 -9,-3 -3,0 -6,1 -9,2 -1,1 -5,4 -9,5 -3,2 -5,2 -8,2 -2,0 -4,0 -5,-1l4 -3c1,1 2,1 3,1 0,0 1,0 3,-1 1,0 2,-1 3,-2 2,-1 2,-2 3,-2 1,-1 2,-3 0,-4 -1,-1 -2,-2 -3,-2 -1,-1 -2,-2 -5,-2 -3,0 -6,1 -7,1z"/>
   <path class="fil0" d="M121 113c0,0 -2,-1 -3,-1 2,-2 4,-4 6,-5 3,-3 7,-4 13,-4 1,0 4,-1 6,-1 2,0 4,1 7,1 2,0 3,1 5,1 0,0 3,0 4,0 4,-1 9,-2 12,-4l1 4c-6,3 -12,6 -17,6 -3,0 -6,-1 -9,-1 -5,0 -9,-1 -11,-1 -4,0 -10,2 -14,5z"/>
   <path class="fil0" d="M117 135l-5 -3c7,-3 18,-7 23,-8 4,0 9,-1 12,-2 1,4 4,7 8,7 1,0 3,-1 6,-2 2,-1 5,-2 6,-3 2,0 6,-3 10,-4 2,-1 6,-3 6,-3l3 1c-1,4 -2,8 -4,11 0,1 -1,2 -2,3 -1,1 -3,3 -5,5 -3,2 -6,4 -9,6 -3,1 -6,3 -9,4l-1 -2c4,-3 9,-6 12,-9 2,-1 4,-2 5,-3 1,-1 2,-2 2,-3 1,-1 3,-5 4,-6 -2,1 -8,4 -11,5 -3,1 -8,4 -10,5 -2,1 -4,2 -6,2 -3,0 -4,-2 -5,-4 -2,-3 -4,-3 -9,-4 -7,0 -15,3 -21,7z"/>
   <path class="fil0" d="M147 119c0,0 -1,-3 -1,-4 0,0 1,-1 2,-1 2,0 7,1 9,1 7,0 10,-2 12,-4 2,-2 3,-3 8,-3 5,0 10,1 11,2l0 4c-2,-1 -5,-2 -8,-2 -1,0 -3,0 -4,1 -2,1 -2,2 -4,3 -1,1 -3,2 -5,2 -2,1 -5,2 -9,2 -6,0 -9,-1 -11,-1z"/>
   <path class="fil0" d="M101 149l3 -2c3,2 8,3 11,3 2,0 3,-1 5,-1 1,-1 12,-6 17,-8 2,-1 4,-1 5,-1 1,0 1,0 2,1 1,2 9,14 10,14 7,-2 14,-5 18,-9 4,-4 8,-9 12,-13 1,-1 3,-2 3,-3 4,-2 15,-2 20,-2l-3 4c-8,0 -13,1 -15,3 -1,0 -2,2 -3,3 -3,4 -6,9 -8,10 3,2 5,3 10,3 7,0 12,-4 15,-7l2 2c-2,2 -4,4 -6,6 -3,2 -7,3 -9,4 -4,-1 -13,-3 -15,-3 -8,3 -20,8 -25,9 0,1 -1,1 -3,1 -3,0 -8,0 -12,0 -3,0 -6,0 -7,0l-4 -4c3,0 5,1 8,1 7,0 12,-2 13,-2 2,0 2,-1 2,-2 -1,-2 -2,-4 -4,-6 -1,-1 -3,-3 -4,-3 -1,-1 -2,-1 -4,0 -3,1 -11,5 -14,7 -2,1 -3,1 -6,0 -3,0 -11,-3 -14,-5z"/>
   <path class="fil0" d="M123 55c1,0 3,2 3,3 0,2 -2,3 -3,3 -2,0 -3,-1 -3,-3 0,-1 1,-3 3,-3z"/>
  </g>
 </g>
</svg>
