<?xml version="1.0" encoding="UTF-8"?>
<!DOCTYPE svg PUBLIC "-//W3C//DTD SVG 1.0//EN" "http://www.w3.org/TR/2001/REC-SVG-20010904/DTD/svg10.dtd">
<!-- Creator: CorelDRAW X8 -->
<svg xmlns="http://www.w3.org/2000/svg" xml:space="preserve" width="1565px" height="400px" version="1.0" style="shape-rendering:geometricPrecision; text-rendering:geometricPrecision; image-rendering:optimizeQuality; fill-rule:evenodd; clip-rule:evenodd"
viewBox="0 0 1181 302"
 xmlns:xlink="http://www.w3.org/1999/xlink">
 <defs>
  <style type="text/css">
   <![CDATA[
    .fil1 {fill:none}
    .fil0 {fill:#004A90;fill-rule:nonzero}
    .fil3 {fill:#CE1041;fill-rule:nonzero}
    .fil2 {fill:#FEBE10;fill-rule:nonzero}
   ]]>
  </style>
     <clipPath id="id0">
      <path d="M528 226l76 0 0 76 -76 0 0 -76zm0 0z"/>
     </clipPath>
 </defs>
 <g id="Capa_x0020_1">
  <metadata id="CorelCorpID_0Corel-Layer"/>
  <g id="_2486076126048">
   <g id="surface1">
    <g>
    </g>
    <g style="clip-path:url(#id0)">
     <g>
      <path class="fil0" d="M539 293c-1,2 0,3 1,4l-12 0c2,-1 3,-2 4,-4l13 -51c2,-5 2,-6 0,-9 0,-1 -1,-3 -3,-4l22 0 18 34 8 -30c1,-2 1,-4 -1,-4l12 0c-2,0 -3,2 -3,4l-19 69c0,0 -28,-55 -28,-55l-12 46z"/>
     </g>
    </g>
    <path class="fil1" d="M528 226l76 0 0 76 -76 0 0 -76zm0 0z"/>
    <path class="fil0" d="M620 255c1,-3 -1,-4 -2,-4l20 -3c0,0 -7,25 -8,31 -3,8 1,9 4,9 2,0 5,-1 6,-3l8 -30c1,-3 -1,-4 -2,-4l19 -3 -9 37c-2,5 -1,7 1,8l-16 6c-2,-1 -3,-4 -2,-7 -4,3 -8,6 -15,6 -7,0 -14,-4 -10,-20 1,-4 6,-23 6,-23z"/>
    <path class="fil0" d="M694 257l-6 0 27 -20 -3 13 11 0 -3 7 -10 0 -6 24c-3,11 3,11 5,11 2,0 4,-1 5,-3 -1,3 -6,9 -14,9 -11,0 -15,-8 -13,-17l7 -24z"/>
    <path class="fil0" d="M770 260c-3,0 -5,1 -7,3l-8 30c0,2 0,3 1,4l-21 0c2,-1 3,-2 4,-4l10 -38c1,-3 -1,-4 -2,-4l20 -3 -2 9c4,-6 8,-9 12,-9 2,0 2,0 3,1l-5 19c0,-5 -2,-8 -5,-8z"/>
    <path class="fil0" d="M809 236c1,-5 5,-9 10,-9 4,0 6,4 5,9 -1,5 -6,9 -10,9 -4,0 -7,-4 -5,-9zm1 57c0,2 0,3 1,4l-20 0c1,-1 3,-2 3,-4l10 -38c1,-3 -1,-4 -2,-4l20 -3 -12 45z"/>
    <path class="fil0" d="M850 257l-6 0 28 -20 -4 13 11 0 -2 7 -11 0 -6 24c-3,11 3,11 5,11 3,0 4,-1 5,-3 -1,3 -5,9 -14,9 -11,0 -15,-8 -12,-17l6 -24z"/>
    <path class="fil0" d="M909 236c1,-5 6,-9 10,-9 4,0 7,4 5,9 -1,5 -6,9 -10,9 -4,0 -7,-4 -5,-9zm1 57c0,2 0,3 2,4l-21 0c2,-1 3,-2 3,-4l10 -38c1,-3 0,-4 -2,-4l20 -3 -12 45z"/>
    <path class="fil0" d="M971 273c3,-11 3,-19 -3,-19 -4,1 -9,7 -12,19 -3,14 0,19 3,18 4,0 9,-4 12,-18zm-14 25c-18,0 -19,-14 -17,-24 4,-14 15,-26 31,-26 14,0 20,11 16,25 -4,15 -16,25 -30,25z"/>
    <path class="fil0" d="M1049 293c-1,2 -1,3 1,4l-20 0c1,-1 2,-2 3,-4l7 -25c0,-3 3,-10 -4,-10 -2,0 -6,2 -7,3l-8 32c-1,2 0,3 1,4l-20 0c1,-1 3,-2 3,-4l10 -38c1,-3 0,-4 -1,-5l19 -2 -2 6c5,-4 10,-6 15,-6 9,0 13,6 10,16l-7 29z"/>
    <path class="fil0" d="M152 124l52 -78 37 0c-3,1 -6,4 -7,8l-31 115c-1,4 0,7 3,9l-38 0c3,-2 5,-5 6,-9l26 -95c0,-2 2,-5 2,-5l-4 5 -71 106 -14 -103 -1 -5c0,0 -1,3 -2,5l-24 92c-1,4 0,7 3,9l-23 0c4,-2 6,-5 7,-9l31 -115c1,-3 -1,-7 -3,-8l39 0 12 78z"/>
    <path class="fil0" d="M278 95c-9,0 -18,10 -21,22l29 0c4,-13 0,-22 -8,-22zm34 52c-6,16 -32,33 -56,33 -23,0 -39,-19 -31,-48 7,-26 30,-48 57,-48 21,0 36,12 27,45l-56 0c0,0 0,1 -1,3 -3,13 0,33 18,33 18,0 33,-7 42,-18z"/>
    <path class="fil0" d="M334 151c-2,9 2,13 9,13 5,0 9,-2 13,-5l8 -29c-6,2 -9,3 -15,6 -7,3 -13,7 -15,15zm2 -60c8,-3 20,-7 35,-7 10,0 31,2 23,32 -1,4 -12,45 -12,47 -2,5 -3,7 2,9l-25 8c-3,-3 -6,-5 -4,-12 -8,6 -19,12 -30,12 -16,0 -20,-15 -17,-25 2,-7 8,-16 19,-22 11,-6 30,-8 37,-13 4,-3 5,-6 5,-9 3,-9 0,-16 -8,-16 -14,0 -27,14 -33,24l8 -28z"/>
    <path class="fil0" d="M443 165c4,0 7,-2 10,-4l16 -60c-2,-3 -3,-6 -9,-6 -15,0 -26,19 -31,34 -7,29 6,36 14,36zm69 -122l-31 108c-1,6 -1,7 1,10l-35 21 3 -12c-6,4 -15,10 -26,10 -19,0 -31,-18 -23,-48 7,-26 33,-48 56,-48 8,0 11,2 15,5l9 -29c2,-7 -2,-8 -4,-8l35 -9z"/>
    <path class="fil0" d="M492 191l26 -96c1,-4 0,-7 -3,-9l36 -8c0,0 -1,2 -2,7l-26 96c-18,76 -63,74 -85,69 0,0 41,-11 54,-59z"/>
    <path class="fil0" d="M593 129c-12,0 -22,15 -28,38 -6,24 -1,37 9,36 12,0 21,-11 27,-37 6,-21 4,-37 -8,-37zm3 -10c30,0 40,21 33,47 -8,27 -31,48 -58,48 -34,0 -38,-27 -32,-46 7,-27 29,-49 57,-49z"/>
    <path class="fil0" d="M727 148l-15 56c-1,4 1,6 3,8l-36 0c3,-2 6,-4 7,-8l13 -50c3,-10 2,-19 -9,-19 -7,0 -13,4 -17,8l-17 61c-1,4 0,6 3,8l-37 0c4,-2 6,-4 7,-8l30 -109c1,-6 -2,-7 -4,-8l33 -8 -12 52c4,-4 18,-12 30,-12 18,0 27,9 21,29z"/>
    <path class="fil0" d="M898 122l-8 30c-1,-10 -4,-23 -14,-23 -9,0 -14,5 -15,9 -2,7 4,10 11,15 10,7 21,14 16,32 -5,21 -30,29 -43,29 -10,0 -18,-2 -26,-8l8 -31c-1,14 5,28 16,28 11,0 17,-7 18,-12 2,-7 -3,-9 -14,-17 -13,-10 -15,-18 -12,-29 4,-13 17,-26 41,-26 5,0 14,1 22,3z"/>
    <path class="fil0" d="M954 129c-12,0 -22,15 -28,38 -5,24 0,37 10,36 11,0 20,-11 27,-37 5,-21 3,-37 -9,-37zm4 -10c29,0 39,21 32,47 -8,27 -31,48 -58,48 -34,0 -38,-27 -32,-46 7,-27 29,-49 58,-49z"/>
    <path class="fil0" d="M1087 148l-15 56c-1,4 0,6 3,8l-36 0c4,-2 6,-4 7,-8l13 -49c2,-7 5,-20 -9,-20 -6,0 -13,4 -17,8l-16 61c-1,4 0,6 3,8l-36 0c3,-2 6,-4 7,-8l19 -72c2,-6 0,-8 -3,-9l33 -8 -3 16c8,-7 18,-12 31,-12 15,0 24,10 19,29z"/>
    <path class="fil0" d="M824 148l-16 56c-1,4 1,6 3,8l-36 0c4,-2 6,-4 7,-8l13 -49c2,-7 5,-20 -9,-20 -6,0 -13,4 -16,8l-17 61c-1,4 0,6 3,8l-36 0c3,-2 6,-4 7,-8l19 -72c2,-6 0,-8 -3,-9l33 -8 -3 16c8,-7 19,-12 31,-12 15,0 25,10 20,29z"/>
    <path class="fil2" d="M129 297c143,0 257,-66 311,-105 -51,27 -174,73 -288,73 -66,0 -118,-29 -118,-66 0,-14 8,-28 23,-39 -34,14 -57,36 -57,62 0,41 58,75 129,75z"/>
    <path class="fil3" d="M985 37c79,10 130,39 130,79 0,7 -2,13 -5,19 24,-14 37,-32 37,-51 0,-46 -68,-80 -177,-84 -109,-3 -258,30 -401,97 38,-18 249,-80 416,-60z"/>
    <path class="fil0" d="M1172 135l4 -12 5 0 0 17 -3 0 0 -13 0 0 -5 13 -2 0 -5 -13 0 0 0 13 -4 0 0 -17 5 0 5 12zm-13 -9l-5 0 0 14 -3 0 0 -14 -5 0 0 -3 13 0 0 3z"/>
   </g>
  </g>
 </g>
</svg>
