<?xml version="1.0" encoding="UTF-8"?>
<!DOCTYPE svg PUBLIC "-//W3C//DTD SVG 1.0//EN" "http://www.w3.org/TR/2001/REC-SVG-20010904/DTD/svg10.dtd">
<!-- Creator: CorelDRAW X8 -->
<svg xmlns="http://www.w3.org/2000/svg" xml:space="preserve" width="355px" height="400px" version="1.0" style="shape-rendering:geometricPrecision; text-rendering:geometricPrecision; image-rendering:optimizeQuality; fill-rule:evenodd; clip-rule:evenodd" viewBox="0 0 819 923" xmlns:xlink="http://www.w3.org/1999/xlink">
 <defs>
  <style type="text/css">
   <![CDATA[
    .fil1 {fill:black;fill-rule:nonzero}
    .fil0 {fill:#0E99D6;fill-rule:nonzero}
   ]]>
  </style>
 </defs>
 <g id="Capa_x0020_1">
  <metadata id="CorelCorpID_0Corel-Layer"/>
  <g id="_2486058535120">
   <path class="fil0" d="M0 109l675 0 0 0c19,0 35,16 35,35l0 367 0 0c0,19 -16,35 -36,35l-530 0c-19,0 -35,-16 -35,-35l0 -148c0,-20 16,-35 35,-35l456 0 0 -109 -491 0c-60,0 -108,48 -109,107l0 221c1,59 48,107 107,108l605 0c59,-1 107,-49 107,-109l0 -437c0,-60 -48,-109 -108,-109l-711 0 0 109zm0 0z"/>
   <path class="fil1" d="M91 847l35 0 -18 -51 0 0 -17 51zm50 -87l40 120c5,15 9,18 17,18l8 0 0 21 -87 0 0 -21 7 0c7,0 13,-1 13,-4 0,-2 0,-5 -1,-8l-5 -18 -49 0 -3 10c-3,8 -3,12 -3,15 0,4 8,5 14,5l7 0 0 21 -70 0 0 -21 8 0c8,0 12,-3 17,-18l40 -120 47 0zm0 0z"/>
   <path class="fil1" d="M260 863c0,24 5,39 18,39 14,0 19,-15 19,-39 0,-24 -5,-39 -19,-39 -13,0 -18,15 -18,39zm-40 -73c0,-7 -2,-11 -9,-11l-11 0 0 -19 60 0 0 60c8,-10 20,-17 30,-17 36,0 50,28 50,60 0,32 -14,60 -50,60 -15,0 -28,-6 -36,-19l-7 15 -27 0 0 -129zm0 0z"/>
   <path class="fil1" d="M394 863c0,24 5,39 19,39 13,0 19,-15 19,-39 0,-24 -6,-39 -19,-39 -14,0 -19,15 -19,39zm-40 -73c0,-7 -2,-11 -8,-11l-11 0 0 -19 59 0 0 60c9,-10 20,-17 31,-17 36,0 49,28 49,60 0,32 -13,60 -49,60 -15,0 -29,-6 -37,-19l-7 15 -27 0 0 -129zm0 0z"/>
   <path class="fil1" d="M528 863c0,28 5,40 19,40 15,0 20,-12 20,-40 0,-28 -5,-40 -20,-40 -14,0 -19,12 -19,40zm81 0c0,38 -26,60 -62,60 -35,0 -62,-22 -62,-60 0,-38 27,-60 62,-60 36,0 62,22 62,60z"/>
   <path class="fil1" d="M780 865l0 19c0,11 -3,17 -12,17 -5,0 -8,-4 -8,-9l0 -66 29 0 0 -19 -29 0 0 -45 -24 0c-2,20 -8,45 -32,45l-37 0 0 -45 -24 0c-2,20 -8,45 -32,45l0 19 16 0 0 60c0,24 13,36 37,37l3 0c28,-1 39,-14 39,-37l0 -21 -19 0 0 19c0,11 -3,17 -12,17 -5,0 -8,-4 -8,-9l0 -66 53 0 0 60c0,24 13,36 37,37l3 0c28,-1 39,-14 39,-37l0 -21 -19 0zm0 0z"/>
  </g>
 </g>
</svg>
