<?xml version="1.0" encoding="UTF-8"?>
<!DOCTYPE svg PUBLIC "-//W3C//DTD SVG 1.0//EN" "http://www.w3.org/TR/2001/REC-SVG-20010904/DTD/svg10.dtd">
<!-- Creator: CorelDRAW X8 -->
<svg xmlns="http://www.w3.org/2000/svg" xml:space="preserve" width="1256px" height="400px" version="1.0" style="shape-rendering:geometricPrecision; text-rendering:geometricPrecision; image-rendering:optimizeQuality; fill-rule:evenodd; clip-rule:evenodd"
viewBox="0 0 5812 1852"
 xmlns:xlink="http://www.w3.org/1999/xlink">
 <defs>
  <style type="text/css">
   <![CDATA[
    .fil2 {fill:#004B8D}
    .fil0 {fill:#004B8D;fill-rule:nonzero}
    .fil1 {fill:#ED2327;fill-rule:nonzero}
   ]]>
  </style>
 </defs>
 <g id="Capa_x0020_1">
  <metadata id="CorelCorpID_0Corel-Layer"/>
  <g id="_2485999382208">
   <path class="fil0" d="M917 6c-35,7 -613,128 -864,754 0,0 -263,675 384,1010 0,0 398,242 854,-107 0,0 359,-213 249,-779 0,0 -57,-277 -278,-423 0,0 -195,-78 -135,124 0,0 125,168 153,321 0,0 68,401 -405,487 0,0 -449,7 -463,-452 0,0 -32,-302 438,-551 0,0 188,-75 242,-210 0,0 42,-218 -175,-174z"/>
   <path class="fil1" d="M629 971c0,-124 101,-226 226,-226 125,0 226,102 226,226 0,125 -101,226 -226,226 -125,0 -226,-101 -226,-226z"/>
   <path class="fil2" d="M2486 1101c0,102 -117,180 -237,180 -97,0 -139,-50 -139,-133 0,-97 101,-116 164,-125 159,-20 191,-32 212,-48l0 126zm-353 -268c9,-58 30,-147 176,-147 121,0 180,43 180,124 0,76 -37,88 -68,91l-212 26c-213,26 -232,175 -232,240 0,131 99,221 240,221 149,0 226,-71 276,-125 5,59 22,117 136,117 29,0 48,-8 70,-14l0 -94c-14,3 -30,6 -42,6 -26,0 -42,-13 -42,-45l0 -441c0,-196 -223,-213 -284,-213 -189,0 -310,71 -316,254l118 0z"/>
   <path class="fil0" d="M3391 819c0,-38 -19,-240 -293,-240 -150,0 -289,76 -289,244 0,105 70,159 177,186l149 36c109,28 152,49 152,110 0,85 -83,122 -176,122 -181,0 -199,-97 -203,-157l-124 0c4,92 26,268 329,268 173,0 303,-95 303,-253 0,-104 -56,-163 -215,-202l-129 -32c-100,-25 -139,-40 -139,-103 0,-95 113,-108 152,-108 162,0 180,80 181,129l125 0z"/>
   <path class="fil2" d="M3553 1561l129 0 0 -276 3 0c33,54 101,103 203,103 260,0 366,-245 366,-427 0,-215 -145,-382 -348,-382 -139,0 -198,86 -228,130l-3 0 0 -108 -122 0 0 960zm123 -542c0,-124 20,-325 206,-325 199,0 239,189 239,287 0,168 -95,296 -236,296 -82,0 -209,-55 -209,-258z"/>
   <path class="fil2" d="M4477 922c0,-118 94,-228 212,-228 157,0 206,110 214,228l-426 0zm420 204c-4,57 -76,151 -198,151 -147,0 -222,-93 -222,-252l559 0c0,-271 -108,-446 -329,-446 -253,0 -367,188 -367,425 0,221 127,384 342,384 123,0 172,-30 208,-53 96,-64 131,-173 136,-209l-129 0z"/>
   <path class="fil0" d="M5812 845c0,-218 -149,-266 -268,-266 -131,0 -203,89 -231,130l-3 0 0 -108 -121 0 0 765 129 0 0 -417c0,-208 128,-255 202,-255 125,0 163,68 163,201l0 471 129 0 0 -521z"/>
  </g>
 </g>
</svg>
