<?xml version="1.0" encoding="UTF-8"?>
<!DOCTYPE svg PUBLIC "-//W3C//DTD SVG 1.0//EN" "http://www.w3.org/TR/2001/REC-SVG-20010904/DTD/svg10.dtd">
<!-- Creator: CorelDRAW X8 -->
<svg xmlns="http://www.w3.org/2000/svg" xml:space="preserve" width="516px" height="400px" version="1.0" style="shape-rendering:geometricPrecision; text-rendering:geometricPrecision; image-rendering:optimizeQuality; fill-rule:evenodd; clip-rule:evenodd" viewBox="0 0 260 201" xmlns:xlink="http://www.w3.org/1999/xlink">
 <defs>
  <style type="text/css">
   <![CDATA[
    .fil0 {fill:#0176BF}
    .fil1 {fill:#474F50}
   ]]>
  </style>
 </defs>
 <g id="Capa_x0020_1">
  <metadata id="CorelCorpID_0Corel-Layer"/>
  <g id="_2486079575648">
   <path class="fil0" d="M70 111c8,0 16,0 23,0 12,0 12,1 20,-5l0 22 33 0 1 -21 3 2c6,3 10,2 16,2 6,0 19,0 24,0 -3,8 -15,20 -22,24 -27,17 -57,14 -82,-4 -3,-2 -3,-4 -6,-6 -4,-4 -8,-8 -10,-14zm-1 -29l0 27c-3,-3 -5,-10 -6,-14 -5,-15 -3,-41 5,-49 3,2 34,31 22,36 -3,1 -17,0 -21,0zm123 -36c2,1 1,0 2,2 4,8 6,21 6,30 0,8 -4,28 -9,32l0 -28c-7,0 -19,2 -23,-1 -3,-13 14,-25 24,-35zm-108 7c13,0 18,-3 25,5 3,4 8,11 11,17l0 -44 19 0 0 44c2,-1 4,-7 6,-9 2,-4 3,-5 6,-8 4,-3 3,-5 9,-5 5,0 11,0 16,0 -1,1 -4,3 -5,4 -4,5 -10,10 -12,18 -3,17 13,14 25,14l1 15c-6,1 -26,1 -30,0 -3,-2 -8,-5 -9,-7 -4,-4 -5,-7 -7,-8l0 32 -19 0 0 -32c-3,4 -8,12 -15,15 -5,1 -23,0 -30,0l0 -15c11,0 28,3 25,-13 -1,-6 -4,-10 -6,-13 -6,-8 -7,-6 -10,-10zm-16 -8c17,-35 65,-50 101,-27 7,6 20,18 23,27 -9,0 -19,0 -28,0 -6,0 -8,-1 -11,3 -2,1 -6,5 -7,6l0 -31 -33 0 0 31c-9,-8 -5,-9 -18,-9 -8,0 -19,0 -27,0zm133 2c-1,-1 -6,-12 -11,-17 -3,-5 -8,-10 -13,-14 -5,-4 -11,-7 -18,-10 -10,-4 -14,-4 -20,-5l-1 -1c0,0 0,0 -1,0 -6,2 -24,-3 -49,13 -28,18 -41,53 -31,87 16,50 79,68 119,37 11,-8 21,-19 26,-36 10,-30 -1,-48 -1,-54z"/>
   <path class="fil1" d="M43 192c1,-1 1,-7 1,-8 0,-3 0,-6 3,-6 4,-1 3,3 3,6 0,1 -1,8 -1,8l8 0c0,-1 0,-6 0,-8 0,-3 0,-6 3,-6 4,-1 3,3 3,6 0,3 -1,6 -1,8l7 0c1,-2 1,-5 1,-8 0,-3 1,-6 -1,-8 -2,-3 -7,-4 -10,-2 -1,1 -1,1 -2,2 -1,0 -1,-1 -1,-1 0,0 -1,-1 -1,-1 -2,-1 -3,-1 -4,-1 -3,0 -4,1 -6,2 0,0 0,1 -1,1l0 -2 -7 0 -1 18 7 0zm-14 -22l7 0 1 -5c-3,0 -5,1 -6,0 -1,0 -1,0 -1,1l-1 4zm137 13c0,0 2,-5 2,-6l-9 0c0,1 -2,6 -2,6l9 0zm-130 -9l-7 0 -1 18 7 0 1 -18zm93 0c-2,0 -3,0 -4,0 -2,1 -2,2 -3,2 0,-3 0,-2 -1,-2l-6 0 0 0c0,4 0,10 -1,14 0,1 0,3 0,4l7 0c0,-1 0,-3 0,-4 1,-6 0,-9 7,-8l1 -6zm108 0c-1,0 -2,0 -3,0 -2,1 -2,2 -3,2 0,-3 0,-2 -2,-2 -2,0 -3,0 -5,0l0 0c0,4 0,7 -1,10 0,1 0,8 0,8l7 0c0,-1 0,-6 1,-8 0,-5 3,-4 6,-4l0 -6zm-100 -9l-7 0 -2 27 7 0 2 -27zm66 0l-7 0 -2 27 1 0 6 0 0 0 2 -27zm-193 0l-8 0 -2 27 8 0 2 -27zm8 12c0,0 0,-1 1,-1l3 -4c1,-1 5,-6 5,-7l-8 0 -10 12 8 15 10 0c0,0 -7,-12 -8,-13 -1,-1 -1,-1 -1,-2zm197 6c0,3 0,5 -3,6 -3,0 -3,-3 -2,-5 2,-1 3,-1 5,-1zm-4 -4c0,-2 1,-3 3,-3 2,1 1,3 1,4 -1,1 -13,-1 -12,7 0,6 6,7 10,4 1,0 1,-1 2,-1 0,0 0,1 0,2l0 0 7 0c0,-4 0,-6 0,-10 0,-2 0,-4 0,-5 -2,-4 -9,-4 -12,-4 -4,1 -5,3 -6,6l7 0zm-110 2c0,-1 0,-4 3,-4 1,0 2,0 2,1 1,0 1,2 1,3l-6 0zm12 3c1,0 1,0 1,-1 0,-2 0,-5 -2,-7 -1,-1 -3,-3 -6,-3 -6,0 -11,3 -12,7 -1,3 -1,7 1,9 1,2 3,3 5,3 3,1 7,1 9,0 2,-1 4,-3 4,-6l-6 0c0,0 0,1 -1,1 -1,3 -7,3 -6,-3l13 0zm24 -10c0,1 0,2 1,3l5 14c0,1 1,1 0,2 0,2 -1,4 -2,5 -1,1 -1,3 -2,3l7 0 13 -27 -6 0 -5 11 -3 -11 -8 0zm109 -9l-7 0 -2 27 7 0 1 -10 6 10 8 0c0,0 -3,-4 -3,-5 -1,-1 -3,-5 -3,-5l4 -5c1,-1 2,-3 3,-3l-8 0 -7 8 1 -17zm-164 12c3,0 4,3 4,6 0,2 -1,5 -4,6 -3,0 -4,-3 -4,-6 0,-3 1,-5 4,-6zm-2 -12l-7 0 -2 27 7 0 0 -2c1,0 1,1 2,1 2,2 4,2 6,1 3,-1 5,-3 6,-5 2,-7 0,-14 -7,-14 -1,0 -2,0 -4,1 -1,1 -1,1 -2,2 0,0 0,0 0,0l1 -11zm106 18c0,1 0,2 -1,2 -1,2 -4,3 -6,2 -2,-1 -3,-5 -2,-8 0,-4 1,-6 3,-8 1,-1 3,-1 4,-1 2,1 2,2 2,4l8 0c1,-8 -8,-10 -15,-9 -6,2 -10,7 -10,14 -1,8 2,13 10,14 4,0 7,-1 10,-2 2,-2 5,-5 5,-8l-8 0z"/>
  </g>
 </g>
</svg>
