<?xml version="1.0" encoding="UTF-8"?>
<!DOCTYPE svg PUBLIC "-//W3C//DTD SVG 1.0//EN" "http://www.w3.org/TR/2001/REC-SVG-20010904/DTD/svg10.dtd">
<!-- Creator: CorelDRAW X8 -->
<svg xmlns="http://www.w3.org/2000/svg" xml:space="preserve" width="400px" height="400px" version="1.0" style="shape-rendering:geometricPrecision; text-rendering:geometricPrecision; image-rendering:optimizeQuality; fill-rule:evenodd; clip-rule:evenodd" viewBox="0 0 1468 1468" xmlns:xlink="http://www.w3.org/1999/xlink">
 <defs>
  <style type="text/css">
   <![CDATA[
    .fil2 {fill:#FEFEFE}
    .fil1 {fill:#858789}
    .fil0 {fill:url(#id0)}
    .fil3 {fill:url(#id1);fill-rule:nonzero}
   ]]>
  </style>
  <radialGradient id="id0" gradientUnits="userSpaceOnUse" gradientTransform="matrix(-1.01015 -1.01015 1.01016 -1.01015 734 2217)" cx="733.885" cy="733.885" r="2057.77" fx="733.885" fy="733.885">
   <stop offset="0" style="stop-opacity:1; stop-color:#00AFEF"/>
   <stop offset="0.101961" style="stop-opacity:1; stop-color:#316DA7"/>
   <stop offset="0.501961" style="stop-opacity:1; stop-color:#355A9C"/>
   <stop offset="0.74902" style="stop-opacity:1; stop-color:#3B4694"/>
   <stop offset="0.988235" style="stop-opacity:1; stop-color:#2F3165"/>
   <stop offset="1" style="stop-opacity:1; stop-color:#2F3165"/>
  </radialGradient>
  <linearGradient id="id1" gradientUnits="userSpaceOnUse" x1="-59.8262" y1="1428.8" x2="742.575" y2="38.9928">
   <stop offset="0" style="stop-opacity:1; stop-color:#3B4694"/>
   <stop offset="0.0117647" style="stop-opacity:1; stop-color:#3B4694"/>
   <stop offset="0.188235" style="stop-opacity:1; stop-color:#3374B8"/>
   <stop offset="0.270588" style="stop-opacity:1; stop-color:#317ABE"/>
   <stop offset="0.54902" style="stop-opacity:1; stop-color:#00AFEF"/>
   <stop offset="0.701961" style="stop-opacity:1; stop-color:#D5EFFC"/>
   <stop offset="1" style="stop-opacity:1; stop-color:#00AFEF"/>
  </linearGradient>
 </defs>
 <g id="Capa_x0020_1">
  <metadata id="CorelCorpID_0Corel-Layer"/>
  <g id="_2486003019904">
   <path class="fil0" d="M1468 734c0,405 -329,734 -734,734 -405,0 -734,-329 -734,-734 0,-405 329,-734 734,-734 405,0 734,329 734,734z"/>
   <g>
    <g>
     <path class="fil1" d="M358 905c0,-1 0,-1 0,-1 5,-13 9,-26 13,-39 13,-44 27,-87 40,-130 7,-21 13,-42 20,-63 6,-20 12,-40 18,-59 8,-24 15,-47 22,-71 5,-14 4,-26 -10,-36 3,0 4,0 6,0 64,0 129,0 193,0 29,0 55,7 78,25 17,13 27,30 30,51 4,26 -3,51 -12,75 -23,55 -64,87 -119,104 -16,5 -33,8 -51,11 -18,2 -37,3 -55,3 -6,0 -12,-2 -17,-2 -2,0 -4,-1 -5,2 -3,12 -8,23 -10,35 -7,17 -11,35 -17,52 -4,12 -8,24 -11,36 -6,17 -2,26 13,36 -51,0 -103,0 -155,0 12,-7 22,-16 28,-28 1,0 1,-1 1,-1zm240 -365l0 0c-4,0 -8,0 -11,0 -3,-1 -4,0 -5,3 -2,7 -4,14 -7,22 -17,56 -35,113 -53,170 -1,3 -1,4 3,5 29,4 54,-5 77,-23 15,-12 26,-29 33,-47 12,-27 21,-54 20,-84 0,-22 -11,-38 -30,-44 -9,-2 -18,-3 -27,-2z"/>
     <path class="fil1" d="M1329 517c0,0 1,0 1,0 3,2 7,1 8,4 1,2 -1,6 -2,9 -5,14 -9,29 -14,44 0,1 -1,2 -1,3 -16,-13 -32,-24 -51,-31 -11,-5 -23,-8 -35,-9 -38,-2 -69,14 -96,40 -1,1 -2,2 -3,3 -2,1 -3,2 -3,4 -10,9 -17,19 -25,30 -21,31 -36,64 -47,100 -9,32 -17,65 -18,99 -1,20 0,40 9,58 8,18 21,29 40,33 13,3 25,2 37,0 2,0 3,-1 3,-3 1,-5 3,-11 5,-16 5,-17 11,-35 16,-53 9,-27 18,-55 26,-82 2,-8 2,-15 -3,-22 -4,-6 -9,-11 -17,-14 2,-1 2,-1 3,-1 53,0 107,0 160,0 2,0 3,-1 4,1 -18,6 -30,17 -35,35 -16,50 -32,101 -48,151 -2,4 -4,7 -8,9 -30,14 -62,23 -94,28 -28,4 -55,4 -83,-1 -20,-4 -38,-11 -56,-21 -2,-1 -4,-2 -6,-4 -36,-26 -50,-64 -54,-107 -5,-64 11,-123 43,-178 7,-12 15,-22 24,-32 6,-6 11,-12 17,-17 19,-19 40,-34 64,-46 32,-16 65,-25 101,-28 29,-3 59,-2 88,3 17,3 33,7 50,11z"/>
     <path class="fil1" d="M868 784c5,0 10,0 15,0 12,0 23,0 34,0 4,0 5,1 5,5 -3,28 -15,53 -34,74 -6,6 -6,6 0,12 28,24 58,43 92,57 2,1 3,1 5,2 -2,0 -3,1 -4,1 -32,0 -64,0 -95,0 -5,0 -8,-1 -11,-4 -11,-7 -21,-16 -31,-25 -3,-3 -4,-3 -8,-1 -23,16 -48,28 -76,33 -21,4 -41,3 -61,-3 -13,-4 -24,-12 -34,-22 -19,-19 -23,-42 -20,-67 3,-33 22,-56 49,-73 18,-13 39,-20 61,-28 9,-3 8,-3 8,-12 0,-34 5,-66 27,-93 23,-29 53,-40 90,-35 12,2 24,7 33,16 17,16 21,41 9,62 -11,19 -27,32 -45,43 -15,9 -31,16 -46,23 -5,2 -6,4 -5,9 5,31 19,57 36,82 2,3 3,2 4,0 8,-12 12,-25 12,-39 -1,-5 -2,-8 -10,-17zm-50 95l0 0c-3,-5 -6,-9 -9,-14 -17,-26 -30,-54 -39,-84 -1,-4 -2,-5 -5,-3 -3,2 -6,3 -9,5 -17,10 -33,23 -42,41 -18,37 3,72 43,73 22,1 42,-8 61,-18zm2 -156l0 0c2,-2 4,-3 5,-4 17,-11 32,-25 43,-42 6,-9 11,-18 12,-29 2,-15 -8,-24 -22,-19 -9,2 -15,8 -20,15 -17,23 -20,50 -18,79z"/>
    </g>
    <g>
     <path class="fil2" d="M344 891c0,0 0,0 0,-1 5,-12 8,-26 13,-39 13,-43 27,-87 40,-130 7,-21 13,-42 20,-63 6,-20 12,-39 18,-59 8,-23 15,-47 22,-70 5,-14 4,-26 -10,-36 3,0 4,0 6,0 64,0 129,-1 193,0 28,0 55,7 78,24 17,13 27,30 30,51 4,27 -3,52 -13,76 -22,54 -63,86 -118,103 -17,6 -34,9 -51,11 -18,3 -37,3 -55,3 -6,0 -12,-1 -17,-2 -2,0 -4,0 -5,2 -3,12 -8,24 -10,35 -7,18 -11,35 -17,53 -4,12 -8,24 -11,36 -6,17 -2,26 13,35 -51,0 -103,0 -155,0 12,-7 22,-16 28,-28 1,0 1,0 1,-1zm240 -365l0 0c-4,0 -8,0 -12,0 -2,0 -3,1 -4,3 -2,8 -4,15 -7,22 -18,57 -35,114 -53,171 -1,3 -1,4 3,4 29,5 54,-4 76,-22 16,-13 26,-29 34,-47 12,-27 21,-55 20,-85 -1,-22 -11,-38 -30,-43 -9,-3 -18,-3 -27,-3z"/>
     <path class="fil2" d="M1315 503c0,1 1,1 1,1 3,1 7,1 8,3 1,3 -1,6 -2,9 -5,15 -9,30 -14,45 0,1 -1,1 -1,3 -16,-13 -32,-25 -52,-31 -10,-6 -22,-8 -34,-9 -38,-3 -69,13 -96,39 -1,1 -2,3 -3,4 -2,1 -3,1 -3,3 -10,9 -18,20 -25,30 -21,31 -36,65 -47,101 -9,32 -17,65 -19,98 0,20 1,40 10,59 8,17 21,28 40,32 13,4 25,3 37,1 2,-1 2,-2 3,-4 1,-5 3,-10 5,-15 5,-18 11,-36 16,-53 9,-28 17,-55 26,-83 2,-7 2,-15 -3,-21 -4,-7 -9,-12 -17,-15 2,0 2,0 3,0 53,0 107,0 160,0 2,0 3,-1 4,1 -18,5 -30,17 -36,34 -15,51 -31,101 -47,151 -2,5 -4,8 -8,10 -30,13 -62,23 -94,28 -28,4 -55,3 -83,-2 -20,-3 -38,-11 -56,-21 -2,-1 -4,-2 -6,-3 -36,-26 -50,-65 -54,-107 -5,-64 11,-124 43,-179 7,-11 15,-22 24,-32 5,-6 11,-12 17,-17 19,-18 40,-34 64,-46 32,-15 65,-25 100,-28 30,-3 59,-1 89,3 17,3 33,7 50,11z"/>
     <path class="fil2" d="M854 770c5,0 10,0 15,0 11,0 23,1 34,0 4,0 5,1 5,5 -3,29 -15,53 -34,74 -6,6 -6,7 0,12 27,25 58,44 92,58 1,0 3,1 5,2 -2,0 -3,0 -4,0 -32,0 -64,0 -95,0 -5,0 -8,-1 -11,-3 -11,-8 -21,-17 -31,-26 -3,-3 -5,-3 -8,0 -23,15 -48,28 -76,33 -21,3 -41,2 -61,-4 -13,-4 -24,-11 -34,-21 -19,-19 -23,-43 -20,-68 3,-33 22,-55 48,-73 19,-12 40,-20 62,-27 9,-3 8,-3 8,-13 0,-33 5,-66 26,-93 23,-29 54,-40 91,-34 12,1 24,7 33,16 17,16 21,40 9,62 -11,19 -27,32 -45,43 -15,9 -31,16 -47,23 -4,2 -5,4 -4,9 5,30 19,57 36,82 2,2 3,1 4,0 8,-12 12,-25 12,-40 -1,-5 -2,-7 -10,-17zm-50 95l0 0c-3,-4 -6,-9 -9,-13 -17,-27 -30,-55 -39,-85 -1,-3 -2,-5 -5,-2 -3,1 -6,3 -9,4 -17,11 -33,23 -42,42 -18,36 3,71 43,72 22,1 42,-8 61,-18zm2 -156l0 0c2,-1 4,-2 5,-3 17,-12 31,-26 43,-42 6,-9 11,-19 12,-30 2,-15 -8,-24 -23,-19 -8,3 -14,8 -19,15 -17,23 -20,50 -18,79z"/>
    </g>
   </g>
   <g>
    <path class="fil3" d="M213 720c0,-297 167,-559 421,-716 -358,49 -634,356 -634,727 0,389 301,706 683,732 -282,-152 -470,-428 -470,-743z"/>
   </g>
  </g>
 </g>
</svg>
