<?xml version="1.0" encoding="UTF-8"?>
<!DOCTYPE svg PUBLIC "-//W3C//DTD SVG 1.0//EN" "http://www.w3.org/TR/2001/REC-SVG-20010904/DTD/svg10.dtd">
<!-- Creator: CorelDRAW X8 -->
<svg xmlns="http://www.w3.org/2000/svg" xml:space="preserve" width="362px" height="400px" version="1.0" style="shape-rendering:geometricPrecision; text-rendering:geometricPrecision; image-rendering:optimizeQuality; fill-rule:evenodd; clip-rule:evenodd" viewBox="0 0 112 124" xmlns:xlink="http://www.w3.org/1999/xlink">
 <defs>
  <style type="text/css">
   <![CDATA[
    .fil0 {fill:#102A83}
   ]]>
  </style>
 </defs>
 <g id="Capa_x0020_1">
  <metadata id="CorelCorpID_0Corel-Layer"/>
  <g id="_2486003020800">
   <path class="fil0" d="M90 25c1,4 6,8 7,8 1,0 1,-4 1,-8 0,-1 0,-3 -1,-3 -1,3 -5,4 -7,3zm1 -1c3,0 7,-3 7,-5 0,-2 -1,-2 -2,-3 0,1 0,1 0,1 0,2 -3,4 -6,4 -1,0 -2,1 -2,2 0,1 1,1 3,1zm-1 -4c-1,0 -1,0 -2,-1 0,0 0,-1 0,-2 0,0 1,0 1,0 2,0 3,-1 4,-1 1,0 1,1 1,1 0,2 -3,3 -4,3zm-77 27c2,0 1,-7 3,-7 1,0 1,0 1,1 0,1 -1,4 -1,5 0,1 0,1 1,1 0,0 2,-8 3,-8 1,0 1,1 1,1 0,2 -2,6 -2,8 0,0 0,0 0,0 1,0 3,-4 3,-6 0,0 1,-1 1,-1 1,0 1,0 1,1 0,2 -2,6 -3,9 -2,3 -3,6 -3,8 0,1 0,1 1,3 -2,0 -3,-1 -4,-2 -3,7 7,6 3,13 0,-2 -5,-3 -5,-10 0,-5 5,-9 5,-11 0,-1 0,-1 -1,-1 -1,-1 -1,-2 -2,-2 0,0 -1,1 0,3 0,0 0,0 0,1 0,1 -1,3 -3,3 -1,0 -1,-2 -1,-7 0,-3 0,-7 2,-7 0,0 0,0 0,0 0,1 0,2 0,3 0,2 0,2 0,2zm53 -34c0,0 1,2 1,2 0,1 0,1 0,1 0,0 1,-2 1,-2 1,0 3,2 6,2 4,0 8,-3 8,-8 0,-5 -4,-8 -9,-8 -2,0 -4,1 -4,1 -1,0 -2,-1 -2,-1 0,0 -1,0 -1,1 0,0 0,1 0,1 -1,0 -4,-2 -4,-1 0,1 2,3 2,4 0,0 -2,1 -2,1 0,1 2,1 2,2 0,1 -2,2 -2,3 0,0 2,0 2,1 0,0 -1,3 -1,3 0,1 0,1 0,1 0,0 2,-3 3,-3zm-44 51c0,-1 0,-2 1,-2 1,0 2,1 2,2 0,0 -1,1 -2,1 0,0 -1,0 -1,-1zm-4 1c0,1 1,2 3,2 0,0 1,0 1,-1 0,2 1,2 2,2 1,0 2,-1 2,-2 0,-1 0,-1 0,-1l0 0c1,0 2,-1 2,-3 0,-1 -1,-2 -2,-2 -1,1 -1,1 -1,1 -1,-1 -1,-2 -3,-2 -1,0 -2,1 -2,3 0,0 0,0 0,0l0 0c-1,1 -2,2 -2,3zm76 -63c0,1 1,1 1,1 1,0 1,0 1,-1 0,0 0,-1 -1,-1 0,0 -1,1 -1,1zm-19 33c0,0 1,1 2,1 1,0 1,-1 1,-1 0,-1 0,-2 -1,-2 -1,0 -2,1 -2,2zm0 4c0,1 1,2 2,2 1,0 2,-1 2,-2 0,-1 -1,-2 -2,-2 -1,0 -2,1 -2,2zm-5 3c0,1 2,2 3,2 1,0 2,-1 2,-2 0,-1 -1,-3 -2,-3 -1,0 -3,2 -3,3zm2 -5c0,1 0,1 1,1 1,0 1,0 1,-1 0,-1 0,-1 -1,-1 -1,0 -1,0 -1,1zm-5 3c0,0 1,1 2,1 0,0 1,-1 1,-1 0,-1 -1,-2 -1,-2 -1,0 -2,1 -2,2zm4 -8c0,1 1,2 2,2 1,0 2,-1 2,-2 0,-1 -1,-2 -2,-2 -1,0 -2,1 -2,2zm2 -4c0,0 1,1 2,1 0,0 1,-1 1,-1 0,-1 -1,-2 -1,-2 -1,0 -2,1 -2,2zm-6 3c0,1 1,1 1,1 1,0 2,0 2,-1 0,-1 -1,-1 -2,-1 0,0 -1,0 -1,1zm0 4c0,1 1,2 2,2 1,0 2,-1 2,-2 0,-1 -1,-2 -2,-2 -1,0 -2,1 -2,2zm-4 2c0,1 1,2 2,2 1,0 2,-1 2,-2 0,-1 -1,-2 -2,-2 -1,0 -2,1 -2,2zm1 -4c0,0 0,1 1,1 1,0 2,-1 2,-1 0,-1 -1,-2 -2,-2 -1,0 -1,1 -1,2zm-5 50c0,1 1,1 2,1 0,0 1,0 1,-1 0,-1 -1,-1 -1,-1 -1,0 -2,0 -2,1zm-36 -57c0,1 0,2 1,2 1,0 1,-1 1,-2 0,0 0,-1 -1,-1 -1,0 -1,1 -1,1zm-2 -3c0,1 0,2 1,2 1,0 1,-1 1,-2 0,0 0,-1 -1,-1 -1,0 -1,1 -1,1zm1 34c2,0 3,-1 3,-3l0 -4c0,-1 0,-3 1,-4 0,1 0,1 0,1 0,3 1,5 1,8 0,1 0,2 -1,2 -1,0 0,-1 -1,-1 0,0 0,1 0,1 0,1 1,2 2,2 1,0 2,-1 2,-2 0,-3 -2,-7 -2,-10 0,-2 0,-3 0,-3 0,6 6,11 6,14 0,1 0,1 -1,1 -1,0 -1,0 -1,-1 0,0 0,0 0,0 0,0 -1,1 -1,2 0,1 1,2 3,2 2,0 3,-2 3,-3 0,-4 -7,-9 -7,-15 0,-1 0,-2 0,-4 -4,3 -5,7 -5,10 0,3 -1,5 -2,5 -1,0 -1,-1 -1,-1 -1,0 -1,1 -1,1 0,1 1,2 2,2zm59 -34c2,0 3,-1 3,-1 0,0 0,-1 -1,-1 0,0 -1,0 -3,0 -1,0 -2,-1 -3,-1 0,0 0,0 0,1 0,0 2,2 4,2zm-7 -5c0,0 2,1 5,-1 0,0 0,0 1,0 1,0 1,1 2,1 1,0 2,0 2,0 1,0 3,3 3,4 0,2 -3,3 -6,3 -4,0 -7,-4 -7,-6 0,0 0,-1 0,-1zm-51 52c-1,0 -3,2 -3,5 0,3 4,8 9,8 5,0 7,-3 7,-6 0,-5 -3,-8 -8,-8 -2,0 -4,1 -4,4 0,2 2,5 6,5 2,0 3,-1 3,-3 0,-1 -1,-3 -4,-3 0,0 -1,0 -1,1 0,1 2,1 3,1 0,0 1,0 1,0 0,0 0,1 0,1 0,0 -1,1 -2,1 -2,0 -4,-1 -4,-3 0,-2 2,-3 3,-3 3,0 5,3 5,6 0,2 -1,4 -4,4 -6,0 -8,-5 -7,-10zm-4 -37c0,0 -2,1 -2,3 0,1 1,2 2,2 1,0 1,-1 2,-1 -1,-1 -2,-2 -2,-3 0,0 0,-1 0,-1zm-8 0c0,0 0,0 0,1 0,1 1,2 2,2 1,0 2,0 3,-2 -1,1 -1,1 -1,1 -2,0 -3,-1 -4,-2zm-1 3c0,3 1,4 2,4 1,0 3,-1 4,-2 -1,0 -2,0 -3,0 -1,0 -2,0 -3,-2zm52 54c2,0 1,0 2,0 1,0 1,0 1,0 0,1 -2,2 -5,2 -2,0 -3,-1 -3,-2 -2,1 -5,2 -7,2 -7,0 -9,-3 -11,-4 -2,-1 -4,1 -8,-3 1,0 1,0 2,0 3,0 5,-2 5,-4 0,0 0,-1 0,-1 0,0 3,2 3,5 0,0 2,0 3,0 1,0 2,0 3,-2 4,0 6,-3 7,-6 2,1 3,2 4,3 0,-1 1,-1 2,-1 1,0 2,0 3,1 0,-1 1,-1 1,-1 1,0 1,1 1,2 1,0 1,0 1,1 0,1 0,1 -1,1 0,0 0,0 0,0 -1,0 -1,5 -4,5 -2,0 -4,-2 -4,-4 -1,-1 -1,-1 -2,-1 0,0 -1,0 -1,1 -2,2 -5,4 -9,4 -1,0 -2,-1 -2,-1 0,0 0,0 0,0 0,1 1,2 3,2 6,0 8,-4 9,-4 0,0 0,0 1,1 1,3 4,4 6,4l0 0zm-19 -69c2,0 3,2 3,4 0,1 0,3 -1,3 0,0 0,-1 0,-2 0,-1 -1,-1 -1,-1 0,0 -1,1 -1,3 0,0 0,1 1,1 0,0 1,0 1,0 0,1 -2,3 -3,3 -3,0 -4,-4 -5,-6 -1,2 -3,4 -6,4 -3,0 -4,-2 -4,-4 0,-1 0,-2 1,-2 1,0 0,2 1,2 1,0 2,0 2,-1 0,-1 0,-2 0,-2 0,-1 0,-2 0,-2 -1,0 -2,1 -2,1 1,-2 3,-4 5,-4 3,0 4,3 4,5 0,1 0,1 0,2 1,-2 3,-4 5,-4zm-9 -20c0,0 -1,-1 -2,-1 -3,0 -2,2 -4,2 -2,0 -1,-2 -4,-2 -1,0 -2,1 -2,1 0,0 1,0 1,1 0,1 -3,2 -3,2 0,1 0,1 0,1 1,0 2,-1 3,-1 1,0 1,1 1,1 0,1 -2,2 -2,3 0,0 1,0 1,0 0,0 2,-1 3,-1 1,0 0,3 1,3 1,0 1,-3 2,-3 1,0 2,2 3,2 0,0 1,0 1,0 0,-1 -1,-2 -1,-3 0,-1 0,-1 0,-1 1,0 2,0 3,0 0,0 0,0 0,0 0,-1 -3,-2 -3,-3 0,-1 2,-1 2,-1zm49 67c-1,0 -5,5 -8,5 0,0 -1,-1 -1,-2 0,0 1,-1 2,-1 6,-1 4,-5 9,-5 3,0 6,1 6,6 0,4 -6,10 -7,10 -1,0 -2,-1 -2,-2 0,0 0,-1 1,-1 3,-1 5,-4 5,-6 0,0 0,0 -1,0 0,0 -3,5 -5,5 -2,0 -4,-2 -4,-2 0,-2 5,-4 5,-6 0,-1 0,-1 0,-1zm3 -2c0,0 -1,0 -1,1 0,1 1,2 2,2 0,0 0,0 1,0 1,0 1,0 1,-1 0,-1 -1,-2 -3,-2zm-44 -62c0,1 2,2 3,2 1,0 1,-1 1,-1 0,-1 -1,-1 -1,-1 -2,0 -3,0 -3,0zm4 7c0,-2 -6,-6 -6,-7 0,0 0,0 0,-1 0,-1 5,-1 5,-2 0,-1 -1,-1 -1,-1 -3,0 -8,1 -8,2 0,2 4,4 4,6 0,0 0,0 0,0 -2,0 -4,-1 -5,-1 -1,0 -1,0 -1,1 0,2 2,5 2,6 0,0 0,0 0,0 -1,0 -4,-4 -5,-4 0,0 0,1 0,2l0 1c0,1 0,1 -1,1 -1,0 -1,-2 -2,-2 -1,0 -1,4 -2,4 -1,0 0,-5 -1,-5 -1,0 -2,3 -3,3 0,0 0,0 0,0 0,-1 0,-3 0,-4 0,0 0,0 0,0 -1,0 -4,1 -4,1 -1,0 -1,0 -1,0 0,-1 4,-3 4,-5 0,-1 -5,0 -5,-1 0,-1 3,-2 3,-4 0,-1 -4,-1 -6,-1 -2,0 -3,0 -3,1 0,1 5,1 5,2 0,1 -5,3 -5,4 0,1 7,0 7,1 0,1 -6,6 -6,8 0,0 0,0 1,0 1,0 6,-3 7,-3 1,0 1,0 1,1 0,1 0,2 0,3 0,1 0,1 0,1 2,0 3,-2 4,-2 1,0 0,7 2,7 1,0 2,-7 3,-7 1,0 1,2 2,2 1,0 1,-4 2,-4 1,0 4,4 6,4 0,0 1,0 1,0 0,-2 -3,-6 -3,-8 0,0 0,0 0,0 2,0 6,2 8,2 0,0 1,-1 1,-1zm46 39c1,-1 1,-3 3,-4 -2,-1 -5,-2 -5,-4 0,-3 3,-4 4,-4 0,0 0,0 0,0 0,1 0,3 0,5 0,0 0,1 1,1 1,0 2,-2 2,-4 0,-3 -3,-4 -4,-4 -1,0 -3,1 -7,1 -7,0 -9,-7 -9,-10 0,0 0,-1 0,-1 1,0 1,1 4,1 1,0 2,0 4,0 4,0 6,3 8,7 2,0 5,2 5,6 0,4 -4,6 -5,10 2,0 3,-3 4,-3 1,0 2,1 2,2 0,2 -1,4 -3,5 0,0 0,0 0,0 0,-1 0,-3 -1,-3 -2,0 -3,2 -4,4 -1,-4 -2,-7 -4,-9 -3,-2 -7,-1 -7,-4 0,-1 1,-2 1,-4 0,0 0,0 -1,-1 4,2 3,4 5,6 1,2 4,3 6,9 0,0 0,-1 0,-1 0,-5 -6,-10 -7,-12 4,0 5,1 7,6 0,1 1,4 1,5zm-73 -28c0,0 0,-1 0,-1 0,-2 -1,-5 -3,-5 -1,0 -2,1 -2,3 0,2 2,3 5,3zm-3 9c-1,0 -2,-1 -2,-3 0,0 0,-1 0,-1 1,0 1,0 1,0 0,2 1,3 2,3 0,0 0,0 0,1 0,0 -1,0 -1,0zm4 -3c0,0 0,1 -1,1 -1,0 -2,-2 -2,-3 0,0 0,-1 1,-1 0,0 0,0 0,1 1,0 1,0 1,1 0,0 1,1 1,1zm-1 -4c0,0 -1,0 -1,0 -1,0 -3,0 -4,1 -3,2 -3,5 -3,6 0,0 0,0 0,1 0,0 0,0 1,0 0,0 0,0 0,0 1,0 2,1 3,1 1,0 2,-1 3,-1 3,-1 3,-4 3,-5 0,-1 0,0 0,-1 -1,-1 -1,-1 -1,-1 0,-1 -1,-1 -1,-1zm3 6c0,1 -1,2 -1,4 0,2 1,3 3,3 1,0 2,-1 2,-3 0,-2 -2,-4 -4,-4zm-7 -7c0,0 -1,1 -2,1 -2,0 -3,-1 -3,-3 0,-1 1,-2 2,-2 0,0 0,0 0,0 0,2 1,4 3,4zm61 20c0,-1 0,-1 1,-1 1,0 1,0 1,1 0,1 0,1 -1,1 -1,0 -1,0 -1,-1zm1 39c0,0 0,1 0,1 0,1 0,2 -1,3 -1,0 -2,1 -4,1 0,-1 0,-2 0,-3 0,0 0,0 0,0l1 0c2,0 4,-2 4,-2zm0 -3c0,0 0,-1 0,-1l0 -1c0,-1 -1,-1 -3,-1 -3,0 -4,1 -4,1l0 2c0,1 1,1 3,1 2,0 3,0 4,-1zm2 0c-1,1 -3,3 -7,3 -1,0 -2,-1 -3,-1 0,0 0,0 -1,1 0,1 -2,3 -2,5 0,1 2,2 3,2 7,0 12,-4 12,-7 0,-2 -1,-3 -2,-3zm1 -28c0,1 0,2 1,2 1,0 1,-2 1,-3 0,-1 0,-2 0,-3 0,0 0,0 0,0 1,0 1,1 2,1 1,0 2,-1 2,-1 0,0 0,0 0,0 0,1 -1,2 -1,3 0,0 2,0 2,0 0,1 -2,1 -3,1 -1,1 -1,1 -1,2 0,1 0,1 1,1 3,0 4,-2 5,-2 0,0 0,1 0,1 0,0 -1,1 -1,2 0,0 2,1 2,1 0,0 0,0 -1,0 0,0 -1,0 -1,0 0,0 -1,0 -1,0 0,1 0,2 0,2 -1,0 -2,-4 -4,-4 -1,0 -1,1 -1,1 0,2 1,3 3,4 0,0 1,1 1,1 0,0 -2,0 -2,1 0,0 0,1 0,2 0,0 0,0 0,0 0,0 -1,-2 -2,-2 0,0 -1,1 -2,1 0,0 0,0 0,0 0,-1 2,-2 2,-4 0,-1 -1,-3 -2,-3 0,0 -1,2 -2,3 0,1 0,4 0,4 -1,0 -1,-2 -1,-2 -1,0 -2,0 -2,0 0,0 0,0 0,0 0,0 1,-1 1,-2 0,0 -3,0 -3,-1 0,0 1,0 2,0 2,0 4,-2 4,-4 0,-2 -2,-2 -3,-3 -1,-1 -1,-1 -1,-1 0,0 1,0 1,0 0,0 1,-1 1,-1 0,0 0,-1 0,-1 0,-1 0,-1 0,-1 1,0 1,2 2,2 0,0 1,-2 1,-2 1,0 1,0 1,1 0,1 -1,2 -1,4zm-16 -10c0,3 4,1 4,5 0,0 0,1 0,2 0,0 0,1 0,1 1,0 1,0 1,-1 0,-1 0,-1 0,-2 0,-1 1,-1 1,-1 2,0 3,1 5,1 -1,2 -5,2 -5,4 0,1 1,2 2,2 0,0 1,0 1,-1 0,0 0,-1 0,-1 0,0 0,0 0,0 1,0 4,3 4,3 0,1 -4,2 -5,2 0,0 0,0 0,0 0,-1 0,-1 0,-2 0,0 0,0 -1,0 -1,0 -2,0 -2,0 0,1 2,2 2,3 0,1 0,1 -2,1 -1,0 -2,0 -2,-2 0,-1 1,-1 1,-2 0,0 0,-1 0,-1 -2,0 -2,4 -7,4 1,0 2,-1 2,-3 0,0 0,-1 0,-2 0,-1 0,-1 1,-1 1,0 2,2 2,2 1,0 1,-1 1,-2 0,-2 -5,-2 -5,-5 0,-1 1,-3 2,-4zm6 22c0,0 1,1 1,1 1,0 1,-1 1,-1 0,-1 -1,-2 -1,-2 -1,0 -1,0 -1,1 0,0 0,1 0,1zm-2 -5c4,1 6,4 6,6 0,2 -1,4 -3,4 -2,0 -3,-2 -3,-3 0,-2 1,-3 1,-5 0,0 0,-1 -1,-2zm-4 6c0,1 0,1 0,1 0,1 0,1 0,2 0,1 1,1 2,1 1,0 1,0 1,-1 0,-2 -1,-3 -3,-3zm11 -2c0,0 1,1 1,1 0,1 -1,2 -1,3 0,1 1,2 2,2 1,0 2,-1 2,-2 0,-2 -1,-4 -4,-4zm-10 -2c1,0 2,1 2,1 0,1 -1,1 -2,1 0,0 -1,0 -1,0 -1,0 -2,0 -2,1 0,0 1,1 1,1 0,2 -6,1 -6,6 0,2 3,5 7,5 2,0 4,0 4,-1 0,-1 -1,0 -1,-1 0,0 0,-1 0,-1 0,0 0,-1 0,-1 -1,0 -2,1 -5,1 -1,0 -3,-1 -3,-2 0,0 0,-1 0,-1 0,0 1,1 1,1 0,0 0,-1 0,-1 0,0 0,-1 1,-1 0,0 2,2 6,2 2,0 5,0 6,-1 0,3 -3,8 -9,8 -6,0 -10,-5 -10,-9 0,-6 4,-10 10,-10 2,0 3,0 3,1 0,1 -2,0 -2,1zm-25 -35c0,0 0,-1 0,-1 -1,0 -1,1 -2,2 0,1 1,2 1,2 0,0 1,-2 1,-3zm-5 2c1,0 1,-1 2,-2 0,0 0,-1 0,-1 0,-1 0,-2 -1,-2 -1,0 -1,3 -1,4 0,0 0,1 0,1zm6 3c1,0 2,-4 2,-6 0,0 0,-1 -1,-1 0,0 -2,4 -2,6 0,0 1,1 1,1zm-9 -2c2,0 3,-7 3,-8 0,0 0,0 0,0 -1,0 -3,6 -3,7 0,0 0,1 0,1zm4 2c-1,0 -1,2 -1,6 -1,-3 -3,-5 -5,-5 -2,0 -2,1 -2,2 0,1 0,1 0,2 0,-1 0,-1 1,-1 2,0 3,1 5,2 -2,0 -3,0 -4,0 -1,0 -2,0 -2,0 -1,1 -2,2 -2,4 0,1 0,1 0,2 1,-3 4,-4 6,-4 1,0 1,0 1,0 -1,1 -1,2 -1,4 0,0 0,0 -1,0 0,1 1,3 1,4 0,0 0,0 0,0 0,2 1,3 1,4 0,0 0,0 0,0 0,1 2,2 2,3 0,0 1,0 1,0 0,0 1,0 1,-1 0,0 0,0 0,0 -1,-1 -1,-2 -1,-3 -1,0 -1,0 -1,0 0,-1 0,-2 0,-3 -1,0 -1,0 -1,-1 0,-1 0,-2 0,-3 0,0 0,0 0,0 0,-2 1,-2 1,-4 2,2 3,3 3,4 0,1 -1,2 -1,2 2,0 4,-1 4,-4 0,-1 -1,-2 -5,-3 2,0 3,-1 4,-1 3,0 4,1 4,3 1,-1 1,-2 1,-2 0,-2 -1,-3 -3,-3 -2,0 -4,1 -6,2 1,-2 1,-3 2,-3 1,0 1,0 1,0 0,-1 -2,-3 -3,-3zm-22 -21c0,1 -2,3 -3,3 -1,0 -1,0 -1,-1 0,0 1,-1 1,-2 0,0 2,0 2,0 1,0 1,0 1,0zm80 46c1,0 3,2 3,5 0,3 -1,6 -4,8 0,-5 -5,-4 -5,-7 0,-1 1,-2 2,-2 1,0 2,0 2,1 0,-1 -1,-2 -1,-3 0,-1 1,-2 3,-2zm-26 -35c0,0 -1,-1 -1,-1 -2,0 -3,1 -3,2 0,0 0,0 0,-1 0,-1 1,-3 3,-3 2,0 3,1 4,1 0,0 0,0 0,0 1,0 1,0 1,1 0,1 -1,3 -2,4 -1,0 -1,-1 -2,-1 0,-1 0,-1 0,-1 0,0 0,-1 0,-1zm-5 2c1,1 2,2 3,2 0,0 1,0 1,0 0,0 0,0 0,0 0,0 0,1 0,1 0,1 1,1 1,1 2,0 4,-2 4,-5 1,1 1,2 1,2 0,4 -3,6 -5,6 -2,0 -3,-1 -3,-1 -1,0 -1,1 -1,1 -1,0 -2,-2 -2,-3 0,-1 1,-3 1,-4zm-24 -9c0,1 5,7 6,7 0,0 1,-2 1,-3 0,0 0,0 0,0 -1,-1 -5,-5 -6,-5 0,0 -1,0 -1,1zm50 -3c0,-3 -6,-3 -6,-4 0,0 3,-1 5,-1 -3,-3 -6,-3 -6,-4 0,0 2,-1 5,-1 2,0 4,1 4,2 0,1 -1,2 -1,4 0,0 1,1 2,1 1,0 1,-1 1,-2 0,-1 0,-2 0,-3 0,-1 1,-2 2,-2 1,0 2,1 3,1 -1,0 -1,1 -1,2 0,1 1,2 1,5 0,5 -5,7 -11,7 -2,0 -4,0 -6,0 0,0 0,0 0,0 0,-1 3,-1 3,-3 0,-1 -1,-2 -1,-2 0,0 0,0 1,0 0,0 1,1 3,1 1,0 2,0 2,-1zm6 -4c0,3 -3,6 -7,6 1,0 1,0 2,0 4,0 6,-2 6,-4 0,-1 -1,-1 -1,-2zm-4 28c0,-1 -1,-1 -2,-3 0,0 0,-1 0,-1 -1,0 0,2 -1,2 -2,0 -2,-3 -3,-3 0,0 0,0 0,0 0,1 0,1 0,1 0,1 0,1 0,1 -1,0 -2,-2 -3,-2 0,0 0,0 0,0 0,1 0,2 0,2 0,1 -2,0 -2,1 0,0 0,0 1,0 1,0 2,0 2,0 1,0 1,0 1,1 0,0 -1,1 -1,1 0,0 0,0 0,0 1,0 3,-1 4,-1 0,0 1,0 1,0 0,1 -1,1 -1,2 0,0 0,0 0,0 1,0 1,-1 3,-1 0,0 1,0 1,0 0,0 0,0 0,0zm-24 -26c0,-1 -1,-1 -1,-2 0,0 0,0 0,0 0,0 1,0 1,0 1,0 1,-2 1,-2 0,0 1,2 1,2 1,0 1,0 2,0 0,0 0,0 0,0 0,0 -1,1 -1,1 0,0 2,1 2,1 0,0 -2,0 -2,1 0,0 1,1 1,1 0,0 0,0 0,0 -1,0 -2,0 -2,0 0,0 -1,1 -1,1 0,0 -1,0 -1,0l0 -1c0,-1 0,-1 0,-1 0,0 -1,0 -1,0 0,0 -1,0 -1,0 0,0 2,-1 2,-1zm7 6c-3,0 -4,-1 -4,-2 0,0 0,0 0,0 1,0 2,1 3,1 0,0 0,0 0,0 0,-1 0,-2 0,-2 0,-1 0,-1 0,-1 1,0 2,1 3,1 0,0 0,0 0,-1 0,0 -2,-2 -2,-2 0,-1 3,-1 3,-2 0,-1 -4,0 -4,-1 0,0 1,-1 1,-1 0,-1 0,-1 -1,-1 0,0 -2,1 -2,1 -1,0 -1,0 -1,-1 0,0 1,-1 3,-1 4,0 6,2 6,6 0,5 -4,6 -5,6zm-24 59c0,1 0,1 0,1 0,0 -1,-1 -2,-1 -3,0 -2,5 -6,5 -1,0 -2,0 -2,0 0,0 -1,0 -1,0 0,1 2,4 5,4 4,0 7,-3 7,-5 0,-1 0,-1 0,-2 0,0 0,0 1,0 0,0 0,1 1,1 1,0 1,-1 1,-1 0,-1 0,-1 -1,-1 1,0 1,-1 1,-1 0,-1 -1,-1 -1,-1 -1,0 -1,0 -1,0 0,-1 0,-1 -1,-1 -1,0 -1,0 -1,1 0,0 0,1 0,1zm-9 2c-1,0 -2,-1 -2,-2 0,-1 0,-1 0,-1 1,0 3,1 3,2 0,0 0,1 -1,1zm-9 -8c2,1 4,2 4,4 0,2 1,3 1,4 1,1 3,1 4,1 2,0 3,0 3,-1 0,-1 -2,-4 -5,-4 0,0 0,0 -1,0 0,0 0,0 -1,0 0,-1 0,-3 -1,-5 -1,-2 -3,-2 -4,-2 -2,0 -3,0 -3,1 0,1 0,1 3,2zm17 -4c0,-2 -3,-2 -3,-4 0,-1 0,-2 1,-3 0,2 1,3 2,4 3,1 4,2 4,4 0,3 -2,7 -8,7 -4,0 -8,-4 -8,-7 0,-1 1,-2 1,-2 1,0 1,0 1,1 2,1 4,2 6,2 2,0 4,-1 4,-2zm0 2c-1,1 -2,1 -2,2 0,0 0,1 0,1 0,1 0,1 1,1 1,0 3,-2 3,-4 0,0 0,-1 -1,-1 0,0 0,1 -1,1zm-11 -17c0,-2 5,-3 5,-6 0,0 0,-1 0,-2 2,1 3,3 3,4 0,3 -3,4 -3,5 0,2 3,2 3,4 0,2 -2,4 -2,6 0,2 1,3 3,4 -1,0 -1,0 -2,0 -4,0 -7,-3 -7,-6 0,-2 1,-3 2,-5 1,1 2,2 2,2 1,0 1,0 1,-1 0,-1 -5,-2 -5,-5zm0 0z"/>
   <path class="fil0" d="M45 121c1,0 3,0 4,-2 -1,-2 -1,-5 -1,-6 -1,-7 2,-13 4,-13 2,0 4,2 4,5 0,8 -2,11 -3,14 0,1 2,3 3,3 1,0 2,-1 2,-1 0,0 0,-1 0,-2 0,-4 3,-8 5,-8 2,0 3,3 3,4 0,2 -1,4 -4,6 0,0 1,0 2,0 4,0 6,-4 7,-8 0,-1 1,-2 2,-2 1,0 2,10 4,10 1,0 2,-2 2,-4 0,-1 0,-1 0,-3 0,-2 1,-4 2,-4 1,0 2,1 2,2 0,4 -3,12 -8,12 -3,0 -3,-6 -4,-6 -1,0 -3,6 -9,6 -1,0 -2,-1 -3,-2 -2,1 -3,2 -5,2 -2,0 -3,-3 -4,-3 -1,0 -2,3 -6,3 -3,0 -4,-4 -5,-4 -1,0 -2,4 -4,4 -3,0 -3,-7 -6,-7 -2,0 -8,7 -9,7 -1,0 -1,-1 -1,-1 0,-1 1,-4 1,-5 1,-2 1,-4 1,-4 1,-1 1,-2 2,-2 0,0 0,1 0,1 1,2 1,4 2,4 1,0 4,-6 5,-6 3,0 3,9 6,9 1,0 1,-1 2,-3 0,-2 1,-5 3,-5 1,0 2,3 1,5 0,3 2,4 3,4zm48 -6c0,-2 -1,-4 -4,-4 -2,0 -5,3 -5,8 0,4 2,5 5,5 4,0 6,-4 8,-6 0,2 1,6 2,6 1,0 2,0 2,-2 2,-4 4,-9 7,-9 1,0 0,1 2,1 2,0 2,-1 2,-2 0,-1 -1,-2 -3,-2 -6,0 -7,9 -8,9 -2,0 -2,-7 -3,-7 -1,0 -1,1 -1,1 -1,4 -4,9 -7,9 -1,0 -3,-1 -3,-2 0,0 6,-1 6,-5zm-39 -8c0,-2 -1,-3 -2,-3 -1,0 -2,4 -1,8 0,3 0,4 1,4 0,0 2,-5 2,-9zm-11 -4c0,-1 0,-2 -2,-2 -1,0 -2,1 -2,3 0,1 1,2 2,2 2,0 3,-2 2,-3zm20 13c0,-1 0,-2 -1,-2 0,0 -2,1 -2,3 0,1 1,2 1,2 2,0 2,-2 2,-3zm26 -2c1,0 1,1 1,2 0,1 -1,2 -3,3 -1,-1 -1,-5 2,-5zm-89 1c0,-3 0,-5 1,-9 1,-2 1,-3 3,-3 1,-1 1,1 1,3 -1,4 -1,5 -1,10 1,4 3,6 5,6 3,0 5,-3 6,-7 0,-3 0,-5 -1,-6 0,0 0,-2 0,-3 -1,-2 0,-3 1,-4 2,0 2,1 2,2 1,2 1,5 1,9 0,5 -3,11 -10,11 -5,0 -8,-4 -8,-9zm0 0z"/>
  </g>
 </g>
</svg>
