<?xml version="1.0" encoding="UTF-8"?>
<!DOCTYPE svg PUBLIC "-//W3C//DTD SVG 1.0//EN" "http://www.w3.org/TR/2001/REC-SVG-20010904/DTD/svg10.dtd">
<!-- Creator: CorelDRAW X8 -->
<svg xmlns="http://www.w3.org/2000/svg" xml:space="preserve" width="535px" height="400px" version="1.0" style="shape-rendering:geometricPrecision; text-rendering:geometricPrecision; image-rendering:optimizeQuality; fill-rule:evenodd; clip-rule:evenodd" viewBox="0 0 139 104" xmlns:xlink="http://www.w3.org/1999/xlink">
 <defs>
  <style type="text/css">
   <![CDATA[
    .fil0 {fill:#0056B8}
   ]]>
  </style>
 </defs>
 <g id="Capa_x0020_1">
  <metadata id="CorelCorpID_0Corel-Layer"/>
  <path class="fil0" d="M48 54c6,0 8,1 8,7 0,4 -3,7 -8,6l0 -13zm-29 38l3 0 1 -1c1,-1 0,0 1,-1 -4,0 -4,0 -5,2zm117 -13c-2,1 -2,1 -2,-1 1,0 1,0 2,1zm0 0c0,0 1,0 0,-1 0,-1 -2,-1 -3,0 0,1 0,3 0,4 1,-1 1,-1 1,-2l1 0c1,2 0,2 2,2l-1 -3zm-7 2l1 -2c0,1 0,2 1,3 1,-1 0,-1 1,-2 0,1 -1,1 0,2 1,-1 1,-3 1,-4l-2 -1c0,1 0,3 0,3 -1,0 -1,-1 -1,-2 0,-1 0,-1 -1,-1 0,1 0,2 0,3 0,2 0,1 0,2 0,-1 0,0 0,-1zm2 -7c6,-3 11,8 3,11 -6,3 -11,-8 -3,-11zm1 -1c-4,1 -6,4 -6,8 1,8 14,7 13,-2 -1,-3 -4,-7 -7,-6zm-16 31c2,0 9,0 10,-1l0 -2 -5 0 0 -8 -4 0 -1 11zm-52 -9l0 9 5 0 0 -9 4 1 0 -3 -12 0 0 3 3 -1zm-55 6c-2,0 -3,0 -5,-1l1 3c3,1 7,1 8,-1 1,-3 -1,-4 -3,-5 -1,-1 -1,0 -1,-1 2,-1 3,0 4,0 0,-1 0,-1 0,-2l-1 -1c-8,-2 -8,3 -6,5 1,1 2,1 3,3zm11 -5c0,-1 -1,0 1,-1l4 0 0 -2 -10 0 0 11 10 0 0 -3c-1,0 -2,0 -3,0 -2,0 -2,0 -2,-1 0,-1 1,0 4,-1l0 -2c-1,0 -1,0 -2,0 0,0 -1,0 -2,0 -1,-1 0,0 0,-1zm69 -61c-8,2 -4,12 3,11 2,-1 4,-4 3,-7 0,-3 -3,-5 -6,-4zm-28 0c-7,2 -4,12 3,11 3,-1 5,-4 4,-7 0,-3 -3,-5 -7,-4zm7 -35c-2,1 -4,3 -4,7 1,2 4,5 7,4 7,-2 5,-12 -3,-11zm7 12c-7,2 -4,12 3,11 2,-1 5,-4 4,-7 -1,-3 -4,-5 -7,-4zm-6 11c-8,2 -5,12 2,11 3,-1 5,-3 5,-7 -1,-2 -4,-5 -7,-4zm6 12c-7,2 -4,12 3,11 2,-1 5,-4 4,-7 -1,-3 -4,-5 -7,-4zm7 -35c-7,2 -5,13 3,11 2,-1 5,-3 4,-7 -1,-2 -4,-5 -7,-4zm-21 12c-7,2 -3,13 4,10 6,-2 3,-12 -4,-10zm27 0c-7,2 -3,13 4,10 7,-2 4,-12 -4,-10zm8 11c-7,2 -5,12 2,11 7,-2 5,-12 -2,-11zm-40 0c-8,1 -6,12 1,11 8,-1 6,-12 -1,-11zm27 0c-8,1 -6,12 2,11 7,-1 5,-12 -2,-11zm-27 73l1 2 -2 0 1 -2zm-3 5l5 0 0 3 5 0c0,-2 -1,-4 -2,-6 -3,-6 -1,-6 -8,-5l-6 11 5 -1 1 -2zm28 -1c-4,2 -2,-4 -2,-7l-5 0c0,7 -1,11 6,11 5,0 6,-1 6,-5l1 -6 -5 0c0,2 0,5 -1,7zm-34 -7l-4 0 0 6c-1,-2 -3,-6 -4,-6l-5 0 0 11 4 0 0 -6c0,0 3,5 3,6l6 0 0 -5 0 -6zm61 3l1 2 -2 0 1 -2zm-2 -3c-1,0 -4,8 -6,10l-2 -4c1,-1 3,-2 2,-5 -1,-2 -8,-1 -11,-1 0,5 0,5 0,11l4 0 0 -9c1,0 2,0 3,1 0,1 -1,1 -2,1l1 7 10 -1 1 -2 4 0 1 3 5 0 -5 -11 -5 0zm-34 -8c2,0 3,0 4,0 1,0 2,0 4,0l0 -34 -8 0 0 34zm42 0c3,0 5,0 8,0l0 -34 -8 0 0 34zm-27 -1c5,3 12,3 17,-1 4,-3 6,-10 1,-15 -2,-3 -11,-5 -12,-9 -2,-6 7,-8 10,-3 1,2 0,1 1,2 1,-1 1,0 1,-1 0,0 0,0 0,0 0,-1 0,-1 0,-2 1,-1 1,-1 1,-2 -3,-2 -4,-3 -9,-3 -4,1 -7,2 -8,4 -4,6 -3,13 4,16 3,2 6,3 8,5 2,3 0,7 -3,8 -3,1 -7,-1 -8,-3 -1,-1 -2,-5 -2,-1 -1,1 -1,4 -1,5zm-54 0l0 -14c-3,0 -4,0 -7,0l0 12c-11,5 -20,-5 -17,-18 1,-5 4,-9 9,-10 4,-2 9,0 12,3 1,1 0,1 1,1l2 -5c-2,-1 -7,-2 -10,-3 -4,0 -8,1 -12,2 -6,2 -10,7 -11,16 -1,16 15,20 28,17 2,0 4,-1 5,-1zm8 1c1,0 2,0 3,0 2,0 3,0 4,0l0 -16c1,1 1,1 2,2l8 14c3,0 5,0 9,0l-11 -17c1,0 3,0 4,-1 1,-1 3,-3 3,-4 2,-3 1,-7 -1,-9 -2,-2 -5,-3 -9,-3 -4,0 -8,0 -12,0l0 34z"/>
 </g>
</svg>
