<svg xmlns="http://www.w3.org/2000/svg" xmlns:xlink="http://www.w3.org/1999/xlink" viewBox="0 0 60.18 30.08"><defs><style>.cls-1{fill:none;clip-rule:evenodd;}.cls-2{clip-path:url(#clip-path);}.cls-3{fill:#e0e0e0;}.cls-4{fill:#e1e1e1;}.cls-5{fill:#e2e2e2;}.cls-6{fill:#e3e3e3;}.cls-7{fill:#e4e4e4;}.cls-8{fill:#e5e5e5;}.cls-9{fill:#e6e6e6;}.cls-10{fill:#e7e7e7;}.cls-11{fill:#e8e8e8;}.cls-12{fill:#e9e9e9;}.cls-13{fill:#eaeaea;}.cls-14{fill:#ebebeb;}.cls-15{fill:#ececec;}.cls-16{fill:#ededed;}.cls-17{fill:#eee;}.cls-18{fill:#f0efef;}.cls-19{fill:#f1f0f0;}.cls-20{fill:#f2f1f1;}.cls-21{fill:#f2f2f3;}.cls-22{fill:#f3f3f4;}.cls-23{fill:#f4f4f5;}.cls-24{fill:#f5f5f5;}.cls-25{fill:#f6f6f6;}.cls-26{fill:#f7f7f7;}.cls-27{fill:#f8f8f8;}.cls-28{fill:#f9f9fa;}.cls-29{fill:#fafbfb;}.cls-30{fill:#fbfcfd;}.cls-31{fill:#fdfefe;}.cls-32{fill:#feffff;}.cls-33{fill:#fff;}.cls-34{fill:#ed1c24;fill-rule:evenodd;}</style><clipPath id="clip-path"><path class="cls-1" d="M60.18,0a30.09,30.09,0,0,1-30.1,30.08A30.08,30.08,0,0,1,0,0Z"/></clipPath></defs><title>x0</title><g id="Layer_2" data-name="Layer 2"><g id="Layer_1-2" data-name="Layer 1"><g class="cls-2"><rect class="cls-3" y="30.02" width="60.18" height="0.06"/><rect class="cls-4" y="29.91" width="60.18" height="0.17"/><rect class="cls-4" y="29.79" width="60.18" height="0.17"/><rect class="cls-5" y="29.68" width="60.18" height="0.17"/><rect class="cls-5" y="29.57" width="60.18" height="0.17"/><rect class="cls-6" y="29.45" width="60.18" height="0.17"/><rect class="cls-6" y="29.31" width="60.18" height="0.2"/><rect class="cls-7" y="29.2" width="60.18" height="0.2"/><rect class="cls-7" y="29.08" width="60.18" height="0.17"/><rect class="cls-8" y="28.97" width="60.18" height="0.17"/><rect class="cls-8" y="28.86" width="60.18" height="0.17"/><rect class="cls-9" y="28.74" width="60.18" height="0.17"/><rect class="cls-9" y="28.63" width="60.18" height="0.17"/><rect class="cls-10" y="28.49" width="60.18" height="0.2"/><rect class="cls-11" y="28.37" width="60.18" height="0.17"/><rect class="cls-11" y="28.26" width="60.18" height="0.17"/><rect class="cls-12" y="28.15" width="60.18" height="0.17"/><rect class="cls-12" y="28.03" width="60.18" height="0.17"/><rect class="cls-13" y="27.92" width="60.18" height="0.17"/><rect class="cls-13" y="27.81" width="60.18" height="0.17"/><rect class="cls-14" y="27.67" width="60.18" height="0.2"/><rect class="cls-14" y="27.55" width="60.18" height="0.17"/><rect class="cls-15" y="27.44" width="60.18" height="0.17"/><rect class="cls-15" y="27.33" width="60.18" height="0.17"/><rect class="cls-16" y="27.21" width="60.18" height="0.17"/><rect class="cls-16" y="27.1" width="60.18" height="0.17"/><rect class="cls-17" y="26.99" width="60.18" height="0.17"/><rect class="cls-18" y="26.84" width="60.18" height="0.2"/><rect class="cls-18" y="26.73" width="60.18" height="0.17"/><rect class="cls-19" y="26.62" width="60.18" height="0.17"/><rect class="cls-19" y="26.5" width="60.18" height="0.17"/><rect class="cls-19" y="26.39" width="60.18" height="0.17"/><rect class="cls-19" y="26.28" width="60.18" height="0.17"/><rect class="cls-19" y="26.16" width="60.18" height="0.17"/><rect class="cls-19" y="26.02" width="60.18" height="0.2"/><rect class="cls-20" y="25.91" width="60.18" height="0.17"/><rect class="cls-20" y="25.8" width="60.18" height="0.17"/><rect class="cls-20" y="25.68" width="60.18" height="0.17"/><rect class="cls-20" y="25.57" width="60.18" height="0.17"/><rect class="cls-20" y="25.46" width="60.18" height="0.17"/><rect class="cls-20" y="25.31" width="60.18" height="0.2"/><rect class="cls-21" y="25.2" width="60.18" height="0.2"/><rect class="cls-21" y="25.09" width="60.18" height="0.17"/><rect class="cls-21" y="24.97" width="60.18" height="0.17"/><rect class="cls-21" y="24.86" width="60.18" height="0.17"/><rect class="cls-21" y="24.75" width="60.18" height="0.17"/><rect class="cls-21" y="24.63" width="60.18" height="0.17"/><rect class="cls-22" y="24.49" width="60.18" height="0.2"/><rect class="cls-22" y="24.38" width="60.18" height="0.2"/><rect class="cls-22" y="24.26" width="60.18" height="0.17"/><rect class="cls-22" y="24.15" width="60.18" height="0.17"/><rect class="cls-22" y="24.04" width="60.18" height="0.17"/><rect class="cls-22" y="23.92" width="60.18" height="0.17"/><rect class="cls-23" y="23.81" width="60.18" height="0.17"/><rect class="cls-23" y="23.67" width="60.18" height="0.2"/><rect class="cls-23" y="23.56" width="60.18" height="0.2"/><rect class="cls-23" y="23.44" width="60.18" height="0.17"/><rect class="cls-23" y="23.33" width="60.18" height="0.17"/><rect class="cls-23" y="23.22" width="60.18" height="0.17"/><rect class="cls-24" y="23.1" width="60.18" height="0.17"/><rect class="cls-24" y="22.99" width="60.18" height="0.17"/><rect class="cls-24" y="22.85" width="60.18" height="0.2"/><rect class="cls-24" y="22.73" width="60.18" height="0.2"/><rect class="cls-24" y="22.62" width="60.18" height="0.17"/><rect class="cls-24" y="22.51" width="60.18" height="0.17"/><rect class="cls-25" y="22.39" width="60.18" height="0.17"/><rect class="cls-25" y="22.28" width="60.18" height="0.17"/><rect class="cls-25" y="22.17" width="60.18" height="0.17"/><rect class="cls-25" y="22.03" width="60.18" height="0.2"/><rect class="cls-25" y="21.91" width="60.18" height="0.17"/><rect class="cls-26" y="21.8" width="60.18" height="0.17"/><rect class="cls-26" y="21.69" width="60.18" height="0.17"/><rect class="cls-26" y="21.57" width="60.18" height="0.17"/><rect class="cls-26" y="21.46" width="60.18" height="0.17"/><rect class="cls-26" y="21.34" width="60.18" height="0.17"/><rect class="cls-26" y="21.2" width="60.18" height="0.2"/><rect class="cls-27" y="21.09" width="60.18" height="0.17"/><rect class="cls-27" y="20.98" width="60.18" height="0.17"/><rect class="cls-27" y="20.86" width="60.18" height="0.17"/><rect class="cls-27" y="20.75" width="60.18" height="0.17"/><rect class="cls-27" y="20.64" width="60.18" height="0.17"/><rect class="cls-27" y="20.52" width="60.18" height="0.17"/><rect class="cls-28" y="20.38" width="60.18" height="0.2"/><rect class="cls-28" y="20.27" width="60.18" height="0.17"/><rect class="cls-28" y="20.15" width="60.18" height="0.17"/><rect class="cls-28" y="20.04" width="60.18" height="0.17"/><rect class="cls-28" y="19.93" width="60.18" height="0.17"/><rect class="cls-28" y="19.81" width="60.18" height="0.17"/><rect class="cls-29" y="19.67" width="60.18" height="0.2"/><rect class="cls-29" y="19.56" width="60.18" height="0.2"/><rect class="cls-29" y="19.45" width="60.18" height="0.17"/><rect class="cls-29" y="19.33" width="60.18" height="0.17"/><rect class="cls-29" y="19.22" width="60.18" height="0.17"/><rect class="cls-29" y="19.11" width="60.18" height="0.17"/><rect class="cls-30" y="18.99" width="60.18" height="0.17"/><rect class="cls-30" y="18.85" width="60.18" height="0.2"/><rect class="cls-30" y="18.74" width="60.18" height="0.2"/><rect class="cls-30" y="18.62" width="60.18" height="0.17"/><rect class="cls-30" y="18.51" width="60.18" height="0.17"/><rect class="cls-30" y="18.4" width="60.18" height="0.17"/><rect class="cls-31" y="18.28" width="60.18" height="0.17"/><rect class="cls-31" y="18.17" width="60.18" height="0.17"/><rect class="cls-31" y="18.03" width="60.18" height="0.2"/><rect class="cls-31" y="17.91" width="60.18" height="0.2"/><rect class="cls-31" y="17.8" width="60.18" height="0.17"/><rect class="cls-31" y="17.69" width="60.18" height="0.17"/><rect class="cls-32" y="17.57" width="60.18" height="0.17"/><rect class="cls-32" y="17.46" width="60.18" height="0.17"/><rect class="cls-32" y="17.35" width="60.18" height="0.17"/><rect class="cls-32" y="17.21" width="60.18" height="0.2"/><rect class="cls-32" y="17.09" width="60.18" height="0.2"/><rect class="cls-32" y="16.98" width="60.18" height="0.17"/><rect class="cls-33" y="16.87" width="60.18" height="0.17"/><rect class="cls-33" y="16.75" width="60.18" height="0.17"/><rect class="cls-33" y="16.64" width="60.18" height="0.17"/><rect class="cls-33" y="16.53" width="60.18" height="0.17"/><rect class="cls-33" y="16.38" width="60.18" height="0.2"/><rect class="cls-33" y="16.27" width="60.18" height="0.17"/><rect class="cls-33" y="16.16" width="60.18" height="0.17"/><rect class="cls-33" y="16.04" width="60.18" height="0.17"/><rect class="cls-33" y="15.93" width="60.18" height="0.17"/><rect class="cls-33" y="15.82" width="60.18" height="0.17"/><rect class="cls-33" y="15.7" width="60.18" height="0.17"/><rect class="cls-33" y="15.56" width="60.18" height="0.2"/><rect class="cls-33" y="15.45" width="60.18" height="0.17"/><rect class="cls-33" y="15.34" width="60.18" height="0.17"/><rect class="cls-33" y="15.22" width="60.18" height="0.17"/><rect class="cls-33" y="15.11" width="60.18" height="0.17"/><rect class="cls-33" y="15" width="60.18" height="0.17"/><rect class="cls-33" y="14.88" width="60.18" height="0.17"/><rect class="cls-33" y="14.74" width="60.18" height="0.2"/><rect class="cls-33" y="14.63" width="60.18" height="0.17"/><rect class="cls-33" y="14.51" width="60.18" height="0.17"/><rect class="cls-33" y="14.4" width="60.18" height="0.17"/><rect class="cls-33" y="14.29" width="60.18" height="0.17"/><rect class="cls-33" y="14.17" width="60.18" height="0.17"/><rect class="cls-33" y="14.06" width="60.18" height="0.17"/><rect class="cls-33" y="13.92" width="60.18" height="0.2"/><rect class="cls-33" y="13.8" width="60.18" height="0.17"/><rect class="cls-33" y="13.69" width="60.18" height="0.17"/><rect class="cls-33" y="13.58" width="60.18" height="0.17"/><rect class="cls-33" y="13.46" width="60.18" height="0.17"/><rect class="cls-33" y="13.35" width="60.18" height="0.17"/><rect class="cls-33" y="13.21" width="60.18" height="0.2"/><rect class="cls-33" y="13.1" width="60.18" height="0.2"/><rect class="cls-33" y="12.98" width="60.18" height="0.17"/><rect class="cls-33" y="12.87" width="60.18" height="0.17"/><rect class="cls-33" y="12.76" width="60.18" height="0.17"/><rect class="cls-33" y="12.64" width="60.18" height="0.17"/><rect class="cls-33" y="12.53" width="60.18" height="0.17"/><rect class="cls-33" y="12.39" width="60.18" height="0.2"/><rect class="cls-33" y="12.27" width="60.18" height="0.2"/><rect class="cls-33" y="12.16" width="60.18" height="0.17"/><rect class="cls-33" y="12.05" width="60.18" height="0.17"/><rect class="cls-33" y="11.93" width="60.18" height="0.17"/><rect class="cls-33" y="11.82" width="60.18" height="0.17"/><rect class="cls-33" y="11.71" width="60.18" height="0.17"/><rect class="cls-33" y="11.57" width="60.18" height="0.2"/><rect class="cls-33" y="11.45" width="60.18" height="0.2"/><rect class="cls-33" y="11.34" width="60.18" height="0.17"/><rect class="cls-33" y="11.23" width="60.18" height="0.17"/><rect class="cls-33" y="11.11" width="60.18" height="0.17"/><rect class="cls-33" y="11" width="60.18" height="0.17"/><rect class="cls-33" y="10.89" width="60.18" height="0.17"/><rect class="cls-33" y="10.74" width="60.18" height="0.2"/><rect class="cls-33" y="10.63" width="60.18" height="0.2"/><rect class="cls-33" y="10.52" width="60.18" height="0.17"/><rect class="cls-33" y="10.4" width="60.18" height="0.17"/><rect class="cls-33" y="10.29" width="60.18" height="0.17"/><rect class="cls-33" y="10.18" width="60.18" height="0.17"/><rect class="cls-33" y="10.06" width="60.18" height="0.17"/><rect class="cls-33" y="9.92" width="60.18" height="0.2"/><rect class="cls-33" y="9.81" width="60.18" height="0.17"/><rect class="cls-33" y="9.69" width="60.18" height="0.17"/><rect class="cls-33" y="9.58" width="60.18" height="0.17"/><rect class="cls-33" y="9.47" width="60.18" height="0.17"/><rect class="cls-33" y="9.35" width="60.18" height="0.17"/><rect class="cls-33" y="9.24" width="60.18" height="0.17"/><rect class="cls-33" y="9.1" width="60.18" height="0.2"/><rect class="cls-33" y="8.99" width="60.18" height="0.17"/><rect class="cls-33" y="8.87" width="60.18" height="0.17"/><rect class="cls-33" y="8.76" width="60.18" height="0.17"/><rect class="cls-33" y="8.65" width="60.18" height="0.17"/><rect class="cls-33" y="8.53" width="60.18" height="0.17"/><rect class="cls-33" y="8.42" width="60.18" height="0.17"/><rect class="cls-33" y="8.28" width="60.18" height="0.2"/><rect class="cls-33" y="8.16" width="60.18" height="0.17"/><rect class="cls-33" y="8.05" width="60.18" height="0.17"/><rect class="cls-33" y="7.94" width="60.18" height="0.17"/><rect class="cls-33" y="7.82" width="60.18" height="0.17"/><rect class="cls-33" y="7.71" width="60.18" height="0.17"/><rect class="cls-33" y="7.57" width="60.18" height="0.2"/><rect class="cls-33" y="7.46" width="60.18" height="0.2"/><rect class="cls-33" y="7.34" width="60.18" height="0.17"/><rect class="cls-33" y="7.23" width="60.18" height="0.17"/><rect class="cls-33" y="7.11" width="60.18" height="0.17"/><rect class="cls-33" y="7" width="60.18" height="0.17"/><rect class="cls-33" y="6.89" width="60.18" height="0.17"/><rect class="cls-33" y="6.75" width="60.18" height="0.2"/><rect class="cls-33" y="6.63" width="60.18" height="0.2"/><rect class="cls-33" y="6.52" width="60.18" height="0.17"/><rect class="cls-33" y="6.41" width="60.18" height="0.17"/><rect class="cls-33" y="6.29" width="60.18" height="0.17"/><rect class="cls-33" y="6.18" width="60.18" height="0.17"/><rect class="cls-33" y="6.07" width="60.18" height="0.17"/><rect class="cls-33" y="5.92" width="60.18" height="0.2"/><rect class="cls-33" y="5.81" width="60.18" height="0.2"/><rect class="cls-33" y="5.7" width="60.18" height="0.17"/><rect class="cls-33" y="5.58" width="60.18" height="0.17"/><rect class="cls-33" y="5.47" width="60.18" height="0.17"/><rect class="cls-33" y="5.36" width="60.18" height="0.17"/><rect class="cls-33" y="5.24" width="60.18" height="0.17"/><rect class="cls-33" y="5.1" width="60.18" height="0.2"/><rect class="cls-33" y="4.99" width="60.18" height="0.2"/><rect class="cls-33" y="4.88" width="60.18" height="0.17"/><rect class="cls-33" y="4.76" width="60.18" height="0.17"/><rect class="cls-33" y="4.65" width="60.18" height="0.17"/><rect class="cls-33" y="4.54" width="60.18" height="0.17"/><rect class="cls-33" y="4.42" width="60.18" height="0.17"/><rect class="cls-33" y="4.28" width="60.18" height="0.2"/><rect class="cls-33" y="4.17" width="60.18" height="0.17"/><rect class="cls-33" y="4.05" width="60.18" height="0.17"/><rect class="cls-33" y="3.94" width="60.18" height="0.17"/><rect class="cls-33" y="3.83" width="60.18" height="0.17"/><rect class="cls-33" y="3.71" width="60.18" height="0.17"/><rect class="cls-33" y="3.6" width="60.18" height="0.17"/><rect class="cls-33" y="3.46" width="60.18" height="0.2"/><rect class="cls-33" y="3.34" width="60.18" height="0.17"/><rect class="cls-33" y="3.23" width="60.18" height="0.17"/><rect class="cls-33" y="3.12" width="60.18" height="0.17"/><rect class="cls-33" y="3" width="60.18" height="0.17"/><rect class="cls-33" y="2.89" width="60.18" height="0.17"/><rect class="cls-33" y="2.78" width="60.18" height="0.17"/><rect class="cls-33" y="2.64" width="60.18" height="0.2"/><rect class="cls-33" y="2.52" width="60.18" height="0.17"/><rect class="cls-33" y="2.41" width="60.18" height="0.17"/><rect class="cls-33" y="2.3" width="60.18" height="0.17"/><rect class="cls-33" y="2.18" width="60.18" height="0.17"/><rect class="cls-33" y="2.07" width="60.18" height="0.17"/><rect class="cls-33" y="1.96" width="60.18" height="0.17"/><rect class="cls-33" y="1.81" width="60.18" height="0.2"/><rect class="cls-33" y="1.7" width="60.18" height="0.17"/><rect class="cls-33" y="1.59" width="60.18" height="0.17"/><rect class="cls-33" y="1.47" width="60.18" height="0.17"/><rect class="cls-33" y="1.36" width="60.18" height="0.17"/><rect class="cls-33" y="1.25" width="60.18" height="0.17"/><rect class="cls-33" y="1.11" width="60.18" height="0.2"/><rect class="cls-33" y="0.99" width="60.18" height="0.2"/><rect class="cls-33" y="0.88" width="60.18" height="0.17"/><rect class="cls-33" y="0.77" width="60.18" height="0.17"/><rect class="cls-33" y="0.65" width="60.18" height="0.17"/><rect class="cls-33" y="0.54" width="60.18" height="0.17"/><rect class="cls-33" y="0.43" width="60.18" height="0.17"/><rect class="cls-33" y="0.28" width="60.18" height="0.2"/><rect class="cls-33" y="0.17" width="60.18" height="0.2"/><rect class="cls-33" width="60.18" height="0.23"/></g><path class="cls-34" d="M27.18,22.34a9.79,9.79,0,0,1-1.3-2l-2.69,0,2.55-4.45c.93.32.88-.14,1.3.71,1,2,.82,1.31,2.3,1l.23.49a31.25,31.25,0,0,1-2.39,4.25ZM33,12a2.91,2.91,0,1,1-3-3.31c2.13,0,3,1.33,3,3.31Zm-2.61-4a3.38,3.38,0,0,0-3,1.19,3.65,3.65,0,0,0,2.73,6.09,3.57,3.57,0,0,0,3.62-3.54,3.58,3.58,0,0,0-3.34-3.74Zm-.43,9.24c.74.25,1.87,1.1,2.47.59S32.8,16,34.27,16c.45,0,2.5,3.94,2.72,4.3l-2.72,0a9.4,9.4,0,0,0-1.16,2.16,54,54,0,0,1-3.18-5.33ZM25.46,8c.85-.28,2.15.23,2.74-2.09.63.17,1.31.73,1.88.73S31.35,6.15,32,6c1.07,1.42.48,2,3,2.1a6.24,6.24,0,0,0-.17,2.15c.2.37.91,1,1.16,1.45-1.25,1.9-1.39,0-1.13,3.46-2.47.25-1.9.42-2.89,2-.66-.09-1.42-.74-1.87-.74s-1.28.6-1.93.74c-1-2.1-.63-1.53-3-2.16.63-2.89.06-1.87-1-3.48.34-.51,1.31-1.11,1.31-1.73,0-.8-.32-1.16,0-1.82Zm9.38,13.07c2.1,0,3.65.34,2.92-.85-3.63-6-2-3.6-2.19-5.64-.11-1.05-.36-1,.23-1.64.34-.34.91-.66.94-1.25s-.57-1-.85-1.33c-.57-.57-.46-.49-.29-1.51.37-2.26-1.24-1.07-2.21-1.92-.82-.68-.37-2.41-2.29-1.45s-1.25-.37-3.21-.28c-.17.25-.93,1.56-1.05,1.67-.53.43-1.73.17-2.09.65s.14,1.73-.12,2.35c-.14.37-.93,1-1.19,1.39,0,1.34,1.08,1.28,1.25,2,.23,1.05-.68,1.17.17,2.44a19.57,19.57,0,0,1-1.39,2.64c-2,3.37-1.7,2.69,2,2.69C27.1,24,27,24.15,28,22.48a29.67,29.67,0,0,1,2.07-3.43c.82,1,2.18,4.11,2.89,4.62.88-.4,1-2.21,1.87-2.61Z"/></g></g></svg>