<svg xmlns="http://www.w3.org/2000/svg" xmlns:xlink="http://www.w3.org/1999/xlink" viewBox="0 0 60.18 30.1"><defs><style>.cls-1{fill:none;clip-rule:evenodd;}.cls-2{clip-path:url(#clip-path);}.cls-3{fill:#e0e0e0;}.cls-4{fill:#e1e1e1;}.cls-5{fill:#e2e2e2;}.cls-6{fill:#e3e3e3;}.cls-7{fill:#e4e4e4;}.cls-8{fill:#e5e5e5;}.cls-9{fill:#e6e6e6;}.cls-10{fill:#e7e7e7;}.cls-11{fill:#e8e8e8;}.cls-12{fill:#e9e9e9;}.cls-13{fill:#eaeaea;}.cls-14{fill:#ebebeb;}.cls-15{fill:#ececec;}.cls-16{fill:#ededed;}.cls-17{fill:#eee;}.cls-18{fill:#f0efef;}.cls-19{fill:#f1f0f0;}.cls-20{fill:#f2f1f1;}.cls-21{fill:#f2f2f3;}.cls-22{fill:#f3f3f4;}.cls-23{fill:#f4f4f5;}.cls-24{fill:#f5f5f5;}.cls-25{fill:#f6f6f6;}.cls-26{fill:#f7f7f7;}.cls-27{fill:#f8f8f8;}.cls-28{fill:#f9f9fa;}.cls-29{fill:#fafbfb;}.cls-30{fill:#fbfcfd;}.cls-31{fill:#fdfefe;}.cls-32{fill:#feffff;}.cls-33{fill:#fff;}.cls-34{fill:#ed1c24;fill-rule:evenodd;}</style><clipPath id="clip-path"><path class="cls-1" d="M60.18,0a30.1,30.1,0,0,1-30.1,30.1A30.09,30.09,0,0,1,0,0Z"/></clipPath></defs><title>x1</title><g id="Layer_2" data-name="Layer 2"><g id="Layer_1-2" data-name="Layer 1"><g class="cls-2"><rect class="cls-3" y="30.02" width="60.18" height="0.09"/><rect class="cls-4" y="29.91" width="60.18" height="0.2"/><rect class="cls-4" y="29.79" width="60.18" height="0.17"/><rect class="cls-5" y="29.68" width="60.18" height="0.17"/><rect class="cls-5" y="29.57" width="60.18" height="0.17"/><rect class="cls-6" y="29.45" width="60.18" height="0.17"/><rect class="cls-6" y="29.34" width="60.18" height="0.17"/><rect class="cls-7" y="29.2" width="60.18" height="0.2"/><rect class="cls-7" y="29.08" width="60.18" height="0.17"/><rect class="cls-8" y="28.97" width="60.18" height="0.17"/><rect class="cls-8" y="28.86" width="60.18" height="0.17"/><rect class="cls-9" y="28.74" width="60.18" height="0.17"/><rect class="cls-9" y="28.63" width="60.18" height="0.17"/><rect class="cls-10" y="28.52" width="60.18" height="0.17"/><rect class="cls-11" y="28.37" width="60.18" height="0.2"/><rect class="cls-11" y="28.26" width="60.18" height="0.17"/><rect class="cls-12" y="28.15" width="60.18" height="0.17"/><rect class="cls-12" y="28.03" width="60.18" height="0.17"/><rect class="cls-13" y="27.92" width="60.18" height="0.17"/><rect class="cls-13" y="27.81" width="60.18" height="0.17"/><rect class="cls-14" y="27.69" width="60.18" height="0.17"/><rect class="cls-14" y="27.55" width="60.18" height="0.2"/><rect class="cls-15" y="27.44" width="60.18" height="0.17"/><rect class="cls-15" y="27.33" width="60.18" height="0.17"/><rect class="cls-16" y="27.21" width="60.18" height="0.17"/><rect class="cls-16" y="27.1" width="60.18" height="0.17"/><rect class="cls-17" y="26.99" width="60.18" height="0.17"/><rect class="cls-18" y="26.87" width="60.18" height="0.17"/><rect class="cls-18" y="26.73" width="60.18" height="0.2"/><rect class="cls-19" y="26.62" width="60.18" height="0.17"/><rect class="cls-19" y="26.5" width="60.18" height="0.17"/><rect class="cls-19" y="26.39" width="60.18" height="0.17"/><rect class="cls-19" y="26.28" width="60.18" height="0.17"/><rect class="cls-19" y="26.16" width="60.18" height="0.17"/><rect class="cls-19" y="26.02" width="60.18" height="0.2"/><rect class="cls-20" y="25.91" width="60.18" height="0.2"/><rect class="cls-20" y="25.8" width="60.18" height="0.17"/><rect class="cls-20" y="25.68" width="60.18" height="0.17"/><rect class="cls-20" y="25.57" width="60.18" height="0.17"/><rect class="cls-20" y="25.46" width="60.18" height="0.17"/><rect class="cls-20" y="25.34" width="60.18" height="0.17"/><rect class="cls-21" y="25.2" width="60.18" height="0.2"/><rect class="cls-21" y="25.09" width="60.18" height="0.2"/><rect class="cls-21" y="24.97" width="60.18" height="0.17"/><rect class="cls-21" y="24.86" width="60.18" height="0.17"/><rect class="cls-21" y="24.75" width="60.18" height="0.17"/><rect class="cls-21" y="24.63" width="60.18" height="0.17"/><rect class="cls-22" y="24.52" width="60.18" height="0.17"/><rect class="cls-22" y="24.38" width="60.18" height="0.2"/><rect class="cls-22" y="24.26" width="60.18" height="0.2"/><rect class="cls-22" y="24.15" width="60.18" height="0.17"/><rect class="cls-22" y="24.04" width="60.18" height="0.17"/><rect class="cls-22" y="23.92" width="60.18" height="0.17"/><rect class="cls-23" y="23.81" width="60.18" height="0.17"/><rect class="cls-23" y="23.7" width="60.18" height="0.17"/><rect class="cls-23" y="23.56" width="60.18" height="0.2"/><rect class="cls-23" y="23.44" width="60.18" height="0.2"/><rect class="cls-23" y="23.33" width="60.18" height="0.17"/><rect class="cls-23" y="23.22" width="60.18" height="0.17"/><rect class="cls-24" y="23.1" width="60.18" height="0.17"/><rect class="cls-24" y="22.99" width="60.18" height="0.17"/><rect class="cls-24" y="22.88" width="60.18" height="0.17"/><rect class="cls-24" y="22.73" width="60.18" height="0.2"/><rect class="cls-24" y="22.62" width="60.18" height="0.17"/><rect class="cls-24" y="22.51" width="60.18" height="0.17"/><rect class="cls-25" y="22.39" width="60.18" height="0.17"/><rect class="cls-25" y="22.28" width="60.18" height="0.17"/><rect class="cls-25" y="22.17" width="60.18" height="0.17"/><rect class="cls-25" y="22.05" width="60.18" height="0.17"/><rect class="cls-25" y="21.91" width="60.18" height="0.2"/><rect class="cls-26" y="21.8" width="60.18" height="0.17"/><rect class="cls-26" y="21.68" width="60.18" height="0.17"/><rect class="cls-26" y="21.57" width="60.18" height="0.17"/><rect class="cls-26" y="21.46" width="60.18" height="0.17"/><rect class="cls-26" y="21.34" width="60.18" height="0.17"/><rect class="cls-26" y="21.23" width="60.18" height="0.17"/><rect class="cls-27" y="21.09" width="60.18" height="0.2"/><rect class="cls-27" y="20.98" width="60.18" height="0.17"/><rect class="cls-27" y="20.86" width="60.18" height="0.17"/><rect class="cls-27" y="20.75" width="60.18" height="0.17"/><rect class="cls-27" y="20.64" width="60.18" height="0.17"/><rect class="cls-27" y="20.52" width="60.18" height="0.17"/><rect class="cls-28" y="20.41" width="60.18" height="0.17"/><rect class="cls-28" y="20.27" width="60.18" height="0.2"/><rect class="cls-28" y="20.15" width="60.18" height="0.17"/><rect class="cls-28" y="20.04" width="60.18" height="0.17"/><rect class="cls-28" y="19.93" width="60.18" height="0.17"/><rect class="cls-28" y="19.81" width="60.18" height="0.17"/><rect class="cls-29" y="19.7" width="60.18" height="0.17"/><rect class="cls-29" y="19.56" width="60.18" height="0.2"/><rect class="cls-29" y="19.45" width="60.18" height="0.2"/><rect class="cls-29" y="19.33" width="60.18" height="0.17"/><rect class="cls-29" y="19.22" width="60.18" height="0.17"/><rect class="cls-29" y="19.11" width="60.18" height="0.17"/><rect class="cls-30" y="18.99" width="60.18" height="0.17"/><rect class="cls-30" y="18.88" width="60.18" height="0.17"/><rect class="cls-30" y="18.74" width="60.18" height="0.2"/><rect class="cls-30" y="18.62" width="60.18" height="0.2"/><rect class="cls-30" y="18.51" width="60.18" height="0.17"/><rect class="cls-30" y="18.4" width="60.18" height="0.17"/><rect class="cls-31" y="18.28" width="60.18" height="0.17"/><rect class="cls-31" y="18.17" width="60.18" height="0.17"/><rect class="cls-31" y="18.06" width="60.18" height="0.17"/><rect class="cls-31" y="17.91" width="60.18" height="0.2"/><rect class="cls-31" y="17.8" width="60.18" height="0.2"/><rect class="cls-31" y="17.69" width="60.18" height="0.17"/><rect class="cls-32" y="17.57" width="60.18" height="0.17"/><rect class="cls-32" y="17.46" width="60.18" height="0.17"/><rect class="cls-32" y="17.35" width="60.18" height="0.17"/><rect class="cls-32" y="17.23" width="60.18" height="0.17"/><rect class="cls-32" y="17.09" width="60.18" height="0.2"/><rect class="cls-32" y="16.98" width="60.18" height="0.17"/><rect class="cls-33" y="16.87" width="60.18" height="0.17"/><rect class="cls-33" y="16.75" width="60.18" height="0.17"/><rect class="cls-33" y="16.64" width="60.18" height="0.17"/><rect class="cls-33" y="16.53" width="60.18" height="0.17"/><rect class="cls-33" y="16.41" width="60.18" height="0.17"/><rect class="cls-33" y="16.27" width="60.18" height="0.2"/><rect class="cls-33" y="16.16" width="60.18" height="0.17"/><rect class="cls-33" y="16.04" width="60.18" height="0.17"/><rect class="cls-33" y="15.93" width="60.18" height="0.17"/><rect class="cls-33" y="15.82" width="60.18" height="0.17"/><rect class="cls-33" y="15.7" width="60.18" height="0.17"/><rect class="cls-33" y="15.59" width="60.18" height="0.17"/><rect class="cls-33" y="15.45" width="60.18" height="0.2"/><rect class="cls-33" y="15.34" width="60.18" height="0.17"/><rect class="cls-33" y="15.22" width="60.18" height="0.17"/><rect class="cls-33" y="15.11" width="60.18" height="0.17"/><rect class="cls-33" y="15" width="60.18" height="0.17"/><rect class="cls-33" y="14.88" width="60.18" height="0.17"/><rect class="cls-33" y="14.77" width="60.18" height="0.17"/><rect class="cls-33" y="14.63" width="60.18" height="0.2"/><rect class="cls-33" y="14.51" width="60.18" height="0.17"/><rect class="cls-33" y="14.4" width="60.18" height="0.17"/><rect class="cls-33" y="14.29" width="60.18" height="0.17"/><rect class="cls-33" y="14.17" width="60.18" height="0.17"/><rect class="cls-33" y="14.06" width="60.18" height="0.17"/><rect class="cls-33" y="13.92" width="60.18" height="0.2"/><rect class="cls-33" y="13.8" width="60.18" height="0.2"/><rect class="cls-33" y="13.69" width="60.18" height="0.17"/><rect class="cls-33" y="13.58" width="60.18" height="0.17"/><rect class="cls-33" y="13.46" width="60.18" height="0.17"/><rect class="cls-33" y="13.35" width="60.18" height="0.17"/><rect class="cls-33" y="13.24" width="60.18" height="0.17"/><rect class="cls-33" y="13.1" width="60.18" height="0.2"/><rect class="cls-33" y="12.98" width="60.18" height="0.2"/><rect class="cls-33" y="12.87" width="60.18" height="0.17"/><rect class="cls-33" y="12.76" width="60.18" height="0.17"/><rect class="cls-33" y="12.64" width="60.18" height="0.17"/><rect class="cls-33" y="12.53" width="60.18" height="0.17"/><rect class="cls-33" y="12.42" width="60.18" height="0.17"/><rect class="cls-33" y="12.27" width="60.18" height="0.2"/><rect class="cls-33" y="12.16" width="60.18" height="0.2"/><rect class="cls-33" y="12.05" width="60.18" height="0.17"/><rect class="cls-33" y="11.93" width="60.18" height="0.17"/><rect class="cls-33" y="11.82" width="60.18" height="0.17"/><rect class="cls-33" y="11.71" width="60.18" height="0.17"/><rect class="cls-33" y="11.59" width="60.18" height="0.17"/><rect class="cls-33" y="11.45" width="60.18" height="0.2"/><rect class="cls-33" y="11.34" width="60.18" height="0.2"/><rect class="cls-33" y="11.23" width="60.18" height="0.17"/><rect class="cls-33" y="11.11" width="60.18" height="0.17"/><rect class="cls-33" y="11" width="60.18" height="0.17"/><rect class="cls-33" y="10.89" width="60.18" height="0.17"/><rect class="cls-33" y="10.77" width="60.18" height="0.17"/><rect class="cls-33" y="10.63" width="60.18" height="0.2"/><rect class="cls-33" y="10.52" width="60.18" height="0.17"/><rect class="cls-33" y="10.4" width="60.18" height="0.17"/><rect class="cls-33" y="10.29" width="60.18" height="0.17"/><rect class="cls-33" y="10.18" width="60.18" height="0.17"/><rect class="cls-33" y="10.06" width="60.18" height="0.17"/><rect class="cls-33" y="9.95" width="60.18" height="0.17"/><rect class="cls-33" y="9.81" width="60.18" height="0.2"/><rect class="cls-33" y="9.69" width="60.18" height="0.17"/><rect class="cls-33" y="9.58" width="60.18" height="0.17"/><rect class="cls-33" y="9.47" width="60.18" height="0.17"/><rect class="cls-33" y="9.35" width="60.18" height="0.17"/><rect class="cls-33" y="9.24" width="60.18" height="0.17"/><rect class="cls-33" y="9.13" width="60.18" height="0.17"/><rect class="cls-33" y="8.99" width="60.18" height="0.2"/><rect class="cls-33" y="8.87" width="60.18" height="0.17"/><rect class="cls-33" y="8.76" width="60.18" height="0.17"/><rect class="cls-33" y="8.65" width="60.18" height="0.17"/><rect class="cls-33" y="8.53" width="60.18" height="0.17"/><rect class="cls-33" y="8.42" width="60.18" height="0.17"/><rect class="cls-33" y="8.31" width="60.18" height="0.17"/><rect class="cls-33" y="8.16" width="60.18" height="0.2"/><rect class="cls-33" y="8.05" width="60.18" height="0.17"/><rect class="cls-33" y="7.94" width="60.18" height="0.17"/><rect class="cls-33" y="7.82" width="60.18" height="0.17"/><rect class="cls-33" y="7.71" width="60.18" height="0.17"/><rect class="cls-33" y="7.6" width="60.18" height="0.17"/><rect class="cls-33" y="7.46" width="60.18" height="0.2"/><rect class="cls-33" y="7.34" width="60.18" height="0.2"/><rect class="cls-33" y="7.23" width="60.18" height="0.17"/><rect class="cls-33" y="7.11" width="60.18" height="0.17"/><rect class="cls-33" y="7" width="60.18" height="0.17"/><rect class="cls-33" y="6.89" width="60.18" height="0.17"/><rect class="cls-33" y="6.77" width="60.18" height="0.17"/><rect class="cls-33" y="6.63" width="60.18" height="0.2"/><rect class="cls-33" y="6.52" width="60.18" height="0.2"/><rect class="cls-33" y="6.41" width="60.18" height="0.17"/><rect class="cls-33" y="6.29" width="60.18" height="0.17"/><rect class="cls-33" y="6.18" width="60.18" height="0.17"/><rect class="cls-33" y="6.07" width="60.18" height="0.17"/><rect class="cls-33" y="5.95" width="60.18" height="0.17"/><rect class="cls-33" y="5.81" width="60.18" height="0.2"/><rect class="cls-33" y="5.7" width="60.18" height="0.2"/><rect class="cls-33" y="5.58" width="60.18" height="0.17"/><rect class="cls-33" y="5.47" width="60.18" height="0.17"/><rect class="cls-33" y="5.36" width="60.18" height="0.17"/><rect class="cls-33" y="5.24" width="60.18" height="0.17"/><rect class="cls-33" y="5.13" width="60.18" height="0.17"/><rect class="cls-33" y="4.99" width="60.18" height="0.2"/><rect class="cls-33" y="4.88" width="60.18" height="0.17"/><rect class="cls-33" y="4.76" width="60.18" height="0.17"/><rect class="cls-33" y="4.65" width="60.18" height="0.17"/><rect class="cls-33" y="4.54" width="60.18" height="0.17"/><rect class="cls-33" y="4.42" width="60.18" height="0.17"/><rect class="cls-33" y="4.31" width="60.18" height="0.17"/><rect class="cls-33" y="4.17" width="60.18" height="0.2"/><rect class="cls-33" y="4.05" width="60.18" height="0.17"/><rect class="cls-33" y="3.94" width="60.18" height="0.17"/><rect class="cls-33" y="3.83" width="60.18" height="0.17"/><rect class="cls-33" y="3.71" width="60.18" height="0.17"/><rect class="cls-33" y="3.6" width="60.18" height="0.17"/><rect class="cls-33" y="3.49" width="60.18" height="0.17"/><rect class="cls-33" y="3.34" width="60.18" height="0.2"/><rect class="cls-33" y="3.23" width="60.18" height="0.17"/><rect class="cls-33" y="3.12" width="60.18" height="0.17"/><rect class="cls-33" y="3" width="60.18" height="0.17"/><rect class="cls-33" y="2.89" width="60.18" height="0.17"/><rect class="cls-33" y="2.78" width="60.18" height="0.17"/><rect class="cls-33" y="2.66" width="60.18" height="0.17"/><rect class="cls-33" y="2.52" width="60.18" height="0.2"/><rect class="cls-33" y="2.41" width="60.18" height="0.17"/><rect class="cls-33" y="2.3" width="60.18" height="0.17"/><rect class="cls-33" y="2.18" width="60.18" height="0.17"/><rect class="cls-33" y="2.07" width="60.18" height="0.17"/><rect class="cls-33" y="1.96" width="60.18" height="0.17"/><rect class="cls-33" y="1.81" width="60.18" height="0.2"/><rect class="cls-33" y="1.7" width="60.18" height="0.2"/><rect class="cls-33" y="1.59" width="60.18" height="0.17"/><rect class="cls-33" y="1.47" width="60.18" height="0.17"/><rect class="cls-33" y="1.36" width="60.18" height="0.17"/><rect class="cls-33" y="1.25" width="60.18" height="0.17"/><rect class="cls-33" y="1.13" width="60.18" height="0.17"/><rect class="cls-33" y="0.99" width="60.18" height="0.2"/><rect class="cls-33" y="0.88" width="60.18" height="0.2"/><rect class="cls-33" y="0.77" width="60.18" height="0.17"/><rect class="cls-33" y="0.65" width="60.18" height="0.17"/><rect class="cls-33" y="0.54" width="60.18" height="0.17"/><rect class="cls-33" y="0.43" width="60.18" height="0.17"/><rect class="cls-33" y="0.31" width="60.18" height="0.17"/><rect class="cls-33" y="0.17" width="60.18" height="0.2"/><rect class="cls-33" width="60.18" height="0.26"/></g><path class="cls-34" d="M34.13,16.87,34,16.5c-.06-.12-.09-.23-.14-.34-.2-.48-.74-1.76-.26-2.13s2.75-.23,3.54-.23h2.38V12.67c-.93-.06-2,0-2.91,0a17.87,17.87,0,0,0-2.84.09,1.81,1.81,0,0,0-1.53,1.41,4.67,4.67,0,0,0,.48,2.33c.51,1.3,1.39,3,.8,4.62a3.56,3.56,0,0,1-3.8,2,4,4,0,0,1-3-1.42c-1.22-1.73.06-3.68.88-5.35A3.21,3.21,0,0,0,28.06,14a1.81,1.81,0,0,0-1.58-1.27c-1,0-2,0-2.95,0s-2-.06-2.87,0v1.13c.63.06,3.63,0,4.57,0,.71,0,1.67-.17,1.76.57.19,1.47-2.73,4.22-1.7,7a3.84,3.84,0,0,0,.9,1.39,5.69,5.69,0,0,0,6.83.65c1.68-1.07,2.13-2.83,1.65-4.87-.09-.4-.54-1.62-.54-1.7ZM21.46,20.58a.74.74,0,0,0,1.47-.17.74.74,0,0,0-1.47.17Zm14.91.51A.74.74,0,0,0,37.84,21a.74.74,0,0,0-1.47.14Zm-.74-3.26a.75.75,0,1,0,.65-.85.78.78,0,0,0-.65.85Zm2-3a.74.74,0,1,0,.45,1.41.74.74,0,0,0-.45-1.41ZM22.73,18.4A.75.75,0,0,0,24.18,18a.75.75,0,0,0-1.45.37Zm-.19-3.6A.74.74,0,1,0,23,16.21a.74.74,0,0,0-.45-1.41Zm12-9c-.23-.09-.34.08-.49.2L33,7a13.27,13.27,0,0,0-1.28,1.53c-2,2.75-2,5.39-2.63,8.62-.17.73-.49,1.44-.63,2.18A1.74,1.74,0,0,0,31.38,21c.59-.68.37-1.28.17-2.18C30.5,13.46,31.21,10.83,34,6.69c.23-.31.54-.65.49-.85Z"/></g></g></svg>