<svg xmlns="http://www.w3.org/2000/svg" xmlns:xlink="http://www.w3.org/1999/xlink" viewBox="0 0 60.18 30.08"><defs><style>.cls-1{fill:none;clip-rule:evenodd;}.cls-2{clip-path:url(#clip-path);}.cls-3{fill:#e0e0e0;}.cls-4{fill:#e1e1e1;}.cls-5{fill:#e2e2e2;}.cls-6{fill:#e3e3e3;}.cls-7{fill:#e4e4e4;}.cls-8{fill:#e5e5e5;}.cls-9{fill:#e6e6e6;}.cls-10{fill:#e7e7e7;}.cls-11{fill:#e8e8e8;}.cls-12{fill:#e9e9e9;}.cls-13{fill:#eaeaea;}.cls-14{fill:#ebebeb;}.cls-15{fill:#ececec;}.cls-16{fill:#ededed;}.cls-17{fill:#eee;}.cls-18{fill:#f0efef;}.cls-19{fill:#f1f0f0;}.cls-20{fill:#f2f1f1;}.cls-21{fill:#f2f2f3;}.cls-22{fill:#f3f3f4;}.cls-23{fill:#f4f4f5;}.cls-24{fill:#f5f5f5;}.cls-25{fill:#f6f6f6;}.cls-26{fill:#f7f7f7;}.cls-27{fill:#f8f8f8;}.cls-28{fill:#f9f9fa;}.cls-29{fill:#fafbfb;}.cls-30{fill:#fbfcfd;}.cls-31{fill:#fdfefe;}.cls-32{fill:#feffff;}.cls-33{fill:#fff;}.cls-34{fill:#ed1c24;fill-rule:evenodd;}</style><clipPath id="clip-path"><path class="cls-1" d="M60.18,0a30.09,30.09,0,0,1-30.1,30.08A30.08,30.08,0,0,1,0,0Z"/></clipPath></defs><title>x2</title><g id="Layer_2" data-name="Layer 2"><g id="Layer_1-2" data-name="Layer 1"><g class="cls-2"><rect class="cls-3" y="30.02" width="60.18" height="0.06"/><rect class="cls-4" y="29.91" width="60.18" height="0.17"/><rect class="cls-4" y="29.79" width="60.18" height="0.17"/><rect class="cls-5" y="29.68" width="60.18" height="0.17"/><rect class="cls-5" y="29.57" width="60.18" height="0.17"/><rect class="cls-6" y="29.42" width="60.18" height="0.2"/><rect class="cls-6" y="29.31" width="60.18" height="0.2"/><rect class="cls-7" y="29.2" width="60.18" height="0.17"/><rect class="cls-7" y="29.08" width="60.18" height="0.17"/><rect class="cls-8" y="28.97" width="60.18" height="0.17"/><rect class="cls-8" y="28.86" width="60.18" height="0.17"/><rect class="cls-9" y="28.74" width="60.18" height="0.17"/><rect class="cls-9" y="28.6" width="60.18" height="0.2"/><rect class="cls-10" y="28.49" width="60.18" height="0.17"/><rect class="cls-11" y="28.37" width="60.18" height="0.17"/><rect class="cls-11" y="28.26" width="60.18" height="0.17"/><rect class="cls-12" y="28.15" width="60.18" height="0.17"/><rect class="cls-12" y="28.03" width="60.18" height="0.17"/><rect class="cls-13" y="27.92" width="60.18" height="0.17"/><rect class="cls-13" y="27.78" width="60.18" height="0.2"/><rect class="cls-14" y="27.67" width="60.18" height="0.17"/><rect class="cls-14" y="27.55" width="60.18" height="0.17"/><rect class="cls-15" y="27.44" width="60.18" height="0.17"/><rect class="cls-15" y="27.33" width="60.18" height="0.17"/><rect class="cls-16" y="27.21" width="60.18" height="0.17"/><rect class="cls-16" y="27.1" width="60.18" height="0.17"/><rect class="cls-17" y="26.96" width="60.18" height="0.2"/><rect class="cls-18" y="26.84" width="60.18" height="0.17"/><rect class="cls-18" y="26.73" width="60.18" height="0.17"/><rect class="cls-19" y="26.62" width="60.18" height="0.17"/><rect class="cls-19" y="26.5" width="60.18" height="0.17"/><rect class="cls-19" y="26.39" width="60.18" height="0.17"/><rect class="cls-19" y="26.28" width="60.18" height="0.17"/><rect class="cls-19" y="26.14" width="60.18" height="0.2"/><rect class="cls-19" y="26.02" width="60.18" height="0.17"/><rect class="cls-20" y="25.91" width="60.18" height="0.17"/><rect class="cls-20" y="25.8" width="60.18" height="0.17"/><rect class="cls-20" y="25.68" width="60.18" height="0.17"/><rect class="cls-20" y="25.57" width="60.18" height="0.17"/><rect class="cls-20" y="25.43" width="60.18" height="0.2"/><rect class="cls-20" y="25.31" width="60.18" height="0.2"/><rect class="cls-21" y="25.2" width="60.18" height="0.17"/><rect class="cls-21" y="25.09" width="60.18" height="0.17"/><rect class="cls-21" y="24.97" width="60.18" height="0.17"/><rect class="cls-21" y="24.86" width="60.18" height="0.17"/><rect class="cls-21" y="24.75" width="60.18" height="0.17"/><rect class="cls-21" y="24.6" width="60.18" height="0.2"/><rect class="cls-22" y="24.49" width="60.18" height="0.2"/><rect class="cls-22" y="24.38" width="60.18" height="0.17"/><rect class="cls-22" y="24.26" width="60.18" height="0.17"/><rect class="cls-22" y="24.15" width="60.18" height="0.17"/><rect class="cls-22" y="24.04" width="60.18" height="0.17"/><rect class="cls-22" y="23.92" width="60.18" height="0.17"/><rect class="cls-23" y="23.78" width="60.18" height="0.2"/><rect class="cls-23" y="23.67" width="60.18" height="0.2"/><rect class="cls-23" y="23.56" width="60.18" height="0.17"/><rect class="cls-23" y="23.44" width="60.18" height="0.17"/><rect class="cls-23" y="23.33" width="60.18" height="0.17"/><rect class="cls-23" y="23.22" width="60.18" height="0.17"/><rect class="cls-24" y="23.1" width="60.18" height="0.17"/><rect class="cls-24" y="22.96" width="60.18" height="0.2"/><rect class="cls-24" y="22.85" width="60.18" height="0.17"/><rect class="cls-24" y="22.73" width="60.18" height="0.17"/><rect class="cls-24" y="22.62" width="60.18" height="0.17"/><rect class="cls-24" y="22.51" width="60.18" height="0.17"/><rect class="cls-25" y="22.39" width="60.18" height="0.17"/><rect class="cls-25" y="22.28" width="60.18" height="0.17"/><rect class="cls-25" y="22.14" width="60.18" height="0.2"/><rect class="cls-25" y="22.03" width="60.18" height="0.17"/><rect class="cls-25" y="21.91" width="60.18" height="0.17"/><rect class="cls-26" y="21.8" width="60.18" height="0.17"/><rect class="cls-26" y="21.69" width="60.18" height="0.17"/><rect class="cls-26" y="21.57" width="60.18" height="0.17"/><rect class="cls-26" y="21.46" width="60.18" height="0.17"/><rect class="cls-26" y="21.32" width="60.18" height="0.2"/><rect class="cls-26" y="21.2" width="60.18" height="0.17"/><rect class="cls-27" y="21.09" width="60.18" height="0.17"/><rect class="cls-27" y="20.98" width="60.18" height="0.17"/><rect class="cls-27" y="20.86" width="60.18" height="0.17"/><rect class="cls-27" y="20.75" width="60.18" height="0.17"/><rect class="cls-27" y="20.64" width="60.18" height="0.17"/><rect class="cls-27" y="20.49" width="60.18" height="0.2"/><rect class="cls-28" y="20.38" width="60.18" height="0.17"/><rect class="cls-28" y="20.27" width="60.18" height="0.17"/><rect class="cls-28" y="20.15" width="60.18" height="0.17"/><rect class="cls-28" y="20.04" width="60.18" height="0.17"/><rect class="cls-28" y="19.93" width="60.18" height="0.17"/><rect class="cls-28" y="19.79" width="60.18" height="0.2"/><rect class="cls-29" y="19.67" width="60.18" height="0.2"/><rect class="cls-29" y="19.56" width="60.18" height="0.17"/><rect class="cls-29" y="19.45" width="60.18" height="0.17"/><rect class="cls-29" y="19.33" width="60.18" height="0.17"/><rect class="cls-29" y="19.22" width="60.18" height="0.17"/><rect class="cls-29" y="19.11" width="60.18" height="0.17"/><rect class="cls-30" y="18.96" width="60.18" height="0.2"/><rect class="cls-30" y="18.85" width="60.18" height="0.2"/><rect class="cls-30" y="18.74" width="60.18" height="0.17"/><rect class="cls-30" y="18.62" width="60.18" height="0.17"/><rect class="cls-30" y="18.51" width="60.18" height="0.17"/><rect class="cls-30" y="18.4" width="60.18" height="0.17"/><rect class="cls-31" y="18.28" width="60.18" height="0.17"/><rect class="cls-31" y="18.14" width="60.18" height="0.2"/><rect class="cls-31" y="18.03" width="60.18" height="0.2"/><rect class="cls-31" y="17.91" width="60.18" height="0.17"/><rect class="cls-31" y="17.8" width="60.18" height="0.17"/><rect class="cls-31" y="17.69" width="60.18" height="0.17"/><rect class="cls-32" y="17.57" width="60.18" height="0.17"/><rect class="cls-32" y="17.46" width="60.18" height="0.17"/><rect class="cls-32" y="17.32" width="60.18" height="0.2"/><rect class="cls-32" y="17.21" width="60.18" height="0.2"/><rect class="cls-32" y="17.09" width="60.18" height="0.17"/><rect class="cls-32" y="16.98" width="60.18" height="0.17"/><rect class="cls-33" y="16.87" width="60.18" height="0.17"/><rect class="cls-33" y="16.75" width="60.18" height="0.17"/><rect class="cls-33" y="16.64" width="60.18" height="0.17"/><rect class="cls-33" y="16.5" width="60.18" height="0.2"/><rect class="cls-33" y="16.38" width="60.18" height="0.17"/><rect class="cls-33" y="16.27" width="60.18" height="0.17"/><rect class="cls-33" y="16.16" width="60.18" height="0.17"/><rect class="cls-33" y="16.04" width="60.18" height="0.17"/><rect class="cls-33" y="15.93" width="60.18" height="0.17"/><rect class="cls-33" y="15.82" width="60.18" height="0.17"/><rect class="cls-33" y="15.68" width="60.18" height="0.2"/><rect class="cls-33" y="15.56" width="60.18" height="0.17"/><rect class="cls-33" y="15.45" width="60.18" height="0.17"/><rect class="cls-33" y="15.34" width="60.18" height="0.17"/><rect class="cls-33" y="15.22" width="60.18" height="0.17"/><rect class="cls-33" y="15.11" width="60.18" height="0.17"/><rect class="cls-33" y="15" width="60.18" height="0.17"/><rect class="cls-33" y="14.85" width="60.18" height="0.2"/><rect class="cls-33" y="14.74" width="60.18" height="0.17"/><rect class="cls-33" y="14.63" width="60.18" height="0.17"/><rect class="cls-33" y="14.51" width="60.18" height="0.17"/><rect class="cls-33" y="14.4" width="60.18" height="0.17"/><rect class="cls-33" y="14.29" width="60.18" height="0.17"/><rect class="cls-33" y="14.17" width="60.18" height="0.17"/><rect class="cls-33" y="14.03" width="60.18" height="0.2"/><rect class="cls-33" y="13.92" width="60.18" height="0.17"/><rect class="cls-33" y="13.8" width="60.18" height="0.17"/><rect class="cls-33" y="13.69" width="60.18" height="0.17"/><rect class="cls-33" y="13.58" width="60.18" height="0.17"/><rect class="cls-33" y="13.46" width="60.18" height="0.17"/><rect class="cls-33" y="13.32" width="60.18" height="0.2"/><rect class="cls-33" y="13.21" width="60.18" height="0.2"/><rect class="cls-33" y="13.1" width="60.18" height="0.17"/><rect class="cls-33" y="12.98" width="60.18" height="0.17"/><rect class="cls-33" y="12.87" width="60.18" height="0.17"/><rect class="cls-33" y="12.76" width="60.18" height="0.17"/><rect class="cls-33" y="12.64" width="60.18" height="0.17"/><rect class="cls-33" y="12.5" width="60.18" height="0.2"/><rect class="cls-33" y="12.39" width="60.18" height="0.2"/><rect class="cls-33" y="12.27" width="60.18" height="0.17"/><rect class="cls-33" y="12.16" width="60.18" height="0.17"/><rect class="cls-33" y="12.05" width="60.18" height="0.17"/><rect class="cls-33" y="11.93" width="60.18" height="0.17"/><rect class="cls-33" y="11.82" width="60.18" height="0.17"/><rect class="cls-33" y="11.68" width="60.18" height="0.2"/><rect class="cls-33" y="11.57" width="60.18" height="0.2"/><rect class="cls-33" y="11.45" width="60.18" height="0.17"/><rect class="cls-33" y="11.34" width="60.18" height="0.17"/><rect class="cls-33" y="11.23" width="60.18" height="0.17"/><rect class="cls-33" y="11.11" width="60.18" height="0.17"/><rect class="cls-33" y="11" width="60.18" height="0.17"/><rect class="cls-33" y="10.86" width="60.18" height="0.2"/><rect class="cls-33" y="10.74" width="60.18" height="0.17"/><rect class="cls-33" y="10.63" width="60.18" height="0.17"/><rect class="cls-33" y="10.52" width="60.18" height="0.17"/><rect class="cls-33" y="10.4" width="60.18" height="0.17"/><rect class="cls-33" y="10.29" width="60.18" height="0.17"/><rect class="cls-33" y="10.18" width="60.18" height="0.17"/><rect class="cls-33" y="10.03" width="60.18" height="0.2"/><rect class="cls-33" y="9.92" width="60.18" height="0.17"/><rect class="cls-33" y="9.81" width="60.18" height="0.17"/><rect class="cls-33" y="9.69" width="60.18" height="0.17"/><rect class="cls-33" y="9.58" width="60.18" height="0.17"/><rect class="cls-33" y="9.47" width="60.18" height="0.17"/><rect class="cls-33" y="9.35" width="60.18" height="0.17"/><rect class="cls-33" y="9.21" width="60.18" height="0.2"/><rect class="cls-33" y="9.1" width="60.18" height="0.17"/><rect class="cls-33" y="8.99" width="60.18" height="0.17"/><rect class="cls-33" y="8.87" width="60.18" height="0.17"/><rect class="cls-33" y="8.76" width="60.18" height="0.17"/><rect class="cls-33" y="8.65" width="60.18" height="0.17"/><rect class="cls-33" y="8.53" width="60.18" height="0.17"/><rect class="cls-33" y="8.39" width="60.18" height="0.2"/><rect class="cls-33" y="8.28" width="60.18" height="0.17"/><rect class="cls-33" y="8.16" width="60.18" height="0.17"/><rect class="cls-33" y="8.05" width="60.18" height="0.17"/><rect class="cls-33" y="7.94" width="60.18" height="0.17"/><rect class="cls-33" y="7.82" width="60.18" height="0.17"/><rect class="cls-33" y="7.68" width="60.18" height="0.2"/><rect class="cls-33" y="7.57" width="60.18" height="0.2"/><rect class="cls-33" y="7.46" width="60.18" height="0.17"/><rect class="cls-33" y="7.34" width="60.18" height="0.17"/><rect class="cls-33" y="7.23" width="60.18" height="0.17"/><rect class="cls-33" y="7.11" width="60.18" height="0.17"/><rect class="cls-33" y="7" width="60.18" height="0.17"/><rect class="cls-33" y="6.86" width="60.18" height="0.2"/><rect class="cls-33" y="6.75" width="60.18" height="0.2"/><rect class="cls-33" y="6.63" width="60.18" height="0.17"/><rect class="cls-33" y="6.52" width="60.18" height="0.17"/><rect class="cls-33" y="6.41" width="60.18" height="0.17"/><rect class="cls-33" y="6.29" width="60.18" height="0.17"/><rect class="cls-33" y="6.18" width="60.18" height="0.17"/><rect class="cls-33" y="6.04" width="60.18" height="0.2"/><rect class="cls-33" y="5.92" width="60.18" height="0.2"/><rect class="cls-33" y="5.81" width="60.18" height="0.17"/><rect class="cls-33" y="5.7" width="60.18" height="0.17"/><rect class="cls-33" y="5.58" width="60.18" height="0.17"/><rect class="cls-33" y="5.47" width="60.18" height="0.17"/><rect class="cls-33" y="5.36" width="60.18" height="0.17"/><rect class="cls-33" y="5.22" width="60.18" height="0.2"/><rect class="cls-33" y="5.1" width="60.18" height="0.2"/><rect class="cls-33" y="4.99" width="60.18" height="0.17"/><rect class="cls-33" y="4.88" width="60.18" height="0.17"/><rect class="cls-33" y="4.76" width="60.18" height="0.17"/><rect class="cls-33" y="4.65" width="60.18" height="0.17"/><rect class="cls-33" y="4.54" width="60.18" height="0.17"/><rect class="cls-33" y="4.39" width="60.18" height="0.2"/><rect class="cls-33" y="4.28" width="60.18" height="0.17"/><rect class="cls-33" y="4.17" width="60.18" height="0.17"/><rect class="cls-33" y="4.05" width="60.18" height="0.17"/><rect class="cls-33" y="3.94" width="60.18" height="0.17"/><rect class="cls-33" y="3.83" width="60.18" height="0.17"/><rect class="cls-33" y="3.71" width="60.18" height="0.17"/><rect class="cls-33" y="3.57" width="60.18" height="0.2"/><rect class="cls-33" y="3.46" width="60.18" height="0.17"/><rect class="cls-33" y="3.34" width="60.18" height="0.17"/><rect class="cls-33" y="3.23" width="60.18" height="0.17"/><rect class="cls-33" y="3.12" width="60.18" height="0.17"/><rect class="cls-33" y="3" width="60.18" height="0.17"/><rect class="cls-33" y="2.89" width="60.18" height="0.17"/><rect class="cls-33" y="2.75" width="60.18" height="0.2"/><rect class="cls-33" y="2.64" width="60.18" height="0.17"/><rect class="cls-33" y="2.52" width="60.18" height="0.17"/><rect class="cls-33" y="2.41" width="60.18" height="0.17"/><rect class="cls-33" y="2.3" width="60.18" height="0.17"/><rect class="cls-33" y="2.18" width="60.18" height="0.17"/><rect class="cls-33" y="2.07" width="60.18" height="0.17"/><rect class="cls-33" y="1.93" width="60.18" height="0.2"/><rect class="cls-33" y="1.81" width="60.18" height="0.17"/><rect class="cls-33" y="1.7" width="60.18" height="0.17"/><rect class="cls-33" y="1.59" width="60.18" height="0.17"/><rect class="cls-33" y="1.47" width="60.18" height="0.17"/><rect class="cls-33" y="1.36" width="60.18" height="0.17"/><rect class="cls-33" y="1.22" width="60.18" height="0.2"/><rect class="cls-33" y="1.11" width="60.18" height="0.2"/><rect class="cls-33" y="0.99" width="60.18" height="0.17"/><rect class="cls-33" y="0.88" width="60.18" height="0.17"/><rect class="cls-33" y="0.77" width="60.18" height="0.17"/><rect class="cls-33" y="0.65" width="60.18" height="0.17"/><rect class="cls-33" y="0.54" width="60.18" height="0.17"/><rect class="cls-33" y="0.4" width="60.18" height="0.2"/><rect class="cls-33" y="0.28" width="60.18" height="0.2"/><rect class="cls-33" y="0.17" width="60.18" height="0.17"/><rect class="cls-33" width="60.18" height="0.23"/></g><path class="cls-34" d="M27.33,20.24c.76.14,1.56.31,2.32.48s.71-.45.4-.65a9.24,9.24,0,0,0-1.14-.26,6.59,6.59,0,0,1-3.17-1,6.13,6.13,0,0,1-2-2.13,6.66,6.66,0,0,1,2.63-9.35,7.6,7.6,0,0,1,6.78.08A5.18,5.18,0,0,1,34.7,8.56a5.06,5.06,0,0,1,1,1.76,6.36,6.36,0,0,1,.34,2.46c-.43,0-1.19-.14-1.11.4s.77.28,1.19.31l.68,1.19a6.77,6.77,0,0,1,.63,1.22c-.34.2-1.17,0-1.28.46-.06.19,0,3,0,3.45,0,.91.17,1-.74.91l-2.4-.2c-.34,0-.46,0-.54.29-.29.85-.49,1.84-.74,2.72l-5-.65Zm-.91-5.75a.35.35,0,0,0,.06-.6c-.32-.2-.4.11-.77.11a2,2,0,0,1-.91-.76A1.2,1.2,0,0,1,25,12l.11.09c.8.82,1.45,0,.94-.29-.26-.17-.4,0-.48-.36s-.2-.34-.26-.6a1.2,1.2,0,0,1,1.11-1.42c.11.14.05.2.31.43a.89.89,0,0,0,.48.22c.65.12.71-.53.31-.65-.14-.05-.42-.05-.39-.28a1.08,1.08,0,0,1,1.44-.48v8.3a1.31,1.31,0,0,1-1.13-.08,1.79,1.79,0,0,1-.31-.37c-.4-.71-.34-.28-1-.45a1.06,1.06,0,0,1-.73-1.31c.08,0,.82.12,1-.22Zm4.7,5.86a.36.36,0,0,0,.34.63.36.36,0,1,0-.34-.63ZM31,12.93c-1.47.17-1.64,2.07-.82,1.75.37-.11.09-.82.77-1,.28-.05.51,0,.54-.34s-.2-.42-.49-.39Zm-3.17-2.07c-.4.2-.06.88-.79,1-.26,0-.51,0-.51.39,0,.77,1.84.17,1.81-1.1a.35.35,0,0,0-.51-.31Zm.23,3c-.46.17-.06.82-.8,1-.28.09-.51.06-.54.37-.08.82,1.82.28,1.79-1,0-.26-.2-.48-.45-.37Zm2.72-4c-1.45.17-1.59,2.16-.77,1.76.37-.2.06-.85.77-1,.28-.06.51-.06.51-.4s-.23-.37-.51-.34ZM29.31,8.62a1.14,1.14,0,0,1,1.13.11c.46.28.34.68.66.74s.65-.12,1.07.34a1,1,0,0,1,.29,1,1.05,1.05,0,0,0-.74,0c-.65.25-.45.85-.06.82s.31-.29.63-.12a1.5,1.5,0,0,1,.85.77,1.11,1.11,0,0,1-.26,1.19c-1-1-1.56.06-1,.25.34.15.34,0,.45.4.06.23.2.31.23.6.14.71-.31,1.22-1.11,1.36-.14-.26-.17-.37-.39-.51-.74-.48-1.14.11-.85.42s.39,0,.56.34a1,1,0,0,1-1.47.43Zm-4.56,2.63a7.8,7.8,0,0,0-.54.63,1.89,1.89,0,0,0,.42,2.29c.09.09.09.06.17.15A1.83,1.83,0,0,0,25.06,16a1.74,1.74,0,0,0,1.44.74,1.8,1.8,0,0,0,2.36.79c.42-.17,1.3.63,2.32-.42l.17-.26a1.93,1.93,0,0,0,1.93-1.55,2.34,2.34,0,0,0-.09-1.11,1.84,1.84,0,0,0,.49-2.41,2.68,2.68,0,0,0-.57-.59,1.9,1.9,0,0,0,.08-1,1.81,1.81,0,0,0-1.78-1.5,1.83,1.83,0,0,0-1.93-.94,3.86,3.86,0,0,1-.54.15,2,2,0,0,0-2.15.39c-.23.23-.09.29-.48.31a1.88,1.88,0,0,0-1.56,2.58ZM27.52,6l-.65.2h0s0,0,0,0l-.68.29h0L25.37,7a1.54,1.54,0,0,1-.37.23l-.34.28-.11.12a1.23,1.23,0,0,1-.4.31c0,.08,0,.08-.08.14s0,.06-.12.11l-.39.46-.34.45a.5.5,0,0,1-.17.28,7.28,7.28,0,0,1-.37.74c-.12.23-.2.54-.31.74l-.2.68a2.28,2.28,0,0,1-.14.79L22,13l0,.74.08.71.17.76.23.68,0,.09.31.65c0,.08.14.25.22.37.26.45.68,1,.77,1.1s.08,0,.08.12a.37.37,0,0,1,.2.14,2.09,2.09,0,0,1,.14.17c.12.08.23.11.29.28s0,0,.08,0,0,0,0,.06a7.43,7.43,0,0,1,.71.48c.2.14.6.34.74.45l.51.23-.06.17-.14.74-.31,1.39c0,.31-.14.59-.14.9a.69.69,0,0,0,.17.2c.31.11.59.09.76.17a2.5,2.5,0,0,1,.65.06,14.83,14.83,0,0,1,1.51.22,1.83,1.83,0,0,1,.65.09,1.65,1.65,0,0,1,.76.11,2.35,2.35,0,0,1,.65.06l.77.11c.37,0,.37-.14.48-.39s.14-.54.2-.8a2.82,2.82,0,0,1,.23-.76,3.85,3.85,0,0,1,.17-.65l.11-.43h.26l.68.08.76.06.71.06a1.67,1.67,0,0,0,.74,0c.48-.23.65-.51.65-1.19V16.81c.17-.28,1.16.08,1.3-.91,0-.31-.2-.48-.2-.68a5.06,5.06,0,0,1-.45-.73c-.11-.26-.28-.52-.4-.77a.61.61,0,0,1-.17-.34l-.11-.14a10.45,10.45,0,0,1-.11-1.7l-.06-.6,0,0,0,0-.19-.71a3.29,3.29,0,0,1-.2-.57s0,0-.06-.08,0,0,0-.06c-.14-.26-.25-.48-.4-.71l-.28-.4c-.08,0,0,0-.14-.14l-.09-.08a.25.25,0,0,1,0-.12,1,1,0,0,1-.43-.36l-.06-.06-.17-.11c-.08-.09-.17-.12-.17-.17l-.31-.23c-.14-.06-.22-.12-.37-.2a2.68,2.68,0,0,0-.34-.17,5.43,5.43,0,0,0-.73-.34,3.17,3.17,0,0,1-.4-.14c-.09,0-.11,0-.2-.06l-.2-.06c-.17,0-.65-.14-.88-.17A6.41,6.41,0,0,1,30,5.81H29c-.14,0-.6.06-.77.09s-.48.11-.71.14Z"/></g></g></svg>