<svg xmlns="http://www.w3.org/2000/svg" xmlns:xlink="http://www.w3.org/1999/xlink" viewBox="0 0 60.18 30.08"><defs><style>.cls-1{fill:none;clip-rule:evenodd;}.cls-2{clip-path:url(#clip-path);}.cls-3{fill:#e0e0e0;}.cls-4{fill:#e1e1e1;}.cls-5{fill:#e2e2e2;}.cls-6{fill:#e3e3e3;}.cls-7{fill:#e4e4e4;}.cls-8{fill:#e5e5e5;}.cls-9{fill:#e6e6e6;}.cls-10{fill:#e7e7e7;}.cls-11{fill:#e8e8e8;}.cls-12{fill:#e9e9e9;}.cls-13{fill:#eaeaea;}.cls-14{fill:#ebebeb;}.cls-15{fill:#ececec;}.cls-16{fill:#ededed;}.cls-17{fill:#eee;}.cls-18{fill:#f0efef;}.cls-19{fill:#f1f0f0;}.cls-20{fill:#f2f1f1;}.cls-21{fill:#f2f2f3;}.cls-22{fill:#f3f3f4;}.cls-23{fill:#f4f4f5;}.cls-24{fill:#f5f5f5;}.cls-25{fill:#f6f6f6;}.cls-26{fill:#f7f7f7;}.cls-27{fill:#f8f8f8;}.cls-28{fill:#f9f9fa;}.cls-29{fill:#fafbfb;}.cls-30{fill:#fbfcfd;}.cls-31{fill:#fdfefe;}.cls-32{fill:#feffff;}.cls-33{fill:#fff;}.cls-34{fill:#ed1c24;fill-rule:evenodd;}</style><clipPath id="clip-path"><path class="cls-1" d="M60.18,0a30.09,30.09,0,0,1-30.1,30.08A30.08,30.08,0,0,1,0,0Z"/></clipPath></defs><title>x4</title><g id="Layer_2" data-name="Layer 2"><g id="Layer_1-2" data-name="Layer 1"><g class="cls-2"><rect class="cls-3" y="30.02" width="60.18" height="0.06"/><rect class="cls-4" y="29.91" width="60.18" height="0.17"/><rect class="cls-4" y="29.79" width="60.18" height="0.17"/><rect class="cls-5" y="29.68" width="60.18" height="0.17"/><rect class="cls-5" y="29.54" width="60.18" height="0.2"/><rect class="cls-6" y="29.42" width="60.18" height="0.17"/><rect class="cls-6" y="29.31" width="60.18" height="0.17"/><rect class="cls-7" y="29.2" width="60.18" height="0.17"/><rect class="cls-7" y="29.08" width="60.18" height="0.17"/><rect class="cls-8" y="28.97" width="60.18" height="0.17"/><rect class="cls-8" y="28.86" width="60.18" height="0.17"/><rect class="cls-9" y="28.71" width="60.18" height="0.2"/><rect class="cls-9" y="28.6" width="60.18" height="0.17"/><rect class="cls-10" y="28.49" width="60.18" height="0.17"/><rect class="cls-11" y="28.37" width="60.18" height="0.17"/><rect class="cls-11" y="28.26" width="60.18" height="0.17"/><rect class="cls-12" y="28.15" width="60.18" height="0.17"/><rect class="cls-12" y="28.03" width="60.18" height="0.17"/><rect class="cls-13" y="27.89" width="60.18" height="0.2"/><rect class="cls-13" y="27.78" width="60.18" height="0.17"/><rect class="cls-14" y="27.67" width="60.18" height="0.17"/><rect class="cls-14" y="27.55" width="60.18" height="0.17"/><rect class="cls-15" y="27.44" width="60.18" height="0.17"/><rect class="cls-15" y="27.33" width="60.18" height="0.17"/><rect class="cls-16" y="27.18" width="60.18" height="0.2"/><rect class="cls-16" y="27.07" width="60.18" height="0.2"/><rect class="cls-17" y="26.96" width="60.18" height="0.17"/><rect class="cls-18" y="26.84" width="60.18" height="0.17"/><rect class="cls-18" y="26.73" width="60.18" height="0.17"/><rect class="cls-19" y="26.62" width="60.18" height="0.17"/><rect class="cls-19" y="26.5" width="60.18" height="0.17"/><rect class="cls-19" y="26.36" width="60.18" height="0.2"/><rect class="cls-19" y="26.25" width="60.18" height="0.2"/><rect class="cls-19" y="26.14" width="60.18" height="0.17"/><rect class="cls-19" y="26.02" width="60.18" height="0.17"/><rect class="cls-20" y="25.91" width="60.18" height="0.17"/><rect class="cls-20" y="25.8" width="60.18" height="0.17"/><rect class="cls-20" y="25.68" width="60.18" height="0.17"/><rect class="cls-20" y="25.54" width="60.18" height="0.2"/><rect class="cls-20" y="25.43" width="60.18" height="0.2"/><rect class="cls-20" y="25.31" width="60.18" height="0.17"/><rect class="cls-21" y="25.2" width="60.18" height="0.17"/><rect class="cls-21" y="25.09" width="60.18" height="0.17"/><rect class="cls-21" y="24.97" width="60.18" height="0.17"/><rect class="cls-21" y="24.86" width="60.18" height="0.17"/><rect class="cls-21" y="24.72" width="60.18" height="0.2"/><rect class="cls-21" y="24.6" width="60.18" height="0.2"/><rect class="cls-22" y="24.49" width="60.18" height="0.17"/><rect class="cls-22" y="24.38" width="60.18" height="0.17"/><rect class="cls-22" y="24.26" width="60.18" height="0.17"/><rect class="cls-22" y="24.15" width="60.18" height="0.17"/><rect class="cls-22" y="24.04" width="60.18" height="0.17"/><rect class="cls-22" y="23.9" width="60.18" height="0.2"/><rect class="cls-23" y="23.78" width="60.18" height="0.17"/><rect class="cls-23" y="23.67" width="60.18" height="0.17"/><rect class="cls-23" y="23.56" width="60.18" height="0.17"/><rect class="cls-23" y="23.44" width="60.18" height="0.17"/><rect class="cls-23" y="23.33" width="60.18" height="0.17"/><rect class="cls-23" y="23.22" width="60.18" height="0.17"/><rect class="cls-24" y="23.07" width="60.18" height="0.2"/><rect class="cls-24" y="22.96" width="60.18" height="0.17"/><rect class="cls-24" y="22.85" width="60.18" height="0.17"/><rect class="cls-24" y="22.73" width="60.18" height="0.17"/><rect class="cls-24" y="22.62" width="60.18" height="0.17"/><rect class="cls-24" y="22.51" width="60.18" height="0.17"/><rect class="cls-25" y="22.39" width="60.18" height="0.17"/><rect class="cls-25" y="22.25" width="60.18" height="0.2"/><rect class="cls-25" y="22.14" width="60.18" height="0.17"/><rect class="cls-25" y="22.03" width="60.18" height="0.17"/><rect class="cls-25" y="21.91" width="60.18" height="0.17"/><rect class="cls-26" y="21.8" width="60.18" height="0.17"/><rect class="cls-26" y="21.69" width="60.18" height="0.17"/><rect class="cls-26" y="21.54" width="60.18" height="0.2"/><rect class="cls-26" y="21.43" width="60.18" height="0.2"/><rect class="cls-26" y="21.32" width="60.18" height="0.17"/><rect class="cls-26" y="21.2" width="60.18" height="0.17"/><rect class="cls-27" y="21.09" width="60.18" height="0.17"/><rect class="cls-27" y="20.98" width="60.18" height="0.17"/><rect class="cls-27" y="20.86" width="60.18" height="0.17"/><rect class="cls-27" y="20.72" width="60.18" height="0.2"/><rect class="cls-27" y="20.61" width="60.18" height="0.2"/><rect class="cls-27" y="20.49" width="60.18" height="0.17"/><rect class="cls-28" y="20.38" width="60.18" height="0.17"/><rect class="cls-28" y="20.27" width="60.18" height="0.17"/><rect class="cls-28" y="20.15" width="60.18" height="0.17"/><rect class="cls-28" y="20.04" width="60.18" height="0.17"/><rect class="cls-28" y="19.9" width="60.18" height="0.2"/><rect class="cls-28" y="19.79" width="60.18" height="0.2"/><rect class="cls-29" y="19.67" width="60.18" height="0.17"/><rect class="cls-29" y="19.56" width="60.18" height="0.17"/><rect class="cls-29" y="19.45" width="60.18" height="0.17"/><rect class="cls-29" y="19.33" width="60.18" height="0.17"/><rect class="cls-29" y="19.22" width="60.18" height="0.17"/><rect class="cls-29" y="19.08" width="60.18" height="0.2"/><rect class="cls-30" y="18.96" width="60.18" height="0.2"/><rect class="cls-30" y="18.85" width="60.18" height="0.17"/><rect class="cls-30" y="18.74" width="60.18" height="0.17"/><rect class="cls-30" y="18.62" width="60.18" height="0.17"/><rect class="cls-30" y="18.51" width="60.18" height="0.17"/><rect class="cls-30" y="18.4" width="60.18" height="0.17"/><rect class="cls-31" y="18.26" width="60.18" height="0.2"/><rect class="cls-31" y="18.14" width="60.18" height="0.17"/><rect class="cls-31" y="18.03" width="60.18" height="0.17"/><rect class="cls-31" y="17.91" width="60.18" height="0.17"/><rect class="cls-31" y="17.8" width="60.18" height="0.17"/><rect class="cls-31" y="17.69" width="60.18" height="0.17"/><rect class="cls-32" y="17.57" width="60.18" height="0.17"/><rect class="cls-32" y="17.43" width="60.18" height="0.2"/><rect class="cls-32" y="17.32" width="60.18" height="0.17"/><rect class="cls-32" y="17.21" width="60.18" height="0.17"/><rect class="cls-32" y="17.09" width="60.18" height="0.17"/><rect class="cls-32" y="16.98" width="60.18" height="0.17"/><rect class="cls-33" y="16.87" width="60.18" height="0.17"/><rect class="cls-33" y="16.75" width="60.18" height="0.17"/><rect class="cls-33" y="16.61" width="60.18" height="0.2"/><rect class="cls-33" y="16.5" width="60.18" height="0.17"/><rect class="cls-33" y="16.38" width="60.18" height="0.17"/><rect class="cls-33" y="16.27" width="60.18" height="0.17"/><rect class="cls-33" y="16.16" width="60.18" height="0.17"/><rect class="cls-33" y="16.04" width="60.18" height="0.17"/><rect class="cls-33" y="15.93" width="60.18" height="0.17"/><rect class="cls-33" y="15.79" width="60.18" height="0.2"/><rect class="cls-33" y="15.68" width="60.18" height="0.17"/><rect class="cls-33" y="15.56" width="60.18" height="0.17"/><rect class="cls-33" y="15.45" width="60.18" height="0.17"/><rect class="cls-33" y="15.34" width="60.18" height="0.17"/><rect class="cls-33" y="15.22" width="60.18" height="0.17"/><rect class="cls-33" y="15.08" width="60.18" height="0.2"/><rect class="cls-33" y="14.97" width="60.18" height="0.2"/><rect class="cls-33" y="14.85" width="60.18" height="0.17"/><rect class="cls-33" y="14.74" width="60.18" height="0.17"/><rect class="cls-33" y="14.63" width="60.18" height="0.17"/><rect class="cls-33" y="14.51" width="60.18" height="0.17"/><rect class="cls-33" y="14.4" width="60.18" height="0.17"/><rect class="cls-33" y="14.26" width="60.18" height="0.2"/><rect class="cls-33" y="14.14" width="60.18" height="0.2"/><rect class="cls-33" y="14.03" width="60.18" height="0.17"/><rect class="cls-33" y="13.92" width="60.18" height="0.17"/><rect class="cls-33" y="13.8" width="60.18" height="0.17"/><rect class="cls-33" y="13.69" width="60.18" height="0.17"/><rect class="cls-33" y="13.58" width="60.18" height="0.17"/><rect class="cls-33" y="13.44" width="60.18" height="0.2"/><rect class="cls-33" y="13.32" width="60.18" height="0.2"/><rect class="cls-33" y="13.21" width="60.18" height="0.17"/><rect class="cls-33" y="13.1" width="60.18" height="0.17"/><rect class="cls-33" y="12.98" width="60.18" height="0.17"/><rect class="cls-33" y="12.87" width="60.18" height="0.17"/><rect class="cls-33" y="12.76" width="60.18" height="0.17"/><rect class="cls-33" y="12.61" width="60.18" height="0.2"/><rect class="cls-33" y="12.5" width="60.18" height="0.2"/><rect class="cls-33" y="12.39" width="60.18" height="0.17"/><rect class="cls-33" y="12.27" width="60.18" height="0.17"/><rect class="cls-33" y="12.16" width="60.18" height="0.17"/><rect class="cls-33" y="12.05" width="60.18" height="0.17"/><rect class="cls-33" y="11.93" width="60.18" height="0.17"/><rect class="cls-33" y="11.79" width="60.18" height="0.2"/><rect class="cls-33" y="11.68" width="60.18" height="0.17"/><rect class="cls-33" y="11.57" width="60.18" height="0.17"/><rect class="cls-33" y="11.45" width="60.18" height="0.17"/><rect class="cls-33" y="11.34" width="60.18" height="0.17"/><rect class="cls-33" y="11.23" width="60.18" height="0.17"/><rect class="cls-33" y="11.11" width="60.18" height="0.17"/><rect class="cls-33" y="10.97" width="60.18" height="0.2"/><rect class="cls-33" y="10.86" width="60.18" height="0.17"/><rect class="cls-33" y="10.74" width="60.18" height="0.17"/><rect class="cls-33" y="10.63" width="60.18" height="0.17"/><rect class="cls-33" y="10.52" width="60.18" height="0.17"/><rect class="cls-33" y="10.4" width="60.18" height="0.17"/><rect class="cls-33" y="10.29" width="60.18" height="0.17"/><rect class="cls-33" y="10.15" width="60.18" height="0.2"/><rect class="cls-33" y="10.03" width="60.18" height="0.17"/><rect class="cls-33" y="9.92" width="60.18" height="0.17"/><rect class="cls-33" y="9.81" width="60.18" height="0.17"/><rect class="cls-33" y="9.69" width="60.18" height="0.17"/><rect class="cls-33" y="9.58" width="60.18" height="0.17"/><rect class="cls-33" y="9.44" width="60.18" height="0.2"/><rect class="cls-33" y="9.33" width="60.18" height="0.2"/><rect class="cls-33" y="9.21" width="60.18" height="0.17"/><rect class="cls-33" y="9.1" width="60.18" height="0.17"/><rect class="cls-33" y="8.99" width="60.18" height="0.17"/><rect class="cls-33" y="8.87" width="60.18" height="0.17"/><rect class="cls-33" y="8.76" width="60.18" height="0.17"/><rect class="cls-33" y="8.62" width="60.18" height="0.2"/><rect class="cls-33" y="8.5" width="60.18" height="0.2"/><rect class="cls-33" y="8.39" width="60.18" height="0.17"/><rect class="cls-33" y="8.28" width="60.18" height="0.17"/><rect class="cls-33" y="8.16" width="60.18" height="0.17"/><rect class="cls-33" y="8.05" width="60.18" height="0.17"/><rect class="cls-33" y="7.94" width="60.18" height="0.17"/><rect class="cls-33" y="7.8" width="60.18" height="0.2"/><rect class="cls-33" y="7.68" width="60.18" height="0.2"/><rect class="cls-33" y="7.57" width="60.18" height="0.17"/><rect class="cls-33" y="7.46" width="60.18" height="0.17"/><rect class="cls-33" y="7.34" width="60.18" height="0.17"/><rect class="cls-33" y="7.23" width="60.18" height="0.17"/><rect class="cls-33" y="7.11" width="60.18" height="0.17"/><rect class="cls-33" y="6.97" width="60.18" height="0.2"/><rect class="cls-33" y="6.86" width="60.18" height="0.2"/><rect class="cls-33" y="6.75" width="60.18" height="0.17"/><rect class="cls-33" y="6.63" width="60.18" height="0.17"/><rect class="cls-33" y="6.52" width="60.18" height="0.17"/><rect class="cls-33" y="6.41" width="60.18" height="0.17"/><rect class="cls-33" y="6.29" width="60.18" height="0.17"/><rect class="cls-33" y="6.15" width="60.18" height="0.2"/><rect class="cls-33" y="6.04" width="60.18" height="0.17"/><rect class="cls-33" y="5.92" width="60.18" height="0.17"/><rect class="cls-33" y="5.81" width="60.18" height="0.17"/><rect class="cls-33" y="5.7" width="60.18" height="0.17"/><rect class="cls-33" y="5.58" width="60.18" height="0.17"/><rect class="cls-33" y="5.47" width="60.18" height="0.17"/><rect class="cls-33" y="5.33" width="60.18" height="0.2"/><rect class="cls-33" y="5.22" width="60.18" height="0.17"/><rect class="cls-33" y="5.1" width="60.18" height="0.17"/><rect class="cls-33" y="4.99" width="60.18" height="0.17"/><rect class="cls-33" y="4.88" width="60.18" height="0.17"/><rect class="cls-33" y="4.76" width="60.18" height="0.17"/><rect class="cls-33" y="4.65" width="60.18" height="0.17"/><rect class="cls-33" y="4.51" width="60.18" height="0.2"/><rect class="cls-33" y="4.39" width="60.18" height="0.17"/><rect class="cls-33" y="4.28" width="60.18" height="0.17"/><rect class="cls-33" y="4.17" width="60.18" height="0.17"/><rect class="cls-33" y="4.05" width="60.18" height="0.17"/><rect class="cls-33" y="3.94" width="60.18" height="0.17"/><rect class="cls-33" y="3.83" width="60.18" height="0.17"/><rect class="cls-33" y="3.69" width="60.18" height="0.2"/><rect class="cls-33" y="3.57" width="60.18" height="0.17"/><rect class="cls-33" y="3.46" width="60.18" height="0.17"/><rect class="cls-33" y="3.34" width="60.18" height="0.17"/><rect class="cls-33" y="3.23" width="60.18" height="0.17"/><rect class="cls-33" y="3.12" width="60.18" height="0.17"/><rect class="cls-33" y="2.98" width="60.18" height="0.2"/><rect class="cls-33" y="2.86" width="60.18" height="0.2"/><rect class="cls-33" y="2.75" width="60.18" height="0.17"/><rect class="cls-33" y="2.64" width="60.18" height="0.17"/><rect class="cls-33" y="2.52" width="60.18" height="0.17"/><rect class="cls-33" y="2.41" width="60.18" height="0.17"/><rect class="cls-33" y="2.3" width="60.18" height="0.17"/><rect class="cls-33" y="2.15" width="60.18" height="0.2"/><rect class="cls-33" y="2.04" width="60.18" height="0.2"/><rect class="cls-33" y="1.93" width="60.18" height="0.17"/><rect class="cls-33" y="1.81" width="60.18" height="0.17"/><rect class="cls-33" y="1.7" width="60.18" height="0.17"/><rect class="cls-33" y="1.59" width="60.18" height="0.17"/><rect class="cls-33" y="1.47" width="60.18" height="0.17"/><rect class="cls-33" y="1.33" width="60.18" height="0.2"/><rect class="cls-33" y="1.22" width="60.18" height="0.2"/><rect class="cls-33" y="1.11" width="60.18" height="0.17"/><rect class="cls-33" y="0.99" width="60.18" height="0.17"/><rect class="cls-33" y="0.88" width="60.18" height="0.17"/><rect class="cls-33" y="0.77" width="60.18" height="0.17"/><rect class="cls-33" y="0.65" width="60.18" height="0.17"/><rect class="cls-33" y="0.51" width="60.18" height="0.2"/><rect class="cls-33" y="0.4" width="60.18" height="0.2"/><rect class="cls-33" y="0.28" width="60.18" height="0.17"/><rect class="cls-33" y="0.17" width="60.18" height="0.17"/><rect class="cls-33" width="60.18" height="0.23"/></g><path class="cls-34" d="M26.33,10.26a.59.59,0,0,0-.51-.25.71.71,0,0,0-.51,1.27,3.65,3.65,0,0,1,.71-.79c.12-.09.23-.12.31-.23ZM30.67,16c.4-.12.6.05.54.48-.14.08-.28.31-.57.11a.34.34,0,0,1-.11-.31c0-.2.11-.2.14-.28ZM27.61,13c.4-.08.59,0,.54.49-.09.05-.12.14-.29.17a.33.33,0,0,1-.31-.09c-.28-.25.06-.57.06-.57Zm1.56,1.51c.42-.06.59.14.48.54,0,0-.31.31-.57.05a.32.32,0,0,1-.08-.31c0-.2.11-.17.17-.28Zm-3.06-3a.46.46,0,0,0-.14.2.88.88,0,0,0-.12.26,1.85,1.85,0,0,0,.31,1.75c.26.29,1.14,1.14,1.48,1.48s2.83,2.89,3,3c.17-.2.37-.39.54-.56l.51-.54a7.63,7.63,0,0,0,.77-.74,6.54,6.54,0,0,1,.71-.68,1.9,1.9,0,0,0-.51-.51c-.2.11-.71.88-1,.45s.36-.82.53-1l-1-1a4.31,4.31,0,0,0-.42.43.41.41,0,0,1-.6.08c-.36-.34.34-.85.49-1-.12-.25-.77-.74-1-1-.22.11-.68.91-1.05.48s.37-.79.51-1a2.15,2.15,0,0,0-1.47-.76,2.13,2.13,0,0,0-.94.22c-.14.09-.51.37-.56.54Zm5,7.15c.09.17,1.05,1.07,1.25,1.27l2.55-2.55c-.2-.23-.42-.43-.62-.65a7.1,7.1,0,0,0-.65-.6Zm2.05,2.55a2.6,2.6,0,0,1,.28-.29l2.38-2.38c.17-.17,1.13-.93.54-1.22-.31-.17-.57.2-.68.34s-.34.34-.54.51L33,20.24c-.39.42-1.1.91-.53,1.22.31.17.53-.17.68-.31Zm3,.48a1.3,1.3,0,0,0,.48-.48l-1.25-1.28a6.14,6.14,0,0,0-.51.51ZM36.88,23c.25-.23.45-.46.68-.68a12.45,12.45,0,0,0,1-1.05.38.38,0,0,0-.17-.46c-.34-.17-.71.34-.85.49l-.68.68c-.45.45-1.5,1.27-.79,1.53.31.11.65-.37.79-.51Zm-1.79.17a1.31,1.31,0,0,1,.6-1l-1.25-1.28c-.57.37-1.36,1.9-2.44,1.11a1,1,0,0,1-.37-1.31,1.12,1.12,0,0,1,.23-.34l-1.08-1.05c-.76-.76-4.93-4.87-5.35-5.41a2.81,2.81,0,0,1-.4-1.79c0-.37-1-.62-.65-1.84,0-.14.08-.17.11-.31-.25-.4-3.66-3.52-3.66-3.74a.4.4,0,0,1,.46-.46A18.42,18.42,0,0,1,23.16,7.6c.28.28,1.7,1.73,1.87,1.84a1.51,1.51,0,0,1,1.53.06c.28.19.37.45.6.48.42,0,.62,0,1,0a3,3,0,0,1,.76.34c.54.37,3.8,3.72,4.34,4.26.17.2,2,2,2.15,2.18a1.35,1.35,0,0,1,.71-.34,1.11,1.11,0,0,1,1.11,1.44c-.14.49-1,1.05-1.28,1.45l1.25,1.25c.14-.09.91-1.05,1.78-.26a1.13,1.13,0,0,1,.32.88c0,.54-.88,1.28-1.31,1.73s-1.19,1.3-1.73,1.3a1.09,1.09,0,0,1-1.19-1.07Z"/></g></g></svg>