<svg xmlns="http://www.w3.org/2000/svg" xmlns:xlink="http://www.w3.org/1999/xlink" viewBox="0 0 60.18 30.08"><defs><style>.cls-1{fill:none;clip-rule:evenodd;}.cls-2{clip-path:url(#clip-path);}.cls-3{fill:#e0e0e0;}.cls-4{fill:#e1e1e1;}.cls-5{fill:#e2e2e2;}.cls-6{fill:#e3e3e3;}.cls-7{fill:#e4e4e4;}.cls-8{fill:#e5e5e5;}.cls-9{fill:#e6e6e6;}.cls-10{fill:#e7e7e7;}.cls-11{fill:#e8e8e8;}.cls-12{fill:#e9e9e9;}.cls-13{fill:#eaeaea;}.cls-14{fill:#ebebeb;}.cls-15{fill:#ececec;}.cls-16{fill:#ededed;}.cls-17{fill:#eee;}.cls-18{fill:#f0efef;}.cls-19{fill:#f1f0f0;}.cls-20{fill:#f2f1f1;}.cls-21{fill:#f2f2f3;}.cls-22{fill:#f3f3f4;}.cls-23{fill:#f4f4f5;}.cls-24{fill:#f5f5f5;}.cls-25{fill:#f6f6f6;}.cls-26{fill:#f7f7f7;}.cls-27{fill:#f8f8f8;}.cls-28{fill:#f9f9fa;}.cls-29{fill:#fafbfb;}.cls-30{fill:#fbfcfd;}.cls-31{fill:#fdfefe;}.cls-32{fill:#feffff;}.cls-33{fill:#fff;}.cls-34{fill:#ed1c24;fill-rule:evenodd;}</style><clipPath id="clip-path"><path class="cls-1" d="M60.18,0a30.09,30.09,0,0,1-30.1,30.08A30.08,30.08,0,0,1,0,0Z"/></clipPath></defs><title>x5</title><g id="Layer_2" data-name="Layer 2"><g id="Layer_1-2" data-name="Layer 1"><g class="cls-2"><rect class="cls-3" y="30.02" width="60.18" height="0.06"/><rect class="cls-4" y="29.91" width="60.18" height="0.17"/><rect class="cls-4" y="29.79" width="60.18" height="0.17"/><rect class="cls-5" y="29.65" width="60.18" height="0.2"/><rect class="cls-5" y="29.54" width="60.18" height="0.17"/><rect class="cls-6" y="29.42" width="60.18" height="0.17"/><rect class="cls-6" y="29.31" width="60.18" height="0.17"/><rect class="cls-7" y="29.2" width="60.18" height="0.17"/><rect class="cls-7" y="29.08" width="60.18" height="0.17"/><rect class="cls-8" y="28.94" width="60.18" height="0.2"/><rect class="cls-8" y="28.83" width="60.18" height="0.2"/><rect class="cls-9" y="28.71" width="60.18" height="0.17"/><rect class="cls-9" y="28.6" width="60.18" height="0.17"/><rect class="cls-10" y="28.49" width="60.18" height="0.17"/><rect class="cls-11" y="28.37" width="60.18" height="0.17"/><rect class="cls-11" y="28.26" width="60.18" height="0.17"/><rect class="cls-12" y="28.12" width="60.18" height="0.2"/><rect class="cls-12" y="28.01" width="60.18" height="0.2"/><rect class="cls-13" y="27.89" width="60.18" height="0.17"/><rect class="cls-13" y="27.78" width="60.18" height="0.17"/><rect class="cls-14" y="27.67" width="60.18" height="0.17"/><rect class="cls-14" y="27.55" width="60.18" height="0.17"/><rect class="cls-15" y="27.44" width="60.18" height="0.17"/><rect class="cls-15" y="27.3" width="60.18" height="0.2"/><rect class="cls-16" y="27.18" width="60.18" height="0.2"/><rect class="cls-16" y="27.07" width="60.18" height="0.17"/><rect class="cls-17" y="26.96" width="60.18" height="0.17"/><rect class="cls-18" y="26.84" width="60.18" height="0.17"/><rect class="cls-18" y="26.73" width="60.18" height="0.17"/><rect class="cls-19" y="26.62" width="60.18" height="0.17"/><rect class="cls-19" y="26.48" width="60.18" height="0.2"/><rect class="cls-19" y="26.36" width="60.18" height="0.17"/><rect class="cls-19" y="26.25" width="60.18" height="0.17"/><rect class="cls-19" y="26.14" width="60.18" height="0.17"/><rect class="cls-19" y="26.02" width="60.18" height="0.17"/><rect class="cls-20" y="25.91" width="60.18" height="0.17"/><rect class="cls-20" y="25.8" width="60.18" height="0.17"/><rect class="cls-20" y="25.65" width="60.18" height="0.2"/><rect class="cls-20" y="25.54" width="60.18" height="0.17"/><rect class="cls-20" y="25.43" width="60.18" height="0.17"/><rect class="cls-20" y="25.31" width="60.18" height="0.17"/><rect class="cls-21" y="25.2" width="60.18" height="0.17"/><rect class="cls-21" y="25.09" width="60.18" height="0.17"/><rect class="cls-21" y="24.97" width="60.18" height="0.17"/><rect class="cls-21" y="24.83" width="60.18" height="0.2"/><rect class="cls-21" y="24.72" width="60.18" height="0.17"/><rect class="cls-21" y="24.6" width="60.18" height="0.17"/><rect class="cls-22" y="24.49" width="60.18" height="0.17"/><rect class="cls-22" y="24.38" width="60.18" height="0.17"/><rect class="cls-22" y="24.26" width="60.18" height="0.17"/><rect class="cls-22" y="24.15" width="60.18" height="0.17"/><rect class="cls-22" y="24.01" width="60.18" height="0.2"/><rect class="cls-22" y="23.9" width="60.18" height="0.17"/><rect class="cls-23" y="23.78" width="60.18" height="0.17"/><rect class="cls-23" y="23.67" width="60.18" height="0.17"/><rect class="cls-23" y="23.56" width="60.18" height="0.17"/><rect class="cls-23" y="23.44" width="60.18" height="0.17"/><rect class="cls-23" y="23.3" width="60.18" height="0.2"/><rect class="cls-23" y="23.19" width="60.18" height="0.2"/><rect class="cls-24" y="23.07" width="60.18" height="0.17"/><rect class="cls-24" y="22.96" width="60.18" height="0.17"/><rect class="cls-24" y="22.85" width="60.18" height="0.17"/><rect class="cls-24" y="22.73" width="60.18" height="0.17"/><rect class="cls-24" y="22.62" width="60.18" height="0.17"/><rect class="cls-24" y="22.48" width="60.18" height="0.2"/><rect class="cls-25" y="22.37" width="60.18" height="0.2"/><rect class="cls-25" y="22.25" width="60.18" height="0.17"/><rect class="cls-25" y="22.14" width="60.18" height="0.17"/><rect class="cls-25" y="22.03" width="60.18" height="0.17"/><rect class="cls-25" y="21.91" width="60.18" height="0.17"/><rect class="cls-26" y="21.8" width="60.18" height="0.17"/><rect class="cls-26" y="21.66" width="60.18" height="0.2"/><rect class="cls-26" y="21.54" width="60.18" height="0.2"/><rect class="cls-26" y="21.43" width="60.18" height="0.17"/><rect class="cls-26" y="21.32" width="60.18" height="0.17"/><rect class="cls-26" y="21.2" width="60.18" height="0.17"/><rect class="cls-27" y="21.09" width="60.18" height="0.17"/><rect class="cls-27" y="20.98" width="60.18" height="0.17"/><rect class="cls-27" y="20.83" width="60.18" height="0.2"/><rect class="cls-27" y="20.72" width="60.18" height="0.2"/><rect class="cls-27" y="20.61" width="60.18" height="0.17"/><rect class="cls-27" y="20.49" width="60.18" height="0.17"/><rect class="cls-28" y="20.38" width="60.18" height="0.17"/><rect class="cls-28" y="20.27" width="60.18" height="0.17"/><rect class="cls-28" y="20.15" width="60.18" height="0.17"/><rect class="cls-28" y="20.01" width="60.18" height="0.2"/><rect class="cls-28" y="19.9" width="60.18" height="0.17"/><rect class="cls-28" y="19.79" width="60.18" height="0.17"/><rect class="cls-29" y="19.67" width="60.18" height="0.17"/><rect class="cls-29" y="19.56" width="60.18" height="0.17"/><rect class="cls-29" y="19.45" width="60.18" height="0.17"/><rect class="cls-29" y="19.33" width="60.18" height="0.17"/><rect class="cls-29" y="19.19" width="60.18" height="0.2"/><rect class="cls-29" y="19.08" width="60.18" height="0.17"/><rect class="cls-30" y="18.96" width="60.18" height="0.17"/><rect class="cls-30" y="18.85" width="60.18" height="0.17"/><rect class="cls-30" y="18.74" width="60.18" height="0.17"/><rect class="cls-30" y="18.62" width="60.18" height="0.17"/><rect class="cls-30" y="18.51" width="60.18" height="0.17"/><rect class="cls-30" y="18.37" width="60.18" height="0.2"/><rect class="cls-31" y="18.26" width="60.18" height="0.17"/><rect class="cls-31" y="18.14" width="60.18" height="0.17"/><rect class="cls-31" y="18.03" width="60.18" height="0.17"/><rect class="cls-31" y="17.91" width="60.18" height="0.17"/><rect class="cls-31" y="17.8" width="60.18" height="0.17"/><rect class="cls-31" y="17.69" width="60.18" height="0.17"/><rect class="cls-32" y="17.55" width="60.18" height="0.2"/><rect class="cls-32" y="17.43" width="60.18" height="0.17"/><rect class="cls-32" y="17.32" width="60.18" height="0.17"/><rect class="cls-32" y="17.21" width="60.18" height="0.17"/><rect class="cls-32" y="17.09" width="60.18" height="0.17"/><rect class="cls-32" y="16.98" width="60.18" height="0.17"/><rect class="cls-33" y="16.84" width="60.18" height="0.2"/><rect class="cls-33" y="16.72" width="60.18" height="0.2"/><rect class="cls-33" y="16.61" width="60.18" height="0.17"/><rect class="cls-33" y="16.5" width="60.18" height="0.17"/><rect class="cls-33" y="16.38" width="60.18" height="0.17"/><rect class="cls-33" y="16.27" width="60.18" height="0.17"/><rect class="cls-33" y="16.16" width="60.18" height="0.17"/><rect class="cls-33" y="16.02" width="60.18" height="0.2"/><rect class="cls-33" y="15.9" width="60.18" height="0.2"/><rect class="cls-33" y="15.79" width="60.18" height="0.17"/><rect class="cls-33" y="15.68" width="60.18" height="0.17"/><rect class="cls-33" y="15.56" width="60.18" height="0.17"/><rect class="cls-33" y="15.45" width="60.18" height="0.17"/><rect class="cls-33" y="15.34" width="60.18" height="0.17"/><rect class="cls-33" y="15.19" width="60.18" height="0.2"/><rect class="cls-33" y="15.08" width="60.18" height="0.2"/><rect class="cls-33" y="14.97" width="60.18" height="0.17"/><rect class="cls-33" y="14.85" width="60.18" height="0.17"/><rect class="cls-33" y="14.74" width="60.18" height="0.17"/><rect class="cls-33" y="14.63" width="60.18" height="0.17"/><rect class="cls-33" y="14.51" width="60.18" height="0.17"/><rect class="cls-33" y="14.37" width="60.18" height="0.2"/><rect class="cls-33" y="14.26" width="60.18" height="0.17"/><rect class="cls-33" y="14.14" width="60.18" height="0.17"/><rect class="cls-33" y="14.03" width="60.18" height="0.17"/><rect class="cls-33" y="13.92" width="60.18" height="0.17"/><rect class="cls-33" y="13.8" width="60.18" height="0.17"/><rect class="cls-33" y="13.69" width="60.18" height="0.17"/><rect class="cls-33" y="13.55" width="60.18" height="0.2"/><rect class="cls-33" y="13.44" width="60.18" height="0.17"/><rect class="cls-33" y="13.32" width="60.18" height="0.17"/><rect class="cls-33" y="13.21" width="60.18" height="0.17"/><rect class="cls-33" y="13.1" width="60.18" height="0.17"/><rect class="cls-33" y="12.98" width="60.18" height="0.17"/><rect class="cls-33" y="12.87" width="60.18" height="0.17"/><rect class="cls-33" y="12.73" width="60.18" height="0.2"/><rect class="cls-33" y="12.61" width="60.18" height="0.17"/><rect class="cls-33" y="12.5" width="60.18" height="0.17"/><rect class="cls-33" y="12.39" width="60.18" height="0.17"/><rect class="cls-33" y="12.27" width="60.18" height="0.17"/><rect class="cls-33" y="12.16" width="60.18" height="0.17"/><rect class="cls-33" y="12.05" width="60.18" height="0.17"/><rect class="cls-33" y="11.91" width="60.18" height="0.2"/><rect class="cls-33" y="11.79" width="60.18" height="0.17"/><rect class="cls-33" y="11.68" width="60.18" height="0.17"/><rect class="cls-33" y="11.57" width="60.18" height="0.17"/><rect class="cls-33" y="11.45" width="60.18" height="0.17"/><rect class="cls-33" y="11.34" width="60.18" height="0.17"/><rect class="cls-33" y="11.2" width="60.18" height="0.2"/><rect class="cls-33" y="11.08" width="60.18" height="0.2"/><rect class="cls-33" y="10.97" width="60.18" height="0.17"/><rect class="cls-33" y="10.86" width="60.18" height="0.17"/><rect class="cls-33" y="10.74" width="60.18" height="0.17"/><rect class="cls-33" y="10.63" width="60.18" height="0.17"/><rect class="cls-33" y="10.52" width="60.18" height="0.17"/><rect class="cls-33" y="10.37" width="60.18" height="0.2"/><rect class="cls-33" y="10.26" width="60.18" height="0.2"/><rect class="cls-33" y="10.15" width="60.18" height="0.17"/><rect class="cls-33" y="10.03" width="60.18" height="0.17"/><rect class="cls-33" y="9.92" width="60.18" height="0.17"/><rect class="cls-33" y="9.81" width="60.18" height="0.17"/><rect class="cls-33" y="9.69" width="60.18" height="0.17"/><rect class="cls-33" y="9.55" width="60.18" height="0.2"/><rect class="cls-33" y="9.44" width="60.18" height="0.2"/><rect class="cls-33" y="9.33" width="60.18" height="0.17"/><rect class="cls-33" y="9.21" width="60.18" height="0.17"/><rect class="cls-33" y="9.1" width="60.18" height="0.17"/><rect class="cls-33" y="8.99" width="60.18" height="0.17"/><rect class="cls-33" y="8.87" width="60.18" height="0.17"/><rect class="cls-33" y="8.73" width="60.18" height="0.2"/><rect class="cls-33" y="8.62" width="60.18" height="0.2"/><rect class="cls-33" y="8.5" width="60.18" height="0.17"/><rect class="cls-33" y="8.39" width="60.18" height="0.17"/><rect class="cls-33" y="8.28" width="60.18" height="0.17"/><rect class="cls-33" y="8.16" width="60.18" height="0.17"/><rect class="cls-33" y="8.05" width="60.18" height="0.17"/><rect class="cls-33" y="7.91" width="60.18" height="0.2"/><rect class="cls-33" y="7.8" width="60.18" height="0.17"/><rect class="cls-33" y="7.68" width="60.18" height="0.17"/><rect class="cls-33" y="7.57" width="60.18" height="0.17"/><rect class="cls-33" y="7.46" width="60.18" height="0.17"/><rect class="cls-33" y="7.34" width="60.18" height="0.17"/><rect class="cls-33" y="7.23" width="60.18" height="0.17"/><rect class="cls-33" y="7.09" width="60.18" height="0.2"/><rect class="cls-33" y="6.97" width="60.18" height="0.17"/><rect class="cls-33" y="6.86" width="60.18" height="0.17"/><rect class="cls-33" y="6.75" width="60.18" height="0.17"/><rect class="cls-33" y="6.63" width="60.18" height="0.17"/><rect class="cls-33" y="6.52" width="60.18" height="0.17"/><rect class="cls-33" y="6.41" width="60.18" height="0.17"/><rect class="cls-33" y="6.26" width="60.18" height="0.2"/><rect class="cls-33" y="6.15" width="60.18" height="0.17"/><rect class="cls-33" y="6.04" width="60.18" height="0.17"/><rect class="cls-33" y="5.92" width="60.18" height="0.17"/><rect class="cls-33" y="5.81" width="60.18" height="0.17"/><rect class="cls-33" y="5.7" width="60.18" height="0.17"/><rect class="cls-33" y="5.58" width="60.18" height="0.17"/><rect class="cls-33" y="5.44" width="60.18" height="0.2"/><rect class="cls-33" y="5.33" width="60.18" height="0.17"/><rect class="cls-33" y="5.22" width="60.18" height="0.17"/><rect class="cls-33" y="5.1" width="60.18" height="0.17"/><rect class="cls-33" y="4.99" width="60.18" height="0.17"/><rect class="cls-33" y="4.88" width="60.18" height="0.17"/><rect class="cls-33" y="4.73" width="60.18" height="0.2"/><rect class="cls-33" y="4.62" width="60.18" height="0.2"/><rect class="cls-33" y="4.51" width="60.18" height="0.17"/><rect class="cls-33" y="4.39" width="60.18" height="0.17"/><rect class="cls-33" y="4.28" width="60.18" height="0.17"/><rect class="cls-33" y="4.17" width="60.18" height="0.17"/><rect class="cls-33" y="4.05" width="60.18" height="0.17"/><rect class="cls-33" y="3.91" width="60.18" height="0.2"/><rect class="cls-33" y="3.8" width="60.18" height="0.2"/><rect class="cls-33" y="3.69" width="60.18" height="0.17"/><rect class="cls-33" y="3.57" width="60.18" height="0.17"/><rect class="cls-33" y="3.46" width="60.18" height="0.17"/><rect class="cls-33" y="3.34" width="60.18" height="0.17"/><rect class="cls-33" y="3.23" width="60.18" height="0.17"/><rect class="cls-33" y="3.09" width="60.18" height="0.2"/><rect class="cls-33" y="2.98" width="60.18" height="0.2"/><rect class="cls-33" y="2.86" width="60.18" height="0.17"/><rect class="cls-33" y="2.75" width="60.18" height="0.17"/><rect class="cls-33" y="2.64" width="60.18" height="0.17"/><rect class="cls-33" y="2.52" width="60.18" height="0.17"/><rect class="cls-33" y="2.41" width="60.18" height="0.17"/><rect class="cls-33" y="2.27" width="60.18" height="0.2"/><rect class="cls-33" y="2.15" width="60.18" height="0.17"/><rect class="cls-33" y="2.04" width="60.18" height="0.17"/><rect class="cls-33" y="1.93" width="60.18" height="0.17"/><rect class="cls-33" y="1.81" width="60.18" height="0.17"/><rect class="cls-33" y="1.7" width="60.18" height="0.17"/><rect class="cls-33" y="1.59" width="60.18" height="0.17"/><rect class="cls-33" y="1.45" width="60.18" height="0.2"/><rect class="cls-33" y="1.33" width="60.18" height="0.17"/><rect class="cls-33" y="1.22" width="60.18" height="0.17"/><rect class="cls-33" y="1.11" width="60.18" height="0.17"/><rect class="cls-33" y="0.99" width="60.18" height="0.17"/><rect class="cls-33" y="0.88" width="60.18" height="0.17"/><rect class="cls-33" y="0.77" width="60.18" height="0.17"/><rect class="cls-33" y="0.62" width="60.18" height="0.2"/><rect class="cls-33" y="0.51" width="60.18" height="0.17"/><rect class="cls-33" y="0.4" width="60.18" height="0.17"/><rect class="cls-33" y="0.28" width="60.18" height="0.17"/><rect class="cls-33" y="0.17" width="60.18" height="0.17"/><rect class="cls-33" width="60.18" height="0.23"/></g><path class="cls-34" d="M24.41,7.26a3.19,3.19,0,0,1,.76-.46,2.94,2.94,0,0,1,1-.25c0,.91.63.65.74.45s.06-.28.09-.48a4.67,4.67,0,0,1,1,.28,3.14,3.14,0,0,1,.76.46c-.17.14-.45.45-.17.73s.66-.11.77-.14a4,4,0,0,1,.45.77,2.53,2.53,0,0,1,.26,1c-.11,0-.62-.06-.65.43a.49.49,0,0,0,.17.34,1,1,0,0,0,.48.05,3.08,3.08,0,0,1-.71,1.76c-.08-.06-.42-.51-.77-.14s.15.65.17.74a3.28,3.28,0,0,1-1.75.7c0-.22,0-.65-.4-.65a.37.37,0,0,0-.34.2.8.8,0,0,0-.06.45,2.77,2.77,0,0,1-1-.25,2.94,2.94,0,0,1-.76-.45c.05-.15.19-.17.25-.32a.4.4,0,0,0-.51-.53c-.17.05-.23.17-.34.25a3.32,3.32,0,0,1-.71-1.76c.82.06.71-.56.46-.73a.76.76,0,0,0-.46-.06,3.25,3.25,0,0,1,.71-1.76c.11.06.2.2.31.26a.42.42,0,0,0,.54-.54c-.06-.14-.17-.2-.25-.31Zm2.09,3.48h.12a.74.74,0,0,0,.11-1.44c-.48-.12-.11.25-1-.34l-.63-.4c-.08-.06-.11-.11-.22-.08a4.82,4.82,0,0,0,.39.56,4.94,4.94,0,0,1,.4.57c.11.14.14.08.11.31a.75.75,0,0,0,.68.82ZM27,15c.08-.06.17,0,.25-.15s.06-.25.06-.39a4.41,4.41,0,0,1-1.45,0c0,.28,0,.48.32.51.05.48,0,1,.08,1.47a8.07,8.07,0,0,0,.09,1.5A2.59,2.59,0,0,0,31,19c.68-.93.46-1.67.46-2.6a8.52,8.52,0,0,1,0-1.51,1.78,1.78,0,0,1,1.73-1.41,1.91,1.91,0,0,1,2,1.16,8.44,8.44,0,0,1,.2,2.15v.8c-.2.05-.25.14-.25.36v.63a2,2,0,0,1,1-.09,1,1,0,0,0,.28.09,2,2,0,0,0-.05-.91s-.06,0-.09-.06-.08,0-.11-.08c0-.51,0-1,0-1.53a3.39,3.39,0,0,0-.4-1.93l-.31-.45a2.72,2.72,0,0,0-.91-.65,3.07,3.07,0,0,0-2.55.08,2.61,2.61,0,0,0-1.27,1.87,8.78,8.78,0,0,0,0,1.45,6.27,6.27,0,0,1,0,1.5,1.67,1.67,0,0,1-1.7,1.39,1.75,1.75,0,0,1-1.81-1.28A4.66,4.66,0,0,1,27,16.53c0-.51,0-1,0-1.53Zm10.85,6.74v-.37A3,3,0,0,0,36.6,19c-1.17-.76-2.5,0-3,1.42a3.09,3.09,0,0,0,1.41,3.71,1.75,1.75,0,0,0,1.45-.08,2.82,2.82,0,0,0,1.3-2.33ZM26.16,5.81a2.39,2.39,0,0,0-.45.09,3.78,3.78,0,0,0-1.16.39,4.27,4.27,0,0,0-2.18,4.11,4.14,4.14,0,0,0,.9,2.21c.14.17.37.43.51.57a4.79,4.79,0,0,0,1.33.77,4.15,4.15,0,0,0,3.43-.26,4.07,4.07,0,0,0,2-2.24A4.23,4.23,0,0,0,28,6a5.12,5.12,0,0,0-1.85-.23Z"/></g></g></svg>