<svg xmlns="http://www.w3.org/2000/svg" xmlns:xlink="http://www.w3.org/1999/xlink" viewBox="0 0 60.18 30.08"><defs><style>.cls-1{fill:none;clip-rule:evenodd;}.cls-2{clip-path:url(#clip-path);}.cls-3{fill:#e0e0e0;}.cls-4{fill:#e1e1e1;}.cls-5{fill:#e2e2e2;}.cls-6{fill:#e3e3e3;}.cls-7{fill:#e4e4e4;}.cls-8{fill:#e5e5e5;}.cls-9{fill:#e6e6e6;}.cls-10{fill:#e7e7e7;}.cls-11{fill:#e8e8e8;}.cls-12{fill:#e9e9e9;}.cls-13{fill:#eaeaea;}.cls-14{fill:#ebebeb;}.cls-15{fill:#ececec;}.cls-16{fill:#ededed;}.cls-17{fill:#eee;}.cls-18{fill:#f0efef;}.cls-19{fill:#f1f0f0;}.cls-20{fill:#f2f1f1;}.cls-21{fill:#f2f2f3;}.cls-22{fill:#f3f3f4;}.cls-23{fill:#f4f4f5;}.cls-24{fill:#f5f5f5;}.cls-25{fill:#f6f6f6;}.cls-26{fill:#f7f7f7;}.cls-27{fill:#f8f8f8;}.cls-28{fill:#f9f9fa;}.cls-29{fill:#fafbfb;}.cls-30{fill:#fbfcfd;}.cls-31{fill:#fdfefe;}.cls-32{fill:#feffff;}.cls-33{fill:#fff;}.cls-34{fill:#ed1c24;fill-rule:evenodd;}</style><clipPath id="clip-path"><path class="cls-1" d="M60.18,0a30.09,30.09,0,0,1-30.1,30.08A30.08,30.08,0,0,1,0,0Z"/></clipPath></defs><title>x6</title><g id="Layer_2" data-name="Layer 2"><g id="Layer_1-2" data-name="Layer 1"><g class="cls-2"><rect class="cls-3" y="30.02" width="60.18" height="0.06"/><rect class="cls-4" y="29.91" width="60.18" height="0.17"/><rect class="cls-4" y="29.79" width="60.18" height="0.17"/><rect class="cls-5" y="29.68" width="60.18" height="0.17"/><rect class="cls-5" y="29.57" width="60.18" height="0.17"/><rect class="cls-6" y="29.42" width="60.18" height="0.2"/><rect class="cls-6" y="29.31" width="60.18" height="0.17"/><rect class="cls-7" y="29.2" width="60.18" height="0.17"/><rect class="cls-7" y="29.08" width="60.18" height="0.17"/><rect class="cls-8" y="28.97" width="60.18" height="0.17"/><rect class="cls-8" y="28.86" width="60.18" height="0.17"/><rect class="cls-9" y="28.71" width="60.18" height="0.2"/><rect class="cls-9" y="28.6" width="60.18" height="0.2"/><rect class="cls-10" y="28.49" width="60.18" height="0.17"/><rect class="cls-11" y="28.37" width="60.18" height="0.17"/><rect class="cls-11" y="28.26" width="60.18" height="0.17"/><rect class="cls-12" y="28.15" width="60.18" height="0.17"/><rect class="cls-12" y="28.03" width="60.18" height="0.17"/><rect class="cls-13" y="27.89" width="60.18" height="0.2"/><rect class="cls-13" y="27.78" width="60.18" height="0.2"/><rect class="cls-14" y="27.67" width="60.18" height="0.17"/><rect class="cls-14" y="27.55" width="60.18" height="0.17"/><rect class="cls-15" y="27.44" width="60.18" height="0.17"/><rect class="cls-15" y="27.33" width="60.18" height="0.17"/><rect class="cls-16" y="27.21" width="60.18" height="0.17"/><rect class="cls-16" y="27.07" width="60.18" height="0.2"/><rect class="cls-17" y="26.96" width="60.18" height="0.2"/><rect class="cls-18" y="26.84" width="60.18" height="0.17"/><rect class="cls-18" y="26.73" width="60.18" height="0.17"/><rect class="cls-19" y="26.62" width="60.18" height="0.17"/><rect class="cls-19" y="26.5" width="60.18" height="0.17"/><rect class="cls-19" y="26.39" width="60.18" height="0.17"/><rect class="cls-19" y="26.25" width="60.18" height="0.2"/><rect class="cls-19" y="26.14" width="60.18" height="0.2"/><rect class="cls-19" y="26.02" width="60.18" height="0.17"/><rect class="cls-20" y="25.91" width="60.18" height="0.17"/><rect class="cls-20" y="25.8" width="60.18" height="0.17"/><rect class="cls-20" y="25.68" width="60.18" height="0.17"/><rect class="cls-20" y="25.57" width="60.18" height="0.17"/><rect class="cls-20" y="25.43" width="60.18" height="0.2"/><rect class="cls-20" y="25.31" width="60.18" height="0.17"/><rect class="cls-21" y="25.2" width="60.18" height="0.17"/><rect class="cls-21" y="25.09" width="60.18" height="0.17"/><rect class="cls-21" y="24.97" width="60.18" height="0.17"/><rect class="cls-21" y="24.86" width="60.18" height="0.17"/><rect class="cls-21" y="24.75" width="60.18" height="0.17"/><rect class="cls-21" y="24.6" width="60.18" height="0.2"/><rect class="cls-22" y="24.49" width="60.18" height="0.17"/><rect class="cls-22" y="24.38" width="60.18" height="0.17"/><rect class="cls-22" y="24.26" width="60.18" height="0.17"/><rect class="cls-22" y="24.15" width="60.18" height="0.17"/><rect class="cls-22" y="24.04" width="60.18" height="0.17"/><rect class="cls-22" y="23.92" width="60.18" height="0.17"/><rect class="cls-23" y="23.78" width="60.18" height="0.2"/><rect class="cls-23" y="23.67" width="60.18" height="0.17"/><rect class="cls-23" y="23.56" width="60.18" height="0.17"/><rect class="cls-23" y="23.44" width="60.18" height="0.17"/><rect class="cls-23" y="23.33" width="60.18" height="0.17"/><rect class="cls-23" y="23.22" width="60.18" height="0.17"/><rect class="cls-24" y="23.1" width="60.18" height="0.17"/><rect class="cls-24" y="22.96" width="60.18" height="0.2"/><rect class="cls-24" y="22.85" width="60.18" height="0.17"/><rect class="cls-24" y="22.73" width="60.18" height="0.17"/><rect class="cls-24" y="22.62" width="60.18" height="0.17"/><rect class="cls-24" y="22.51" width="60.18" height="0.17"/><rect class="cls-25" y="22.39" width="60.18" height="0.17"/><rect class="cls-25" y="22.25" width="60.18" height="0.2"/><rect class="cls-25" y="22.14" width="60.18" height="0.2"/><rect class="cls-25" y="22.03" width="60.18" height="0.17"/><rect class="cls-25" y="21.91" width="60.18" height="0.17"/><rect class="cls-26" y="21.8" width="60.18" height="0.17"/><rect class="cls-26" y="21.69" width="60.18" height="0.17"/><rect class="cls-26" y="21.57" width="60.18" height="0.17"/><rect class="cls-26" y="21.43" width="60.18" height="0.2"/><rect class="cls-26" y="21.32" width="60.18" height="0.2"/><rect class="cls-26" y="21.2" width="60.18" height="0.17"/><rect class="cls-27" y="21.09" width="60.18" height="0.17"/><rect class="cls-27" y="20.98" width="60.18" height="0.17"/><rect class="cls-27" y="20.86" width="60.18" height="0.17"/><rect class="cls-27" y="20.75" width="60.18" height="0.17"/><rect class="cls-27" y="20.61" width="60.18" height="0.2"/><rect class="cls-27" y="20.49" width="60.18" height="0.2"/><rect class="cls-28" y="20.38" width="60.18" height="0.17"/><rect class="cls-28" y="20.27" width="60.18" height="0.17"/><rect class="cls-28" y="20.15" width="60.18" height="0.17"/><rect class="cls-28" y="20.04" width="60.18" height="0.17"/><rect class="cls-28" y="19.93" width="60.18" height="0.17"/><rect class="cls-28" y="19.79" width="60.18" height="0.2"/><rect class="cls-29" y="19.67" width="60.18" height="0.17"/><rect class="cls-29" y="19.56" width="60.18" height="0.17"/><rect class="cls-29" y="19.45" width="60.18" height="0.17"/><rect class="cls-29" y="19.33" width="60.18" height="0.17"/><rect class="cls-29" y="19.22" width="60.18" height="0.17"/><rect class="cls-29" y="19.11" width="60.18" height="0.17"/><rect class="cls-30" y="18.96" width="60.18" height="0.2"/><rect class="cls-30" y="18.85" width="60.18" height="0.17"/><rect class="cls-30" y="18.74" width="60.18" height="0.17"/><rect class="cls-30" y="18.62" width="60.18" height="0.17"/><rect class="cls-30" y="18.51" width="60.18" height="0.17"/><rect class="cls-30" y="18.4" width="60.18" height="0.17"/><rect class="cls-31" y="18.28" width="60.18" height="0.17"/><rect class="cls-31" y="18.14" width="60.18" height="0.2"/><rect class="cls-31" y="18.03" width="60.18" height="0.17"/><rect class="cls-31" y="17.91" width="60.18" height="0.17"/><rect class="cls-31" y="17.8" width="60.18" height="0.17"/><rect class="cls-31" y="17.69" width="60.18" height="0.17"/><rect class="cls-32" y="17.57" width="60.18" height="0.17"/><rect class="cls-32" y="17.46" width="60.18" height="0.17"/><rect class="cls-32" y="17.32" width="60.18" height="0.2"/><rect class="cls-32" y="17.21" width="60.18" height="0.17"/><rect class="cls-32" y="17.09" width="60.18" height="0.17"/><rect class="cls-32" y="16.98" width="60.18" height="0.17"/><rect class="cls-33" y="16.87" width="60.18" height="0.17"/><rect class="cls-33" y="16.75" width="60.18" height="0.17"/><rect class="cls-33" y="16.61" width="60.18" height="0.2"/><rect class="cls-33" y="16.5" width="60.18" height="0.2"/><rect class="cls-33" y="16.38" width="60.18" height="0.17"/><rect class="cls-33" y="16.27" width="60.18" height="0.17"/><rect class="cls-33" y="16.16" width="60.18" height="0.17"/><rect class="cls-33" y="16.04" width="60.18" height="0.17"/><rect class="cls-33" y="15.93" width="60.18" height="0.17"/><rect class="cls-33" y="15.79" width="60.18" height="0.2"/><rect class="cls-33" y="15.68" width="60.18" height="0.2"/><rect class="cls-33" y="15.56" width="60.18" height="0.17"/><rect class="cls-33" y="15.45" width="60.18" height="0.17"/><rect class="cls-33" y="15.34" width="60.18" height="0.17"/><rect class="cls-33" y="15.22" width="60.18" height="0.17"/><rect class="cls-33" y="15.11" width="60.18" height="0.17"/><rect class="cls-33" y="14.97" width="60.18" height="0.2"/><rect class="cls-33" y="14.85" width="60.18" height="0.2"/><rect class="cls-33" y="14.74" width="60.18" height="0.17"/><rect class="cls-33" y="14.63" width="60.18" height="0.17"/><rect class="cls-33" y="14.51" width="60.18" height="0.17"/><rect class="cls-33" y="14.4" width="60.18" height="0.17"/><rect class="cls-33" y="14.29" width="60.18" height="0.17"/><rect class="cls-33" y="14.14" width="60.18" height="0.2"/><rect class="cls-33" y="14.03" width="60.18" height="0.2"/><rect class="cls-33" y="13.92" width="60.18" height="0.17"/><rect class="cls-33" y="13.8" width="60.18" height="0.17"/><rect class="cls-33" y="13.69" width="60.18" height="0.17"/><rect class="cls-33" y="13.58" width="60.18" height="0.17"/><rect class="cls-33" y="13.46" width="60.18" height="0.17"/><rect class="cls-33" y="13.32" width="60.18" height="0.2"/><rect class="cls-33" y="13.21" width="60.18" height="0.17"/><rect class="cls-33" y="13.1" width="60.18" height="0.17"/><rect class="cls-33" y="12.98" width="60.18" height="0.17"/><rect class="cls-33" y="12.87" width="60.18" height="0.17"/><rect class="cls-33" y="12.76" width="60.18" height="0.17"/><rect class="cls-33" y="12.64" width="60.18" height="0.17"/><rect class="cls-33" y="12.5" width="60.18" height="0.2"/><rect class="cls-33" y="12.39" width="60.18" height="0.17"/><rect class="cls-33" y="12.27" width="60.18" height="0.17"/><rect class="cls-33" y="12.16" width="60.18" height="0.17"/><rect class="cls-33" y="12.05" width="60.18" height="0.17"/><rect class="cls-33" y="11.93" width="60.18" height="0.17"/><rect class="cls-33" y="11.82" width="60.18" height="0.17"/><rect class="cls-33" y="11.68" width="60.18" height="0.2"/><rect class="cls-33" y="11.57" width="60.18" height="0.17"/><rect class="cls-33" y="11.45" width="60.18" height="0.17"/><rect class="cls-33" y="11.34" width="60.18" height="0.17"/><rect class="cls-33" y="11.23" width="60.18" height="0.17"/><rect class="cls-33" y="11.11" width="60.18" height="0.17"/><rect class="cls-33" y="11" width="60.18" height="0.17"/><rect class="cls-33" y="10.86" width="60.18" height="0.2"/><rect class="cls-33" y="10.74" width="60.18" height="0.17"/><rect class="cls-33" y="10.63" width="60.18" height="0.17"/><rect class="cls-33" y="10.52" width="60.18" height="0.17"/><rect class="cls-33" y="10.4" width="60.18" height="0.17"/><rect class="cls-33" y="10.29" width="60.18" height="0.17"/><rect class="cls-33" y="10.15" width="60.18" height="0.2"/><rect class="cls-33" y="10.03" width="60.18" height="0.2"/><rect class="cls-33" y="9.92" width="60.18" height="0.17"/><rect class="cls-33" y="9.81" width="60.18" height="0.17"/><rect class="cls-33" y="9.69" width="60.18" height="0.17"/><rect class="cls-33" y="9.58" width="60.18" height="0.17"/><rect class="cls-33" y="9.47" width="60.18" height="0.17"/><rect class="cls-33" y="9.33" width="60.18" height="0.2"/><rect class="cls-33" y="9.21" width="60.18" height="0.2"/><rect class="cls-33" y="9.1" width="60.18" height="0.17"/><rect class="cls-33" y="8.99" width="60.18" height="0.17"/><rect class="cls-33" y="8.87" width="60.18" height="0.17"/><rect class="cls-33" y="8.76" width="60.18" height="0.17"/><rect class="cls-33" y="8.65" width="60.18" height="0.17"/><rect class="cls-33" y="8.5" width="60.18" height="0.2"/><rect class="cls-33" y="8.39" width="60.18" height="0.2"/><rect class="cls-33" y="8.28" width="60.18" height="0.17"/><rect class="cls-33" y="8.16" width="60.18" height="0.17"/><rect class="cls-33" y="8.05" width="60.18" height="0.17"/><rect class="cls-33" y="7.94" width="60.18" height="0.17"/><rect class="cls-33" y="7.82" width="60.18" height="0.17"/><rect class="cls-33" y="7.68" width="60.18" height="0.2"/><rect class="cls-33" y="7.57" width="60.18" height="0.17"/><rect class="cls-33" y="7.46" width="60.18" height="0.17"/><rect class="cls-33" y="7.34" width="60.18" height="0.17"/><rect class="cls-33" y="7.23" width="60.18" height="0.17"/><rect class="cls-33" y="7.11" width="60.18" height="0.17"/><rect class="cls-33" y="7" width="60.18" height="0.17"/><rect class="cls-33" y="6.86" width="60.18" height="0.2"/><rect class="cls-33" y="6.75" width="60.18" height="0.17"/><rect class="cls-33" y="6.63" width="60.18" height="0.17"/><rect class="cls-33" y="6.52" width="60.18" height="0.17"/><rect class="cls-33" y="6.41" width="60.18" height="0.17"/><rect class="cls-33" y="6.29" width="60.18" height="0.17"/><rect class="cls-33" y="6.18" width="60.18" height="0.17"/><rect class="cls-33" y="6.04" width="60.18" height="0.2"/><rect class="cls-33" y="5.92" width="60.18" height="0.17"/><rect class="cls-33" y="5.81" width="60.18" height="0.17"/><rect class="cls-33" y="5.7" width="60.18" height="0.17"/><rect class="cls-33" y="5.58" width="60.18" height="0.17"/><rect class="cls-33" y="5.47" width="60.18" height="0.17"/><rect class="cls-33" y="5.36" width="60.18" height="0.17"/><rect class="cls-33" y="5.22" width="60.18" height="0.2"/><rect class="cls-33" y="5.1" width="60.18" height="0.17"/><rect class="cls-33" y="4.99" width="60.18" height="0.17"/><rect class="cls-33" y="4.88" width="60.18" height="0.17"/><rect class="cls-33" y="4.76" width="60.18" height="0.17"/><rect class="cls-33" y="4.65" width="60.18" height="0.17"/><rect class="cls-33" y="4.51" width="60.18" height="0.2"/><rect class="cls-33" y="4.39" width="60.18" height="0.2"/><rect class="cls-33" y="4.28" width="60.18" height="0.17"/><rect class="cls-33" y="4.17" width="60.18" height="0.17"/><rect class="cls-33" y="4.05" width="60.18" height="0.17"/><rect class="cls-33" y="3.94" width="60.18" height="0.17"/><rect class="cls-33" y="3.83" width="60.18" height="0.17"/><rect class="cls-33" y="3.69" width="60.18" height="0.2"/><rect class="cls-33" y="3.57" width="60.18" height="0.2"/><rect class="cls-33" y="3.46" width="60.18" height="0.17"/><rect class="cls-33" y="3.34" width="60.18" height="0.17"/><rect class="cls-33" y="3.23" width="60.18" height="0.17"/><rect class="cls-33" y="3.12" width="60.18" height="0.17"/><rect class="cls-33" y="3" width="60.18" height="0.17"/><rect class="cls-33" y="2.86" width="60.18" height="0.2"/><rect class="cls-33" y="2.75" width="60.18" height="0.2"/><rect class="cls-33" y="2.64" width="60.18" height="0.17"/><rect class="cls-33" y="2.52" width="60.18" height="0.17"/><rect class="cls-33" y="2.41" width="60.18" height="0.17"/><rect class="cls-33" y="2.3" width="60.18" height="0.17"/><rect class="cls-33" y="2.18" width="60.18" height="0.17"/><rect class="cls-33" y="2.04" width="60.18" height="0.2"/><rect class="cls-33" y="1.93" width="60.18" height="0.2"/><rect class="cls-33" y="1.81" width="60.18" height="0.17"/><rect class="cls-33" y="1.7" width="60.18" height="0.17"/><rect class="cls-33" y="1.59" width="60.18" height="0.17"/><rect class="cls-33" y="1.47" width="60.18" height="0.17"/><rect class="cls-33" y="1.36" width="60.18" height="0.17"/><rect class="cls-33" y="1.22" width="60.18" height="0.2"/><rect class="cls-33" y="1.11" width="60.18" height="0.17"/><rect class="cls-33" y="0.99" width="60.18" height="0.17"/><rect class="cls-33" y="0.88" width="60.18" height="0.17"/><rect class="cls-33" y="0.77" width="60.18" height="0.17"/><rect class="cls-33" y="0.65" width="60.18" height="0.17"/><rect class="cls-33" y="0.54" width="60.18" height="0.17"/><rect class="cls-33" y="0.4" width="60.18" height="0.2"/><rect class="cls-33" y="0.28" width="60.18" height="0.17"/><rect class="cls-33" y="0.17" width="60.18" height="0.17"/><rect class="cls-33" width="60.18" height="0.23"/></g><path class="cls-34" d="M23.73,15.68c.08-.06.05,0,.08-.12a6.16,6.16,0,0,1,.31-.88,6.25,6.25,0,0,1,6-3.51,7,7,0,0,1,4.16,1.27,5.45,5.45,0,0,1,1.82,2.24c.14.32.22.66.34,1a2.87,2.87,0,0,1,1.53.25,1.5,1.5,0,0,1,.14,2.38,2.6,2.6,0,0,1-1.67.37c0,.06-.2.68-.34,1a5.44,5.44,0,0,1-1.79,2.21,7.54,7.54,0,0,1-6.6.91,6.85,6.85,0,0,1-1.79-.91,6.18,6.18,0,0,1-1.3-1.39c-.17-.28-.32-.53-.49-.85s-.28-.9-.34-1l-.45,0a1.53,1.53,0,0,1-1.5-2.32c.4-.68,1.16-.68,1.93-.68Zm7.85,1.1a.88.88,0,0,0,.25.68.91.91,0,0,0,1.56-.68.92.92,0,0,0-1-.85.93.93,0,0,0-.85.85Zm-4.79,0v.11a.9.9,0,0,0,.82.85.94.94,0,0,0,.74-.28.92.92,0,0,0-.6-1.53.9.9,0,0,0-1,.85Zm.11,2.78a2.65,2.65,0,0,0,1.87,2.13c1.82.65,4.2-.15,4.51-2.13l-.94-.2a1.74,1.74,0,0,1-.73,1.11c-1.08.76-3.12.53-3.66-.74,0-.09-.09-.31-.11-.37-.23,0-.68.17-.94.2ZM28.09,7.63c-.23,0-.31,0-.48.14-.51.45.34.9,0,1.27s-.62.09-.79-.11a1.27,1.27,0,0,1,.9-2.07,1.52,1.52,0,0,1,1.53.79,2.36,2.36,0,0,1,.37,1,5.26,5.26,0,0,1,0,1.36,7.17,7.17,0,0,0-6.52,4.14c-.28.6,0,.26-.82.48a2.46,2.46,0,0,0-1.5,1.19,2.66,2.66,0,0,0-.32,1,2.53,2.53,0,0,0,1.9,2.78,3.75,3.75,0,0,0,.57.09,6.73,6.73,0,0,0,3,3.51c.17.09.32.14.49.23,3.09,1.47,7.48.85,9.66-1.87a6.07,6.07,0,0,0,1-1.87,3.66,3.66,0,0,0,1.22-.34,2.58,2.58,0,0,0,1.19-3l-.09-.31a2.48,2.48,0,0,0-2-1.53c-.23-.06-.28,0-.34-.12l-.42-.88a6.69,6.69,0,0,0-.71-1c-.15-.17-.29-.28-.43-.45s-.34-.31-.45-.4a7.82,7.82,0,0,0-3.66-1.58C31.63,9.75,32.57,9,33,8.76a10.3,10.3,0,0,0,.88-.57.51.51,0,0,0-.37-.82.83.83,0,0,0-.48.14,7.91,7.91,0,0,0-1.76,1.33,6.08,6.08,0,0,0-.54.68A4.25,4.25,0,0,0,30.08,7a2.78,2.78,0,0,0-.74-.79A2.71,2.71,0,0,0,28.83,6c-.2-.08-.54-.14-.6-.17a2.86,2.86,0,0,0-1.41.28,2.21,2.21,0,0,0,0,4.06,1.42,1.42,0,0,0,1.68-2.07c-.17-.31-.17-.31-.4-.45Z"/></g></g></svg>