<?xml version="1.0" encoding="UTF-8"?>
<!DOCTYPE svg PUBLIC "-//W3C//DTD SVG 1.0//EN" "http://www.w3.org/TR/2001/REC-SVG-20010904/DTD/svg10.dtd">
<!-- Creator: CorelDRAW X8 -->
<svg xmlns="http://www.w3.org/2000/svg" xml:space="preserve" width="468px" height="400px" version="1.0" style="shape-rendering:geometricPrecision; text-rendering:geometricPrecision; image-rendering:optimizeQuality; fill-rule:evenodd; clip-rule:evenodd"
viewBox="0 0 110 94"
 xmlns:xlink="http://www.w3.org/1999/xlink">
 <defs>
  <style type="text/css">
   <![CDATA[
    .fil5 {fill:black}
    .fil1 {fill:#25336D}
    .fil4 {fill:#26336D}
    .fil3 {fill:#27346D}
    .fil0 {fill:#D9D9D9}
    .fil2 {fill:#DADADA}
   ]]>
  </style>
 </defs>
 <g id="Capa_x0020_1">
  <metadata id="CorelCorpID_0Corel-Layer"/>
  <g id="_2486076165472">
   <path class="fil0" d="M74 62l1 0 0 6 -1 0 0 -6zm5 0c4,-1 5,6 1,6 -2,1 -3,-1 -3,-2 -1,-2 0,-3 2,-4zm-14 0c4,0 4,6 1,6 -4,1 -5,-5 -1,-6zm6 1c0,0 1,-1 2,-1 0,1 0,1 0,2 -3,-1 -2,2 -2,4l-2 0 0 -6 2 0 0 1zm13 4c0,0 0,0 1,0 1,0 1,0 1,-1 0,0 -1,0 -1,0 -2,-1 -2,-3 -1,-4 1,0 2,0 3,0l0 1c0,0 -1,0 -2,0 0,0 0,1 0,1 1,1 2,1 2,2 1,2 -2,3 -4,2l1 -1zm-10 -7c1,0 2,1 1,1 -1,1 -2,-1 -1,-1zm-45 -24l4 0c0,3 -1,14 0,16 1,2 3,3 5,3l5 0 0 3c-3,0 -8,0 -10,-1 -3,-1 -4,-4 -4,-7l0 -9 0 -5zm-19 0c0,4 0,8 0,13 0,2 0,3 1,5 2,2 7,2 9,0 2,-2 2,-4 2,-6 0,-4 0,-8 0,-12l3 0 0 3 4 1 0 4 -4 -1c0,2 0,9 -1,11 -1,2 -3,3 -6,4l-1 0c0,0 0,0 0,0 1,0 2,1 3,1 1,0 2,1 3,1l-1 0 2 0 0 0c1,0 6,2 7,2 -1,0 -1,0 -1,0 0,0 0,0 0,0 1,0 1,0 2,0 0,0 2,1 2,1l0 -3 2 0 0 3c0,0 1,-1 3,-1 0,1 1,1 1,2 1,0 1,0 1,1 0,0 0,0 0,0 0,0 0,0 0,0 0,0 0,-1 0,-1l0 0c1,-3 6,-3 6,2l1 0 0 -4 1 0 1 1c0,0 0,-1 1,-1 1,0 1,1 1,2 -2,0 -2,0 -2,2 0,0 1,1 1,1l1 0c0,0 0,0 0,0 0,-2 1,-3 3,-3 0,-1 -1,-1 -2,0l-1 -1c1,-1 4,-1 5,0 0,1 0,4 0,5l-1 0c0,0 0,0 0,0 1,1 -1,0 0,0 0,0 0,0 0,0 1,0 1,0 1,0l2 0c-1,-1 0,-3 0,-5l-1 0 0 -1 1 0 0 -1 1 0 0 1 2 0 0 1 -2 0c0,3 0,4 2,4l0 1 -2 0c0,1 1,0 1,0 1,0 3,1 3,1 2,0 3,0 4,0 9,1 26,3 34,0 1,0 2,0 3,-1 1,-1 1,-2 1,-3 1,-1 4,-14 4,-15 -1,0 -1,0 -1,1 -1,1 -6,2 -7,2l1 5 -3 0c-1,-1 -2,-4 -2,-5 0,1 -2,1 -3,1 0,0 -8,0 -8,-1 0,1 -1,1 -1,1l-1 4 -4 0 2 -5 -4 0c0,1 0,2 0,3 0,1 1,1 1,2l-4 0c0,-1 0,-3 0,-4l-1 -2c0,0 0,0 0,0 0,0 0,0 0,0 0,1 0,0 0,1l-10 -2 0 7 -4 0 0 -7 -9 -2 0 -3 9 1 0 -11c3,0 6,0 9,0 3,0 6,0 8,1 1,1 2,4 2,6 -1,3 -2,4 -5,5 1,0 1,0 1,0 0,0 1,0 1,1l1 0c0,0 0,0 0,0l6 1c0,0 0,0 0,0l6 -14 5 0c0,0 0,0 -1,0 -2,0 -2,0 -4,-1 -6,-2 -11,-3 -16,-4 -1,-1 -2,0 -3,0l-10 5c0,0 -1,0 -2,0l0 0c0,0 0,0 0,0l0 3 -8 0 0 19 -3 0c0,-2 0,-3 0,-5l0 -14c0,0 0,0 0,0 0,0 0,2 0,2l-5 3 5 1c0,0 0,3 0,3 -3,0 -5,-1 -8,-1 -1,-1 -6,-2 -7,-2l0 -4c0,1 5,2 6,2 1,-1 9,-4 9,-4l-8 0 0 -3 15 0 7 -3c1,-1 7,-3 7,-3 -1,-1 -10,-2 -11,-3 -14,-2 -36,-5 -49,-3 -3,0 -9,2 -6,5 3,4 11,6 16,8 1,0 2,1 2,1l0 4c-3,-2 -5,-2 -8,-4 -1,0 -2,0 -3,-1 0,0 0,0 0,0l0 -1z"/>
   <path class="fil1" d="M34 21l4 1c0,-1 4,-4 4,-4l13 -13c0,0 3,3 3,4 2,1 3,2 4,3 2,3 5,5 7,7l9 9c0,1 1,1 1,1 0,1 6,2 7,2l-31 -31c-1,1 -4,4 -5,5l-11 11c0,0 -5,5 -5,5z"/>
   <path class="fil1" d="M65 39c2,0 5,0 7,0 3,0 4,1 4,3 0,1 0,2 -1,3 -1,0 -2,1 -3,1 -2,0 -5,0 -7,0l0 -7zm-4 8l0 4 0 7 4 0 0 -7 0 -2c2,0 5,-1 7,0 1,0 2,0 2,1 0,0 1,2 1,2 0,0 0,0 0,0 0,0 0,0 0,0l1 2c0,1 0,3 0,4l4 0c0,-1 -1,-1 -1,-2 0,-1 0,-2 0,-3 0,-2 0,-3 -1,-4l-1 0c0,-1 -1,-1 -1,-1 0,0 0,0 -1,0 3,-1 4,-2 5,-5 0,-2 -1,-5 -2,-6 -2,-1 -5,-1 -8,-1 -3,0 -6,0 -9,0l0 11z"/>
   <path class="fil1" d="M32 71c0,0 0,0 0,0l17 17c2,2 4,5 6,6 0,0 2,-2 2,-3 1,-1 2,-2 3,-2l16 -16 -5 -1 -16 17c0,0 -1,-1 -1,-1 -1,-1 -1,-1 -1,-1 -1,-1 -2,-2 -3,-3 -1,-1 -3,-3 -4,-4 -3,-3 -7,-7 -9,-9l-5 0z"/>
   <path class="fil1" d="M88 49c0,0 4,-10 5,-10l3 10 -8 0zm-4 1l-1 3 -2 5 4 0 1 -4c0,0 1,0 1,-1 0,0 0,-1 0,-1l11 0c0,0 0,1 0,1 0,1 1,4 2,5l3 0 -1 -5c-1,0 -1,-3 -2,-3 0,0 0,0 0,-1l-2 -5c-1,-1 -2,-6 -3,-7l0 -1 -5 0 -6 14z"/>
   <path class="fil1" d="M7 54c0,0 1,1 2,2 3,3 7,2 8,2 0,0 0,0 0,0l1 0c3,-1 5,-2 6,-4 1,-2 1,-9 1,-11l0 -4 0 -3 -3 0c0,4 0,8 0,12 0,2 0,4 -2,6 -2,2 -7,2 -9,0 -1,-2 -1,-3 -1,-5 0,-5 0,-9 0,-13l-3 0 -1 0c0,1 0,12 0,14 0,2 1,2 1,4z"/>
   <path class="fil1" d="M48 39l0 0c0,0 0,0 0,0l0 14c0,2 0,3 0,5l3 0 0 -19 8 0 0 -3 -4 0 -15 0 0 3 8 0z"/>
   <path class="fil2" d="M7 54c0,-2 -1,-2 -1,-4 0,-2 0,-13 0,-14l1 0c0,0 -1,-1 -2,-1 -1,-1 -3,-2 -3,-4 -1,-1 0,-1 -1,-1 0,0 0,0 0,0 0,0 0,0 0,0 0,1 0,1 0,1l0 7c-1,2 -1,5 -1,7 0,3 0,4 2,6 2,1 5,2 5,3z"/>
   <path class="fil1" d="M29 41l0 9c0,3 1,6 4,7 2,1 7,1 10,1l0 -3 -5 0c-2,0 -4,-1 -5,-3 -1,-2 0,-13 0,-16l-4 0 0 5z"/>
   <path class="fil2" d="M100 50l1 0c2,0 5,-1 7,-2 3,-1 1,-4 -1,-5 -1,-1 -3,-2 -5,-3 -2,-1 -5,-2 -7,-3 1,1 2,6 3,7l2 5c0,1 0,1 0,1z"/>
   <path class="fil0" d="M65 46c2,0 5,0 7,0 1,0 2,-1 3,-1 1,-1 1,-2 1,-3 0,-2 -1,-3 -4,-3 -2,0 -5,0 -7,0l0 7z"/>
   <path class="fil0" d="M88 49l8 0 -3 -10c-1,0 -5,10 -5,10z"/>
   <path class="fil1" d="M36 65c0,-2 3,-2 3,0 0,3 -3,3 -3,1l0 -1zm-2 -2l0 5 2 0 0 -1c0,1 0,1 1,1 2,1 3,-1 3,-4 0,-1 -1,-1 -1,-2 -2,0 -3,1 -3,1l0 -3 -2 0 0 3z"/>
   <path class="fil1" d="M79 63c2,0 3,4 1,4 -2,1 -3,-3 -1,-4zm0 -1c-2,1 -3,2 -2,4 0,1 1,3 3,2 4,0 3,-7 -1,-6z"/>
   <path class="fil1" d="M45 66c0,1 0,1 -1,1 -1,0 -1,-1 -1,-1 -1,-1 0,-3 1,-3 2,0 2,2 1,3zm-4 -1c0,1 0,1 1,2 0,1 1,1 1,1 2,1 4,-1 4,-2 0,-5 -5,-5 -6,-2l0 0c0,0 0,1 0,1 0,0 0,0 0,0 0,0 0,0 0,0z"/>
   <path class="fil1" d="M65 63c2,0 2,4 1,4 -2,1 -3,-3 -1,-4zm0 -1c-4,1 -3,7 1,6 3,0 3,-6 -1,-6z"/>
   <path class="fil1" d="M55 65c1,1 1,2 0,2 -1,1 -3,-2 0,-2zm-3 2c0,1 2,2 3,1 0,0 0,0 1,0l0 0 1 0c0,-1 0,-4 0,-5 -1,-1 -4,-1 -5,0l1 1c1,-1 2,-1 2,0 -2,0 -3,1 -3,3z"/>
   <path class="fil1" d="M31 65c0,3 -1,2 -1,2 -1,-1 -1,-2 1,-2zm1 -3c-1,0 -1,0 -2,0l-2 1 0 1c2,-1 3,-1 3,0 -2,0 -3,1 -3,3 0,1 0,1 1,1 1,0 2,0 2,0 0,0 0,0 0,0l1 0 1 0c0,-1 0,-2 0,-3 0,-2 -1,-2 -1,-3z"/>
   <path class="fil1" d="M24 67c0,0 0,0 0,-1l0 -6 -2 0 0 8 5 0 0 -1 -3 0z"/>
   <path class="fil1" d="M59 68c1,0 1,0 1,0l2 0 0 -1c-2,0 -2,-1 -2,-4l2 0 0 -1 -2 0 0 -1 -1 0 0 1 -1 0 0 1 1 0c0,2 -1,4 0,5z"/>
   <path class="fil1" d="M84 67l-1 1c2,1 5,0 4,-2 0,-1 -1,-1 -2,-2 0,0 0,-1 0,-1 1,0 2,0 2,0l0 -1c-1,0 -2,0 -3,0 -1,1 -1,3 1,4 0,0 1,0 1,0 0,1 0,1 -1,1 -1,0 -1,0 -1,0z"/>
   <path class="fil1" d="M48 66l0 2 2 0 0 -2c0,-2 0,-2 2,-2 0,-1 0,-2 -1,-2 -1,0 -1,1 -1,1l-1 -1 -1 0 0 4z"/>
   <path class="fil1" d="M71 63l0 -1 -2 0 0 6 2 0c0,-2 -1,-5 2,-4 0,-1 0,-1 0,-2 -1,0 -2,1 -2,1z"/>
   <path class="fil3" d="M97 27c2,-1 3,1 3,2 1,4 -5,5 -5,1 -1,-2 1,-3 2,-3zm0 -1c-5,1 -3,8 1,7 5,-1 3,-8 -1,-7z"/>
   <path class="fil0" d="M65 63c-2,1 -1,5 1,4 1,0 1,-4 -1,-4z"/>
   <path class="fil0" d="M79 63c-2,1 -1,5 1,4 2,0 1,-4 -1,-4z"/>
   <polygon class="fil1" points="74,68 75,68 75,62 74,62 "/>
   <path class="fil4" d="M97 29l0 0 0 -1c0,0 1,0 1,1l0 0c0,0 0,0 -1,0zm-1 2l1 0 0 -1c1,0 1,1 1,1l1 0c0,0 0,-1 -1,-1 1,0 1,0 1,-1 0,-2 -2,-1 -3,-1l0 3z"/>
   <path class="fil0" d="M43 66l0 -1 2 0 0 1c1,-1 1,-3 -1,-3 -1,0 -2,2 -1,3z"/>
   <path class="fil0" d="M55 65c-3,0 -1,3 0,2 1,0 1,-1 0,-2z"/>
   <path class="fil1" d="M74 60c-1,0 0,2 1,1 1,0 0,-1 -1,-1z"/>
   <polygon class="fil5" points="43,35 43,35 43,35 "/>
  </g>
 </g>
</svg>
