<?xml version="1.0" encoding="UTF-8"?>
<!DOCTYPE svg PUBLIC "-//W3C//DTD SVG 1.0//EN" "http://www.w3.org/TR/2001/REC-SVG-20010904/DTD/svg10.dtd">
<!-- Creator: CorelDRAW X8 -->
<svg xmlns="http://www.w3.org/2000/svg" xml:space="preserve" width="553px" height="400px" version="1.0" style="shape-rendering:geometricPrecision; text-rendering:geometricPrecision; image-rendering:optimizeQuality; fill-rule:evenodd; clip-rule:evenodd" viewBox="0 0 288 208" xmlns:xlink="http://www.w3.org/1999/xlink">
 <defs>
  <style type="text/css">
   <![CDATA[
    .fil0 {fill:#E41F17}
    .fil1 {fill:black;fill-rule:nonzero}
    .fil2 {fill:#B31917;fill-rule:nonzero}
   ]]>
  </style>
 </defs>
 <g id="Capa_x0020_1">
  <metadata id="CorelCorpID_0Corel-Layer"/>
  <g id="_2486081802320">
   <g>
    <path class="fil0" d="M64 127c11,0 32,1 40,-1 23,-8 44,-10 68,-1 8,3 29,2 39,2 -1,-3 -2,-3 -6,-6 -28,-19 -65,-27 -98,-17 -4,1 -5,2 -9,2 3,-5 6,-11 10,-17l27 -46c2,-3 0,-3 3,-4l30 52c6,10 6,5 21,12 3,2 7,4 11,5l-38 -67c-3,-4 -5,-9 -8,-13 -3,-5 -15,-24 -16,-28 -3,1 -6,9 -10,15 -3,5 -5,10 -9,15l-46 80c-3,6 -6,11 -9,17z"/>
    <path class="fil0" d="M27 149c0,5 2,11 3,15l-9 0c1,-3 2,-4 2,-8 1,-3 1,-5 4,-7zm90 0c0,8 1,13 11,16 16,5 11,2 11,10 -5,1 -13,2 -18,-1 -1,3 -2,7 -4,9l-9 -46c-21,0 -16,-3 -19,9 -2,8 -4,16 -6,24 0,-1 0,-1 0,-1l-6 -28c-1,-6 1,-4 -17,-4 -2,7 -4,13 -5,20 -1,4 -2,7 -3,11 -1,7 -1,8 -3,10 -1,-4 -6,-16 -7,-21l-8 -20 -16 0c-1,3 -2,8 -4,12l-10 24c-1,3 -4,10 -4,13l14 0c0,-5 2,-6 3,-11l17 0c3,15 1,11 27,11 0,-6 4,-17 5,-25 1,-3 0,-5 3,-7l5 25c2,8 -1,7 15,7 3,0 3,-4 4,-7 1,-4 5,-23 7,-26 0,9 4,24 5,33 5,0 8,0 13,0 3,-1 36,8 36,-15 0,-18 -23,-13 -23,-21 0,-8 16,-3 18,-2 2,-3 4,-7 4,-10 -15,-7 -36,-1 -36,11z"/>
    <path class="fil0" d="M178 149c1,5 3,11 4,15l-9 0c1,-3 1,-5 2,-7l3 -8zm-27 37l14 0c1,-2 3,-8 4,-11l17 0c1,5 3,6 3,11l36 0 0 -23 -24 0 0 13 -15 -39 -15 0c-2,3 -4,8 -5,11l-10 26c-2,4 -3,8 -5,12z"/>
    <path class="fil0" d="M228 138c0,13 -2,22 3,22l40 0c5,0 3,-9 3,-22 0,-2 0,-2 -3,-2l-40 0c-2,0 -3,0 -3,2z"/>
    <polygon class="fil0" points="228,186 274,186 274,163 228,163 "/>
    <path class="fil0" d="M201 138c0,26 -5,22 21,22 5,0 3,-9 3,-22 0,-4 -9,-2 -21,-2 -3,0 -3,0 -3,2z"/>
   </g>
   <path class="fil1" d="M1 208l11 0 0 -4 -7 0 0 -12 -4 0 0 16zm33 0l4 0 -6 -16 -4 0 -6 16 5 0 1 -3 4 0 2 3zm-3 -7l-2 0 1 -2 1 2zm18 7l7 0c1,0 3,0 4,-1 1,-1 1,-3 1,-4 0,-2 0,-3 -1,-4l0 0c-1,0 -1,0 -1,0 0,-1 0,-2 0,-2 0,-1 0,-2 -1,-3 -1,-1 -2,-2 -3,-2l-6 0 0 16zm4 -4l0 -3 3 0c1,0 1,1 1,2 0,1 0,1 -1,1l-3 0zm0 -6l0 -2 2 0c0,0 0,1 0,1 0,0 0,1 0,1l-2 0zm27 -6c-5,0 -8,4 -8,8 0,5 3,8 8,8 4,0 8,-3 8,-8 0,-4 -4,-8 -8,-8zm0 13c-3,0 -4,-2 -4,-5 0,-2 1,-4 4,-4 2,0 4,2 4,4 0,3 -2,5 -4,5zm27 -4c2,-1 2,-3 2,-4 0,-1 0,-2 -1,-3 -1,-1 -2,-2 -3,-2l-6 0 0 16 4 0 0 -7 0 0 6 7 4 0 -6 -7zm-4 -5l2 0c0,0 1,1 1,1 0,0 -1,1 -1,1l-2 0 0 -2zm31 12l4 0 -6 -16 -3 0 -6 16 4 0 1 -3 5 0 1 3zm-3 -7l-1 0 0 -2 1 2zm19 7l4 0 0 -12 3 0 0 -4 -10 0 0 4 3 0 0 12zm25 -16c-4,0 -8,4 -8,8 0,5 4,8 8,8 5,0 9,-3 9,-8 0,-4 -4,-8 -9,-8zm0 13c-2,0 -4,-2 -4,-5 0,-2 2,-4 4,-4 3,0 5,2 5,4 0,3 -2,5 -5,5zm28 -4c1,-1 2,-3 2,-4 0,-1 -1,-2 -1,-3 -1,-1 -2,-2 -3,-2l-6 0 0 16 4 0 0 -7 0 0 5 7 5 0 -6 -7zm-4 -5l2 0c0,0 0,1 0,1 0,0 0,1 0,1l-2 0 0 -2zm21 12l4 0 0 -16 -4 0 0 16zm24 -16c-4,0 -8,4 -8,8 0,5 4,8 8,8 5,0 8,-3 8,-8 0,-4 -3,-8 -8,-8zm0 13c-2,0 -4,-2 -4,-5 0,-2 2,-4 4,-4 3,0 4,2 4,4 0,3 -1,5 -4,5zm25 3c1,0 2,0 3,0 1,-1 2,-1 2,-2 1,-1 1,-2 1,-3 0,-1 -1,-3 -2,-4l0 0c-1,0 -2,0 -3,-1 0,0 -1,0 -1,0 -1,0 -2,0 -2,-1 0,0 0,0 1,-1 0,0 0,0 1,0 1,0 1,0 3,2l3 -3c-2,-2 -4,-2 -5,-3 0,0 -1,0 -1,0 -1,0 -2,1 -3,1l0 0c-1,0 -1,1 -2,2 0,0 -1,1 -1,2 0,2 1,3 3,4 1,1 3,1 3,1 1,0 2,1 2,1 0,1 0,1 0,1 -1,0 -1,1 -2,1 0,0 0,-1 0,-1 -1,0 -2,0 -4,-1l-2 2c2,2 3,3 5,3 0,0 1,0 1,0z"/>
   <path class="fil2" d="M283 135c1,0 2,0 3,1 0,0 1,1 1,2 1,0 1,1 1,2 0,1 0,1 -1,2 0,1 -1,1 -1,2 -1,0 -2,0 -3,0 0,0 -1,0 -2,0 -1,-1 -1,-1 -2,-2 0,-1 0,-1 0,-2 0,-1 0,-2 0,-2 1,-1 1,-2 2,-2 1,-1 2,-1 2,-1zm0 1c0,0 -1,0 -1,1 -1,0 -2,0 -2,1 0,1 0,1 0,2 0,0 0,1 0,2 0,0 1,1 1,1 1,0 2,1 2,1 1,0 2,-1 2,-1 1,0 1,-1 2,-1 0,-1 0,-2 0,-2 0,-1 0,-1 -1,-2 0,-1 0,-1 -1,-1 0,-1 -1,-1 -2,-1zm-2 6l0 -5 1 0c1,0 2,0 2,0 0,0 0,1 1,1 0,0 0,0 0,0 0,0 0,1 0,1 0,0 0,0 0,1 0,0 -1,0 -1,0 0,0 0,0 0,0 0,0 0,1 1,1 0,0 0,0 0,0l0 1 -1 0 0 -1c0,0 -1,0 -1,-1 0,0 0,0 -1,0l0 0 0 2 -1 0zm1 -2l1 0c0,0 1,-1 1,-1 0,0 0,0 0,0 0,0 0,0 0,0 0,0 0,0 0,0 0,-1 0,-1 0,-1 0,0 -1,0 -1,0l-1 0 0 2z"/>
  </g>
 </g>
</svg>
