<?xml version="1.0" encoding="UTF-8"?>
<!DOCTYPE svg PUBLIC "-//W3C//DTD SVG 1.0//EN" "http://www.w3.org/TR/2001/REC-SVG-20010904/DTD/svg10.dtd">
<!-- Creator: CorelDRAW X8 -->
<svg xmlns="http://www.w3.org/2000/svg" xml:space="preserve" width="922px" height="400px" version="1.0" style="shape-rendering:geometricPrecision; text-rendering:geometricPrecision; image-rendering:optimizeQuality; fill-rule:evenodd; clip-rule:evenodd"
viewBox="0 0 2058 893"
 xmlns:xlink="http://www.w3.org/1999/xlink">
 <defs>
  <style type="text/css">
   <![CDATA[
    .fil1 {fill:#325A90}
    .fil3 {fill:#335B90}
    .fil2 {fill:#F8B601}
    .fil0 {fill:#FAC126}
    .fil4 {fill:#325A90;fill-rule:nonzero}
   ]]>
  </style>
 </defs>
 <g id="Capa_x0020_1">
  <metadata id="CorelCorpID_0Corel-Layer"/>
  <g id="_2486081809200">
   <path class="fil0" d="M1467 69c-140,17 -281,90 -345,163 -137,157 32,227 205,205 136,-17 249,-71 343,-162 104,-101 56,-238 -203,-206z"/>
   <path class="fil1" d="M442 195l-242 0 -3 87 132 2c-39,97 -211,86 -227,-45 -12,-97 71,-153 156,-134 43,9 37,25 65,40 29,-7 66,-25 84,-44 -34,-81 -179,-128 -286,-76 -224,109 -116,475 153,415 94,-22 198,-120 168,-245z"/>
   <path class="fil1" d="M500 443l249 3 1 -98c-28,-4 -55,-2 -83,-2 -41,1 -52,8 -54,-34 -3,-77 40,-23 136,-44l1 -95c-94,-15 -138,27 -137,-37 1,-62 50,-16 137,-36l0 -94c-33,-8 -216,-8 -248,-1l-2 438z"/>
   <path class="fil2" d="M1899 187c-50,-5 -95,-22 -149,-17 -23,46 -11,59 -46,103 -24,30 -49,46 -73,74 128,7 204,-12 292,0 -8,71 -192,70 -251,70 -44,0 -128,-24 -153,-7 60,51 479,49 512,-113 23,-115 -179,-185 -295,-177 7,32 -5,23 28,31 30,7 102,5 135,36z"/>
   <path class="fil1" d="M808 445l244 1c8,-32 7,-67 1,-98l-129 -3c-14,-86 16,-276 -8,-338 -26,-10 -74,-6 -108,-4l0 442z"/>
   <path class="fil1" d="M1216 804c19,-63 -34,-216 70,-207 49,4 49,44 50,87 0,135 -13,126 50,122 0,-46 -3,-105 1,-149 5,-53 31,-68 89,-56 40,41 25,132 27,206 55,1 51,7 50,-52 -1,-83 19,-217 -106,-207 -44,3 -52,26 -77,44 -28,-54 -88,-58 -147,-16 -16,-26 -3,-28 -50,-17 -7,22 -7,222 0,247l43 -2z"/>
   <path class="fil1" d="M169 591c113,-35 150,142 45,166 -113,27 -158,-132 -45,-166zm-60 181c46,22 66,55 139,27 43,-16 76,-59 80,-116 8,-136 -150,-189 -216,-104 -18,-24 -11,-28 -54,-21 -2,65 -1,131 -1,197 0,149 -16,140 45,136 12,-36 4,-80 7,-119z"/>
   <path class="fil1" d="M720 691c-18,-119 154,-135 169,-33 18,121 -153,135 -169,33zm165 -114c-80,-82 -226,-20 -216,106 4,63 32,99 81,116 87,31 118,-21 140,-29 0,44 -6,42 45,36 12,-27 11,-213 2,-251l-40 -2 -12 24z"/>
   <path class="fil1" d="M1727 589c110,-26 140,149 34,169 -114,22 -150,-142 -34,-169zm93 -11c-86,-79 -212,-23 -214,92 -2,124 122,175 214,106 13,20 -3,36 57,29 0,-51 7,-212 -5,-250 -42,-3 -33,-2 -52,23z"/>
   <path class="fil1" d="M426 808c27,-72 -40,-237 94,-210 50,10 44,60 44,114 0,70 -20,97 45,95 15,-43 9,-186 -13,-220 -52,-82 -157,-14 -163,-12l-4 -109 -45 0 -2 310c0,36 11,32 44,32z"/>
   <path class="fil3" d="M1047 576c-8,-12 -31,-45 -50,-13 -8,13 -3,61 -3,79 0,29 -8,148 5,161 8,7 28,8 36,3 15,-9 9,-5 10,-29 1,-27 -1,-59 -1,-86 1,-83 12,-76 73,-97l-1 -42c-36,-5 -44,6 -69,24z"/>
   <path class="fil4" d="M1983 512c13,0 25,3 37,9 12,7 21,16 28,28 7,12 10,24 10,37 0,13 -3,26 -10,37 -6,12 -16,21 -27,28 -12,7 -25,10 -38,10 -13,0 -25,-3 -37,-10 -12,-7 -21,-16 -27,-28 -7,-11 -10,-24 -10,-37 0,-13 3,-25 10,-37 7,-12 16,-21 28,-28 11,-6 24,-9 36,-9zm0 14c-10,0 -20,3 -29,8 -10,5 -17,13 -22,22 -6,10 -9,20 -9,30 0,11 3,21 8,30 6,10 13,17 23,22 9,6 19,8 29,8 11,0 21,-2 30,-8 10,-5 17,-12 22,-22 6,-9 8,-19 8,-30 0,-10 -2,-20 -8,-30 -5,-9 -13,-17 -22,-22 -9,-5 -19,-8 -30,-8zm-33 100l0 -79 16 0c15,0 23,0 25,0 5,1 9,2 12,4 3,1 6,4 8,7 2,4 3,7 3,11 0,6 -2,11 -6,15 -4,4 -9,7 -16,8 3,1 5,2 6,3 1,1 3,3 5,6 1,0 3,4 6,9l10 16 -20 0 -7 -13c-4,-8 -8,-14 -11,-16 -3,-2 -7,-3 -11,-3l-4 0 0 32 -16 0zm16 -45l6 0c10,0 15,0 18,-1 2,-1 4,-2 5,-4 1,-1 2,-3 2,-6 0,-2 -1,-4 -2,-6 -1,-1 -3,-2 -6,-3 -2,-1 -8,-1 -17,-1l-6 0 0 21z"/>
  </g>
 </g>
</svg>
