<?xml version="1.0" encoding="UTF-8"?>
<!DOCTYPE svg PUBLIC "-//W3C//DTD SVG 1.0//EN" "http://www.w3.org/TR/2001/REC-SVG-20010904/DTD/svg10.dtd">
<!-- Creator: CorelDRAW X8 -->
<svg xmlns="http://www.w3.org/2000/svg" xml:space="preserve" width="949px" height="400px" version="1.0" style="shape-rendering:geometricPrecision; text-rendering:geometricPrecision; image-rendering:optimizeQuality; fill-rule:evenodd; clip-rule:evenodd"
viewBox="0 0 1560 657"
 xmlns:xlink="http://www.w3.org/1999/xlink">
 <defs>
  <style type="text/css">
   <![CDATA[
    .fil0 {fill:#008FB7}
    .fil1 {fill:#191813}
   ]]>
  </style>
 </defs>
 <g id="Capa_x0020_1">
  <metadata id="CorelCorpID_0Corel-Layer"/>
  <g id="_2486079584192">
   <path class="fil0" d="M0 296l0 74c0,86 34,231 63,287 20,-13 124,-92 135,-95 -1,-11 -17,-36 -25,-73 -28,-143 10,-311 50,-446 3,-12 11,-33 12,-43 -14,7 -28,16 -42,24 -14,8 -27,16 -42,24l-124 74 -5 11c-1,5 -2,10 -3,13 -10,48 -19,96 -19,150z"/>
   <path class="fil0" d="M370 340c0,103 18,190 51,282 4,13 9,24 14,35l98 -69c6,-5 10,-7 17,-12 6,-5 11,-9 17,-11l-23 -114c-3,-20 -5,-42 -7,-61 -2,-11 0,-22 -1,-34 -5,-51 -3,-71 3,-126 6,-57 26,-143 48,-195 4,-10 12,-25 15,-35 -14,3 -198,119 -199,121 -6,8 -19,74 -21,86 -7,42 -12,86 -12,133z"/>
   <path class="fil0" d="M187 348c0,62 7,124 19,183 1,5 4,25 6,28 5,11 -4,0 21,13 31,15 62,28 92,43 15,8 30,14 46,22 9,5 41,20 49,20 -2,-8 -32,-55 -51,-124 -25,-94 -27,-216 -11,-315 19,-122 33,-89 -9,-132 -5,-5 -9,-9 -14,-14 -8,-7 -10,-8 -17,-15 -21,-17 -39,-45 -62,-57 -1,10 -10,26 -13,37 -38,103 -56,197 -56,311z"/>
   <path class="fil1" d="M758 296c-6,-5 -15,-19 -19,-26l-36 -57c-4,-5 -6,-8 -10,-14 -3,-6 -4,-12 -12,-12l-74 0 0 230 71 -3 0 -105c5,3 17,20 21,27l50 71c13,19 14,13 77,13l0 -235 -74 0c0,13 3,13 3,26l3 85z"/>
   <path class="fil1" d="M1473 362c-24,0 -24,-26 -24,-43 0,-34 50,-34 50,8 0,17 -9,35 -26,35zm-24 47c25,0 27,1 48,-13l0 32c-16,8 -37,15 -43,-8l-66 0c7,83 172,62 172,10l0 -179 -56 0 0 13c-8,-6 -7,-9 -18,-13 -44,-17 -109,0 -109,74 0,23 6,44 19,58 9,12 33,26 53,26z"/>
   <path class="fil1" d="M1277 383l-18 -3c-7,-29 2,-21 30,-30 10,-3 4,-3 15,-4 -1,18 -8,37 -27,37zm-79 -79l61 0c1,-14 11,-19 23,-18 7,1 18,4 20,11 0,1 0,1 0,2 2,21 -31,8 -70,19 -48,15 -44,35 -44,65 0,11 8,21 15,27 16,14 60,11 79,4 13,-4 17,-9 27,-15l0 18 71 0c-6,-6 -9,-10 -10,-21 -5,-62 17,-118 -25,-142 -26,-14 -145,-30 -147,50z"/>
   <path class="fil1" d="M934 290c36,0 36,87 -2,87 -39,0 -36,-87 2,-87zm-97 37c0,120 129,104 160,81 54,-39 32,-163 -55,-163l-16 0c-49,0 -89,32 -89,82z"/>
   <path class="fil1" d="M1111 338c-7,-6 -12,-30 -15,-40 -4,-13 -9,-35 -14,-45l-66 0c1,11 37,110 42,125 15,45 0,36 82,36 10,0 12,-18 18,-37 5,-14 9,-27 14,-41 5,-14 9,-27 14,-42 5,-14 9,-32 15,-43l-66 0 -24 87z"/>
  </g>
 </g>
</svg>
