<?xml version="1.0" encoding="UTF-8"?>
<!DOCTYPE svg PUBLIC "-//W3C//DTD SVG 1.0//EN" "http://www.w3.org/TR/2001/REC-SVG-20010904/DTD/svg10.dtd">
<!-- Creator: CorelDRAW X8 -->
<svg xmlns="http://www.w3.org/2000/svg" xml:space="preserve" width="330px" height="400px" version="1.0" style="shape-rendering:geometricPrecision; text-rendering:geometricPrecision; image-rendering:optimizeQuality; fill-rule:evenodd; clip-rule:evenodd" viewBox="0 0 59 71" xmlns:xlink="http://www.w3.org/1999/xlink">
 <defs>
  <style type="text/css">
   <![CDATA[
    .fil0 {fill:#004290}
   ]]>
  </style>
 </defs>
 <g id="Capa_x0020_1">
  <metadata id="CorelCorpID_0Corel-Layer"/>
  <path class="fil0" d="M35 8c1,0 4,1 5,2 5,2 10,8 11,13l-16 0 0 -15zm21 44c1,0 1,0 1,0 1,0 1,1 1,1 1,0 1,1 1,1 0,0 0,1 -1,1 0,1 0,1 0,1 -1,0 -1,0 -2,0 0,0 0,0 -1,0 0,0 0,0 -1,-1 0,0 0,-1 0,-1 0,0 0,-1 0,-1 1,0 1,-1 1,-1 1,0 1,0 1,0zm0 0c0,0 0,0 -1,0 0,1 0,1 0,1 0,0 -1,1 -1,1 0,0 1,1 1,1 0,0 0,1 0,1 1,0 1,0 1,0 1,0 1,0 1,0 1,0 1,-1 1,-1 0,0 0,-1 0,-1 0,0 0,-1 0,-1 0,0 0,0 -1,-1 0,0 0,0 -1,0zm-1 3l0 -2 1 0c0,0 1,0 1,0 0,0 0,0 0,0 0,0 0,0 0,0 0,0 0,0 0,1 0,0 0,0 0,0 0,0 0,0 0,0 0,0 0,0 0,0 0,0 0,0 0,1 0,0 0,0 0,0l0 0 0 0 0 0c-1,0 -1,-1 -1,-1 0,0 0,0 0,0l0 0 0 1 -1 0zm1 -1l0 0c0,0 0,0 1,0 0,0 0,0 0,0 0,0 0,0 0,0 0,-1 0,-1 0,-1 0,0 0,0 0,0 -1,0 -1,0 -1,0l0 0 0 1zm-36 8c1,1 2,4 2,5l-1 0 -2 0 -1 0 2 -5zm-4 9c1,-1 1,-2 2,-3l5 0 1 3 2 0 -4 -11 -3 0 -5 11 2 0zm19 -9l2 5 -4 -1 2 -4zm-2 6l5 0 1 3 3 0 -5 -11 -3 0 -5 11 3 0 1 -3zm-30 -6c2,0 5,-1 5,1 0,2 -3,2 -6,2l1 -3zm6 4c1,-1 2,-1 2,-3 0,-2 -1,-3 -2,-3 -1,0 -8,0 -9,0l0 11 2 0 0 -4c1,0 5,-1 5,0 2,1 1,3 2,4 0,0 1,0 2,0 -1,-2 0,-5 -2,-5zm37 -4c1,1 4,8 4,9l2 0c1,-1 4,-8 4,-9l0 9 2 0 0 -11 -3 0c-1,2 -3,8 -4,8l-4 -8 -3 0 0 11 2 0 0 -9zm-38 -39c1,-4 4,-8 6,-10 2,-2 6,-5 10,-6l0 16 -16 0zm20 -23c-7,0 -13,3 -17,6 -12,9 -14,27 -6,39 1,1 4,5 5,5 -3,-7 -5,-10 -4,-19l18 0 0 25 4 0 0 -56zm20 51c7,-6 14,-19 9,-33 -1,-2 -3,-5 -4,-7 -5,-6 -14,-11 -22,-11l0 56 4 0 0 -25 18 0c0,4 0,8 -1,11 -1,4 -4,8 -4,9z"/>
 </g>
</svg>
