<?xml version="1.0" encoding="UTF-8"?>
<!DOCTYPE svg PUBLIC "-//W3C//DTD SVG 1.0//EN" "http://www.w3.org/TR/2001/REC-SVG-20010904/DTD/svg10.dtd">
<!-- Creator: CorelDRAW X8 -->
<svg xmlns="http://www.w3.org/2000/svg" xml:space="preserve" width="1386px" height="400px" version="1.0" style="shape-rendering:geometricPrecision; text-rendering:geometricPrecision; image-rendering:optimizeQuality; fill-rule:evenodd; clip-rule:evenodd"
viewBox="0 0 1014 293"
 xmlns:xlink="http://www.w3.org/1999/xlink">
 <defs>
  <style type="text/css">
   <![CDATA[
    .fil7 {fill:#121212}
    .fil2 {fill:#131313}
    .fil3 {fill:#161616}
    .fil1 {fill:#191919}
    .fil6 {fill:#D8232A}
    .fil0 {fill:#D92128}
    .fil5 {fill:#D92229}
    .fil4 {fill:#D9242B}
    .fil8 {fill:#DA282E}
    .fil9 {fill:#161616;fill-rule:nonzero}
   ]]>
  </style>
 </defs>
 <g id="Capa_x0020_1">
  <metadata id="CorelCorpID_0Corel-Layer"/>
  <g id="_2486058521936">
   <path class="fil0" d="M165 1l0 -1c-24,0 -46,8 -69,15 -9,3 -18,8 -27,14l-13 8c-10,6 -30,27 -35,36 -3,6 -8,12 -11,19 -6,16 -10,26 -10,47 0,30 5,46 16,69 3,5 11,20 15,21l5 5c0,6 6,3 7,9 3,0 6,2 6,5 3,0 6,2 8,4l21 13c16,7 15,7 32,13 4,1 1,0 3,2 6,3 30,8 32,8 9,4 33,5 47,4l0 -74c-11,-1 -21,-2 -30,-3 -8,-1 -5,-2 -13,-3 -8,-1 -7,-3 -12,-4 -24,-7 -60,-32 -71,-56 -4,-8 -3,-11 -5,-15 -14,-38 8,-82 40,-108 13,-11 47,-27 64,-28z"/>
   <path class="fil0" d="M468 174c-8,10 -26,21 -38,28 -5,2 -5,2 -6,4 43,-1 97,-44 98,-90 0,-20 -3,-28 -10,-46 -2,-4 -7,-14 -10,-17 -1,-1 -2,-2 -3,-4 -1,-1 -3,-2 -4,-3l-3 -3c-10,-10 -6,-5 -11,-9 -3,-2 -5,-3 -8,-5 -26,-16 -57,-24 -86,-23l0 41c70,2 133,53 81,127z"/>
   <path class="fil1" d="M155 140l6 0 29 0 5 0 0 5 0 26 -40 0 0 -26 0 -5zm40 -19l-61 0 0 70 81 0 0 -191 -20 0 0 121z"/>
   <path class="fil2" d="M347 143c0,-3 -1,-2 4,-3l41 1 0 50 18 0 0 -70 -64 0 0 -119 -18 0 0 190 19 0 0 -49z"/>
   <path class="fil2" d="M254 0c-1,7 -1,2 3,7 2,2 2,4 5,5l0 32 -27 71 73 0 -24 -65c-2,-3 -3,-2 -3,-5 0,-1 0,-4 0,-10 0,-10 0,-25 -1,-34l-26 -1z"/>
   <path class="fil3" d="M232 127c0,16 -1,50 0,64l78 0 0 -18 -59 0 0 -31 58 -1c1,-6 1,-13 1,-20 -23,-1 -55,0 -78,0l0 6z"/>
   <path class="fil4" d="M431 243c5,1 4,1 7,2l0 10c-3,1 -1,1 -7,2l0 -14zm26 2l9 0 0 43 17 0 0 -43 11 0 0 -11c-14,-2 -24,-2 -39,-2l-1 8c-3,-6 -9,-10 -41,-8l0 55 18 0 1 -18c1,1 8,18 8,19l19 -1c-1,-3 -4,-6 -6,-10 -1,-2 -1,-3 -2,-5 -3,-5 -3,-7 -3,-8 2,-3 9,-2 9,-19z"/>
   <path class="fil3" d="M761 250l-2 -18 -21 1c-1,1 -7,52 -7,57l17 0 2 -26 6 26 14 0 6 -29 4 29 17 0 -6 -58 -21 0 -4 18 -5 0z"/>
   <path class="fil5" d="M382 245c0,2 0,3 1,3 0,1 1,2 1,5 1,6 1,15 -2,20 -2,2 -1,0 -2,2 -2,0 -4,1 -6,-1l-1 -2c-3,-4 -3,-13 -2,-18 2,-7 3,-9 11,-9zm-25 35c13,13 35,8 41,1 10,-10 9,-31 3,-38l-4 -5c-9,-7 -23,-8 -32,-3 -8,5 -6,3 -12,9 -6,8 -4,28 4,36z"/>
   <path class="fil4" d="M346 255l-27 0 -1 12 8 0c0,2 0,1 -1,3 -2,6 2,-1 0,1l-1 2c-1,1 -2,2 -5,2 -1,0 -4,-1 -5,-2 -1,-1 -2,-3 -2,-5 -2,-11 -1,-16 5,-22 6,-3 6,1 7,1l3 3c7,-1 10,-2 17,-3 0,-6 -4,-8 -9,-11 -8,-5 -18,-6 -28,-2 -2,1 -1,0 -2,1 -3,2 -8,6 -10,10 -3,5 -4,12 -4,18 0,6 3,11 6,16 9,11 29,10 35,7 3,-1 5,-3 8,-5 5,-4 7,-19 6,-26z"/>
   <polygon class="fil2" points="661,266 668,266 668,290 689,290 689,232 685,232 669,232 669,252 661,253 661,232 642,231 641,287 641,291 661,290 "/>
   <path class="fil0" d="M221 275l0 -29c4,-1 7,2 9,5 2,4 2,13 0,17 -1,4 -5,7 -9,7zm-19 -43c-1,12 -1,46 1,58 26,0 45,1 48,-28 1,-5 -2,-15 -6,-19 -11,-12 -27,-14 -43,-11z"/>
   <path class="fil1" d="M894 254l1 16 -6 0 5 -16zm-27 36l18 0 0 -8 14 1 1 7 17 0 -13 -58 -21 0c-3,9 -16,50 -16,58z"/>
   <polygon class="fil3" points="695,236 696,290 728,290 728,276 712,275 712,267 726,266 726,253 712,253 712,246 728,245 728,232 696,232 "/>
   <path class="fil6" d="M513 287c8,0 17,2 24,0 3,-1 6,-3 8,-5 2,-2 4,-3 5,-7 2,-10 -2,-13 -6,-17 -6,-6 -12,-2 -11,-12 12,-2 13,2 16,4l-1 -16c-4,0 -18,-6 -27,1 -14,11 -9,22 -1,26 12,7 9,9 9,13 -11,0 -13,-1 -17,-3l1 16z"/>
   <polygon class="fil0" points="274,253 273,245 289,245 289,232 256,232 256,288 289,288 289,275 273,275 273,267 286,266 289,266 288,253 "/>
   <path class="fil1" d="M635 274c-8,0 -9,4 -17,0 -7,-4 -6,-21 -1,-26l3 -1c8,-5 6,1 14,1 0,-21 1,-8 0,-16 -5,1 -17,-3 -31,7 -7,4 -11,14 -10,25 0,9 7,19 14,22 4,2 9,4 14,4 7,0 9,-1 13,-4l1 -12z"/>
   <path class="fil3" d="M862 274c-2,4 -20,6 -20,-13 0,-13 10,-13 21,-12l0 -15 -17 -1c-16,3 -25,19 -24,33 2,24 22,25 40,24l0 -16z"/>
   <polygon class="fil3" points="925,291 955,291 955,276 942,276 942,233 925,233 "/>
   <path class="fil3" d="M565 292l8 -18c2,-3 19,-45 20,-46l-14 1 -25 56c-2,6 -3,5 -3,7l14 0z"/>
   <path class="fil7" d="M801 238c0,16 0,37 1,52l17 0 0 -58 -17 0 -1 6z"/>
   <polygon class="fil8" points="497,259 507,259 509,233 496,233 "/>
   <path class="fil9" d="M984 174c5,0 10,1 15,4 5,2 8,6 11,10 2,5 4,10 4,15 0,5 -2,10 -4,15 -3,5 -6,8 -11,11 -5,2 -10,4 -15,4 -5,0 -10,-2 -14,-4 -5,-3 -9,-6 -11,-11 -3,-5 -4,-10 -4,-15 0,-5 1,-10 4,-15 3,-4 6,-8 11,-10 4,-3 9,-4 14,-4zm0 6c-4,0 -8,1 -11,3 -4,2 -7,5 -9,8 -2,4 -3,8 -3,12 0,4 1,8 3,12 2,4 5,7 9,9 3,2 7,3 11,3 5,0 8,-1 12,-3 4,-2 7,-5 9,-9 2,-4 3,-8 3,-12 0,-4 -1,-8 -3,-12 -2,-3 -5,-6 -9,-8 -4,-2 -8,-3 -12,-3zm-13 39l0 -31 6 0c6,0 10,0 10,0 2,0 4,1 5,1 1,1 2,2 3,3 1,2 1,3 1,5 0,2 0,4 -2,5 -1,2 -3,3 -6,3 1,1 2,1 2,2 1,0 1,1 2,2 0,0 1,1 3,4l3 6 -8 0 -2 -5c-2,-3 -3,-6 -5,-7 -1,0 -2,-1 -4,-1l-2 0 0 13 -6 0zm6 -18l3 0c4,0 6,0 7,0 1,0 1,-1 2,-2 0,0 1,-1 1,-2 0,-1 -1,-2 -1,-2 -1,-1 -1,-1 -2,-2 -1,0 -3,0 -7,0l-3 0 0 8z"/>
  </g>
 </g>
</svg>
