<?xml version="1.0" encoding="UTF-8"?>
<!DOCTYPE svg PUBLIC "-//W3C//DTD SVG 1.0//EN" "http://www.w3.org/TR/2001/REC-SVG-20010904/DTD/svg10.dtd">
<!-- Creator: CorelDRAW X8 -->
<svg xmlns="http://www.w3.org/2000/svg" xml:space="preserve" width="792px" height="400px" version="1.0" style="shape-rendering:geometricPrecision; text-rendering:geometricPrecision; image-rendering:optimizeQuality; fill-rule:evenodd; clip-rule:evenodd"
viewBox="0 0 2218 1121"
 xmlns:xlink="http://www.w3.org/1999/xlink">
 <defs>
  <style type="text/css">
   <![CDATA[
    .fil1 {fill:#1B286E}
    .fil0 {fill:#1C2A6C}
   ]]>
  </style>
 </defs>
 <g id="Capa_x0020_1">
  <metadata id="CorelCorpID_0Corel-Layer"/>
  <g id="_2486081814224">
   <path class="fil0" d="M1891 799l-1603 0c-89,0 -120,-39 -81,-115 15,-31 75,-108 100,-139l309 -395c104,-139 167,-115 263,-116l1023 -6c99,0 89,96 89,149l0 488c-1,58 26,134 -100,134zm-1592 27l1581 0c36,0 73,-4 97,-19 22,-15 41,-40 41,-75l0 -610c0,-73 -53,-122 -116,-122l-1015 7c-88,0 -152,-14 -234,58 -26,23 -359,454 -392,496 -36,46 -78,92 -94,156 -19,82 50,109 132,109z"/>
   <path class="fil0" d="M344 688c18,11 4,9 28,11 5,-20 153,-192 176,-218l136 -163c16,-19 30,-40 48,-52 0,65 -15,266 -6,314 3,15 8,24 17,24 17,0 54,-54 76,-79 12,-13 25,-28 36,-42l106 -127c25,-28 46,-56 70,-84 1,98 -10,221 -6,314 1,18 6,18 29,18l5 -354c0,-13 -4,-13 -11,-23 -27,3 -30,17 -44,34l-250 299c4,-115 6,-228 6,-344 -29,-6 -18,-9 -60,41 -18,21 -31,40 -50,61l-204 244c-30,38 -78,90 -102,126z"/>
   <path class="fil1" d="M0 1115l39 0 10 -88c4,14 4,17 8,31 1,8 4,20 7,32 7,28 -1,25 52,25l28 -111c0,94 -12,111 28,111 13,0 17,-4 17,-17l0 -155c0,-22 -15,-17 -50,-17 -21,0 -19,24 -28,61 -5,21 -15,50 -17,72l-6 -15c-3,-8 -2,-8 -5,-18 -29,-119 -13,-100 -83,-100l0 189z"/>
   <path class="fil0" d="M1109 610c20,-13 52,-58 71,-79l141 -170c15,-19 54,-73 71,-84l0 322 28 0 0 -355c0,-62 -82,55 -99,74l-198 240c-22,28 -35,21 -14,52z"/>
   <path class="fil0" d="M1497 549l0 -322 -28 0 0 350c0,12 4,16 17,16 18,0 68,-69 81,-85l230 -286 -16 -12 -284 339z"/>
   <path class="fil1" d="M288 976c1,1 2,2 2,3 1,2 2,3 2,4l19 59 -45 0c8,-15 18,-48 22,-66zm-88 139l44 0c6,-13 10,-22 11,-39l72 0c2,21 5,14 6,39l44 0c-2,-24 -56,-168 -66,-189l-45 0c-4,20 -10,30 -16,45l-50 144z"/>
   <path class="fil1" d="M433 1115l38 0 33 -90c8,-25 28,-72 28,-99l-44 0 -33 128c-3,-5 -3,-3 -6,-11l-33 -117 -44 0c3,41 49,139 61,189z"/>
   <path class="fil1" d="M1065 1115c38,-1 28,-14 27,-56 -2,-97 50,-59 50,-39l0 95 28 0c0,-57 -11,-117 33,-117 34,0 22,56 22,117l28 0c0,-117 11,-139 -61,-139 -13,0 -16,9 -28,17 -14,-20 -21,-17 -49,-17 -14,0 -17,9 -28,17l0 -17 -22 0 0 139z"/>
   <path class="fil1" d="M699 1115c40,0 33,7 33,-84l83 0 0 -27 -83 0 0 -50 94 0 0 -28 -127 0 0 189z"/>
   <path class="fil1" d="M1303 1076c0,-25 35,-18 56,-28 0,17 0,31 -7,39 -1,2 -3,3 -5,4 -16,6 -49,10 -44,-15zm-22 -56c51,-1 0,-22 61,-22 13,0 17,4 17,17 0,31 -57,5 -79,38 -19,27 4,67 34,67 31,0 32,-19 55,-10 24,10 8,11 34,5l-4 -19c-9,-26 -7,-13 -7,-48 0,-52 -17,-89 -74,-74 -24,7 -36,18 -37,46z"/>
   <path class="fil1" d="M2152 1092c-23,0 -34,3 -34,-16 0,-27 40,-18 61,-28 0,24 -5,44 -27,44zm66 6l0 8c0,1 -1,4 -3,6 -2,5 2,15 -27,0 -12,-6 9,0 -14,-9 -40,35 -83,13 -83,-27 0,-48 49,-41 88,-50 -3,-39 -52,-38 -55,-6l-28 0c5,-62 95,-62 109,-14 9,31 -7,44 8,87 0,0 4,1 5,5z"/>
   <path class="fil1" d="M915 1087c-17,4 -55,16 -55,-11 0,-27 39,-18 60,-28 0,16 0,28 -5,39zm-78 -67l28 0c4,-33 31,-22 55,-16l0 22c-16,4 -43,5 -56,10 -65,23 -26,123 56,67 22,15 17,18 45,12 -4,-43 -18,5 -17,-61 0,-29 5,-57 -13,-71 -20,-15 -93,-24 -98,37z"/>
   <polygon class="fil0" points="1841,588 1869,588 1869,216 1841,216 "/>
   <path class="fil1" d="M1603 998l5 0c25,0 31,10 33,33l-66 0c4,-15 8,-33 28,-33zm-56 44c0,110 107,84 119,41 4,-15 7,-4 -2,-14 -21,-21 -9,23 -61,23 -20,0 -27,-19 -28,-38l94 0c0,-122 -122,-95 -122,-12z"/>
   <path class="fil1" d="M1691 1076c0,26 23,44 45,44 18,0 29,-10 36,-11l12 2c10,2 6,4 24,4l0 -139 -28 0c0,48 -1,67 -2,86 0,33 -52,50 -58,6 -4,-29 -1,-53 -1,-92l-28 0 0 100z"/>
   <path class="fil1" d="M1957 1042c0,107 116,95 122,23l-27 0c-4,42 -67,42 -67,-23 0,-53 63,-60 67,-16l27 0c-6,-81 -122,-68 -122,16z"/>
   <path class="fil1" d="M1414 1031c0,40 3,89 61,89 38,0 54,-24 61,-55 -17,0 -25,-2 -25,0 -1,9 -21,41 -48,28 -26,-13 -31,-78 -2,-94 16,-9 47,-1 46,22 0,3 5,5 29,5 -20,-86 -122,-58 -122,5z"/>
   <polygon class="fil1" points="549,1115 593,1115 593,926 549,926 "/>
   <path class="fil1" d="M1841 954l0 22 -22 0 0 22 22 0c0,123 -10,117 50,117l0 -23 -22 0 0 -94 22 0 0 -22 -22 0c0,-38 2,-34 -17,-39 -9,7 -11,1 -11,17z"/>
   <path class="fil1" d="M976 993c0,123 -10,121 28,122 0,-84 -10,-111 44,-111l0 -28c-38,0 -22,2 -44,17l0 -17c-18,0 -28,-2 -28,17z"/>
   <polygon class="fil1" points="1908,1115 1935,1115 1935,976 1908,976 "/>
   <path class="fil1" d="M1591 965c25,-2 44,-28 50,-50 -24,0 -39,4 -50,50z"/>
   <path class="fil1" d="M1908 943c0,19 11,16 22,16 7,-13 5,-10 5,-33l-27 0 0 17z"/>
  </g>
 </g>
</svg>
