<?xml version="1.0" encoding="UTF-8"?>
<!DOCTYPE svg PUBLIC "-//W3C//DTD SVG 1.0//EN" "http://www.w3.org/TR/2001/REC-SVG-20010904/DTD/svg10.dtd">
<!-- Creator: CorelDRAW X8 -->
<svg xmlns="http://www.w3.org/2000/svg" xml:space="preserve" width="439px" height="400px" version="1.0" style="shape-rendering:geometricPrecision; text-rendering:geometricPrecision; image-rendering:optimizeQuality; fill-rule:evenodd; clip-rule:evenodd" viewBox="0 0 177 161" xmlns:xlink="http://www.w3.org/1999/xlink">
 <defs>
  <style type="text/css">
   <![CDATA[
    .fil1 {fill:#26529C}
    .fil0 {fill:#26539D}
   ]]>
  </style>
 </defs>
 <g id="Capa_x0020_1">
  <metadata id="CorelCorpID_0Corel-Layer"/>
  <g id="_2486058521456">
   <path class="fil0" d="M22 156c0,-1 1,-1 2,-3 1,0 1,-2 2,-3 1,-2 2,-4 3,-6 1,-3 4,-11 5,-13 2,3 9,22 11,24l2 1 -12 0 3 -1c0,-1 0,-1 0,-2 -2,-5 -1,-4 -10,-4 -1,2 -2,3 -1,5 1,1 1,1 2,2l-7 0zm118 -11c-1,-2 -3,-5 -4,-7 -2,-2 -3,-4 -4,-5 -2,-1 -1,0 -1,-1l11 0c-1,1 -1,0 -2,1 0,2 2,5 4,7 1,-1 5,-5 4,-7 -1,-1 0,0 -1,0 -1,-1 0,0 -1,-1 2,0 7,-1 8,0 -2,2 -1,-1 -5,4 -1,2 -3,4 -4,5 0,2 3,7 5,8 0,1 1,3 2,4 2,2 1,1 3,2 -2,1 -8,1 -11,1 1,-2 2,-2 2,-2 -1,-2 -4,-6 -5,-8 -1,2 -3,4 -4,5 -2,3 -1,3 0,4l-7 1 2 -1c2,-2 8,-9 8,-10zm-36 -13c2,0 9,0 10,0 3,0 7,0 10,0l-1 7c-2,-4 0,-6 -10,-6l0 10c4,0 5,-2 5,-5 0,0 1,-1 1,-1 0,2 0,5 0,7 0,2 0,4 0,6 -2,-3 0,-5 -6,-6l1 10c8,3 10,-4 11,-6 1,1 0,2 0,4 0,1 0,2 0,4l-21 0c1,-1 2,-1 3,-2 1,-1 1,-15 1,-18 0,-4 -1,-3 -4,-4zm-26 0l1 0c0,0 0,0 0,0 2,0 11,0 12,0l-3 1c-1,2 -2,19 0,21 1,1 6,1 8,-1 2,-1 2,-4 4,-6 0,2 -1,7 -1,9l-21 0c1,-1 0,0 1,-1 2,0 1,0 2,-1 1,-1 1,-2 1,-3 0,-2 0,-5 0,-7 0,-13 0,-10 -4,-12zm-28 0c2,-1 16,0 18,1 2,1 4,3 4,7 -1,3 -3,3 -5,5l6 8c0,1 0,1 1,2l1 1c-8,0 -7,1 -9,-3 -1,-1 -1,-2 -2,-3 -2,-3 -3,-5 -5,-5 0,0 0,0 0,0l0 3c0,10 0,5 3,8l-12 0c4,-3 3,2 3,-12 0,-14 1,-10 -3,-12zm38 -107c1,1 3,4 4,6 7,11 55,91 56,94l-120 0 60 -100zm-69 101l-13 0 0 35 165 0 0 -35 -14 0c-2,-2 -3,-5 -4,-7 -2,-2 -3,-5 -5,-7l-42 -71c-1,-1 -16,-27 -18,-28 -5,7 -12,20 -17,28l-52 85z"/>
   <path class="fil0" d="M19 123c1,-2 3,-5 4,-7l64 -106c-14,0 -29,5 -39,11 -10,6 -18,14 -25,24 -6,10 -12,22 -13,37 -1,11 1,22 5,32 0,2 1,3 1,5l2 3c0,1 0,1 0,1 0,0 1,0 1,0z"/>
   <path class="fil0" d="M157 123l2 -2c2,-3 4,-12 5,-16 5,-20 1,-43 -11,-60 -1,-2 -3,-5 -5,-7l-9 -9c-4,-4 -6,-5 -11,-8 -11,-6 -24,-11 -39,-11 2,4 54,88 60,99 1,2 8,12 8,14z"/>
   <path class="fil0" d="M0 83l0 11c1,2 3,22 8,30l8 0c0,-2 -2,-6 -3,-9 -4,-10 -6,-21 -5,-33 3,-39 36,-74 80,-74 32,0 55,18 67,35 13,21 17,48 8,72 0,2 -3,8 -3,9l8 0c6,-10 9,-28 8,-41 -1,-21 -12,-44 -27,-58 -22,-21 -52,-30 -82,-22 -34,8 -59,36 -65,69 -1,3 -1,9 -2,11z"/>
   <path class="fil0" d="M88 56c0,1 0,1 1,1 1,3 8,22 8,22l-18 0 9 -23zm-25 45l8 1 6 -17 22 0 7 17 7 0c0,-2 -19,-49 -21,-54l-8 0 -21 53z"/>
   <path class="fil1" d="M154 20c-2,-14 19,-17 21,-4 2,14 -18,17 -21,4zm23 0l0 -4c0,0 0,0 -1,-1 -2,-5 -5,-9 -12,-9 -15,1 -15,23 0,24 3,0 6,-1 8,-2 5,-4 3,-5 5,-8z"/>
   <path class="fil0" d="M162 12c3,0 4,0 6,1 1,5 -2,4 -6,4l0 -5zm7 6c2,-2 3,-5 0,-6 -2,-2 -6,-1 -9,-1 0,2 0,5 0,7l0 6c1,1 0,1 1,1 2,-1 1,-2 1,-6l6 0 1 6 2 0c-1,-3 0,-5 -2,-7z"/>
   <path class="fil0" d="M59 144c4,0 7,-1 7,-6 0,-4 -3,-5 -7,-5l0 11z"/>
   <path class="fil0" d="M29 147l1 1 4 0 1 0c0,-3 -2,-7 -3,-8l-3 7z"/>
  </g>
 </g>
</svg>
