<?xml version="1.0" encoding="UTF-8"?>
<!DOCTYPE svg PUBLIC "-//W3C//DTD SVG 1.0//EN" "http://www.w3.org/TR/2001/REC-SVG-20010904/DTD/svg10.dtd">
<!-- Creator: CorelDRAW X8 -->
<svg xmlns="http://www.w3.org/2000/svg" xml:space="preserve" width="384px" height="400px" version="1.0" style="shape-rendering:geometricPrecision; text-rendering:geometricPrecision; image-rendering:optimizeQuality; fill-rule:evenodd; clip-rule:evenodd" viewBox="0 0 77 80" xmlns:xlink="http://www.w3.org/1999/xlink">
 <defs>
  <style type="text/css">
   <![CDATA[
    .fil0 {fill:#14973C}
   ]]>
  </style>
 </defs>
 <g id="Capa_x0020_1">
  <metadata id="CorelCorpID_0Corel-Layer"/>
  <path class="fil0" d="M49 0l-4 0c-2,1 -2,0 -6,2l-26 11c-4,2 -8,3 -11,5l0 37 5 2 0 -36 31 -15c2,-1 4,-2 7,-2 5,-1 11,1 11,7 3,-1 4,-1 8,-1 5,1 9,5 6,9 -1,2 -2,2 -5,4 -8,4 -16,8 -24,12l0 24c2,0 13,-6 15,-6l0 13c1,0 9,-4 10,-5l8 -4c1,0 2,-1 3,-1 0,-11 0,-22 0,-33 0,-7 1,-9 -4,-13 -3,-2 -8,-3 -13,-3 -1,-4 -3,-5 -7,-6 -1,-1 -4,-1 -4,-1zm-35 70c0,0 0,0 1,0 0,1 0,0 0,1l0 9c0,0 0,0 -1,0 0,0 0,0 0,0 0,0 0,0 0,0l0 0c1,0 6,0 6,0 0,0 0,0 -1,0l0 -10 1 0c0,0 -2,0 -3,0 -1,0 -1,0 -2,0l-1 0c0,0 0,0 0,0zm13 -52c1,1 3,2 4,2 1,1 6,-2 7,-3 1,-1 3,-1 4,-2 0,-2 -2,-2 -4,-2 -1,0 -10,5 -11,5zm14 7c1,1 3,2 4,2 1,0 6,-3 7,-4 1,0 4,-1 4,-2 0,-1 -3,-2 -4,-2l-11 6c-1,0 0,0 0,0zm12 45l1 1 0 8c0,1 0,1 0,1 -1,0 -1,0 -1,0l11 0 0 -3c-1,0 0,2 -2,2 -1,1 -3,1 -4,1l0 -5c4,-1 3,2 4,2 0,-1 0,-3 0,-4 -1,1 0,2 -4,2l0 -5c2,0 4,0 5,2 0,0 0,0 1,1l0 -3 -11 0c0,0 0,0 0,0zm18 0c2,0 2,1 2,3 0,2 -1,2 -2,2l0 -5zm-6 0c1,0 2,0 2,1l0 9 -2 0c1,0 6,0 7,0 -1,0 -1,0 -1,-1l0 -4c1,0 4,0 5,0 2,-1 2,-3 0,-4 -1,-1 -3,-1 -5,-1l-5 0c-1,0 0,0 -1,0zm-38 10l1 0c0,0 0,0 0,0l-1 0c-1,-1 -1,-2 -1,-5 0,-2 0,-5 2,-5 3,0 3,3 3,5 0,2 0,4 -1,5l-2 0 2 0c2,0 5,-2 5,-6 -1,-2 -4,-4 -7,-4 -8,0 -9,9 -1,10zm-22 -5c2,0 4,0 4,2 0,3 -2,3 -4,3l0 -5zm0 -5c2,0 4,1 3,3 0,1 -1,2 -3,2l0 -5zm-5 0l1 0c0,13 1,9 -1,10 3,0 9,0 11,0 1,-1 3,-2 1,-4 0,-1 -2,-1 -3,-1 6,-2 3,-4 1,-5 -2,0 -8,0 -10,0l0 0zm36 0c0,1 0,0 1,1l0 8c0,0 0,0 0,1 -1,0 0,-1 -1,0 0,0 0,0 0,0l3 0c-1,-1 -2,1 -2,-3 0,-2 0,-4 0,-5 1,0 4,6 4,7 1,1 1,2 2,0 0,0 0,-1 1,-1 0,-1 0,-2 1,-2 0,-2 1,-4 2,-5l0 8c0,1 0,1 -1,1 0,0 0,0 0,0 0,0 0,0 0,0l6 0 -1 0c-1,-1 0,0 0,-1l0 -8c0,0 0,-1 0,0 0,0 0,-1 0,-1l1 0c0,0 -5,0 -5,0 -1,1 -2,5 -3,6 -1,-2 -2,-4 -3,-6 -1,0 -4,0 -5,0zm-11 -16c0,1 4,3 5,3l0 -25c0,0 -4,-3 -5,-3l0 25zm8 4c0,0 4,2 5,3l0 -25c-1,-1 -4,-3 -5,-3l0 25zm-24 0l6 3 0 -37c-2,0 -4,-2 -6,-2l0 36zm8 4c0,0 5,2 5,3l0 -37c0,0 -4,-2 -5,-3l0 37z"/>
 </g>
</svg>
