<?xml version="1.0" encoding="UTF-8"?>
<!DOCTYPE svg PUBLIC "-//W3C//DTD SVG 1.0//EN" "http://www.w3.org/TR/2001/REC-SVG-20010904/DTD/svg10.dtd">
<!-- Creator: CorelDRAW X8 -->
<svg xmlns="http://www.w3.org/2000/svg" xml:space="preserve" width="1476px" height="400px" version="1.0" style="shape-rendering:geometricPrecision; text-rendering:geometricPrecision; image-rendering:optimizeQuality; fill-rule:evenodd; clip-rule:evenodd" viewBox="0 0 1097 297" xmlns:xlink="http://www.w3.org/1999/xlink">
 <defs>
  <style type="text/css">
   <![CDATA[
    .fil1 {fill:#2B2827}
    .fil0 {fill:#558EC7}
   ]]>
  </style>
 </defs>
 <g id="Capa_x0020_1">
  <metadata id="CorelCorpID_0Corel-Layer"/>
  <g id="_2486079596288">
   <path class="fil0" d="M17 193l0 -67c0,-11 2,-14 2,-26 -1,-22 1,-31 10,-45 16,-24 36,-38 75,-38l171 0c47,0 83,37 83,68l0 117c0,23 -12,41 -26,56 -14,14 -34,21 -61,21l-171 0c-50,0 -83,-35 -83,-86zm-17 -106l0 127c0,26 20,51 35,63 33,25 76,20 123,20 13,0 26,0 39,0 16,0 23,-2 39,-2 44,0 87,9 120,-35 11,-15 21,-35 21,-59l0 -103c0,-52 -40,-98 -84,-98l-208 0c-19,0 -46,14 -59,26l-17 25c-5,10 -9,22 -9,36z"/>
   <path class="fil0" d="M98 156l13 0c-1,4 -2,7 -3,11 -5,-3 -7,-6 -10,-11zm41 -19c5,-9 8,-20 12,-30 4,-8 12,-26 12,-33 32,0 64,0 95,0 16,0 32,-1 41,6 11,7 13,20 6,32 -5,10 -14,18 -24,22 -11,5 -30,3 -45,3 -32,0 -65,0 -97,0zm-28 -65c11,3 21,2 34,2 -3,10 -8,21 -12,31 -4,10 -10,24 -12,32 -24,0 -45,-4 -45,17 0,10 17,26 22,34 -1,6 -5,14 -8,19 -10,22 -28,9 -41,15 -7,3 -5,16 3,16 35,0 43,4 51,-13 2,-5 7,-16 8,-21 9,6 26,34 34,34l109 0c12,0 7,-15 6,-17 -14,0 -99,2 -108,-2 -7,-3 -17,-17 -21,-23 -4,-5 -7,-8 -10,-12l11 -28c42,0 84,0 126,0 22,0 36,-5 48,-15 26,-23 31,-58 6,-76 -13,-9 -23,-7 -45,-7l-144 -2c-12,0 -12,5 -12,16z"/>
   <path class="fil1" d="M867 136l-15 0 0 -41 10 0c16,0 26,3 26,20 0,14 -7,21 -21,21zm-44 87l29 0 0 -65c40,0 35,6 36,44 0,11 1,12 1,21l36 0c-2,-7 -5,-7 -7,-18 -2,-13 5,-52 -17,-58 3,-5 16,-9 16,-34 0,-50 -39,-41 -94,-41l0 151z"/>
   <path class="fil1" d="M449 136l-14 0 0 -41c36,0 35,5 35,26 0,11 -10,15 -21,15zm60 87l0 -2c-14,-13 -5,-42 -13,-62 -4,-11 -6,-7 -11,-14 11,-8 15,-12 15,-30 0,-17 -1,-26 -11,-34 -16,-13 -54,-9 -82,-9l0 151 28 0 0 -65c53,0 27,16 39,65l35 0z"/>
   <path class="fil1" d="M563 108c0,16 9,36 9,54l-20 0 10 -53c0,0 0,-1 1,-1zm-54 113l0 2 31 0c1,-13 6,-24 6,-37l32 0c0,4 4,28 5,31 3,9 8,6 34,6 -6,-25 -12,-49 -18,-74 -2,-12 -5,-26 -8,-38 -3,-10 -8,-28 -8,-39l-41 0c0,10 -21,97 -24,113 -1,4 -6,33 -9,36z"/>
   <polygon class="fil1" points="938,223 1018,223 1018,197 967,197 967,158 1012,158 1012,132 967,132 967,98 1016,98 1016,72 938,72 "/>
   <polygon class="fil1" points="726,223 804,223 804,197 756,197 756,158 800,158 800,132 756,132 756,98 804,98 804,72 726,72 "/>
   <path class="fil1" d="M644 162l0 61 30 0c0,-75 -6,-46 19,-104 4,-8 6,-14 10,-23 4,-8 8,-15 10,-24l-31 0c-4,7 -20,48 -21,54l-3 -6c-2,-3 -1,-3 -3,-6l-16 -42 -34 0 30 65c2,5 9,20 9,25z"/>
   <path class="fil1" d="M1092 98c0,15 -10,28 -26,28 -44,0 -27,-67 8,-51 9,4 18,12 18,23zm-60 0c0,50 65,40 65,8l0 -13c0,-34 -65,-38 -65,5z"/>
   <path class="fil1" d="M1060 98l0 -11 6 0c5,0 5,3 7,6 -3,5 -4,5 -13,5zm-9 21l9 0 0 -15c12,0 13,3 13,15l8 0c0,-10 1,-14 -6,-17 8,-8 6,-9 4,-18 -13,-3 -12,-2 -28,-2l0 37z"/>
  </g>
 </g>
</svg>
