<?xml version="1.0" encoding="UTF-8"?>
<!DOCTYPE svg PUBLIC "-//W3C//DTD SVG 1.0//EN" "http://www.w3.org/TR/2001/REC-SVG-20010904/DTD/svg10.dtd">
<!-- Creator: CorelDRAW X8 -->
<svg xmlns="http://www.w3.org/2000/svg" xml:space="preserve" width="1525px" height="400px" version="1.0" style="shape-rendering:geometricPrecision; text-rendering:geometricPrecision; image-rendering:optimizeQuality; fill-rule:evenodd; clip-rule:evenodd"
viewBox="0 0 2289 600"
 xmlns:xlink="http://www.w3.org/1999/xlink">
 <defs>
  <style type="text/css">
   <![CDATA[
    .fil0 {fill:#0A64AC}
   ]]>
  </style>
 </defs>
 <g id="Capa_x0020_1">
  <metadata id="CorelCorpID_0Corel-Layer"/>
  <g id="_2486079595584">
   <path class="fil0" d="M2240 415l0 0zm6 -12l-6 12 6 -12zm-356 0l2 2c0,0 -2,-1 -2,-2zm-6 -18l7 12 -7 -12zm362 18c1,-43 12,-77 12,-130 -44,0 -65,11 -101,12 26,23 46,40 41,94 -5,62 -45,60 -53,89 17,-7 12,-5 36,-5 -22,40 -55,41 -107,41 -58,0 -89,0 -113,-36l30 0c-20,-29 -80,-104 -69,-145 3,-11 8,-15 14,-22 20,-20 11,0 19,-22 -34,0 -45,-4 -71,-6 -12,51 0,61 0,112 -11,-16 -12,-33 -15,-55 -4,-25 -2,-49 -2,-75 14,-8 27,-11 41,-18 -40,-59 -39,-78 -95,-83l0 392c1,54 30,53 83,53 443,-4 391,37 391,-142l1 -392c0,-56 -15,-65 -72,-65l-332 0c-81,-1 -71,37 -71,131 28,-19 28,-45 59,-54 14,29 -8,34 56,87 17,15 22,17 38,33 62,65 125,0 278,48 13,4 16,6 31,10 0,36 -3,104 -19,135 -7,11 -5,8 -10,13z"/>
   <path class="fil0" d="M0 131l9 -15c12,-19 25,-33 50,-33l1677 0c34,0 40,21 47,36 1,1 2,3 2,4 1,1 2,3 2,4 1,1 2,2 3,4 0,-62 16,-131 -48,-131l-1689 0c-36,0 -49,20 -53,46l0 85z"/>
   <path class="fil0" d="M1718 522l-1659 0c-21,0 -39,-10 -49,-28 -1,-1 -1,-3 -2,-4l-8 -16 0 88c4,22 15,37 41,37l1707 0c59,0 42,-86 42,-184 0,-77 0,-154 0,-231l-6 0c0,67 0,134 0,201 0,77 14,137 -66,137z"/>
   <path class="fil0" d="M148 261l71 0 0 53 -71 0 0 -53zm0 -101l53 0c14,0 18,4 18,18l0 36 -71 0 0 -54zm-71 220l178 0c45,0 28,-116 26,-122 -6,-15 0,-9 -14,-15l0 -12c26,-9 17,-39 17,-100 0,-28 -13,-42 -41,-42l-166 0 0 291z"/>
   <path class="fil0" d="M1238 237l54 0 0 83 -54 0 0 -83zm-65 -23c0,174 -13,166 95,166 13,0 13,-5 24,-12l0 47 -59 0 0 59c137,0 112,31 112,-302 -41,0 -23,-3 -59,5l-17 1c-33,-7 -96,-20 -96,36z"/>
   <path class="fil0" d="M1618 237l53 0 0 83 -53 0 0 -83zm-60 -35c0,188 -16,178 77,178 22,0 29,-10 42,-18 8,23 25,18 65,18 0,-45 4,-30 -8,-64 0,-1 -1,-3 -1,-4 -6,-22 -3,-113 -3,-140l-142 0c-14,0 -30,16 -30,30z"/>
   <path class="fil0" d="M1037 237l53 0 0 83 -53 0 0 -83zm-59 -23c0,180 -17,166 89,166 14,0 17,-10 29,-18 15,22 11,18 65,18 0,-22 3,-36 -4,-56 -15,-46 -7,-87 -7,-152l-125 0c-31,1 -47,10 -47,42z"/>
   <path class="fil0" d="M824 385l35 0c30,0 8,-2 24,-5l71 0 0 -208 -65 0 0 142 -48 0c0,-51 7,-98 -11,-136l-66 -6c0,112 14,20 12,125 -1,46 3,88 48,88z"/>
   <path class="fil0" d="M533 385l36 0c41,0 -12,-5 47,-5l48 0 0 -208 -66 0 0 142 -47 0c0,-143 12,-142 -77,-142 0,21 -3,46 4,61 6,11 15,-6 14,57 -1,49 -7,95 41,95z"/>
   <path class="fil0" d="M1375 196c0,104 -15,89 106,89 0,44 10,35 -106,35l0 60c137,0 189,24 160,-101 -35,-8 -73,-4 -107,-12 0,-43 -7,-36 95,-36l0 -59c-76,0 -148,-13 -148,24z"/>
   <path class="fil0" d="M308 231c0,58 -6,92 -6,149l65 0 0 -143 36 0 0 42 59 0c0,-135 8,-104 -89,-104l-65 -3 0 59z"/>
   <polygon class="fil0" points="687,380 753,380 753,95 687,95 "/>
   <path class="fil0" d="M2038 267l-106 6c37,0 49,6 89,6 60,0 165,5 213,-18 -16,-22 -64,-24 -95,-24 -41,0 -83,0 -124,0 13,20 16,9 23,30z"/>
   <path class="fil0" d="M1926 267c-9,-13 -1,-7 -18,-12 9,14 1,7 18,12z"/>
  </g>
 </g>
</svg>
