<?xml version="1.0" encoding="UTF-8"?>
<!DOCTYPE svg PUBLIC "-//W3C//DTD SVG 1.0//EN" "http://www.w3.org/TR/2001/REC-SVG-20010904/DTD/svg10.dtd">
<!-- Creator: CorelDRAW X8 -->
<svg xmlns="http://www.w3.org/2000/svg" xml:space="preserve" width="1682px" height="400px" version="1.0" style="shape-rendering:geometricPrecision; text-rendering:geometricPrecision; image-rendering:optimizeQuality; fill-rule:evenodd; clip-rule:evenodd" viewBox="0 0 18254 4341" xmlns:xlink="http://www.w3.org/1999/xlink">
 <defs>
  <style type="text/css">
   <![CDATA[
    .fil0 {fill:#E30240}
   ]]>
  </style>
 </defs>
 <g id="Capa_x0020_1">
  <metadata id="CorelCorpID_0Corel-Layer"/>
  <path class="fil0" d="M16359 503c0,844 -50,747 293,1306 213,345 437,676 621,1024l-1188 0c81,-154 139,-209 238,-356 281,-417 274,-324 62,-675 -70,-117 -111,-222 -209,-294 -141,95 -250,308 -356,466 -76,114 -291,432 -375,494l3 -1420c6,-420 65,-363 -597,-363 -229,0 -137,755 -137,1189 -210,-154 -921,-1189 -1097,-1189l-548 0 0 2514 731 0 0 -1051c146,98 247,223 378,353l522 574c171,162 103,62 231,135 9,5 21,10 30,16 7,6 19,13 26,20 6,6 15,17 21,24 6,7 13,20 18,28 51,80 41,266 328,266l2559 0c173,0 285,-76 331,-219 77,-234 -323,-755 -530,-1136 -332,-609 -715,-984 -715,-1615 0,-152 82,-134 228,-137l0 -274 -1097 0c-85,365 57,249 229,320zm-13116 3819l122 -581 119 0 -101 484 296 0 -20 97 -416 0zm1322 -128l-230 0 -70 128 -124 0 328 -581 135 0 94 581 -114 0 -19 -128zm-14 -97l-34 -234 -129 234 163 0zm667 225l122 -581 199 0c43,0 73,1 90,4 29,4 53,12 73,24 20,12 35,28 45,47 11,20 16,42 16,66 0,33 -9,60 -27,84 -18,24 -46,42 -83,54 29,8 53,23 69,44 17,21 25,44 25,71 0,35 -9,68 -29,99 -20,32 -48,54 -82,68 -35,13 -83,20 -144,20l-274 0zm192 -346l92 0c41,0 70,-3 88,-9 18,-6 32,-15 41,-29 9,-13 13,-27 13,-42 0,-14 -4,-27 -12,-36 -9,-10 -21,-16 -37,-19 -8,-2 -30,-3 -63,-3l-93 0 -29 138zm-53 253l116 0c48,0 81,-3 97,-9 17,-7 30,-17 40,-31 10,-14 15,-29 15,-45 0,-19 -7,-35 -22,-48 -14,-13 -38,-19 -71,-19l-143 0 -32 152zm934 -135c0,-34 5,-70 16,-109 13,-51 34,-95 61,-133 28,-37 63,-67 105,-89 42,-22 90,-32 143,-32 72,0 130,22 174,67 45,44 67,104 67,178 0,61 -14,120 -43,178 -29,57 -68,101 -118,132 -49,31 -105,47 -167,47 -55,0 -100,-12 -137,-37 -37,-25 -63,-55 -78,-92 -15,-36 -23,-73 -23,-110zm119 -2c0,40 12,74 36,100 24,28 56,41 96,41 32,0 63,-11 93,-32 30,-21 54,-54 73,-97 20,-43 30,-85 30,-127 0,-45 -13,-81 -37,-108 -25,-26 -56,-39 -94,-39 -58,0 -106,28 -143,82 -36,55 -54,115 -54,180zm1046 230l-120 0 122 -581 258 0c44,0 79,5 103,14 25,9 45,26 60,50 15,24 23,54 23,88 0,50 -15,91 -44,123 -30,32 -75,52 -135,59 16,14 30,32 44,55 26,45 56,109 89,192l-129 0c-10,-32 -30,-83 -60,-153 -17,-37 -34,-63 -53,-75 -11,-8 -31,-12 -59,-12l-49 0 -50 240zm68 -327l64 0c64,0 106,-4 127,-11 22,-8 38,-20 50,-37 12,-16 18,-33 18,-51 0,-22 -9,-37 -26,-48 -11,-6 -33,-10 -69,-10l-131 0 -33 157zm1226 199l-231 0 -70 128 -124 0 328 -581 135 0 94 581 -113 0 -19 -128zm-15 -97l-34 -234 -128 234 162 0zm861 225l-119 0 101 -484 -171 0 20 -97 458 0 -20 97 -168 0 -101 484zm714 -228c0,-34 5,-70 16,-109 13,-51 34,-95 61,-133 28,-37 63,-67 105,-89 42,-22 90,-32 143,-32 72,0 130,22 175,67 44,44 66,104 66,178 0,61 -14,120 -43,178 -29,57 -68,101 -118,132 -49,31 -105,47 -167,47 -54,0 -100,-12 -137,-37 -36,-25 -62,-55 -78,-92 -15,-36 -23,-73 -23,-110zm119 -2c0,40 12,74 36,100 25,28 56,41 96,41 32,0 63,-11 93,-32 30,-21 54,-54 74,-97 19,-43 29,-85 29,-127 0,-45 -13,-81 -37,-108 -25,-26 -56,-39 -94,-39 -58,0 -106,28 -142,82 -37,55 -55,115 -55,180zm1046 230l-120 0 122 -581 258 0c44,0 79,5 104,14 24,9 44,26 59,50 16,24 23,54 23,88 0,50 -15,91 -44,123 -30,32 -74,52 -134,59 15,14 29,32 43,55 26,45 56,109 89,192l-128 0c-11,-32 -31,-83 -61,-153 -16,-37 -34,-63 -52,-75 -12,-8 -32,-12 -60,-12l-49 0 -50 240zm68 -327l64 0c64,0 107,-4 128,-11 21,-8 37,-20 49,-37 12,-16 18,-33 18,-51 0,-22 -9,-37 -26,-48 -10,-6 -33,-10 -68,-10l-132 0 -33 157zm840 327l122 -581 119 0 -122 581 -119 0zm716 -228c0,-34 5,-70 16,-109 13,-51 34,-95 61,-133 28,-37 63,-67 105,-89 42,-22 90,-32 143,-32 72,0 130,22 175,67 44,44 66,104 66,178 0,61 -14,120 -43,178 -29,57 -68,101 -118,132 -49,31 -105,47 -167,47 -55,0 -100,-12 -137,-37 -36,-25 -63,-55 -78,-92 -15,-36 -23,-73 -23,-110zm119 -2c0,40 12,74 36,100 24,28 56,41 96,41 32,0 63,-11 93,-32 30,-21 54,-54 74,-97 19,-43 29,-85 29,-127 0,-45 -13,-81 -37,-108 -25,-26 -56,-39 -94,-39 -58,0 -106,28 -143,82 -36,55 -54,115 -54,180zm942 43l113 -6c2,36 8,61 19,73 17,21 50,31 97,31 39,0 67,-7 85,-21 17,-14 26,-31 26,-51 0,-17 -7,-32 -22,-44 -10,-8 -37,-23 -82,-42 -45,-20 -78,-36 -99,-49 -21,-13 -37,-30 -49,-51 -12,-21 -18,-46 -18,-74 0,-49 18,-90 53,-122 36,-32 87,-48 154,-48 68,0 121,16 159,48 37,32 58,74 61,127l-114 6c-3,-28 -13,-49 -30,-64 -17,-15 -43,-22 -76,-22 -33,0 -57,5 -71,17 -14,12 -21,26 -21,44 0,17 6,31 19,41 13,12 42,27 86,46 67,29 109,52 128,70 27,27 40,61 40,103 0,51 -20,95 -61,131 -40,37 -97,55 -169,55 -50,0 -93,-9 -130,-25 -36,-17 -62,-40 -77,-70 -15,-30 -22,-64 -21,-103zm-2965 -2261c0,-822 960,-822 960,0 0,817 -960,817 -960,0zm-822 -46c0,658 517,1325 1142,1325l320 0c609,0 1142,-651 1142,-1279 0,-712 -603,-1299 -1283,-1318 -674,-18 -1321,604 -1321,1272zm-6854 46c0,-825 959,-826 959,0 0,825 -959,800 -959,0zm-823 0c0,399 214,805 524,1049 363,285 1042,326 1440,87 375,-226 641,-693 641,-1228 0,-631 -674,-1245 -1322,-1226 -676,20 -1283,594 -1283,1318zm-1778 -869l-4 -900 0 -105 -914 0 0 92 0 3107 914 0 0 -1280 731 -16 0 2438 960 0 0 -4341 -8 0c-318,0 -635,1 -952,2l0 501c1,167 0,335 0,502l-727 0zm5205 2138l0 -1955c291,0 418,70 417,365 -2,267 -170,399 -325,503 232,440 556,745 822,1143l823 0 225 -1055c3,-11 7,-24 10,-35l39 -98c52,225 178,475 292,667 117,195 264,407 530,429 30,-129 305,-882 412,-1005l182 1097 823 0c-93,-401 -91,-721 -150,-1176 -49,-378 -79,-841 -79,-1292l-959 0c-58,249 -205,387 -274,686l-92 0c-20,-237 -231,-504 -373,-633 -147,-134 -134,-103 -401,-101 -169,2 -337,2 -505,2 0,1185 -219,1279 -229,1737 -108,-79 -164,-198 -228,-320 105,-158 545,-602 211,-1125 -160,-251 -385,-297 -668,-292l-1234 0 0 2514c122,0 244,-1 366,0 331,4 261,24 365,-56z"/>
 </g>
</svg>
