<?xml version="1.0" encoding="UTF-8"?>
<!DOCTYPE svg PUBLIC "-//W3C//DTD SVG 1.0//EN" "http://www.w3.org/TR/2001/REC-SVG-20010904/DTD/svg10.dtd">
<!-- Creator: CorelDRAW X8 -->
<svg xmlns="http://www.w3.org/2000/svg" xml:space="preserve" width="3034px" height="400px" version="1.0" style="shape-rendering:geometricPrecision; text-rendering:geometricPrecision; image-rendering:optimizeQuality; fill-rule:evenodd; clip-rule:evenodd"
viewBox="0 0 3646 481"
 xmlns:xlink="http://www.w3.org/1999/xlink">
 <defs>
  <style type="text/css">
   <![CDATA[
    .fil0 {fill:#0079C2}
   ]]>
  </style>
 </defs>
 <g id="Capa_x0020_1">
  <metadata id="CorelCorpID_0Corel-Layer"/>
  <path class="fil0" d="M1523 0l56 0c73,5 149,25 206,72 43,35 72,85 78,140 8,56 -7,116 -44,161 -40,51 -101,81 -164,96 -68,15 -140,15 -208,0 -64,-14 -126,-46 -166,-98 -36,-44 -51,-104 -43,-161 7,-56 39,-108 84,-142 57,-45 130,-64 201,-68zm4 119c-24,4 -47,14 -64,31 -18,17 -28,43 -31,68 -4,28 -1,59 11,85 12,24 33,42 58,51 36,13 77,12 112,-6 21,-10 38,-29 47,-50 11,-25 12,-53 10,-79 -3,-28 -15,-55 -36,-74 -29,-24 -70,-32 -107,-26zm-1298 -103c64,0 127,0 190,0 75,154 151,307 226,461 -67,0 -134,0 -202,0 -8,-22 -17,-43 -26,-65 -64,0 -129,0 -193,0 -9,22 -18,44 -28,65 -65,0 -131,0 -196,0 76,-153 153,-307 229,-461zm95 159c-19,45 -38,90 -57,135 37,0 74,0 110,0 -17,-45 -35,-90 -53,-135zm347 -159c102,0 205,0 307,0 41,-1 82,3 121,16 43,14 84,42 105,84 18,35 19,78 4,115 -13,33 -39,59 -71,75 -49,25 -105,32 -159,33 -38,0 -76,0 -113,0 0,46 0,92 0,138 -65,0 -130,0 -194,0 0,-153 0,-307 0,-461zm194 121c0,30 0,59 0,89 29,0 58,0 87,0 22,-1 46,-1 66,-13 21,-14 23,-51 0,-65 -17,-10 -37,-10 -56,-11 -32,-1 -65,0 -97,0zm997 -121c180,0 360,0 540,0 0,40 0,81 0,121 -57,0 -115,0 -173,0 0,113 0,227 0,340 -64,0 -129,0 -194,0 0,-113 0,-227 0,-340 -57,0 -115,0 -173,0 0,-40 0,-81 0,-121zm562 0c171,0 343,0 514,0 1,40 1,81 0,121 -106,0 -213,0 -319,0 0,17 0,35 0,53 96,0 193,0 290,-1 0,38 0,76 0,113 -97,0 -193,0 -290,0 0,18 0,36 0,54 110,1 219,1 329,0 0,41 0,81 0,121 -175,0 -349,0 -524,0 0,-153 0,-307 0,-461zm571 1c76,0 153,0 229,0 31,41 62,82 92,123 30,-41 60,-82 90,-123 72,0 145,0 217,0 -66,72 -132,145 -199,217 74,81 148,162 222,243 -76,0 -151,0 -226,0 -5,0 -11,1 -13,-4 -34,-44 -67,-87 -100,-130 -35,43 -70,86 -104,130 -3,5 -9,4 -14,4 -71,0 -142,0 -213,0 74,-81 149,-162 224,-243 -68,-73 -137,-145 -205,-217z"/>
 </g>
</svg>
