<?xml version="1.0" encoding="UTF-8"?>
<!DOCTYPE svg PUBLIC "-//W3C//DTD SVG 1.0//EN" "http://www.w3.org/TR/2001/REC-SVG-20010904/DTD/svg10.dtd">
<!-- Creator: CorelDRAW X8 -->
<svg xmlns="http://www.w3.org/2000/svg" xml:space="preserve" width="314px" height="400px" version="1.0" style="shape-rendering:geometricPrecision; text-rendering:geometricPrecision; image-rendering:optimizeQuality; fill-rule:evenodd; clip-rule:evenodd" viewBox="0 0 81 104" xmlns:xlink="http://www.w3.org/1999/xlink">
 <defs>
  <style type="text/css">
   <![CDATA[
    .fil1 {fill:#231F20}
    .fil0 {fill:#EC1C24}
   ]]>
  </style>
 </defs>
 <g id="Capa_x0020_1">
  <metadata id="CorelCorpID_0Corel-Layer"/>
  <g id="_2486081802512">
   <path class="fil0" d="M81 57l-2 0c0,4 -4,11 -7,14 -2,2 -5,6 -7,7 -3,3 -6,4 -10,6 -3,1 -2,1 -6,1 -6,2 -10,2 -16,0l-5 -1c-4,-1 -8,-3 -11,-6 -3,-2 -6,-5 -9,-8 -2,-4 -3,-5 -5,-10 0,0 -1,-2 -1,-3l34 0 0 -57 -36 0 0 89 81 0 0 -32z"/>
   <path class="fil0" d="M79 57l2 0 0 -57 -36 0 0 57c4,0 33,0 34,0z"/>
   <path class="fil1" d="M63 104l1 0c0,-2 1,-4 1,-6 0,1 0,2 1,3 0,1 1,2 1,2 1,0 2,-2 3,-4 0,-1 0,0 0,-1l1 4c0,1 0,2 1,2 1,0 0,-2 0,-5 0,-1 0,-3 -1,-4 0,1 -3,6 -3,6 -1,-1 -1,-1 -1,-1 -1,-1 -1,-1 -1,-2 -1,-1 -1,-2 -2,-3 0,3 -1,7 -1,9z"/>
   <path class="fil1" d="M36 103c-1,0 -2,0 -3,-1 -2,-2 0,-6 2,-6 2,0 3,1 3,3 0,2 -1,4 -2,4zm-5 -4c0,1 0,2 1,3 3,3 8,2 8,-3 0,-2 -2,-4 -4,-4 -2,0 -2,0 -4,1 0,1 -1,2 -1,3z"/>
   <path class="fil1" d="M22 96c0,1 0,6 0,7 1,1 0,0 1,1 0,-2 0,-5 0,-6 2,1 3,3 4,4 1,0 1,1 1,1 1,1 0,0 1,1l0 -9c-2,1 -1,2 -1,6 -1,-1 -2,-2 -3,-3 0,-1 -2,-2 -3,-3 0,1 0,1 0,1z"/>
   <path class="fil1" d="M58 99c-1,0 -1,-2 -1,-3 1,0 3,0 3,1 0,2 -1,2 -2,2zm-2 4c0,1 1,0 1,1l0 -5 3 4c1,1 0,1 2,1 0,-2 -2,-3 -3,-5 1,0 2,0 2,-1 0,-1 0,-3 -1,-3l-4 0 0 8z"/>
   <path class="fil1" d="M50 97l1 0c0,2 0,1 0,3l-2 0c1,-1 1,-2 1,-3zm-3 7c2,-1 2,-2 2,-4l3 0c1,3 0,3 2,4 0,-2 -2,-5 -2,-7 -1,-2 -1,-2 -1,-2 -1,1 -1,2 -1,2 -1,2 -3,5 -3,7z"/>
   <path class="fil1" d="M77 97l0 0c0,1 1,2 1,3l-2 0c0,-2 1,-1 1,-3zm-3 7c0,-1 0,0 1,-2 1,-2 0,-2 3,-2 1,0 1,4 2,4 1,0 0,-3 -1,-5l-1 -3c0,-1 0,-1 -1,-1 0,1 -1,2 -1,2 0,1 -3,6 -2,7z"/>
   <path class="fil1" d="M13 99c0,1 0,2 1,3 2,2 4,2 5,1 1,0 1,0 1,-1 -2,0 -1,1 -3,1 -3,0 -3,-7 0,-7 1,0 2,1 3,1 0,-1 0,0 0,-1 -1,-2 -7,-1 -7,3z"/>
   <path class="fil1" d="M8 102c0,1 0,1 0,2 1,0 1,0 2,0 2,0 2,0 2,-1l-3 0 0 -4 3 0c-1,0 -1,0 -2,0 -1,0 -2,0 -1,-3l3 0 0 -1 -4 0 0 7z"/>
   <path class="fil1" d="M42 102c0,1 0,1 0,2l1 0c0,-2 0,-3 0,-5l3 0 0 0 -3 0 0 -3 3 0 0 -1 -4 0 0 7z"/>
   <path class="fil1" d="M0 96l2 0 0 7c0,0 1,0 1,1 1,-1 1,-1 1,-4 0,-4 -1,-4 2,-4l0 -1 -6 0 0 1z"/>
  </g>
 </g>
</svg>
