<?xml version="1.0" encoding="UTF-8"?>
<!DOCTYPE svg PUBLIC "-//W3C//DTD SVG 1.0//EN" "http://www.w3.org/TR/2001/REC-SVG-20010904/DTD/svg10.dtd">
<!-- Creator: CorelDRAW X8 -->
<svg xmlns="http://www.w3.org/2000/svg" xml:space="preserve" width="1781px" height="400px" version="1.0" style="shape-rendering:geometricPrecision; text-rendering:geometricPrecision; image-rendering:optimizeQuality; fill-rule:evenodd; clip-rule:evenodd" viewBox="0 0 959 215" xmlns:xlink="http://www.w3.org/1999/xlink">
 <defs>
  <style type="text/css">
   <![CDATA[
    .fil1 {fill:#265BA7}
    .fil0 {fill:#2C5CA4}
    .fil2 {fill:#2C5CA4;fill-rule:nonzero}
   ]]>
  </style>
 </defs>
 <g id="Capa_x0020_1">
  <metadata id="CorelCorpID_0Corel-Layer"/>
  <g id="_2485999384768">
   <path class="fil0" d="M753 161l20 0 18 -84 1 84 22 0 35 -82 -16 82 20 0 23 -104 -31 0 -36 81 -3 -80c-9,-3 -21,-1 -32,-1l-21 104z"/>
   <path class="fil1" d="M695 76c11,-2 30,-4 38,4 4,10 -2,19 -10,22 -7,2 -26,1 -34,1l6 -27zm-40 85l21 0 9 -41c12,0 27,-1 36,4 2,13 -4,23 -3,37l24 0c-6,-27 12,-40 -6,-49 8,-8 13,-7 18,-19 17,-45 -48,-38 -77,-35l-22 103z"/>
   <path class="fil0" d="M457 161l21 0 10 -46 40 -1 -9 47 21 0 22 -103 -21 -1 -9 39 -40 1 8 -40 -21 0c-3,6 -21,93 -22,104z"/>
   <path class="fil0" d="M5 156c32,3 74,-1 102,-12l-3 -19c-25,2 -48,12 -76,11 6,-29 34,-85 41,-109l8 -19 -17 -8c-22,48 -43,102 -59,154l4 2z"/>
   <path class="fil0" d="M241 82c4,6 6,34 6,40l-26 -1 20 -39zm-12 -16c-1,7 -20,39 -25,47 -6,11 -24,39 -27,48l23 0 11 -21 38 0 3 21 23 0 -14 -104c-5,0 -15,0 -20,0 -7,1 -3,0 -7,3l-5 6z"/>
   <path class="fil1" d="M615 82l3 40 -26 -1 23 -39zm-66 79l22 0 12 -21c53,-1 34,-3 40,20 6,2 16,1 23,1l-14 -103 -26 -1c-6,15 -19,37 -28,51 -5,9 -10,17 -15,26 -4,7 -12,20 -14,27z"/>
   <path class="fil0" d="M906 122c1,-6 18,-38 21,-40l4 40 -25 0zm-45 39l22 0 12 -21c53,0 35,-3 41,20 5,2 15,1 23,1l-14 -103 -26 -1c-9,22 -55,91 -58,104z"/>
   <path class="fil1" d="M75 67l-23 33c5,4 10,9 16,10 20,-22 36,-54 41,-58 4,20 28,97 37,111l19 -5c-6,-20 -30,-74 -36,-106 -2,-10 -5,-26 -7,-39l-18 -3c-6,20 -17,40 -29,57z"/>
   <path class="fil1" d="M407 75c14,0 22,-1 32,4 5,28 -15,27 -39,27l7 -31zm-21 -12c2,13 -17,78 -19,98 7,0 19,0 22,-1l7 -36c29,-1 43,2 58,-17 5,-8 9,-18 8,-29 -1,-13 -8,-16 -17,-20l-54 -1 -5 6z"/>
   <polygon class="fil1" points="284,161 357,161 361,142 310,142 327,57 306,57 "/>
   <circle class="fil1" cx="11" cy="183" r="11"/>
   <circle class="fil1" cx="45" cy="183" r="11"/>
   <circle class="fil1" cx="80" cy="183" r="11"/>
   <circle class="fil1" cx="114" cy="183" r="11"/>
   <circle class="fil1" cx="148" cy="183" r="11"/>
   <path class="fil2" d="M154 0c3,0 6,1 8,2 3,2 5,4 6,6 2,3 2,6 2,9 0,3 0,5 -2,8 -1,2 -3,4 -6,6 -2,1 -5,2 -8,2 -3,0 -6,-1 -8,-2 -3,-2 -5,-4 -6,-6 -2,-3 -2,-5 -2,-8 0,-3 0,-6 2,-9 1,-2 3,-4 6,-6 2,-1 5,-2 8,-2zm0 3c-2,0 -4,1 -6,2 -3,1 -4,3 -5,5 -2,2 -2,4 -2,7 0,2 0,4 2,6 1,2 2,4 4,5 3,1 5,2 7,2 2,0 5,-1 7,-2 2,-1 3,-3 5,-5 1,-2 1,-4 1,-6 0,-3 0,-5 -2,-7 -1,-2 -2,-4 -4,-5 -3,-1 -5,-2 -7,-2zm-7 22l0 -17 3 0c3,0 5,0 6,0 1,0 2,0 2,1 1,0 2,1 2,1 0,1 1,2 1,3 0,1 -1,2 -2,3 0,1 -1,2 -3,2 1,0 1,0 1,0 1,1 1,1 1,2 1,0 1,1 2,2l2 3 -5 0 -1 -2c-1,-2 -2,-3 -3,-4 0,0 -1,-1 -2,-1l-1 0 0 7 -3 0zm3 -9l2 0c2,0 3,-1 3,-1 1,0 1,0 2,-1 0,0 0,0 0,-1 0,0 0,-1 0,-1 -1,-1 -1,-1 -2,-1 0,0 -1,0 -3,0l-2 0 0 5z"/>
   <path class="fil2" d="M664 215l0 -35 7 0 0 29 18 0 0 6 -25 0zm34 -18l-6 -1c1,-2 2,-4 4,-5 1,-2 4,-2 7,-2 3,0 5,0 7,1 1,1 2,1 3,2 1,2 1,4 1,7l0 7c0,3 0,4 0,5 0,1 1,3 1,4l-6 0c-1,-1 -1,-1 -1,-2 0,-1 0,-1 0,-1 -1,1 -3,2 -4,3 -1,0 -3,0 -4,0 -3,0 -5,0 -6,-2 -2,-1 -3,-3 -3,-5 0,-2 1,-3 1,-4 1,-1 2,-2 3,-3 2,0 3,-1 6,-1 3,-1 5,-1 6,-2l0 0c0,-2 0,-3 -1,-3 0,-1 -2,-1 -3,-1 -2,0 -2,0 -3,1 -1,0 -1,1 -2,2zm9 6c-1,0 -2,0 -4,1 -2,0 -3,0 -4,1 0,0 -1,1 -1,2 0,1 1,2 1,3 1,0 2,1 3,1 1,0 2,-1 3,-2 1,0 2,-1 2,-2 0,0 0,-1 0,-3l0 -1zm13 12l0 -35 6 0 0 12c2,-2 5,-3 8,-3 3,0 5,1 7,3 2,2 3,6 3,10 0,4 -1,8 -3,10 -2,2 -4,3 -7,3 -2,0 -3,0 -5,-1 -1,0 -2,-2 -3,-3l0 4 -6 0zm6 -13c0,2 1,4 1,5 2,2 3,3 5,3 2,0 3,-1 4,-2 1,-1 1,-3 1,-6 0,-3 0,-5 -1,-6 -1,-1 -3,-2 -4,-2 -2,0 -3,1 -4,2 -1,1 -2,3 -2,6zm22 0c0,-3 0,-5 1,-7 1,-2 3,-4 5,-5 2,-1 4,-1 7,-1 4,0 7,1 9,3 3,3 4,6 4,10 0,4 -1,7 -4,10 -2,2 -5,3 -9,3 -3,0 -5,0 -7,-1 -2,-1 -4,-3 -5,-5 -1,-2 -1,-4 -1,-7zm7 0c0,3 0,5 1,6 2,1 3,2 5,2 2,0 3,-1 4,-2 1,-1 2,-3 2,-6 0,-2 -1,-4 -2,-6 -1,-1 -2,-2 -4,-2 -2,0 -3,1 -5,2 -1,2 -1,4 -1,6zm30 13l-7 0 0 -26 6 0 0 4c2,-2 3,-3 3,-3 1,-1 2,-1 3,-1 2,0 3,0 5,1l-2 6c-1,-1 -3,-1 -4,-1 0,0 -1,0 -2,1 -1,0 -1,1 -1,2 -1,2 -1,5 -1,9l0 8zm17 -18l-6 -1c1,-2 2,-4 3,-5 2,-2 5,-2 8,-2 3,0 5,0 7,1 1,1 2,1 3,2 0,2 1,4 1,7l0 7c0,3 0,4 0,5 0,1 0,3 1,4l-7 0c0,-1 0,-1 0,-2 0,-1 0,-1 0,-1 -2,1 -3,2 -4,3 -1,0 -3,0 -4,0 -3,0 -5,0 -7,-2 -1,-1 -2,-3 -2,-5 0,-2 1,-3 1,-4 1,-1 2,-2 3,-3 1,0 3,-1 5,-1 4,-1 6,-1 7,-2l0 0c0,-2 0,-3 -1,-3 -1,-1 -2,-1 -4,-1 -1,0 -2,0 -2,1 -1,0 -2,1 -2,2zm9 6c-1,0 -2,0 -4,1 -2,0 -3,0 -4,1 -1,0 -1,1 -1,2 0,1 0,2 1,3 1,0 2,1 3,1 1,0 2,-1 3,-2 1,0 2,-1 2,-2 0,0 0,-1 0,-3l0 -1zm24 -14l0 6 -4 0 0 10c0,2 0,3 0,4 0,0 0,0 0,0 1,1 1,1 2,1 0,0 1,0 2,-1l1 5c-2,1 -4,1 -5,1 -2,0 -3,0 -4,0 -1,-1 -1,-1 -2,-2 0,0 -1,-1 -1,-2 0,-1 0,-3 0,-5l0 -11 -3 0 0 -6 3 0 0 -5 7 -4 0 9 4 0zm3 13c0,-3 0,-5 1,-7 2,-2 3,-4 5,-5 2,-1 4,-1 7,-1 4,0 7,1 9,3 3,3 4,6 4,10 0,4 -1,7 -4,10 -2,2 -5,3 -9,3 -2,0 -5,0 -7,-1 -2,-1 -3,-3 -5,-5 -1,-2 -1,-4 -1,-7zm7 0c0,3 0,5 1,6 2,1 3,2 5,2 2,0 3,-1 4,-2 2,-1 2,-3 2,-6 0,-2 0,-4 -2,-6 -1,-1 -2,-2 -4,-2 -2,0 -3,1 -5,2 -1,2 -1,4 -1,6zm30 13l-7 0 0 -26 7 0 0 4c1,-2 2,-3 3,-3 0,-1 1,-1 2,-1 2,0 3,0 5,1l-2 6c-1,-1 -2,-1 -3,-1 -1,0 -2,0 -3,1 0,0 -1,1 -1,2 -1,2 -1,5 -1,9l0 8zm12 -29l0 -6 7 0 0 6 -7 0zm0 29l0 -26 7 0 0 26 -7 0zm12 -13c0,-3 0,-5 1,-7 1,-2 3,-4 5,-5 2,-1 4,-1 7,-1 4,0 7,1 9,3 3,3 4,6 4,10 0,4 -1,7 -4,10 -2,2 -6,3 -9,3 -3,0 -5,0 -7,-1 -2,-1 -4,-3 -5,-5 -1,-2 -1,-4 -1,-7zm6 0c0,3 1,5 2,6 1,1 3,2 5,2 1,0 3,-1 4,-2 1,-1 2,-3 2,-6 0,-2 -1,-4 -2,-6 -1,-1 -3,-2 -4,-2 -2,0 -4,1 -5,2 -1,2 -2,4 -2,6zm22 6l7 -1c0,1 1,2 2,3 0,0 2,1 3,1 2,0 3,-1 4,-1 1,-1 1,-1 1,-2 0,-1 0,-1 0,-2 -1,0 -1,0 -3,0 -5,-2 -9,-3 -10,-4 -2,-1 -3,-3 -3,-5 0,-3 1,-5 3,-6 1,-2 4,-2 8,-2 3,0 6,0 7,1 2,2 3,3 4,5l-6 2c-1,-1 -1,-2 -2,-3 -1,0 -2,0 -3,0 -2,0 -3,0 -4,0 -1,1 -1,1 -1,2 0,0 0,1 1,1 1,0 3,1 6,2 4,1 6,2 8,3 1,1 2,3 2,5 0,2 -1,4 -3,6 -2,2 -5,2 -9,2 -3,0 -6,0 -8,-2 -2,-1 -3,-3 -4,-5z"/>
  </g>
 </g>
</svg>
