<?xml version="1.0" encoding="UTF-8"?>
<!DOCTYPE svg PUBLIC "-//W3C//DTD SVG 1.0//EN" "http://www.w3.org/TR/2001/REC-SVG-20010904/DTD/svg10.dtd">
<!-- Creator: CorelDRAW X8 -->
<svg xmlns="http://www.w3.org/2000/svg" xml:space="preserve" width="548px" height="400px" version="1.0" style="shape-rendering:geometricPrecision; text-rendering:geometricPrecision; image-rendering:optimizeQuality; fill-rule:evenodd; clip-rule:evenodd"
viewBox="0 0 284 207"
 xmlns:xlink="http://www.w3.org/1999/xlink">
 <defs>
  <style type="text/css">
   <![CDATA[
    .fil1 {fill:#212972}
    .fil0 {fill:#212974}
    .fil2 {fill:#FEFEFF}
    .fil3 {fill:#212974;fill-rule:nonzero}
   ]]>
  </style>
 </defs>
 <g id="Capa_x0020_1">
  <metadata id="CorelCorpID_0Corel-Layer"/>
  <g id="_2486058567184">
   <path class="fil0" d="M104 76c3,1 21,7 23,9 -2,6 -7,26 -12,29 -5,4 -27,2 -19,-17 1,-5 6,-18 8,-21zm36 -2c4,0 21,7 24,9 -2,6 -5,14 -7,21 -3,8 -8,12 -18,9 -18,-7 -3,-25 1,-39zm-61 -23l23 9c-1,7 -5,15 -7,22 -3,8 -7,12 -18,8 -16,-6 -5,-19 2,-39zm52 27l-24 -9c1,-5 5,-15 7,-21 3,-9 9,-13 18,-9 18,7 3,21 -1,39zm36 -2l-23 -9c1,-5 5,-16 7,-21 3,-8 7,-14 18,-10 17,7 3,22 -2,40zm-61 -23c-3,0 -22,-7 -24,-9 3,-9 7,-25 13,-29 3,-3 8,-2 12,-1 18,7 2,26 -1,39zm-5 -49c-27,10 -44,36 -42,66 2,32 30,60 64,60 53,-1 86,-60 51,-106 -16,-21 -49,-30 -73,-20z"/>
   <path class="fil1" d="M0 195l0 8c2,1 5,4 10,2 6,-2 5,-13 6,-22 1,-6 -1,-10 2,-12 3,1 2,2 4,8 7,23 7,34 14,17l9 -18c1,-2 3,-7 6,-6 4,3 -5,29 1,33 6,4 7,-4 7,-8 1,-5 1,-11 1,-16 0,-6 3,-28 1,-31 -2,-3 -8,-4 -11,-1l-11 23c-1,3 -2,4 -3,6 -1,3 -1,5 -3,6 -3,-1 -2,-2 -3,-4l-6 -18c-2,-6 -3,-18 -13,-15 -8,2 -7,12 -8,21l-2 21c0,2 0,5 -1,6z"/>
   <path class="fil1" d="M95 182c0,7 1,12 -5,14 -11,6 -17,-9 -5,-17 2,-1 11,-5 10,3zm2 -22l0 8c-7,3 -15,3 -22,6 -14,7 -16,29 2,32 12,2 18,-6 20,-7 4,2 3,7 10,7 3,-4 3,-22 4,-29 1,-9 4,-23 -3,-27 -4,-2 -53,-3 -24,5 7,2 8,2 13,5z"/>
   <path class="fil1" d="M179 171c-2,0 -3,0 -3,-3 0,-11 15,-13 17,-4 2,9 -4,7 -14,7zm-3 36l16 0c0,-1 1,-2 1,-5 -5,-3 -13,0 -17,-4 -3,-4 -3,-13 0,-17 11,-4 34,7 32,-14 -1,-15 -15,-19 -27,-17 -18,4 -20,13 -21,27 0,7 -3,19 7,27 4,2 7,2 9,3z"/>
   <path class="fil1" d="M161 150c-5,-1 -6,4 -8,8 -10,23 -11,29 -18,10 -2,-8 -3,-22 -14,-18 -11,3 -3,18 -1,23 3,8 7,15 10,23 1,3 2,9 6,10 6,2 7,-3 9,-7 3,-9 5,-16 9,-25 2,-6 9,-20 7,-24z"/>
   <path class="fil1" d="M214 207l4 0c0,0 1,0 1,0 0,0 0,0 0,0 6,-6 4,-10 6,-22 1,-11 0,-20 8,-22 5,0 9,1 13,-1 2,-2 6,-6 2,-10 -7,-5 -17,6 -21,7 -4,1 -7,-8 -11,-8 -4,0 3,-1 -1,1 -4,1 -4,24 -4,29 -1,25 -4,19 3,26z"/>
   <path class="fil2" d="M140 74c-4,14 -19,32 -1,39 10,3 15,-1 18,-9 2,-7 5,-15 7,-21 -3,-2 -20,-9 -24,-9z"/>
   <path class="fil2" d="M104 76c-2,3 -7,16 -8,21 -8,19 14,21 19,17 5,-3 10,-23 12,-29 -2,-2 -20,-8 -23,-9z"/>
   <path class="fil2" d="M79 51c-7,20 -18,33 -2,39 11,4 15,0 18,-8 2,-7 6,-15 7,-22l-23 -9z"/>
   <path class="fil2" d="M106 53c3,-13 19,-32 1,-39 -4,-1 -9,-2 -12,1 -6,4 -10,20 -13,29 2,2 21,9 24,9z"/>
   <path class="fil2" d="M167 76c5,-18 19,-33 2,-40 -11,-4 -15,2 -18,10 -2,5 -6,16 -7,21l23 9z"/>
   <path class="fil2" d="M131 78c4,-18 19,-32 1,-39 -9,-4 -15,0 -18,9 -2,6 -6,16 -7,21l24 9z"/>
   <path class="fil3" d="M273 128c2,0 4,0 5,1 2,1 4,2 5,4 1,2 1,4 1,6 0,2 0,4 -1,6 -1,2 -3,3 -5,4 -1,1 -3,2 -5,2 -2,0 -4,-1 -6,-2 -2,-1 -3,-2 -4,-4 -1,-2 -2,-4 -2,-6 0,-2 1,-4 2,-6 1,-2 2,-3 4,-4 2,-1 4,-1 6,-1zm0 2c-2,0 -3,0 -5,1 -1,1 -2,2 -3,3 -1,2 -2,3 -2,5 0,2 1,3 2,5 0,1 2,2 3,3 2,1 3,1 5,1 1,0 3,0 4,-1 2,-1 3,-2 4,-3 1,-2 1,-3 1,-5 0,-2 0,-3 -1,-5 -1,-1 -2,-2 -4,-3 -1,-1 -3,-1 -4,-1zm-6 15l0 -12 3 0c2,0 4,0 4,0 1,0 1,0 2,1 0,0 1,0 1,1 0,0 0,1 0,2 0,0 0,1 -1,2 0,0 -1,1 -2,1 0,0 1,0 1,0 0,1 0,1 1,1 0,0 0,1 1,2l1 2 -3 0 -1 -2c-1,-1 -1,-2 -2,-2 0,-1 -1,-1 -1,-1l-1 0 0 5 -3 0zm3 -7l1 0c1,0 2,0 3,0 0,0 0,0 0,0 1,-1 1,-1 1,-1 0,-1 0,-1 -1,-1 0,-1 0,-1 0,-1 -1,0 -2,0 -3,0l-1 0 0 3z"/>
  </g>
 </g>
</svg>
