<?xml version="1.0" encoding="UTF-8"?>
<!DOCTYPE svg PUBLIC "-//W3C//DTD SVG 1.0//EN" "http://www.w3.org/TR/2001/REC-SVG-20010904/DTD/svg10.dtd">
<!-- Creator: CorelDRAW X8 -->
<svg xmlns="http://www.w3.org/2000/svg" xml:space="preserve" width="524px" height="400px" version="1.0" style="shape-rendering:geometricPrecision; text-rendering:geometricPrecision; image-rendering:optimizeQuality; fill-rule:evenodd; clip-rule:evenodd"
viewBox="0 0 17935 13682"
 xmlns:xlink="http://www.w3.org/1999/xlink">
 <defs>
  <style type="text/css">
   <![CDATA[
    .fil3 {fill:#005CBD}
    .fil2 {fill:#005CBE}
    .fil5 {fill:#005DBF}
    .fil0 {fill:#FF2B1B}
    .fil4 {fill:#FFFDFD}
    .fil1 {fill:#FFFEFE}
    .fil6 {fill:#005CBE;fill-rule:nonzero}
   ]]>
  </style>
 </defs>
 <g id="Capa_x0020_1">
  <metadata id="CorelCorpID_0Corel-Layer"/>
  <g id="_2486081806640">
   <path class="fil0" d="M7054 11280c249,221 381,521 934,629 455,89 906,-19 1299,-178 952,-383 1300,-822 1971,-1246 -319,776 -3680,3202 -4204,795zm5588 -2711c192,-177 -54,-79 205,-153 -127,378 -602,852 -1057,538 -256,-367 515,-1484 318,-1866l-157 -177 944 -133 -518 1950c156,-34 153,-56 265,-159zm3988 333c294,-660 -588,-810 -653,-1448 -96,-941 1092,-547 1491,-677l-131 734c-85,-73 -9,15 -75,-99l-183 -346c-147,-161 -336,-165 -542,-106 -77,465 156,477 381,743 153,181 354,454 279,813 -167,795 -1067,432 -1548,556 7,-254 39,-587 134,-788l151 285c133,294 331,421 696,333zm-2410 -2103l-233 863c284,-262 637,-1037 1233,-827 340,451 -190,1299 -271,1842 337,-90 122,-177 426,-275 -118,295 -531,822 -967,555 -248,-392 303,-1238 275,-1706 -615,23 -994,1454 -1107,1755l-587 -6c29,-255 206,-781 288,-1052 341,-1131 202,-693 -26,-1033l969 -116zm-1603 -1085c420,-219 711,496 264,646 -420,141 -692,-423 -264,-646zm-790 -32c-152,933 -751,2135 -846,3064 486,-97 115,-290 477,-309 -174,404 -533,782 -1061,535 -124,-601 647,-2204 706,-2942l-226 -208 950 -140zm-1362 -6c-119,907 -751,2128 -844,3059 349,-89 178,-233 479,-313 -163,349 -576,849 -1064,535 -115,-504 615,-2267 708,-2927l-241 -211 962 -143zm1935 -2825c874,-216 1260,452 981,1258 -186,541 -662,1064 -1242,1207 -1682,417 -1288,-2082 261,-2465zm-1835 1625c-642,1396 -3247,1210 -2887,-930 137,-814 681,-1344 1220,-1650 310,-176 720,-321 1146,-316 726,9 368,275 1171,-3 -37,232 -89,425 -138,644 -109,498 -42,408 -212,510 -84,-342 -104,-582 -340,-771 -1196,-961 -2775,2294 -1605,2981 793,466 1354,-417 1645,-465zm-3931 247c-262,-698 200,-2447 511,-3027 196,-365 509,-769 850,-943 461,-237 1048,-168 1275,181 -1982,-432 -2363,2369 -2636,3789zm11301 1766l0 -121c-926,-14 -1736,-105 -2212,430 -356,-397 -227,-409 -956,-423 -569,-10 -802,27 -1339,94 247,-1172 -375,-795 -160,-1343 89,-227 461,-490 587,-1204 100,-567 -89,-1087 -407,-1296 -494,-325 -861,-221 -1432,-107 -651,-628 -427,-407 -285,-1349 -160,1 -338,-7 -495,-2 -221,7 -318,64 -475,94 -159,-28 -2049,-1746 -3568,-892 -1027,577 -1133,2286 -1280,3747 -69,691 -317,2840 126,3407 178,228 526,383 888,234 677,-278 -33,-1450 749,-1637 806,-193 741,338 1196,604 174,102 253,114 311,291 -1291,65 -233,924 -924,2551 -309,727 -1083,1262 -2024,1503 163,1943 1977,2287 3588,1436 1142,-603 2330,-1860 2925,-3055 789,-75 1147,140 1408,-169 271,162 563,258 898,44 341,86 -271,-158 102,69 119,72 -61,4 112,64 203,70 673,-14 1062,14 502,35 876,-193 1092,-488 282,-384 168,-717 177,-885 20,-388 -33,63 111,-267 128,-296 102,-1070 225,-1344z"/>
   <path class="fil1" d="M10565 4476c-291,48 -852,931 -1645,465 -1170,-687 409,-3942 1605,-2981 236,189 256,429 340,771 170,-102 103,-12 212,-510 49,-219 101,-412 138,-644 -803,278 -445,12 -1171,3 -426,-5 -836,140 -1146,316 -539,306 -1083,836 -1220,1650 -360,2140 2245,2326 2887,930z"/>
   <path class="fil2" d="M4911 5767c-155,-1632 -904,-4238 288,-5059 553,-381 922,-281 1593,-200 -762,-703 -2516,-966 -2835,1169 -171,1140 292,2809 792,3843l98 165c9,13 24,31 31,41 8,10 22,27 33,41z"/>
   <path class="fil3" d="M4522 6445c-603,-1119 -2564,-3108 -1887,-4356 234,-433 722,-767 1341,-883 -150,-103 -367,-110 -571,-93 -525,44 -1040,205 -1348,578 -434,527 -195,1521 69,2092 438,943 1541,2121 2396,2662z"/>
   <path class="fil1" d="M12725 2994c288,553 -401,2506 -908,2171 -302,-200 22,-1072 130,-1356 143,-375 302,-928 778,-815zm-325 -143c-1549,383 -1943,2882 -261,2465 580,-143 1056,-666 1242,-1207 279,-806 -107,-1474 -981,-1258z"/>
   <path class="fil1" d="M13251 6915c228,340 367,-98 26,1033 -82,271 -259,797 -288,1052l587 6c113,-301 492,-1732 1107,-1755 28,468 -523,1314 -275,1706 436,267 849,-260 967,-555 -304,98 -89,185 -426,275 81,-543 611,-1391 271,-1842 -596,-210 -949,565 -1233,827l233 -863 -969 116z"/>
   <path class="fil2" d="M4314 7217c-996,-674 -4189,-1926 -3041,-3681 208,-318 361,-331 528,-545 -786,120 -2189,1192 -736,2691 390,402 818,661 1438,955 390,184 1350,526 1811,580z"/>
   <path class="fil3" d="M0 6410l0 547c498,688 880,957 1790,1124 644,117 1956,150 2512,-131 -1057,-126 -3233,-41 -3759,-1205 -276,-609 79,-911 179,-1351 -444,290 -428,540 -722,1016z"/>
   <path class="fil1" d="M9503 5819l241 211c-93,660 -823,2423 -708,2927 488,314 901,-186 1064,-535 -301,80 -130,224 -479,313 93,-931 725,-2152 844,-3059l-962 143z"/>
   <path class="fil1" d="M10877 5822l226 208c-59,738 -830,2341 -706,2942 528,247 887,-131 1061,-535 -362,19 9,212 -477,309 95,-929 694,-2131 846,-3064l-950 140z"/>
   <path class="fil1" d="M16630 8902c-365,88 -563,-39 -696,-333l-151 -285c-95,201 -127,534 -134,788 481,-124 1381,239 1548,-556 75,-359 -126,-632 -279,-813 -225,-266 -458,-278 -381,-743 206,-59 395,-55 542,106l183 346c66,114 -10,26 75,99l131 -734c-399,130 -1587,-264 -1491,677 65,638 947,788 653,1448z"/>
   <path class="fil2" d="M4547 8492c-810,231 -3347,1419 -3844,2 -43,-121 -38,-148 -56,-283l-113 -364c-310,1326 154,1961 1559,1778 869,-113 2100,-660 2454,-1133z"/>
   <path class="fil2" d="M4672 9190c-426,1089 -2560,3214 -4002,1885 112,355 562,692 1064,750 522,60 1150,-136 1529,-378 675,-432 1138,-1135 1387,-1911 88,-272 53,-167 32,-306 -1,-8 -5,-27 -10,-40z"/>
   <path class="fil2" d="M3939 12074c-238,289 -564,720 -962,880 -245,98 -522,126 -799,89 -240,-32 -507,-129 -656,-333 979,35 1617,-505 1926,-1031 -1050,637 -2326,1474 -2807,-449 -195,785 562,1297 774,1634 116,183 238,275 465,372 747,319 1850,-20 2059,-1162z"/>
   <path class="fil0" d="M12725 2994c-476,-113 -635,440 -778,815 -108,284 -432,1156 -130,1356 507,335 1196,-1618 908,-2171z"/>
   <path class="fil1" d="M11951 6911l157 177c197,382 -574,1499 -318,1866 455,314 930,-160 1057,-538 -259,74 -13,-24 -205,153 -112,103 -109,125 -265,159l518 -1950 -944 133z"/>
   <path class="fil4" d="M6634 4723c273,-1420 654,-4221 2636,-3789 -227,-349 -814,-418 -1275,-181 -341,174 -654,578 -850,943 -311,580 -773,2329 -511,3027z"/>
   <path class="fil2" d="M4672 9190c98,-110 44,-26 89,-171 -410,296 -2632,2625 -3413,989 -16,-35 -45,-101 -59,-127 -10,-18 -44,-72 -53,-87l-65 -88c-70,1234 710,1624 1770,1119 767,-364 1222,-1036 1731,-1635z"/>
   <path class="fil4" d="M7054 11280c524,2407 3885,-19 4204,-795 -671,424 -1019,863 -1971,1246 -393,159 -844,267 -1299,178 -553,-108 -685,-408 -934,-629z"/>
   <path class="fil2" d="M3250 13682l431 0c463,-224 568,-91 730,-613l139 189c447,604 1156,264 1323,9 -1059,219 -1129,-61 -1412,-880 -350,812 -546,1266 -1644,978 145,218 217,188 433,317z"/>
   <path class="fil2" d="M5098 11396c-115,412 -261,668 -28,1101 142,262 427,547 726,643 -227,-228 -552,-549 -503,-1116 45,-531 409,-667 738,-905 -676,3 -797,-25 -1405,-107 80,151 286,312 472,384z"/>
   <path class="fil1" d="M12617 5714c-428,223 -156,787 264,646 447,-150 156,-865 -264,-646z"/>
   <path class="fil5" d="M7933 6605c-40,71 -73,-116 -54,142 19,266 -6,36 55,142 411,171 421,-454 -1,-284z"/>
   <path class="fil6" d="M12967 10712c99,0 193,25 284,74 91,50 162,120 214,212 51,92 77,189 77,289 0,100 -25,196 -76,287 -51,90 -122,161 -212,212 -91,51 -187,76 -287,76 -100,0 -195,-25 -286,-76 -91,-51 -161,-122 -212,-212 -51,-91 -77,-187 -77,-287 0,-100 26,-197 78,-289 52,-92 123,-162 214,-212 90,-49 185,-74 283,-74zm1 114c-79,0 -155,20 -228,59 -72,40 -129,96 -171,170 -42,74 -63,152 -63,232 0,81 21,158 61,230 41,74 98,130 171,171 73,41 150,62 230,62 80,0 157,-21 230,-62 73,-41 129,-97 170,-171 41,-72 62,-149 62,-230 0,-80 -21,-158 -63,-232 -42,-74 -99,-130 -171,-170 -73,-39 -149,-59 -228,-59zm-260 769l0 -609 123 0c116,0 181,0 195,1 41,4 72,12 95,25 23,12 42,32 57,58 15,26 23,56 23,87 0,44 -14,82 -43,113 -29,31 -69,51 -121,58 19,7 33,15 43,23 10,8 24,24 41,47 5,6 20,30 45,74l72 123 -154 0 -50 -100c-34,-66 -63,-108 -85,-125 -22,-17 -51,-26 -85,-26l-32 0 0 251 -124 0zm124 -348l50 0c71,0 116,-3 133,-8 17,-5 30,-15 40,-28 10,-14 15,-29 15,-47 0,-16 -5,-32 -14,-45 -10,-13 -24,-22 -42,-28 -18,-5 -62,-8 -132,-8l-50 0 0 164z"/>
  </g>
 </g>
</svg>
