<?xml version="1.0" encoding="UTF-8"?>
<!DOCTYPE svg PUBLIC "-//W3C//DTD SVG 1.0//EN" "http://www.w3.org/TR/2001/REC-SVG-20010904/DTD/svg10.dtd">
<!-- Creator: CorelDRAW X8 -->
<svg xmlns="http://www.w3.org/2000/svg" xml:space="preserve" width="552px" height="400px" version="1.0" style="shape-rendering:geometricPrecision; text-rendering:geometricPrecision; image-rendering:optimizeQuality; fill-rule:evenodd; clip-rule:evenodd"
viewBox="0 0 312 226"
 xmlns:xlink="http://www.w3.org/1999/xlink">
 <defs>
  <style type="text/css">
   <![CDATA[
    .fil1 {fill:#0856A5}
    .fil0 {fill:#2CA8E1}
    .fil2 {fill:#75828A}
   ]]>
  </style>
 </defs>
 <g id="Capa_x0020_1">
  <metadata id="CorelCorpID_0Corel-Layer"/>
  <g id="_2486081807760">
   <path class="fil0" d="M6 168l0 1c4,1 29,-1 37,-2 3,0 9,-1 12,-1 2,2 2,3 4,6l3 6 -13 1c-5,1 -9,1 -14,1 -4,1 -10,1 -14,1 -4,0 -10,1 -13,2l-1 0c0,3 0,3 1,5 6,2 17,-1 27,-1 9,0 17,-2 29,-2 0,17 -3,23 -14,34 -4,4 -8,6 -9,7 7,0 15,-6 20,-10 11,-9 18,-27 12,-43 -5,-12 -21,-33 -30,-45 -9,-14 -23,-35 -22,-52 -6,0 -5,-6 -3,-7 1,-2 2,-2 5,-2 1,-4 5,-9 7,-12 -2,0 -1,0 -2,-1 -2,-2 -3,-5 0,-7 3,-2 10,1 16,-3 5,-3 16,-7 22,-8 4,-1 13,-3 17,-3l0 -3c-36,0 -71,9 -73,48 0,7 4,18 6,24 2,4 3,7 5,11l8 14c7,11 15,22 22,32l-36 4c-6,0 -9,-1 -9,5z"/>
   <path class="fil1" d="M28 54c4,1 16,-1 21,-1 7,-1 16,-1 22,-2 0,0 32,-3 33,-2 1,1 -1,8 -2,9 -2,6 -4,5 -12,5l-50 4c-7,0 -16,0 -22,2 0,5 -1,6 5,5l15 0c7,-1 19,-2 25,-2 8,0 24,-2 31,-2 -2,2 -4,5 -6,6 -7,6 -11,10 -21,17l-22 15c-2,2 -6,5 -8,6 1,4 5,6 6,10 1,0 21,-15 25,-18 15,-10 37,-27 43,-43 6,-12 3,-25 -3,-35 -6,-10 -12,-15 -23,-20 -8,-4 -16,-7 -25,-8 -3,0 -10,0 -6,4 1,0 7,2 8,2 16,5 41,18 41,36 -3,0 -7,0 -10,1 -3,0 -8,0 -11,1l-20 1c-3,0 -6,0 -10,1l-21 2c-5,0 -4,1 -3,6z"/>
   <path class="fil2" d="M85 121l0 2c0,18 41,10 41,25 0,10 -24,13 -35,5 -2,-2 -2,-2 -3,-4 -2,2 -4,3 -5,5 10,15 50,13 50,-6 0,-17 -25,-16 -37,-21 -6,-2 -10,-13 14,-13 3,0 7,1 9,2 2,1 5,4 6,6 1,0 4,-2 6,-3 -8,-11 -13,-11 -27,-11 -9,0 -19,4 -19,13z"/>
   <path class="fil2" d="M135 141c0,7 1,13 6,18 12,10 29,2 35,1l-1 -6c-6,1 -7,4 -21,4 -11,0 -18,-17 -9,-25 9,-8 23,-2 24,6l-25 0 0 7 32 0c0,-13 -7,-23 -18,-23l-4 0c-10,0 -19,8 -19,18z"/>
   <path class="fil1" d="M8 188c-2,-1 -1,0 -2,-2 0,0 0,-1 1,-1 0,-2 0,-1 0,-2l1 0c1,-2 -1,-1 2,-2 0,-3 0,-4 0,-11 -4,0 -2,1 -4,-1l0 -1c-2,-3 0,-6 5,-6 4,-14 17,-22 20,-28 -1,-2 -4,-7 -5,-10 -3,1 -4,3 -5,5 -2,1 -3,3 -5,4l-8 11c-11,18 -11,41 3,58 1,1 3,4 5,4 3,-1 -1,-6 -3,-13 -2,-7 -3,-1 -5,-5z"/>
   <path class="fil2" d="M252 124l1 6c3,0 20,-6 20,7l0 15c0,6 -23,9 -23,-1 0,-6 9,-7 14,-8 7,-1 6,2 6,-7 -8,0 -27,3 -27,15 0,15 19,15 31,9 1,4 4,3 9,3 -1,-4 -4,-2 -4,-10 0,-5 0,-9 0,-14 0,-21 -17,-15 -27,-15z"/>
   <path class="fil2" d="M222 127l0 -3 -6 0 0 39 6 0 0 -29c3,-1 4,-2 6,-3 5,-3 13,-3 14,2 3,0 3,-2 5,-5 -6,-4 -3,-5 -14,-5 -4,0 -8,2 -11,4z"/>
   <path class="fil2" d="M188 127l0 -3 -6 0 0 39 6 0 0 -27c0,-4 9,-7 13,-7 4,0 6,3 8,4l4 -5c-6,-4 -4,-5 -14,-5 -5,0 -8,2 -11,4z"/>
   <polygon class="fil2" points="288,163 295,163 295,109 288,109 "/>
   <path class="fil1" d="M37 104c13,0 10,-31 -4,-23 -3,1 -4,7 -5,10 0,6 4,13 9,13z"/>
   <path class="fil1" d="M152 103c-1,3 0,3 -4,3 -3,0 0,1 -2,0 0,-2 1,-3 6,-3zm-20 6l11 0 0 -2c3,2 2,2 6,2l7 0c-1,-3 -1,-1 -1,-3 -1,-2 0,-4 0,-5 -1,-6 -6,-5 -9,-4l0 2c2,0 3,0 3,0 2,0 2,0 3,1 -7,2 -9,1 -9,6l-8 0 0 -13 -3 0 0 16z"/>
   <path class="fil2" d="M303 156c4,2 1,1 5,5 -6,1 -5,1 -5,-5zm-1 -4l0 7c-3,-1 -3,-5 0,-7zm1 1l3 0 0 2 -3 0 0 -2zm-1 -1c4,-6 13,3 6,7 0,-2 -1,-1 0,-3 0,-2 1,0 0,-4l-6 0zm-4 3c0,11 14,10 14,2 0,-4 0,-9 -7,-9 -4,0 -7,3 -7,7z"/>
   <path class="fil1" d="M163 106l-3 0 0 -6c2,-1 3,-1 6,0 0,2 1,6 -3,6zm-6 3c9,0 12,1 12,-7 0,-5 -5,-6 -9,-5l0 -4 -3 0 0 16z"/>
   <path class="fil1" d="M265 99c0,7 6,3 8,6 0,1 1,1 -3,1 -3,0 -3,-1 -5,-2l-2 3c4,2 13,5 13,-3 0,-2 -2,-2 -4,-3 -2,0 -3,0 -5,-2 9,0 5,2 8,1 7,-1 -10,-8 -10,-1z"/>
   <path class="fil1" d="M203 103c0,3 0,3 -4,3 -2,0 0,1 -2,0 1,-2 1,-3 6,-3zm-6 -4c3,0 3,-1 6,1 -8,2 -9,2 -8,8 3,1 3,1 6,1l6 0c0,-3 -1,-1 -1,-3 -1,-6 2,-10 -7,-10 -2,0 -2,1 -2,3z"/>
   <path class="fil1" d="M180 106c-4,1 -3,1 -7,0l0 -4c0,-5 11,-4 7,4zm-10 -3c0,8 13,8 13,0 0,-9 -13,-8 -13,0z"/>
   <path class="fil1" d="M253 103c0,-4 8,-6 8,0 0,4 -8,5 -8,0zm-3 -1c0,7 3,7 8,7 7,0 8,-13 -1,-13 -3,0 -7,2 -7,6z"/>
   <path class="fil1" d="M220 106c-3,-2 -2,1 -6,0 -3,0 -2,-3 -2,-7l7 0 0 -2 -7 0 0 -3 -2 0 0 3 -3 0 0 2 3 0 0 8c4,3 10,3 10,-1z"/>
   <path class="fil1" d="M235 97l0 12 3 0 0 -9c2,0 1,-1 3,-1 2,1 0,2 4,0 -1,-5 -6,-2 -10,-2z"/>
   <path class="fil1" d="M185 97l0 12 3 0c0,-6 -1,-10 3,-10 2,0 0,2 4,0 -1,-5 -6,-2 -10,-2z"/>
   <path class="fil1" d="M230 106c-6,1 -8,0 -7,-6 5,-2 10,0 7,6zm-10 0l0 0z"/>
   <polygon class="fil1" points="246,109 248,109 248,97 246,97 "/>
  </g>
 </g>
</svg>
