<?xml version="1.0" encoding="UTF-8"?>
<!DOCTYPE svg PUBLIC "-//W3C//DTD SVG 1.0//EN" "http://www.w3.org/TR/2001/REC-SVG-20010904/DTD/svg10.dtd">
<!-- Creator: CorelDRAW X8 -->
<svg xmlns="http://www.w3.org/2000/svg" xml:space="preserve" width="1067px" height="400px" version="1.0" style="shape-rendering:geometricPrecision; text-rendering:geometricPrecision; image-rendering:optimizeQuality; fill-rule:evenodd; clip-rule:evenodd" viewBox="0 0 439 165" xmlns:xlink="http://www.w3.org/1999/xlink">
 <defs>
  <style type="text/css">
   <![CDATA[
    .fil0 {fill:#F8972D;fill-rule:nonzero}
   ]]>
  </style>
 </defs>
 <g id="Capa_x0020_1">
  <metadata id="CorelCorpID_0Corel-Layer"/>
  <path class="fil0" d="M155 141l-26 0 0 -141 26 0 0 141zm284 -116c0,7 -5,12 -12,12 -7,0 -12,-5 -12,-12 0,-7 5,-12 12,-12 7,0 12,5 12,12zm-84 71l0 28c0,0 2,18 20,18l19 0c0,0 19,-3 19,-20l0 -25c0,0 -1,-9 -16,-18l-15 -10c0,0 -3,-3 -3,-10l0 -9c0,0 -1,-7 5,-7 5,0 4,6 4,6l0 21 24 0 0 -26c0,0 -1,-18 -20,-18l-18 0c0,0 -18,1 -18,18l0 26c0,0 -1,7 13,16l14 8c0,0 6,3 6,14l0 12c0,0 0,6 -5,6 0,0 -5,-1 -5,-5l0 -25 -24 0zm-96 -6c0,0 -8,4 -8,7 0,4 0,25 0,25 0,2 1,4 4,4 2,0 4,-2 4,-4l0 -32zm-9 -18l-24 0 0 -27c0,0 1,-19 29,-19 28,0 29,21 29,21l0 94 -22 0 0 -4c0,0 -8,7 -16,6 0,0 -21,-1 -21,-14l0 -30c0,0 -1,-8 11,-15l23 -16 0 -18c0,0 1,-6 -4,-6 -4,0 -5,4 -5,8l0 20zm73 -24c0,-2 -1,-4 -4,-4 -2,0 -4,2 -4,4l0 74c0,2 2,4 4,4 3,0 4,-2 4,-4l0 -74zm-13 -22l0 6c7,-8 17,-7 17,-7 18,0 22,17 22,17l0 86c0,5 -5,14 -16,15 -12,0 -18,-4 -18,-4l0 26 -25 0 0 -139 20 0zm-276 22c0,-2 -2,-4 -5,-4 -2,0 -4,2 -4,4l0 74c0,2 2,4 4,4 3,0 5,-2 5,-4l0 -74zm25 -21l0 115c0,0 2,23 -21,23l-33 0 0 -16 21 0c7,-1 7,-7 8,-11 0,0 -5,5 -16,5 0,0 -18,-2 -18,-15l0 -88c0,0 1,-14 17,-14 14,-1 16,6 16,6l4 -5 22 0zm40 24c0,0 0,-6 -5,-7 -5,0 -5,7 -5,7l0 24 10 0 0 -24zm24 42l-34 0 0 26c0,0 -1,6 5,6 5,0 5,-7 5,-7l0 -21 24 0 0 24c0,0 2,22 -29,22 0,0 -29,0 -29,-21l0 -77c0,0 2,-20 28,-20 0,0 30,0 30,20l0 48zm96 -16l-25 0 0 -27c0,0 0,-7 -4,-7 -4,0 -5,2 -5,8l0 70c0,0 1,5 5,5 3,0 5,-5 5,-5l0 -29 24 0 0 30c0,0 -2,21 -29,21 -27,0 -29,-19 -29,-19l0 -78c0,0 0,-20 29,-20 29,0 29,19 29,19l0 32z"/>
 </g>
</svg>
