<?xml version="1.0" encoding="UTF-8"?>
<!DOCTYPE svg PUBLIC "-//W3C//DTD SVG 1.0//EN" "http://www.w3.org/TR/2001/REC-SVG-20010904/DTD/svg10.dtd">
<!-- Creator: CorelDRAW X8 -->
<svg xmlns="http://www.w3.org/2000/svg" xml:space="preserve" width="1227px" height="400px" version="1.0" style="shape-rendering:geometricPrecision; text-rendering:geometricPrecision; image-rendering:optimizeQuality; fill-rule:evenodd; clip-rule:evenodd"
viewBox="0 0 867 283"
 xmlns:xlink="http://www.w3.org/1999/xlink">
 <defs>
  <style type="text/css">
   <![CDATA[
    .fil0 {fill:#2D3091}
    .fil1 {fill:#2E3192}
    .fil2 {fill:#31318A}
    .fil3 {fill:#34348C}
   ]]>
  </style>
 </defs>
 <g id="Capa_x0020_1">
  <metadata id="CorelCorpID_0Corel-Layer"/>
  <g id="_2486060462976">
   <path class="fil0" d="M266 214l0 1c-2,3 -3,3 -4,7 34,1 58,-1 85,-16 12,-6 20,-14 28,-22 8,-9 13,-17 19,-31l0 67 74 0 0 -108c3,3 6,9 9,13l47 68c3,5 6,9 9,14 3,4 8,10 10,13l66 0c0,-11 1,-210 -1,-216l-73 1 0 102c0,0 0,0 0,0l-27 -38c-3,-4 -7,-9 -8,-13 -11,2 -57,7 -72,8 -22,3 -18,-1 -28,13l-84 116c-4,-2 -15,-13 -20,-15l-15 18c-3,4 -12,16 -15,18z"/>
   <path class="fil0" d="M65 1c-16,6 -22,5 -39,16 -11,7 -20,15 -24,30 -10,34 23,56 39,68 10,8 41,28 47,36 5,7 5,14 -3,17 -15,6 -32,2 -45,-4 -7,-2 -12,-5 -19,-8 -5,-3 -13,-8 -18,-11l0 58c30,13 66,23 100,16 27,-5 54,-17 64,-42 1,-4 2,-8 3,-12l3 3c1,2 1,3 2,4 19,30 46,38 47,40l6 1c1,-7 2,-14 4,-21 4,-29 6,-16 -10,-56 -4,-9 -2,-10 -11,-14 -13,-5 -43,-18 -52,-20l1 25c-3,-2 -3,-3 -5,-5l-12 -12c-19,-16 -37,-27 -56,-42 -5,-3 -18,-13 -6,-18 26,-10 71,13 78,14l0 -50c-27,-13 -60,-16 -94,-13z"/>
   <path class="fil0" d="M733 217c5,0 22,6 40,6 36,0 77,-11 91,-45 5,-13 4,-25 -1,-38 -10,-27 -69,-59 -71,-64 -5,-2 -19,-13 -19,-18 -2,-8 19,-9 27,-9 9,1 20,4 29,7 5,2 9,3 14,5 4,2 9,4 13,5l0 -50c-30,-15 -81,-20 -114,-8 -17,7 -32,17 -39,29 -10,17 -6,40 5,53l16 17c7,5 13,10 20,15 13,9 29,18 40,29 7,8 4,17 -6,20 -31,9 -64,-19 -79,-24l1 57c6,4 32,12 33,13z"/>
   <path class="fil0" d="M164 74l216 -28c-3,-7 -14,-16 -20,-21 -7,-5 -17,-11 -27,-15 -43,-16 -97,-12 -133,16 -14,11 -32,30 -36,48z"/>
   <path class="fil1" d="M623 1c0,39 -4,33 6,67 2,7 4,14 6,20l50 0c3,-5 5,-14 6,-20 2,-6 4,-13 6,-19 2,-10 2,-37 1,-48l-75 0z"/>
   <path class="fil0" d="M260 177c1,-1 1,-1 3,-2 0,-1 0,-1 1,-1 2,-2 0,-1 2,-1 2,-4 16,-17 21,-21l36 -33c8,-9 54,-49 57,-54l-155 30c3,3 32,15 37,16l-2 66z"/>
   <path class="fil0" d="M394 45l74 -10c3,8 19,17 30,20l-34 -50 -70 -1 0 41z"/>
   <path class="fil2" d="M357 251c-1,0 -2,0 -2,5 0,2 0,4 0,6 0,4 0,8 0,12 0,8 0,7 2,8 3,0 2,-1 2,-1 3,-3 -4,-24 8,-27 9,-2 10,4 10,12 0,11 -2,17 3,16 5,-1 -2,-17 4,-25 4,-5 14,-5 15,2 1,7 0,16 1,23l3 0c1,-7 1,-23 -2,-28 -2,-3 -6,-5 -11,-4 -4,1 -7,4 -9,7 -3,-4 -4,-7 -10,-7 -6,0 -8,2 -11,5 -2,-4 2,-4 -3,-4z"/>
   <path class="fil2" d="M275 268c-2,-18 24,-20 26,-3 0,8 -5,13 -11,14 -8,1 -14,-5 -15,-11zm25 -13c-4,-3 -10,-8 -19,-4 -15,7 -12,26 0,30 10,4 15,-1 19,-4 2,4 -2,4 2,5 3,0 3,-2 3,-4l-1 -40 -4 1 0 16z"/>
   <path class="fil2" d="M685 269c-4,-18 23,-21 25,-5 2,17 -23,19 -25,5zm25 -14c-17,-13 -30,1 -30,11 0,8 5,14 10,15 10,4 15,-1 19,-4 2,4 -2,4 3,5 3,0 2,-2 2,-4l0 -40 -4 1 0 16z"/>
   <path class="fil2" d="M215 274l-3 -2c-3,1 -4,4 -9,5 -12,5 -26,-2 -26,-17 0,-8 6,-14 13,-16 11,-4 17,2 22,6 1,-1 1,-1 2,-2 -5,-14 -42,-13 -41,13 0,11 7,18 15,21 9,2 23,0 27,-8z"/>
   <path class="fil2" d="M594 269c-4,-18 23,-21 25,-5 3,18 -22,19 -25,5zm0 10c3,1 4,2 7,3 5,1 7,0 10,0l2 0c0,-1 0,-1 1,-1 0,-1 1,-1 2,-1 1,-1 1,-2 3,-3 1,4 0,4 1,5 4,2 3,-2 3,-2 0,-1 0,-9 0,-10 0,-4 1,-17 -1,-19 -4,0 -2,-1 -3,3l-1 2c-6,-11 -30,-6 -29,11 1,6 4,9 5,12z"/>
   <path class="fil2" d="M317 269c-4,-18 23,-21 25,-5 1,8 -4,14 -10,15 -8,1 -14,-4 -15,-10zm0 9l1 0c1,1 0,0 1,1 1,1 1,1 2,2 4,2 10,2 14,0 2,0 2,0 3,-1 0,0 1,-1 1,-1 2,-1 0,0 2,0 1,-2 -1,-1 1,-2 0,3 0,3 1,5l3 0c0,-2 1,-26 0,-30l0 -1c-6,0 -3,-1 -4,5 -5,-7 -17,-8 -24,-2 -10,9 -5,17 -1,24z"/>
   <path class="fil2" d="M423 255c17,-7 23,18 10,23 -17,6 -25,-18 -10,-23zm9 27l7 -3c2,-3 5,-5 5,-10 2,-14 -12,-23 -24,-18 -15,8 -12,33 12,31z"/>
   <path class="fil2" d="M229 282c3,0 5,1 8,1 3,0 5,-1 7,-1 4,-5 6,-4 7,-14l0 -15c-1,-4 2,-2 -3,-2 -2,1 -1,-1 -1,2l0 12c0,5 0,9 -4,12 -3,2 -8,3 -12,0 -4,-2 -4,-6 -4,-12 0,-4 -1,-10 0,-14l-3 0 -2 0c0,6 0,13 1,18 0,9 3,8 6,13z"/>
   <path class="fil2" d="M667 281l3 -3c0,0 0,0 0,0 3,-11 2,-15 2,-27 -5,0 -3,-1 -4,3l0 15c0,6 -3,10 -9,10 -14,1 -10,-15 -11,-24 0,-1 0,-2 0,-3 -1,-2 0,0 -1,-1l-3 0c0,19 -2,38 23,30z"/>
   <path class="fil2" d="M513 271c2,7 3,9 10,11 10,1 15,-1 17,-8 1,-3 2,-20 0,-23l-3 0c0,12 4,29 -11,28 -12,-1 -9,-14 -9,-24 0,-1 0,-2 0,-3 -1,-2 0,-1 -1,-1l-2 0 -1 20z"/>
   <path class="fil2" d="M450 280l6 2c13,1 14,-8 11,-13 -3,-6 -14,-4 -12,-13 2,-2 4,-3 7,-2 5,2 2,4 6,1 -2,-5 -10,-7 -14,-4 -4,4 -4,11 0,14 4,2 11,4 10,10 -1,7 -9,3 -12,1l-2 4z"/>
   <path class="fil2" d="M564 277c1,3 0,2 3,4 11,7 22,-6 14,-14 -3,-3 -12,-5 -11,-10 1,-9 12,2 13,-2 1,-5 -11,-6 -15,-3 -5,4 -2,11 2,13 3,3 13,5 8,12 -1,2 -5,2 -7,1 -5,-2 -2,-3 -7,-1z"/>
   <path class="fil2" d="M497 277c0,7 2,6 4,3l0 -11c0,-5 0,-10 0,-15 3,0 8,1 6,-2 -1,-3 1,-1 -3,-1 -3,-1 -3,3 -4,-12l-3 0c-1,3 0,8 0,11 -3,1 -2,0 -4,1 -2,0 -1,-1 -2,1 3,4 5,0 6,3l0 22z"/>
   <polygon class="fil3" points="632,282 636,282 636,239 632,239 "/>
   <path class="fil2" d="M259 276c0,2 0,5 2,6 4,-1 2,1 3,-3l-1 -25c0,-5 1,-3 -2,-3 -2,1 -2,-1 -2,3l0 22z"/>
   <path class="fil2" d="M258 243c3,2 4,2 7,-1 0,-5 -3,-5 -7,-3l0 4z"/>
  </g>
 </g>
</svg>
