<?xml version="1.0" encoding="UTF-8"?>
<!DOCTYPE svg PUBLIC "-//W3C//DTD SVG 1.0//EN" "http://www.w3.org/TR/2001/REC-SVG-20010904/DTD/svg10.dtd">
<!-- Creator: CorelDRAW X8 -->
<svg xmlns="http://www.w3.org/2000/svg" xml:space="preserve" width="1077px" height="400px" version="1.0" style="shape-rendering:geometricPrecision; text-rendering:geometricPrecision; image-rendering:optimizeQuality; fill-rule:evenodd; clip-rule:evenodd"
viewBox="0 0 445 165"
 xmlns:xlink="http://www.w3.org/1999/xlink">
 <defs>
  <style type="text/css">
   <![CDATA[
    .fil0 {fill:#73BB20}
    .fil1 {fill:#A47B36}
    .fil2 {fill:#A57D39}
   ]]>
  </style>
 </defs>
 <g id="Capa_x0020_1">
  <metadata id="CorelCorpID_0Corel-Layer"/>
  <g id="_2485893872912">
   <path class="fil0" d="M279 63c28,-10 42,34 15,43 -29,10 -45,-32 -15,-43zm-63 0c29,-9 41,33 15,43 -28,11 -45,-33 -15,-43zm188 0c30,-9 41,34 14,43 -29,10 -43,-34 -14,-43zm-312 0c30,-9 39,36 13,44 -14,3 -27,-6 -29,-17 -3,-14 6,-24 16,-27zm47 17c5,-23 36,-25 44,0l-44 0zm1 -80l-10 1 -2 21c6,2 4,-1 6,4l-7 2 -4 34c-6,-1 -5,-7 -18,-9 -46,-9 -54,63 -8,64 20,1 25,-10 32,-21l3 3c3,5 3,6 8,11 4,3 9,6 16,7 15,2 27,-6 32,-14 -1,-1 -1,-1 -2,-2l-5 -4c-7,4 -11,13 -26,10 -7,-2 -16,-9 -15,-17l50 0c8,11 5,16 18,23 13,7 21,4 33,0 -1,14 -1,30 -11,38 -11,9 -27,4 -31,-7l-12 0c5,19 34,30 51,13 15,-14 9,-34 16,-62 4,5 7,15 20,20 13,5 20,1 30,-4l3 5c10,0 7,1 8,-5 1,-4 1,-13 3,-21l52 0c0,8 -9,15 -16,17 -14,3 -17,-4 -24,-9l-8 4c4,9 16,17 31,15 19,-3 22,-16 27,-21 7,9 7,14 19,19 10,4 21,2 29,-3l2 3c2,2 2,1 10,1 1,-11 7,-49 5,-57 -5,0 -5,-1 -9,1l-2 2c-7,-8 -21,-13 -35,-8 -13,6 -15,12 -21,26l-51 0c4,-20 28,-25 40,-8l9 -4c-4,-9 -15,-17 -29,-16 -14,1 -20,9 -27,16 0,-6 1,-6 -1,-9 -5,0 -4,-1 -8,2l-2 2c-4,-9 -21,-13 -33,-10 -16,5 -17,15 -22,21 -4,-8 -5,-11 -11,-15 -13,-9 -29,-9 -40,0 -10,9 -6,9 -12,15 -3,-10 -12,-19 -25,-21 -21,-4 -25,9 -33,13l7 -66z"/>
   <path class="fil1" d="M85 162c3,-36 -34,-39 -31,-81 3,-31 32,-43 54,-51l6 -3c-72,5 -99,52 -55,98 6,6 25,22 26,37z"/>
   <path class="fil1" d="M47 13c-16,5 -18,37 0,31 14,-4 17,-36 0,-31z"/>
   <path class="fil1" d="M32 88c-1,-30 7,-48 -32,-72 3,2 8,9 11,14 4,5 6,11 8,18 4,14 6,29 13,40z"/>
   <path class="fil2" d="M71 115c6,11 29,21 43,7 -23,3 -25,2 -43,-7z"/>
  </g>
 </g>
</svg>
