<?xml version="1.0" encoding="UTF-8"?>
<!DOCTYPE svg PUBLIC "-//W3C//DTD SVG 1.0//EN" "http://www.w3.org/TR/2001/REC-SVG-20010904/DTD/svg10.dtd">
<!-- Creator: CorelDRAW X8 -->
<svg xmlns="http://www.w3.org/2000/svg" xml:space="preserve" width="1530px" height="400px" version="1.0" style="shape-rendering:geometricPrecision; text-rendering:geometricPrecision; image-rendering:optimizeQuality; fill-rule:evenodd; clip-rule:evenodd"
viewBox="0 0 1148 300"
 xmlns:xlink="http://www.w3.org/1999/xlink">
 <defs>
  <style type="text/css">
   <![CDATA[
    .fil1 {fill:#001285}
    .fil2 {fill:#00135C}
    .fil0 {fill:#CE0000}
   ]]>
  </style>
 </defs>
 <g id="Capa_x0020_1">
  <metadata id="CorelCorpID_0Corel-Layer"/>
  <g id="_2486079597792">
   <path class="fil0" d="M1125 120c-85,-78 -435,-106 -573,-112 -35,-2 -196,-11 -219,-7 -1,6 1,5 9,5l49 2c21,1 42,2 63,4 41,3 82,6 122,9 116,9 350,36 448,83 23,11 73,39 56,73 -51,104 -695,111 -817,112l-199 0c-6,0 -58,-3 -64,1 3,6 10,4 17,4l145 4c218,3 764,13 939,-76 49,-25 64,-62 24,-102z"/>
   <path class="fil1" d="M58 190l-11 -1 0 -36c19,-1 52,-4 52,19 -1,18 -24,18 -41,18zm315 -43l-1 -34c1,1 4,2 5,3l61 100 57 0c2,-15 2,-139 0,-148l-40 0c-3,8 -1,56 0,69 0,5 0,11 0,16 0,2 0,9 0,10 -1,7 2,6 -4,6 -2,-7 -25,-43 -30,-52 -5,-9 -10,-16 -15,-25 -4,-6 -11,-20 -15,-24l-58 0c-2,7 -2,136 -1,148l41 0 0 -69zm-192 -65c-16,11 -19,37 -5,52 12,13 32,17 52,23 38,10 27,30 8,33 -27,6 -55,-7 -63,-7l-3 24c0,9 -1,3 2,5 9,9 71,8 93,1 37,-11 43,-46 28,-65 -18,-23 -59,-19 -74,-32 -5,-5 -6,-13 1,-18 16,-12 56,-1 68,0l2 -27c-26,-8 -91,-9 -102,7l-7 4zm-134 45l0 -32c62,-11 66,40 0,32zm62 13c5,-4 14,-6 21,-11 14,-11 19,-43 -14,-56 -19,-7 -90,-7 -114,-5 -2,7 -2,135 -1,148 28,2 100,2 121,-8 13,-7 26,-18 22,-41 -4,-24 -27,-20 -35,-27z"/>
   <path class="fil2" d="M566 183c28,-15 18,13 20,34l7 -1c1,-8 2,-31 -1,-37 -6,-14 -21,-7 -28,-1 -19,-14 -17,-3 -27,-4 -5,0 2,-2 -8,-2 -1,4 -2,36 0,42 1,3 0,1 1,3l6 0 0 -33c5,-4 8,-6 14,-5 13,2 3,31 8,37 0,0 -2,2 4,1 4,-1 1,2 3,-3 0,-3 -1,-22 1,-31zm174 -26c-10,0 -6,-1 -8,4 2,3 -5,4 8,3l0 -7zm-7 15c-2,8 -1,37 0,45l5 0c3,-5 2,-37 1,-45l-6 0zm144 -17c-9,0 -6,3 -6,12 0,13 -2,44 1,50l5 0c4,-6 1,-23 1,-32l-1 -29c0,-1 0,-1 0,-1zm-81 52c-12,3 -29,12 -29,-13 0,-8 4,-14 10,-16 9,-2 12,3 19,5 0,-7 0,-9 -6,-11 -5,-1 -12,-1 -16,0 -8,2 -14,10 -14,19 -3,23 17,34 36,23l0 -7zm-175 -18c1,-16 24,-17 24,1l-24 -1zm31 18c-13,5 -30,10 -31,-11l32 -1c6,-28 -33,-33 -39,-8 -3,14 1,25 10,29 6,2 13,3 19,2 7,-2 10,-3 9,-11zm167 -8c9,-5 10,-5 22,-5l0 13c-10,4 -24,11 -22,-8zm19 16c0,0 0,0 1,0 3,0 3,2 9,2 1,-8 2,-33 -2,-39 -6,-9 -21,-7 -32,-5l1 8c8,-2 23,-8 25,4 -6,5 -36,1 -29,24 5,17 27,6 27,6zm-136 -34c0,7 2,22 -2,27 -5,4 -16,5 -20,-2 -8,-16 1,-34 22,-25zm0 -8c-11,-2 -19,-4 -26,3 -5,6 -7,16 -6,26 4,25 28,13 28,13 10,-2 -3,4 11,2 1,-11 0,-24 0,-35 0,-25 3,-27 -5,-27 -5,6 -2,5 -2,5l0 13z"/>
  </g>
 </g>
</svg>
