<?xml version="1.0" encoding="UTF-8"?>
<!DOCTYPE svg PUBLIC "-//W3C//DTD SVG 1.0//EN" "http://www.w3.org/TR/2001/REC-SVG-20010904/DTD/svg10.dtd">
<!-- Creator: CorelDRAW X8 -->
<svg xmlns="http://www.w3.org/2000/svg" xml:space="preserve" width="702px" height="400px" version="1.0" style="shape-rendering:geometricPrecision; text-rendering:geometricPrecision; image-rendering:optimizeQuality; fill-rule:evenodd; clip-rule:evenodd" viewBox="0 0 2551 1453" xmlns:xlink="http://www.w3.org/1999/xlink">
 <defs>
  <style type="text/css">
   <![CDATA[
    .fil0 {fill:#FF2C1D}
    .fil3 {fill:#FF817A}
    .fil4 {fill:#FFD9D6}
    .fil2 {fill:#FFDEDD}
    .fil1 {fill:#FFFEFE}
   ]]>
  </style>
 </defs>
 <g id="Capa_x0020_1">
  <metadata id="CorelCorpID_0Corel-Layer"/>
  <g id="_2486079598528">
   <path class="fil0" d="M2285 345c-29,40 -68,14 -62,-18 5,-29 61,-43 62,18zm-1656 797l43 -144c62,-10 138,-30 200,-44 69,-17 135,-31 204,-47 135,-30 274,-62 403,-90 91,-20 664,-135 749,-178 19,-10 27,-13 25,-36 -40,-11 -84,14 -116,26 -47,18 -79,25 -94,-23 -35,23 -83,116 -163,47 -22,15 -39,41 -76,51 -149,37 2,-207 -23,-253 -80,5 -98,221 -141,282l-85 17c14,-59 80,-223 74,-267 -72,-10 -101,194 -138,281l-88 18 62 -196c-31,7 -26,6 -35,35 -5,18 -10,34 -17,51 -12,29 -38,68 -52,83 -21,22 -44,43 -78,56 -58,21 -70,3 -109,-14 -14,24 -32,38 -62,51 -57,26 -54,-4 -88,-14 -23,35 -77,65 -111,47 -16,-8 -14,-17 -22,-34 -29,21 -70,96 -138,65 -96,-44 58,-398 214,-334 10,-23 6,-18 36,-24 19,-3 37,-8 58,-10 -14,79 -118,273 -56,267 17,-2 23,-18 29,-34l64 -198c14,-46 28,-86 41,-130 11,-36 4,-35 40,-47 22,-8 44,-17 65,-22 -10,81 -136,360 -115,401 26,3 42,-11 47,-37 14,-81 27,-120 78,-190 57,-78 216,-155 191,0 50,-10 32,-16 66,-107l85 -7c4,15 -3,3 5,13 13,-16 33,-34 61,-42 38,-10 55,4 64,32 21,-19 44,-45 72,-57 35,-16 75,-13 81,29 9,62 -59,154 -52,215 79,8 9,-47 105,-194 17,-27 48,-61 72,-78 41,-30 64,-38 110,-21 14,-26 39,-25 97,-34 -12,46 -30,94 -45,139 -22,68 -58,131 -3,118 39,-8 97,-41 144,-16 46,24 31,92 -2,120 -50,41 -187,70 -267,91l-844 233c-45,12 -533,151 -565,154zm119 -504l50 -20c-34,46 -49,11 -70,81 -27,91 -82,264 -118,336 -125,247 -330,231 -341,134 -20,-177 318,-413 325,-428l108 -345c-34,25 -76,63 -100,105 -36,63 -41,89 -29,169 -137,23 -99,-129 7,-233 46,-44 177,-142 280,-143l-112 344zm1800 -114c23,-159 -100,-256 -181,-310 -318,-215 -900,-236 -1277,-199 -341,33 -545,49 -790,209 -189,124 -341,358 -290,694 92,605 801,607 1373,441 254,-75 491,-181 692,-306 159,-99 440,-303 473,-529z"/>
   <path class="fil1" d="M825 840c-25,-62 61,-246 120,-231l4 19c0,2 -3,14 -4,17 -3,11 -8,23 -12,35 -7,22 -14,44 -21,67 -14,42 -38,108 -87,93zm448 -89c-19,-72 61,-243 113,-240 28,33 -12,38 -16,66 -5,38 27,11 -2,75 -19,44 -46,103 -95,99zm701 -150c-25,-56 56,-251 122,-231 2,9 -38,252 -122,231zm-1345 541c32,-3 520,-142 565,-154l844 -233c80,-21 217,-50 267,-91 33,-28 48,-96 2,-120 -47,-25 -105,8 -144,16 -55,13 -19,-50 3,-118 15,-45 33,-93 45,-139 -58,9 -83,8 -97,34 -46,-17 -69,-9 -110,21 -24,17 -55,51 -72,78 -96,147 -26,202 -105,194 -7,-61 61,-153 52,-215 -6,-42 -46,-45 -81,-29 -28,12 -51,38 -72,57 -9,-28 -26,-42 -64,-32 -28,8 -48,26 -61,42 -8,-10 -1,2 -5,-13l-85 7c-34,91 -16,97 -66,107 25,-155 -134,-78 -191,0 -51,70 -64,109 -78,190 -5,26 -21,40 -47,37 -21,-41 105,-320 115,-401 -21,5 -43,14 -65,22 -36,12 -29,11 -40,47 -13,44 -27,84 -41,130l-64 198c-6,16 -12,32 -29,34 -62,6 42,-188 56,-267 -21,2 -39,7 -58,10 -30,6 -26,1 -36,24 -156,-64 -310,290 -214,334 68,31 109,-44 138,-65 8,17 6,26 22,34 34,18 88,-12 111,-47 34,10 31,40 88,14 30,-13 48,-27 62,-51 39,17 51,35 109,14 34,-13 57,-34 78,-56 14,-15 40,-54 52,-83 7,-17 12,-33 17,-51 9,-29 4,-28 35,-35l-62 196 88 -18c37,-87 66,-291 138,-281 6,44 -60,208 -74,267l85 -17c43,-61 61,-277 141,-282 25,46 -126,290 23,253 37,-10 54,-36 76,-51 80,69 128,-24 163,-47 15,48 47,41 94,23 32,-12 76,-37 116,-26 2,23 -6,26 -25,36 -85,43 -658,158 -749,178 -129,28 -268,60 -403,90 -69,16 -135,30 -204,47 -62,14 -138,34 -200,44l-43 144z"/>
   <path class="fil1" d="M353 1172c-13,-47 -3,-83 18,-122 19,-36 38,-61 60,-91l143 -159c-13,64 -84,286 -122,330 -37,43 -56,59 -99,42zm507 -878c-103,1 -234,99 -280,143 -106,104 -144,256 -7,233 -12,-80 -7,-106 29,-169 24,-42 66,-80 100,-105l-108 345c-7,15 -345,251 -325,428 11,97 216,113 341,-134 36,-72 91,-245 118,-336 21,-70 36,-35 70,-81l-50 20 112 -344z"/>
   <path class="fil0" d="M353 1172c43,17 62,1 99,-42 38,-44 109,-266 122,-330l-143 159c-22,30 -41,55 -60,91 -21,39 -31,75 -18,122z"/>
   <path class="fil0" d="M1974 601c84,21 124,-222 122,-231 -66,-20 -147,175 -122,231z"/>
   <path class="fil0" d="M825 840c49,15 73,-51 87,-93 7,-23 14,-45 21,-67 4,-12 9,-24 12,-35 1,-3 4,-15 4,-17l-4 -19c-59,-15 -145,169 -120,231z"/>
   <path class="fil0" d="M1273 751c49,4 76,-55 95,-99 29,-64 -3,-37 2,-75 4,-28 44,-33 16,-66 -52,-3 -132,168 -113,240z"/>
   <path class="fil2" d="M2228 332c12,-19 7,-14 26,-22 16,10 12,7 26,22 -8,12 -15,18 -26,24 -13,-5 -19,-8 -26,-24zm57 13c-1,-61 -57,-47 -62,-18 -6,32 33,58 62,18z"/>
   <path class="fil3" d="M2241 342c0,-39 -5,-15 13,-24 20,10 9,-15 13,24 -1,1 -2,0 -3,1l-14 1c-1,0 -2,0 -3,0 -1,0 -2,-1 -3,-1 0,0 -2,0 -3,-1zm13 14c11,-6 18,-12 26,-24 -14,-15 -10,-12 -26,-22 -19,8 -14,3 -26,22 7,16 13,19 26,24z"/>
   <path class="fil4" d="M2267 342c-4,-39 7,-14 -13,-24 -18,9 -13,-15 -13,24 1,1 3,1 3,1 1,0 2,1 3,1 1,0 2,0 3,0l14 -1c1,-1 2,0 3,-1z"/>
  </g>
 </g>
</svg>
