<?xml version="1.0" encoding="UTF-8"?>
<!DOCTYPE svg PUBLIC "-//W3C//DTD SVG 1.0//EN" "http://www.w3.org/TR/2001/REC-SVG-20010904/DTD/svg10.dtd">
<!-- Creator: CorelDRAW X8 -->
<svg xmlns="http://www.w3.org/2000/svg" xml:space="preserve" width="1379px" height="400px" version="1.0" style="shape-rendering:geometricPrecision; text-rendering:geometricPrecision; image-rendering:optimizeQuality; fill-rule:evenodd; clip-rule:evenodd"
viewBox="0 0 12889 3738"
 xmlns:xlink="http://www.w3.org/1999/xlink">
 <defs>
  <style type="text/css">
   <![CDATA[
    .fil0 {fill:#0274BA}
   ]]>
  </style>
 </defs>
 <g id="Capa_x0020_1">
  <metadata id="CorelCorpID_0Corel-Layer"/>
  <path class="fil0" d="M2291 2820c54,192 170,782 216,913l99 -3 108 -446c28,-208 112,-510 165,-756 59,-279 157,-627 209,-893 13,-64 46,-255 80,-287 16,49 26,505 33,596 7,98 -3,204 16,292 16,71 9,216 11,299 6,216 47,1005 37,1188 66,4 128,-17 214,-17 79,-1 142,16 207,23l-36 -445c-12,-143 -8,-324 -25,-470 -16,-141 -22,-317 -27,-457 -5,-160 -18,-307 -20,-476 -3,-254 -48,-619 -55,-915 -4,-152 -22,-308 -25,-463 -2,-88 3,-405 -40,-442 -34,-36 24,6 -97,10 -53,2 -85,-10 -124,-13 -54,203 -80,426 -129,624 -14,56 -17,100 -34,154l-282 1227c-11,46 -21,103 -35,155 -27,98 -44,247 -89,296 -44,-112 -276,-1124 -294,-1206 -22,-104 -40,-201 -69,-296l-130 -624c-27,-136 -42,-155 -61,-315 -13,-4 -237,-12 -241,-11 -46,392 -32,934 -84,1364 -18,152 -13,315 -29,458 -30,291 -21,617 -55,909l-63 927c184,-17 159,17 210,5l39 -1119c10,-194 16,-373 21,-570l25 -401c2,-21 3,-37 4,-63l12 -66c1,-2 3,-6 5,-9 24,9 17,-6 37,65l140 587c24,97 52,208 79,321 28,115 65,215 77,350zm3179 -2762c-32,244 18,635 18,885l1 1902c-1,73 -17,80 -17,142l-6 744c83,3 145,-24 223,-23 80,1 128,33 203,28 20,-127 -11,-956 -20,-1165l0 -1367c4,-249 39,-969 22,-1154 -8,1 -118,32 -204,34 -66,1 -158,-25 -220,-26zm3609 3210c-58,21 -407,70 -489,53l-5 -1333c171,-17 428,54 547,34l0 -446c-171,-24 -403,39 -546,23l0 -1121 205 -3c346,16 382,161 351,-174 -18,-188 47,-240 -54,-244l-177 13c-225,3 -384,6 -607,-11 -11,0 -52,-3 -60,-3 -52,1 -30,-11 -52,15 -18,20 -1,364 0,432 2,131 1,315 9,451 22,362 15,1452 0,1831 -6,151 -1,310 -5,463 -3,154 -12,329 -5,481 147,-18 325,-29 475,-15 73,7 429,32 469,9 1,-3 3,-10 3,-8l3 -253c0,-45 2,-88 3,-132 1,-65 0,-68 -65,-62zm-8185 -976c-40,30 -160,12 -220,13 -308,0 -174,36 -113,-542 5,-42 15,-52 23,-93 24,-128 70,-482 126,-565 12,26 45,248 55,292 44,194 70,417 105,609 14,77 57,252 24,286zm-234 -2188c15,48 -39,333 -58,406 -34,131 -30,319 -80,507l-50 284c-40,114 -77,436 -115,593 -13,55 -25,163 -36,229l-304 1518 -17 87c64,6 62,-8 116,-10 59,-2 64,16 118,11l15 -59c1,-3 2,-6 3,-8l10 -47c29,-247 87,-563 128,-813 8,-46 2,-121 31,-141 81,-31 468,-22 558,-2 39,166 147,1020 171,1069 80,10 137,-11 213,-11 72,-1 165,20 219,11 3,-56 -31,-159 -43,-218 -15,-77 -25,-147 -43,-230l-439 -2329c-35,-143 -57,-319 -86,-468l-81 -482 -192 -1c-12,34 -16,76 -38,104zm9178 268c75,-28 172,8 216,45 165,141 161,459 159,680 -2,144 -25,386 -71,498 -42,100 -160,245 -324,211 -9,-156 -3,-1378 20,-1434zm-322 -307l-71 -5c-30,51 6,364 6,431l14 1402c1,298 -3,621 -8,927 -2,151 -12,312 -12,452 -1,116 -24,370 -9,460 73,-1 103,-22 187,-24 84,-2 148,20 215,17l-8 -1571c10,-60 -6,-22 25,-53l123 400c25,68 38,133 58,202l175 608c30,99 71,352 113,415 67,3 135,-18 214,-18 88,-1 140,17 218,18 -7,-77 -39,-158 -60,-236 -6,-24 -10,-31 -16,-55 -24,-93 6,-18 -23,-81 -7,-16 -4,-7 -11,-25l-50 -165c-15,-41 -24,-71 -35,-107l-171 -553c-34,-103 -181,-536 -168,-575 2,-3 5,-10 7,-8l141 -124c251,-265 265,-806 215,-1161 -16,-112 -50,-233 -105,-324 -20,-35 -41,-59 -54,-97 -39,-12 -38,-37 -72,-62 -21,-15 -65,-36 -94,-50 -244,-116 -499,-10 -744,-38zm-5151 3344c-10,-154 -18,-1387 6,-1444 75,-29 172,12 215,46 247,201 251,1175 3,1384 -66,55 -155,66 -224,14zm0 -1748c-17,-242 0,-1030 14,-1290 193,-26 269,55 320,193 39,104 63,327 51,461 -26,303 -22,651 -385,636zm-380 -909c0,382 13,2511 -8,2692 -46,387 2,273 203,273 284,2 548,79 726,-111 31,-34 68,-79 94,-119 87,-132 119,-363 153,-513 52,-221 21,-845 -214,-1068 -123,-117 -246,-93 -316,-123 39,-70 183,11 373,-285 186,-290 272,-1441 -412,-1444 -229,-1 -224,26 -499,4 -114,-9 -154,-92 -105,339 11,98 5,252 5,355zm3495 1284c-7,44 -11,180 -13,226 -3,78 -3,160 -10,237 -25,268 -128,672 -352,845 -67,52 -85,49 -183,72 -80,19 -121,14 -201,-5 -61,-15 -49,-13 -50,-198 0,-163 0,-325 0,-488l3 -2295c7,-55 16,-45 72,-49 168,-13 269,-5 388,80 182,131 271,390 307,653 28,208 72,723 39,922zm-1212 -1794c16,49 23,3248 1,3331l-5 156c141,17 700,8 832,-23 475,-111 632,-593 731,-1000 14,-57 15,-132 27,-191l37 -634c0,-527 -48,-1087 -267,-1471 -301,-529 -781,-299 -1258,-341 -105,-10 -105,-54 -98,173zm5060 -120c-39,-54 -21,-63 -245,-50 -20,298 -25,630 -57,922 -7,69 -6,158 -8,234 -1,76 -15,154 -21,225 -7,78 0,160 -4,238 -4,70 -21,153 -24,225 -5,178 16,98 -16,275 -19,103 -51,836 -82,1076l-29 461c44,1 60,-13 100,-14 114,-3 114,72 113,-121l15 -452c1,-221 30,-972 52,-1167 17,-149 -7,-463 46,-564 16,29 61,265 74,317l158 631c21,101 57,234 75,343l236 1025c107,3 104,16 120,-82l166 -718c8,-23 12,-30 13,-33 8,-28 6,-51 13,-83 11,-51 11,-11 19,-73 9,-63 13,-105 28,-157 58,-193 82,-423 144,-602l106 -467c28,-126 10,-114 49,-128 41,47 21,206 24,285 3,103 6,193 11,297l75 1754c15,12 -21,14 41,12 22,-1 20,-6 46,-12 128,-31 247,15 322,12 11,-67 -50,-769 -60,-904l-38 -823c-31,-212 -90,-1374 -100,-1715 -5,-168 6,-226 -75,-220 -86,7 -158,-9 -175,7l-131 619c-21,107 -48,204 -70,310l-319 1352c-29,108 8,106 -56,136 -42,-137 -46,-217 -69,-303 -25,-91 -63,-203 -74,-297 -6,-54 -4,-33 -17,-75l-193 -802c-33,-148 -59,-309 -98,-447 -26,-89 -93,-391 -85,-447z"/>
 </g>
</svg>
