<?xml version="1.0" encoding="UTF-8"?>
<!DOCTYPE svg PUBLIC "-//W3C//DTD SVG 1.0//EN" "http://www.w3.org/TR/2001/REC-SVG-20010904/DTD/svg10.dtd">
<!-- Creator: CorelDRAW X8 -->
<svg xmlns="http://www.w3.org/2000/svg" xml:space="preserve" width="1154px" height="400px" version="1.0" style="shape-rendering:geometricPrecision; text-rendering:geometricPrecision; image-rendering:optimizeQuality; fill-rule:evenodd; clip-rule:evenodd"
viewBox="0 0 497 172"
 xmlns:xlink="http://www.w3.org/1999/xlink">
 <defs>
  <style type="text/css">
   <![CDATA[
    .fil1 {fill:#016AB4}
    .fil0 {fill:#348CC7}
    .fil2 {fill:gray}
    .fil4 {fill:#B0DEEF}
    .fil3 {fill:white}
    .fil5 {fill:gray;fill-rule:nonzero}
   ]]>
  </style>
 </defs>
 <g id="Capa_x0020_1">
  <metadata id="CorelCorpID_0Corel-Layer"/>
  <g id="_2486002986304">
   <path class="fil0" d="M268 54c1,3 3,6 3,10 1,1 2,7 2,9l-1 10c0,3 -1,8 -2,10l20 0c0,-4 0,-17 1,-20l7 0 0 44 -8 0 0 -21 -22 0 0 21 -8 0 0 -10c-1,2 0,1 -2,3 -4,3 -8,6 -13,7 1,6 3,10 5,14 1,2 2,4 3,6 2,2 3,3 5,5 15,2 36,-7 43,-24 13,-28 -4,-51 -18,-74 -1,-3 -3,-5 -4,-8 -2,2 -4,6 -6,9 -1,3 -3,6 -5,9z"/>
   <path class="fil0" d="M221 120c8,0 18,0 24,-3 0,-6 -2,-14 2,-21 -8,2 -10,0 -17,1l0 20 -7 0 0 -44c5,0 13,-1 18,0 8,1 9,5 12,7l15 -26c-1,-3 -14,-27 -17,-31 -1,-2 0,-1 -2,-2 -1,8 -32,46 -34,70 -2,11 1,21 6,29z"/>
   <path class="fil1" d="M397 78l0 40 3 -1 0 -36c2,3 1,0 3,5 1,1 1,3 2,4 2,4 12,27 15,27 3,-2 15,-32 19,-36l0 36 8 0 0 -44 -8 0c-2,4 -6,12 -9,17l-6 13c-1,2 -1,3 -3,4 -4,-10 -14,-28 -17,-34l-8 0 1 5z"/>
   <path class="fil2" d="M165 94c0,-4 -1,-16 0,-18 4,-1 8,-1 12,1 2,1 4,4 4,8 0,8 -8,9 -16,9zm-7 -16l-1 39 8 0 0 -21c6,0 5,-1 12,9 2,2 3,4 4,6 2,2 4,5 5,7l9 -1 -16 -21c0,-1 14,-5 9,-16 -3,-9 -21,-8 -30,-7l0 5z"/>
   <path class="fil1" d="M362 75c5,0 16,-1 15,10 0,9 -9,9 -16,9l1 -19zm-8 42l7 0 0 -21c6,0 5,-1 12,9l9 12 9 0c-2,-3 -14,-18 -16,-21 3,-3 6,-1 9,-7 3,-4 2,-9 -1,-12 -5,-5 -21,-6 -29,-4l0 44z"/>
   <path class="fil3" d="M270 93c-3,0 -2,0 -2,-1l0 -19 -8 0 0 34 0 10 8 0 0 -21 22 0 0 21 8 0 0 -44 -7 0c-1,3 -1,16 -1,20l-20 0z"/>
   <path class="fil4" d="M249 21c2,1 1,0 2,2 3,4 16,28 17,31l0 0c2,-3 4,-6 5,-9 2,-3 4,-7 6,-9 -2,-2 -4,-5 -5,-8 -3,-5 -12,-22 -14,-28l-11 21z"/>
   <path class="fil1" d="M253 80c0,4 2,6 0,10 -2,3 -3,4 -6,6 -4,7 -2,15 -2,21l0 0c5,-1 9,-4 13,-7 2,-2 1,-1 2,-3l0 -34 8 0 0 19c0,1 -1,1 2,1 1,-2 2,-7 2,-10l1 -10c0,-2 -1,-8 -2,-9 0,-4 -2,-7 -3,-10l0 0 -15 26z"/>
   <path class="fil3" d="M231 76c22,-3 18,26 -1,18l1 -18zm16 20c3,-2 4,-3 6,-6 2,-4 0,-6 0,-10 -3,-2 -4,-6 -12,-7 -5,-1 -13,0 -18,0l0 44 7 0 0 -20c7,-1 9,1 17,-1z"/>
   <path class="fil2" d="M39 106l-4 2c1,4 5,8 9,9 6,3 21,2 23,-9 2,-10 -9,-14 -17,-18 -21,-12 4,-22 11,-10 0,1 0,1 1,2 0,0 0,1 0,1 0,0 0,0 0,0 0,0 0,1 0,1l4 -2c-5,-16 -29,-13 -30,2 0,14 29,14 24,27 -1,4 -7,5 -12,4 -6,-2 -5,-4 -9,-9z"/>
   <path class="fil1" d="M316 100c1,-3 3,-7 4,-9 1,-2 1,-3 2,-5l2 -4 8 18 -16 0zm-12 18l3 -1 7 -14 19 -1c1,1 1,2 2,4 1,1 1,2 2,4 1,2 2,5 4,7l7 0c-1,-3 -15,-33 -18,-40 -5,-10 -5,-4 -10,5l-16 36z"/>
   <path class="fil1" d="M465 100c0,-3 3,-7 4,-9l4 -8c0,-1 0,-1 0,-1l8 18 -16 0zm-12 18l3 -1c2,-3 6,-14 8,-15l18 0c1,2 6,13 7,15l8 0c-1,-3 -4,-7 -5,-11 -2,-4 -4,-8 -6,-12l-9 -20c-1,-2 -1,-2 -2,-2 -2,0 -3,3 -3,5 -4,8 -17,34 -19,41z"/>
   <path class="fil2" d="M118 78l0 39 27 0c3,0 4,1 4,-1 0,-2 -3,-1 -5,-1 -2,0 -4,-1 -6,-1 -4,0 -8,0 -12,1l0 -21 16 1c-1,-5 -2,-4 -16,-4l0 -16 23 0 0 -2c-2,-1 -27,0 -31,0l0 5z"/>
   <path class="fil2" d="M0 78l0 39 30 0c0,0 0,0 1,0 0,0 0,0 0,0l0 -2 -23 -1 0 -19c2,0 5,0 7,0 5,-1 7,0 8,-1l0 -2c-1,-1 -13,0 -16,0l1 -16 20 0c3,0 3,0 3,-3 -1,0 0,0 -1,0 -1,0 -2,0 -3,0l-27 0 0 5z"/>
   <path class="fil4" d="M221 120c1,3 3,6 6,8 2,4 4,5 8,7 5,3 14,7 23,7 -2,-2 -3,-3 -5,-5 -1,-2 -2,-4 -3,-6 -2,-4 -4,-8 -5,-14l0 0c-6,3 -16,3 -24,3z"/>
   <path class="fil2" d="M71 73c1,4 0,2 9,3 2,0 5,0 7,-1l1 42 7 0 0 -42 16 0 0 -2 -38 0c-2,0 -1,0 -2,0z"/>
   <path class="fil2" d="M200 78c0,13 0,26 0,39 4,0 4,1 7,0 0,0 0,0 0,0 0,0 1,0 1,0 0,-11 0,-32 0,-44l-8 -1 0 6z"/>
   <path class="fil0" d="M230 94c19,8 23,-21 1,-18l-1 18z"/>
   <path class="fil5" d="M2 160l0 12 -2 0 0 -12 2 0zm8 0l1 0 6 8 0 -8 1 0 0 12 -1 0 -5 -9 0 9 -2 0 0 -12zm16 0l2 0 5 8 0 -8 1 0 0 12 -1 0 -5 -9 0 9 -2 0 0 -12zm23 -1c1,0 3,1 4,2 1,2 2,3 2,5 0,2 -1,3 -2,4 -1,2 -3,2 -4,2 -2,0 -4,0 -5,-2 -1,-1 -2,-2 -2,-4 0,-2 1,-3 2,-5 1,-1 3,-2 5,-2zm0 2c-2,0 -3,1 -4,1 -1,1 -1,2 -1,4 0,1 0,2 1,3 1,1 2,2 4,2 1,0 2,-1 3,-2 1,-1 1,-2 1,-3 0,-2 0,-3 -1,-4 -1,0 -2,-1 -3,-1zm17 11l-4 -12 1 0 4 9 3 -9 2 0 -5 12 -1 0zm18 -6l-1 -3 -1 3 2 0zm-1 -6l5 12 -2 0 -2 -4 -3 0 -2 4 -1 0 4 -12 1 0zm12 0l1 0 5 8 0 -8 2 0 0 12 -1 0 -6 -9 0 9 -1 0 0 -12zm18 1l0 9c1,0 2,0 3,-1 1,-1 1,-2 1,-3 0,-1 0,-3 -1,-4 -1,0 -2,-1 -3,-1zm-1 -1c2,0 4,0 5,1 1,2 2,3 2,5 0,2 -1,3 -2,4 -1,1 -3,2 -5,2l-1 0 0 -12 1 0zm21 -1c1,0 3,1 4,2 1,2 2,3 2,5 0,2 -1,3 -2,4 -1,2 -3,2 -4,2 -2,0 -4,0 -5,-2 -1,-1 -2,-2 -2,-4 0,-2 1,-3 2,-5 1,-1 3,-2 5,-2zm0 2c-2,0 -3,1 -4,1 -1,1 -1,2 -1,4 0,1 0,2 1,3 1,1 2,2 4,2 1,0 2,-1 3,-2 1,-1 1,-2 1,-3 0,-2 0,-3 -1,-4 -1,0 -2,-1 -3,-1z"/>
   <path class="fil5" d="M160 166c-1,-1 -2,-1 -3,-2 0,0 0,-1 0,-2 0,0 0,-1 0,-2 1,0 2,-1 2,-1 1,0 2,1 3,1 0,1 0,1 0,2l-1 0c0,0 0,0 -1,-1 0,0 0,0 -1,0 0,0 0,0 0,0 -1,1 -1,1 -1,1 0,1 0,1 1,1 0,1 0,1 1,1 1,0 2,1 2,2 1,0 1,1 1,2 0,1 0,2 -1,3 -1,1 -1,1 -3,1 -1,0 -2,0 -2,-1 -1,-1 -1,-1 -1,-2l1 -1c0,1 0,2 1,2 0,0 1,1 1,1 1,0 2,-1 2,-1 1,-1 1,-1 1,-2 0,0 0,-1 -1,-1 0,-1 -1,-1 -1,-1zm16 -7c2,0 3,1 5,2 1,2 1,3 1,5 0,2 0,3 -1,4 -2,2 -3,2 -5,2 -2,0 -3,0 -4,-2 -2,-1 -2,-2 -2,-4 0,-2 0,-3 2,-5 1,-1 2,-2 4,-2zm0 2c-1,0 -2,1 -3,1 -1,1 -2,2 -2,4 0,1 1,2 2,3 1,1 2,2 3,2 1,0 3,-1 3,-2 1,-1 2,-2 2,-3 0,-2 -1,-3 -2,-4 0,0 -2,-1 -3,-1zm14 11l0 -12 1 0 0 10 5 0 0 2 -6 0zm19 -12l2 0 0 8c0,1 -1,2 -1,3 -1,1 -2,1 -3,1 -2,0 -3,0 -3,-1 -1,-1 -2,-2 -2,-3l0 -8 2 0 0 8c0,1 0,1 1,2 0,0 1,1 2,1 0,0 1,-1 1,-1 1,-1 1,-1 1,-2l0 -8zm19 9l1 1c-1,1 -3,2 -5,2 -1,0 -3,0 -4,-2 -1,-1 -2,-2 -2,-4 0,-2 1,-3 2,-5 1,-1 3,-2 4,-2 2,0 4,1 5,2l-1 2c-1,-1 -2,-2 -4,-2 -1,0 -2,1 -3,1 -1,1 -1,3 -1,4 0,1 0,2 1,3 1,1 2,2 3,2 2,0 3,-1 4,-2zm10 -9l0 12 -2 0 0 -12 2 0zm13 -1c2,0 4,1 5,2 1,2 2,3 2,5 0,2 -1,3 -2,4 -1,2 -3,2 -5,2 -1,0 -3,0 -4,-2 -1,-1 -2,-2 -2,-4 0,-2 1,-3 2,-5 1,-1 3,-2 4,-2zm0 2c-1,0 -2,1 -3,1 -1,1 -1,2 -1,4 0,1 0,2 1,3 1,1 2,2 3,2 2,0 3,-1 4,-2 1,-1 1,-2 1,-3 0,-2 0,-3 -1,-4 -1,0 -2,-1 -4,-1zm14 -1l1 0 6 8 0 -8 1 0 0 12 -1 0 -5 -9 0 9 -2 0 0 -12zm22 0l0 1 -5 0 0 4 5 0 0 2 -5 0 0 3 5 0 0 2 -6 0 0 -12 6 0zm11 6c-1,-1 -2,-1 -3,-2 0,0 0,-1 0,-2 0,0 0,-1 0,-2 1,0 2,-1 3,-1 0,0 1,1 2,1 0,1 0,1 0,2l-1 0c0,0 0,0 -1,-1 0,0 0,0 0,0 -1,0 -1,0 -1,0 -1,1 -1,1 -1,1 0,1 0,1 1,1 0,1 0,1 1,1 1,0 2,1 2,2 1,0 1,1 1,2 0,1 0,2 -1,3 -1,1 -1,1 -2,1 -2,0 -2,0 -3,-1 -1,-1 -1,-1 -1,-2l1 -1c0,1 1,2 1,2 0,0 1,1 2,1 0,0 1,-1 1,-1 1,-1 1,-1 1,-2 0,0 0,-1 -1,-1 0,-1 -1,-1 -1,-1z"/>
   <path class="fil5" d="M321 168l0 4 -1 0 0 -12 3 0c1,0 2,0 3,1 1,1 1,2 1,3 0,1 0,2 -1,3 -1,1 -2,1 -3,1l-2 0zm0 -7l0 6 2 0c1,0 1,-1 2,-1 0,-1 0,-1 0,-2 0,-1 0,-1 0,-2 -1,0 -1,-1 -2,-1l-2 0zm18 5l-2 -3 -1 3 3 0zm-1 -6l4 12 -1 0 -2 -4 -3 0 -2 4 -2 0 5 -12 1 0zm13 1l0 6 2 0c0,0 1,-1 2,-1 0,-1 0,-1 0,-2 0,-1 0,-1 0,-2 -1,0 -2,-1 -2,-1l-2 0zm2 7l-2 0 0 4 -1 0 0 -12 3 0c1,0 2,0 3,1 0,1 1,2 1,3 0,1 -1,2 -1,3 -1,1 -1,1 -2,1l3 4 -2 0 -2 -4zm17 -2l-1 -3 -2 3 3 0zm-1 -6l4 12 -1 0 -2 -4 -3 0 -2 4 -1 0 4 -12 1 0z"/>
   <path class="fil5" d="M391 172l0 -12 2 0 0 11 4 0 0 1 -6 0zm18 -6l-1 -3 -1 3 2 0zm-1 -6l5 12 -2 0 -2 -4 -3 0 -1 4 -2 0 4 -12 1 0z"/>
   <path class="fil5" d="M433 166c-1,-1 -2,-1 -2,-2 -1,0 -1,-1 -1,-2 0,0 0,-1 1,-2 0,0 1,-1 2,-1 1,0 1,1 2,1 0,1 1,1 1,2l-2 0c0,0 0,0 0,-1 0,0 -1,0 -1,0 0,0 -1,0 -1,0 0,1 0,1 0,1 0,1 0,1 0,1 0,1 1,1 1,1 1,0 2,1 3,2 0,0 1,1 1,2 0,1 -1,2 -1,3 -1,1 -2,1 -3,1 -1,0 -2,0 -3,-1 0,-1 -1,-1 -1,-2l2 -1c0,1 0,2 0,2 1,0 1,1 2,1 1,0 1,-1 2,-1 0,-1 0,-1 0,-2 0,0 0,-1 0,-1 -1,-1 -1,-1 -2,-1zm16 0l-1 -3 -1 3 2 0zm-1 -6l5 12 -2 0 -1 -4 -4 0 -1 4 -2 0 4 -12 1 0zm12 12l0 -12 1 0 0 10 5 0 0 2 -6 0zm20 -12l1 0 0 8c0,1 0,2 -1,3 -1,1 -2,1 -3,1 -1,0 -2,0 -3,-1 -1,-1 -1,-2 -1,-3l0 -8 1 0 0 8c0,1 1,1 1,2 1,0 1,1 2,1 1,0 1,-1 2,-1 0,-1 1,-1 1,-2l0 -8zm10 1l0 9c2,0 3,0 4,-1 0,-1 1,-2 1,-3 0,-1 -1,-3 -1,-4 -1,0 -2,-1 -4,-1zm0 -1c2,0 4,0 5,1 1,2 2,3 2,5 0,2 -1,3 -2,4 -1,1 -3,2 -5,2l-1 0 0 -12 1 0z"/>
  </g>
 </g>
</svg>
