<?xml version="1.0" encoding="UTF-8"?>
<!DOCTYPE svg PUBLIC "-//W3C//DTD SVG 1.0//EN" "http://www.w3.org/TR/2001/REC-SVG-20010904/DTD/svg10.dtd">
<!-- Creator: CorelDRAW X8 -->
<svg xmlns="http://www.w3.org/2000/svg" xml:space="preserve" width="1306px" height="400px" version="1.0" style="shape-rendering:geometricPrecision; text-rendering:geometricPrecision; image-rendering:optimizeQuality; fill-rule:evenodd; clip-rule:evenodd"
viewBox="0 0 940 288"
 xmlns:xlink="http://www.w3.org/1999/xlink">
 <defs>
  <style type="text/css">
   <![CDATA[
    .fil1 {fill:#2E2F78}
    .fil0 {fill:#313280}
   ]]>
  </style>
 </defs>
 <g id="Capa_x0020_1">
  <metadata id="CorelCorpID_0Corel-Layer"/>
  <g id="_2486079578208">
   <path class="fil0" d="M468 275l2 -51c-23,32 -80,28 -123,28 -51,0 -102,0 -153,0 -51,0 -91,5 -133,-18 -27,-15 -56,-51 -61,-90 -2,42 28,90 48,105 35,27 63,36 120,36 56,0 268,11 300,-10z"/>
   <path class="fil0" d="M471 63c18,-32 79,-29 122,-29 50,0 101,0 152,0 48,0 97,-4 135,18 25,15 55,51 59,91 4,-50 -29,-91 -55,-112 -38,-31 -81,-30 -139,-30 -56,0 -113,0 -169,0 -94,0 -116,-11 -105,62z"/>
   <path class="fil0" d="M437 120c0,-17 -1,-17 16,-17 22,0 45,-2 42,21 -1,6 -2,11 -4,14 -9,10 -30,8 -53,7l-1 -25zm-14 77c20,6 14,-18 14,-37 29,-1 36,24 49,34 5,3 10,5 17,3 -5,-11 -16,-29 -27,-36 9,0 20,-4 28,-10 3,-2 21,-52 -17,-60 -6,-2 -13,-2 -21,-3 -26,0 -47,-3 -46,20l3 89z"/>
   <path class="fil0" d="M782 148c0,-27 0,-47 30,-47 28,1 29,20 29,47l-59 0zm-17 51c7,0 16,0 16,0l1 -37 59 0 0 37 16 0 0 -79c0,-19 -19,-33 -45,-33 -31,0 -46,15 -46,45l-1 67z"/>
   <path class="fil1" d="M322 182c-1,-2 -2,-6 -2,-9 -2,-17 -2,-45 0,-61 1,-9 0,-8 9,-9 32,-4 54,6 54,40 0,34 -20,44 -51,41 -3,-1 -7,-1 -10,-2zm-4 -93c-18,5 -17,13 -17,34l1 57c0,13 10,18 31,18 78,2 76,-59 61,-85 -12,-20 -46,-31 -76,-24z"/>
   <path class="fil0" d="M571 103c55,-16 66,66 27,79 -29,10 -49,-5 -54,-27 -5,-26 3,-44 27,-52zm-3 -15c-68,15 -54,127 29,110 66,-14 53,-127 -29,-110z"/>
   <path class="fil0" d="M726 178c-3,5 -7,7 -12,8 -24,2 -35,-9 -47,-14 -7,-4 -12,-2 -11,5 2,25 96,38 91,-10 -2,-23 -24,-27 -45,-33 -36,-11 -36,-32 -3,-32 22,-1 19,6 30,12 15,7 17,-4 12,-12 -9,-14 -42,-19 -62,-12 -25,8 -29,34 -9,49 14,9 30,10 44,15 13,4 20,10 12,24z"/>
   <path class="fil1" d="M275 183c-10,-3 -27,4 -54,-2l0 -32c11,0 38,0 39,0 10,-2 8,-13 2,-15 -6,-1 -16,0 -41,-1l0 -29 51 0c7,-1 9,-13 -1,-14 -15,-1 -38,-2 -50,-1 -13,1 -17,6 -19,18 -1,13 -2,63 1,74 1,8 3,14 11,17 13,1 54,1 61,1 10,0 10,-13 0,-16z"/>
   <path class="fil0" d="M182 172c-18,-6 -18,18 -54,12 -19,-3 -29,-19 -29,-41 0,-23 9,-36 28,-40 19,-5 29,2 37,7 16,10 22,2 12,-10 -19,-22 -95,-23 -95,43 1,81 108,60 101,29z"/>
  </g>
 </g>
</svg>
