<?xml version="1.0" encoding="UTF-8"?>
<!DOCTYPE svg PUBLIC "-//W3C//DTD SVG 1.0//EN" "http://www.w3.org/TR/2001/REC-SVG-20010904/DTD/svg10.dtd">
<!-- Creator: CorelDRAW X8 -->
<svg xmlns="http://www.w3.org/2000/svg" xml:space="preserve" width="1059px" height="400px" version="1.0" style="shape-rendering:geometricPrecision; text-rendering:geometricPrecision; image-rendering:optimizeQuality; fill-rule:evenodd; clip-rule:evenodd" viewBox="0 0 2040 771" xmlns:xlink="http://www.w3.org/1999/xlink">
 <defs>
  <style type="text/css">
   <![CDATA[
    .fil0 {fill:#173B8C}
    .fil1 {fill:#F27123}
   ]]>
  </style>
 </defs>
 <g id="Capa_x0020_1">
  <metadata id="CorelCorpID_0Corel-Layer"/>
  <g id="_2486081828848">
   <path class="fil0" d="M1115 423c70,0 181,-14 182,89 2,93 -98,88 -182,86l0 -175zm0 -239c75,-1 164,-10 164,75 0,82 -91,74 -164,74l0 -149zm-178 0l62 0 0 510c70,1 139,1 208,0 246,-1 254,-226 147,-302 -8,-6 -28,-16 -33,-20 6,-6 14,-9 21,-14 54,-39 74,-115 45,-177 -29,-65 -101,-93 -194,-93l-256 0 0 96z"/>
   <path class="fil0" d="M1662 598l0 -414c78,0 138,0 188,41 39,33 67,92 67,166 0,78 -25,128 -66,164 -46,41 -113,44 -189,43zm-178 -414l62 0 0 510 157 0c190,0 337,-106 337,-295 0,-141 -61,-231 -164,-276 -112,-49 -260,-35 -392,-35l0 96z"/>
   <path class="fil0" d="M135 458c14,4 55,22 70,29 18,9 8,25 34,66 17,27 71,78 120,77 -60,-41 -26,-110 26,-111 29,-1 52,20 58,43 9,34 -11,55 -30,68 50,2 103,-50 121,-77 28,-44 15,-58 32,-67 17,-9 54,-24 72,-30 6,93 -63,187 -146,226 -159,74 -350,-35 -357,-224zm629 -147c-34,8 -357,151 -377,152 -11,1 -335,-136 -377,-152 -21,30 -5,145 8,188 29,100 103,184 195,231 47,24 109,41 172,41 233,0 427,-209 379,-460z"/>
   <path class="fil1" d="M221 38c6,14 124,192 131,201 5,-19 30,-216 31,-239 -57,-1 -120,17 -162,38z"/>
   <path class="fil1" d="M419 238c12,-9 129,-193 132,-200 -38,-21 -108,-39 -161,-38l29 238z"/>
   <path class="fil1" d="M483 264c14,-5 198,-113 203,-119 -12,-22 -93,-95 -129,-103l-74 222z"/>
   <path class="fil1" d="M86 145c6,7 188,115 202,119l-73 -222c-36,8 -117,81 -129,103z"/>
   <path class="fil1" d="M11 302l224 15c-6,-15 -62,-68 -76,-84 -11,-12 -70,-75 -79,-80 -23,23 -66,104 -69,149z"/>
   <path class="fil1" d="M536 316l226 -14c-6,-45 -45,-126 -70,-149 -8,4 -151,152 -156,163z"/>
  </g>
 </g>
</svg>
