<?xml version="1.0" encoding="UTF-8"?>
<!DOCTYPE svg PUBLIC "-//W3C//DTD SVG 1.0//EN" "http://www.w3.org/TR/2001/REC-SVG-20010904/DTD/svg10.dtd">
<!-- Creator: CorelDRAW X8 -->
<svg xmlns="http://www.w3.org/2000/svg" xml:space="preserve" width="1529px" height="400px" version="1.0" style="shape-rendering:geometricPrecision; text-rendering:geometricPrecision; image-rendering:optimizeQuality; fill-rule:evenodd; clip-rule:evenodd" viewBox="0 0 1205414 315361" xmlns:xlink="http://www.w3.org/1999/xlink">
 <defs>
  <style type="text/css">
   <![CDATA[
    .fil0 {fill:#013272}
    .fil2 {fill:#01336D}
    .fil1 {fill:white}
    .fil3 {fill:white;fill-rule:nonzero}
   ]]>
  </style>
 </defs>
 <g id="Capa_x0020_1">
  <metadata id="CorelCorpID_0Corel-Layer"/>
  <g id="_2485893885392">
   <path class="fil0" d="M493980 224668c2411,-11292 21539,-55002 27445,-69516 10506,-25820 15844,-46011 26789,-70504l62928 168c-1154,10286 -9500,26439 -13421,36269 -5007,12554 -8046,24487 -12837,35932 -9340,22310 -18193,45103 -27219,67820l-63685 -169zm538592 -133051c17709,-6073 30868,-25651 79171,-23005l-7118 54992c-13375,-2353 -23401,-17913 -47726,-11382 -56619,15204 -58328,88441 -77137,112325l-66673 277 54600 -148107 66654 335 -1771 14565zm-220243 133109c-16654,0 -21803,-748 -33675,-8899 -24193,-16612 -12088,-36311 -4122,-59728 10777,-31688 5402,-33959 24992,-60448 15347,-20752 36757,-24115 63301,-18355 17123,3717 25143,9329 31266,9446l3115 -10143 54321 -192c-1049,12539 -47018,134889 -52221,148031l-86977 288zm-145010 6541c-76788,6290 -97889,-35812 -62987,-99581 3024,-5524 6029,-9934 9323,-16029 13252,-24506 46514,-43333 80281,-39855 20223,2083 20693,6099 33615,13313l6364 -12811 54431 175c1373,6702 -24623,80810 -28154,90433 -17067,46524 -28971,83806 -62258,116512 -31339,30793 -105852,22517 -135661,1750 4962,-11942 10617,-35386 14716,-48633 14741,3453 18854,21150 46952,21161 22111,8 36849,-12146 43378,-26435zm-110035 -157201c-15193,-50153 56947,-42887 65541,-36130 9152,7196 1310,32562 -14496,37404 -12145,3720 -40117,2257 -51045,-1274zm-88691 12250c3815,-4446 18763,-43070 21000,-50105l63664 -415 -73638 188701 -30446 438c-37713,-37 -95814,7951 -110542,-27421 -9129,-21925 341,-59902 9360,-75833 9817,-17342 26596,-38066 47930,-45012 37114,-12084 49447,3010 72672,9647zm-281593 -49280c12367,-2443 169108,-2106 188682,-669 -462,7907 -7991,27801 -12024,36883l-134352 185 -15135 34759 123048 697 -12919 36668 -123235 489c-3679,9305 -17010,33177 -17652,41555l138102 796 -11567 34987c-10514,4326 -171340,1397 -197120,1566l74172 -187916zm913934 278325c6878,-10931 21278,-60344 26621,-76357 7923,-23748 16306,-50963 25481,-77353 6415,-18450 49047,-151236 52349,-154485 303,-8463 -1724,-6419 -12231,-6442l-526476 369c-181019,140 -363720,-2564 -544509,53 -26646,74496 -64030,159056 -92164,235650 -4979,13558 -9561,25136 -15143,39398 -2975,7598 -14367,33929 -14862,38674l1100934 493z"/>
   <path class="fil1" d="M684157 196069c-14328,1435 -26256,-8118 -32160,-14666 -13712,-15207 3842,-49199 23235,-58320 11317,-5324 27815,-4652 38750,235 1407,7770 -24390,63424 -29825,72751zm-16838 35198c-6529,14289 -21267,26443 -43378,26435 -28098,-11 -32211,-17708 -46952,-21161 -4099,13247 -9754,36691 -14716,48633 29809,20767 104322,29043 135661,-1750 33287,-32706 45191,-69988 62258,-116512 3531,-9623 29527,-83731 28154,-90433l-54431 -175 -6364 12811c-12922,-7214 -13392,-11230 -33615,-13313 -33767,-3478 -67029,15349 -80281,39855 -3294,6095 -6299,10505 -9323,16029 -34902,63769 -13801,105871 62987,99581z"/>
   <path class="fil1" d="M112828 224952c25780,-169 186606,2760 197120,-1566l11567 -34987 -138102 -796c642,-8378 13973,-32250 17652,-41555l123235 -489 12919 -36668 -123048 -697 15135 -34759 134352 -185c4033,-9082 11562,-28976 12024,-36883 -19574,-1437 -176315,-1774 -188682,669l-74172 187916z"/>
   <path class="fil1" d="M422371 110203c24837,-9298 35346,9564 28032,32514 -5232,16424 -18155,35933 -29816,39999 -23521,8205 -38612,-8742 -28884,-32935 6631,-16491 14544,-33543 30668,-39578zm46222 -23887c-23225,-6637 -35558,-21731 -72672,-9647 -21334,6946 -38113,27670 -47930,45012 -9019,15931 -18489,53908 -9360,75833 14728,35372 72829,27384 110542,27421l30446 -438 73638 -188701 -63664 415c-2237,7035 -17185,45659 -21000,50105z"/>
   <path class="fil1" d="M855530 192549c-53762,566 -37324,-56360 -10730,-75074 11245,-7913 24215,-5167 38646,-2442 -1023,11661 -23841,63170 -27916,77516zm-43201 32177l86977 -288c5203,-13142 51172,-135492 52221,-148031l-54321 192 -3115 10143c-6123,-117 -14143,-5729 -31266,-9446 -26544,-5760 -47954,-2397 -63301,18355 -19590,26489 -14215,28760 -24992,60448 -7966,23417 -20071,43116 4122,59728 11872,8151 17021,8899 33675,8899z"/>
   <path class="fil1" d="M1032572 91617l1771 -14565 -66654 -335 -54600 148107 66673 -277c18809,-23884 20518,-97121 77137,-112325 24325,-6531 34351,9029 47726,11382l7118 -54992c-48303,-2646 -61462,16932 -79171,23005z"/>
   <path class="fil1" d="M493980 224668l63685 169c9026,-22717 17879,-45510 27219,-67820 4791,-11445 7830,-23378 12837,-35932 3921,-9830 12267,-25983 13421,-36269l-62928 -168c-10945,24493 -16283,44684 -26789,70504 -5906,14514 -25034,58224 -27445,69516z"/>
   <path class="fil2" d="M422371 110203c-16124,6035 -24037,23087 -30668,39578 -9728,24193 5363,41140 28884,32935 11661,-4066 24584,-23575 29816,-39999 7314,-22950 -3195,-41812 -28032,-32514z"/>
   <path class="fil0" d="M684157 196069c5435,-9327 31232,-64981 29825,-72751 -10935,-4887 -27433,-5559 -38750,-235 -19393,9121 -36947,43113 -23235,58320 5904,6548 17832,16101 32160,14666z"/>
   <path class="fil2" d="M855530 192549c4075,-14346 26893,-65855 27916,-77516 -14431,-2725 -27401,-5471 -38646,2442 -26594,18714 -43032,75640 10730,75074z"/>
   <path class="fil1" d="M557284 74066c10928,3531 38900,4994 51045,1274 15806,-4842 23648,-30208 14496,-37404 -8594,-6757 -80734,-14023 -65541,36130z"/>
   <path class="fil3" d="M781203 251035l-4214 4240c-1706,-1706 -3258,-2559 -4658,-2559 -759,0 -1356,162 -1791,486 -435,324 -648,726 -648,1203 0,367 136,700 409,1007 273,307 956,724 2039,1262l2491 1246c2627,1287 4436,2610 5416,3949 982,1347 1468,2917 1468,4725 0,2406 -888,4419 -2662,6022 -1773,1612 -4154,2415 -7140,2415 -3957,0 -7131,-1545 -9493,-4641l4205 -4572c802,930 1740,1689 2823,2261 1076,571 2030,861 2866,861 896,0 1630,-213 2176,-648 554,-436 828,-929 828,-1493 0,-1049 -990,-2072 -2978,-3062l-2295 -1152c-4402,-2209 -6602,-4973 -6602,-8291 0,-2141 828,-3975 2483,-5493 1654,-1518 3769,-2278 6346,-2278 1765,0 3420,393 4981,1169 1553,776 2866,1894 3950,3343zm8902 16165c1083,0 2005,375 2772,1135 759,759 1143,1680 1143,2763 0,1092 -384,2013 -1143,2781 -767,767 -1689,1152 -2772,1152 -1084,0 -2005,-385 -2772,-1152 -760,-768 -1144,-1689 -1144,-2781 0,-1083 384,-2004 1144,-2763 767,-760 1688,-1135 2772,-1135zm30030 -20011l6807 0 0 27176 -6807 0 0 -2892c-1330,1263 -2670,2167 -4008,2722 -1340,554 -2799,836 -4359,836 -3524,0 -6560,-1357 -9128,-4078 -2567,-2712 -3846,-6090 -3846,-10125 0,-4188 1245,-7617 3727,-10295 2482,-2670 5493,-4010 9042,-4010 1638,0 3164,307 4597,913 1433,606 2755,1527 3975,2738l0 -2985zm-7174 5578c-2115,0 -3872,743 -5263,2235 -1398,1484 -2098,3395 -2098,5723 0,2347 708,4274 2132,5793 1425,1510 3174,2268 5255,2268 2141,0 3924,-742 5332,-2234 1415,-1485 2124,-3438 2124,-5852 0,-2362 -709,-4273 -2124,-5741 -1408,-1458 -3200,-2192 -5358,-2192zm23864 14433c1083,0 2005,375 2772,1135 759,759 1143,1680 1143,2763 0,1092 -384,2013 -1143,2781 -767,767 -1689,1152 -2772,1152 -1084,0 -2005,-385 -2772,-1152 -759,-768 -1144,-1689 -1144,-2781 0,-1083 385,-2004 1144,-2763 767,-760 1688,-1135 2772,-1135zm44352 -30503l6807 0 0 37668 -6807 0 0 -2892c-1331,1263 -2670,2167 -4009,2722 -1339,554 -2798,836 -4359,836 -3523,0 -6559,-1357 -9127,-4078 -2567,-2712 -3847,-6090 -3847,-10125 0,-4188 1245,-7617 3728,-10295 2482,-2670 5493,-4010 9042,-4010 1638,0 3164,307 4598,913 1432,614 2754,1535 3974,2756l0 -13495zm-7174 16070c-2115,0 -3873,743 -5263,2235 -1398,1484 -2098,3395 -2098,5723 0,2347 708,4274 2133,5793 1424,1510 3173,2268 5253,2268 2142,0 3924,-742 5332,-2234 1416,-1485 2124,-3438 2124,-5852 0,-2362 -708,-4273 -2124,-5741 -1408,-1458 -3198,-2192 -5357,-2192zm47355 9930l-21879 0c315,1935 1160,3479 2525,4631 1365,1143 3114,1715 5228,1715 2543,0 4718,-896 6543,-2688l5716 2704c-1425,2030 -3140,3532 -5127,4513 -1996,972 -4359,1459 -7097,1459 -4248,0 -7711,-1340 -10381,-4026 -2671,-2679 -4009,-6039 -4009,-10075 0,-4137 1338,-7574 4009,-10303 2670,-2738 6014,-4104 10048,-4104 4274,0 7753,1366 10432,4086 2679,2730 4018,6321 4018,10799l-26 1289zm-6781 -5323c-452,-1484 -1339,-2696 -2661,-3625 -1331,-930 -2867,-1391 -4624,-1391 -1901,0 -3565,520 -5006,1570 -896,648 -1732,1799 -2499,3446l14790 0zm52583 -4658l-5672 3122c-1066,-1117 -2116,-1885 -3156,-2320 -1040,-435 -2261,-648 -3660,-648 -2550,0 -4615,759 -6184,2268 -1578,1519 -2362,3456 -2362,5827 0,2302 759,4180 2268,5638 1519,1458 3506,2183 5971,2183 3046,0 5417,-1040 7123,-3122l5365 3686c-2917,3787 -7028,5681 -12343,5681 -4785,0 -8529,-1416 -11233,-4240 -2705,-2823 -4060,-6124 -4060,-9912 0,-2627 656,-5041 1970,-7250 1322,-2210 3156,-3949 5518,-5212 2355,-1262 4990,-1894 7908,-1894 2704,0 5126,538 7275,1613 2150,1074 3907,2601 5272,4580zm9166 14484c1084,0 2005,375 2772,1135 760,759 1144,1680 1144,2763 0,1092 -384,2013 -1144,2781 -767,767 -1688,1152 -2772,1152 -1083,0 -2004,-385 -2772,-1152 -759,-768 -1143,-1689 -1143,-2781 0,-1083 384,-2004 1143,-2763 768,-760 1689,-1135 2772,-1135zm7026 -20011l6977 0 6842 16036 6901 -16036 6916 0 -11694 27176 -4350 0 -11592 -27176zm34568 20011c1083,0 2005,375 2772,1135 759,759 1144,1680 1144,2763 0,1092 -385,2013 -1144,2781 -767,767 -1689,1152 -2772,1152 -1084,0 -2005,-385 -2772,-1152 -760,-768 -1144,-1689 -1144,-2781 0,-1083 384,-2004 1144,-2763 767,-760 1688,-1135 2772,-1135z"/>
  </g>
 </g>
</svg>
