<?xml version="1.0" encoding="UTF-8"?>
<!DOCTYPE svg PUBLIC "-//W3C//DTD SVG 1.0//EN" "http://www.w3.org/TR/2001/REC-SVG-20010904/DTD/svg10.dtd">
<!-- Creator: CorelDRAW X8 -->
<svg xmlns="http://www.w3.org/2000/svg" xml:space="preserve" width="2436px" height="400px" version="1.0" style="shape-rendering:geometricPrecision; text-rendering:geometricPrecision; image-rendering:optimizeQuality; fill-rule:evenodd; clip-rule:evenodd"
viewBox="0 0 1497 246"
 xmlns:xlink="http://www.w3.org/1999/xlink">
 <defs>
  <style type="text/css">
   <![CDATA[
    .fil3 {fill:#F97509}
    .fil1 {fill:#FA7205}
    .fil0 {fill:#FB7303}
    .fil2 {fill:#FC7404}
   ]]>
  </style>
 </defs>
 <g id="Capa_x0020_1">
  <metadata id="CorelCorpID_0Corel-Layer"/>
  <g id="_2486079578912">
   <path class="fil0" d="M785 173c-8,4 -24,17 -35,3 -10,-15 2,-31 12,-34 7,6 21,22 23,31zm-22 -73c-1,-7 4,-11 11,-11 16,1 13,18 -2,24 -4,-3 -9,-7 -9,-13zm26 31c7,-10 22,-16 20,-37 -3,-31 -55,-36 -69,-10 -12,20 2,28 6,42 -29,16 -32,49 -16,67 29,33 70,-1 73,-2 5,5 18,25 29,10 10,-12 -6,-21 -10,-31 4,-5 10,-11 12,-19 1,-8 0,-13 -9,-16 -12,-3 -13,10 -22,14l-14 -18z"/>
   <path class="fil0" d="M426 203c8,-4 6,-15 6,-39 0,-9 -2,-22 1,-30 2,-7 10,-10 17,-7 9,3 2,0 3,3 12,6 3,52 6,66 3,9 15,13 23,6 6,-5 5,-20 5,-30 0,-27 6,-70 -35,-71 -13,0 -18,5 -27,10 -21,-7 -16,-18 -49,-2 -34,-26 -27,30 -27,38 0,13 0,26 0,39 0,14 3,19 13,19 8,1 9,1 12,-7 8,-18 0,-44 5,-67 19,-15 25,-1 25,22 0,10 0,20 0,29 0,7 0,10 1,13 3,11 11,13 21,8z"/>
   <path class="fil0" d="M1101 126c28,-8 34,49 9,56 -29,8 -37,-48 -9,-56zm50 48c4,-13 7,-31 -5,-51 -5,-9 -14,-18 -25,-20 -20,-5 -25,2 -37,8 -19,-13 -28,-11 -28,18 0,21 0,42 0,63 0,16 -6,50 10,53 24,5 17,-29 17,-46 13,5 15,10 34,7 19,-3 28,-15 34,-32z"/>
   <path class="fil0" d="M1391 195c2,7 6,12 15,10 7,0 9,-3 10,-8 5,-17 11,-33 16,-51 3,10 14,56 22,59 16,6 19,-9 23,-18 5,-19 15,-45 20,-66 2,-12 -2,-20 -14,-18 -13,2 -19,38 -23,57 -10,-14 -9,-56 -27,-57 -13,-1 -14,12 -18,25 -3,11 -6,21 -9,32 -13,-20 -7,-53 -23,-57 -15,-3 -17,8 -14,24 3,23 14,46 22,68z"/>
   <path class="fil1" d="M620 63c-4,17 -2,54 -2,74 0,12 0,25 0,37 0,14 -3,24 9,30 7,3 9,2 15,-2 13,-18 -5,-54 8,-70 6,-8 19,-9 26,-1 12,12 -2,61 9,71 9,8 22,3 23,-10 2,-17 2,-38 0,-55 -3,-19 -8,-33 -30,-35 -17,-2 -21,1 -32,7 -1,-13 9,-67 -26,-46z"/>
   <path class="fil0" d="M1192 149c0,-15 6,-27 23,-23 13,3 12,19 12,34 0,11 -2,37 5,43 15,11 23,-3 23,-19 0,-26 4,-58 -10,-72 -19,-19 -44,-7 -52,-5 -1,-23 4,-48 -14,-49 -16,0 -14,13 -14,26l0 96c0,40 27,29 27,8l0 -39z"/>
   <path class="fil1" d="M1294 144c1,-25 41,-25 40,1l-40 -1zm1 20c14,-1 48,1 60,-1 18,-3 4,-33 0,-40 -19,-26 -58,-31 -78,-3 -19,25 -14,65 13,81 24,13 84,3 68,-27 -17,-6 -19,7 -36,9 -14,1 -25,-5 -27,-19z"/>
   <path class="fil1" d="M977 144c0,-23 38,-26 40,1l-40 -1zm-14 -29c-1,1 -2,2 -3,4 -20,23 -16,61 7,78 29,22 93,4 71,-24 -16,-3 -18,8 -34,10 -15,1 -25,-5 -27,-20l54 1c36,-2 7,-64 -37,-62 -11,0 -25,4 -31,13z"/>
   <path class="fil0" d="M878 106l-5 4c-7,-8 -7,-5 -17,-8 -9,13 -9,4 -9,25 0,36 -8,86 19,78 15,-5 9,-43 9,-58 1,-28 27,-26 33,-12 5,13 -2,50 3,63 3,8 16,10 22,4 6,-6 4,-21 4,-30 0,-48 4,-81 -59,-66z"/>
   <path class="fil1" d="M282 131c15,-23 52,26 54,-6 0,-21 -37,-26 -55,-22 -19,4 -38,28 -21,47 13,15 55,14 50,28 -7,8 -21,6 -29,1 -8,-4 -10,-11 -20,-9 -6,1 -8,4 -10,9 -6,25 57,38 80,17 14,-12 19,-42 -28,-53 -11,-3 -18,-2 -21,-12z"/>
   <path class="fil0" d="M133 140c-32,12 13,114 48,104 34,-9 -12,-118 -48,-104z"/>
   <path class="fil0" d="M559 102c-7,4 -16,2 -17,13 -1,11 6,13 16,13 7,23 -5,60 9,72 18,16 52,-3 21,-20l0 -52c12,-1 21,0 22,-12 0,-12 -11,-11 -22,-12 -1,-15 3,-32 -13,-33 -19,-2 -15,17 -16,31z"/>
   <path class="fil0" d="M16 73c-51,14 34,55 78,42 9,-3 17,-10 10,-20 -10,-16 -60,-30 -88,-22z"/>
   <path class="fil2" d="M506 129c1,14 -2,61 2,69 4,10 19,10 24,2 5,-7 3,-25 3,-34 0,-17 6,-58 -10,-63 -17,-5 -52,3 -19,26z"/>
   <path class="fil0" d="M15 181c-9,16 3,17 16,14 15,-3 31,-13 40,-20 10,-7 28,-19 33,-34 3,-8 2,-10 -6,-11 -20,-1 -41,13 -56,25 -10,8 -20,14 -27,26z"/>
   <path class="fil0" d="M126 93c25,1 50,-67 38,-93 -18,-3 -28,22 -33,35 -7,17 -15,43 -5,58z"/>
   <path class="fil1" d="M155 100c20,17 74,1 67,-18 -5,-14 -68,-9 -67,18z"/>
   <path class="fil3" d="M513 64c-7,4 -13,10 -6,22 4,6 15,9 23,4 15,-10 1,-39 -17,-26z"/>
  </g>
 </g>
</svg>
