<?xml version="1.0" encoding="UTF-8"?>
<!DOCTYPE svg PUBLIC "-//W3C//DTD SVG 1.0//EN" "http://www.w3.org/TR/2001/REC-SVG-20010904/DTD/svg10.dtd">
<!-- Creator: CorelDRAW X8 -->
<svg xmlns="http://www.w3.org/2000/svg" xml:space="preserve" width="2288px" height="400px" version="1.0" style="shape-rendering:geometricPrecision; text-rendering:geometricPrecision; image-rendering:optimizeQuality; fill-rule:evenodd; clip-rule:evenodd"
viewBox="0 0 1872 327"
 xmlns:xlink="http://www.w3.org/1999/xlink">
 <defs>
  <style type="text/css">
   <![CDATA[
    .fil0 {fill:#008D60}
    .fil1 {fill:#008E61}
    .fil2 {fill:#D6201C}
   ]]>
  </style>
 </defs>
 <g id="Capa_x0020_1">
  <metadata id="CorelCorpID_0Corel-Layer"/>
  <g id="_2486058526032">
   <path class="fil0" d="M1385 195c2,2 34,95 40,112 1,3 4,15 6,15l52 0c3,-1 41,-122 46,-127l0 127 55 0 0 -174c0,-11 -4,-19 -15,-19 -23,-1 -47,0 -69,0l-43 123c-2,-2 -5,-13 -6,-16l-26 -77c-4,-9 -8,-21 -11,-30 -22,0 -48,-2 -70,0 -11,0 -14,8 -14,20l0 173 54 0 1 -127z"/>
   <path class="fil0" d="M1681 258c-2,-10 -1,-46 -1,-58 0,-20 14,-25 34,-26 18,-1 39,0 58,0 46,0 40,18 40,47 0,36 6,53 -33,55 -19,1 -39,0 -58,0 -18,0 -37,-2 -40,-18zm10 69l111 0c5,-2 15,-2 21,-4 18,-4 35,-14 42,-31 9,-21 6,-70 6,-95 0,-29 -5,-53 -34,-65 -26,-12 -60,-9 -91,-9 -31,0 -64,-3 -90,9 -31,12 -35,37 -35,65 0,25 -3,75 6,95 15,34 58,32 64,35z"/>
   <path class="fil1" d="M605 171l160 0 0 -42 -196 0c-14,0 -20,4 -20,18l0 157c0,15 7,18 21,18l195 0 0 -47 -160 0 0 -31 160 0 0 -42 -160 0 0 -31z"/>
   <path class="fil0" d="M858 172c22,-1 44,0 66,0 40,0 46,-5 46,18 1,15 -3,18 -14,18 -30,0 -71,1 -98,0l0 -36zm120 79c13,0 21,-3 29,-9 5,-4 11,-13 14,-22 7,-19 7,-45 -1,-63 -9,-22 -23,-28 -45,-28l-146 0c-13,0 -23,-1 -26,11 -2,5 -1,169 -1,182l56 0 0 -71 48 0c3,0 5,4 7,7 13,16 29,35 42,51 12,16 9,13 19,13 19,0 43,2 62,0 -3,-5 -56,-67 -58,-71z"/>
   <path class="fil2" d="M286 128c5,-3 16,-9 22,-12 8,-3 15,-7 23,-11 92,-45 157,-64 260,-84 19,-4 39,-7 58,-10 7,-1 58,-7 60,-9 -2,-3 -22,-2 -26,-2 -121,2 -251,19 -367,52 -68,19 -142,44 -205,73 -32,15 -72,33 -102,51 -6,3 -6,3 -9,5 63,1 127,0 191,0 10,0 9,0 16,-5 8,-5 17,-10 26,-16 8,-5 17,-11 26,-16 8,-5 19,-12 27,-16z"/>
   <path class="fil0" d="M1144 327l62 0c10,-3 79,4 86,-56 1,-12 0,-128 0,-142l-59 0c0,34 0,68 0,102 0,18 3,32 -12,39 -18,7 -77,7 -94,0 -16,-6 -14,-19 -14,-38 0,-34 0,-69 0,-103l-59 0c0,15 -1,131 1,143 9,61 78,51 89,55z"/>
   <path class="fil0" d="M286 128l0 53 89 0 0 141 64 0c2,-5 1,-132 1,-141l89 0 0 -52 -243 -1z"/>
  </g>
 </g>
</svg>
